<svg xmlns="http://www.w3.org/2000/svg" width="1100" height="660" viewBox="0 0 1100 660">
<rect width="100%" height="100%" fill="white"/>
<text x="550.0" y="36" text-anchor="middle" font-family="Arial" font-size="22" font-weight="700">Off-policy clip ablation: gradient norm</text>
<line x1="95" y1="578" x2="800" y2="578" stroke="#222" stroke-width="1.5"/>
<line x1="95" y1="74" x2="95" y2="578" stroke="#222" stroke-width="1.5"/>
<line x1="90" y1="578.0" x2="800" y2="578.0" stroke="#ddd" stroke-width="1"/>
<text x="83" y="582.0" text-anchor="end" font-family="Arial" font-size="12">0.00</text>
<line x1="90" y1="477.2" x2="800" y2="477.2" stroke="#ddd" stroke-width="1"/>
<text x="83" y="481.2" text-anchor="end" font-family="Arial" font-size="12">3276.80</text>
<line x1="90" y1="376.4" x2="800" y2="376.4" stroke="#ddd" stroke-width="1"/>
<text x="83" y="380.4" text-anchor="end" font-family="Arial" font-size="12">6553.60</text>
<line x1="90" y1="275.6" x2="800" y2="275.6" stroke="#ddd" stroke-width="1"/>
<text x="83" y="279.6" text-anchor="end" font-family="Arial" font-size="12">9830.40</text>
<line x1="90" y1="174.8" x2="800" y2="174.8" stroke="#ddd" stroke-width="1"/>
<text x="83" y="178.8" text-anchor="end" font-family="Arial" font-size="12">13107.20</text>
<line x1="90" y1="74.0" x2="800" y2="74.0" stroke="#ddd" stroke-width="1"/>
<text x="83" y="78.0" text-anchor="end" font-family="Arial" font-size="12">16384.00</text>
<line x1="95.0" y1="578" x2="95.0" y2="583" stroke="#222" stroke-width="1"/>
<text x="95.0" y="602" text-anchor="middle" font-family="Arial" font-size="12">1</text>
<line x1="236.0" y1="578" x2="236.0" y2="583" stroke="#222" stroke-width="1"/>
<text x="236.0" y="602" text-anchor="middle" font-family="Arial" font-size="12">41</text>
<line x1="377.0" y1="578" x2="377.0" y2="583" stroke="#222" stroke-width="1"/>
<text x="377.0" y="602" text-anchor="middle" font-family="Arial" font-size="12">81</text>
<line x1="518.0" y1="578" x2="518.0" y2="583" stroke="#222" stroke-width="1"/>
<text x="518.0" y="602" text-anchor="middle" font-family="Arial" font-size="12">120</text>
<line x1="659.0" y1="578" x2="659.0" y2="583" stroke="#222" stroke-width="1"/>
<text x="659.0" y="602" text-anchor="middle" font-family="Arial" font-size="12">160</text>
<line x1="800.0" y1="578" x2="800.0" y2="583" stroke="#222" stroke-width="1"/>
<text x="800.0" y="602" text-anchor="middle" font-family="Arial" font-size="12">200</text>
<polyline fill="none" stroke="#1f77b4" stroke-width="2.3" points="95.0,578.0 98.5,578.0 102.1,578.0 105.6,578.0 109.2,578.0 112.7,578.0 116.3,578.0 119.8,578.0 123.3,578.0 126.9,578.0 130.4,578.0 134.0,578.0 137.5,578.0 141.1,578.0 144.6,578.0 148.1,578.0 151.7,578.0 155.2,578.0 158.8,578.0 162.3,578.0 165.9,578.0 169.4,578.0 172.9,578.0 176.5,578.0 180.0,578.0 183.6,578.0 187.1,578.0 190.7,578.0 194.2,578.0 197.7,578.0 201.3,578.0 204.8,578.0 208.4,578.0 211.9,578.0 215.5,578.0 219.0,578.0 222.5,578.0 226.1,578.0 229.6,578.0 233.2,578.0 236.7,578.0 240.3,578.0 243.8,578.0 247.3,578.0 250.9,578.0 254.4,578.0 258.0,578.0 261.5,578.0 265.1,578.0 268.6,578.0 272.1,578.0 275.7,578.0 279.2,578.0 282.8,578.0 286.3,578.0 289.8,578.0 293.4,578.0 296.9,578.0 300.5,578.0 304.0,578.0 307.6,578.0 311.1,578.0 314.6,578.0 318.2,578.0 321.7,578.0 325.3,578.0 328.8,578.0 332.4,578.0 335.9,578.0 339.4,578.0 343.0,578.0 346.5,578.0 350.1,578.0 353.6,578.0 357.2,578.0 360.7,578.0 364.2,578.0 367.8,578.0 371.3,578.0 374.9,578.0 378.4,578.0 382.0,578.0 385.5,578.0 389.0,578.0 392.6,578.0 396.1,578.0 399.7,578.0 403.2,578.0 406.8,578.0 410.3,578.0 413.8,578.0 417.4,578.0 420.9,578.0 424.5,578.0 428.0,578.0 431.6,578.0 435.1,578.0 438.6,578.0 442.2,578.0 445.7,578.0 449.3,578.0 452.8,578.0 456.4,578.0 459.9,578.0 463.4,578.0 467.0,578.0 470.5,578.0 474.1,578.0 477.6,578.0 481.2,578.0 484.7,578.0 488.2,578.0 491.8,578.0 495.3,578.0 498.9,578.0 502.4,578.0 506.0,578.0 509.5,578.0 513.0,578.0 516.6,578.0 520.1,578.0 523.7,578.0 527.2,578.0 530.8,578.0 534.3,578.0 537.8,578.0 541.4,578.0 544.9,578.0 548.5,578.0 552.0,578.0 555.6,578.0 559.1,578.0 562.6,578.0 566.2,578.0 569.7,578.0 573.3,578.0 576.8,578.0 580.4,578.0 583.9,578.0 587.4,578.0 591.0,578.0 594.5,578.0 598.1,578.0 601.6,578.0 605.2,578.0 608.7,578.0 612.2,578.0 615.8,578.0 619.3,578.0 622.9,578.0 626.4,578.0 629.9,578.0 633.5,578.0 637.0,578.0 640.6,578.0 644.1,578.0 647.7,578.0 651.2,578.0 654.7,578.0 658.3,578.0 661.8,578.0 665.4,578.0 668.9,578.0 672.5,578.0 676.0,578.0 679.5,578.0 683.1,578.0 686.6,578.0 690.2,578.0 693.7,578.0 697.3,578.0 700.8,578.0 704.3,578.0 707.9,578.0 711.4,578.0 715.0,578.0 718.5,578.0 722.1,578.0 725.6,578.0 729.1,578.0 732.7,578.0 736.2,578.0 739.8,578.0 743.3,578.0 746.9,578.0 750.4,578.0 753.9,578.0 757.5,578.0 761.0,578.0 764.6,578.0 768.1,578.0 771.7,578.0 775.2,578.0 778.7,578.0 782.3,578.0 785.8,578.0 789.4,578.0 792.9,578.0 796.5,578.0 800.0,578.0"/>
<circle cx="95.0" cy="578.0" r="3" fill="#1f77b4"/>
<circle cx="98.5" cy="578.0" r="3" fill="#1f77b4"/>
<circle cx="102.1" cy="578.0" r="3" fill="#1f77b4"/>
<circle cx="105.6" cy="578.0" r="3" fill="#1f77b4"/>
<circle cx="109.2" cy="578.0" r="3" fill="#1f77b4"/>
<circle cx="112.7" cy="578.0" r="3" fill="#1f77b4"/>
<circle cx="116.3" cy="578.0" r="3" fill="#1f77b4"/>
<circle cx="119.8" cy="578.0" r="3" fill="#1f77b4"/>
<circle cx="123.3" cy="578.0" r="3" fill="#1f77b4"/>
<circle cx="126.9" cy="578.0" r="3" fill="#1f77b4"/>
<circle cx="130.4" cy="578.0" r="3" fill="#1f77b4"/>
<circle cx="134.0" cy="578.0" r="3" fill="#1f77b4"/>
<circle cx="137.5" cy="578.0" r="3" fill="#1f77b4"/>
<circle cx="141.1" cy="578.0" r="3" fill="#1f77b4"/>
<circle cx="144.6" cy="578.0" r="3" fill="#1f77b4"/>
<circle cx="148.1" cy="578.0" r="3" fill="#1f77b4"/>
<circle cx="151.7" cy="578.0" r="3" fill="#1f77b4"/>
<circle cx="155.2" cy="578.0" r="3" fill="#1f77b4"/>
<circle cx="158.8" cy="578.0" r="3" fill="#1f77b4"/>
<circle cx="162.3" cy="578.0" r="3" fill="#1f77b4"/>
<circle cx="165.9" cy="578.0" r="3" fill="#1f77b4"/>
<circle cx="169.4" cy="578.0" r="3" fill="#1f77b4"/>
<circle cx="172.9" cy="578.0" r="3" fill="#1f77b4"/>
<circle cx="176.5" cy="578.0" r="3" fill="#1f77b4"/>
<circle cx="180.0" cy="578.0" r="3" fill="#1f77b4"/>
<circle cx="183.6" cy="578.0" r="3" fill="#1f77b4"/>
<circle cx="187.1" cy="578.0" r="3" fill="#1f77b4"/>
<circle cx="190.7" cy="578.0" r="3" fill="#1f77b4"/>
<circle cx="194.2" cy="578.0" r="3" fill="#1f77b4"/>
<circle cx="197.7" cy="578.0" r="3" fill="#1f77b4"/>
<circle cx="201.3" cy="578.0" r="3" fill="#1f77b4"/>
<circle cx="204.8" cy="578.0" r="3" fill="#1f77b4"/>
<circle cx="208.4" cy="578.0" r="3" fill="#1f77b4"/>
<circle cx="211.9" cy="578.0" r="3" fill="#1f77b4"/>
<circle cx="215.5" cy="578.0" r="3" fill="#1f77b4"/>
<circle cx="219.0" cy="578.0" r="3" fill="#1f77b4"/>
<circle cx="222.5" cy="578.0" r="3" fill="#1f77b4"/>
<circle cx="226.1" cy="578.0" r="3" fill="#1f77b4"/>
<circle cx="229.6" cy="578.0" r="3" fill="#1f77b4"/>
<circle cx="233.2" cy="578.0" r="3" fill="#1f77b4"/>
<circle cx="236.7" cy="578.0" r="3" fill="#1f77b4"/>
<circle cx="240.3" cy="578.0" r="3" fill="#1f77b4"/>
<circle cx="243.8" cy="578.0" r="3" fill="#1f77b4"/>
<circle cx="247.3" cy="578.0" r="3" fill="#1f77b4"/>
<circle cx="250.9" cy="578.0" r="3" fill="#1f77b4"/>
<circle cx="254.4" cy="578.0" r="3" fill="#1f77b4"/>
<circle cx="258.0" cy="578.0" r="3" fill="#1f77b4"/>
<circle cx="261.5" cy="578.0" r="3" fill="#1f77b4"/>
<circle cx="265.1" cy="578.0" r="3" fill="#1f77b4"/>
<circle cx="268.6" cy="578.0" r="3" fill="#1f77b4"/>
<circle cx="272.1" cy="578.0" r="3" fill="#1f77b4"/>
<circle cx="275.7" cy="578.0" r="3" fill="#1f77b4"/>
<circle cx="279.2" cy="578.0" r="3" fill="#1f77b4"/>
<circle cx="282.8" cy="578.0" r="3" fill="#1f77b4"/>
<circle cx="286.3" cy="578.0" r="3" fill="#1f77b4"/>
<circle cx="289.8" cy="578.0" r="3" fill="#1f77b4"/>
<circle cx="293.4" cy="578.0" r="3" fill="#1f77b4"/>
<circle cx="296.9" cy="578.0" r="3" fill="#1f77b4"/>
<circle cx="300.5" cy="578.0" r="3" fill="#1f77b4"/>
<circle cx="304.0" cy="578.0" r="3" fill="#1f77b4"/>
<circle cx="307.6" cy="578.0" r="3" fill="#1f77b4"/>
<circle cx="311.1" cy="578.0" r="3" fill="#1f77b4"/>
<circle cx="314.6" cy="578.0" r="3" fill="#1f77b4"/>
<circle cx="318.2" cy="578.0" r="3" fill="#1f77b4"/>
<circle cx="321.7" cy="578.0" r="3" fill="#1f77b4"/>
<circle cx="325.3" cy="578.0" r="3" fill="#1f77b4"/>
<circle cx="328.8" cy="578.0" r="3" fill="#1f77b4"/>
<circle cx="332.4" cy="578.0" r="3" fill="#1f77b4"/>
<circle cx="335.9" cy="578.0" r="3" fill="#1f77b4"/>
<circle cx="339.4" cy="578.0" r="3" fill="#1f77b4"/>
<circle cx="343.0" cy="578.0" r="3" fill="#1f77b4"/>
<circle cx="346.5" cy="578.0" r="3" fill="#1f77b4"/>
<circle cx="350.1" cy="578.0" r="3" fill="#1f77b4"/>
<circle cx="353.6" cy="578.0" r="3" fill="#1f77b4"/>
<circle cx="357.2" cy="578.0" r="3" fill="#1f77b4"/>
<circle cx="360.7" cy="578.0" r="3" fill="#1f77b4"/>
<circle cx="364.2" cy="578.0" r="3" fill="#1f77b4"/>
<circle cx="367.8" cy="578.0" r="3" fill="#1f77b4"/>
<circle cx="371.3" cy="578.0" r="3" fill="#1f77b4"/>
<circle cx="374.9" cy="578.0" r="3" fill="#1f77b4"/>
<circle cx="378.4" cy="578.0" r="3" fill="#1f77b4"/>
<circle cx="382.0" cy="578.0" r="3" fill="#1f77b4"/>
<circle cx="385.5" cy="578.0" r="3" fill="#1f77b4"/>
<circle cx="389.0" cy="578.0" r="3" fill="#1f77b4"/>
<circle cx="392.6" cy="578.0" r="3" fill="#1f77b4"/>
<circle cx="396.1" cy="578.0" r="3" fill="#1f77b4"/>
<circle cx="399.7" cy="578.0" r="3" fill="#1f77b4"/>
<circle cx="403.2" cy="578.0" r="3" fill="#1f77b4"/>
<circle cx="406.8" cy="578.0" r="3" fill="#1f77b4"/>
<circle cx="410.3" cy="578.0" r="3" fill="#1f77b4"/>
<circle cx="413.8" cy="578.0" r="3" fill="#1f77b4"/>
<circle cx="417.4" cy="578.0" r="3" fill="#1f77b4"/>
<circle cx="420.9" cy="578.0" r="3" fill="#1f77b4"/>
<circle cx="424.5" cy="578.0" r="3" fill="#1f77b4"/>
<circle cx="428.0" cy="578.0" r="3" fill="#1f77b4"/>
<circle cx="431.6" cy="578.0" r="3" fill="#1f77b4"/>
<circle cx="435.1" cy="578.0" r="3" fill="#1f77b4"/>
<circle cx="438.6" cy="578.0" r="3" fill="#1f77b4"/>
<circle cx="442.2" cy="578.0" r="3" fill="#1f77b4"/>
<circle cx="445.7" cy="578.0" r="3" fill="#1f77b4"/>
<circle cx="449.3" cy="578.0" r="3" fill="#1f77b4"/>
<circle cx="452.8" cy="578.0" r="3" fill="#1f77b4"/>
<circle cx="456.4" cy="578.0" r="3" fill="#1f77b4"/>
<circle cx="459.9" cy="578.0" r="3" fill="#1f77b4"/>
<circle cx="463.4" cy="578.0" r="3" fill="#1f77b4"/>
<circle cx="467.0" cy="578.0" r="3" fill="#1f77b4"/>
<circle cx="470.5" cy="578.0" r="3" fill="#1f77b4"/>
<circle cx="474.1" cy="578.0" r="3" fill="#1f77b4"/>
<circle cx="477.6" cy="578.0" r="3" fill="#1f77b4"/>
<circle cx="481.2" cy="578.0" r="3" fill="#1f77b4"/>
<circle cx="484.7" cy="578.0" r="3" fill="#1f77b4"/>
<circle cx="488.2" cy="578.0" r="3" fill="#1f77b4"/>
<circle cx="491.8" cy="578.0" r="3" fill="#1f77b4"/>
<circle cx="495.3" cy="578.0" r="3" fill="#1f77b4"/>
<circle cx="498.9" cy="578.0" r="3" fill="#1f77b4"/>
<circle cx="502.4" cy="578.0" r="3" fill="#1f77b4"/>
<circle cx="506.0" cy="578.0" r="3" fill="#1f77b4"/>
<circle cx="509.5" cy="578.0" r="3" fill="#1f77b4"/>
<circle cx="513.0" cy="578.0" r="3" fill="#1f77b4"/>
<circle cx="516.6" cy="578.0" r="3" fill="#1f77b4"/>
<circle cx="520.1" cy="578.0" r="3" fill="#1f77b4"/>
<circle cx="523.7" cy="578.0" r="3" fill="#1f77b4"/>
<circle cx="527.2" cy="578.0" r="3" fill="#1f77b4"/>
<circle cx="530.8" cy="578.0" r="3" fill="#1f77b4"/>
<circle cx="534.3" cy="578.0" r="3" fill="#1f77b4"/>
<circle cx="537.8" cy="578.0" r="3" fill="#1f77b4"/>
<circle cx="541.4" cy="578.0" r="3" fill="#1f77b4"/>
<circle cx="544.9" cy="578.0" r="3" fill="#1f77b4"/>
<circle cx="548.5" cy="578.0" r="3" fill="#1f77b4"/>
<circle cx="552.0" cy="578.0" r="3" fill="#1f77b4"/>
<circle cx="555.6" cy="578.0" r="3" fill="#1f77b4"/>
<circle cx="559.1" cy="578.0" r="3" fill="#1f77b4"/>
<circle cx="562.6" cy="578.0" r="3" fill="#1f77b4"/>
<circle cx="566.2" cy="578.0" r="3" fill="#1f77b4"/>
<circle cx="569.7" cy="578.0" r="3" fill="#1f77b4"/>
<circle cx="573.3" cy="578.0" r="3" fill="#1f77b4"/>
<circle cx="576.8" cy="578.0" r="3" fill="#1f77b4"/>
<circle cx="580.4" cy="578.0" r="3" fill="#1f77b4"/>
<circle cx="583.9" cy="578.0" r="3" fill="#1f77b4"/>
<circle cx="587.4" cy="578.0" r="3" fill="#1f77b4"/>
<circle cx="591.0" cy="578.0" r="3" fill="#1f77b4"/>
<circle cx="594.5" cy="578.0" r="3" fill="#1f77b4"/>
<circle cx="598.1" cy="578.0" r="3" fill="#1f77b4"/>
<circle cx="601.6" cy="578.0" r="3" fill="#1f77b4"/>
<circle cx="605.2" cy="578.0" r="3" fill="#1f77b4"/>
<circle cx="608.7" cy="578.0" r="3" fill="#1f77b4"/>
<circle cx="612.2" cy="578.0" r="3" fill="#1f77b4"/>
<circle cx="615.8" cy="578.0" r="3" fill="#1f77b4"/>
<circle cx="619.3" cy="578.0" r="3" fill="#1f77b4"/>
<circle cx="622.9" cy="578.0" r="3" fill="#1f77b4"/>
<circle cx="626.4" cy="578.0" r="3" fill="#1f77b4"/>
<circle cx="629.9" cy="578.0" r="3" fill="#1f77b4"/>
<circle cx="633.5" cy="578.0" r="3" fill="#1f77b4"/>
<circle cx="637.0" cy="578.0" r="3" fill="#1f77b4"/>
<circle cx="640.6" cy="578.0" r="3" fill="#1f77b4"/>
<circle cx="644.1" cy="578.0" r="3" fill="#1f77b4"/>
<circle cx="647.7" cy="578.0" r="3" fill="#1f77b4"/>
<circle cx="651.2" cy="578.0" r="3" fill="#1f77b4"/>
<circle cx="654.7" cy="578.0" r="3" fill="#1f77b4"/>
<circle cx="658.3" cy="578.0" r="3" fill="#1f77b4"/>
<circle cx="661.8" cy="578.0" r="3" fill="#1f77b4"/>
<circle cx="665.4" cy="578.0" r="3" fill="#1f77b4"/>
<circle cx="668.9" cy="578.0" r="3" fill="#1f77b4"/>
<circle cx="672.5" cy="578.0" r="3" fill="#1f77b4"/>
<circle cx="676.0" cy="578.0" r="3" fill="#1f77b4"/>
<circle cx="679.5" cy="578.0" r="3" fill="#1f77b4"/>
<circle cx="683.1" cy="578.0" r="3" fill="#1f77b4"/>
<circle cx="686.6" cy="578.0" r="3" fill="#1f77b4"/>
<circle cx="690.2" cy="578.0" r="3" fill="#1f77b4"/>
<circle cx="693.7" cy="578.0" r="3" fill="#1f77b4"/>
<circle cx="697.3" cy="578.0" r="3" fill="#1f77b4"/>
<circle cx="700.8" cy="578.0" r="3" fill="#1f77b4"/>
<circle cx="704.3" cy="578.0" r="3" fill="#1f77b4"/>
<circle cx="707.9" cy="578.0" r="3" fill="#1f77b4"/>
<circle cx="711.4" cy="578.0" r="3" fill="#1f77b4"/>
<circle cx="715.0" cy="578.0" r="3" fill="#1f77b4"/>
<circle cx="718.5" cy="578.0" r="3" fill="#1f77b4"/>
<circle cx="722.1" cy="578.0" r="3" fill="#1f77b4"/>
<circle cx="725.6" cy="578.0" r="3" fill="#1f77b4"/>
<circle cx="729.1" cy="578.0" r="3" fill="#1f77b4"/>
<circle cx="732.7" cy="578.0" r="3" fill="#1f77b4"/>
<circle cx="736.2" cy="578.0" r="3" fill="#1f77b4"/>
<circle cx="739.8" cy="578.0" r="3" fill="#1f77b4"/>
<circle cx="743.3" cy="578.0" r="3" fill="#1f77b4"/>
<circle cx="746.9" cy="578.0" r="3" fill="#1f77b4"/>
<circle cx="750.4" cy="578.0" r="3" fill="#1f77b4"/>
<circle cx="753.9" cy="578.0" r="3" fill="#1f77b4"/>
<circle cx="757.5" cy="578.0" r="3" fill="#1f77b4"/>
<circle cx="761.0" cy="578.0" r="3" fill="#1f77b4"/>
<circle cx="764.6" cy="578.0" r="3" fill="#1f77b4"/>
<circle cx="768.1" cy="578.0" r="3" fill="#1f77b4"/>
<circle cx="771.7" cy="578.0" r="3" fill="#1f77b4"/>
<circle cx="775.2" cy="578.0" r="3" fill="#1f77b4"/>
<circle cx="778.7" cy="578.0" r="3" fill="#1f77b4"/>
<circle cx="782.3" cy="578.0" r="3" fill="#1f77b4"/>
<circle cx="785.8" cy="578.0" r="3" fill="#1f77b4"/>
<circle cx="789.4" cy="578.0" r="3" fill="#1f77b4"/>
<circle cx="792.9" cy="578.0" r="3" fill="#1f77b4"/>
<circle cx="796.5" cy="578.0" r="3" fill="#1f77b4"/>
<circle cx="800.0" cy="578.0" r="3" fill="#1f77b4"/>
<line x1="828" y1="96" x2="850" y2="96" stroke="#1f77b4" stroke-width="2.5"/>
<text x="858" y="100" font-family="Arial" font-size="13">GRPO-Clip 0.20/0.20 (e2/tb256)</text>
<polyline fill="none" stroke="#d62728" stroke-width="2.3" points="95.0,577.5 98.5,577.8 102.1,577.9 105.6,577.8 109.2,577.9 112.7,577.9 116.3,577.9 119.8,578.0 123.3,577.9 126.9,577.9 130.4,577.9 134.0,577.9 137.5,577.9 141.1,578.0 144.6,577.9 148.1,577.9 151.7,577.6 155.2,577.9 158.8,577.7 162.3,578.0 165.9,577.9 169.4,577.7 172.9,578.0 176.5,578.0 180.0,578.0 183.6,577.9 187.1,577.9 190.7,578.0 194.2,577.9 197.7,578.0 201.3,578.0 204.8,577.9 208.4,578.0 211.9,578.0 215.5,577.9 219.0,578.0 222.5,578.0 226.1,578.0 229.6,577.9 233.2,577.8 236.7,576.5 240.3,577.4 243.8,577.9 247.3,577.9 250.9,578.0 254.4,577.8 258.0,577.8 261.5,577.9 265.1,577.7 268.6,577.7 272.1,578.0 275.7,577.9 279.2,576.8 282.8,74.0 286.3,577.9 289.8,577.7 293.4,577.7 296.9,577.9 300.5,577.9 304.0,577.8 307.6,577.9 311.1,577.9 314.6,577.6 318.2,577.9 321.7,577.9 325.3,577.4 328.8,577.9 332.4,577.8 335.9,577.7 339.4,577.9 343.0,577.9 346.5,578.0 350.1,577.9 353.6,577.9 357.2,577.9 360.7,577.8 364.2,577.9 367.8,577.7 371.3,578.0 374.9,577.9 378.4,577.9 382.0,577.6 385.5,577.9 389.0,578.0 392.6,578.0 396.1,577.8 399.7,578.0 403.2,577.7 406.8,578.0 410.3,578.0 413.8,577.9 417.4,578.0 420.9,578.0 424.5,578.0 428.0,578.0 431.6,578.0 435.1,577.9 438.6,577.9 442.2,578.0 445.7,578.0 449.3,578.0 452.8,578.0 456.4,578.0 459.9,578.0 463.4,578.0 467.0,578.0 470.5,578.0 474.1,577.9 477.6,578.0 481.2,578.0 484.7,578.0 488.2,577.9 491.8,578.0 495.3,578.0 498.9,578.0 502.4,578.0 506.0,578.0 509.5,578.0 513.0,578.0 516.6,578.0 520.1,576.7 523.7,578.0 527.2,578.0 530.8,578.0 534.3,578.0 537.8,578.0 541.4,578.0 544.9,578.0 548.5,578.0 552.0,578.0 555.6,577.9 559.1,578.0 562.6,578.0 566.2,578.0 569.7,578.0 573.3,578.0 576.8,578.0 580.4,578.0 583.9,578.0 587.4,578.0 591.0,578.0 594.5,578.0 598.1,578.0 601.6,578.0 605.2,578.0 608.7,578.0 612.2,578.0 615.8,578.0 619.3,578.0 622.9,578.0 626.4,578.0 629.9,578.0 633.5,578.0 637.0,578.0 640.6,578.0 644.1,578.0 647.7,578.0 651.2,578.0 654.7,578.0 658.3,578.0 661.8,578.0 665.4,578.0 668.9,578.0 672.5,578.0 676.0,578.0 679.5,578.0 683.1,578.0 686.6,578.0 690.2,578.0 693.7,578.0 697.3,578.0 700.8,578.0 704.3,578.0 707.9,578.0 711.4,578.0 715.0,578.0 718.5,578.0 722.1,578.0 725.6,578.0 729.1,578.0 732.7,578.0 736.2,578.0 739.8,578.0 743.3,578.0 746.9,578.0 750.4,578.0 753.9,578.0 757.5,578.0 761.0,578.0 764.6,578.0 768.1,578.0 771.7,578.0 775.2,578.0 778.7,578.0 782.3,578.0 785.8,578.0 789.4,578.0 792.9,578.0 796.5,578.0 800.0,578.0"/>
<circle cx="95.0" cy="577.5" r="3" fill="#d62728"/>
<circle cx="98.5" cy="577.8" r="3" fill="#d62728"/>
<circle cx="102.1" cy="577.9" r="3" fill="#d62728"/>
<circle cx="105.6" cy="577.8" r="3" fill="#d62728"/>
<circle cx="109.2" cy="577.9" r="3" fill="#d62728"/>
<circle cx="112.7" cy="577.9" r="3" fill="#d62728"/>
<circle cx="116.3" cy="577.9" r="3" fill="#d62728"/>
<circle cx="119.8" cy="578.0" r="3" fill="#d62728"/>
<circle cx="123.3" cy="577.9" r="3" fill="#d62728"/>
<circle cx="126.9" cy="577.9" r="3" fill="#d62728"/>
<circle cx="130.4" cy="577.9" r="3" fill="#d62728"/>
<circle cx="134.0" cy="577.9" r="3" fill="#d62728"/>
<circle cx="137.5" cy="577.9" r="3" fill="#d62728"/>
<circle cx="141.1" cy="578.0" r="3" fill="#d62728"/>
<circle cx="144.6" cy="577.9" r="3" fill="#d62728"/>
<circle cx="148.1" cy="577.9" r="3" fill="#d62728"/>
<circle cx="151.7" cy="577.6" r="3" fill="#d62728"/>
<circle cx="155.2" cy="577.9" r="3" fill="#d62728"/>
<circle cx="158.8" cy="577.7" r="3" fill="#d62728"/>
<circle cx="162.3" cy="578.0" r="3" fill="#d62728"/>
<circle cx="165.9" cy="577.9" r="3" fill="#d62728"/>
<circle cx="169.4" cy="577.7" r="3" fill="#d62728"/>
<circle cx="172.9" cy="578.0" r="3" fill="#d62728"/>
<circle cx="176.5" cy="578.0" r="3" fill="#d62728"/>
<circle cx="180.0" cy="578.0" r="3" fill="#d62728"/>
<circle cx="183.6" cy="577.9" r="3" fill="#d62728"/>
<circle cx="187.1" cy="577.9" r="3" fill="#d62728"/>
<circle cx="190.7" cy="578.0" r="3" fill="#d62728"/>
<circle cx="194.2" cy="577.9" r="3" fill="#d62728"/>
<circle cx="197.7" cy="578.0" r="3" fill="#d62728"/>
<circle cx="201.3" cy="578.0" r="3" fill="#d62728"/>
<circle cx="204.8" cy="577.9" r="3" fill="#d62728"/>
<circle cx="208.4" cy="578.0" r="3" fill="#d62728"/>
<circle cx="211.9" cy="578.0" r="3" fill="#d62728"/>
<circle cx="215.5" cy="577.9" r="3" fill="#d62728"/>
<circle cx="219.0" cy="578.0" r="3" fill="#d62728"/>
<circle cx="222.5" cy="578.0" r="3" fill="#d62728"/>
<circle cx="226.1" cy="578.0" r="3" fill="#d62728"/>
<circle cx="229.6" cy="577.9" r="3" fill="#d62728"/>
<circle cx="233.2" cy="577.8" r="3" fill="#d62728"/>
<circle cx="236.7" cy="576.5" r="3" fill="#d62728"/>
<circle cx="240.3" cy="577.4" r="3" fill="#d62728"/>
<circle cx="243.8" cy="577.9" r="3" fill="#d62728"/>
<circle cx="247.3" cy="577.9" r="3" fill="#d62728"/>
<circle cx="250.9" cy="578.0" r="3" fill="#d62728"/>
<circle cx="254.4" cy="577.8" r="3" fill="#d62728"/>
<circle cx="258.0" cy="577.8" r="3" fill="#d62728"/>
<circle cx="261.5" cy="577.9" r="3" fill="#d62728"/>
<circle cx="265.1" cy="577.7" r="3" fill="#d62728"/>
<circle cx="268.6" cy="577.7" r="3" fill="#d62728"/>
<circle cx="272.1" cy="578.0" r="3" fill="#d62728"/>
<circle cx="275.7" cy="577.9" r="3" fill="#d62728"/>
<circle cx="279.2" cy="576.8" r="3" fill="#d62728"/>
<circle cx="282.8" cy="74.0" r="3" fill="#d62728"/>
<circle cx="286.3" cy="577.9" r="3" fill="#d62728"/>
<circle cx="289.8" cy="577.7" r="3" fill="#d62728"/>
<circle cx="293.4" cy="577.7" r="3" fill="#d62728"/>
<circle cx="296.9" cy="577.9" r="3" fill="#d62728"/>
<circle cx="300.5" cy="577.9" r="3" fill="#d62728"/>
<circle cx="304.0" cy="577.8" r="3" fill="#d62728"/>
<circle cx="307.6" cy="577.9" r="3" fill="#d62728"/>
<circle cx="311.1" cy="577.9" r="3" fill="#d62728"/>
<circle cx="314.6" cy="577.6" r="3" fill="#d62728"/>
<circle cx="318.2" cy="577.9" r="3" fill="#d62728"/>
<circle cx="321.7" cy="577.9" r="3" fill="#d62728"/>
<circle cx="325.3" cy="577.4" r="3" fill="#d62728"/>
<circle cx="328.8" cy="577.9" r="3" fill="#d62728"/>
<circle cx="332.4" cy="577.8" r="3" fill="#d62728"/>
<circle cx="335.9" cy="577.7" r="3" fill="#d62728"/>
<circle cx="339.4" cy="577.9" r="3" fill="#d62728"/>
<circle cx="343.0" cy="577.9" r="3" fill="#d62728"/>
<circle cx="346.5" cy="578.0" r="3" fill="#d62728"/>
<circle cx="350.1" cy="577.9" r="3" fill="#d62728"/>
<circle cx="353.6" cy="577.9" r="3" fill="#d62728"/>
<circle cx="357.2" cy="577.9" r="3" fill="#d62728"/>
<circle cx="360.7" cy="577.8" r="3" fill="#d62728"/>
<circle cx="364.2" cy="577.9" r="3" fill="#d62728"/>
<circle cx="367.8" cy="577.7" r="3" fill="#d62728"/>
<circle cx="371.3" cy="578.0" r="3" fill="#d62728"/>
<circle cx="374.9" cy="577.9" r="3" fill="#d62728"/>
<circle cx="378.4" cy="577.9" r="3" fill="#d62728"/>
<circle cx="382.0" cy="577.6" r="3" fill="#d62728"/>
<circle cx="385.5" cy="577.9" r="3" fill="#d62728"/>
<circle cx="389.0" cy="578.0" r="3" fill="#d62728"/>
<circle cx="392.6" cy="578.0" r="3" fill="#d62728"/>
<circle cx="396.1" cy="577.8" r="3" fill="#d62728"/>
<circle cx="399.7" cy="578.0" r="3" fill="#d62728"/>
<circle cx="403.2" cy="577.7" r="3" fill="#d62728"/>
<circle cx="406.8" cy="578.0" r="3" fill="#d62728"/>
<circle cx="410.3" cy="578.0" r="3" fill="#d62728"/>
<circle cx="413.8" cy="577.9" r="3" fill="#d62728"/>
<circle cx="417.4" cy="578.0" r="3" fill="#d62728"/>
<circle cx="420.9" cy="578.0" r="3" fill="#d62728"/>
<circle cx="424.5" cy="578.0" r="3" fill="#d62728"/>
<circle cx="428.0" cy="578.0" r="3" fill="#d62728"/>
<circle cx="431.6" cy="578.0" r="3" fill="#d62728"/>
<circle cx="435.1" cy="577.9" r="3" fill="#d62728"/>
<circle cx="438.6" cy="577.9" r="3" fill="#d62728"/>
<circle cx="442.2" cy="578.0" r="3" fill="#d62728"/>
<circle cx="445.7" cy="578.0" r="3" fill="#d62728"/>
<circle cx="449.3" cy="578.0" r="3" fill="#d62728"/>
<circle cx="452.8" cy="578.0" r="3" fill="#d62728"/>
<circle cx="456.4" cy="578.0" r="3" fill="#d62728"/>
<circle cx="459.9" cy="578.0" r="3" fill="#d62728"/>
<circle cx="463.4" cy="578.0" r="3" fill="#d62728"/>
<circle cx="467.0" cy="578.0" r="3" fill="#d62728"/>
<circle cx="470.5" cy="578.0" r="3" fill="#d62728"/>
<circle cx="474.1" cy="577.9" r="3" fill="#d62728"/>
<circle cx="477.6" cy="578.0" r="3" fill="#d62728"/>
<circle cx="481.2" cy="578.0" r="3" fill="#d62728"/>
<circle cx="484.7" cy="578.0" r="3" fill="#d62728"/>
<circle cx="488.2" cy="577.9" r="3" fill="#d62728"/>
<circle cx="491.8" cy="578.0" r="3" fill="#d62728"/>
<circle cx="495.3" cy="578.0" r="3" fill="#d62728"/>
<circle cx="498.9" cy="578.0" r="3" fill="#d62728"/>
<circle cx="502.4" cy="578.0" r="3" fill="#d62728"/>
<circle cx="506.0" cy="578.0" r="3" fill="#d62728"/>
<circle cx="509.5" cy="578.0" r="3" fill="#d62728"/>
<circle cx="513.0" cy="578.0" r="3" fill="#d62728"/>
<circle cx="516.6" cy="578.0" r="3" fill="#d62728"/>
<circle cx="520.1" cy="576.7" r="3" fill="#d62728"/>
<circle cx="523.7" cy="578.0" r="3" fill="#d62728"/>
<circle cx="527.2" cy="578.0" r="3" fill="#d62728"/>
<circle cx="530.8" cy="578.0" r="3" fill="#d62728"/>
<circle cx="534.3" cy="578.0" r="3" fill="#d62728"/>
<circle cx="537.8" cy="578.0" r="3" fill="#d62728"/>
<circle cx="541.4" cy="578.0" r="3" fill="#d62728"/>
<circle cx="544.9" cy="578.0" r="3" fill="#d62728"/>
<circle cx="548.5" cy="578.0" r="3" fill="#d62728"/>
<circle cx="552.0" cy="578.0" r="3" fill="#d62728"/>
<circle cx="555.6" cy="577.9" r="3" fill="#d62728"/>
<circle cx="559.1" cy="578.0" r="3" fill="#d62728"/>
<circle cx="562.6" cy="578.0" r="3" fill="#d62728"/>
<circle cx="566.2" cy="578.0" r="3" fill="#d62728"/>
<circle cx="569.7" cy="578.0" r="3" fill="#d62728"/>
<circle cx="573.3" cy="578.0" r="3" fill="#d62728"/>
<circle cx="576.8" cy="578.0" r="3" fill="#d62728"/>
<circle cx="580.4" cy="578.0" r="3" fill="#d62728"/>
<circle cx="583.9" cy="578.0" r="3" fill="#d62728"/>
<circle cx="587.4" cy="578.0" r="3" fill="#d62728"/>
<circle cx="591.0" cy="578.0" r="3" fill="#d62728"/>
<circle cx="594.5" cy="578.0" r="3" fill="#d62728"/>
<circle cx="598.1" cy="578.0" r="3" fill="#d62728"/>
<circle cx="601.6" cy="578.0" r="3" fill="#d62728"/>
<circle cx="605.2" cy="578.0" r="3" fill="#d62728"/>
<circle cx="608.7" cy="578.0" r="3" fill="#d62728"/>
<circle cx="612.2" cy="578.0" r="3" fill="#d62728"/>
<circle cx="615.8" cy="578.0" r="3" fill="#d62728"/>
<circle cx="619.3" cy="578.0" r="3" fill="#d62728"/>
<circle cx="622.9" cy="578.0" r="3" fill="#d62728"/>
<circle cx="626.4" cy="578.0" r="3" fill="#d62728"/>
<circle cx="629.9" cy="578.0" r="3" fill="#d62728"/>
<circle cx="633.5" cy="578.0" r="3" fill="#d62728"/>
<circle cx="637.0" cy="578.0" r="3" fill="#d62728"/>
<circle cx="640.6" cy="578.0" r="3" fill="#d62728"/>
<circle cx="644.1" cy="578.0" r="3" fill="#d62728"/>
<circle cx="647.7" cy="578.0" r="3" fill="#d62728"/>
<circle cx="651.2" cy="578.0" r="3" fill="#d62728"/>
<circle cx="654.7" cy="578.0" r="3" fill="#d62728"/>
<circle cx="658.3" cy="578.0" r="3" fill="#d62728"/>
<circle cx="661.8" cy="578.0" r="3" fill="#d62728"/>
<circle cx="665.4" cy="578.0" r="3" fill="#d62728"/>
<circle cx="668.9" cy="578.0" r="3" fill="#d62728"/>
<circle cx="672.5" cy="578.0" r="3" fill="#d62728"/>
<circle cx="676.0" cy="578.0" r="3" fill="#d62728"/>
<circle cx="679.5" cy="578.0" r="3" fill="#d62728"/>
<circle cx="683.1" cy="578.0" r="3" fill="#d62728"/>
<circle cx="686.6" cy="578.0" r="3" fill="#d62728"/>
<circle cx="690.2" cy="578.0" r="3" fill="#d62728"/>
<circle cx="693.7" cy="578.0" r="3" fill="#d62728"/>
<circle cx="697.3" cy="578.0" r="3" fill="#d62728"/>
<circle cx="700.8" cy="578.0" r="3" fill="#d62728"/>
<circle cx="704.3" cy="578.0" r="3" fill="#d62728"/>
<circle cx="707.9" cy="578.0" r="3" fill="#d62728"/>
<circle cx="711.4" cy="578.0" r="3" fill="#d62728"/>
<circle cx="715.0" cy="578.0" r="3" fill="#d62728"/>
<circle cx="718.5" cy="578.0" r="3" fill="#d62728"/>
<circle cx="722.1" cy="578.0" r="3" fill="#d62728"/>
<circle cx="725.6" cy="578.0" r="3" fill="#d62728"/>
<circle cx="729.1" cy="578.0" r="3" fill="#d62728"/>
<circle cx="732.7" cy="578.0" r="3" fill="#d62728"/>
<circle cx="736.2" cy="578.0" r="3" fill="#d62728"/>
<circle cx="739.8" cy="578.0" r="3" fill="#d62728"/>
<circle cx="743.3" cy="578.0" r="3" fill="#d62728"/>
<circle cx="746.9" cy="578.0" r="3" fill="#d62728"/>
<circle cx="750.4" cy="578.0" r="3" fill="#d62728"/>
<circle cx="753.9" cy="578.0" r="3" fill="#d62728"/>
<circle cx="757.5" cy="578.0" r="3" fill="#d62728"/>
<circle cx="761.0" cy="578.0" r="3" fill="#d62728"/>
<circle cx="764.6" cy="578.0" r="3" fill="#d62728"/>
<circle cx="768.1" cy="578.0" r="3" fill="#d62728"/>
<circle cx="771.7" cy="578.0" r="3" fill="#d62728"/>
<circle cx="775.2" cy="578.0" r="3" fill="#d62728"/>
<circle cx="778.7" cy="578.0" r="3" fill="#d62728"/>
<circle cx="782.3" cy="578.0" r="3" fill="#d62728"/>
<circle cx="785.8" cy="578.0" r="3" fill="#d62728"/>
<circle cx="789.4" cy="578.0" r="3" fill="#d62728"/>
<circle cx="792.9" cy="578.0" r="3" fill="#d62728"/>
<circle cx="796.5" cy="578.0" r="3" fill="#d62728"/>
<circle cx="800.0" cy="578.0" r="3" fill="#d62728"/>
<line x1="828" y1="120" x2="850" y2="120" stroke="#d62728" stroke-width="2.5"/>
<text x="858" y="124" font-family="Arial" font-size="13">GRPO-No-Clip (e2/tb256)</text>
<polyline fill="none" stroke="#2ca02c" stroke-width="2.3" points="95.0,578.0 98.5,577.8 102.1,578.0 105.6,578.0 109.2,578.0 112.7,578.0 116.3,578.0 119.8,578.0 123.3,578.0 126.9,578.0 130.4,578.0 134.0,578.0 137.5,578.0 141.1,578.0 144.6,578.0 148.1,578.0 151.7,578.0 155.2,578.0 158.8,578.0 162.3,578.0 165.9,578.0 169.4,578.0 172.9,578.0 176.5,578.0 180.0,578.0 183.6,578.0 187.1,578.0 190.7,578.0 194.2,578.0 197.7,578.0 201.3,578.0 204.8,578.0 208.4,578.0 211.9,578.0 215.5,578.0 219.0,578.0 222.5,578.0 226.1,578.0 229.6,578.0 233.2,578.0 236.7,578.0 240.3,578.0 243.8,578.0 247.3,578.0 250.9,578.0 254.4,577.9 258.0,578.0 261.5,578.0 265.1,578.0 268.6,578.0 272.1,578.0 275.7,578.0 279.2,578.0 282.8,578.0 286.3,578.0 289.8,578.0 293.4,578.0 296.9,578.0 300.5,578.0 304.0,578.0 307.6,578.0 311.1,578.0 314.6,578.0 318.2,578.0 321.7,578.0 325.3,578.0 328.8,578.0 332.4,578.0 335.9,578.0 339.4,578.0 343.0,578.0 346.5,578.0 350.1,578.0 353.6,578.0 357.2,578.0 360.7,578.0 364.2,578.0 367.8,578.0 371.3,578.0 374.9,578.0 378.4,578.0 382.0,578.0 385.5,578.0 389.0,578.0 392.6,578.0 396.1,578.0 399.7,578.0 403.2,578.0 406.8,578.0 410.3,578.0 413.8,578.0 417.4,578.0 420.9,578.0 424.5,578.0 428.0,578.0 431.6,578.0 435.1,578.0 438.6,578.0 442.2,578.0 445.7,578.0 449.3,578.0 452.8,578.0 456.4,578.0 459.9,578.0 463.4,578.0 467.0,578.0 470.5,578.0 474.1,578.0 477.6,578.0 481.2,578.0 484.7,578.0 488.2,578.0 491.8,578.0 495.3,578.0 498.9,578.0 502.4,578.0 506.0,578.0 509.5,578.0 513.0,578.0 516.6,578.0 520.1,578.0 523.7,578.0 527.2,578.0 530.8,578.0 534.3,578.0 537.8,578.0 541.4,578.0 544.9,578.0 548.5,578.0 552.0,578.0 555.6,578.0 559.1,578.0 562.6,578.0 566.2,578.0 569.7,578.0 573.3,578.0 576.8,578.0 580.4,578.0 583.9,578.0 587.4,578.0 591.0,578.0 594.5,578.0 598.1,578.0 601.6,578.0 605.2,578.0 608.7,578.0 612.2,578.0 615.8,578.0 619.3,578.0 622.9,578.0 626.4,578.0 629.9,578.0 633.5,578.0 637.0,578.0 640.6,578.0 644.1,578.0 647.7,578.0 651.2,578.0 654.7,578.0 658.3,578.0 661.8,578.0 665.4,578.0 668.9,578.0 672.5,578.0 676.0,578.0 679.5,578.0 683.1,578.0 686.6,578.0 690.2,578.0 693.7,578.0 697.3,578.0 700.8,578.0 704.3,578.0 707.9,578.0 711.4,578.0 715.0,578.0 718.5,578.0 722.1,578.0 725.6,578.0 729.1,578.0 732.7,578.0 736.2,578.0 739.8,578.0 743.3,578.0 746.9,578.0 750.4,578.0 753.9,578.0 757.5,578.0 761.0,578.0 764.6,578.0 768.1,578.0 771.7,578.0 775.2,578.0 778.7,578.0 782.3,578.0 785.8,578.0 789.4,578.0 792.9,578.0 796.5,578.0 800.0,578.0"/>
<circle cx="95.0" cy="578.0" r="3" fill="#2ca02c"/>
<circle cx="98.5" cy="577.8" r="3" fill="#2ca02c"/>
<circle cx="102.1" cy="578.0" r="3" fill="#2ca02c"/>
<circle cx="105.6" cy="578.0" r="3" fill="#2ca02c"/>
<circle cx="109.2" cy="578.0" r="3" fill="#2ca02c"/>
<circle cx="112.7" cy="578.0" r="3" fill="#2ca02c"/>
<circle cx="116.3" cy="578.0" r="3" fill="#2ca02c"/>
<circle cx="119.8" cy="578.0" r="3" fill="#2ca02c"/>
<circle cx="123.3" cy="578.0" r="3" fill="#2ca02c"/>
<circle cx="126.9" cy="578.0" r="3" fill="#2ca02c"/>
<circle cx="130.4" cy="578.0" r="3" fill="#2ca02c"/>
<circle cx="134.0" cy="578.0" r="3" fill="#2ca02c"/>
<circle cx="137.5" cy="578.0" r="3" fill="#2ca02c"/>
<circle cx="141.1" cy="578.0" r="3" fill="#2ca02c"/>
<circle cx="144.6" cy="578.0" r="3" fill="#2ca02c"/>
<circle cx="148.1" cy="578.0" r="3" fill="#2ca02c"/>
<circle cx="151.7" cy="578.0" r="3" fill="#2ca02c"/>
<circle cx="155.2" cy="578.0" r="3" fill="#2ca02c"/>
<circle cx="158.8" cy="578.0" r="3" fill="#2ca02c"/>
<circle cx="162.3" cy="578.0" r="3" fill="#2ca02c"/>
<circle cx="165.9" cy="578.0" r="3" fill="#2ca02c"/>
<circle cx="169.4" cy="578.0" r="3" fill="#2ca02c"/>
<circle cx="172.9" cy="578.0" r="3" fill="#2ca02c"/>
<circle cx="176.5" cy="578.0" r="3" fill="#2ca02c"/>
<circle cx="180.0" cy="578.0" r="3" fill="#2ca02c"/>
<circle cx="183.6" cy="578.0" r="3" fill="#2ca02c"/>
<circle cx="187.1" cy="578.0" r="3" fill="#2ca02c"/>
<circle cx="190.7" cy="578.0" r="3" fill="#2ca02c"/>
<circle cx="194.2" cy="578.0" r="3" fill="#2ca02c"/>
<circle cx="197.7" cy="578.0" r="3" fill="#2ca02c"/>
<circle cx="201.3" cy="578.0" r="3" fill="#2ca02c"/>
<circle cx="204.8" cy="578.0" r="3" fill="#2ca02c"/>
<circle cx="208.4" cy="578.0" r="3" fill="#2ca02c"/>
<circle cx="211.9" cy="578.0" r="3" fill="#2ca02c"/>
<circle cx="215.5" cy="578.0" r="3" fill="#2ca02c"/>
<circle cx="219.0" cy="578.0" r="3" fill="#2ca02c"/>
<circle cx="222.5" cy="578.0" r="3" fill="#2ca02c"/>
<circle cx="226.1" cy="578.0" r="3" fill="#2ca02c"/>
<circle cx="229.6" cy="578.0" r="3" fill="#2ca02c"/>
<circle cx="233.2" cy="578.0" r="3" fill="#2ca02c"/>
<circle cx="236.7" cy="578.0" r="3" fill="#2ca02c"/>
<circle cx="240.3" cy="578.0" r="3" fill="#2ca02c"/>
<circle cx="243.8" cy="578.0" r="3" fill="#2ca02c"/>
<circle cx="247.3" cy="578.0" r="3" fill="#2ca02c"/>
<circle cx="250.9" cy="578.0" r="3" fill="#2ca02c"/>
<circle cx="254.4" cy="577.9" r="3" fill="#2ca02c"/>
<circle cx="258.0" cy="578.0" r="3" fill="#2ca02c"/>
<circle cx="261.5" cy="578.0" r="3" fill="#2ca02c"/>
<circle cx="265.1" cy="578.0" r="3" fill="#2ca02c"/>
<circle cx="268.6" cy="578.0" r="3" fill="#2ca02c"/>
<circle cx="272.1" cy="578.0" r="3" fill="#2ca02c"/>
<circle cx="275.7" cy="578.0" r="3" fill="#2ca02c"/>
<circle cx="279.2" cy="578.0" r="3" fill="#2ca02c"/>
<circle cx="282.8" cy="578.0" r="3" fill="#2ca02c"/>
<circle cx="286.3" cy="578.0" r="3" fill="#2ca02c"/>
<circle cx="289.8" cy="578.0" r="3" fill="#2ca02c"/>
<circle cx="293.4" cy="578.0" r="3" fill="#2ca02c"/>
<circle cx="296.9" cy="578.0" r="3" fill="#2ca02c"/>
<circle cx="300.5" cy="578.0" r="3" fill="#2ca02c"/>
<circle cx="304.0" cy="578.0" r="3" fill="#2ca02c"/>
<circle cx="307.6" cy="578.0" r="3" fill="#2ca02c"/>
<circle cx="311.1" cy="578.0" r="3" fill="#2ca02c"/>
<circle cx="314.6" cy="578.0" r="3" fill="#2ca02c"/>
<circle cx="318.2" cy="578.0" r="3" fill="#2ca02c"/>
<circle cx="321.7" cy="578.0" r="3" fill="#2ca02c"/>
<circle cx="325.3" cy="578.0" r="3" fill="#2ca02c"/>
<circle cx="328.8" cy="578.0" r="3" fill="#2ca02c"/>
<circle cx="332.4" cy="578.0" r="3" fill="#2ca02c"/>
<circle cx="335.9" cy="578.0" r="3" fill="#2ca02c"/>
<circle cx="339.4" cy="578.0" r="3" fill="#2ca02c"/>
<circle cx="343.0" cy="578.0" r="3" fill="#2ca02c"/>
<circle cx="346.5" cy="578.0" r="3" fill="#2ca02c"/>
<circle cx="350.1" cy="578.0" r="3" fill="#2ca02c"/>
<circle cx="353.6" cy="578.0" r="3" fill="#2ca02c"/>
<circle cx="357.2" cy="578.0" r="3" fill="#2ca02c"/>
<circle cx="360.7" cy="578.0" r="3" fill="#2ca02c"/>
<circle cx="364.2" cy="578.0" r="3" fill="#2ca02c"/>
<circle cx="367.8" cy="578.0" r="3" fill="#2ca02c"/>
<circle cx="371.3" cy="578.0" r="3" fill="#2ca02c"/>
<circle cx="374.9" cy="578.0" r="3" fill="#2ca02c"/>
<circle cx="378.4" cy="578.0" r="3" fill="#2ca02c"/>
<circle cx="382.0" cy="578.0" r="3" fill="#2ca02c"/>
<circle cx="385.5" cy="578.0" r="3" fill="#2ca02c"/>
<circle cx="389.0" cy="578.0" r="3" fill="#2ca02c"/>
<circle cx="392.6" cy="578.0" r="3" fill="#2ca02c"/>
<circle cx="396.1" cy="578.0" r="3" fill="#2ca02c"/>
<circle cx="399.7" cy="578.0" r="3" fill="#2ca02c"/>
<circle cx="403.2" cy="578.0" r="3" fill="#2ca02c"/>
<circle cx="406.8" cy="578.0" r="3" fill="#2ca02c"/>
<circle cx="410.3" cy="578.0" r="3" fill="#2ca02c"/>
<circle cx="413.8" cy="578.0" r="3" fill="#2ca02c"/>
<circle cx="417.4" cy="578.0" r="3" fill="#2ca02c"/>
<circle cx="420.9" cy="578.0" r="3" fill="#2ca02c"/>
<circle cx="424.5" cy="578.0" r="3" fill="#2ca02c"/>
<circle cx="428.0" cy="578.0" r="3" fill="#2ca02c"/>
<circle cx="431.6" cy="578.0" r="3" fill="#2ca02c"/>
<circle cx="435.1" cy="578.0" r="3" fill="#2ca02c"/>
<circle cx="438.6" cy="578.0" r="3" fill="#2ca02c"/>
<circle cx="442.2" cy="578.0" r="3" fill="#2ca02c"/>
<circle cx="445.7" cy="578.0" r="3" fill="#2ca02c"/>
<circle cx="449.3" cy="578.0" r="3" fill="#2ca02c"/>
<circle cx="452.8" cy="578.0" r="3" fill="#2ca02c"/>
<circle cx="456.4" cy="578.0" r="3" fill="#2ca02c"/>
<circle cx="459.9" cy="578.0" r="3" fill="#2ca02c"/>
<circle cx="463.4" cy="578.0" r="3" fill="#2ca02c"/>
<circle cx="467.0" cy="578.0" r="3" fill="#2ca02c"/>
<circle cx="470.5" cy="578.0" r="3" fill="#2ca02c"/>
<circle cx="474.1" cy="578.0" r="3" fill="#2ca02c"/>
<circle cx="477.6" cy="578.0" r="3" fill="#2ca02c"/>
<circle cx="481.2" cy="578.0" r="3" fill="#2ca02c"/>
<circle cx="484.7" cy="578.0" r="3" fill="#2ca02c"/>
<circle cx="488.2" cy="578.0" r="3" fill="#2ca02c"/>
<circle cx="491.8" cy="578.0" r="3" fill="#2ca02c"/>
<circle cx="495.3" cy="578.0" r="3" fill="#2ca02c"/>
<circle cx="498.9" cy="578.0" r="3" fill="#2ca02c"/>
<circle cx="502.4" cy="578.0" r="3" fill="#2ca02c"/>
<circle cx="506.0" cy="578.0" r="3" fill="#2ca02c"/>
<circle cx="509.5" cy="578.0" r="3" fill="#2ca02c"/>
<circle cx="513.0" cy="578.0" r="3" fill="#2ca02c"/>
<circle cx="516.6" cy="578.0" r="3" fill="#2ca02c"/>
<circle cx="520.1" cy="578.0" r="3" fill="#2ca02c"/>
<circle cx="523.7" cy="578.0" r="3" fill="#2ca02c"/>
<circle cx="527.2" cy="578.0" r="3" fill="#2ca02c"/>
<circle cx="530.8" cy="578.0" r="3" fill="#2ca02c"/>
<circle cx="534.3" cy="578.0" r="3" fill="#2ca02c"/>
<circle cx="537.8" cy="578.0" r="3" fill="#2ca02c"/>
<circle cx="541.4" cy="578.0" r="3" fill="#2ca02c"/>
<circle cx="544.9" cy="578.0" r="3" fill="#2ca02c"/>
<circle cx="548.5" cy="578.0" r="3" fill="#2ca02c"/>
<circle cx="552.0" cy="578.0" r="3" fill="#2ca02c"/>
<circle cx="555.6" cy="578.0" r="3" fill="#2ca02c"/>
<circle cx="559.1" cy="578.0" r="3" fill="#2ca02c"/>
<circle cx="562.6" cy="578.0" r="3" fill="#2ca02c"/>
<circle cx="566.2" cy="578.0" r="3" fill="#2ca02c"/>
<circle cx="569.7" cy="578.0" r="3" fill="#2ca02c"/>
<circle cx="573.3" cy="578.0" r="3" fill="#2ca02c"/>
<circle cx="576.8" cy="578.0" r="3" fill="#2ca02c"/>
<circle cx="580.4" cy="578.0" r="3" fill="#2ca02c"/>
<circle cx="583.9" cy="578.0" r="3" fill="#2ca02c"/>
<circle cx="587.4" cy="578.0" r="3" fill="#2ca02c"/>
<circle cx="591.0" cy="578.0" r="3" fill="#2ca02c"/>
<circle cx="594.5" cy="578.0" r="3" fill="#2ca02c"/>
<circle cx="598.1" cy="578.0" r="3" fill="#2ca02c"/>
<circle cx="601.6" cy="578.0" r="3" fill="#2ca02c"/>
<circle cx="605.2" cy="578.0" r="3" fill="#2ca02c"/>
<circle cx="608.7" cy="578.0" r="3" fill="#2ca02c"/>
<circle cx="612.2" cy="578.0" r="3" fill="#2ca02c"/>
<circle cx="615.8" cy="578.0" r="3" fill="#2ca02c"/>
<circle cx="619.3" cy="578.0" r="3" fill="#2ca02c"/>
<circle cx="622.9" cy="578.0" r="3" fill="#2ca02c"/>
<circle cx="626.4" cy="578.0" r="3" fill="#2ca02c"/>
<circle cx="629.9" cy="578.0" r="3" fill="#2ca02c"/>
<circle cx="633.5" cy="578.0" r="3" fill="#2ca02c"/>
<circle cx="637.0" cy="578.0" r="3" fill="#2ca02c"/>
<circle cx="640.6" cy="578.0" r="3" fill="#2ca02c"/>
<circle cx="644.1" cy="578.0" r="3" fill="#2ca02c"/>
<circle cx="647.7" cy="578.0" r="3" fill="#2ca02c"/>
<circle cx="651.2" cy="578.0" r="3" fill="#2ca02c"/>
<circle cx="654.7" cy="578.0" r="3" fill="#2ca02c"/>
<circle cx="658.3" cy="578.0" r="3" fill="#2ca02c"/>
<circle cx="661.8" cy="578.0" r="3" fill="#2ca02c"/>
<circle cx="665.4" cy="578.0" r="3" fill="#2ca02c"/>
<circle cx="668.9" cy="578.0" r="3" fill="#2ca02c"/>
<circle cx="672.5" cy="578.0" r="3" fill="#2ca02c"/>
<circle cx="676.0" cy="578.0" r="3" fill="#2ca02c"/>
<circle cx="679.5" cy="578.0" r="3" fill="#2ca02c"/>
<circle cx="683.1" cy="578.0" r="3" fill="#2ca02c"/>
<circle cx="686.6" cy="578.0" r="3" fill="#2ca02c"/>
<circle cx="690.2" cy="578.0" r="3" fill="#2ca02c"/>
<circle cx="693.7" cy="578.0" r="3" fill="#2ca02c"/>
<circle cx="697.3" cy="578.0" r="3" fill="#2ca02c"/>
<circle cx="700.8" cy="578.0" r="3" fill="#2ca02c"/>
<circle cx="704.3" cy="578.0" r="3" fill="#2ca02c"/>
<circle cx="707.9" cy="578.0" r="3" fill="#2ca02c"/>
<circle cx="711.4" cy="578.0" r="3" fill="#2ca02c"/>
<circle cx="715.0" cy="578.0" r="3" fill="#2ca02c"/>
<circle cx="718.5" cy="578.0" r="3" fill="#2ca02c"/>
<circle cx="722.1" cy="578.0" r="3" fill="#2ca02c"/>
<circle cx="725.6" cy="578.0" r="3" fill="#2ca02c"/>
<circle cx="729.1" cy="578.0" r="3" fill="#2ca02c"/>
<circle cx="732.7" cy="578.0" r="3" fill="#2ca02c"/>
<circle cx="736.2" cy="578.0" r="3" fill="#2ca02c"/>
<circle cx="739.8" cy="578.0" r="3" fill="#2ca02c"/>
<circle cx="743.3" cy="578.0" r="3" fill="#2ca02c"/>
<circle cx="746.9" cy="578.0" r="3" fill="#2ca02c"/>
<circle cx="750.4" cy="578.0" r="3" fill="#2ca02c"/>
<circle cx="753.9" cy="578.0" r="3" fill="#2ca02c"/>
<circle cx="757.5" cy="578.0" r="3" fill="#2ca02c"/>
<circle cx="761.0" cy="578.0" r="3" fill="#2ca02c"/>
<circle cx="764.6" cy="578.0" r="3" fill="#2ca02c"/>
<circle cx="768.1" cy="578.0" r="3" fill="#2ca02c"/>
<circle cx="771.7" cy="578.0" r="3" fill="#2ca02c"/>
<circle cx="775.2" cy="578.0" r="3" fill="#2ca02c"/>
<circle cx="778.7" cy="578.0" r="3" fill="#2ca02c"/>
<circle cx="782.3" cy="578.0" r="3" fill="#2ca02c"/>
<circle cx="785.8" cy="578.0" r="3" fill="#2ca02c"/>
<circle cx="789.4" cy="578.0" r="3" fill="#2ca02c"/>
<circle cx="792.9" cy="578.0" r="3" fill="#2ca02c"/>
<circle cx="796.5" cy="578.0" r="3" fill="#2ca02c"/>
<circle cx="800.0" cy="578.0" r="3" fill="#2ca02c"/>
<line x1="828" y1="144" x2="850" y2="144" stroke="#2ca02c" stroke-width="2.5"/>
<text x="858" y="148" font-family="Arial" font-size="13">GRPO-Clip 0.20/0.28 (e2/tb256)</text>
<text x="447.5" y="638" text-anchor="middle" font-family="Arial" font-size="15">GRPO step</text>
<text x="24" y="326.0" text-anchor="middle" font-family="Arial" font-size="15" transform="rotate(-90 24 326.0)">Gradient norm</text>
</svg>
