<svg xmlns="http://www.w3.org/2000/svg" width="1100" height="660" viewBox="0 0 1100 660">
<rect width="100%" height="100%" fill="white"/>
<text x="550.0" y="36" text-anchor="middle" font-family="Arial" font-size="22" font-weight="700">Off-policy clip ablation: rollout response length</text>
<line x1="95" y1="578" x2="800" y2="578" stroke="#222" stroke-width="1.5"/>
<line x1="95" y1="74" x2="95" y2="578" stroke="#222" stroke-width="1.5"/>
<line x1="90" y1="578.0" x2="800" y2="578.0" stroke="#ddd" stroke-width="1"/>
<text x="83" y="582.0" text-anchor="end" font-family="Arial" font-size="12">0.00</text>
<line x1="90" y1="477.2" x2="800" y2="477.2" stroke="#ddd" stroke-width="1"/>
<text x="83" y="481.2" text-anchor="end" font-family="Arial" font-size="12">117.42</text>
<line x1="90" y1="376.4" x2="800" y2="376.4" stroke="#ddd" stroke-width="1"/>
<text x="83" y="380.4" text-anchor="end" font-family="Arial" font-size="12">234.84</text>
<line x1="90" y1="275.6" x2="800" y2="275.6" stroke="#ddd" stroke-width="1"/>
<text x="83" y="279.6" text-anchor="end" font-family="Arial" font-size="12">352.26</text>
<line x1="90" y1="174.8" x2="800" y2="174.8" stroke="#ddd" stroke-width="1"/>
<text x="83" y="178.8" text-anchor="end" font-family="Arial" font-size="12">469.68</text>
<line x1="90" y1="74.0" x2="800" y2="74.0" stroke="#ddd" stroke-width="1"/>
<text x="83" y="78.0" text-anchor="end" font-family="Arial" font-size="12">587.10</text>
<line x1="95.0" y1="578" x2="95.0" y2="583" stroke="#222" stroke-width="1"/>
<text x="95.0" y="602" text-anchor="middle" font-family="Arial" font-size="12">1</text>
<line x1="236.0" y1="578" x2="236.0" y2="583" stroke="#222" stroke-width="1"/>
<text x="236.0" y="602" text-anchor="middle" font-family="Arial" font-size="12">41</text>
<line x1="377.0" y1="578" x2="377.0" y2="583" stroke="#222" stroke-width="1"/>
<text x="377.0" y="602" text-anchor="middle" font-family="Arial" font-size="12">81</text>
<line x1="518.0" y1="578" x2="518.0" y2="583" stroke="#222" stroke-width="1"/>
<text x="518.0" y="602" text-anchor="middle" font-family="Arial" font-size="12">120</text>
<line x1="659.0" y1="578" x2="659.0" y2="583" stroke="#222" stroke-width="1"/>
<text x="659.0" y="602" text-anchor="middle" font-family="Arial" font-size="12">160</text>
<line x1="800.0" y1="578" x2="800.0" y2="583" stroke="#222" stroke-width="1"/>
<text x="800.0" y="602" text-anchor="middle" font-family="Arial" font-size="12">200</text>
<polyline fill="none" stroke="#1f77b4" stroke-width="2.3" points="95.0,316.5 98.5,469.4 102.1,455.3 105.6,417.8 109.2,430.6 112.7,430.5 116.3,422.3 119.8,460.8 123.3,452.8 126.9,453.9 130.4,446.1 134.0,429.6 137.5,431.0 141.1,406.4 144.6,393.7 148.1,390.2 151.7,353.1 155.2,385.5 158.8,342.3 162.3,323.5 165.9,336.2 169.4,394.2 172.9,347.9 176.5,389.0 180.0,401.7 183.6,373.4 187.1,297.6 190.7,339.9 194.2,345.4 197.7,340.6 201.3,280.5 204.8,289.2 208.4,343.6 211.9,350.7 215.5,303.2 219.0,272.4 222.5,323.2 226.1,317.0 229.6,316.5 233.2,327.7 236.7,294.0 240.3,305.9 243.8,341.0 247.3,353.0 250.9,280.0 254.4,316.4 258.0,303.5 261.5,308.3 265.1,302.3 268.6,341.6 272.1,266.9 275.7,323.3 279.2,261.9 282.8,311.4 286.3,306.8 289.8,359.0 293.4,271.4 296.9,260.5 300.5,271.1 304.0,243.5 307.6,338.8 311.1,251.8 314.6,276.4 318.2,323.7 321.7,311.9 325.3,300.6 328.8,331.5 332.4,280.9 335.9,325.9 339.4,285.1 343.0,309.9 346.5,267.5 350.1,297.4 353.6,278.6 357.2,318.8 360.7,241.8 364.2,254.1 367.8,296.2 371.3,330.7 374.9,240.4 378.4,245.8 382.0,224.7 385.5,256.9 389.0,251.2 392.6,281.4 396.1,219.2 399.7,309.1 403.2,251.5 406.8,232.9 410.3,275.2 413.8,221.1 417.4,286.3 420.9,273.1 424.5,291.5 428.0,268.3 431.6,273.9 435.1,245.3 438.6,213.7 442.2,199.8 445.7,284.7 449.3,261.1 452.8,213.0 456.4,256.8 459.9,262.9 463.4,220.3 467.0,267.6 470.5,261.7 474.1,270.9 477.6,229.6 481.2,289.4 484.7,256.1 488.2,240.9 491.8,289.9 495.3,263.6 498.9,285.0 502.4,277.8 506.0,248.9 509.5,263.4 513.0,238.5 516.6,278.5 520.1,270.8 523.7,192.3 527.2,276.9 530.8,233.2 534.3,234.7 537.8,239.2 541.4,269.0 544.9,208.5 548.5,230.9 552.0,276.0 555.6,270.8 559.1,338.4 562.6,243.5 566.2,257.9 569.7,254.2 573.3,265.2 576.8,257.1 580.4,229.5 583.9,232.5 587.4,257.5 591.0,298.3 594.5,273.7 598.1,225.2 601.6,295.8 605.2,154.7 608.7,270.5 612.2,301.8 615.8,293.1 619.3,213.4 622.9,208.7 626.4,174.9 629.9,229.1 633.5,204.1 637.0,206.0 640.6,244.4 644.1,238.3 647.7,233.3 651.2,227.5 654.7,188.5 658.3,250.4 661.8,236.5 665.4,250.1 668.9,301.5 672.5,250.0 676.0,194.7 679.5,275.5 683.1,301.0 686.6,242.7 690.2,281.1 693.7,283.6 697.3,267.4 700.8,285.3 704.3,289.4 707.9,244.0 711.4,260.0 715.0,264.2 718.5,274.2 722.1,276.2 725.6,333.4 729.1,254.6 732.7,282.6 736.2,294.1 739.8,276.1 743.3,287.0 746.9,261.7 750.4,241.6 753.9,216.6 757.5,279.2 761.0,282.0 764.6,296.2 768.1,271.9 771.7,275.8 775.2,270.9 778.7,233.1 782.3,285.4 785.8,306.0 789.4,251.7 792.9,218.2 796.5,237.9 800.0,170.4"/>
<circle cx="95.0" cy="316.5" r="3" fill="#1f77b4"/>
<circle cx="98.5" cy="469.4" r="3" fill="#1f77b4"/>
<circle cx="102.1" cy="455.3" r="3" fill="#1f77b4"/>
<circle cx="105.6" cy="417.8" r="3" fill="#1f77b4"/>
<circle cx="109.2" cy="430.6" r="3" fill="#1f77b4"/>
<circle cx="112.7" cy="430.5" r="3" fill="#1f77b4"/>
<circle cx="116.3" cy="422.3" r="3" fill="#1f77b4"/>
<circle cx="119.8" cy="460.8" r="3" fill="#1f77b4"/>
<circle cx="123.3" cy="452.8" r="3" fill="#1f77b4"/>
<circle cx="126.9" cy="453.9" r="3" fill="#1f77b4"/>
<circle cx="130.4" cy="446.1" r="3" fill="#1f77b4"/>
<circle cx="134.0" cy="429.6" r="3" fill="#1f77b4"/>
<circle cx="137.5" cy="431.0" r="3" fill="#1f77b4"/>
<circle cx="141.1" cy="406.4" r="3" fill="#1f77b4"/>
<circle cx="144.6" cy="393.7" r="3" fill="#1f77b4"/>
<circle cx="148.1" cy="390.2" r="3" fill="#1f77b4"/>
<circle cx="151.7" cy="353.1" r="3" fill="#1f77b4"/>
<circle cx="155.2" cy="385.5" r="3" fill="#1f77b4"/>
<circle cx="158.8" cy="342.3" r="3" fill="#1f77b4"/>
<circle cx="162.3" cy="323.5" r="3" fill="#1f77b4"/>
<circle cx="165.9" cy="336.2" r="3" fill="#1f77b4"/>
<circle cx="169.4" cy="394.2" r="3" fill="#1f77b4"/>
<circle cx="172.9" cy="347.9" r="3" fill="#1f77b4"/>
<circle cx="176.5" cy="389.0" r="3" fill="#1f77b4"/>
<circle cx="180.0" cy="401.7" r="3" fill="#1f77b4"/>
<circle cx="183.6" cy="373.4" r="3" fill="#1f77b4"/>
<circle cx="187.1" cy="297.6" r="3" fill="#1f77b4"/>
<circle cx="190.7" cy="339.9" r="3" fill="#1f77b4"/>
<circle cx="194.2" cy="345.4" r="3" fill="#1f77b4"/>
<circle cx="197.7" cy="340.6" r="3" fill="#1f77b4"/>
<circle cx="201.3" cy="280.5" r="3" fill="#1f77b4"/>
<circle cx="204.8" cy="289.2" r="3" fill="#1f77b4"/>
<circle cx="208.4" cy="343.6" r="3" fill="#1f77b4"/>
<circle cx="211.9" cy="350.7" r="3" fill="#1f77b4"/>
<circle cx="215.5" cy="303.2" r="3" fill="#1f77b4"/>
<circle cx="219.0" cy="272.4" r="3" fill="#1f77b4"/>
<circle cx="222.5" cy="323.2" r="3" fill="#1f77b4"/>
<circle cx="226.1" cy="317.0" r="3" fill="#1f77b4"/>
<circle cx="229.6" cy="316.5" r="3" fill="#1f77b4"/>
<circle cx="233.2" cy="327.7" r="3" fill="#1f77b4"/>
<circle cx="236.7" cy="294.0" r="3" fill="#1f77b4"/>
<circle cx="240.3" cy="305.9" r="3" fill="#1f77b4"/>
<circle cx="243.8" cy="341.0" r="3" fill="#1f77b4"/>
<circle cx="247.3" cy="353.0" r="3" fill="#1f77b4"/>
<circle cx="250.9" cy="280.0" r="3" fill="#1f77b4"/>
<circle cx="254.4" cy="316.4" r="3" fill="#1f77b4"/>
<circle cx="258.0" cy="303.5" r="3" fill="#1f77b4"/>
<circle cx="261.5" cy="308.3" r="3" fill="#1f77b4"/>
<circle cx="265.1" cy="302.3" r="3" fill="#1f77b4"/>
<circle cx="268.6" cy="341.6" r="3" fill="#1f77b4"/>
<circle cx="272.1" cy="266.9" r="3" fill="#1f77b4"/>
<circle cx="275.7" cy="323.3" r="3" fill="#1f77b4"/>
<circle cx="279.2" cy="261.9" r="3" fill="#1f77b4"/>
<circle cx="282.8" cy="311.4" r="3" fill="#1f77b4"/>
<circle cx="286.3" cy="306.8" r="3" fill="#1f77b4"/>
<circle cx="289.8" cy="359.0" r="3" fill="#1f77b4"/>
<circle cx="293.4" cy="271.4" r="3" fill="#1f77b4"/>
<circle cx="296.9" cy="260.5" r="3" fill="#1f77b4"/>
<circle cx="300.5" cy="271.1" r="3" fill="#1f77b4"/>
<circle cx="304.0" cy="243.5" r="3" fill="#1f77b4"/>
<circle cx="307.6" cy="338.8" r="3" fill="#1f77b4"/>
<circle cx="311.1" cy="251.8" r="3" fill="#1f77b4"/>
<circle cx="314.6" cy="276.4" r="3" fill="#1f77b4"/>
<circle cx="318.2" cy="323.7" r="3" fill="#1f77b4"/>
<circle cx="321.7" cy="311.9" r="3" fill="#1f77b4"/>
<circle cx="325.3" cy="300.6" r="3" fill="#1f77b4"/>
<circle cx="328.8" cy="331.5" r="3" fill="#1f77b4"/>
<circle cx="332.4" cy="280.9" r="3" fill="#1f77b4"/>
<circle cx="335.9" cy="325.9" r="3" fill="#1f77b4"/>
<circle cx="339.4" cy="285.1" r="3" fill="#1f77b4"/>
<circle cx="343.0" cy="309.9" r="3" fill="#1f77b4"/>
<circle cx="346.5" cy="267.5" r="3" fill="#1f77b4"/>
<circle cx="350.1" cy="297.4" r="3" fill="#1f77b4"/>
<circle cx="353.6" cy="278.6" r="3" fill="#1f77b4"/>
<circle cx="357.2" cy="318.8" r="3" fill="#1f77b4"/>
<circle cx="360.7" cy="241.8" r="3" fill="#1f77b4"/>
<circle cx="364.2" cy="254.1" r="3" fill="#1f77b4"/>
<circle cx="367.8" cy="296.2" r="3" fill="#1f77b4"/>
<circle cx="371.3" cy="330.7" r="3" fill="#1f77b4"/>
<circle cx="374.9" cy="240.4" r="3" fill="#1f77b4"/>
<circle cx="378.4" cy="245.8" r="3" fill="#1f77b4"/>
<circle cx="382.0" cy="224.7" r="3" fill="#1f77b4"/>
<circle cx="385.5" cy="256.9" r="3" fill="#1f77b4"/>
<circle cx="389.0" cy="251.2" r="3" fill="#1f77b4"/>
<circle cx="392.6" cy="281.4" r="3" fill="#1f77b4"/>
<circle cx="396.1" cy="219.2" r="3" fill="#1f77b4"/>
<circle cx="399.7" cy="309.1" r="3" fill="#1f77b4"/>
<circle cx="403.2" cy="251.5" r="3" fill="#1f77b4"/>
<circle cx="406.8" cy="232.9" r="3" fill="#1f77b4"/>
<circle cx="410.3" cy="275.2" r="3" fill="#1f77b4"/>
<circle cx="413.8" cy="221.1" r="3" fill="#1f77b4"/>
<circle cx="417.4" cy="286.3" r="3" fill="#1f77b4"/>
<circle cx="420.9" cy="273.1" r="3" fill="#1f77b4"/>
<circle cx="424.5" cy="291.5" r="3" fill="#1f77b4"/>
<circle cx="428.0" cy="268.3" r="3" fill="#1f77b4"/>
<circle cx="431.6" cy="273.9" r="3" fill="#1f77b4"/>
<circle cx="435.1" cy="245.3" r="3" fill="#1f77b4"/>
<circle cx="438.6" cy="213.7" r="3" fill="#1f77b4"/>
<circle cx="442.2" cy="199.8" r="3" fill="#1f77b4"/>
<circle cx="445.7" cy="284.7" r="3" fill="#1f77b4"/>
<circle cx="449.3" cy="261.1" r="3" fill="#1f77b4"/>
<circle cx="452.8" cy="213.0" r="3" fill="#1f77b4"/>
<circle cx="456.4" cy="256.8" r="3" fill="#1f77b4"/>
<circle cx="459.9" cy="262.9" r="3" fill="#1f77b4"/>
<circle cx="463.4" cy="220.3" r="3" fill="#1f77b4"/>
<circle cx="467.0" cy="267.6" r="3" fill="#1f77b4"/>
<circle cx="470.5" cy="261.7" r="3" fill="#1f77b4"/>
<circle cx="474.1" cy="270.9" r="3" fill="#1f77b4"/>
<circle cx="477.6" cy="229.6" r="3" fill="#1f77b4"/>
<circle cx="481.2" cy="289.4" r="3" fill="#1f77b4"/>
<circle cx="484.7" cy="256.1" r="3" fill="#1f77b4"/>
<circle cx="488.2" cy="240.9" r="3" fill="#1f77b4"/>
<circle cx="491.8" cy="289.9" r="3" fill="#1f77b4"/>
<circle cx="495.3" cy="263.6" r="3" fill="#1f77b4"/>
<circle cx="498.9" cy="285.0" r="3" fill="#1f77b4"/>
<circle cx="502.4" cy="277.8" r="3" fill="#1f77b4"/>
<circle cx="506.0" cy="248.9" r="3" fill="#1f77b4"/>
<circle cx="509.5" cy="263.4" r="3" fill="#1f77b4"/>
<circle cx="513.0" cy="238.5" r="3" fill="#1f77b4"/>
<circle cx="516.6" cy="278.5" r="3" fill="#1f77b4"/>
<circle cx="520.1" cy="270.8" r="3" fill="#1f77b4"/>
<circle cx="523.7" cy="192.3" r="3" fill="#1f77b4"/>
<circle cx="527.2" cy="276.9" r="3" fill="#1f77b4"/>
<circle cx="530.8" cy="233.2" r="3" fill="#1f77b4"/>
<circle cx="534.3" cy="234.7" r="3" fill="#1f77b4"/>
<circle cx="537.8" cy="239.2" r="3" fill="#1f77b4"/>
<circle cx="541.4" cy="269.0" r="3" fill="#1f77b4"/>
<circle cx="544.9" cy="208.5" r="3" fill="#1f77b4"/>
<circle cx="548.5" cy="230.9" r="3" fill="#1f77b4"/>
<circle cx="552.0" cy="276.0" r="3" fill="#1f77b4"/>
<circle cx="555.6" cy="270.8" r="3" fill="#1f77b4"/>
<circle cx="559.1" cy="338.4" r="3" fill="#1f77b4"/>
<circle cx="562.6" cy="243.5" r="3" fill="#1f77b4"/>
<circle cx="566.2" cy="257.9" r="3" fill="#1f77b4"/>
<circle cx="569.7" cy="254.2" r="3" fill="#1f77b4"/>
<circle cx="573.3" cy="265.2" r="3" fill="#1f77b4"/>
<circle cx="576.8" cy="257.1" r="3" fill="#1f77b4"/>
<circle cx="580.4" cy="229.5" r="3" fill="#1f77b4"/>
<circle cx="583.9" cy="232.5" r="3" fill="#1f77b4"/>
<circle cx="587.4" cy="257.5" r="3" fill="#1f77b4"/>
<circle cx="591.0" cy="298.3" r="3" fill="#1f77b4"/>
<circle cx="594.5" cy="273.7" r="3" fill="#1f77b4"/>
<circle cx="598.1" cy="225.2" r="3" fill="#1f77b4"/>
<circle cx="601.6" cy="295.8" r="3" fill="#1f77b4"/>
<circle cx="605.2" cy="154.7" r="3" fill="#1f77b4"/>
<circle cx="608.7" cy="270.5" r="3" fill="#1f77b4"/>
<circle cx="612.2" cy="301.8" r="3" fill="#1f77b4"/>
<circle cx="615.8" cy="293.1" r="3" fill="#1f77b4"/>
<circle cx="619.3" cy="213.4" r="3" fill="#1f77b4"/>
<circle cx="622.9" cy="208.7" r="3" fill="#1f77b4"/>
<circle cx="626.4" cy="174.9" r="3" fill="#1f77b4"/>
<circle cx="629.9" cy="229.1" r="3" fill="#1f77b4"/>
<circle cx="633.5" cy="204.1" r="3" fill="#1f77b4"/>
<circle cx="637.0" cy="206.0" r="3" fill="#1f77b4"/>
<circle cx="640.6" cy="244.4" r="3" fill="#1f77b4"/>
<circle cx="644.1" cy="238.3" r="3" fill="#1f77b4"/>
<circle cx="647.7" cy="233.3" r="3" fill="#1f77b4"/>
<circle cx="651.2" cy="227.5" r="3" fill="#1f77b4"/>
<circle cx="654.7" cy="188.5" r="3" fill="#1f77b4"/>
<circle cx="658.3" cy="250.4" r="3" fill="#1f77b4"/>
<circle cx="661.8" cy="236.5" r="3" fill="#1f77b4"/>
<circle cx="665.4" cy="250.1" r="3" fill="#1f77b4"/>
<circle cx="668.9" cy="301.5" r="3" fill="#1f77b4"/>
<circle cx="672.5" cy="250.0" r="3" fill="#1f77b4"/>
<circle cx="676.0" cy="194.7" r="3" fill="#1f77b4"/>
<circle cx="679.5" cy="275.5" r="3" fill="#1f77b4"/>
<circle cx="683.1" cy="301.0" r="3" fill="#1f77b4"/>
<circle cx="686.6" cy="242.7" r="3" fill="#1f77b4"/>
<circle cx="690.2" cy="281.1" r="3" fill="#1f77b4"/>
<circle cx="693.7" cy="283.6" r="3" fill="#1f77b4"/>
<circle cx="697.3" cy="267.4" r="3" fill="#1f77b4"/>
<circle cx="700.8" cy="285.3" r="3" fill="#1f77b4"/>
<circle cx="704.3" cy="289.4" r="3" fill="#1f77b4"/>
<circle cx="707.9" cy="244.0" r="3" fill="#1f77b4"/>
<circle cx="711.4" cy="260.0" r="3" fill="#1f77b4"/>
<circle cx="715.0" cy="264.2" r="3" fill="#1f77b4"/>
<circle cx="718.5" cy="274.2" r="3" fill="#1f77b4"/>
<circle cx="722.1" cy="276.2" r="3" fill="#1f77b4"/>
<circle cx="725.6" cy="333.4" r="3" fill="#1f77b4"/>
<circle cx="729.1" cy="254.6" r="3" fill="#1f77b4"/>
<circle cx="732.7" cy="282.6" r="3" fill="#1f77b4"/>
<circle cx="736.2" cy="294.1" r="3" fill="#1f77b4"/>
<circle cx="739.8" cy="276.1" r="3" fill="#1f77b4"/>
<circle cx="743.3" cy="287.0" r="3" fill="#1f77b4"/>
<circle cx="746.9" cy="261.7" r="3" fill="#1f77b4"/>
<circle cx="750.4" cy="241.6" r="3" fill="#1f77b4"/>
<circle cx="753.9" cy="216.6" r="3" fill="#1f77b4"/>
<circle cx="757.5" cy="279.2" r="3" fill="#1f77b4"/>
<circle cx="761.0" cy="282.0" r="3" fill="#1f77b4"/>
<circle cx="764.6" cy="296.2" r="3" fill="#1f77b4"/>
<circle cx="768.1" cy="271.9" r="3" fill="#1f77b4"/>
<circle cx="771.7" cy="275.8" r="3" fill="#1f77b4"/>
<circle cx="775.2" cy="270.9" r="3" fill="#1f77b4"/>
<circle cx="778.7" cy="233.1" r="3" fill="#1f77b4"/>
<circle cx="782.3" cy="285.4" r="3" fill="#1f77b4"/>
<circle cx="785.8" cy="306.0" r="3" fill="#1f77b4"/>
<circle cx="789.4" cy="251.7" r="3" fill="#1f77b4"/>
<circle cx="792.9" cy="218.2" r="3" fill="#1f77b4"/>
<circle cx="796.5" cy="237.9" r="3" fill="#1f77b4"/>
<circle cx="800.0" cy="170.4" r="3" fill="#1f77b4"/>
<line x1="828" y1="96" x2="850" y2="96" stroke="#1f77b4" stroke-width="2.5"/>
<text x="858" y="100" font-family="Arial" font-size="13">GRPO-Clip 0.20/0.20 (e2/tb256)</text>
<polyline fill="none" stroke="#d62728" stroke-width="2.3" points="95.0,316.5 98.5,521.4 102.1,550.5 105.6,505.3 109.2,531.0 112.7,516.3 116.3,524.0 119.8,512.7 123.3,486.3 126.9,480.4 130.4,502.7 134.0,511.6 137.5,502.1 141.1,517.1 144.6,503.1 148.1,554.3 151.7,505.4 155.2,536.0 158.8,492.2 162.3,508.7 165.9,512.6 169.4,529.2 172.9,547.2 176.5,538.3 180.0,554.0 183.6,553.5 187.1,543.7 190.7,545.4 194.2,555.6 197.7,517.1 201.3,528.5 204.8,552.9 208.4,559.0 211.9,547.6 215.5,551.7 219.0,553.7 222.5,556.7 226.1,557.5 229.6,557.4 233.2,554.0 236.7,557.1 240.3,556.7 243.8,543.3 247.3,557.0 250.9,543.7 254.4,549.5 258.0,556.5 261.5,552.8 265.1,551.2 268.6,553.1 272.1,545.1 275.7,515.1 279.2,522.2 282.8,491.8 286.3,463.1 289.8,413.1 293.4,405.5 296.9,400.0 300.5,384.7 304.0,334.2 307.6,415.4 311.1,444.0 314.6,476.2 318.2,478.0 321.7,511.2 325.3,517.9 328.8,535.8 332.4,531.9 335.9,516.0 339.4,511.9 343.0,524.7 346.5,532.9 350.1,529.5 353.6,533.2 357.2,518.5 360.7,525.5 364.2,548.6 367.8,548.6 371.3,551.3 374.9,531.4 378.4,470.9 382.0,467.6 385.5,527.5 389.0,557.8 392.6,557.2 396.1,560.2 399.7,563.8 403.2,543.0 406.8,552.8 410.3,563.2 413.8,563.7 417.4,563.6 420.9,561.0 424.5,564.0 428.0,564.2 431.6,564.3 435.1,564.3 438.6,564.1 442.2,564.1 445.7,564.4 449.3,564.3 452.8,564.3 456.4,564.4 459.9,564.7 463.4,564.2 467.0,564.2 470.5,563.9 474.1,564.3 477.6,564.3 481.2,564.4 484.7,564.3 488.2,564.3 491.8,564.2 495.3,561.1 498.9,564.3 502.4,564.0 506.0,564.5 509.5,564.2 513.0,563.7 516.6,562.5 520.1,564.4 523.7,564.4 527.2,564.2 530.8,564.5 534.3,564.3 537.8,564.3 541.4,563.8 544.9,564.2 548.5,564.3 552.0,564.1 555.6,563.9 559.1,563.9 562.6,564.3 566.2,564.5 569.7,564.4 573.3,552.3 576.8,532.3 580.4,501.6 583.9,531.8 587.4,494.1 591.0,506.6 594.5,482.0 598.1,494.1 601.6,467.5 605.2,458.4 608.7,512.5 612.2,522.7 615.8,513.1 619.3,527.9 622.9,483.7 626.4,476.3 629.9,500.2 633.5,468.5 637.0,515.5 640.6,500.5 644.1,487.3 647.7,475.7 651.2,498.5 654.7,515.9 658.3,501.3 661.8,508.4 665.4,472.1 668.9,478.3 672.5,473.9 676.0,477.1 679.5,503.5 683.1,463.5 686.6,458.5 690.2,461.7 693.7,460.1 697.3,453.9 700.8,488.3 704.3,488.1 707.9,449.7 711.4,480.3 715.0,510.7 718.5,504.7 722.1,470.5 725.6,505.9 729.1,488.2 732.7,507.6 736.2,519.8 739.8,499.5 743.3,489.5 746.9,466.0 750.4,449.5 753.9,459.0 757.5,490.3 761.0,511.7 764.6,495.3 768.1,466.7 771.7,449.2 775.2,498.6 778.7,471.3 782.3,476.7 785.8,494.1 789.4,461.1 792.9,473.8 796.5,495.8 800.0,444.3"/>
<circle cx="95.0" cy="316.5" r="3" fill="#d62728"/>
<circle cx="98.5" cy="521.4" r="3" fill="#d62728"/>
<circle cx="102.1" cy="550.5" r="3" fill="#d62728"/>
<circle cx="105.6" cy="505.3" r="3" fill="#d62728"/>
<circle cx="109.2" cy="531.0" r="3" fill="#d62728"/>
<circle cx="112.7" cy="516.3" r="3" fill="#d62728"/>
<circle cx="116.3" cy="524.0" r="3" fill="#d62728"/>
<circle cx="119.8" cy="512.7" r="3" fill="#d62728"/>
<circle cx="123.3" cy="486.3" r="3" fill="#d62728"/>
<circle cx="126.9" cy="480.4" r="3" fill="#d62728"/>
<circle cx="130.4" cy="502.7" r="3" fill="#d62728"/>
<circle cx="134.0" cy="511.6" r="3" fill="#d62728"/>
<circle cx="137.5" cy="502.1" r="3" fill="#d62728"/>
<circle cx="141.1" cy="517.1" r="3" fill="#d62728"/>
<circle cx="144.6" cy="503.1" r="3" fill="#d62728"/>
<circle cx="148.1" cy="554.3" r="3" fill="#d62728"/>
<circle cx="151.7" cy="505.4" r="3" fill="#d62728"/>
<circle cx="155.2" cy="536.0" r="3" fill="#d62728"/>
<circle cx="158.8" cy="492.2" r="3" fill="#d62728"/>
<circle cx="162.3" cy="508.7" r="3" fill="#d62728"/>
<circle cx="165.9" cy="512.6" r="3" fill="#d62728"/>
<circle cx="169.4" cy="529.2" r="3" fill="#d62728"/>
<circle cx="172.9" cy="547.2" r="3" fill="#d62728"/>
<circle cx="176.5" cy="538.3" r="3" fill="#d62728"/>
<circle cx="180.0" cy="554.0" r="3" fill="#d62728"/>
<circle cx="183.6" cy="553.5" r="3" fill="#d62728"/>
<circle cx="187.1" cy="543.7" r="3" fill="#d62728"/>
<circle cx="190.7" cy="545.4" r="3" fill="#d62728"/>
<circle cx="194.2" cy="555.6" r="3" fill="#d62728"/>
<circle cx="197.7" cy="517.1" r="3" fill="#d62728"/>
<circle cx="201.3" cy="528.5" r="3" fill="#d62728"/>
<circle cx="204.8" cy="552.9" r="3" fill="#d62728"/>
<circle cx="208.4" cy="559.0" r="3" fill="#d62728"/>
<circle cx="211.9" cy="547.6" r="3" fill="#d62728"/>
<circle cx="215.5" cy="551.7" r="3" fill="#d62728"/>
<circle cx="219.0" cy="553.7" r="3" fill="#d62728"/>
<circle cx="222.5" cy="556.7" r="3" fill="#d62728"/>
<circle cx="226.1" cy="557.5" r="3" fill="#d62728"/>
<circle cx="229.6" cy="557.4" r="3" fill="#d62728"/>
<circle cx="233.2" cy="554.0" r="3" fill="#d62728"/>
<circle cx="236.7" cy="557.1" r="3" fill="#d62728"/>
<circle cx="240.3" cy="556.7" r="3" fill="#d62728"/>
<circle cx="243.8" cy="543.3" r="3" fill="#d62728"/>
<circle cx="247.3" cy="557.0" r="3" fill="#d62728"/>
<circle cx="250.9" cy="543.7" r="3" fill="#d62728"/>
<circle cx="254.4" cy="549.5" r="3" fill="#d62728"/>
<circle cx="258.0" cy="556.5" r="3" fill="#d62728"/>
<circle cx="261.5" cy="552.8" r="3" fill="#d62728"/>
<circle cx="265.1" cy="551.2" r="3" fill="#d62728"/>
<circle cx="268.6" cy="553.1" r="3" fill="#d62728"/>
<circle cx="272.1" cy="545.1" r="3" fill="#d62728"/>
<circle cx="275.7" cy="515.1" r="3" fill="#d62728"/>
<circle cx="279.2" cy="522.2" r="3" fill="#d62728"/>
<circle cx="282.8" cy="491.8" r="3" fill="#d62728"/>
<circle cx="286.3" cy="463.1" r="3" fill="#d62728"/>
<circle cx="289.8" cy="413.1" r="3" fill="#d62728"/>
<circle cx="293.4" cy="405.5" r="3" fill="#d62728"/>
<circle cx="296.9" cy="400.0" r="3" fill="#d62728"/>
<circle cx="300.5" cy="384.7" r="3" fill="#d62728"/>
<circle cx="304.0" cy="334.2" r="3" fill="#d62728"/>
<circle cx="307.6" cy="415.4" r="3" fill="#d62728"/>
<circle cx="311.1" cy="444.0" r="3" fill="#d62728"/>
<circle cx="314.6" cy="476.2" r="3" fill="#d62728"/>
<circle cx="318.2" cy="478.0" r="3" fill="#d62728"/>
<circle cx="321.7" cy="511.2" r="3" fill="#d62728"/>
<circle cx="325.3" cy="517.9" r="3" fill="#d62728"/>
<circle cx="328.8" cy="535.8" r="3" fill="#d62728"/>
<circle cx="332.4" cy="531.9" r="3" fill="#d62728"/>
<circle cx="335.9" cy="516.0" r="3" fill="#d62728"/>
<circle cx="339.4" cy="511.9" r="3" fill="#d62728"/>
<circle cx="343.0" cy="524.7" r="3" fill="#d62728"/>
<circle cx="346.5" cy="532.9" r="3" fill="#d62728"/>
<circle cx="350.1" cy="529.5" r="3" fill="#d62728"/>
<circle cx="353.6" cy="533.2" r="3" fill="#d62728"/>
<circle cx="357.2" cy="518.5" r="3" fill="#d62728"/>
<circle cx="360.7" cy="525.5" r="3" fill="#d62728"/>
<circle cx="364.2" cy="548.6" r="3" fill="#d62728"/>
<circle cx="367.8" cy="548.6" r="3" fill="#d62728"/>
<circle cx="371.3" cy="551.3" r="3" fill="#d62728"/>
<circle cx="374.9" cy="531.4" r="3" fill="#d62728"/>
<circle cx="378.4" cy="470.9" r="3" fill="#d62728"/>
<circle cx="382.0" cy="467.6" r="3" fill="#d62728"/>
<circle cx="385.5" cy="527.5" r="3" fill="#d62728"/>
<circle cx="389.0" cy="557.8" r="3" fill="#d62728"/>
<circle cx="392.6" cy="557.2" r="3" fill="#d62728"/>
<circle cx="396.1" cy="560.2" r="3" fill="#d62728"/>
<circle cx="399.7" cy="563.8" r="3" fill="#d62728"/>
<circle cx="403.2" cy="543.0" r="3" fill="#d62728"/>
<circle cx="406.8" cy="552.8" r="3" fill="#d62728"/>
<circle cx="410.3" cy="563.2" r="3" fill="#d62728"/>
<circle cx="413.8" cy="563.7" r="3" fill="#d62728"/>
<circle cx="417.4" cy="563.6" r="3" fill="#d62728"/>
<circle cx="420.9" cy="561.0" r="3" fill="#d62728"/>
<circle cx="424.5" cy="564.0" r="3" fill="#d62728"/>
<circle cx="428.0" cy="564.2" r="3" fill="#d62728"/>
<circle cx="431.6" cy="564.3" r="3" fill="#d62728"/>
<circle cx="435.1" cy="564.3" r="3" fill="#d62728"/>
<circle cx="438.6" cy="564.1" r="3" fill="#d62728"/>
<circle cx="442.2" cy="564.1" r="3" fill="#d62728"/>
<circle cx="445.7" cy="564.4" r="3" fill="#d62728"/>
<circle cx="449.3" cy="564.3" r="3" fill="#d62728"/>
<circle cx="452.8" cy="564.3" r="3" fill="#d62728"/>
<circle cx="456.4" cy="564.4" r="3" fill="#d62728"/>
<circle cx="459.9" cy="564.7" r="3" fill="#d62728"/>
<circle cx="463.4" cy="564.2" r="3" fill="#d62728"/>
<circle cx="467.0" cy="564.2" r="3" fill="#d62728"/>
<circle cx="470.5" cy="563.9" r="3" fill="#d62728"/>
<circle cx="474.1" cy="564.3" r="3" fill="#d62728"/>
<circle cx="477.6" cy="564.3" r="3" fill="#d62728"/>
<circle cx="481.2" cy="564.4" r="3" fill="#d62728"/>
<circle cx="484.7" cy="564.3" r="3" fill="#d62728"/>
<circle cx="488.2" cy="564.3" r="3" fill="#d62728"/>
<circle cx="491.8" cy="564.2" r="3" fill="#d62728"/>
<circle cx="495.3" cy="561.1" r="3" fill="#d62728"/>
<circle cx="498.9" cy="564.3" r="3" fill="#d62728"/>
<circle cx="502.4" cy="564.0" r="3" fill="#d62728"/>
<circle cx="506.0" cy="564.5" r="3" fill="#d62728"/>
<circle cx="509.5" cy="564.2" r="3" fill="#d62728"/>
<circle cx="513.0" cy="563.7" r="3" fill="#d62728"/>
<circle cx="516.6" cy="562.5" r="3" fill="#d62728"/>
<circle cx="520.1" cy="564.4" r="3" fill="#d62728"/>
<circle cx="523.7" cy="564.4" r="3" fill="#d62728"/>
<circle cx="527.2" cy="564.2" r="3" fill="#d62728"/>
<circle cx="530.8" cy="564.5" r="3" fill="#d62728"/>
<circle cx="534.3" cy="564.3" r="3" fill="#d62728"/>
<circle cx="537.8" cy="564.3" r="3" fill="#d62728"/>
<circle cx="541.4" cy="563.8" r="3" fill="#d62728"/>
<circle cx="544.9" cy="564.2" r="3" fill="#d62728"/>
<circle cx="548.5" cy="564.3" r="3" fill="#d62728"/>
<circle cx="552.0" cy="564.1" r="3" fill="#d62728"/>
<circle cx="555.6" cy="563.9" r="3" fill="#d62728"/>
<circle cx="559.1" cy="563.9" r="3" fill="#d62728"/>
<circle cx="562.6" cy="564.3" r="3" fill="#d62728"/>
<circle cx="566.2" cy="564.5" r="3" fill="#d62728"/>
<circle cx="569.7" cy="564.4" r="3" fill="#d62728"/>
<circle cx="573.3" cy="552.3" r="3" fill="#d62728"/>
<circle cx="576.8" cy="532.3" r="3" fill="#d62728"/>
<circle cx="580.4" cy="501.6" r="3" fill="#d62728"/>
<circle cx="583.9" cy="531.8" r="3" fill="#d62728"/>
<circle cx="587.4" cy="494.1" r="3" fill="#d62728"/>
<circle cx="591.0" cy="506.6" r="3" fill="#d62728"/>
<circle cx="594.5" cy="482.0" r="3" fill="#d62728"/>
<circle cx="598.1" cy="494.1" r="3" fill="#d62728"/>
<circle cx="601.6" cy="467.5" r="3" fill="#d62728"/>
<circle cx="605.2" cy="458.4" r="3" fill="#d62728"/>
<circle cx="608.7" cy="512.5" r="3" fill="#d62728"/>
<circle cx="612.2" cy="522.7" r="3" fill="#d62728"/>
<circle cx="615.8" cy="513.1" r="3" fill="#d62728"/>
<circle cx="619.3" cy="527.9" r="3" fill="#d62728"/>
<circle cx="622.9" cy="483.7" r="3" fill="#d62728"/>
<circle cx="626.4" cy="476.3" r="3" fill="#d62728"/>
<circle cx="629.9" cy="500.2" r="3" fill="#d62728"/>
<circle cx="633.5" cy="468.5" r="3" fill="#d62728"/>
<circle cx="637.0" cy="515.5" r="3" fill="#d62728"/>
<circle cx="640.6" cy="500.5" r="3" fill="#d62728"/>
<circle cx="644.1" cy="487.3" r="3" fill="#d62728"/>
<circle cx="647.7" cy="475.7" r="3" fill="#d62728"/>
<circle cx="651.2" cy="498.5" r="3" fill="#d62728"/>
<circle cx="654.7" cy="515.9" r="3" fill="#d62728"/>
<circle cx="658.3" cy="501.3" r="3" fill="#d62728"/>
<circle cx="661.8" cy="508.4" r="3" fill="#d62728"/>
<circle cx="665.4" cy="472.1" r="3" fill="#d62728"/>
<circle cx="668.9" cy="478.3" r="3" fill="#d62728"/>
<circle cx="672.5" cy="473.9" r="3" fill="#d62728"/>
<circle cx="676.0" cy="477.1" r="3" fill="#d62728"/>
<circle cx="679.5" cy="503.5" r="3" fill="#d62728"/>
<circle cx="683.1" cy="463.5" r="3" fill="#d62728"/>
<circle cx="686.6" cy="458.5" r="3" fill="#d62728"/>
<circle cx="690.2" cy="461.7" r="3" fill="#d62728"/>
<circle cx="693.7" cy="460.1" r="3" fill="#d62728"/>
<circle cx="697.3" cy="453.9" r="3" fill="#d62728"/>
<circle cx="700.8" cy="488.3" r="3" fill="#d62728"/>
<circle cx="704.3" cy="488.1" r="3" fill="#d62728"/>
<circle cx="707.9" cy="449.7" r="3" fill="#d62728"/>
<circle cx="711.4" cy="480.3" r="3" fill="#d62728"/>
<circle cx="715.0" cy="510.7" r="3" fill="#d62728"/>
<circle cx="718.5" cy="504.7" r="3" fill="#d62728"/>
<circle cx="722.1" cy="470.5" r="3" fill="#d62728"/>
<circle cx="725.6" cy="505.9" r="3" fill="#d62728"/>
<circle cx="729.1" cy="488.2" r="3" fill="#d62728"/>
<circle cx="732.7" cy="507.6" r="3" fill="#d62728"/>
<circle cx="736.2" cy="519.8" r="3" fill="#d62728"/>
<circle cx="739.8" cy="499.5" r="3" fill="#d62728"/>
<circle cx="743.3" cy="489.5" r="3" fill="#d62728"/>
<circle cx="746.9" cy="466.0" r="3" fill="#d62728"/>
<circle cx="750.4" cy="449.5" r="3" fill="#d62728"/>
<circle cx="753.9" cy="459.0" r="3" fill="#d62728"/>
<circle cx="757.5" cy="490.3" r="3" fill="#d62728"/>
<circle cx="761.0" cy="511.7" r="3" fill="#d62728"/>
<circle cx="764.6" cy="495.3" r="3" fill="#d62728"/>
<circle cx="768.1" cy="466.7" r="3" fill="#d62728"/>
<circle cx="771.7" cy="449.2" r="3" fill="#d62728"/>
<circle cx="775.2" cy="498.6" r="3" fill="#d62728"/>
<circle cx="778.7" cy="471.3" r="3" fill="#d62728"/>
<circle cx="782.3" cy="476.7" r="3" fill="#d62728"/>
<circle cx="785.8" cy="494.1" r="3" fill="#d62728"/>
<circle cx="789.4" cy="461.1" r="3" fill="#d62728"/>
<circle cx="792.9" cy="473.8" r="3" fill="#d62728"/>
<circle cx="796.5" cy="495.8" r="3" fill="#d62728"/>
<circle cx="800.0" cy="444.3" r="3" fill="#d62728"/>
<line x1="828" y1="120" x2="850" y2="120" stroke="#d62728" stroke-width="2.5"/>
<text x="858" y="124" font-family="Arial" font-size="13">GRPO-No-Clip (e2/tb256)</text>
<polyline fill="none" stroke="#2ca02c" stroke-width="2.3" points="95.0,316.5 98.5,460.9 102.1,429.8 105.6,426.0 109.2,432.2 112.7,362.8 116.3,367.3 119.8,401.2 123.3,424.3 126.9,439.4 130.4,467.3 134.0,434.6 137.5,435.9 141.1,441.2 144.6,443.4 148.1,444.5 151.7,436.1 155.2,473.7 158.8,453.5 162.3,424.4 165.9,418.3 169.4,417.4 172.9,400.3 176.5,420.2 180.0,433.7 183.6,431.8 187.1,371.5 190.7,401.2 194.2,411.3 197.7,380.1 201.3,343.1 204.8,361.8 208.4,372.0 211.9,372.0 215.5,346.8 219.0,307.4 222.5,358.3 226.1,332.4 229.6,330.7 233.2,355.0 236.7,324.7 240.3,320.0 243.8,347.2 247.3,339.3 250.9,269.6 254.4,312.5 258.0,268.3 261.5,269.2 265.1,284.1 268.6,303.9 272.1,246.0 275.7,286.1 279.2,258.0 282.8,307.8 286.3,275.9 289.8,358.4 293.4,289.7 296.9,256.4 300.5,284.4 304.0,255.7 307.6,328.5 311.1,277.5 314.6,252.4 318.2,304.9 321.7,302.0 325.3,290.5 328.8,307.3 332.4,275.5 335.9,318.0 339.4,277.0 343.0,331.7 346.5,291.5 350.1,299.3 353.6,331.3 357.2,327.0 360.7,288.5 364.2,301.7 367.8,305.6 371.3,339.6 374.9,269.1 378.4,298.6 382.0,274.9 385.5,284.4 389.0,297.8 392.6,310.2 396.1,270.3 399.7,318.6 403.2,285.6 406.8,278.6 410.3,318.2 413.8,233.4 417.4,270.1 420.9,301.5 424.5,300.3 428.0,279.6 431.6,285.5 435.1,269.2 438.6,230.5 442.2,227.5 445.7,320.5 449.3,273.5 452.8,271.0 456.4,287.4 459.9,284.4 463.4,261.9 467.0,297.0 470.5,277.4 474.1,260.8 477.6,234.5 481.2,284.0 484.7,242.6 488.2,277.2 491.8,266.7 495.3,240.8 498.9,281.3 502.4,253.1 506.0,238.4 509.5,243.9 513.0,226.2 516.6,228.6 520.1,254.0 523.7,164.1 527.2,227.4 530.8,177.6 534.3,190.3 537.8,196.2 541.4,217.3 544.9,169.4 548.5,182.4 552.0,215.3 555.6,234.9 559.1,281.8 562.6,223.3 566.2,207.8 569.7,190.3 573.3,235.4 576.8,223.5 580.4,185.7 583.9,215.3 587.4,230.2 591.0,260.7 594.5,238.5 598.1,182.6 601.6,255.7 605.2,145.2 608.7,244.2 612.2,278.7 615.8,257.4 619.3,210.8 622.9,186.9 626.4,178.3 629.9,221.5 633.5,233.4 637.0,215.6 640.6,238.8 644.1,234.4 647.7,214.0 651.2,213.0 654.7,189.7 658.3,198.8 661.8,213.0 665.4,193.2 668.9,228.0 672.5,194.2 676.0,151.2 679.5,245.9 683.1,242.0 686.6,160.0 690.2,234.9 693.7,185.3 697.3,221.8 700.8,186.6 704.3,247.5 707.9,170.2 711.4,202.6 715.0,182.9 718.5,216.1 722.1,205.8 725.6,219.0 729.1,195.2 732.7,174.4 736.2,207.8 739.8,209.0 743.3,164.1 746.9,184.0 750.4,114.9 753.9,128.9 757.5,156.4 761.0,162.8 764.6,173.7 768.1,153.6 771.7,166.1 775.2,157.0 778.7,120.8 782.3,194.1 785.8,152.5 789.4,106.5 792.9,89.3 796.5,144.5 800.0,74.1"/>
<circle cx="95.0" cy="316.5" r="3" fill="#2ca02c"/>
<circle cx="98.5" cy="460.9" r="3" fill="#2ca02c"/>
<circle cx="102.1" cy="429.8" r="3" fill="#2ca02c"/>
<circle cx="105.6" cy="426.0" r="3" fill="#2ca02c"/>
<circle cx="109.2" cy="432.2" r="3" fill="#2ca02c"/>
<circle cx="112.7" cy="362.8" r="3" fill="#2ca02c"/>
<circle cx="116.3" cy="367.3" r="3" fill="#2ca02c"/>
<circle cx="119.8" cy="401.2" r="3" fill="#2ca02c"/>
<circle cx="123.3" cy="424.3" r="3" fill="#2ca02c"/>
<circle cx="126.9" cy="439.4" r="3" fill="#2ca02c"/>
<circle cx="130.4" cy="467.3" r="3" fill="#2ca02c"/>
<circle cx="134.0" cy="434.6" r="3" fill="#2ca02c"/>
<circle cx="137.5" cy="435.9" r="3" fill="#2ca02c"/>
<circle cx="141.1" cy="441.2" r="3" fill="#2ca02c"/>
<circle cx="144.6" cy="443.4" r="3" fill="#2ca02c"/>
<circle cx="148.1" cy="444.5" r="3" fill="#2ca02c"/>
<circle cx="151.7" cy="436.1" r="3" fill="#2ca02c"/>
<circle cx="155.2" cy="473.7" r="3" fill="#2ca02c"/>
<circle cx="158.8" cy="453.5" r="3" fill="#2ca02c"/>
<circle cx="162.3" cy="424.4" r="3" fill="#2ca02c"/>
<circle cx="165.9" cy="418.3" r="3" fill="#2ca02c"/>
<circle cx="169.4" cy="417.4" r="3" fill="#2ca02c"/>
<circle cx="172.9" cy="400.3" r="3" fill="#2ca02c"/>
<circle cx="176.5" cy="420.2" r="3" fill="#2ca02c"/>
<circle cx="180.0" cy="433.7" r="3" fill="#2ca02c"/>
<circle cx="183.6" cy="431.8" r="3" fill="#2ca02c"/>
<circle cx="187.1" cy="371.5" r="3" fill="#2ca02c"/>
<circle cx="190.7" cy="401.2" r="3" fill="#2ca02c"/>
<circle cx="194.2" cy="411.3" r="3" fill="#2ca02c"/>
<circle cx="197.7" cy="380.1" r="3" fill="#2ca02c"/>
<circle cx="201.3" cy="343.1" r="3" fill="#2ca02c"/>
<circle cx="204.8" cy="361.8" r="3" fill="#2ca02c"/>
<circle cx="208.4" cy="372.0" r="3" fill="#2ca02c"/>
<circle cx="211.9" cy="372.0" r="3" fill="#2ca02c"/>
<circle cx="215.5" cy="346.8" r="3" fill="#2ca02c"/>
<circle cx="219.0" cy="307.4" r="3" fill="#2ca02c"/>
<circle cx="222.5" cy="358.3" r="3" fill="#2ca02c"/>
<circle cx="226.1" cy="332.4" r="3" fill="#2ca02c"/>
<circle cx="229.6" cy="330.7" r="3" fill="#2ca02c"/>
<circle cx="233.2" cy="355.0" r="3" fill="#2ca02c"/>
<circle cx="236.7" cy="324.7" r="3" fill="#2ca02c"/>
<circle cx="240.3" cy="320.0" r="3" fill="#2ca02c"/>
<circle cx="243.8" cy="347.2" r="3" fill="#2ca02c"/>
<circle cx="247.3" cy="339.3" r="3" fill="#2ca02c"/>
<circle cx="250.9" cy="269.6" r="3" fill="#2ca02c"/>
<circle cx="254.4" cy="312.5" r="3" fill="#2ca02c"/>
<circle cx="258.0" cy="268.3" r="3" fill="#2ca02c"/>
<circle cx="261.5" cy="269.2" r="3" fill="#2ca02c"/>
<circle cx="265.1" cy="284.1" r="3" fill="#2ca02c"/>
<circle cx="268.6" cy="303.9" r="3" fill="#2ca02c"/>
<circle cx="272.1" cy="246.0" r="3" fill="#2ca02c"/>
<circle cx="275.7" cy="286.1" r="3" fill="#2ca02c"/>
<circle cx="279.2" cy="258.0" r="3" fill="#2ca02c"/>
<circle cx="282.8" cy="307.8" r="3" fill="#2ca02c"/>
<circle cx="286.3" cy="275.9" r="3" fill="#2ca02c"/>
<circle cx="289.8" cy="358.4" r="3" fill="#2ca02c"/>
<circle cx="293.4" cy="289.7" r="3" fill="#2ca02c"/>
<circle cx="296.9" cy="256.4" r="3" fill="#2ca02c"/>
<circle cx="300.5" cy="284.4" r="3" fill="#2ca02c"/>
<circle cx="304.0" cy="255.7" r="3" fill="#2ca02c"/>
<circle cx="307.6" cy="328.5" r="3" fill="#2ca02c"/>
<circle cx="311.1" cy="277.5" r="3" fill="#2ca02c"/>
<circle cx="314.6" cy="252.4" r="3" fill="#2ca02c"/>
<circle cx="318.2" cy="304.9" r="3" fill="#2ca02c"/>
<circle cx="321.7" cy="302.0" r="3" fill="#2ca02c"/>
<circle cx="325.3" cy="290.5" r="3" fill="#2ca02c"/>
<circle cx="328.8" cy="307.3" r="3" fill="#2ca02c"/>
<circle cx="332.4" cy="275.5" r="3" fill="#2ca02c"/>
<circle cx="335.9" cy="318.0" r="3" fill="#2ca02c"/>
<circle cx="339.4" cy="277.0" r="3" fill="#2ca02c"/>
<circle cx="343.0" cy="331.7" r="3" fill="#2ca02c"/>
<circle cx="346.5" cy="291.5" r="3" fill="#2ca02c"/>
<circle cx="350.1" cy="299.3" r="3" fill="#2ca02c"/>
<circle cx="353.6" cy="331.3" r="3" fill="#2ca02c"/>
<circle cx="357.2" cy="327.0" r="3" fill="#2ca02c"/>
<circle cx="360.7" cy="288.5" r="3" fill="#2ca02c"/>
<circle cx="364.2" cy="301.7" r="3" fill="#2ca02c"/>
<circle cx="367.8" cy="305.6" r="3" fill="#2ca02c"/>
<circle cx="371.3" cy="339.6" r="3" fill="#2ca02c"/>
<circle cx="374.9" cy="269.1" r="3" fill="#2ca02c"/>
<circle cx="378.4" cy="298.6" r="3" fill="#2ca02c"/>
<circle cx="382.0" cy="274.9" r="3" fill="#2ca02c"/>
<circle cx="385.5" cy="284.4" r="3" fill="#2ca02c"/>
<circle cx="389.0" cy="297.8" r="3" fill="#2ca02c"/>
<circle cx="392.6" cy="310.2" r="3" fill="#2ca02c"/>
<circle cx="396.1" cy="270.3" r="3" fill="#2ca02c"/>
<circle cx="399.7" cy="318.6" r="3" fill="#2ca02c"/>
<circle cx="403.2" cy="285.6" r="3" fill="#2ca02c"/>
<circle cx="406.8" cy="278.6" r="3" fill="#2ca02c"/>
<circle cx="410.3" cy="318.2" r="3" fill="#2ca02c"/>
<circle cx="413.8" cy="233.4" r="3" fill="#2ca02c"/>
<circle cx="417.4" cy="270.1" r="3" fill="#2ca02c"/>
<circle cx="420.9" cy="301.5" r="3" fill="#2ca02c"/>
<circle cx="424.5" cy="300.3" r="3" fill="#2ca02c"/>
<circle cx="428.0" cy="279.6" r="3" fill="#2ca02c"/>
<circle cx="431.6" cy="285.5" r="3" fill="#2ca02c"/>
<circle cx="435.1" cy="269.2" r="3" fill="#2ca02c"/>
<circle cx="438.6" cy="230.5" r="3" fill="#2ca02c"/>
<circle cx="442.2" cy="227.5" r="3" fill="#2ca02c"/>
<circle cx="445.7" cy="320.5" r="3" fill="#2ca02c"/>
<circle cx="449.3" cy="273.5" r="3" fill="#2ca02c"/>
<circle cx="452.8" cy="271.0" r="3" fill="#2ca02c"/>
<circle cx="456.4" cy="287.4" r="3" fill="#2ca02c"/>
<circle cx="459.9" cy="284.4" r="3" fill="#2ca02c"/>
<circle cx="463.4" cy="261.9" r="3" fill="#2ca02c"/>
<circle cx="467.0" cy="297.0" r="3" fill="#2ca02c"/>
<circle cx="470.5" cy="277.4" r="3" fill="#2ca02c"/>
<circle cx="474.1" cy="260.8" r="3" fill="#2ca02c"/>
<circle cx="477.6" cy="234.5" r="3" fill="#2ca02c"/>
<circle cx="481.2" cy="284.0" r="3" fill="#2ca02c"/>
<circle cx="484.7" cy="242.6" r="3" fill="#2ca02c"/>
<circle cx="488.2" cy="277.2" r="3" fill="#2ca02c"/>
<circle cx="491.8" cy="266.7" r="3" fill="#2ca02c"/>
<circle cx="495.3" cy="240.8" r="3" fill="#2ca02c"/>
<circle cx="498.9" cy="281.3" r="3" fill="#2ca02c"/>
<circle cx="502.4" cy="253.1" r="3" fill="#2ca02c"/>
<circle cx="506.0" cy="238.4" r="3" fill="#2ca02c"/>
<circle cx="509.5" cy="243.9" r="3" fill="#2ca02c"/>
<circle cx="513.0" cy="226.2" r="3" fill="#2ca02c"/>
<circle cx="516.6" cy="228.6" r="3" fill="#2ca02c"/>
<circle cx="520.1" cy="254.0" r="3" fill="#2ca02c"/>
<circle cx="523.7" cy="164.1" r="3" fill="#2ca02c"/>
<circle cx="527.2" cy="227.4" r="3" fill="#2ca02c"/>
<circle cx="530.8" cy="177.6" r="3" fill="#2ca02c"/>
<circle cx="534.3" cy="190.3" r="3" fill="#2ca02c"/>
<circle cx="537.8" cy="196.2" r="3" fill="#2ca02c"/>
<circle cx="541.4" cy="217.3" r="3" fill="#2ca02c"/>
<circle cx="544.9" cy="169.4" r="3" fill="#2ca02c"/>
<circle cx="548.5" cy="182.4" r="3" fill="#2ca02c"/>
<circle cx="552.0" cy="215.3" r="3" fill="#2ca02c"/>
<circle cx="555.6" cy="234.9" r="3" fill="#2ca02c"/>
<circle cx="559.1" cy="281.8" r="3" fill="#2ca02c"/>
<circle cx="562.6" cy="223.3" r="3" fill="#2ca02c"/>
<circle cx="566.2" cy="207.8" r="3" fill="#2ca02c"/>
<circle cx="569.7" cy="190.3" r="3" fill="#2ca02c"/>
<circle cx="573.3" cy="235.4" r="3" fill="#2ca02c"/>
<circle cx="576.8" cy="223.5" r="3" fill="#2ca02c"/>
<circle cx="580.4" cy="185.7" r="3" fill="#2ca02c"/>
<circle cx="583.9" cy="215.3" r="3" fill="#2ca02c"/>
<circle cx="587.4" cy="230.2" r="3" fill="#2ca02c"/>
<circle cx="591.0" cy="260.7" r="3" fill="#2ca02c"/>
<circle cx="594.5" cy="238.5" r="3" fill="#2ca02c"/>
<circle cx="598.1" cy="182.6" r="3" fill="#2ca02c"/>
<circle cx="601.6" cy="255.7" r="3" fill="#2ca02c"/>
<circle cx="605.2" cy="145.2" r="3" fill="#2ca02c"/>
<circle cx="608.7" cy="244.2" r="3" fill="#2ca02c"/>
<circle cx="612.2" cy="278.7" r="3" fill="#2ca02c"/>
<circle cx="615.8" cy="257.4" r="3" fill="#2ca02c"/>
<circle cx="619.3" cy="210.8" r="3" fill="#2ca02c"/>
<circle cx="622.9" cy="186.9" r="3" fill="#2ca02c"/>
<circle cx="626.4" cy="178.3" r="3" fill="#2ca02c"/>
<circle cx="629.9" cy="221.5" r="3" fill="#2ca02c"/>
<circle cx="633.5" cy="233.4" r="3" fill="#2ca02c"/>
<circle cx="637.0" cy="215.6" r="3" fill="#2ca02c"/>
<circle cx="640.6" cy="238.8" r="3" fill="#2ca02c"/>
<circle cx="644.1" cy="234.4" r="3" fill="#2ca02c"/>
<circle cx="647.7" cy="214.0" r="3" fill="#2ca02c"/>
<circle cx="651.2" cy="213.0" r="3" fill="#2ca02c"/>
<circle cx="654.7" cy="189.7" r="3" fill="#2ca02c"/>
<circle cx="658.3" cy="198.8" r="3" fill="#2ca02c"/>
<circle cx="661.8" cy="213.0" r="3" fill="#2ca02c"/>
<circle cx="665.4" cy="193.2" r="3" fill="#2ca02c"/>
<circle cx="668.9" cy="228.0" r="3" fill="#2ca02c"/>
<circle cx="672.5" cy="194.2" r="3" fill="#2ca02c"/>
<circle cx="676.0" cy="151.2" r="3" fill="#2ca02c"/>
<circle cx="679.5" cy="245.9" r="3" fill="#2ca02c"/>
<circle cx="683.1" cy="242.0" r="3" fill="#2ca02c"/>
<circle cx="686.6" cy="160.0" r="3" fill="#2ca02c"/>
<circle cx="690.2" cy="234.9" r="3" fill="#2ca02c"/>
<circle cx="693.7" cy="185.3" r="3" fill="#2ca02c"/>
<circle cx="697.3" cy="221.8" r="3" fill="#2ca02c"/>
<circle cx="700.8" cy="186.6" r="3" fill="#2ca02c"/>
<circle cx="704.3" cy="247.5" r="3" fill="#2ca02c"/>
<circle cx="707.9" cy="170.2" r="3" fill="#2ca02c"/>
<circle cx="711.4" cy="202.6" r="3" fill="#2ca02c"/>
<circle cx="715.0" cy="182.9" r="3" fill="#2ca02c"/>
<circle cx="718.5" cy="216.1" r="3" fill="#2ca02c"/>
<circle cx="722.1" cy="205.8" r="3" fill="#2ca02c"/>
<circle cx="725.6" cy="219.0" r="3" fill="#2ca02c"/>
<circle cx="729.1" cy="195.2" r="3" fill="#2ca02c"/>
<circle cx="732.7" cy="174.4" r="3" fill="#2ca02c"/>
<circle cx="736.2" cy="207.8" r="3" fill="#2ca02c"/>
<circle cx="739.8" cy="209.0" r="3" fill="#2ca02c"/>
<circle cx="743.3" cy="164.1" r="3" fill="#2ca02c"/>
<circle cx="746.9" cy="184.0" r="3" fill="#2ca02c"/>
<circle cx="750.4" cy="114.9" r="3" fill="#2ca02c"/>
<circle cx="753.9" cy="128.9" r="3" fill="#2ca02c"/>
<circle cx="757.5" cy="156.4" r="3" fill="#2ca02c"/>
<circle cx="761.0" cy="162.8" r="3" fill="#2ca02c"/>
<circle cx="764.6" cy="173.7" r="3" fill="#2ca02c"/>
<circle cx="768.1" cy="153.6" r="3" fill="#2ca02c"/>
<circle cx="771.7" cy="166.1" r="3" fill="#2ca02c"/>
<circle cx="775.2" cy="157.0" r="3" fill="#2ca02c"/>
<circle cx="778.7" cy="120.8" r="3" fill="#2ca02c"/>
<circle cx="782.3" cy="194.1" r="3" fill="#2ca02c"/>
<circle cx="785.8" cy="152.5" r="3" fill="#2ca02c"/>
<circle cx="789.4" cy="106.5" r="3" fill="#2ca02c"/>
<circle cx="792.9" cy="89.3" r="3" fill="#2ca02c"/>
<circle cx="796.5" cy="144.5" r="3" fill="#2ca02c"/>
<circle cx="800.0" cy="74.1" r="3" fill="#2ca02c"/>
<line x1="828" y1="144" x2="850" y2="144" stroke="#2ca02c" stroke-width="2.5"/>
<text x="858" y="148" font-family="Arial" font-size="13">GRPO-Clip 0.20/0.28 (e2/tb256)</text>
<text x="447.5" y="638" text-anchor="middle" font-family="Arial" font-size="15">GRPO step</text>
<text x="24" y="326.0" text-anchor="middle" font-family="Arial" font-size="15" transform="rotate(-90 24 326.0)">Average rollout response tokens</text>
</svg>
