<svg xmlns="http://www.w3.org/2000/svg" width="1100" height="660" viewBox="0 0 1100 660">
<rect width="100%" height="100%" fill="white"/>
<text x="550.0" y="36" text-anchor="middle" font-family="Arial" font-size="22" font-weight="700">Off-policy clip ablation: token entropy</text>
<line x1="95" y1="578" x2="800" y2="578" stroke="#222" stroke-width="1.5"/>
<line x1="95" y1="74" x2="95" y2="578" stroke="#222" stroke-width="1.5"/>
<line x1="90" y1="578.0" x2="800" y2="578.0" stroke="#ddd" stroke-width="1"/>
<text x="83" y="582.0" text-anchor="end" font-family="Arial" font-size="12">0.00</text>
<line x1="90" y1="477.2" x2="800" y2="477.2" stroke="#ddd" stroke-width="1"/>
<text x="83" y="481.2" text-anchor="end" font-family="Arial" font-size="12">0.56</text>
<line x1="90" y1="376.4" x2="800" y2="376.4" stroke="#ddd" stroke-width="1"/>
<text x="83" y="380.4" text-anchor="end" font-family="Arial" font-size="12">1.12</text>
<line x1="90" y1="275.6" x2="800" y2="275.6" stroke="#ddd" stroke-width="1"/>
<text x="83" y="279.6" text-anchor="end" font-family="Arial" font-size="12">1.68</text>
<line x1="90" y1="174.8" x2="800" y2="174.8" stroke="#ddd" stroke-width="1"/>
<text x="83" y="178.8" text-anchor="end" font-family="Arial" font-size="12">2.24</text>
<line x1="90" y1="74.0" x2="800" y2="74.0" stroke="#ddd" stroke-width="1"/>
<text x="83" y="78.0" text-anchor="end" font-family="Arial" font-size="12">2.80</text>
<line x1="95.0" y1="578" x2="95.0" y2="583" stroke="#222" stroke-width="1"/>
<text x="95.0" y="602" text-anchor="middle" font-family="Arial" font-size="12">1</text>
<line x1="236.0" y1="578" x2="236.0" y2="583" stroke="#222" stroke-width="1"/>
<text x="236.0" y="602" text-anchor="middle" font-family="Arial" font-size="12">41</text>
<line x1="377.0" y1="578" x2="377.0" y2="583" stroke="#222" stroke-width="1"/>
<text x="377.0" y="602" text-anchor="middle" font-family="Arial" font-size="12">81</text>
<line x1="518.0" y1="578" x2="518.0" y2="583" stroke="#222" stroke-width="1"/>
<text x="518.0" y="602" text-anchor="middle" font-family="Arial" font-size="12">120</text>
<line x1="659.0" y1="578" x2="659.0" y2="583" stroke="#222" stroke-width="1"/>
<text x="659.0" y="602" text-anchor="middle" font-family="Arial" font-size="12">160</text>
<line x1="800.0" y1="578" x2="800.0" y2="583" stroke="#222" stroke-width="1"/>
<text x="800.0" y="602" text-anchor="middle" font-family="Arial" font-size="12">200</text>
<polyline fill="none" stroke="#1f77b4" stroke-width="2.3" points="95.0,453.9 98.5,457.3 102.1,483.2 105.6,493.0 109.2,487.9 112.7,506.4 116.3,513.0 119.8,507.0 123.3,519.5 126.9,529.2 130.4,517.2 134.0,526.5 137.5,516.7 141.1,523.7 144.6,532.2 148.1,530.2 151.7,529.5 155.2,535.9 158.8,530.3 162.3,538.7 165.9,537.6 169.4,534.3 172.9,539.3 176.5,539.1 180.0,541.3 183.6,540.9 187.1,541.0 190.7,545.0 194.2,543.1 197.7,543.6 201.3,542.9 204.8,544.9 208.4,546.7 211.9,548.6 215.5,544.4 219.0,549.4 222.5,548.9 226.1,548.6 229.6,548.8 233.2,543.1 236.7,546.1 240.3,548.3 243.8,549.9 247.3,546.8 250.9,546.0 254.4,547.7 258.0,546.6 261.5,544.9 265.1,544.7 268.6,546.2 272.1,544.7 275.7,546.9 279.2,542.2 282.8,544.0 286.3,541.2 289.8,546.1 293.4,540.5 296.9,542.9 300.5,545.2 304.0,544.2 307.6,545.2 311.1,544.2 314.6,543.6 318.2,544.0 321.7,543.4 325.3,545.7 328.8,544.2 332.4,543.6 335.9,545.4 339.4,543.5 343.0,548.3 346.5,547.6 350.1,549.7 353.6,548.4 357.2,550.7 360.7,550.2 364.2,560.2 367.8,556.1 371.3,559.2 374.9,562.6 378.4,553.8 382.0,553.5 385.5,558.5 389.0,557.9 392.6,551.6 396.1,550.0 399.7,547.6 403.2,548.1 406.8,550.1 410.3,551.0 413.8,551.7 417.4,548.9 420.9,554.0 424.5,555.5 428.0,551.5 431.6,548.0 435.1,557.8 438.6,554.7 442.2,557.0 445.7,560.7 449.3,555.9 452.8,559.8 456.4,558.9 459.9,553.3 463.4,548.0 467.0,556.0 470.5,556.4 474.1,563.4 477.6,562.4 481.2,562.6 484.7,563.8 488.2,554.6 491.8,558.1 495.3,554.2 498.9,554.4 502.4,538.7 506.0,545.3 509.5,545.9 513.0,543.7 516.6,545.3 520.1,545.8 523.7,548.3 527.2,555.0 530.8,562.0 534.3,559.5 537.8,554.1 541.4,557.3 544.9,556.8 548.5,559.7 552.0,554.3 555.6,555.4 559.1,550.0 562.6,545.5 566.2,544.8 569.7,545.0 573.3,551.1 576.8,548.6 580.4,545.8 583.9,551.3 587.4,544.6 591.0,559.8 594.5,552.4 598.1,556.9 601.6,559.2 605.2,558.9 608.7,557.6 612.2,551.3 615.8,548.4 619.3,557.0 622.9,558.0 626.4,552.2 629.9,545.1 633.5,549.7 637.0,558.2 640.6,554.6 644.1,552.7 647.7,551.3 651.2,554.5 654.7,548.3 658.3,556.4 661.8,553.7 665.4,554.1 668.9,553.1 672.5,556.6 676.0,554.2 679.5,550.9 683.1,549.4 686.6,552.4 690.2,544.6 693.7,545.0 697.3,551.8 700.8,547.8 704.3,546.9 707.9,547.1 711.4,547.7 715.0,541.9 718.5,544.9 722.1,547.3 725.6,546.2 729.1,552.2 732.7,554.5 736.2,554.2 739.8,553.9 743.3,555.0 746.9,550.2 750.4,548.5 753.9,553.3 757.5,558.8 761.0,563.7 764.6,563.1 768.1,564.0 771.7,563.1 775.2,559.9 778.7,560.8 782.3,552.5"/>
<circle cx="95.0" cy="453.9" r="3" fill="#1f77b4"/>
<circle cx="98.5" cy="457.3" r="3" fill="#1f77b4"/>
<circle cx="102.1" cy="483.2" r="3" fill="#1f77b4"/>
<circle cx="105.6" cy="493.0" r="3" fill="#1f77b4"/>
<circle cx="109.2" cy="487.9" r="3" fill="#1f77b4"/>
<circle cx="112.7" cy="506.4" r="3" fill="#1f77b4"/>
<circle cx="116.3" cy="513.0" r="3" fill="#1f77b4"/>
<circle cx="119.8" cy="507.0" r="3" fill="#1f77b4"/>
<circle cx="123.3" cy="519.5" r="3" fill="#1f77b4"/>
<circle cx="126.9" cy="529.2" r="3" fill="#1f77b4"/>
<circle cx="130.4" cy="517.2" r="3" fill="#1f77b4"/>
<circle cx="134.0" cy="526.5" r="3" fill="#1f77b4"/>
<circle cx="137.5" cy="516.7" r="3" fill="#1f77b4"/>
<circle cx="141.1" cy="523.7" r="3" fill="#1f77b4"/>
<circle cx="144.6" cy="532.2" r="3" fill="#1f77b4"/>
<circle cx="148.1" cy="530.2" r="3" fill="#1f77b4"/>
<circle cx="151.7" cy="529.5" r="3" fill="#1f77b4"/>
<circle cx="155.2" cy="535.9" r="3" fill="#1f77b4"/>
<circle cx="158.8" cy="530.3" r="3" fill="#1f77b4"/>
<circle cx="162.3" cy="538.7" r="3" fill="#1f77b4"/>
<circle cx="165.9" cy="537.6" r="3" fill="#1f77b4"/>
<circle cx="169.4" cy="534.3" r="3" fill="#1f77b4"/>
<circle cx="172.9" cy="539.3" r="3" fill="#1f77b4"/>
<circle cx="176.5" cy="539.1" r="3" fill="#1f77b4"/>
<circle cx="180.0" cy="541.3" r="3" fill="#1f77b4"/>
<circle cx="183.6" cy="540.9" r="3" fill="#1f77b4"/>
<circle cx="187.1" cy="541.0" r="3" fill="#1f77b4"/>
<circle cx="190.7" cy="545.0" r="3" fill="#1f77b4"/>
<circle cx="194.2" cy="543.1" r="3" fill="#1f77b4"/>
<circle cx="197.7" cy="543.6" r="3" fill="#1f77b4"/>
<circle cx="201.3" cy="542.9" r="3" fill="#1f77b4"/>
<circle cx="204.8" cy="544.9" r="3" fill="#1f77b4"/>
<circle cx="208.4" cy="546.7" r="3" fill="#1f77b4"/>
<circle cx="211.9" cy="548.6" r="3" fill="#1f77b4"/>
<circle cx="215.5" cy="544.4" r="3" fill="#1f77b4"/>
<circle cx="219.0" cy="549.4" r="3" fill="#1f77b4"/>
<circle cx="222.5" cy="548.9" r="3" fill="#1f77b4"/>
<circle cx="226.1" cy="548.6" r="3" fill="#1f77b4"/>
<circle cx="229.6" cy="548.8" r="3" fill="#1f77b4"/>
<circle cx="233.2" cy="543.1" r="3" fill="#1f77b4"/>
<circle cx="236.7" cy="546.1" r="3" fill="#1f77b4"/>
<circle cx="240.3" cy="548.3" r="3" fill="#1f77b4"/>
<circle cx="243.8" cy="549.9" r="3" fill="#1f77b4"/>
<circle cx="247.3" cy="546.8" r="3" fill="#1f77b4"/>
<circle cx="250.9" cy="546.0" r="3" fill="#1f77b4"/>
<circle cx="254.4" cy="547.7" r="3" fill="#1f77b4"/>
<circle cx="258.0" cy="546.6" r="3" fill="#1f77b4"/>
<circle cx="261.5" cy="544.9" r="3" fill="#1f77b4"/>
<circle cx="265.1" cy="544.7" r="3" fill="#1f77b4"/>
<circle cx="268.6" cy="546.2" r="3" fill="#1f77b4"/>
<circle cx="272.1" cy="544.7" r="3" fill="#1f77b4"/>
<circle cx="275.7" cy="546.9" r="3" fill="#1f77b4"/>
<circle cx="279.2" cy="542.2" r="3" fill="#1f77b4"/>
<circle cx="282.8" cy="544.0" r="3" fill="#1f77b4"/>
<circle cx="286.3" cy="541.2" r="3" fill="#1f77b4"/>
<circle cx="289.8" cy="546.1" r="3" fill="#1f77b4"/>
<circle cx="293.4" cy="540.5" r="3" fill="#1f77b4"/>
<circle cx="296.9" cy="542.9" r="3" fill="#1f77b4"/>
<circle cx="300.5" cy="545.2" r="3" fill="#1f77b4"/>
<circle cx="304.0" cy="544.2" r="3" fill="#1f77b4"/>
<circle cx="307.6" cy="545.2" r="3" fill="#1f77b4"/>
<circle cx="311.1" cy="544.2" r="3" fill="#1f77b4"/>
<circle cx="314.6" cy="543.6" r="3" fill="#1f77b4"/>
<circle cx="318.2" cy="544.0" r="3" fill="#1f77b4"/>
<circle cx="321.7" cy="543.4" r="3" fill="#1f77b4"/>
<circle cx="325.3" cy="545.7" r="3" fill="#1f77b4"/>
<circle cx="328.8" cy="544.2" r="3" fill="#1f77b4"/>
<circle cx="332.4" cy="543.6" r="3" fill="#1f77b4"/>
<circle cx="335.9" cy="545.4" r="3" fill="#1f77b4"/>
<circle cx="339.4" cy="543.5" r="3" fill="#1f77b4"/>
<circle cx="343.0" cy="548.3" r="3" fill="#1f77b4"/>
<circle cx="346.5" cy="547.6" r="3" fill="#1f77b4"/>
<circle cx="350.1" cy="549.7" r="3" fill="#1f77b4"/>
<circle cx="353.6" cy="548.4" r="3" fill="#1f77b4"/>
<circle cx="357.2" cy="550.7" r="3" fill="#1f77b4"/>
<circle cx="360.7" cy="550.2" r="3" fill="#1f77b4"/>
<circle cx="364.2" cy="560.2" r="3" fill="#1f77b4"/>
<circle cx="367.8" cy="556.1" r="3" fill="#1f77b4"/>
<circle cx="371.3" cy="559.2" r="3" fill="#1f77b4"/>
<circle cx="374.9" cy="562.6" r="3" fill="#1f77b4"/>
<circle cx="378.4" cy="553.8" r="3" fill="#1f77b4"/>
<circle cx="382.0" cy="553.5" r="3" fill="#1f77b4"/>
<circle cx="385.5" cy="558.5" r="3" fill="#1f77b4"/>
<circle cx="389.0" cy="557.9" r="3" fill="#1f77b4"/>
<circle cx="392.6" cy="551.6" r="3" fill="#1f77b4"/>
<circle cx="396.1" cy="550.0" r="3" fill="#1f77b4"/>
<circle cx="399.7" cy="547.6" r="3" fill="#1f77b4"/>
<circle cx="403.2" cy="548.1" r="3" fill="#1f77b4"/>
<circle cx="406.8" cy="550.1" r="3" fill="#1f77b4"/>
<circle cx="410.3" cy="551.0" r="3" fill="#1f77b4"/>
<circle cx="413.8" cy="551.7" r="3" fill="#1f77b4"/>
<circle cx="417.4" cy="548.9" r="3" fill="#1f77b4"/>
<circle cx="420.9" cy="554.0" r="3" fill="#1f77b4"/>
<circle cx="424.5" cy="555.5" r="3" fill="#1f77b4"/>
<circle cx="428.0" cy="551.5" r="3" fill="#1f77b4"/>
<circle cx="431.6" cy="548.0" r="3" fill="#1f77b4"/>
<circle cx="435.1" cy="557.8" r="3" fill="#1f77b4"/>
<circle cx="438.6" cy="554.7" r="3" fill="#1f77b4"/>
<circle cx="442.2" cy="557.0" r="3" fill="#1f77b4"/>
<circle cx="445.7" cy="560.7" r="3" fill="#1f77b4"/>
<circle cx="449.3" cy="555.9" r="3" fill="#1f77b4"/>
<circle cx="452.8" cy="559.8" r="3" fill="#1f77b4"/>
<circle cx="456.4" cy="558.9" r="3" fill="#1f77b4"/>
<circle cx="459.9" cy="553.3" r="3" fill="#1f77b4"/>
<circle cx="463.4" cy="548.0" r="3" fill="#1f77b4"/>
<circle cx="467.0" cy="556.0" r="3" fill="#1f77b4"/>
<circle cx="470.5" cy="556.4" r="3" fill="#1f77b4"/>
<circle cx="474.1" cy="563.4" r="3" fill="#1f77b4"/>
<circle cx="477.6" cy="562.4" r="3" fill="#1f77b4"/>
<circle cx="481.2" cy="562.6" r="3" fill="#1f77b4"/>
<circle cx="484.7" cy="563.8" r="3" fill="#1f77b4"/>
<circle cx="488.2" cy="554.6" r="3" fill="#1f77b4"/>
<circle cx="491.8" cy="558.1" r="3" fill="#1f77b4"/>
<circle cx="495.3" cy="554.2" r="3" fill="#1f77b4"/>
<circle cx="498.9" cy="554.4" r="3" fill="#1f77b4"/>
<circle cx="502.4" cy="538.7" r="3" fill="#1f77b4"/>
<circle cx="506.0" cy="545.3" r="3" fill="#1f77b4"/>
<circle cx="509.5" cy="545.9" r="3" fill="#1f77b4"/>
<circle cx="513.0" cy="543.7" r="3" fill="#1f77b4"/>
<circle cx="516.6" cy="545.3" r="3" fill="#1f77b4"/>
<circle cx="520.1" cy="545.8" r="3" fill="#1f77b4"/>
<circle cx="523.7" cy="548.3" r="3" fill="#1f77b4"/>
<circle cx="527.2" cy="555.0" r="3" fill="#1f77b4"/>
<circle cx="530.8" cy="562.0" r="3" fill="#1f77b4"/>
<circle cx="534.3" cy="559.5" r="3" fill="#1f77b4"/>
<circle cx="537.8" cy="554.1" r="3" fill="#1f77b4"/>
<circle cx="541.4" cy="557.3" r="3" fill="#1f77b4"/>
<circle cx="544.9" cy="556.8" r="3" fill="#1f77b4"/>
<circle cx="548.5" cy="559.7" r="3" fill="#1f77b4"/>
<circle cx="552.0" cy="554.3" r="3" fill="#1f77b4"/>
<circle cx="555.6" cy="555.4" r="3" fill="#1f77b4"/>
<circle cx="559.1" cy="550.0" r="3" fill="#1f77b4"/>
<circle cx="562.6" cy="545.5" r="3" fill="#1f77b4"/>
<circle cx="566.2" cy="544.8" r="3" fill="#1f77b4"/>
<circle cx="569.7" cy="545.0" r="3" fill="#1f77b4"/>
<circle cx="573.3" cy="551.1" r="3" fill="#1f77b4"/>
<circle cx="576.8" cy="548.6" r="3" fill="#1f77b4"/>
<circle cx="580.4" cy="545.8" r="3" fill="#1f77b4"/>
<circle cx="583.9" cy="551.3" r="3" fill="#1f77b4"/>
<circle cx="587.4" cy="544.6" r="3" fill="#1f77b4"/>
<circle cx="591.0" cy="559.8" r="3" fill="#1f77b4"/>
<circle cx="594.5" cy="552.4" r="3" fill="#1f77b4"/>
<circle cx="598.1" cy="556.9" r="3" fill="#1f77b4"/>
<circle cx="601.6" cy="559.2" r="3" fill="#1f77b4"/>
<circle cx="605.2" cy="558.9" r="3" fill="#1f77b4"/>
<circle cx="608.7" cy="557.6" r="3" fill="#1f77b4"/>
<circle cx="612.2" cy="551.3" r="3" fill="#1f77b4"/>
<circle cx="615.8" cy="548.4" r="3" fill="#1f77b4"/>
<circle cx="619.3" cy="557.0" r="3" fill="#1f77b4"/>
<circle cx="622.9" cy="558.0" r="3" fill="#1f77b4"/>
<circle cx="626.4" cy="552.2" r="3" fill="#1f77b4"/>
<circle cx="629.9" cy="545.1" r="3" fill="#1f77b4"/>
<circle cx="633.5" cy="549.7" r="3" fill="#1f77b4"/>
<circle cx="637.0" cy="558.2" r="3" fill="#1f77b4"/>
<circle cx="640.6" cy="554.6" r="3" fill="#1f77b4"/>
<circle cx="644.1" cy="552.7" r="3" fill="#1f77b4"/>
<circle cx="647.7" cy="551.3" r="3" fill="#1f77b4"/>
<circle cx="651.2" cy="554.5" r="3" fill="#1f77b4"/>
<circle cx="654.7" cy="548.3" r="3" fill="#1f77b4"/>
<circle cx="658.3" cy="556.4" r="3" fill="#1f77b4"/>
<circle cx="661.8" cy="553.7" r="3" fill="#1f77b4"/>
<circle cx="665.4" cy="554.1" r="3" fill="#1f77b4"/>
<circle cx="668.9" cy="553.1" r="3" fill="#1f77b4"/>
<circle cx="672.5" cy="556.6" r="3" fill="#1f77b4"/>
<circle cx="676.0" cy="554.2" r="3" fill="#1f77b4"/>
<circle cx="679.5" cy="550.9" r="3" fill="#1f77b4"/>
<circle cx="683.1" cy="549.4" r="3" fill="#1f77b4"/>
<circle cx="686.6" cy="552.4" r="3" fill="#1f77b4"/>
<circle cx="690.2" cy="544.6" r="3" fill="#1f77b4"/>
<circle cx="693.7" cy="545.0" r="3" fill="#1f77b4"/>
<circle cx="697.3" cy="551.8" r="3" fill="#1f77b4"/>
<circle cx="700.8" cy="547.8" r="3" fill="#1f77b4"/>
<circle cx="704.3" cy="546.9" r="3" fill="#1f77b4"/>
<circle cx="707.9" cy="547.1" r="3" fill="#1f77b4"/>
<circle cx="711.4" cy="547.7" r="3" fill="#1f77b4"/>
<circle cx="715.0" cy="541.9" r="3" fill="#1f77b4"/>
<circle cx="718.5" cy="544.9" r="3" fill="#1f77b4"/>
<circle cx="722.1" cy="547.3" r="3" fill="#1f77b4"/>
<circle cx="725.6" cy="546.2" r="3" fill="#1f77b4"/>
<circle cx="729.1" cy="552.2" r="3" fill="#1f77b4"/>
<circle cx="732.7" cy="554.5" r="3" fill="#1f77b4"/>
<circle cx="736.2" cy="554.2" r="3" fill="#1f77b4"/>
<circle cx="739.8" cy="553.9" r="3" fill="#1f77b4"/>
<circle cx="743.3" cy="555.0" r="3" fill="#1f77b4"/>
<circle cx="746.9" cy="550.2" r="3" fill="#1f77b4"/>
<circle cx="750.4" cy="548.5" r="3" fill="#1f77b4"/>
<circle cx="753.9" cy="553.3" r="3" fill="#1f77b4"/>
<circle cx="757.5" cy="558.8" r="3" fill="#1f77b4"/>
<circle cx="761.0" cy="563.7" r="3" fill="#1f77b4"/>
<circle cx="764.6" cy="563.1" r="3" fill="#1f77b4"/>
<circle cx="768.1" cy="564.0" r="3" fill="#1f77b4"/>
<circle cx="771.7" cy="563.1" r="3" fill="#1f77b4"/>
<circle cx="775.2" cy="559.9" r="3" fill="#1f77b4"/>
<circle cx="778.7" cy="560.8" r="3" fill="#1f77b4"/>
<circle cx="782.3" cy="552.5" r="3" fill="#1f77b4"/>
<line x1="828" y1="96" x2="850" y2="96" stroke="#1f77b4" stroke-width="2.5"/>
<text x="858" y="100" font-family="Arial" font-size="13">GRPO-Clip (e2/tb256)</text>
<polyline fill="none" stroke="#d62728" stroke-width="2.3" points="95.0,453.8 98.5,479.7 102.1,469.9 105.6,459.8 109.2,469.4 112.7,486.3 116.3,504.2 119.8,508.3 123.3,486.4 126.9,493.9 130.4,463.1 134.0,458.5 137.5,460.6 141.1,456.9 144.6,486.3 148.1,490.2 151.7,486.6 155.2,486.0 158.8,486.2 162.3,462.4 165.9,443.9 169.4,457.9 172.9,465.5 176.5,467.8 180.0,473.7 183.6,470.2 187.1,487.7 190.7,484.9 194.2,480.7 197.7,481.1 201.3,485.6 204.8,491.2 208.4,490.9 211.9,504.3 215.5,494.9 219.0,506.1 222.5,508.7 226.1,505.6 229.6,514.6 233.2,512.8 236.7,520.2 240.3,529.4 243.8,531.1 247.3,536.5 250.9,542.6 254.4,545.7 258.0,544.8 261.5,546.6 265.1,551.1 268.6,550.9 272.1,550.3 275.7,551.1 279.2,553.7 282.8,556.5 286.3,554.9 289.8,560.5 293.4,562.4 296.9,562.7 300.5,564.1 304.0,564.7 307.6,565.2 311.1,565.1 314.6,564.9 318.2,566.0 321.7,564.3 325.3,566.8 328.8,561.6 332.4,542.2 335.9,539.4 339.4,564.2 343.0,565.9 346.5,565.0 350.1,547.8 353.6,562.8 357.2,557.2 360.7,467.2 364.2,168.4 367.8,88.5 371.3,265.4 374.9,437.0 378.4,561.4 382.0,551.7 385.5,564.2 389.0,561.2 392.6,560.5 396.1,556.5 399.7,556.2 403.2,555.4 406.8,545.3 410.3,553.9 413.8,543.9 417.4,539.0 420.9,550.9 424.5,552.9 428.0,554.5 431.6,551.3 435.1,551.7 438.6,548.1 442.2,548.5 445.7,550.2 449.3,554.3 452.8,556.5 456.4,553.2 459.9,553.9 463.4,555.3 467.0,553.6 470.5,554.4 474.1,556.9 477.6,555.4 481.2,558.3 484.7,555.2 488.2,555.0 491.8,551.4 495.3,553.5 498.9,556.0 502.4,552.3 506.0,554.3 509.5,557.8 513.0,554.6 516.6,553.0 520.1,549.4 523.7,551.5 527.2,548.6 530.8,547.7 534.3,549.0 537.8,549.9 541.4,554.7 544.9,544.6 548.5,544.0 552.0,545.7 555.6,544.6 559.1,548.5 562.6,546.8 566.2,549.1 569.7,548.5 573.3,553.6 576.8,546.9 580.4,546.7 583.9,550.8 587.4,549.9 591.0,547.2 594.5,548.9 598.1,548.0 601.6,547.2 605.2,545.6 608.7,538.0 612.2,546.1 615.8,536.5 619.3,536.1 622.9,530.6 626.4,528.6 629.9,537.4 633.5,538.2 637.0,531.8 640.6,535.8 644.1,539.4 647.7,543.3 651.2,536.2 654.7,541.1 658.3,537.1 661.8,544.3 665.4,537.8 668.9,540.5 672.5,539.5 676.0,544.7 679.5,541.5 683.1,547.5 686.6,549.0 690.2,547.0 693.7,545.3 697.3,550.5 700.8,546.0 704.3,544.7 707.9,543.9 711.4,548.3 715.0,549.0 718.5,553.0 722.1,555.6 725.6,553.8 729.1,551.1 732.7,551.7 736.2,554.8 739.8,551.7 743.3,546.5 746.9,547.4 750.4,547.7 753.9,549.1 757.5,544.7 761.0,548.3 764.6,548.8 768.1,543.8 771.7,544.9 775.2,544.5 778.7,550.0 782.3,551.1 785.8,548.2 789.4,544.2 792.9,549.4 796.5,548.5 800.0,542.2"/>
<circle cx="95.0" cy="453.8" r="3" fill="#d62728"/>
<circle cx="98.5" cy="479.7" r="3" fill="#d62728"/>
<circle cx="102.1" cy="469.9" r="3" fill="#d62728"/>
<circle cx="105.6" cy="459.8" r="3" fill="#d62728"/>
<circle cx="109.2" cy="469.4" r="3" fill="#d62728"/>
<circle cx="112.7" cy="486.3" r="3" fill="#d62728"/>
<circle cx="116.3" cy="504.2" r="3" fill="#d62728"/>
<circle cx="119.8" cy="508.3" r="3" fill="#d62728"/>
<circle cx="123.3" cy="486.4" r="3" fill="#d62728"/>
<circle cx="126.9" cy="493.9" r="3" fill="#d62728"/>
<circle cx="130.4" cy="463.1" r="3" fill="#d62728"/>
<circle cx="134.0" cy="458.5" r="3" fill="#d62728"/>
<circle cx="137.5" cy="460.6" r="3" fill="#d62728"/>
<circle cx="141.1" cy="456.9" r="3" fill="#d62728"/>
<circle cx="144.6" cy="486.3" r="3" fill="#d62728"/>
<circle cx="148.1" cy="490.2" r="3" fill="#d62728"/>
<circle cx="151.7" cy="486.6" r="3" fill="#d62728"/>
<circle cx="155.2" cy="486.0" r="3" fill="#d62728"/>
<circle cx="158.8" cy="486.2" r="3" fill="#d62728"/>
<circle cx="162.3" cy="462.4" r="3" fill="#d62728"/>
<circle cx="165.9" cy="443.9" r="3" fill="#d62728"/>
<circle cx="169.4" cy="457.9" r="3" fill="#d62728"/>
<circle cx="172.9" cy="465.5" r="3" fill="#d62728"/>
<circle cx="176.5" cy="467.8" r="3" fill="#d62728"/>
<circle cx="180.0" cy="473.7" r="3" fill="#d62728"/>
<circle cx="183.6" cy="470.2" r="3" fill="#d62728"/>
<circle cx="187.1" cy="487.7" r="3" fill="#d62728"/>
<circle cx="190.7" cy="484.9" r="3" fill="#d62728"/>
<circle cx="194.2" cy="480.7" r="3" fill="#d62728"/>
<circle cx="197.7" cy="481.1" r="3" fill="#d62728"/>
<circle cx="201.3" cy="485.6" r="3" fill="#d62728"/>
<circle cx="204.8" cy="491.2" r="3" fill="#d62728"/>
<circle cx="208.4" cy="490.9" r="3" fill="#d62728"/>
<circle cx="211.9" cy="504.3" r="3" fill="#d62728"/>
<circle cx="215.5" cy="494.9" r="3" fill="#d62728"/>
<circle cx="219.0" cy="506.1" r="3" fill="#d62728"/>
<circle cx="222.5" cy="508.7" r="3" fill="#d62728"/>
<circle cx="226.1" cy="505.6" r="3" fill="#d62728"/>
<circle cx="229.6" cy="514.6" r="3" fill="#d62728"/>
<circle cx="233.2" cy="512.8" r="3" fill="#d62728"/>
<circle cx="236.7" cy="520.2" r="3" fill="#d62728"/>
<circle cx="240.3" cy="529.4" r="3" fill="#d62728"/>
<circle cx="243.8" cy="531.1" r="3" fill="#d62728"/>
<circle cx="247.3" cy="536.5" r="3" fill="#d62728"/>
<circle cx="250.9" cy="542.6" r="3" fill="#d62728"/>
<circle cx="254.4" cy="545.7" r="3" fill="#d62728"/>
<circle cx="258.0" cy="544.8" r="3" fill="#d62728"/>
<circle cx="261.5" cy="546.6" r="3" fill="#d62728"/>
<circle cx="265.1" cy="551.1" r="3" fill="#d62728"/>
<circle cx="268.6" cy="550.9" r="3" fill="#d62728"/>
<circle cx="272.1" cy="550.3" r="3" fill="#d62728"/>
<circle cx="275.7" cy="551.1" r="3" fill="#d62728"/>
<circle cx="279.2" cy="553.7" r="3" fill="#d62728"/>
<circle cx="282.8" cy="556.5" r="3" fill="#d62728"/>
<circle cx="286.3" cy="554.9" r="3" fill="#d62728"/>
<circle cx="289.8" cy="560.5" r="3" fill="#d62728"/>
<circle cx="293.4" cy="562.4" r="3" fill="#d62728"/>
<circle cx="296.9" cy="562.7" r="3" fill="#d62728"/>
<circle cx="300.5" cy="564.1" r="3" fill="#d62728"/>
<circle cx="304.0" cy="564.7" r="3" fill="#d62728"/>
<circle cx="307.6" cy="565.2" r="3" fill="#d62728"/>
<circle cx="311.1" cy="565.1" r="3" fill="#d62728"/>
<circle cx="314.6" cy="564.9" r="3" fill="#d62728"/>
<circle cx="318.2" cy="566.0" r="3" fill="#d62728"/>
<circle cx="321.7" cy="564.3" r="3" fill="#d62728"/>
<circle cx="325.3" cy="566.8" r="3" fill="#d62728"/>
<circle cx="328.8" cy="561.6" r="3" fill="#d62728"/>
<circle cx="332.4" cy="542.2" r="3" fill="#d62728"/>
<circle cx="335.9" cy="539.4" r="3" fill="#d62728"/>
<circle cx="339.4" cy="564.2" r="3" fill="#d62728"/>
<circle cx="343.0" cy="565.9" r="3" fill="#d62728"/>
<circle cx="346.5" cy="565.0" r="3" fill="#d62728"/>
<circle cx="350.1" cy="547.8" r="3" fill="#d62728"/>
<circle cx="353.6" cy="562.8" r="3" fill="#d62728"/>
<circle cx="357.2" cy="557.2" r="3" fill="#d62728"/>
<circle cx="360.7" cy="467.2" r="3" fill="#d62728"/>
<circle cx="364.2" cy="168.4" r="3" fill="#d62728"/>
<circle cx="367.8" cy="88.5" r="3" fill="#d62728"/>
<circle cx="371.3" cy="265.4" r="3" fill="#d62728"/>
<circle cx="374.9" cy="437.0" r="3" fill="#d62728"/>
<circle cx="378.4" cy="561.4" r="3" fill="#d62728"/>
<circle cx="382.0" cy="551.7" r="3" fill="#d62728"/>
<circle cx="385.5" cy="564.2" r="3" fill="#d62728"/>
<circle cx="389.0" cy="561.2" r="3" fill="#d62728"/>
<circle cx="392.6" cy="560.5" r="3" fill="#d62728"/>
<circle cx="396.1" cy="556.5" r="3" fill="#d62728"/>
<circle cx="399.7" cy="556.2" r="3" fill="#d62728"/>
<circle cx="403.2" cy="555.4" r="3" fill="#d62728"/>
<circle cx="406.8" cy="545.3" r="3" fill="#d62728"/>
<circle cx="410.3" cy="553.9" r="3" fill="#d62728"/>
<circle cx="413.8" cy="543.9" r="3" fill="#d62728"/>
<circle cx="417.4" cy="539.0" r="3" fill="#d62728"/>
<circle cx="420.9" cy="550.9" r="3" fill="#d62728"/>
<circle cx="424.5" cy="552.9" r="3" fill="#d62728"/>
<circle cx="428.0" cy="554.5" r="3" fill="#d62728"/>
<circle cx="431.6" cy="551.3" r="3" fill="#d62728"/>
<circle cx="435.1" cy="551.7" r="3" fill="#d62728"/>
<circle cx="438.6" cy="548.1" r="3" fill="#d62728"/>
<circle cx="442.2" cy="548.5" r="3" fill="#d62728"/>
<circle cx="445.7" cy="550.2" r="3" fill="#d62728"/>
<circle cx="449.3" cy="554.3" r="3" fill="#d62728"/>
<circle cx="452.8" cy="556.5" r="3" fill="#d62728"/>
<circle cx="456.4" cy="553.2" r="3" fill="#d62728"/>
<circle cx="459.9" cy="553.9" r="3" fill="#d62728"/>
<circle cx="463.4" cy="555.3" r="3" fill="#d62728"/>
<circle cx="467.0" cy="553.6" r="3" fill="#d62728"/>
<circle cx="470.5" cy="554.4" r="3" fill="#d62728"/>
<circle cx="474.1" cy="556.9" r="3" fill="#d62728"/>
<circle cx="477.6" cy="555.4" r="3" fill="#d62728"/>
<circle cx="481.2" cy="558.3" r="3" fill="#d62728"/>
<circle cx="484.7" cy="555.2" r="3" fill="#d62728"/>
<circle cx="488.2" cy="555.0" r="3" fill="#d62728"/>
<circle cx="491.8" cy="551.4" r="3" fill="#d62728"/>
<circle cx="495.3" cy="553.5" r="3" fill="#d62728"/>
<circle cx="498.9" cy="556.0" r="3" fill="#d62728"/>
<circle cx="502.4" cy="552.3" r="3" fill="#d62728"/>
<circle cx="506.0" cy="554.3" r="3" fill="#d62728"/>
<circle cx="509.5" cy="557.8" r="3" fill="#d62728"/>
<circle cx="513.0" cy="554.6" r="3" fill="#d62728"/>
<circle cx="516.6" cy="553.0" r="3" fill="#d62728"/>
<circle cx="520.1" cy="549.4" r="3" fill="#d62728"/>
<circle cx="523.7" cy="551.5" r="3" fill="#d62728"/>
<circle cx="527.2" cy="548.6" r="3" fill="#d62728"/>
<circle cx="530.8" cy="547.7" r="3" fill="#d62728"/>
<circle cx="534.3" cy="549.0" r="3" fill="#d62728"/>
<circle cx="537.8" cy="549.9" r="3" fill="#d62728"/>
<circle cx="541.4" cy="554.7" r="3" fill="#d62728"/>
<circle cx="544.9" cy="544.6" r="3" fill="#d62728"/>
<circle cx="548.5" cy="544.0" r="3" fill="#d62728"/>
<circle cx="552.0" cy="545.7" r="3" fill="#d62728"/>
<circle cx="555.6" cy="544.6" r="3" fill="#d62728"/>
<circle cx="559.1" cy="548.5" r="3" fill="#d62728"/>
<circle cx="562.6" cy="546.8" r="3" fill="#d62728"/>
<circle cx="566.2" cy="549.1" r="3" fill="#d62728"/>
<circle cx="569.7" cy="548.5" r="3" fill="#d62728"/>
<circle cx="573.3" cy="553.6" r="3" fill="#d62728"/>
<circle cx="576.8" cy="546.9" r="3" fill="#d62728"/>
<circle cx="580.4" cy="546.7" r="3" fill="#d62728"/>
<circle cx="583.9" cy="550.8" r="3" fill="#d62728"/>
<circle cx="587.4" cy="549.9" r="3" fill="#d62728"/>
<circle cx="591.0" cy="547.2" r="3" fill="#d62728"/>
<circle cx="594.5" cy="548.9" r="3" fill="#d62728"/>
<circle cx="598.1" cy="548.0" r="3" fill="#d62728"/>
<circle cx="601.6" cy="547.2" r="3" fill="#d62728"/>
<circle cx="605.2" cy="545.6" r="3" fill="#d62728"/>
<circle cx="608.7" cy="538.0" r="3" fill="#d62728"/>
<circle cx="612.2" cy="546.1" r="3" fill="#d62728"/>
<circle cx="615.8" cy="536.5" r="3" fill="#d62728"/>
<circle cx="619.3" cy="536.1" r="3" fill="#d62728"/>
<circle cx="622.9" cy="530.6" r="3" fill="#d62728"/>
<circle cx="626.4" cy="528.6" r="3" fill="#d62728"/>
<circle cx="629.9" cy="537.4" r="3" fill="#d62728"/>
<circle cx="633.5" cy="538.2" r="3" fill="#d62728"/>
<circle cx="637.0" cy="531.8" r="3" fill="#d62728"/>
<circle cx="640.6" cy="535.8" r="3" fill="#d62728"/>
<circle cx="644.1" cy="539.4" r="3" fill="#d62728"/>
<circle cx="647.7" cy="543.3" r="3" fill="#d62728"/>
<circle cx="651.2" cy="536.2" r="3" fill="#d62728"/>
<circle cx="654.7" cy="541.1" r="3" fill="#d62728"/>
<circle cx="658.3" cy="537.1" r="3" fill="#d62728"/>
<circle cx="661.8" cy="544.3" r="3" fill="#d62728"/>
<circle cx="665.4" cy="537.8" r="3" fill="#d62728"/>
<circle cx="668.9" cy="540.5" r="3" fill="#d62728"/>
<circle cx="672.5" cy="539.5" r="3" fill="#d62728"/>
<circle cx="676.0" cy="544.7" r="3" fill="#d62728"/>
<circle cx="679.5" cy="541.5" r="3" fill="#d62728"/>
<circle cx="683.1" cy="547.5" r="3" fill="#d62728"/>
<circle cx="686.6" cy="549.0" r="3" fill="#d62728"/>
<circle cx="690.2" cy="547.0" r="3" fill="#d62728"/>
<circle cx="693.7" cy="545.3" r="3" fill="#d62728"/>
<circle cx="697.3" cy="550.5" r="3" fill="#d62728"/>
<circle cx="700.8" cy="546.0" r="3" fill="#d62728"/>
<circle cx="704.3" cy="544.7" r="3" fill="#d62728"/>
<circle cx="707.9" cy="543.9" r="3" fill="#d62728"/>
<circle cx="711.4" cy="548.3" r="3" fill="#d62728"/>
<circle cx="715.0" cy="549.0" r="3" fill="#d62728"/>
<circle cx="718.5" cy="553.0" r="3" fill="#d62728"/>
<circle cx="722.1" cy="555.6" r="3" fill="#d62728"/>
<circle cx="725.6" cy="553.8" r="3" fill="#d62728"/>
<circle cx="729.1" cy="551.1" r="3" fill="#d62728"/>
<circle cx="732.7" cy="551.7" r="3" fill="#d62728"/>
<circle cx="736.2" cy="554.8" r="3" fill="#d62728"/>
<circle cx="739.8" cy="551.7" r="3" fill="#d62728"/>
<circle cx="743.3" cy="546.5" r="3" fill="#d62728"/>
<circle cx="746.9" cy="547.4" r="3" fill="#d62728"/>
<circle cx="750.4" cy="547.7" r="3" fill="#d62728"/>
<circle cx="753.9" cy="549.1" r="3" fill="#d62728"/>
<circle cx="757.5" cy="544.7" r="3" fill="#d62728"/>
<circle cx="761.0" cy="548.3" r="3" fill="#d62728"/>
<circle cx="764.6" cy="548.8" r="3" fill="#d62728"/>
<circle cx="768.1" cy="543.8" r="3" fill="#d62728"/>
<circle cx="771.7" cy="544.9" r="3" fill="#d62728"/>
<circle cx="775.2" cy="544.5" r="3" fill="#d62728"/>
<circle cx="778.7" cy="550.0" r="3" fill="#d62728"/>
<circle cx="782.3" cy="551.1" r="3" fill="#d62728"/>
<circle cx="785.8" cy="548.2" r="3" fill="#d62728"/>
<circle cx="789.4" cy="544.2" r="3" fill="#d62728"/>
<circle cx="792.9" cy="549.4" r="3" fill="#d62728"/>
<circle cx="796.5" cy="548.5" r="3" fill="#d62728"/>
<circle cx="800.0" cy="542.2" r="3" fill="#d62728"/>
<line x1="828" y1="120" x2="850" y2="120" stroke="#d62728" stroke-width="2.5"/>
<text x="858" y="124" font-family="Arial" font-size="13">GRPO-No-Clip (e2/tb256)</text>
<text x="447.5" y="638" text-anchor="middle" font-family="Arial" font-size="15">GRPO step</text>
<text x="24" y="326.0" text-anchor="middle" font-family="Arial" font-size="15" transform="rotate(-90 24 326.0)">Token entropy (nats)</text>
</svg>
