<svg xmlns="http://www.w3.org/2000/svg" width="1100" height="660" viewBox="0 0 1100 660">
<rect width="100%" height="100%" fill="white"/>
<text x="550.0" y="36" text-anchor="middle" font-family="Arial" font-size="22" font-weight="700">Off-policy clip ablation: validation answer reward</text>
<line x1="95" y1="578" x2="800" y2="578" stroke="#222" stroke-width="1.5"/>
<line x1="95" y1="74" x2="95" y2="578" stroke="#222" stroke-width="1.5"/>
<line x1="90" y1="578.0" x2="800" y2="578.0" stroke="#ddd" stroke-width="1"/>
<text x="83" y="582.0" text-anchor="end" font-family="Arial" font-size="12">0.00%</text>
<line x1="90" y1="477.2" x2="800" y2="477.2" stroke="#ddd" stroke-width="1"/>
<text x="83" y="481.2" text-anchor="end" font-family="Arial" font-size="12">17.00%</text>
<line x1="90" y1="376.4" x2="800" y2="376.4" stroke="#ddd" stroke-width="1"/>
<text x="83" y="380.4" text-anchor="end" font-family="Arial" font-size="12">34.00%</text>
<line x1="90" y1="275.6" x2="800" y2="275.6" stroke="#ddd" stroke-width="1"/>
<text x="83" y="279.6" text-anchor="end" font-family="Arial" font-size="12">51.00%</text>
<line x1="90" y1="174.8" x2="800" y2="174.8" stroke="#ddd" stroke-width="1"/>
<text x="83" y="178.8" text-anchor="end" font-family="Arial" font-size="12">68.00%</text>
<line x1="90" y1="74.0" x2="800" y2="74.0" stroke="#ddd" stroke-width="1"/>
<text x="83" y="78.0" text-anchor="end" font-family="Arial" font-size="12">85.00%</text>
<line x1="95.0" y1="578" x2="95.0" y2="583" stroke="#222" stroke-width="1"/>
<text x="95.0" y="602" text-anchor="middle" font-family="Arial" font-size="12">0</text>
<line x1="236.0" y1="578" x2="236.0" y2="583" stroke="#222" stroke-width="1"/>
<text x="236.0" y="602" text-anchor="middle" font-family="Arial" font-size="12">40</text>
<line x1="377.0" y1="578" x2="377.0" y2="583" stroke="#222" stroke-width="1"/>
<text x="377.0" y="602" text-anchor="middle" font-family="Arial" font-size="12">80</text>
<line x1="518.0" y1="578" x2="518.0" y2="583" stroke="#222" stroke-width="1"/>
<text x="518.0" y="602" text-anchor="middle" font-family="Arial" font-size="12">120</text>
<line x1="659.0" y1="578" x2="659.0" y2="583" stroke="#222" stroke-width="1"/>
<text x="659.0" y="602" text-anchor="middle" font-family="Arial" font-size="12">160</text>
<line x1="800.0" y1="578" x2="800.0" y2="583" stroke="#222" stroke-width="1"/>
<text x="800.0" y="602" text-anchor="middle" font-family="Arial" font-size="12">200</text>
<polyline fill="none" stroke="#1f77b4" stroke-width="2.3" points="95.0,555.4 112.6,481.9 130.2,455.2 147.9,467.4 165.5,425.1 183.1,429.2 200.8,413.6 218.4,408.3 236.0,413.6 253.6,395.6 271.2,395.0 288.9,391.0 306.5,389.8 324.1,374.2 341.8,389.2 359.4,383.4 377.0,409.5 394.6,387.5 412.2,378.2 429.9,382.9 447.5,388.7 465.1,382.9 482.8,387.5 500.4,399.1 518.0,403.1 535.6,395.0 553.2,407.2 570.9,410.1 588.5,415.9 606.1,415.9 623.8,403.7 641.4,404.3 659.0,407.8 676.6,398.5 694.2,407.8 711.9,398.5 729.5,394.4 747.1,399.7 764.8,387.5 782.4,578.0 800.0,578.0"/>
<circle cx="95.0" cy="555.4" r="3" fill="#1f77b4"/>
<circle cx="112.6" cy="481.9" r="3" fill="#1f77b4"/>
<circle cx="130.2" cy="455.2" r="3" fill="#1f77b4"/>
<circle cx="147.9" cy="467.4" r="3" fill="#1f77b4"/>
<circle cx="165.5" cy="425.1" r="3" fill="#1f77b4"/>
<circle cx="183.1" cy="429.2" r="3" fill="#1f77b4"/>
<circle cx="200.8" cy="413.6" r="3" fill="#1f77b4"/>
<circle cx="218.4" cy="408.3" r="3" fill="#1f77b4"/>
<circle cx="236.0" cy="413.6" r="3" fill="#1f77b4"/>
<circle cx="253.6" cy="395.6" r="3" fill="#1f77b4"/>
<circle cx="271.2" cy="395.0" r="3" fill="#1f77b4"/>
<circle cx="288.9" cy="391.0" r="3" fill="#1f77b4"/>
<circle cx="306.5" cy="389.8" r="3" fill="#1f77b4"/>
<circle cx="324.1" cy="374.2" r="3" fill="#1f77b4"/>
<circle cx="341.8" cy="389.2" r="3" fill="#1f77b4"/>
<circle cx="359.4" cy="383.4" r="3" fill="#1f77b4"/>
<circle cx="377.0" cy="409.5" r="3" fill="#1f77b4"/>
<circle cx="394.6" cy="387.5" r="3" fill="#1f77b4"/>
<circle cx="412.2" cy="378.2" r="3" fill="#1f77b4"/>
<circle cx="429.9" cy="382.9" r="3" fill="#1f77b4"/>
<circle cx="447.5" cy="388.7" r="3" fill="#1f77b4"/>
<circle cx="465.1" cy="382.9" r="3" fill="#1f77b4"/>
<circle cx="482.8" cy="387.5" r="3" fill="#1f77b4"/>
<circle cx="500.4" cy="399.1" r="3" fill="#1f77b4"/>
<circle cx="518.0" cy="403.1" r="3" fill="#1f77b4"/>
<circle cx="535.6" cy="395.0" r="3" fill="#1f77b4"/>
<circle cx="553.2" cy="407.2" r="3" fill="#1f77b4"/>
<circle cx="570.9" cy="410.1" r="3" fill="#1f77b4"/>
<circle cx="588.5" cy="415.9" r="3" fill="#1f77b4"/>
<circle cx="606.1" cy="415.9" r="3" fill="#1f77b4"/>
<circle cx="623.8" cy="403.7" r="3" fill="#1f77b4"/>
<circle cx="641.4" cy="404.3" r="3" fill="#1f77b4"/>
<circle cx="659.0" cy="407.8" r="3" fill="#1f77b4"/>
<circle cx="676.6" cy="398.5" r="3" fill="#1f77b4"/>
<circle cx="694.2" cy="407.8" r="3" fill="#1f77b4"/>
<circle cx="711.9" cy="398.5" r="3" fill="#1f77b4"/>
<circle cx="729.5" cy="394.4" r="3" fill="#1f77b4"/>
<circle cx="747.1" cy="399.7" r="3" fill="#1f77b4"/>
<circle cx="764.8" cy="387.5" r="3" fill="#1f77b4"/>
<circle cx="782.4" cy="578.0" r="3" fill="#1f77b4"/>
<circle cx="800.0" cy="578.0" r="3" fill="#1f77b4"/>
<line x1="828" y1="96" x2="850" y2="96" stroke="#1f77b4" stroke-width="2.5"/>
<text x="858" y="100" font-family="Arial" font-size="13">GRPO-Clip (e2/tb256)</text>
<polyline fill="none" stroke="#d62728" stroke-width="2.3" points="95.0,555.4 112.6,482.5 130.2,468.6 147.9,469.1 165.5,454.1 183.1,450.6 200.8,444.8 218.4,420.5 236.0,410.7 253.6,328.4 271.2,267.6 288.9,270.5 306.5,253.2 324.1,208.0 341.8,195.8 359.4,186.0 377.0,179.0 394.6,180.2 412.2,183.1 429.9,176.7 447.5,175.6 465.1,159.4 482.8,150.7 500.4,151.2 518.0,152.4 535.6,144.9 553.2,131.6 570.9,137.3 588.5,127.5 606.1,142.0 623.8,128.7 641.4,125.8 659.0,144.3 676.6,128.1 694.2,131.0 711.9,133.3 729.5,132.1 747.1,121.1 764.8,118.8 782.4,113.0 800.0,114.2"/>
<circle cx="95.0" cy="555.4" r="3" fill="#d62728"/>
<circle cx="112.6" cy="482.5" r="3" fill="#d62728"/>
<circle cx="130.2" cy="468.6" r="3" fill="#d62728"/>
<circle cx="147.9" cy="469.1" r="3" fill="#d62728"/>
<circle cx="165.5" cy="454.1" r="3" fill="#d62728"/>
<circle cx="183.1" cy="450.6" r="3" fill="#d62728"/>
<circle cx="200.8" cy="444.8" r="3" fill="#d62728"/>
<circle cx="218.4" cy="420.5" r="3" fill="#d62728"/>
<circle cx="236.0" cy="410.7" r="3" fill="#d62728"/>
<circle cx="253.6" cy="328.4" r="3" fill="#d62728"/>
<circle cx="271.2" cy="267.6" r="3" fill="#d62728"/>
<circle cx="288.9" cy="270.5" r="3" fill="#d62728"/>
<circle cx="306.5" cy="253.2" r="3" fill="#d62728"/>
<circle cx="324.1" cy="208.0" r="3" fill="#d62728"/>
<circle cx="341.8" cy="195.8" r="3" fill="#d62728"/>
<circle cx="359.4" cy="186.0" r="3" fill="#d62728"/>
<circle cx="377.0" cy="179.0" r="3" fill="#d62728"/>
<circle cx="394.6" cy="180.2" r="3" fill="#d62728"/>
<circle cx="412.2" cy="183.1" r="3" fill="#d62728"/>
<circle cx="429.9" cy="176.7" r="3" fill="#d62728"/>
<circle cx="447.5" cy="175.6" r="3" fill="#d62728"/>
<circle cx="465.1" cy="159.4" r="3" fill="#d62728"/>
<circle cx="482.8" cy="150.7" r="3" fill="#d62728"/>
<circle cx="500.4" cy="151.2" r="3" fill="#d62728"/>
<circle cx="518.0" cy="152.4" r="3" fill="#d62728"/>
<circle cx="535.6" cy="144.9" r="3" fill="#d62728"/>
<circle cx="553.2" cy="131.6" r="3" fill="#d62728"/>
<circle cx="570.9" cy="137.3" r="3" fill="#d62728"/>
<circle cx="588.5" cy="127.5" r="3" fill="#d62728"/>
<circle cx="606.1" cy="142.0" r="3" fill="#d62728"/>
<circle cx="623.8" cy="128.7" r="3" fill="#d62728"/>
<circle cx="641.4" cy="125.8" r="3" fill="#d62728"/>
<circle cx="659.0" cy="144.3" r="3" fill="#d62728"/>
<circle cx="676.6" cy="128.1" r="3" fill="#d62728"/>
<circle cx="694.2" cy="131.0" r="3" fill="#d62728"/>
<circle cx="711.9" cy="133.3" r="3" fill="#d62728"/>
<circle cx="729.5" cy="132.1" r="3" fill="#d62728"/>
<circle cx="747.1" cy="121.1" r="3" fill="#d62728"/>
<circle cx="764.8" cy="118.8" r="3" fill="#d62728"/>
<circle cx="782.4" cy="113.0" r="3" fill="#d62728"/>
<circle cx="800.0" cy="114.2" r="3" fill="#d62728"/>
<line x1="828" y1="120" x2="850" y2="120" stroke="#d62728" stroke-width="2.5"/>
<text x="858" y="124" font-family="Arial" font-size="13">GRPO-No-Clip (e2/tb256)</text>
<text x="447.5" y="638" text-anchor="middle" font-family="Arial" font-size="15">GRPO step</text>
<text x="24" y="326.0" text-anchor="middle" font-family="Arial" font-size="15" transform="rotate(-90 24 326.0)">Validation answer reward</text>
</svg>
