<svg xmlns="http://www.w3.org/2000/svg" width="1100" height="660" viewBox="0 0 1100 660">
<rect width="100%" height="100%" fill="white"/>
<text x="550.0" y="36" text-anchor="middle" font-family="Arial" font-size="22" font-weight="700">Off-policy clip ablation: token entropy</text>
<line x1="95" y1="578" x2="800" y2="578" stroke="#222" stroke-width="1.5"/>
<line x1="95" y1="74" x2="95" y2="578" stroke="#222" stroke-width="1.5"/>
<line x1="90" y1="578.0" x2="800" y2="578.0" stroke="#ddd" stroke-width="1"/>
<text x="83" y="582.0" text-anchor="end" font-family="Arial" font-size="12">0.00</text>
<line x1="90" y1="477.2" x2="800" y2="477.2" stroke="#ddd" stroke-width="1"/>
<text x="83" y="481.2" text-anchor="end" font-family="Arial" font-size="12">0.14</text>
<line x1="90" y1="376.4" x2="800" y2="376.4" stroke="#ddd" stroke-width="1"/>
<text x="83" y="380.4" text-anchor="end" font-family="Arial" font-size="12">0.28</text>
<line x1="90" y1="275.6" x2="800" y2="275.6" stroke="#ddd" stroke-width="1"/>
<text x="83" y="279.6" text-anchor="end" font-family="Arial" font-size="12">0.42</text>
<line x1="90" y1="174.8" x2="800" y2="174.8" stroke="#ddd" stroke-width="1"/>
<text x="83" y="178.8" text-anchor="end" font-family="Arial" font-size="12">0.56</text>
<line x1="90" y1="74.0" x2="800" y2="74.0" stroke="#ddd" stroke-width="1"/>
<text x="83" y="78.0" text-anchor="end" font-family="Arial" font-size="12">0.70</text>
<line x1="95.0" y1="578" x2="95.0" y2="583" stroke="#222" stroke-width="1"/>
<text x="95.0" y="602" text-anchor="middle" font-family="Arial" font-size="12">1</text>
<line x1="236.0" y1="578" x2="236.0" y2="583" stroke="#222" stroke-width="1"/>
<text x="236.0" y="602" text-anchor="middle" font-family="Arial" font-size="12">41</text>
<line x1="377.0" y1="578" x2="377.0" y2="583" stroke="#222" stroke-width="1"/>
<text x="377.0" y="602" text-anchor="middle" font-family="Arial" font-size="12">81</text>
<line x1="518.0" y1="578" x2="518.0" y2="583" stroke="#222" stroke-width="1"/>
<text x="518.0" y="602" text-anchor="middle" font-family="Arial" font-size="12">120</text>
<line x1="659.0" y1="578" x2="659.0" y2="583" stroke="#222" stroke-width="1"/>
<text x="659.0" y="602" text-anchor="middle" font-family="Arial" font-size="12">160</text>
<line x1="800.0" y1="578" x2="800.0" y2="583" stroke="#222" stroke-width="1"/>
<text x="800.0" y="602" text-anchor="middle" font-family="Arial" font-size="12">200</text>
<polyline fill="none" stroke="#1f77b4" stroke-width="2.3" points="95.0,84.8 98.5,157.2 102.1,216.7 105.6,312.1 109.2,335.8 112.7,331.7 116.3,339.0 119.8,320.3 123.3,367.4 126.9,404.7 130.4,391.4 134.0,393.0 137.5,393.2 141.1,405.6 144.6,434.5 148.1,419.6 151.7,441.3 155.2,417.1 158.8,439.3 162.3,463.8 165.9,455.5 169.4,441.2 172.9,450.2 176.5,458.0 180.0,450.4 183.6,460.2 187.1,476.3 190.7,472.4 194.2,488.2 197.7,482.4 201.3,483.3 204.8,479.1 208.4,482.6 211.9,485.2 215.5,495.9 219.0,501.0 222.5,481.0 226.1,478.2 229.6,487.1 233.2,469.8 236.7,478.5 240.3,500.5 243.8,482.2 247.3,475.3 250.9,477.6 254.4,469.6 258.0,469.6 261.5,480.3 265.1,485.2 268.6,492.6 272.1,487.4 275.7,494.9 279.2,489.1 282.8,472.8 286.3,477.6 289.8,495.5 293.4,484.1 296.9,487.4 300.5,488.5 304.0,496.6 307.6,507.8 311.1,497.3 314.6,500.5 318.2,505.5 321.7,501.7 325.3,509.5 328.8,500.6 332.4,499.8 335.9,501.3 339.4,505.2 343.0,511.8 346.5,511.4 350.1,509.6 353.6,494.7 357.2,512.4 360.7,486.1 364.2,506.9 367.8,506.3 371.3,516.2 374.9,525.4 378.4,514.9 382.0,513.4 385.5,528.8 389.0,533.2 392.6,529.0 396.1,530.5 399.7,522.4 403.2,538.1 406.8,515.6 410.3,526.4 413.8,528.8 417.4,517.9 420.9,531.2 424.5,522.0 428.0,529.3 431.6,530.4 435.1,532.0 438.6,524.0 442.2,531.2 445.7,529.2 449.3,536.0 452.8,536.1 456.4,531.4 459.9,531.7 463.4,533.2 467.0,534.2 470.5,535.4 474.1,539.6 477.6,538.8 481.2,544.1 484.7,537.3 488.2,531.4 491.8,529.6 495.3,538.4 498.9,539.9 502.4,539.4 506.0,535.9 509.5,548.6 513.0,544.4 516.6,544.2 520.1,547.6 523.7,550.5 527.2,546.8 530.8,545.6 534.3,543.9 537.8,550.9 541.4,553.8 544.9,544.9 548.5,546.4 552.0,550.0 555.6,543.1 559.1,544.0 562.6,546.2 566.2,548.9 569.7,548.4 573.3,554.1 576.8,547.4 580.4,545.9 583.9,553.4 587.4,553.8 591.0,551.8 594.5,550.6 598.1,553.2 601.6,552.4 605.2,552.2 608.7,543.5 612.2,553.9 615.8,548.5 619.3,552.6 622.9,551.1 626.4,551.7 629.9,554.6 633.5,554.1 637.0,552.3 640.6,550.7 644.1,552.1 647.7,554.9 651.2,544.5 654.7,551.0 658.3,550.3 661.8,553.7 665.4,549.3 668.9,548.1 672.5,550.4 676.0,554.7 679.5,549.7 683.1,553.9 686.6,556.5 690.2,553.1 693.7,551.8 697.3,556.4 700.8,552.1 704.3,554.6 707.9,554.1 711.4,552.6 715.0,556.4 718.5,556.7 722.1,555.7 725.6,553.6 729.1,554.2 732.7,554.5 736.2,557.0 739.8,556.1 743.3,552.2 746.9,551.9 750.4,554.0 753.9,555.7 757.5,553.3 761.0,557.3 764.6,557.3 768.1,555.4 771.7,556.0 775.2,553.5 778.7,557.3 782.3,561.1 785.8,560.3 789.4,554.3 792.9,560.6 796.5,557.9 800.0,554.3"/>
<circle cx="95.0" cy="84.8" r="3" fill="#1f77b4"/>
<circle cx="98.5" cy="157.2" r="3" fill="#1f77b4"/>
<circle cx="102.1" cy="216.7" r="3" fill="#1f77b4"/>
<circle cx="105.6" cy="312.1" r="3" fill="#1f77b4"/>
<circle cx="109.2" cy="335.8" r="3" fill="#1f77b4"/>
<circle cx="112.7" cy="331.7" r="3" fill="#1f77b4"/>
<circle cx="116.3" cy="339.0" r="3" fill="#1f77b4"/>
<circle cx="119.8" cy="320.3" r="3" fill="#1f77b4"/>
<circle cx="123.3" cy="367.4" r="3" fill="#1f77b4"/>
<circle cx="126.9" cy="404.7" r="3" fill="#1f77b4"/>
<circle cx="130.4" cy="391.4" r="3" fill="#1f77b4"/>
<circle cx="134.0" cy="393.0" r="3" fill="#1f77b4"/>
<circle cx="137.5" cy="393.2" r="3" fill="#1f77b4"/>
<circle cx="141.1" cy="405.6" r="3" fill="#1f77b4"/>
<circle cx="144.6" cy="434.5" r="3" fill="#1f77b4"/>
<circle cx="148.1" cy="419.6" r="3" fill="#1f77b4"/>
<circle cx="151.7" cy="441.3" r="3" fill="#1f77b4"/>
<circle cx="155.2" cy="417.1" r="3" fill="#1f77b4"/>
<circle cx="158.8" cy="439.3" r="3" fill="#1f77b4"/>
<circle cx="162.3" cy="463.8" r="3" fill="#1f77b4"/>
<circle cx="165.9" cy="455.5" r="3" fill="#1f77b4"/>
<circle cx="169.4" cy="441.2" r="3" fill="#1f77b4"/>
<circle cx="172.9" cy="450.2" r="3" fill="#1f77b4"/>
<circle cx="176.5" cy="458.0" r="3" fill="#1f77b4"/>
<circle cx="180.0" cy="450.4" r="3" fill="#1f77b4"/>
<circle cx="183.6" cy="460.2" r="3" fill="#1f77b4"/>
<circle cx="187.1" cy="476.3" r="3" fill="#1f77b4"/>
<circle cx="190.7" cy="472.4" r="3" fill="#1f77b4"/>
<circle cx="194.2" cy="488.2" r="3" fill="#1f77b4"/>
<circle cx="197.7" cy="482.4" r="3" fill="#1f77b4"/>
<circle cx="201.3" cy="483.3" r="3" fill="#1f77b4"/>
<circle cx="204.8" cy="479.1" r="3" fill="#1f77b4"/>
<circle cx="208.4" cy="482.6" r="3" fill="#1f77b4"/>
<circle cx="211.9" cy="485.2" r="3" fill="#1f77b4"/>
<circle cx="215.5" cy="495.9" r="3" fill="#1f77b4"/>
<circle cx="219.0" cy="501.0" r="3" fill="#1f77b4"/>
<circle cx="222.5" cy="481.0" r="3" fill="#1f77b4"/>
<circle cx="226.1" cy="478.2" r="3" fill="#1f77b4"/>
<circle cx="229.6" cy="487.1" r="3" fill="#1f77b4"/>
<circle cx="233.2" cy="469.8" r="3" fill="#1f77b4"/>
<circle cx="236.7" cy="478.5" r="3" fill="#1f77b4"/>
<circle cx="240.3" cy="500.5" r="3" fill="#1f77b4"/>
<circle cx="243.8" cy="482.2" r="3" fill="#1f77b4"/>
<circle cx="247.3" cy="475.3" r="3" fill="#1f77b4"/>
<circle cx="250.9" cy="477.6" r="3" fill="#1f77b4"/>
<circle cx="254.4" cy="469.6" r="3" fill="#1f77b4"/>
<circle cx="258.0" cy="469.6" r="3" fill="#1f77b4"/>
<circle cx="261.5" cy="480.3" r="3" fill="#1f77b4"/>
<circle cx="265.1" cy="485.2" r="3" fill="#1f77b4"/>
<circle cx="268.6" cy="492.6" r="3" fill="#1f77b4"/>
<circle cx="272.1" cy="487.4" r="3" fill="#1f77b4"/>
<circle cx="275.7" cy="494.9" r="3" fill="#1f77b4"/>
<circle cx="279.2" cy="489.1" r="3" fill="#1f77b4"/>
<circle cx="282.8" cy="472.8" r="3" fill="#1f77b4"/>
<circle cx="286.3" cy="477.6" r="3" fill="#1f77b4"/>
<circle cx="289.8" cy="495.5" r="3" fill="#1f77b4"/>
<circle cx="293.4" cy="484.1" r="3" fill="#1f77b4"/>
<circle cx="296.9" cy="487.4" r="3" fill="#1f77b4"/>
<circle cx="300.5" cy="488.5" r="3" fill="#1f77b4"/>
<circle cx="304.0" cy="496.6" r="3" fill="#1f77b4"/>
<circle cx="307.6" cy="507.8" r="3" fill="#1f77b4"/>
<circle cx="311.1" cy="497.3" r="3" fill="#1f77b4"/>
<circle cx="314.6" cy="500.5" r="3" fill="#1f77b4"/>
<circle cx="318.2" cy="505.5" r="3" fill="#1f77b4"/>
<circle cx="321.7" cy="501.7" r="3" fill="#1f77b4"/>
<circle cx="325.3" cy="509.5" r="3" fill="#1f77b4"/>
<circle cx="328.8" cy="500.6" r="3" fill="#1f77b4"/>
<circle cx="332.4" cy="499.8" r="3" fill="#1f77b4"/>
<circle cx="335.9" cy="501.3" r="3" fill="#1f77b4"/>
<circle cx="339.4" cy="505.2" r="3" fill="#1f77b4"/>
<circle cx="343.0" cy="511.8" r="3" fill="#1f77b4"/>
<circle cx="346.5" cy="511.4" r="3" fill="#1f77b4"/>
<circle cx="350.1" cy="509.6" r="3" fill="#1f77b4"/>
<circle cx="353.6" cy="494.7" r="3" fill="#1f77b4"/>
<circle cx="357.2" cy="512.4" r="3" fill="#1f77b4"/>
<circle cx="360.7" cy="486.1" r="3" fill="#1f77b4"/>
<circle cx="364.2" cy="506.9" r="3" fill="#1f77b4"/>
<circle cx="367.8" cy="506.3" r="3" fill="#1f77b4"/>
<circle cx="371.3" cy="516.2" r="3" fill="#1f77b4"/>
<circle cx="374.9" cy="525.4" r="3" fill="#1f77b4"/>
<circle cx="378.4" cy="514.9" r="3" fill="#1f77b4"/>
<circle cx="382.0" cy="513.4" r="3" fill="#1f77b4"/>
<circle cx="385.5" cy="528.8" r="3" fill="#1f77b4"/>
<circle cx="389.0" cy="533.2" r="3" fill="#1f77b4"/>
<circle cx="392.6" cy="529.0" r="3" fill="#1f77b4"/>
<circle cx="396.1" cy="530.5" r="3" fill="#1f77b4"/>
<circle cx="399.7" cy="522.4" r="3" fill="#1f77b4"/>
<circle cx="403.2" cy="538.1" r="3" fill="#1f77b4"/>
<circle cx="406.8" cy="515.6" r="3" fill="#1f77b4"/>
<circle cx="410.3" cy="526.4" r="3" fill="#1f77b4"/>
<circle cx="413.8" cy="528.8" r="3" fill="#1f77b4"/>
<circle cx="417.4" cy="517.9" r="3" fill="#1f77b4"/>
<circle cx="420.9" cy="531.2" r="3" fill="#1f77b4"/>
<circle cx="424.5" cy="522.0" r="3" fill="#1f77b4"/>
<circle cx="428.0" cy="529.3" r="3" fill="#1f77b4"/>
<circle cx="431.6" cy="530.4" r="3" fill="#1f77b4"/>
<circle cx="435.1" cy="532.0" r="3" fill="#1f77b4"/>
<circle cx="438.6" cy="524.0" r="3" fill="#1f77b4"/>
<circle cx="442.2" cy="531.2" r="3" fill="#1f77b4"/>
<circle cx="445.7" cy="529.2" r="3" fill="#1f77b4"/>
<circle cx="449.3" cy="536.0" r="3" fill="#1f77b4"/>
<circle cx="452.8" cy="536.1" r="3" fill="#1f77b4"/>
<circle cx="456.4" cy="531.4" r="3" fill="#1f77b4"/>
<circle cx="459.9" cy="531.7" r="3" fill="#1f77b4"/>
<circle cx="463.4" cy="533.2" r="3" fill="#1f77b4"/>
<circle cx="467.0" cy="534.2" r="3" fill="#1f77b4"/>
<circle cx="470.5" cy="535.4" r="3" fill="#1f77b4"/>
<circle cx="474.1" cy="539.6" r="3" fill="#1f77b4"/>
<circle cx="477.6" cy="538.8" r="3" fill="#1f77b4"/>
<circle cx="481.2" cy="544.1" r="3" fill="#1f77b4"/>
<circle cx="484.7" cy="537.3" r="3" fill="#1f77b4"/>
<circle cx="488.2" cy="531.4" r="3" fill="#1f77b4"/>
<circle cx="491.8" cy="529.6" r="3" fill="#1f77b4"/>
<circle cx="495.3" cy="538.4" r="3" fill="#1f77b4"/>
<circle cx="498.9" cy="539.9" r="3" fill="#1f77b4"/>
<circle cx="502.4" cy="539.4" r="3" fill="#1f77b4"/>
<circle cx="506.0" cy="535.9" r="3" fill="#1f77b4"/>
<circle cx="509.5" cy="548.6" r="3" fill="#1f77b4"/>
<circle cx="513.0" cy="544.4" r="3" fill="#1f77b4"/>
<circle cx="516.6" cy="544.2" r="3" fill="#1f77b4"/>
<circle cx="520.1" cy="547.6" r="3" fill="#1f77b4"/>
<circle cx="523.7" cy="550.5" r="3" fill="#1f77b4"/>
<circle cx="527.2" cy="546.8" r="3" fill="#1f77b4"/>
<circle cx="530.8" cy="545.6" r="3" fill="#1f77b4"/>
<circle cx="534.3" cy="543.9" r="3" fill="#1f77b4"/>
<circle cx="537.8" cy="550.9" r="3" fill="#1f77b4"/>
<circle cx="541.4" cy="553.8" r="3" fill="#1f77b4"/>
<circle cx="544.9" cy="544.9" r="3" fill="#1f77b4"/>
<circle cx="548.5" cy="546.4" r="3" fill="#1f77b4"/>
<circle cx="552.0" cy="550.0" r="3" fill="#1f77b4"/>
<circle cx="555.6" cy="543.1" r="3" fill="#1f77b4"/>
<circle cx="559.1" cy="544.0" r="3" fill="#1f77b4"/>
<circle cx="562.6" cy="546.2" r="3" fill="#1f77b4"/>
<circle cx="566.2" cy="548.9" r="3" fill="#1f77b4"/>
<circle cx="569.7" cy="548.4" r="3" fill="#1f77b4"/>
<circle cx="573.3" cy="554.1" r="3" fill="#1f77b4"/>
<circle cx="576.8" cy="547.4" r="3" fill="#1f77b4"/>
<circle cx="580.4" cy="545.9" r="3" fill="#1f77b4"/>
<circle cx="583.9" cy="553.4" r="3" fill="#1f77b4"/>
<circle cx="587.4" cy="553.8" r="3" fill="#1f77b4"/>
<circle cx="591.0" cy="551.8" r="3" fill="#1f77b4"/>
<circle cx="594.5" cy="550.6" r="3" fill="#1f77b4"/>
<circle cx="598.1" cy="553.2" r="3" fill="#1f77b4"/>
<circle cx="601.6" cy="552.4" r="3" fill="#1f77b4"/>
<circle cx="605.2" cy="552.2" r="3" fill="#1f77b4"/>
<circle cx="608.7" cy="543.5" r="3" fill="#1f77b4"/>
<circle cx="612.2" cy="553.9" r="3" fill="#1f77b4"/>
<circle cx="615.8" cy="548.5" r="3" fill="#1f77b4"/>
<circle cx="619.3" cy="552.6" r="3" fill="#1f77b4"/>
<circle cx="622.9" cy="551.1" r="3" fill="#1f77b4"/>
<circle cx="626.4" cy="551.7" r="3" fill="#1f77b4"/>
<circle cx="629.9" cy="554.6" r="3" fill="#1f77b4"/>
<circle cx="633.5" cy="554.1" r="3" fill="#1f77b4"/>
<circle cx="637.0" cy="552.3" r="3" fill="#1f77b4"/>
<circle cx="640.6" cy="550.7" r="3" fill="#1f77b4"/>
<circle cx="644.1" cy="552.1" r="3" fill="#1f77b4"/>
<circle cx="647.7" cy="554.9" r="3" fill="#1f77b4"/>
<circle cx="651.2" cy="544.5" r="3" fill="#1f77b4"/>
<circle cx="654.7" cy="551.0" r="3" fill="#1f77b4"/>
<circle cx="658.3" cy="550.3" r="3" fill="#1f77b4"/>
<circle cx="661.8" cy="553.7" r="3" fill="#1f77b4"/>
<circle cx="665.4" cy="549.3" r="3" fill="#1f77b4"/>
<circle cx="668.9" cy="548.1" r="3" fill="#1f77b4"/>
<circle cx="672.5" cy="550.4" r="3" fill="#1f77b4"/>
<circle cx="676.0" cy="554.7" r="3" fill="#1f77b4"/>
<circle cx="679.5" cy="549.7" r="3" fill="#1f77b4"/>
<circle cx="683.1" cy="553.9" r="3" fill="#1f77b4"/>
<circle cx="686.6" cy="556.5" r="3" fill="#1f77b4"/>
<circle cx="690.2" cy="553.1" r="3" fill="#1f77b4"/>
<circle cx="693.7" cy="551.8" r="3" fill="#1f77b4"/>
<circle cx="697.3" cy="556.4" r="3" fill="#1f77b4"/>
<circle cx="700.8" cy="552.1" r="3" fill="#1f77b4"/>
<circle cx="704.3" cy="554.6" r="3" fill="#1f77b4"/>
<circle cx="707.9" cy="554.1" r="3" fill="#1f77b4"/>
<circle cx="711.4" cy="552.6" r="3" fill="#1f77b4"/>
<circle cx="715.0" cy="556.4" r="3" fill="#1f77b4"/>
<circle cx="718.5" cy="556.7" r="3" fill="#1f77b4"/>
<circle cx="722.1" cy="555.7" r="3" fill="#1f77b4"/>
<circle cx="725.6" cy="553.6" r="3" fill="#1f77b4"/>
<circle cx="729.1" cy="554.2" r="3" fill="#1f77b4"/>
<circle cx="732.7" cy="554.5" r="3" fill="#1f77b4"/>
<circle cx="736.2" cy="557.0" r="3" fill="#1f77b4"/>
<circle cx="739.8" cy="556.1" r="3" fill="#1f77b4"/>
<circle cx="743.3" cy="552.2" r="3" fill="#1f77b4"/>
<circle cx="746.9" cy="551.9" r="3" fill="#1f77b4"/>
<circle cx="750.4" cy="554.0" r="3" fill="#1f77b4"/>
<circle cx="753.9" cy="555.7" r="3" fill="#1f77b4"/>
<circle cx="757.5" cy="553.3" r="3" fill="#1f77b4"/>
<circle cx="761.0" cy="557.3" r="3" fill="#1f77b4"/>
<circle cx="764.6" cy="557.3" r="3" fill="#1f77b4"/>
<circle cx="768.1" cy="555.4" r="3" fill="#1f77b4"/>
<circle cx="771.7" cy="556.0" r="3" fill="#1f77b4"/>
<circle cx="775.2" cy="553.5" r="3" fill="#1f77b4"/>
<circle cx="778.7" cy="557.3" r="3" fill="#1f77b4"/>
<circle cx="782.3" cy="561.1" r="3" fill="#1f77b4"/>
<circle cx="785.8" cy="560.3" r="3" fill="#1f77b4"/>
<circle cx="789.4" cy="554.3" r="3" fill="#1f77b4"/>
<circle cx="792.9" cy="560.6" r="3" fill="#1f77b4"/>
<circle cx="796.5" cy="557.9" r="3" fill="#1f77b4"/>
<circle cx="800.0" cy="554.3" r="3" fill="#1f77b4"/>
<line x1="828" y1="96" x2="850" y2="96" stroke="#1f77b4" stroke-width="2.5"/>
<text x="858" y="100" font-family="Arial" font-size="13">GRPO-Clip 0.20/0.20 (e2/tb256)</text>
<polyline fill="none" stroke="#d62728" stroke-width="2.3" points="95.0,84.8 98.5,345.6 102.1,367.1 105.6,386.7 109.2,404.0 112.7,374.7 116.3,447.3 119.8,445.7 123.3,312.3 126.9,432.4 130.4,404.1 134.0,442.6 137.5,462.2 141.1,447.9 144.6,464.3 148.1,469.8 151.7,457.6 155.2,441.8 158.8,419.9 162.3,444.1 165.9,459.0 169.4,459.5 172.9,475.2 176.5,464.3 180.0,505.1 183.6,497.7 187.1,473.4 190.7,470.9 194.2,467.3 197.7,463.6 201.3,467.9 204.8,477.9 208.4,490.4 211.9,487.5 215.5,478.1 219.0,481.9 222.5,482.6 226.1,438.2 229.6,411.3 233.2,420.5 236.7,385.9 240.3,390.0 243.8,400.9 247.3,382.8 250.9,332.0 254.4,315.0 258.0,350.7 261.5,378.5 265.1,362.0 268.6,311.7 272.1,375.3 275.7,289.3 279.2,249.6 282.8,238.8 286.3,277.5 289.8,293.2 293.4,340.2 296.9,361.5 300.5,329.7 304.0,325.3 307.6,314.6 311.1,236.4 314.6,270.0 318.2,191.1 321.7,223.5 325.3,177.2 328.8,172.0 332.4,119.7 335.9,155.3 339.4,147.4 343.0,147.4 346.5,199.7 350.1,216.9 353.6,179.3 357.2,88.3 360.7,169.6 364.2,238.0 367.8,212.6 371.3,249.1 374.9,144.4 378.4,173.7 382.0,256.6 385.5,432.2 389.0,503.8 392.6,514.2 396.1,521.8 399.7,480.9 403.2,428.1 406.8,463.1 410.3,531.2 413.8,524.7 417.4,539.8 420.9,524.8 424.5,545.5 428.0,554.6 431.6,548.4 435.1,555.6 438.6,550.6 442.2,558.7 445.7,558.5 449.3,558.6 452.8,565.5 456.4,553.8 459.9,552.0 463.4,542.5 467.0,542.3 470.5,549.4 474.1,556.5 477.6,550.2 481.2,552.0 484.7,554.8 488.2,542.3 491.8,547.0 495.3,546.3 498.9,539.9 502.4,537.2 506.0,543.5 509.5,551.7 513.0,537.6 516.6,535.3 520.1,551.2 523.7,548.2 527.2,546.2 530.8,554.8 534.3,545.6 537.8,552.0 541.4,526.0 544.9,533.8 548.5,532.8 552.0,545.0 555.6,543.3 559.1,555.9 562.6,558.0 566.2,561.3 569.7,554.5 573.3,494.7 576.8,532.1 580.4,497.0 583.9,510.1 587.4,510.5 591.0,511.5 594.5,490.6 598.1,510.7 601.6,511.4 605.2,453.3 608.7,507.6 612.2,515.1 615.8,485.7 619.3,513.4 622.9,492.2 626.4,491.6 629.9,502.9 633.5,484.6 637.0,503.1 640.6,481.6 644.1,499.1 647.7,484.3 651.2,444.5 654.7,489.0 658.3,506.2 661.8,504.0 665.4,468.8 668.9,481.4 672.5,495.0 676.0,480.0 679.5,502.5 683.1,477.8 686.6,464.3 690.2,484.8 693.7,436.2 697.3,480.7 700.8,490.4 704.3,478.6 707.9,458.4 711.4,499.6 715.0,525.4 718.5,487.7 722.1,493.4 725.6,494.1 729.1,485.7 732.7,505.1 736.2,506.1 739.8,464.5 743.3,496.5 746.9,467.9 750.4,486.8 753.9,494.5 757.5,495.5 761.0,496.1 764.6,487.7 768.1,474.8 771.7,448.2 775.2,475.3 778.7,485.4 782.3,498.5 785.8,499.8 789.4,483.6 792.9,486.5 796.5,489.0 800.0,468.8"/>
<circle cx="95.0" cy="84.8" r="3" fill="#d62728"/>
<circle cx="98.5" cy="345.6" r="3" fill="#d62728"/>
<circle cx="102.1" cy="367.1" r="3" fill="#d62728"/>
<circle cx="105.6" cy="386.7" r="3" fill="#d62728"/>
<circle cx="109.2" cy="404.0" r="3" fill="#d62728"/>
<circle cx="112.7" cy="374.7" r="3" fill="#d62728"/>
<circle cx="116.3" cy="447.3" r="3" fill="#d62728"/>
<circle cx="119.8" cy="445.7" r="3" fill="#d62728"/>
<circle cx="123.3" cy="312.3" r="3" fill="#d62728"/>
<circle cx="126.9" cy="432.4" r="3" fill="#d62728"/>
<circle cx="130.4" cy="404.1" r="3" fill="#d62728"/>
<circle cx="134.0" cy="442.6" r="3" fill="#d62728"/>
<circle cx="137.5" cy="462.2" r="3" fill="#d62728"/>
<circle cx="141.1" cy="447.9" r="3" fill="#d62728"/>
<circle cx="144.6" cy="464.3" r="3" fill="#d62728"/>
<circle cx="148.1" cy="469.8" r="3" fill="#d62728"/>
<circle cx="151.7" cy="457.6" r="3" fill="#d62728"/>
<circle cx="155.2" cy="441.8" r="3" fill="#d62728"/>
<circle cx="158.8" cy="419.9" r="3" fill="#d62728"/>
<circle cx="162.3" cy="444.1" r="3" fill="#d62728"/>
<circle cx="165.9" cy="459.0" r="3" fill="#d62728"/>
<circle cx="169.4" cy="459.5" r="3" fill="#d62728"/>
<circle cx="172.9" cy="475.2" r="3" fill="#d62728"/>
<circle cx="176.5" cy="464.3" r="3" fill="#d62728"/>
<circle cx="180.0" cy="505.1" r="3" fill="#d62728"/>
<circle cx="183.6" cy="497.7" r="3" fill="#d62728"/>
<circle cx="187.1" cy="473.4" r="3" fill="#d62728"/>
<circle cx="190.7" cy="470.9" r="3" fill="#d62728"/>
<circle cx="194.2" cy="467.3" r="3" fill="#d62728"/>
<circle cx="197.7" cy="463.6" r="3" fill="#d62728"/>
<circle cx="201.3" cy="467.9" r="3" fill="#d62728"/>
<circle cx="204.8" cy="477.9" r="3" fill="#d62728"/>
<circle cx="208.4" cy="490.4" r="3" fill="#d62728"/>
<circle cx="211.9" cy="487.5" r="3" fill="#d62728"/>
<circle cx="215.5" cy="478.1" r="3" fill="#d62728"/>
<circle cx="219.0" cy="481.9" r="3" fill="#d62728"/>
<circle cx="222.5" cy="482.6" r="3" fill="#d62728"/>
<circle cx="226.1" cy="438.2" r="3" fill="#d62728"/>
<circle cx="229.6" cy="411.3" r="3" fill="#d62728"/>
<circle cx="233.2" cy="420.5" r="3" fill="#d62728"/>
<circle cx="236.7" cy="385.9" r="3" fill="#d62728"/>
<circle cx="240.3" cy="390.0" r="3" fill="#d62728"/>
<circle cx="243.8" cy="400.9" r="3" fill="#d62728"/>
<circle cx="247.3" cy="382.8" r="3" fill="#d62728"/>
<circle cx="250.9" cy="332.0" r="3" fill="#d62728"/>
<circle cx="254.4" cy="315.0" r="3" fill="#d62728"/>
<circle cx="258.0" cy="350.7" r="3" fill="#d62728"/>
<circle cx="261.5" cy="378.5" r="3" fill="#d62728"/>
<circle cx="265.1" cy="362.0" r="3" fill="#d62728"/>
<circle cx="268.6" cy="311.7" r="3" fill="#d62728"/>
<circle cx="272.1" cy="375.3" r="3" fill="#d62728"/>
<circle cx="275.7" cy="289.3" r="3" fill="#d62728"/>
<circle cx="279.2" cy="249.6" r="3" fill="#d62728"/>
<circle cx="282.8" cy="238.8" r="3" fill="#d62728"/>
<circle cx="286.3" cy="277.5" r="3" fill="#d62728"/>
<circle cx="289.8" cy="293.2" r="3" fill="#d62728"/>
<circle cx="293.4" cy="340.2" r="3" fill="#d62728"/>
<circle cx="296.9" cy="361.5" r="3" fill="#d62728"/>
<circle cx="300.5" cy="329.7" r="3" fill="#d62728"/>
<circle cx="304.0" cy="325.3" r="3" fill="#d62728"/>
<circle cx="307.6" cy="314.6" r="3" fill="#d62728"/>
<circle cx="311.1" cy="236.4" r="3" fill="#d62728"/>
<circle cx="314.6" cy="270.0" r="3" fill="#d62728"/>
<circle cx="318.2" cy="191.1" r="3" fill="#d62728"/>
<circle cx="321.7" cy="223.5" r="3" fill="#d62728"/>
<circle cx="325.3" cy="177.2" r="3" fill="#d62728"/>
<circle cx="328.8" cy="172.0" r="3" fill="#d62728"/>
<circle cx="332.4" cy="119.7" r="3" fill="#d62728"/>
<circle cx="335.9" cy="155.3" r="3" fill="#d62728"/>
<circle cx="339.4" cy="147.4" r="3" fill="#d62728"/>
<circle cx="343.0" cy="147.4" r="3" fill="#d62728"/>
<circle cx="346.5" cy="199.7" r="3" fill="#d62728"/>
<circle cx="350.1" cy="216.9" r="3" fill="#d62728"/>
<circle cx="353.6" cy="179.3" r="3" fill="#d62728"/>
<circle cx="357.2" cy="88.3" r="3" fill="#d62728"/>
<circle cx="360.7" cy="169.6" r="3" fill="#d62728"/>
<circle cx="364.2" cy="238.0" r="3" fill="#d62728"/>
<circle cx="367.8" cy="212.6" r="3" fill="#d62728"/>
<circle cx="371.3" cy="249.1" r="3" fill="#d62728"/>
<circle cx="374.9" cy="144.4" r="3" fill="#d62728"/>
<circle cx="378.4" cy="173.7" r="3" fill="#d62728"/>
<circle cx="382.0" cy="256.6" r="3" fill="#d62728"/>
<circle cx="385.5" cy="432.2" r="3" fill="#d62728"/>
<circle cx="389.0" cy="503.8" r="3" fill="#d62728"/>
<circle cx="392.6" cy="514.2" r="3" fill="#d62728"/>
<circle cx="396.1" cy="521.8" r="3" fill="#d62728"/>
<circle cx="399.7" cy="480.9" r="3" fill="#d62728"/>
<circle cx="403.2" cy="428.1" r="3" fill="#d62728"/>
<circle cx="406.8" cy="463.1" r="3" fill="#d62728"/>
<circle cx="410.3" cy="531.2" r="3" fill="#d62728"/>
<circle cx="413.8" cy="524.7" r="3" fill="#d62728"/>
<circle cx="417.4" cy="539.8" r="3" fill="#d62728"/>
<circle cx="420.9" cy="524.8" r="3" fill="#d62728"/>
<circle cx="424.5" cy="545.5" r="3" fill="#d62728"/>
<circle cx="428.0" cy="554.6" r="3" fill="#d62728"/>
<circle cx="431.6" cy="548.4" r="3" fill="#d62728"/>
<circle cx="435.1" cy="555.6" r="3" fill="#d62728"/>
<circle cx="438.6" cy="550.6" r="3" fill="#d62728"/>
<circle cx="442.2" cy="558.7" r="3" fill="#d62728"/>
<circle cx="445.7" cy="558.5" r="3" fill="#d62728"/>
<circle cx="449.3" cy="558.6" r="3" fill="#d62728"/>
<circle cx="452.8" cy="565.5" r="3" fill="#d62728"/>
<circle cx="456.4" cy="553.8" r="3" fill="#d62728"/>
<circle cx="459.9" cy="552.0" r="3" fill="#d62728"/>
<circle cx="463.4" cy="542.5" r="3" fill="#d62728"/>
<circle cx="467.0" cy="542.3" r="3" fill="#d62728"/>
<circle cx="470.5" cy="549.4" r="3" fill="#d62728"/>
<circle cx="474.1" cy="556.5" r="3" fill="#d62728"/>
<circle cx="477.6" cy="550.2" r="3" fill="#d62728"/>
<circle cx="481.2" cy="552.0" r="3" fill="#d62728"/>
<circle cx="484.7" cy="554.8" r="3" fill="#d62728"/>
<circle cx="488.2" cy="542.3" r="3" fill="#d62728"/>
<circle cx="491.8" cy="547.0" r="3" fill="#d62728"/>
<circle cx="495.3" cy="546.3" r="3" fill="#d62728"/>
<circle cx="498.9" cy="539.9" r="3" fill="#d62728"/>
<circle cx="502.4" cy="537.2" r="3" fill="#d62728"/>
<circle cx="506.0" cy="543.5" r="3" fill="#d62728"/>
<circle cx="509.5" cy="551.7" r="3" fill="#d62728"/>
<circle cx="513.0" cy="537.6" r="3" fill="#d62728"/>
<circle cx="516.6" cy="535.3" r="3" fill="#d62728"/>
<circle cx="520.1" cy="551.2" r="3" fill="#d62728"/>
<circle cx="523.7" cy="548.2" r="3" fill="#d62728"/>
<circle cx="527.2" cy="546.2" r="3" fill="#d62728"/>
<circle cx="530.8" cy="554.8" r="3" fill="#d62728"/>
<circle cx="534.3" cy="545.6" r="3" fill="#d62728"/>
<circle cx="537.8" cy="552.0" r="3" fill="#d62728"/>
<circle cx="541.4" cy="526.0" r="3" fill="#d62728"/>
<circle cx="544.9" cy="533.8" r="3" fill="#d62728"/>
<circle cx="548.5" cy="532.8" r="3" fill="#d62728"/>
<circle cx="552.0" cy="545.0" r="3" fill="#d62728"/>
<circle cx="555.6" cy="543.3" r="3" fill="#d62728"/>
<circle cx="559.1" cy="555.9" r="3" fill="#d62728"/>
<circle cx="562.6" cy="558.0" r="3" fill="#d62728"/>
<circle cx="566.2" cy="561.3" r="3" fill="#d62728"/>
<circle cx="569.7" cy="554.5" r="3" fill="#d62728"/>
<circle cx="573.3" cy="494.7" r="3" fill="#d62728"/>
<circle cx="576.8" cy="532.1" r="3" fill="#d62728"/>
<circle cx="580.4" cy="497.0" r="3" fill="#d62728"/>
<circle cx="583.9" cy="510.1" r="3" fill="#d62728"/>
<circle cx="587.4" cy="510.5" r="3" fill="#d62728"/>
<circle cx="591.0" cy="511.5" r="3" fill="#d62728"/>
<circle cx="594.5" cy="490.6" r="3" fill="#d62728"/>
<circle cx="598.1" cy="510.7" r="3" fill="#d62728"/>
<circle cx="601.6" cy="511.4" r="3" fill="#d62728"/>
<circle cx="605.2" cy="453.3" r="3" fill="#d62728"/>
<circle cx="608.7" cy="507.6" r="3" fill="#d62728"/>
<circle cx="612.2" cy="515.1" r="3" fill="#d62728"/>
<circle cx="615.8" cy="485.7" r="3" fill="#d62728"/>
<circle cx="619.3" cy="513.4" r="3" fill="#d62728"/>
<circle cx="622.9" cy="492.2" r="3" fill="#d62728"/>
<circle cx="626.4" cy="491.6" r="3" fill="#d62728"/>
<circle cx="629.9" cy="502.9" r="3" fill="#d62728"/>
<circle cx="633.5" cy="484.6" r="3" fill="#d62728"/>
<circle cx="637.0" cy="503.1" r="3" fill="#d62728"/>
<circle cx="640.6" cy="481.6" r="3" fill="#d62728"/>
<circle cx="644.1" cy="499.1" r="3" fill="#d62728"/>
<circle cx="647.7" cy="484.3" r="3" fill="#d62728"/>
<circle cx="651.2" cy="444.5" r="3" fill="#d62728"/>
<circle cx="654.7" cy="489.0" r="3" fill="#d62728"/>
<circle cx="658.3" cy="506.2" r="3" fill="#d62728"/>
<circle cx="661.8" cy="504.0" r="3" fill="#d62728"/>
<circle cx="665.4" cy="468.8" r="3" fill="#d62728"/>
<circle cx="668.9" cy="481.4" r="3" fill="#d62728"/>
<circle cx="672.5" cy="495.0" r="3" fill="#d62728"/>
<circle cx="676.0" cy="480.0" r="3" fill="#d62728"/>
<circle cx="679.5" cy="502.5" r="3" fill="#d62728"/>
<circle cx="683.1" cy="477.8" r="3" fill="#d62728"/>
<circle cx="686.6" cy="464.3" r="3" fill="#d62728"/>
<circle cx="690.2" cy="484.8" r="3" fill="#d62728"/>
<circle cx="693.7" cy="436.2" r="3" fill="#d62728"/>
<circle cx="697.3" cy="480.7" r="3" fill="#d62728"/>
<circle cx="700.8" cy="490.4" r="3" fill="#d62728"/>
<circle cx="704.3" cy="478.6" r="3" fill="#d62728"/>
<circle cx="707.9" cy="458.4" r="3" fill="#d62728"/>
<circle cx="711.4" cy="499.6" r="3" fill="#d62728"/>
<circle cx="715.0" cy="525.4" r="3" fill="#d62728"/>
<circle cx="718.5" cy="487.7" r="3" fill="#d62728"/>
<circle cx="722.1" cy="493.4" r="3" fill="#d62728"/>
<circle cx="725.6" cy="494.1" r="3" fill="#d62728"/>
<circle cx="729.1" cy="485.7" r="3" fill="#d62728"/>
<circle cx="732.7" cy="505.1" r="3" fill="#d62728"/>
<circle cx="736.2" cy="506.1" r="3" fill="#d62728"/>
<circle cx="739.8" cy="464.5" r="3" fill="#d62728"/>
<circle cx="743.3" cy="496.5" r="3" fill="#d62728"/>
<circle cx="746.9" cy="467.9" r="3" fill="#d62728"/>
<circle cx="750.4" cy="486.8" r="3" fill="#d62728"/>
<circle cx="753.9" cy="494.5" r="3" fill="#d62728"/>
<circle cx="757.5" cy="495.5" r="3" fill="#d62728"/>
<circle cx="761.0" cy="496.1" r="3" fill="#d62728"/>
<circle cx="764.6" cy="487.7" r="3" fill="#d62728"/>
<circle cx="768.1" cy="474.8" r="3" fill="#d62728"/>
<circle cx="771.7" cy="448.2" r="3" fill="#d62728"/>
<circle cx="775.2" cy="475.3" r="3" fill="#d62728"/>
<circle cx="778.7" cy="485.4" r="3" fill="#d62728"/>
<circle cx="782.3" cy="498.5" r="3" fill="#d62728"/>
<circle cx="785.8" cy="499.8" r="3" fill="#d62728"/>
<circle cx="789.4" cy="483.6" r="3" fill="#d62728"/>
<circle cx="792.9" cy="486.5" r="3" fill="#d62728"/>
<circle cx="796.5" cy="489.0" r="3" fill="#d62728"/>
<circle cx="800.0" cy="468.8" r="3" fill="#d62728"/>
<line x1="828" y1="120" x2="850" y2="120" stroke="#d62728" stroke-width="2.5"/>
<text x="858" y="124" font-family="Arial" font-size="13">GRPO-No-Clip (e2/tb256)</text>
<polyline fill="none" stroke="#2ca02c" stroke-width="2.3" points="95.0,84.8 98.5,126.7 102.1,280.5 105.6,321.0 109.2,387.2 112.7,370.9 116.3,408.8 119.8,384.7 123.3,404.0 126.9,429.2 130.4,418.3 134.0,423.5 137.5,407.6 141.1,421.4 144.6,436.3 148.1,427.0 151.7,417.3 155.2,420.7 158.8,440.6 162.3,447.2 165.9,434.9 169.4,408.5 172.9,417.8 176.5,412.4 180.0,417.1 183.6,434.6 187.1,434.9 190.7,434.0 194.2,420.8 197.7,439.3 201.3,445.6 204.8,433.0 208.4,442.3 211.9,458.2 215.5,458.3 219.0,446.7 222.5,442.5 226.1,448.2 229.6,454.2 233.2,417.2 236.7,432.4 240.3,454.9 243.8,424.3 247.3,435.7 250.9,425.6 254.4,435.4 258.0,422.0 261.5,424.4 265.1,424.3 268.6,438.1 272.1,435.8 275.7,429.8 279.2,448.1 282.8,450.8 286.3,438.8 289.8,471.0 293.4,454.3 296.9,455.2 300.5,452.8 304.0,460.4 307.6,466.7 311.1,435.9 314.6,444.1 318.2,446.0 321.7,447.3 325.3,469.8 328.8,456.8 332.4,455.8 335.9,455.3 339.4,468.7 343.0,463.0 346.5,458.7 350.1,445.0 353.6,421.3 357.2,448.1 360.7,392.5 364.2,408.7 367.8,418.3 371.3,437.6 374.9,443.4 378.4,411.2 382.0,398.5 385.5,421.5 389.0,421.1 392.6,406.8 396.1,424.9 399.7,417.3 403.2,447.1 406.8,414.4 410.3,423.5 413.8,410.2 417.4,416.0 420.9,441.7 424.5,426.7 428.0,424.3 431.6,425.3 435.1,429.0 438.6,384.2 442.2,387.3 445.7,387.7 449.3,406.3 452.8,424.6 456.4,403.2 459.9,389.5 463.4,404.8 467.0,394.8 470.5,387.3 474.1,415.6 477.6,403.6 481.2,422.3 484.7,390.2 488.2,383.3 491.8,349.1 495.3,370.3 498.9,388.4 502.4,376.3 506.0,357.5 509.5,402.6 513.0,373.5 516.6,357.9 520.1,353.0 523.7,345.5 527.2,315.2 530.8,318.2 534.3,290.4 537.8,354.2 541.4,384.2 544.9,333.3 548.5,331.6 552.0,362.7 555.6,323.7 559.1,353.0 562.6,365.4 566.2,333.7 569.7,338.6 573.3,361.5 576.8,342.4 580.4,303.2 583.9,341.9 587.4,329.5 591.0,335.1 594.5,350.7 598.1,367.5 601.6,352.6 605.2,327.1 608.7,321.9 612.2,410.0 615.8,370.9 619.3,372.0 622.9,375.1 626.4,355.4 629.9,390.7 633.5,373.3 637.0,379.0 640.6,348.6 644.1,351.3 647.7,385.0 651.2,317.7 654.7,353.5 658.3,336.5 661.8,367.0 665.4,299.0 668.9,338.1 672.5,289.0 676.0,366.5 679.5,295.9 683.1,334.8 686.6,340.1 690.2,295.8 693.7,313.1 697.3,371.1 700.8,307.4 704.3,360.3 707.9,337.4 711.4,366.1 715.0,352.3 718.5,336.4 722.1,349.6 725.6,316.0 729.1,352.5 732.7,364.1 736.2,371.6 739.8,363.7 743.3,311.9 746.9,306.4 750.4,326.8 753.9,365.5 757.5,287.0 761.0,350.8 764.6,291.0 768.1,284.4 771.7,295.5 775.2,297.0 778.7,311.1 782.3,318.4 785.8,290.3 789.4,227.1 792.9,256.5 796.5,238.0 800.0,148.3"/>
<circle cx="95.0" cy="84.8" r="3" fill="#2ca02c"/>
<circle cx="98.5" cy="126.7" r="3" fill="#2ca02c"/>
<circle cx="102.1" cy="280.5" r="3" fill="#2ca02c"/>
<circle cx="105.6" cy="321.0" r="3" fill="#2ca02c"/>
<circle cx="109.2" cy="387.2" r="3" fill="#2ca02c"/>
<circle cx="112.7" cy="370.9" r="3" fill="#2ca02c"/>
<circle cx="116.3" cy="408.8" r="3" fill="#2ca02c"/>
<circle cx="119.8" cy="384.7" r="3" fill="#2ca02c"/>
<circle cx="123.3" cy="404.0" r="3" fill="#2ca02c"/>
<circle cx="126.9" cy="429.2" r="3" fill="#2ca02c"/>
<circle cx="130.4" cy="418.3" r="3" fill="#2ca02c"/>
<circle cx="134.0" cy="423.5" r="3" fill="#2ca02c"/>
<circle cx="137.5" cy="407.6" r="3" fill="#2ca02c"/>
<circle cx="141.1" cy="421.4" r="3" fill="#2ca02c"/>
<circle cx="144.6" cy="436.3" r="3" fill="#2ca02c"/>
<circle cx="148.1" cy="427.0" r="3" fill="#2ca02c"/>
<circle cx="151.7" cy="417.3" r="3" fill="#2ca02c"/>
<circle cx="155.2" cy="420.7" r="3" fill="#2ca02c"/>
<circle cx="158.8" cy="440.6" r="3" fill="#2ca02c"/>
<circle cx="162.3" cy="447.2" r="3" fill="#2ca02c"/>
<circle cx="165.9" cy="434.9" r="3" fill="#2ca02c"/>
<circle cx="169.4" cy="408.5" r="3" fill="#2ca02c"/>
<circle cx="172.9" cy="417.8" r="3" fill="#2ca02c"/>
<circle cx="176.5" cy="412.4" r="3" fill="#2ca02c"/>
<circle cx="180.0" cy="417.1" r="3" fill="#2ca02c"/>
<circle cx="183.6" cy="434.6" r="3" fill="#2ca02c"/>
<circle cx="187.1" cy="434.9" r="3" fill="#2ca02c"/>
<circle cx="190.7" cy="434.0" r="3" fill="#2ca02c"/>
<circle cx="194.2" cy="420.8" r="3" fill="#2ca02c"/>
<circle cx="197.7" cy="439.3" r="3" fill="#2ca02c"/>
<circle cx="201.3" cy="445.6" r="3" fill="#2ca02c"/>
<circle cx="204.8" cy="433.0" r="3" fill="#2ca02c"/>
<circle cx="208.4" cy="442.3" r="3" fill="#2ca02c"/>
<circle cx="211.9" cy="458.2" r="3" fill="#2ca02c"/>
<circle cx="215.5" cy="458.3" r="3" fill="#2ca02c"/>
<circle cx="219.0" cy="446.7" r="3" fill="#2ca02c"/>
<circle cx="222.5" cy="442.5" r="3" fill="#2ca02c"/>
<circle cx="226.1" cy="448.2" r="3" fill="#2ca02c"/>
<circle cx="229.6" cy="454.2" r="3" fill="#2ca02c"/>
<circle cx="233.2" cy="417.2" r="3" fill="#2ca02c"/>
<circle cx="236.7" cy="432.4" r="3" fill="#2ca02c"/>
<circle cx="240.3" cy="454.9" r="3" fill="#2ca02c"/>
<circle cx="243.8" cy="424.3" r="3" fill="#2ca02c"/>
<circle cx="247.3" cy="435.7" r="3" fill="#2ca02c"/>
<circle cx="250.9" cy="425.6" r="3" fill="#2ca02c"/>
<circle cx="254.4" cy="435.4" r="3" fill="#2ca02c"/>
<circle cx="258.0" cy="422.0" r="3" fill="#2ca02c"/>
<circle cx="261.5" cy="424.4" r="3" fill="#2ca02c"/>
<circle cx="265.1" cy="424.3" r="3" fill="#2ca02c"/>
<circle cx="268.6" cy="438.1" r="3" fill="#2ca02c"/>
<circle cx="272.1" cy="435.8" r="3" fill="#2ca02c"/>
<circle cx="275.7" cy="429.8" r="3" fill="#2ca02c"/>
<circle cx="279.2" cy="448.1" r="3" fill="#2ca02c"/>
<circle cx="282.8" cy="450.8" r="3" fill="#2ca02c"/>
<circle cx="286.3" cy="438.8" r="3" fill="#2ca02c"/>
<circle cx="289.8" cy="471.0" r="3" fill="#2ca02c"/>
<circle cx="293.4" cy="454.3" r="3" fill="#2ca02c"/>
<circle cx="296.9" cy="455.2" r="3" fill="#2ca02c"/>
<circle cx="300.5" cy="452.8" r="3" fill="#2ca02c"/>
<circle cx="304.0" cy="460.4" r="3" fill="#2ca02c"/>
<circle cx="307.6" cy="466.7" r="3" fill="#2ca02c"/>
<circle cx="311.1" cy="435.9" r="3" fill="#2ca02c"/>
<circle cx="314.6" cy="444.1" r="3" fill="#2ca02c"/>
<circle cx="318.2" cy="446.0" r="3" fill="#2ca02c"/>
<circle cx="321.7" cy="447.3" r="3" fill="#2ca02c"/>
<circle cx="325.3" cy="469.8" r="3" fill="#2ca02c"/>
<circle cx="328.8" cy="456.8" r="3" fill="#2ca02c"/>
<circle cx="332.4" cy="455.8" r="3" fill="#2ca02c"/>
<circle cx="335.9" cy="455.3" r="3" fill="#2ca02c"/>
<circle cx="339.4" cy="468.7" r="3" fill="#2ca02c"/>
<circle cx="343.0" cy="463.0" r="3" fill="#2ca02c"/>
<circle cx="346.5" cy="458.7" r="3" fill="#2ca02c"/>
<circle cx="350.1" cy="445.0" r="3" fill="#2ca02c"/>
<circle cx="353.6" cy="421.3" r="3" fill="#2ca02c"/>
<circle cx="357.2" cy="448.1" r="3" fill="#2ca02c"/>
<circle cx="360.7" cy="392.5" r="3" fill="#2ca02c"/>
<circle cx="364.2" cy="408.7" r="3" fill="#2ca02c"/>
<circle cx="367.8" cy="418.3" r="3" fill="#2ca02c"/>
<circle cx="371.3" cy="437.6" r="3" fill="#2ca02c"/>
<circle cx="374.9" cy="443.4" r="3" fill="#2ca02c"/>
<circle cx="378.4" cy="411.2" r="3" fill="#2ca02c"/>
<circle cx="382.0" cy="398.5" r="3" fill="#2ca02c"/>
<circle cx="385.5" cy="421.5" r="3" fill="#2ca02c"/>
<circle cx="389.0" cy="421.1" r="3" fill="#2ca02c"/>
<circle cx="392.6" cy="406.8" r="3" fill="#2ca02c"/>
<circle cx="396.1" cy="424.9" r="3" fill="#2ca02c"/>
<circle cx="399.7" cy="417.3" r="3" fill="#2ca02c"/>
<circle cx="403.2" cy="447.1" r="3" fill="#2ca02c"/>
<circle cx="406.8" cy="414.4" r="3" fill="#2ca02c"/>
<circle cx="410.3" cy="423.5" r="3" fill="#2ca02c"/>
<circle cx="413.8" cy="410.2" r="3" fill="#2ca02c"/>
<circle cx="417.4" cy="416.0" r="3" fill="#2ca02c"/>
<circle cx="420.9" cy="441.7" r="3" fill="#2ca02c"/>
<circle cx="424.5" cy="426.7" r="3" fill="#2ca02c"/>
<circle cx="428.0" cy="424.3" r="3" fill="#2ca02c"/>
<circle cx="431.6" cy="425.3" r="3" fill="#2ca02c"/>
<circle cx="435.1" cy="429.0" r="3" fill="#2ca02c"/>
<circle cx="438.6" cy="384.2" r="3" fill="#2ca02c"/>
<circle cx="442.2" cy="387.3" r="3" fill="#2ca02c"/>
<circle cx="445.7" cy="387.7" r="3" fill="#2ca02c"/>
<circle cx="449.3" cy="406.3" r="3" fill="#2ca02c"/>
<circle cx="452.8" cy="424.6" r="3" fill="#2ca02c"/>
<circle cx="456.4" cy="403.2" r="3" fill="#2ca02c"/>
<circle cx="459.9" cy="389.5" r="3" fill="#2ca02c"/>
<circle cx="463.4" cy="404.8" r="3" fill="#2ca02c"/>
<circle cx="467.0" cy="394.8" r="3" fill="#2ca02c"/>
<circle cx="470.5" cy="387.3" r="3" fill="#2ca02c"/>
<circle cx="474.1" cy="415.6" r="3" fill="#2ca02c"/>
<circle cx="477.6" cy="403.6" r="3" fill="#2ca02c"/>
<circle cx="481.2" cy="422.3" r="3" fill="#2ca02c"/>
<circle cx="484.7" cy="390.2" r="3" fill="#2ca02c"/>
<circle cx="488.2" cy="383.3" r="3" fill="#2ca02c"/>
<circle cx="491.8" cy="349.1" r="3" fill="#2ca02c"/>
<circle cx="495.3" cy="370.3" r="3" fill="#2ca02c"/>
<circle cx="498.9" cy="388.4" r="3" fill="#2ca02c"/>
<circle cx="502.4" cy="376.3" r="3" fill="#2ca02c"/>
<circle cx="506.0" cy="357.5" r="3" fill="#2ca02c"/>
<circle cx="509.5" cy="402.6" r="3" fill="#2ca02c"/>
<circle cx="513.0" cy="373.5" r="3" fill="#2ca02c"/>
<circle cx="516.6" cy="357.9" r="3" fill="#2ca02c"/>
<circle cx="520.1" cy="353.0" r="3" fill="#2ca02c"/>
<circle cx="523.7" cy="345.5" r="3" fill="#2ca02c"/>
<circle cx="527.2" cy="315.2" r="3" fill="#2ca02c"/>
<circle cx="530.8" cy="318.2" r="3" fill="#2ca02c"/>
<circle cx="534.3" cy="290.4" r="3" fill="#2ca02c"/>
<circle cx="537.8" cy="354.2" r="3" fill="#2ca02c"/>
<circle cx="541.4" cy="384.2" r="3" fill="#2ca02c"/>
<circle cx="544.9" cy="333.3" r="3" fill="#2ca02c"/>
<circle cx="548.5" cy="331.6" r="3" fill="#2ca02c"/>
<circle cx="552.0" cy="362.7" r="3" fill="#2ca02c"/>
<circle cx="555.6" cy="323.7" r="3" fill="#2ca02c"/>
<circle cx="559.1" cy="353.0" r="3" fill="#2ca02c"/>
<circle cx="562.6" cy="365.4" r="3" fill="#2ca02c"/>
<circle cx="566.2" cy="333.7" r="3" fill="#2ca02c"/>
<circle cx="569.7" cy="338.6" r="3" fill="#2ca02c"/>
<circle cx="573.3" cy="361.5" r="3" fill="#2ca02c"/>
<circle cx="576.8" cy="342.4" r="3" fill="#2ca02c"/>
<circle cx="580.4" cy="303.2" r="3" fill="#2ca02c"/>
<circle cx="583.9" cy="341.9" r="3" fill="#2ca02c"/>
<circle cx="587.4" cy="329.5" r="3" fill="#2ca02c"/>
<circle cx="591.0" cy="335.1" r="3" fill="#2ca02c"/>
<circle cx="594.5" cy="350.7" r="3" fill="#2ca02c"/>
<circle cx="598.1" cy="367.5" r="3" fill="#2ca02c"/>
<circle cx="601.6" cy="352.6" r="3" fill="#2ca02c"/>
<circle cx="605.2" cy="327.1" r="3" fill="#2ca02c"/>
<circle cx="608.7" cy="321.9" r="3" fill="#2ca02c"/>
<circle cx="612.2" cy="410.0" r="3" fill="#2ca02c"/>
<circle cx="615.8" cy="370.9" r="3" fill="#2ca02c"/>
<circle cx="619.3" cy="372.0" r="3" fill="#2ca02c"/>
<circle cx="622.9" cy="375.1" r="3" fill="#2ca02c"/>
<circle cx="626.4" cy="355.4" r="3" fill="#2ca02c"/>
<circle cx="629.9" cy="390.7" r="3" fill="#2ca02c"/>
<circle cx="633.5" cy="373.3" r="3" fill="#2ca02c"/>
<circle cx="637.0" cy="379.0" r="3" fill="#2ca02c"/>
<circle cx="640.6" cy="348.6" r="3" fill="#2ca02c"/>
<circle cx="644.1" cy="351.3" r="3" fill="#2ca02c"/>
<circle cx="647.7" cy="385.0" r="3" fill="#2ca02c"/>
<circle cx="651.2" cy="317.7" r="3" fill="#2ca02c"/>
<circle cx="654.7" cy="353.5" r="3" fill="#2ca02c"/>
<circle cx="658.3" cy="336.5" r="3" fill="#2ca02c"/>
<circle cx="661.8" cy="367.0" r="3" fill="#2ca02c"/>
<circle cx="665.4" cy="299.0" r="3" fill="#2ca02c"/>
<circle cx="668.9" cy="338.1" r="3" fill="#2ca02c"/>
<circle cx="672.5" cy="289.0" r="3" fill="#2ca02c"/>
<circle cx="676.0" cy="366.5" r="3" fill="#2ca02c"/>
<circle cx="679.5" cy="295.9" r="3" fill="#2ca02c"/>
<circle cx="683.1" cy="334.8" r="3" fill="#2ca02c"/>
<circle cx="686.6" cy="340.1" r="3" fill="#2ca02c"/>
<circle cx="690.2" cy="295.8" r="3" fill="#2ca02c"/>
<circle cx="693.7" cy="313.1" r="3" fill="#2ca02c"/>
<circle cx="697.3" cy="371.1" r="3" fill="#2ca02c"/>
<circle cx="700.8" cy="307.4" r="3" fill="#2ca02c"/>
<circle cx="704.3" cy="360.3" r="3" fill="#2ca02c"/>
<circle cx="707.9" cy="337.4" r="3" fill="#2ca02c"/>
<circle cx="711.4" cy="366.1" r="3" fill="#2ca02c"/>
<circle cx="715.0" cy="352.3" r="3" fill="#2ca02c"/>
<circle cx="718.5" cy="336.4" r="3" fill="#2ca02c"/>
<circle cx="722.1" cy="349.6" r="3" fill="#2ca02c"/>
<circle cx="725.6" cy="316.0" r="3" fill="#2ca02c"/>
<circle cx="729.1" cy="352.5" r="3" fill="#2ca02c"/>
<circle cx="732.7" cy="364.1" r="3" fill="#2ca02c"/>
<circle cx="736.2" cy="371.6" r="3" fill="#2ca02c"/>
<circle cx="739.8" cy="363.7" r="3" fill="#2ca02c"/>
<circle cx="743.3" cy="311.9" r="3" fill="#2ca02c"/>
<circle cx="746.9" cy="306.4" r="3" fill="#2ca02c"/>
<circle cx="750.4" cy="326.8" r="3" fill="#2ca02c"/>
<circle cx="753.9" cy="365.5" r="3" fill="#2ca02c"/>
<circle cx="757.5" cy="287.0" r="3" fill="#2ca02c"/>
<circle cx="761.0" cy="350.8" r="3" fill="#2ca02c"/>
<circle cx="764.6" cy="291.0" r="3" fill="#2ca02c"/>
<circle cx="768.1" cy="284.4" r="3" fill="#2ca02c"/>
<circle cx="771.7" cy="295.5" r="3" fill="#2ca02c"/>
<circle cx="775.2" cy="297.0" r="3" fill="#2ca02c"/>
<circle cx="778.7" cy="311.1" r="3" fill="#2ca02c"/>
<circle cx="782.3" cy="318.4" r="3" fill="#2ca02c"/>
<circle cx="785.8" cy="290.3" r="3" fill="#2ca02c"/>
<circle cx="789.4" cy="227.1" r="3" fill="#2ca02c"/>
<circle cx="792.9" cy="256.5" r="3" fill="#2ca02c"/>
<circle cx="796.5" cy="238.0" r="3" fill="#2ca02c"/>
<circle cx="800.0" cy="148.3" r="3" fill="#2ca02c"/>
<line x1="828" y1="144" x2="850" y2="144" stroke="#2ca02c" stroke-width="2.5"/>
<text x="858" y="148" font-family="Arial" font-size="13">GRPO-Clip 0.20/0.28 (e2/tb256)</text>
<text x="447.5" y="638" text-anchor="middle" font-family="Arial" font-size="15">GRPO step</text>
<text x="24" y="326.0" text-anchor="middle" font-family="Arial" font-size="15" transform="rotate(-90 24 326.0)">Token entropy (nats)</text>
</svg>
