<svg xmlns="http://www.w3.org/2000/svg" width="1100" height="660" viewBox="0 0 1100 660">
<rect width="100%" height="100%" fill="white"/>
<text x="550.0" y="36" text-anchor="middle" font-family="Arial" font-size="22" font-weight="700">Off-policy clip ablation: rollout response length</text>
<line x1="95" y1="578" x2="800" y2="578" stroke="#222" stroke-width="1.5"/>
<line x1="95" y1="74" x2="95" y2="578" stroke="#222" stroke-width="1.5"/>
<line x1="90" y1="578.0" x2="800" y2="578.0" stroke="#ddd" stroke-width="1"/>
<text x="83" y="582.0" text-anchor="end" font-family="Arial" font-size="12">0.00</text>
<line x1="90" y1="477.2" x2="800" y2="477.2" stroke="#ddd" stroke-width="1"/>
<text x="83" y="481.2" text-anchor="end" font-family="Arial" font-size="12">204.80</text>
<line x1="90" y1="376.4" x2="800" y2="376.4" stroke="#ddd" stroke-width="1"/>
<text x="83" y="380.4" text-anchor="end" font-family="Arial" font-size="12">409.60</text>
<line x1="90" y1="275.6" x2="800" y2="275.6" stroke="#ddd" stroke-width="1"/>
<text x="83" y="279.6" text-anchor="end" font-family="Arial" font-size="12">614.40</text>
<line x1="90" y1="174.8" x2="800" y2="174.8" stroke="#ddd" stroke-width="1"/>
<text x="83" y="178.8" text-anchor="end" font-family="Arial" font-size="12">819.20</text>
<line x1="90" y1="74.0" x2="800" y2="74.0" stroke="#ddd" stroke-width="1"/>
<text x="83" y="78.0" text-anchor="end" font-family="Arial" font-size="12">1024.00</text>
<line x1="95.0" y1="578" x2="95.0" y2="583" stroke="#222" stroke-width="1"/>
<text x="95.0" y="602" text-anchor="middle" font-family="Arial" font-size="12">1</text>
<line x1="236.0" y1="578" x2="236.0" y2="583" stroke="#222" stroke-width="1"/>
<text x="236.0" y="602" text-anchor="middle" font-family="Arial" font-size="12">41</text>
<line x1="377.0" y1="578" x2="377.0" y2="583" stroke="#222" stroke-width="1"/>
<text x="377.0" y="602" text-anchor="middle" font-family="Arial" font-size="12">81</text>
<line x1="518.0" y1="578" x2="518.0" y2="583" stroke="#222" stroke-width="1"/>
<text x="518.0" y="602" text-anchor="middle" font-family="Arial" font-size="12">120</text>
<line x1="659.0" y1="578" x2="659.0" y2="583" stroke="#222" stroke-width="1"/>
<text x="659.0" y="602" text-anchor="middle" font-family="Arial" font-size="12">160</text>
<line x1="800.0" y1="578" x2="800.0" y2="583" stroke="#222" stroke-width="1"/>
<text x="800.0" y="602" text-anchor="middle" font-family="Arial" font-size="12">200</text>
<polyline fill="none" stroke="#1f77b4" stroke-width="2.3" points="95.0,427.8 98.5,501.5 102.1,500.3 105.6,484.0 109.2,524.8 112.7,489.9 116.3,502.6 119.8,498.9 123.3,518.7 126.9,519.6 130.4,525.5 134.0,518.1 137.5,525.4 141.1,514.4 144.6,524.0 148.1,526.4 151.7,506.8 155.2,515.9 158.8,501.6 162.3,504.1 165.9,514.7 169.4,505.8 172.9,509.9 176.5,516.2 180.0,510.8 183.6,519.9 187.1,484.3 190.7,499.2 194.2,506.8 197.7,485.8 201.3,490.9 204.8,511.6 208.4,514.2 211.9,512.5 215.5,508.5 219.0,492.6 222.5,508.9 226.1,503.4 229.6,496.4 233.2,501.7 236.7,494.4 240.3,506.1 243.8,508.9 247.3,486.7 250.9,491.9 254.4,492.0 258.0,466.1 261.5,470.9 265.1,461.1 268.6,478.2 272.1,475.2 275.7,449.9 279.2,438.7 282.8,464.7 286.3,452.1 289.8,460.9 293.4,419.3 296.9,423.7 300.5,416.4 304.0,424.5 307.6,454.6 311.1,424.2 314.6,428.4 318.2,434.0 321.7,426.3 325.3,428.7 328.8,441.8 332.4,444.2 335.9,410.1 339.4,425.2 343.0,411.4 346.5,407.8 350.1,420.4 353.6,427.5 357.2,413.6 360.7,386.6 364.2,348.2 367.8,379.1 371.3,374.6 374.9,351.0 378.4,383.5 382.0,338.4 385.5,370.6 389.0,331.0 392.6,380.1 396.1,380.6 399.7,391.3 403.2,414.5 406.8,403.6 410.3,397.7 413.8,362.8 417.4,395.6 420.9,369.2 424.5,374.1 428.0,384.1 431.6,385.3 435.1,356.5 438.6,354.0 442.2,347.7 445.7,341.4 449.3,363.5 452.8,324.8 456.4,333.3 459.9,343.8 463.4,392.7 467.0,359.8 470.5,364.0 474.1,301.9 477.6,288.8 481.2,279.2 484.7,252.9 488.2,321.9 491.8,282.6 495.3,319.7 498.9,311.0 502.4,386.0 506.0,361.1 509.5,384.2 513.0,400.4 516.6,384.2 520.1,375.6 523.7,378.2 527.2,337.8 530.8,317.7 534.3,317.9 537.8,357.1 541.4,350.1 544.9,325.9 548.5,307.1 552.0,348.0 555.6,327.5 559.1,390.7 562.6,379.2 566.2,383.5 569.7,376.6 573.3,370.0 576.8,396.5 580.4,378.1 583.9,392.5 587.4,409.4 591.0,350.4 594.5,386.4 598.1,340.8 601.6,351.3 605.2,346.6 608.7,355.8 612.2,405.1 615.8,400.9 619.3,354.3 622.9,322.0 626.4,376.1 629.9,408.3 633.5,379.2 637.0,354.4 640.6,369.5 644.1,367.1 647.7,394.0 651.2,370.2 654.7,395.0 658.3,365.4 661.8,390.6 665.4,373.7 668.9,392.0 672.5,346.4 676.0,386.6 679.5,392.6 683.1,404.6 686.6,365.3 690.2,411.3 693.7,392.6 697.3,412.4 700.8,412.3 704.3,449.2 707.9,409.4 711.4,414.3 715.0,434.5 718.5,436.0 722.1,430.4 725.6,442.9 729.1,450.1 732.7,455.6 736.2,429.2 739.8,430.4 743.3,430.8 746.9,452.5 750.4,437.5 753.9,440.2 757.5,462.0 761.0,440.9 764.6,444.2 768.1,422.1 771.7,451.9 775.2,444.6 778.7,435.7 782.3,451.0 785.8,74.0 789.4,74.0 792.9,74.0 796.5,74.0 800.0,74.0"/>
<circle cx="95.0" cy="427.8" r="3" fill="#1f77b4"/>
<circle cx="98.5" cy="501.5" r="3" fill="#1f77b4"/>
<circle cx="102.1" cy="500.3" r="3" fill="#1f77b4"/>
<circle cx="105.6" cy="484.0" r="3" fill="#1f77b4"/>
<circle cx="109.2" cy="524.8" r="3" fill="#1f77b4"/>
<circle cx="112.7" cy="489.9" r="3" fill="#1f77b4"/>
<circle cx="116.3" cy="502.6" r="3" fill="#1f77b4"/>
<circle cx="119.8" cy="498.9" r="3" fill="#1f77b4"/>
<circle cx="123.3" cy="518.7" r="3" fill="#1f77b4"/>
<circle cx="126.9" cy="519.6" r="3" fill="#1f77b4"/>
<circle cx="130.4" cy="525.5" r="3" fill="#1f77b4"/>
<circle cx="134.0" cy="518.1" r="3" fill="#1f77b4"/>
<circle cx="137.5" cy="525.4" r="3" fill="#1f77b4"/>
<circle cx="141.1" cy="514.4" r="3" fill="#1f77b4"/>
<circle cx="144.6" cy="524.0" r="3" fill="#1f77b4"/>
<circle cx="148.1" cy="526.4" r="3" fill="#1f77b4"/>
<circle cx="151.7" cy="506.8" r="3" fill="#1f77b4"/>
<circle cx="155.2" cy="515.9" r="3" fill="#1f77b4"/>
<circle cx="158.8" cy="501.6" r="3" fill="#1f77b4"/>
<circle cx="162.3" cy="504.1" r="3" fill="#1f77b4"/>
<circle cx="165.9" cy="514.7" r="3" fill="#1f77b4"/>
<circle cx="169.4" cy="505.8" r="3" fill="#1f77b4"/>
<circle cx="172.9" cy="509.9" r="3" fill="#1f77b4"/>
<circle cx="176.5" cy="516.2" r="3" fill="#1f77b4"/>
<circle cx="180.0" cy="510.8" r="3" fill="#1f77b4"/>
<circle cx="183.6" cy="519.9" r="3" fill="#1f77b4"/>
<circle cx="187.1" cy="484.3" r="3" fill="#1f77b4"/>
<circle cx="190.7" cy="499.2" r="3" fill="#1f77b4"/>
<circle cx="194.2" cy="506.8" r="3" fill="#1f77b4"/>
<circle cx="197.7" cy="485.8" r="3" fill="#1f77b4"/>
<circle cx="201.3" cy="490.9" r="3" fill="#1f77b4"/>
<circle cx="204.8" cy="511.6" r="3" fill="#1f77b4"/>
<circle cx="208.4" cy="514.2" r="3" fill="#1f77b4"/>
<circle cx="211.9" cy="512.5" r="3" fill="#1f77b4"/>
<circle cx="215.5" cy="508.5" r="3" fill="#1f77b4"/>
<circle cx="219.0" cy="492.6" r="3" fill="#1f77b4"/>
<circle cx="222.5" cy="508.9" r="3" fill="#1f77b4"/>
<circle cx="226.1" cy="503.4" r="3" fill="#1f77b4"/>
<circle cx="229.6" cy="496.4" r="3" fill="#1f77b4"/>
<circle cx="233.2" cy="501.7" r="3" fill="#1f77b4"/>
<circle cx="236.7" cy="494.4" r="3" fill="#1f77b4"/>
<circle cx="240.3" cy="506.1" r="3" fill="#1f77b4"/>
<circle cx="243.8" cy="508.9" r="3" fill="#1f77b4"/>
<circle cx="247.3" cy="486.7" r="3" fill="#1f77b4"/>
<circle cx="250.9" cy="491.9" r="3" fill="#1f77b4"/>
<circle cx="254.4" cy="492.0" r="3" fill="#1f77b4"/>
<circle cx="258.0" cy="466.1" r="3" fill="#1f77b4"/>
<circle cx="261.5" cy="470.9" r="3" fill="#1f77b4"/>
<circle cx="265.1" cy="461.1" r="3" fill="#1f77b4"/>
<circle cx="268.6" cy="478.2" r="3" fill="#1f77b4"/>
<circle cx="272.1" cy="475.2" r="3" fill="#1f77b4"/>
<circle cx="275.7" cy="449.9" r="3" fill="#1f77b4"/>
<circle cx="279.2" cy="438.7" r="3" fill="#1f77b4"/>
<circle cx="282.8" cy="464.7" r="3" fill="#1f77b4"/>
<circle cx="286.3" cy="452.1" r="3" fill="#1f77b4"/>
<circle cx="289.8" cy="460.9" r="3" fill="#1f77b4"/>
<circle cx="293.4" cy="419.3" r="3" fill="#1f77b4"/>
<circle cx="296.9" cy="423.7" r="3" fill="#1f77b4"/>
<circle cx="300.5" cy="416.4" r="3" fill="#1f77b4"/>
<circle cx="304.0" cy="424.5" r="3" fill="#1f77b4"/>
<circle cx="307.6" cy="454.6" r="3" fill="#1f77b4"/>
<circle cx="311.1" cy="424.2" r="3" fill="#1f77b4"/>
<circle cx="314.6" cy="428.4" r="3" fill="#1f77b4"/>
<circle cx="318.2" cy="434.0" r="3" fill="#1f77b4"/>
<circle cx="321.7" cy="426.3" r="3" fill="#1f77b4"/>
<circle cx="325.3" cy="428.7" r="3" fill="#1f77b4"/>
<circle cx="328.8" cy="441.8" r="3" fill="#1f77b4"/>
<circle cx="332.4" cy="444.2" r="3" fill="#1f77b4"/>
<circle cx="335.9" cy="410.1" r="3" fill="#1f77b4"/>
<circle cx="339.4" cy="425.2" r="3" fill="#1f77b4"/>
<circle cx="343.0" cy="411.4" r="3" fill="#1f77b4"/>
<circle cx="346.5" cy="407.8" r="3" fill="#1f77b4"/>
<circle cx="350.1" cy="420.4" r="3" fill="#1f77b4"/>
<circle cx="353.6" cy="427.5" r="3" fill="#1f77b4"/>
<circle cx="357.2" cy="413.6" r="3" fill="#1f77b4"/>
<circle cx="360.7" cy="386.6" r="3" fill="#1f77b4"/>
<circle cx="364.2" cy="348.2" r="3" fill="#1f77b4"/>
<circle cx="367.8" cy="379.1" r="3" fill="#1f77b4"/>
<circle cx="371.3" cy="374.6" r="3" fill="#1f77b4"/>
<circle cx="374.9" cy="351.0" r="3" fill="#1f77b4"/>
<circle cx="378.4" cy="383.5" r="3" fill="#1f77b4"/>
<circle cx="382.0" cy="338.4" r="3" fill="#1f77b4"/>
<circle cx="385.5" cy="370.6" r="3" fill="#1f77b4"/>
<circle cx="389.0" cy="331.0" r="3" fill="#1f77b4"/>
<circle cx="392.6" cy="380.1" r="3" fill="#1f77b4"/>
<circle cx="396.1" cy="380.6" r="3" fill="#1f77b4"/>
<circle cx="399.7" cy="391.3" r="3" fill="#1f77b4"/>
<circle cx="403.2" cy="414.5" r="3" fill="#1f77b4"/>
<circle cx="406.8" cy="403.6" r="3" fill="#1f77b4"/>
<circle cx="410.3" cy="397.7" r="3" fill="#1f77b4"/>
<circle cx="413.8" cy="362.8" r="3" fill="#1f77b4"/>
<circle cx="417.4" cy="395.6" r="3" fill="#1f77b4"/>
<circle cx="420.9" cy="369.2" r="3" fill="#1f77b4"/>
<circle cx="424.5" cy="374.1" r="3" fill="#1f77b4"/>
<circle cx="428.0" cy="384.1" r="3" fill="#1f77b4"/>
<circle cx="431.6" cy="385.3" r="3" fill="#1f77b4"/>
<circle cx="435.1" cy="356.5" r="3" fill="#1f77b4"/>
<circle cx="438.6" cy="354.0" r="3" fill="#1f77b4"/>
<circle cx="442.2" cy="347.7" r="3" fill="#1f77b4"/>
<circle cx="445.7" cy="341.4" r="3" fill="#1f77b4"/>
<circle cx="449.3" cy="363.5" r="3" fill="#1f77b4"/>
<circle cx="452.8" cy="324.8" r="3" fill="#1f77b4"/>
<circle cx="456.4" cy="333.3" r="3" fill="#1f77b4"/>
<circle cx="459.9" cy="343.8" r="3" fill="#1f77b4"/>
<circle cx="463.4" cy="392.7" r="3" fill="#1f77b4"/>
<circle cx="467.0" cy="359.8" r="3" fill="#1f77b4"/>
<circle cx="470.5" cy="364.0" r="3" fill="#1f77b4"/>
<circle cx="474.1" cy="301.9" r="3" fill="#1f77b4"/>
<circle cx="477.6" cy="288.8" r="3" fill="#1f77b4"/>
<circle cx="481.2" cy="279.2" r="3" fill="#1f77b4"/>
<circle cx="484.7" cy="252.9" r="3" fill="#1f77b4"/>
<circle cx="488.2" cy="321.9" r="3" fill="#1f77b4"/>
<circle cx="491.8" cy="282.6" r="3" fill="#1f77b4"/>
<circle cx="495.3" cy="319.7" r="3" fill="#1f77b4"/>
<circle cx="498.9" cy="311.0" r="3" fill="#1f77b4"/>
<circle cx="502.4" cy="386.0" r="3" fill="#1f77b4"/>
<circle cx="506.0" cy="361.1" r="3" fill="#1f77b4"/>
<circle cx="509.5" cy="384.2" r="3" fill="#1f77b4"/>
<circle cx="513.0" cy="400.4" r="3" fill="#1f77b4"/>
<circle cx="516.6" cy="384.2" r="3" fill="#1f77b4"/>
<circle cx="520.1" cy="375.6" r="3" fill="#1f77b4"/>
<circle cx="523.7" cy="378.2" r="3" fill="#1f77b4"/>
<circle cx="527.2" cy="337.8" r="3" fill="#1f77b4"/>
<circle cx="530.8" cy="317.7" r="3" fill="#1f77b4"/>
<circle cx="534.3" cy="317.9" r="3" fill="#1f77b4"/>
<circle cx="537.8" cy="357.1" r="3" fill="#1f77b4"/>
<circle cx="541.4" cy="350.1" r="3" fill="#1f77b4"/>
<circle cx="544.9" cy="325.9" r="3" fill="#1f77b4"/>
<circle cx="548.5" cy="307.1" r="3" fill="#1f77b4"/>
<circle cx="552.0" cy="348.0" r="3" fill="#1f77b4"/>
<circle cx="555.6" cy="327.5" r="3" fill="#1f77b4"/>
<circle cx="559.1" cy="390.7" r="3" fill="#1f77b4"/>
<circle cx="562.6" cy="379.2" r="3" fill="#1f77b4"/>
<circle cx="566.2" cy="383.5" r="3" fill="#1f77b4"/>
<circle cx="569.7" cy="376.6" r="3" fill="#1f77b4"/>
<circle cx="573.3" cy="370.0" r="3" fill="#1f77b4"/>
<circle cx="576.8" cy="396.5" r="3" fill="#1f77b4"/>
<circle cx="580.4" cy="378.1" r="3" fill="#1f77b4"/>
<circle cx="583.9" cy="392.5" r="3" fill="#1f77b4"/>
<circle cx="587.4" cy="409.4" r="3" fill="#1f77b4"/>
<circle cx="591.0" cy="350.4" r="3" fill="#1f77b4"/>
<circle cx="594.5" cy="386.4" r="3" fill="#1f77b4"/>
<circle cx="598.1" cy="340.8" r="3" fill="#1f77b4"/>
<circle cx="601.6" cy="351.3" r="3" fill="#1f77b4"/>
<circle cx="605.2" cy="346.6" r="3" fill="#1f77b4"/>
<circle cx="608.7" cy="355.8" r="3" fill="#1f77b4"/>
<circle cx="612.2" cy="405.1" r="3" fill="#1f77b4"/>
<circle cx="615.8" cy="400.9" r="3" fill="#1f77b4"/>
<circle cx="619.3" cy="354.3" r="3" fill="#1f77b4"/>
<circle cx="622.9" cy="322.0" r="3" fill="#1f77b4"/>
<circle cx="626.4" cy="376.1" r="3" fill="#1f77b4"/>
<circle cx="629.9" cy="408.3" r="3" fill="#1f77b4"/>
<circle cx="633.5" cy="379.2" r="3" fill="#1f77b4"/>
<circle cx="637.0" cy="354.4" r="3" fill="#1f77b4"/>
<circle cx="640.6" cy="369.5" r="3" fill="#1f77b4"/>
<circle cx="644.1" cy="367.1" r="3" fill="#1f77b4"/>
<circle cx="647.7" cy="394.0" r="3" fill="#1f77b4"/>
<circle cx="651.2" cy="370.2" r="3" fill="#1f77b4"/>
<circle cx="654.7" cy="395.0" r="3" fill="#1f77b4"/>
<circle cx="658.3" cy="365.4" r="3" fill="#1f77b4"/>
<circle cx="661.8" cy="390.6" r="3" fill="#1f77b4"/>
<circle cx="665.4" cy="373.7" r="3" fill="#1f77b4"/>
<circle cx="668.9" cy="392.0" r="3" fill="#1f77b4"/>
<circle cx="672.5" cy="346.4" r="3" fill="#1f77b4"/>
<circle cx="676.0" cy="386.6" r="3" fill="#1f77b4"/>
<circle cx="679.5" cy="392.6" r="3" fill="#1f77b4"/>
<circle cx="683.1" cy="404.6" r="3" fill="#1f77b4"/>
<circle cx="686.6" cy="365.3" r="3" fill="#1f77b4"/>
<circle cx="690.2" cy="411.3" r="3" fill="#1f77b4"/>
<circle cx="693.7" cy="392.6" r="3" fill="#1f77b4"/>
<circle cx="697.3" cy="412.4" r="3" fill="#1f77b4"/>
<circle cx="700.8" cy="412.3" r="3" fill="#1f77b4"/>
<circle cx="704.3" cy="449.2" r="3" fill="#1f77b4"/>
<circle cx="707.9" cy="409.4" r="3" fill="#1f77b4"/>
<circle cx="711.4" cy="414.3" r="3" fill="#1f77b4"/>
<circle cx="715.0" cy="434.5" r="3" fill="#1f77b4"/>
<circle cx="718.5" cy="436.0" r="3" fill="#1f77b4"/>
<circle cx="722.1" cy="430.4" r="3" fill="#1f77b4"/>
<circle cx="725.6" cy="442.9" r="3" fill="#1f77b4"/>
<circle cx="729.1" cy="450.1" r="3" fill="#1f77b4"/>
<circle cx="732.7" cy="455.6" r="3" fill="#1f77b4"/>
<circle cx="736.2" cy="429.2" r="3" fill="#1f77b4"/>
<circle cx="739.8" cy="430.4" r="3" fill="#1f77b4"/>
<circle cx="743.3" cy="430.8" r="3" fill="#1f77b4"/>
<circle cx="746.9" cy="452.5" r="3" fill="#1f77b4"/>
<circle cx="750.4" cy="437.5" r="3" fill="#1f77b4"/>
<circle cx="753.9" cy="440.2" r="3" fill="#1f77b4"/>
<circle cx="757.5" cy="462.0" r="3" fill="#1f77b4"/>
<circle cx="761.0" cy="440.9" r="3" fill="#1f77b4"/>
<circle cx="764.6" cy="444.2" r="3" fill="#1f77b4"/>
<circle cx="768.1" cy="422.1" r="3" fill="#1f77b4"/>
<circle cx="771.7" cy="451.9" r="3" fill="#1f77b4"/>
<circle cx="775.2" cy="444.6" r="3" fill="#1f77b4"/>
<circle cx="778.7" cy="435.7" r="3" fill="#1f77b4"/>
<circle cx="782.3" cy="451.0" r="3" fill="#1f77b4"/>
<circle cx="785.8" cy="74.0" r="3" fill="#1f77b4"/>
<circle cx="789.4" cy="74.0" r="3" fill="#1f77b4"/>
<circle cx="792.9" cy="74.0" r="3" fill="#1f77b4"/>
<circle cx="796.5" cy="74.0" r="3" fill="#1f77b4"/>
<circle cx="800.0" cy="74.0" r="3" fill="#1f77b4"/>
<line x1="828" y1="96" x2="850" y2="96" stroke="#1f77b4" stroke-width="2.5"/>
<text x="858" y="100" font-family="Arial" font-size="13">GRPO-Clip (e2/tb256)</text>
<polyline fill="none" stroke="#d62728" stroke-width="2.3" points="95.0,427.8 98.5,513.6 102.1,553.2 105.6,562.7 109.2,563.1 112.7,563.1 116.3,558.8 119.8,558.9 123.3,560.4 126.9,555.7 130.4,557.7 134.0,559.1 137.5,552.7 141.1,550.4 144.6,560.4 148.1,551.7 151.7,550.9 155.2,524.8 158.8,533.3 162.3,548.0 165.9,548.1 169.4,540.1 172.9,545.5 176.5,538.8 180.0,543.9 183.6,544.4 187.1,536.5 190.7,542.1 194.2,550.5 197.7,547.7 201.3,541.9 204.8,548.9 208.4,543.5 211.9,544.4 215.5,542.2 219.0,533.4 222.5,532.5 226.1,528.6 229.6,521.3 233.2,524.8 236.7,502.3 240.3,513.0 243.8,512.9 247.3,511.5 250.9,456.2 254.4,479.2 258.0,469.7 261.5,470.1 265.1,479.7 268.6,479.9 272.1,452.2 275.7,463.1 279.2,463.3 282.8,480.2 286.3,478.6 289.8,500.3 293.4,476.1 296.9,470.3 300.5,481.7 304.0,474.6 307.6,493.4 311.1,467.9 314.6,469.0 318.2,472.2 321.7,463.3 325.3,460.7 328.8,463.3 332.4,426.9 335.9,451.8 339.4,418.8 343.0,450.2 346.5,402.8 350.1,422.8 353.6,434.9 357.2,444.5 360.7,408.4 364.2,426.1 367.8,428.1 371.3,383.2 374.9,379.5 378.4,413.7 382.0,384.0 385.5,398.9 389.0,420.4 392.6,440.8 396.1,420.9 399.7,453.1 403.2,449.3 406.8,449.3 410.3,456.6 413.8,425.3 417.4,436.8 420.9,470.1 424.5,466.9 428.0,465.9 431.6,461.6 435.1,464.7 438.6,443.0 442.2,440.2 445.7,480.9 449.3,465.8 452.8,431.2 456.4,450.9 459.9,455.3 463.4,430.2 467.0,447.0 470.5,422.6 474.1,432.5 477.6,400.9 481.2,429.0 484.7,417.1 488.2,417.2 491.8,436.0 495.3,425.2 498.9,433.7 502.4,428.5 506.0,410.2 509.5,425.6 513.0,423.6 516.6,421.0 520.1,412.7 523.7,381.6 527.2,423.1 530.8,399.6 534.3,388.8 537.8,406.8 541.4,391.5 544.9,393.8 548.5,392.1 552.0,419.8 555.6,409.4 559.1,442.2 562.6,401.6 566.2,397.8 569.7,402.9 573.3,405.7 576.8,405.5 580.4,382.8 583.9,397.7 587.4,409.2 591.0,410.4 594.5,412.9 598.1,376.8 601.6,417.2 605.2,333.6 608.7,406.3 612.2,437.5 615.8,379.8 619.3,339.4 622.9,325.5 626.4,316.5 629.9,369.7 633.5,372.8 637.0,346.9 640.6,385.7 644.1,359.8 647.7,365.1 651.2,370.1 654.7,355.3 658.3,391.4 661.8,373.6 665.4,380.9 668.9,419.1 672.5,391.2 676.0,380.4 679.5,444.4 683.1,431.4 686.6,390.6 690.2,424.2 693.7,415.4 697.3,405.1 700.8,413.5 704.3,425.1 707.9,391.5 711.4,407.5 715.0,412.2 718.5,405.3 722.1,423.1 725.6,435.3 729.1,411.5 732.7,406.9 736.2,417.1 739.8,422.3 743.3,410.7 746.9,394.2 750.4,368.3 753.9,358.5 757.5,403.4 761.0,387.5 764.6,405.9 768.1,381.3 771.7,394.5 775.2,377.8 778.7,357.8 782.3,414.9 785.8,395.3 789.4,366.5 792.9,351.2 796.5,381.5 800.0,335.9"/>
<circle cx="95.0" cy="427.8" r="3" fill="#d62728"/>
<circle cx="98.5" cy="513.6" r="3" fill="#d62728"/>
<circle cx="102.1" cy="553.2" r="3" fill="#d62728"/>
<circle cx="105.6" cy="562.7" r="3" fill="#d62728"/>
<circle cx="109.2" cy="563.1" r="3" fill="#d62728"/>
<circle cx="112.7" cy="563.1" r="3" fill="#d62728"/>
<circle cx="116.3" cy="558.8" r="3" fill="#d62728"/>
<circle cx="119.8" cy="558.9" r="3" fill="#d62728"/>
<circle cx="123.3" cy="560.4" r="3" fill="#d62728"/>
<circle cx="126.9" cy="555.7" r="3" fill="#d62728"/>
<circle cx="130.4" cy="557.7" r="3" fill="#d62728"/>
<circle cx="134.0" cy="559.1" r="3" fill="#d62728"/>
<circle cx="137.5" cy="552.7" r="3" fill="#d62728"/>
<circle cx="141.1" cy="550.4" r="3" fill="#d62728"/>
<circle cx="144.6" cy="560.4" r="3" fill="#d62728"/>
<circle cx="148.1" cy="551.7" r="3" fill="#d62728"/>
<circle cx="151.7" cy="550.9" r="3" fill="#d62728"/>
<circle cx="155.2" cy="524.8" r="3" fill="#d62728"/>
<circle cx="158.8" cy="533.3" r="3" fill="#d62728"/>
<circle cx="162.3" cy="548.0" r="3" fill="#d62728"/>
<circle cx="165.9" cy="548.1" r="3" fill="#d62728"/>
<circle cx="169.4" cy="540.1" r="3" fill="#d62728"/>
<circle cx="172.9" cy="545.5" r="3" fill="#d62728"/>
<circle cx="176.5" cy="538.8" r="3" fill="#d62728"/>
<circle cx="180.0" cy="543.9" r="3" fill="#d62728"/>
<circle cx="183.6" cy="544.4" r="3" fill="#d62728"/>
<circle cx="187.1" cy="536.5" r="3" fill="#d62728"/>
<circle cx="190.7" cy="542.1" r="3" fill="#d62728"/>
<circle cx="194.2" cy="550.5" r="3" fill="#d62728"/>
<circle cx="197.7" cy="547.7" r="3" fill="#d62728"/>
<circle cx="201.3" cy="541.9" r="3" fill="#d62728"/>
<circle cx="204.8" cy="548.9" r="3" fill="#d62728"/>
<circle cx="208.4" cy="543.5" r="3" fill="#d62728"/>
<circle cx="211.9" cy="544.4" r="3" fill="#d62728"/>
<circle cx="215.5" cy="542.2" r="3" fill="#d62728"/>
<circle cx="219.0" cy="533.4" r="3" fill="#d62728"/>
<circle cx="222.5" cy="532.5" r="3" fill="#d62728"/>
<circle cx="226.1" cy="528.6" r="3" fill="#d62728"/>
<circle cx="229.6" cy="521.3" r="3" fill="#d62728"/>
<circle cx="233.2" cy="524.8" r="3" fill="#d62728"/>
<circle cx="236.7" cy="502.3" r="3" fill="#d62728"/>
<circle cx="240.3" cy="513.0" r="3" fill="#d62728"/>
<circle cx="243.8" cy="512.9" r="3" fill="#d62728"/>
<circle cx="247.3" cy="511.5" r="3" fill="#d62728"/>
<circle cx="250.9" cy="456.2" r="3" fill="#d62728"/>
<circle cx="254.4" cy="479.2" r="3" fill="#d62728"/>
<circle cx="258.0" cy="469.7" r="3" fill="#d62728"/>
<circle cx="261.5" cy="470.1" r="3" fill="#d62728"/>
<circle cx="265.1" cy="479.7" r="3" fill="#d62728"/>
<circle cx="268.6" cy="479.9" r="3" fill="#d62728"/>
<circle cx="272.1" cy="452.2" r="3" fill="#d62728"/>
<circle cx="275.7" cy="463.1" r="3" fill="#d62728"/>
<circle cx="279.2" cy="463.3" r="3" fill="#d62728"/>
<circle cx="282.8" cy="480.2" r="3" fill="#d62728"/>
<circle cx="286.3" cy="478.6" r="3" fill="#d62728"/>
<circle cx="289.8" cy="500.3" r="3" fill="#d62728"/>
<circle cx="293.4" cy="476.1" r="3" fill="#d62728"/>
<circle cx="296.9" cy="470.3" r="3" fill="#d62728"/>
<circle cx="300.5" cy="481.7" r="3" fill="#d62728"/>
<circle cx="304.0" cy="474.6" r="3" fill="#d62728"/>
<circle cx="307.6" cy="493.4" r="3" fill="#d62728"/>
<circle cx="311.1" cy="467.9" r="3" fill="#d62728"/>
<circle cx="314.6" cy="469.0" r="3" fill="#d62728"/>
<circle cx="318.2" cy="472.2" r="3" fill="#d62728"/>
<circle cx="321.7" cy="463.3" r="3" fill="#d62728"/>
<circle cx="325.3" cy="460.7" r="3" fill="#d62728"/>
<circle cx="328.8" cy="463.3" r="3" fill="#d62728"/>
<circle cx="332.4" cy="426.9" r="3" fill="#d62728"/>
<circle cx="335.9" cy="451.8" r="3" fill="#d62728"/>
<circle cx="339.4" cy="418.8" r="3" fill="#d62728"/>
<circle cx="343.0" cy="450.2" r="3" fill="#d62728"/>
<circle cx="346.5" cy="402.8" r="3" fill="#d62728"/>
<circle cx="350.1" cy="422.8" r="3" fill="#d62728"/>
<circle cx="353.6" cy="434.9" r="3" fill="#d62728"/>
<circle cx="357.2" cy="444.5" r="3" fill="#d62728"/>
<circle cx="360.7" cy="408.4" r="3" fill="#d62728"/>
<circle cx="364.2" cy="426.1" r="3" fill="#d62728"/>
<circle cx="367.8" cy="428.1" r="3" fill="#d62728"/>
<circle cx="371.3" cy="383.2" r="3" fill="#d62728"/>
<circle cx="374.9" cy="379.5" r="3" fill="#d62728"/>
<circle cx="378.4" cy="413.7" r="3" fill="#d62728"/>
<circle cx="382.0" cy="384.0" r="3" fill="#d62728"/>
<circle cx="385.5" cy="398.9" r="3" fill="#d62728"/>
<circle cx="389.0" cy="420.4" r="3" fill="#d62728"/>
<circle cx="392.6" cy="440.8" r="3" fill="#d62728"/>
<circle cx="396.1" cy="420.9" r="3" fill="#d62728"/>
<circle cx="399.7" cy="453.1" r="3" fill="#d62728"/>
<circle cx="403.2" cy="449.3" r="3" fill="#d62728"/>
<circle cx="406.8" cy="449.3" r="3" fill="#d62728"/>
<circle cx="410.3" cy="456.6" r="3" fill="#d62728"/>
<circle cx="413.8" cy="425.3" r="3" fill="#d62728"/>
<circle cx="417.4" cy="436.8" r="3" fill="#d62728"/>
<circle cx="420.9" cy="470.1" r="3" fill="#d62728"/>
<circle cx="424.5" cy="466.9" r="3" fill="#d62728"/>
<circle cx="428.0" cy="465.9" r="3" fill="#d62728"/>
<circle cx="431.6" cy="461.6" r="3" fill="#d62728"/>
<circle cx="435.1" cy="464.7" r="3" fill="#d62728"/>
<circle cx="438.6" cy="443.0" r="3" fill="#d62728"/>
<circle cx="442.2" cy="440.2" r="3" fill="#d62728"/>
<circle cx="445.7" cy="480.9" r="3" fill="#d62728"/>
<circle cx="449.3" cy="465.8" r="3" fill="#d62728"/>
<circle cx="452.8" cy="431.2" r="3" fill="#d62728"/>
<circle cx="456.4" cy="450.9" r="3" fill="#d62728"/>
<circle cx="459.9" cy="455.3" r="3" fill="#d62728"/>
<circle cx="463.4" cy="430.2" r="3" fill="#d62728"/>
<circle cx="467.0" cy="447.0" r="3" fill="#d62728"/>
<circle cx="470.5" cy="422.6" r="3" fill="#d62728"/>
<circle cx="474.1" cy="432.5" r="3" fill="#d62728"/>
<circle cx="477.6" cy="400.9" r="3" fill="#d62728"/>
<circle cx="481.2" cy="429.0" r="3" fill="#d62728"/>
<circle cx="484.7" cy="417.1" r="3" fill="#d62728"/>
<circle cx="488.2" cy="417.2" r="3" fill="#d62728"/>
<circle cx="491.8" cy="436.0" r="3" fill="#d62728"/>
<circle cx="495.3" cy="425.2" r="3" fill="#d62728"/>
<circle cx="498.9" cy="433.7" r="3" fill="#d62728"/>
<circle cx="502.4" cy="428.5" r="3" fill="#d62728"/>
<circle cx="506.0" cy="410.2" r="3" fill="#d62728"/>
<circle cx="509.5" cy="425.6" r="3" fill="#d62728"/>
<circle cx="513.0" cy="423.6" r="3" fill="#d62728"/>
<circle cx="516.6" cy="421.0" r="3" fill="#d62728"/>
<circle cx="520.1" cy="412.7" r="3" fill="#d62728"/>
<circle cx="523.7" cy="381.6" r="3" fill="#d62728"/>
<circle cx="527.2" cy="423.1" r="3" fill="#d62728"/>
<circle cx="530.8" cy="399.6" r="3" fill="#d62728"/>
<circle cx="534.3" cy="388.8" r="3" fill="#d62728"/>
<circle cx="537.8" cy="406.8" r="3" fill="#d62728"/>
<circle cx="541.4" cy="391.5" r="3" fill="#d62728"/>
<circle cx="544.9" cy="393.8" r="3" fill="#d62728"/>
<circle cx="548.5" cy="392.1" r="3" fill="#d62728"/>
<circle cx="552.0" cy="419.8" r="3" fill="#d62728"/>
<circle cx="555.6" cy="409.4" r="3" fill="#d62728"/>
<circle cx="559.1" cy="442.2" r="3" fill="#d62728"/>
<circle cx="562.6" cy="401.6" r="3" fill="#d62728"/>
<circle cx="566.2" cy="397.8" r="3" fill="#d62728"/>
<circle cx="569.7" cy="402.9" r="3" fill="#d62728"/>
<circle cx="573.3" cy="405.7" r="3" fill="#d62728"/>
<circle cx="576.8" cy="405.5" r="3" fill="#d62728"/>
<circle cx="580.4" cy="382.8" r="3" fill="#d62728"/>
<circle cx="583.9" cy="397.7" r="3" fill="#d62728"/>
<circle cx="587.4" cy="409.2" r="3" fill="#d62728"/>
<circle cx="591.0" cy="410.4" r="3" fill="#d62728"/>
<circle cx="594.5" cy="412.9" r="3" fill="#d62728"/>
<circle cx="598.1" cy="376.8" r="3" fill="#d62728"/>
<circle cx="601.6" cy="417.2" r="3" fill="#d62728"/>
<circle cx="605.2" cy="333.6" r="3" fill="#d62728"/>
<circle cx="608.7" cy="406.3" r="3" fill="#d62728"/>
<circle cx="612.2" cy="437.5" r="3" fill="#d62728"/>
<circle cx="615.8" cy="379.8" r="3" fill="#d62728"/>
<circle cx="619.3" cy="339.4" r="3" fill="#d62728"/>
<circle cx="622.9" cy="325.5" r="3" fill="#d62728"/>
<circle cx="626.4" cy="316.5" r="3" fill="#d62728"/>
<circle cx="629.9" cy="369.7" r="3" fill="#d62728"/>
<circle cx="633.5" cy="372.8" r="3" fill="#d62728"/>
<circle cx="637.0" cy="346.9" r="3" fill="#d62728"/>
<circle cx="640.6" cy="385.7" r="3" fill="#d62728"/>
<circle cx="644.1" cy="359.8" r="3" fill="#d62728"/>
<circle cx="647.7" cy="365.1" r="3" fill="#d62728"/>
<circle cx="651.2" cy="370.1" r="3" fill="#d62728"/>
<circle cx="654.7" cy="355.3" r="3" fill="#d62728"/>
<circle cx="658.3" cy="391.4" r="3" fill="#d62728"/>
<circle cx="661.8" cy="373.6" r="3" fill="#d62728"/>
<circle cx="665.4" cy="380.9" r="3" fill="#d62728"/>
<circle cx="668.9" cy="419.1" r="3" fill="#d62728"/>
<circle cx="672.5" cy="391.2" r="3" fill="#d62728"/>
<circle cx="676.0" cy="380.4" r="3" fill="#d62728"/>
<circle cx="679.5" cy="444.4" r="3" fill="#d62728"/>
<circle cx="683.1" cy="431.4" r="3" fill="#d62728"/>
<circle cx="686.6" cy="390.6" r="3" fill="#d62728"/>
<circle cx="690.2" cy="424.2" r="3" fill="#d62728"/>
<circle cx="693.7" cy="415.4" r="3" fill="#d62728"/>
<circle cx="697.3" cy="405.1" r="3" fill="#d62728"/>
<circle cx="700.8" cy="413.5" r="3" fill="#d62728"/>
<circle cx="704.3" cy="425.1" r="3" fill="#d62728"/>
<circle cx="707.9" cy="391.5" r="3" fill="#d62728"/>
<circle cx="711.4" cy="407.5" r="3" fill="#d62728"/>
<circle cx="715.0" cy="412.2" r="3" fill="#d62728"/>
<circle cx="718.5" cy="405.3" r="3" fill="#d62728"/>
<circle cx="722.1" cy="423.1" r="3" fill="#d62728"/>
<circle cx="725.6" cy="435.3" r="3" fill="#d62728"/>
<circle cx="729.1" cy="411.5" r="3" fill="#d62728"/>
<circle cx="732.7" cy="406.9" r="3" fill="#d62728"/>
<circle cx="736.2" cy="417.1" r="3" fill="#d62728"/>
<circle cx="739.8" cy="422.3" r="3" fill="#d62728"/>
<circle cx="743.3" cy="410.7" r="3" fill="#d62728"/>
<circle cx="746.9" cy="394.2" r="3" fill="#d62728"/>
<circle cx="750.4" cy="368.3" r="3" fill="#d62728"/>
<circle cx="753.9" cy="358.5" r="3" fill="#d62728"/>
<circle cx="757.5" cy="403.4" r="3" fill="#d62728"/>
<circle cx="761.0" cy="387.5" r="3" fill="#d62728"/>
<circle cx="764.6" cy="405.9" r="3" fill="#d62728"/>
<circle cx="768.1" cy="381.3" r="3" fill="#d62728"/>
<circle cx="771.7" cy="394.5" r="3" fill="#d62728"/>
<circle cx="775.2" cy="377.8" r="3" fill="#d62728"/>
<circle cx="778.7" cy="357.8" r="3" fill="#d62728"/>
<circle cx="782.3" cy="414.9" r="3" fill="#d62728"/>
<circle cx="785.8" cy="395.3" r="3" fill="#d62728"/>
<circle cx="789.4" cy="366.5" r="3" fill="#d62728"/>
<circle cx="792.9" cy="351.2" r="3" fill="#d62728"/>
<circle cx="796.5" cy="381.5" r="3" fill="#d62728"/>
<circle cx="800.0" cy="335.9" r="3" fill="#d62728"/>
<line x1="828" y1="120" x2="850" y2="120" stroke="#d62728" stroke-width="2.5"/>
<text x="858" y="124" font-family="Arial" font-size="13">GRPO-No-Clip (e2/tb256)</text>
<text x="447.5" y="638" text-anchor="middle" font-family="Arial" font-size="15">GRPO step</text>
<text x="24" y="326.0" text-anchor="middle" font-family="Arial" font-size="15" transform="rotate(-90 24 326.0)">Average rollout response tokens</text>
</svg>
