<svg xmlns="http://www.w3.org/2000/svg" width="960" height="600" viewBox="0 0 960 600">
<rect width="100%" height="100%" fill="white"/>
<text x="480.0" y="34" text-anchor="middle" font-family="Arial" font-size="22" font-weight="700">SFT Validation Accuracy by Dataset Size</text>
<line x1="90" y1="520" x2="730" y2="520" stroke="#222" stroke-width="1.5"/>
<line x1="90" y1="70" x2="90" y2="520" stroke="#222" stroke-width="1.5"/>
<line x1="85" y1="520.0" x2="730" y2="520.0" stroke="#ddd" stroke-width="1"/>
<text x="78" y="524.0" text-anchor="end" font-family="Arial" font-size="12">0.00</text>
<line x1="85" y1="430.0" x2="730" y2="430.0" stroke="#ddd" stroke-width="1"/>
<text x="78" y="434.0" text-anchor="end" font-family="Arial" font-size="12">0.09</text>
<line x1="85" y1="340.0" x2="730" y2="340.0" stroke="#ddd" stroke-width="1"/>
<text x="78" y="344.0" text-anchor="end" font-family="Arial" font-size="12">0.18</text>
<line x1="85" y1="250.0" x2="730" y2="250.0" stroke="#ddd" stroke-width="1"/>
<text x="78" y="254.0" text-anchor="end" font-family="Arial" font-size="12">0.27</text>
<line x1="85" y1="160.0" x2="730" y2="160.0" stroke="#ddd" stroke-width="1"/>
<text x="78" y="164.0" text-anchor="end" font-family="Arial" font-size="12">0.36</text>
<line x1="85" y1="70.0" x2="730" y2="70.0" stroke="#ddd" stroke-width="1"/>
<text x="78" y="74.0" text-anchor="end" font-family="Arial" font-size="12">0.45</text>
<line x1="90.0" y1="520" x2="90.0" y2="525" stroke="#222" stroke-width="1"/>
<text x="90.0" y="544" text-anchor="middle" font-family="Arial" font-size="12">0</text>
<line x1="218.0" y1="520" x2="218.0" y2="525" stroke="#222" stroke-width="1"/>
<text x="218.0" y="544" text-anchor="middle" font-family="Arial" font-size="12">180</text>
<line x1="346.0" y1="520" x2="346.0" y2="525" stroke="#222" stroke-width="1"/>
<text x="346.0" y="544" text-anchor="middle" font-family="Arial" font-size="12">360</text>
<line x1="474.0" y1="520" x2="474.0" y2="525" stroke="#222" stroke-width="1"/>
<text x="474.0" y="544" text-anchor="middle" font-family="Arial" font-size="12">540</text>
<line x1="602.0" y1="520" x2="602.0" y2="525" stroke="#222" stroke-width="1"/>
<text x="602.0" y="544" text-anchor="middle" font-family="Arial" font-size="12">720</text>
<line x1="730.0" y1="520" x2="730.0" y2="525" stroke="#222" stroke-width="1"/>
<text x="730.0" y="544" text-anchor="middle" font-family="Arial" font-size="12">900</text>
<polyline points="90.0,490.0 161.1,154.9 232.2,108.6 303.3,121.8 374.4,124.6 445.6,147.1 516.7,168.3 587.8,185.2 658.9,196.1 730.0,205.2" fill="none" stroke="#1f77b4" stroke-width="2.5" stroke-linejoin="round" stroke-linecap="round"/>
<circle cx="90.0" cy="490.0" r="3" fill="#1f77b4"/>
<circle cx="161.1" cy="154.9" r="3" fill="#1f77b4"/>
<circle cx="232.2" cy="108.6" r="3" fill="#1f77b4"/>
<circle cx="303.3" cy="121.8" r="3" fill="#1f77b4"/>
<circle cx="374.4" cy="124.6" r="3" fill="#1f77b4"/>
<circle cx="445.6" cy="147.1" r="3" fill="#1f77b4"/>
<circle cx="516.7" cy="168.3" r="3" fill="#1f77b4"/>
<circle cx="587.8" cy="185.2" r="3" fill="#1f77b4"/>
<circle cx="658.9" cy="196.1" r="3" fill="#1f77b4"/>
<circle cx="730.0" cy="205.2" r="3" fill="#1f77b4"/>
<line x1="760" y1="70" x2="784" y2="70" stroke="#1f77b4" stroke-width="3"/>
<text x="794" y="74" font-family="Arial" font-size="13">128 examples</text>
<polyline points="90.0,480.0 161.1,173.6 232.2,125.2 303.3,103.9 374.4,104.6 445.6,98.0 516.7,109.9 587.8,113.3 658.9,132.4 730.0,137.4" fill="none" stroke="#d62728" stroke-width="2.5" stroke-linejoin="round" stroke-linecap="round"/>
<circle cx="90.0" cy="480.0" r="3" fill="#d62728"/>
<circle cx="161.1" cy="173.6" r="3" fill="#d62728"/>
<circle cx="232.2" cy="125.2" r="3" fill="#d62728"/>
<circle cx="303.3" cy="103.9" r="3" fill="#d62728"/>
<circle cx="374.4" cy="104.6" r="3" fill="#d62728"/>
<circle cx="445.6" cy="98.0" r="3" fill="#d62728"/>
<circle cx="516.7" cy="109.9" r="3" fill="#d62728"/>
<circle cx="587.8" cy="113.3" r="3" fill="#d62728"/>
<circle cx="658.9" cy="132.4" r="3" fill="#d62728"/>
<circle cx="730.0" cy="137.4" r="3" fill="#d62728"/>
<line x1="760" y1="96" x2="784" y2="96" stroke="#d62728" stroke-width="3"/>
<text x="794" y="100" font-family="Arial" font-size="13">256 examples</text>
<polyline points="90.0,467.8 161.1,225.5 232.2,158.3 303.3,158.3 374.4,143.0 445.6,147.1 516.7,128.0 587.8,111.1 658.9,123.3 730.0,103.6" fill="none" stroke="#2ca02c" stroke-width="2.5" stroke-linejoin="round" stroke-linecap="round"/>
<circle cx="90.0" cy="467.8" r="3" fill="#2ca02c"/>
<circle cx="161.1" cy="225.5" r="3" fill="#2ca02c"/>
<circle cx="232.2" cy="158.3" r="3" fill="#2ca02c"/>
<circle cx="303.3" cy="158.3" r="3" fill="#2ca02c"/>
<circle cx="374.4" cy="143.0" r="3" fill="#2ca02c"/>
<circle cx="445.6" cy="147.1" r="3" fill="#2ca02c"/>
<circle cx="516.7" cy="128.0" r="3" fill="#2ca02c"/>
<circle cx="587.8" cy="111.1" r="3" fill="#2ca02c"/>
<circle cx="658.9" cy="123.3" r="3" fill="#2ca02c"/>
<circle cx="730.0" cy="103.6" r="3" fill="#2ca02c"/>
<line x1="760" y1="122" x2="784" y2="122" stroke="#2ca02c" stroke-width="3"/>
<text x="794" y="126" font-family="Arial" font-size="13">512 examples</text>
<polyline points="90.0,480.0 161.1,267.4 232.2,197.4 303.3,218.3 374.4,191.1 445.6,193.0 516.7,163.0 587.8,184.6 658.9,152.1 730.0,141.4" fill="none" stroke="#9467bd" stroke-width="2.5" stroke-linejoin="round" stroke-linecap="round"/>
<circle cx="90.0" cy="480.0" r="3" fill="#9467bd"/>
<circle cx="161.1" cy="267.4" r="3" fill="#9467bd"/>
<circle cx="232.2" cy="197.4" r="3" fill="#9467bd"/>
<circle cx="303.3" cy="218.3" r="3" fill="#9467bd"/>
<circle cx="374.4" cy="191.1" r="3" fill="#9467bd"/>
<circle cx="445.6" cy="193.0" r="3" fill="#9467bd"/>
<circle cx="516.7" cy="163.0" r="3" fill="#9467bd"/>
<circle cx="587.8" cy="184.6" r="3" fill="#9467bd"/>
<circle cx="658.9" cy="152.1" r="3" fill="#9467bd"/>
<circle cx="730.0" cy="141.4" r="3" fill="#9467bd"/>
<line x1="760" y1="148" x2="784" y2="148" stroke="#9467bd" stroke-width="3"/>
<text x="794" y="152" font-family="Arial" font-size="13">1024 examples</text>
<polyline points="90.0,488.4 161.1,347.8 232.2,324.9 303.3,345.9 374.4,274.0 445.6,296.8 516.7,303.4 587.8,259.3 658.9,295.9 730.0,299.9" fill="none" stroke="#ff7f0e" stroke-width="2.5" stroke-linejoin="round" stroke-linecap="round"/>
<circle cx="90.0" cy="488.4" r="3" fill="#ff7f0e"/>
<circle cx="161.1" cy="347.8" r="3" fill="#ff7f0e"/>
<circle cx="232.2" cy="324.9" r="3" fill="#ff7f0e"/>
<circle cx="303.3" cy="345.9" r="3" fill="#ff7f0e"/>
<circle cx="374.4" cy="274.0" r="3" fill="#ff7f0e"/>
<circle cx="445.6" cy="296.8" r="3" fill="#ff7f0e"/>
<circle cx="516.7" cy="303.4" r="3" fill="#ff7f0e"/>
<circle cx="587.8" cy="259.3" r="3" fill="#ff7f0e"/>
<circle cx="658.9" cy="295.9" r="3" fill="#ff7f0e"/>
<circle cx="730.0" cy="299.9" r="3" fill="#ff7f0e"/>
<line x1="760" y1="174" x2="784" y2="174" stroke="#ff7f0e" stroke-width="3"/>
<text x="794" y="178" font-family="Arial" font-size="13">Noisy full</text>
<text x="410.0" y="576" text-anchor="middle" font-family="Arial" font-size="15">Optimizer step</text>
<text transform="translate(24 295.0) rotate(-90)" text-anchor="middle" font-family="Arial" font-size="15">Validation answer accuracy</text>
</svg>
