<svg xmlns="http://www.w3.org/2000/svg" width="1040" height="640" viewBox="0 0 1040 640">
<rect width="100%" height="100%" fill="white"/>
<text x="520.0" y="36" text-anchor="middle" font-family="Arial" font-size="22" font-weight="700">GRPO rollout response length by group std normalization</text>
<line x1="95" y1="558" x2="780" y2="558" stroke="#222" stroke-width="1.5"/>
<line x1="95" y1="74" x2="95" y2="558" stroke="#222" stroke-width="1.5"/>
<line x1="90" y1="558.0" x2="780" y2="558.0" stroke="#ddd" stroke-width="1"/>
<text x="83" y="562.0" text-anchor="end" font-family="Arial" font-size="12">0.00</text>
<line x1="90" y1="461.2" x2="780" y2="461.2" stroke="#ddd" stroke-width="1"/>
<text x="83" y="465.2" text-anchor="end" font-family="Arial" font-size="12">124.12</text>
<line x1="90" y1="364.4" x2="780" y2="364.4" stroke="#ddd" stroke-width="1"/>
<text x="83" y="368.4" text-anchor="end" font-family="Arial" font-size="12">248.24</text>
<line x1="90" y1="267.6" x2="780" y2="267.6" stroke="#ddd" stroke-width="1"/>
<text x="83" y="271.6" text-anchor="end" font-family="Arial" font-size="12">372.36</text>
<line x1="90" y1="170.8" x2="780" y2="170.8" stroke="#ddd" stroke-width="1"/>
<text x="83" y="174.8" text-anchor="end" font-family="Arial" font-size="12">496.48</text>
<line x1="90" y1="74.0" x2="780" y2="74.0" stroke="#ddd" stroke-width="1"/>
<text x="83" y="78.0" text-anchor="end" font-family="Arial" font-size="12">620.60</text>
<line x1="95.0" y1="558" x2="95.0" y2="563" stroke="#222" stroke-width="1"/>
<text x="95.0" y="582" text-anchor="middle" font-family="Arial" font-size="12">1</text>
<line x1="232.0" y1="558" x2="232.0" y2="563" stroke="#222" stroke-width="1"/>
<text x="232.0" y="582" text-anchor="middle" font-family="Arial" font-size="12">41</text>
<line x1="369.0" y1="558" x2="369.0" y2="563" stroke="#222" stroke-width="1"/>
<text x="369.0" y="582" text-anchor="middle" font-family="Arial" font-size="12">81</text>
<line x1="506.0" y1="558" x2="506.0" y2="563" stroke="#222" stroke-width="1"/>
<text x="506.0" y="582" text-anchor="middle" font-family="Arial" font-size="12">120</text>
<line x1="643.0" y1="558" x2="643.0" y2="563" stroke="#222" stroke-width="1"/>
<text x="643.0" y="582" text-anchor="middle" font-family="Arial" font-size="12">160</text>
<line x1="780.0" y1="558" x2="780.0" y2="563" stroke="#222" stroke-width="1"/>
<text x="780.0" y="582" text-anchor="middle" font-family="Arial" font-size="12">200</text>
<polyline fill="none" stroke="#1f77b4" stroke-width="2.3" points="95.0,320.4 98.4,465.8 101.9,428.0 105.3,390.0 108.8,356.9 112.2,351.0 115.7,359.1 119.1,393.5 122.5,373.6 126.0,400.9 129.4,378.3 132.9,391.8 136.3,369.4 139.7,380.9 143.2,365.5 146.6,358.8 150.1,359.6 153.5,355.1 157.0,354.4 160.4,346.4 163.8,333.5 167.3,309.9 170.7,320.9 174.2,341.5 177.6,344.4 181.1,321.3 184.5,341.8 187.9,310.1 191.4,305.8 194.8,283.2 198.3,326.6 201.7,343.5 205.2,364.6 208.6,317.1 212.0,303.6 215.5,313.0 218.9,328.5 222.4,320.2 225.8,333.4 229.2,290.3 232.7,331.4 236.1,290.1 239.6,301.4 243.0,304.0 246.5,291.6 249.9,253.7 253.3,344.5 256.8,252.9 260.2,295.5 263.7,325.1 267.1,302.5 270.6,314.0 274.0,294.8 277.4,335.4 280.9,312.1 284.3,264.0 287.8,333.8 291.2,284.3 294.6,270.8 298.1,235.1 301.5,294.9 305.0,283.5 308.4,302.7 311.9,197.0 315.3,257.5 318.7,267.5 322.2,203.8 325.6,257.1 329.1,250.4 332.5,226.7 336.0,172.4 339.4,222.9 342.8,217.0 346.3,202.1 349.7,177.5 353.2,220.9 356.6,139.1 360.1,187.8 363.5,190.1 366.9,247.1 370.4,200.2 373.8,207.9 377.3,192.2 380.7,132.0 384.1,188.9 387.6,180.1 391.0,242.1 394.5,207.0 397.9,243.1 401.4,234.1 404.8,166.1 408.2,115.8 411.7,190.7 415.1,170.0 418.6,185.0 422.0,158.7 425.5,167.8 428.9,161.4 432.3,200.7 435.8,208.6 439.2,180.7 442.7,270.0 446.1,285.6 449.5,275.5 453.0,268.9 456.4,275.7 459.9,274.1 463.3,249.3 466.8,275.4 470.2,263.8 473.6,202.1 477.1,252.5 480.5,276.3 484.0,228.9 487.4,249.8 490.9,180.3 494.3,261.3 497.7,244.6 501.2,220.1 504.6,205.0 508.1,191.7 511.5,95.3 514.9,143.6 518.4,238.8 521.8,168.7 525.3,181.2 528.7,172.1 532.2,137.8 535.6,162.5 539.0,206.7 542.5,182.1 545.9,191.1 549.4,177.7 552.8,159.0 556.3,187.0 559.7,178.9 563.1,202.2 566.6,197.0 570.0,210.2 573.5,113.6 576.9,171.6 580.4,163.0 583.8,191.6 587.2,137.8 590.7,176.4 594.1,183.7 597.6,183.6 601.0,152.3 604.4,143.7 607.9,160.8 611.3,154.1 614.8,150.6 618.2,204.6 621.7,172.4 625.1,195.1 628.5,211.4 632.0,96.4 635.4,196.0 638.9,115.7 642.3,103.0 645.8,132.0 649.2,222.9 652.6,202.3 656.1,153.7 659.5,211.3 663.0,204.5 666.4,186.1 669.8,237.6 673.3,218.4 676.7,215.8 680.2,229.2 683.6,248.1 687.1,205.2 690.5,189.4 693.9,200.9 697.4,220.6 700.8,189.1 704.3,190.3 707.7,243.3 711.2,197.5 714.6,183.7 718.0,227.6 721.5,227.5 724.9,219.6 728.4,249.4 731.8,191.1 735.3,242.3 738.7,198.7 742.1,173.9 745.6,163.3 749.0,190.2 752.5,248.8 755.9,234.8 759.3,199.2 762.8,144.0 766.2,109.4 769.7,208.7 773.1,176.8 776.6,145.3 780.0,193.9"/>
<circle cx="95.0" cy="320.4" r="3" fill="#1f77b4"/>
<circle cx="98.4" cy="465.8" r="3" fill="#1f77b4"/>
<circle cx="101.9" cy="428.0" r="3" fill="#1f77b4"/>
<circle cx="105.3" cy="390.0" r="3" fill="#1f77b4"/>
<circle cx="108.8" cy="356.9" r="3" fill="#1f77b4"/>
<circle cx="112.2" cy="351.0" r="3" fill="#1f77b4"/>
<circle cx="115.7" cy="359.1" r="3" fill="#1f77b4"/>
<circle cx="119.1" cy="393.5" r="3" fill="#1f77b4"/>
<circle cx="122.5" cy="373.6" r="3" fill="#1f77b4"/>
<circle cx="126.0" cy="400.9" r="3" fill="#1f77b4"/>
<circle cx="129.4" cy="378.3" r="3" fill="#1f77b4"/>
<circle cx="132.9" cy="391.8" r="3" fill="#1f77b4"/>
<circle cx="136.3" cy="369.4" r="3" fill="#1f77b4"/>
<circle cx="139.7" cy="380.9" r="3" fill="#1f77b4"/>
<circle cx="143.2" cy="365.5" r="3" fill="#1f77b4"/>
<circle cx="146.6" cy="358.8" r="3" fill="#1f77b4"/>
<circle cx="150.1" cy="359.6" r="3" fill="#1f77b4"/>
<circle cx="153.5" cy="355.1" r="3" fill="#1f77b4"/>
<circle cx="157.0" cy="354.4" r="3" fill="#1f77b4"/>
<circle cx="160.4" cy="346.4" r="3" fill="#1f77b4"/>
<circle cx="163.8" cy="333.5" r="3" fill="#1f77b4"/>
<circle cx="167.3" cy="309.9" r="3" fill="#1f77b4"/>
<circle cx="170.7" cy="320.9" r="3" fill="#1f77b4"/>
<circle cx="174.2" cy="341.5" r="3" fill="#1f77b4"/>
<circle cx="177.6" cy="344.4" r="3" fill="#1f77b4"/>
<circle cx="181.1" cy="321.3" r="3" fill="#1f77b4"/>
<circle cx="184.5" cy="341.8" r="3" fill="#1f77b4"/>
<circle cx="187.9" cy="310.1" r="3" fill="#1f77b4"/>
<circle cx="191.4" cy="305.8" r="3" fill="#1f77b4"/>
<circle cx="194.8" cy="283.2" r="3" fill="#1f77b4"/>
<circle cx="198.3" cy="326.6" r="3" fill="#1f77b4"/>
<circle cx="201.7" cy="343.5" r="3" fill="#1f77b4"/>
<circle cx="205.2" cy="364.6" r="3" fill="#1f77b4"/>
<circle cx="208.6" cy="317.1" r="3" fill="#1f77b4"/>
<circle cx="212.0" cy="303.6" r="3" fill="#1f77b4"/>
<circle cx="215.5" cy="313.0" r="3" fill="#1f77b4"/>
<circle cx="218.9" cy="328.5" r="3" fill="#1f77b4"/>
<circle cx="222.4" cy="320.2" r="3" fill="#1f77b4"/>
<circle cx="225.8" cy="333.4" r="3" fill="#1f77b4"/>
<circle cx="229.2" cy="290.3" r="3" fill="#1f77b4"/>
<circle cx="232.7" cy="331.4" r="3" fill="#1f77b4"/>
<circle cx="236.1" cy="290.1" r="3" fill="#1f77b4"/>
<circle cx="239.6" cy="301.4" r="3" fill="#1f77b4"/>
<circle cx="243.0" cy="304.0" r="3" fill="#1f77b4"/>
<circle cx="246.5" cy="291.6" r="3" fill="#1f77b4"/>
<circle cx="249.9" cy="253.7" r="3" fill="#1f77b4"/>
<circle cx="253.3" cy="344.5" r="3" fill="#1f77b4"/>
<circle cx="256.8" cy="252.9" r="3" fill="#1f77b4"/>
<circle cx="260.2" cy="295.5" r="3" fill="#1f77b4"/>
<circle cx="263.7" cy="325.1" r="3" fill="#1f77b4"/>
<circle cx="267.1" cy="302.5" r="3" fill="#1f77b4"/>
<circle cx="270.6" cy="314.0" r="3" fill="#1f77b4"/>
<circle cx="274.0" cy="294.8" r="3" fill="#1f77b4"/>
<circle cx="277.4" cy="335.4" r="3" fill="#1f77b4"/>
<circle cx="280.9" cy="312.1" r="3" fill="#1f77b4"/>
<circle cx="284.3" cy="264.0" r="3" fill="#1f77b4"/>
<circle cx="287.8" cy="333.8" r="3" fill="#1f77b4"/>
<circle cx="291.2" cy="284.3" r="3" fill="#1f77b4"/>
<circle cx="294.6" cy="270.8" r="3" fill="#1f77b4"/>
<circle cx="298.1" cy="235.1" r="3" fill="#1f77b4"/>
<circle cx="301.5" cy="294.9" r="3" fill="#1f77b4"/>
<circle cx="305.0" cy="283.5" r="3" fill="#1f77b4"/>
<circle cx="308.4" cy="302.7" r="3" fill="#1f77b4"/>
<circle cx="311.9" cy="197.0" r="3" fill="#1f77b4"/>
<circle cx="315.3" cy="257.5" r="3" fill="#1f77b4"/>
<circle cx="318.7" cy="267.5" r="3" fill="#1f77b4"/>
<circle cx="322.2" cy="203.8" r="3" fill="#1f77b4"/>
<circle cx="325.6" cy="257.1" r="3" fill="#1f77b4"/>
<circle cx="329.1" cy="250.4" r="3" fill="#1f77b4"/>
<circle cx="332.5" cy="226.7" r="3" fill="#1f77b4"/>
<circle cx="336.0" cy="172.4" r="3" fill="#1f77b4"/>
<circle cx="339.4" cy="222.9" r="3" fill="#1f77b4"/>
<circle cx="342.8" cy="217.0" r="3" fill="#1f77b4"/>
<circle cx="346.3" cy="202.1" r="3" fill="#1f77b4"/>
<circle cx="349.7" cy="177.5" r="3" fill="#1f77b4"/>
<circle cx="353.2" cy="220.9" r="3" fill="#1f77b4"/>
<circle cx="356.6" cy="139.1" r="3" fill="#1f77b4"/>
<circle cx="360.1" cy="187.8" r="3" fill="#1f77b4"/>
<circle cx="363.5" cy="190.1" r="3" fill="#1f77b4"/>
<circle cx="366.9" cy="247.1" r="3" fill="#1f77b4"/>
<circle cx="370.4" cy="200.2" r="3" fill="#1f77b4"/>
<circle cx="373.8" cy="207.9" r="3" fill="#1f77b4"/>
<circle cx="377.3" cy="192.2" r="3" fill="#1f77b4"/>
<circle cx="380.7" cy="132.0" r="3" fill="#1f77b4"/>
<circle cx="384.1" cy="188.9" r="3" fill="#1f77b4"/>
<circle cx="387.6" cy="180.1" r="3" fill="#1f77b4"/>
<circle cx="391.0" cy="242.1" r="3" fill="#1f77b4"/>
<circle cx="394.5" cy="207.0" r="3" fill="#1f77b4"/>
<circle cx="397.9" cy="243.1" r="3" fill="#1f77b4"/>
<circle cx="401.4" cy="234.1" r="3" fill="#1f77b4"/>
<circle cx="404.8" cy="166.1" r="3" fill="#1f77b4"/>
<circle cx="408.2" cy="115.8" r="3" fill="#1f77b4"/>
<circle cx="411.7" cy="190.7" r="3" fill="#1f77b4"/>
<circle cx="415.1" cy="170.0" r="3" fill="#1f77b4"/>
<circle cx="418.6" cy="185.0" r="3" fill="#1f77b4"/>
<circle cx="422.0" cy="158.7" r="3" fill="#1f77b4"/>
<circle cx="425.5" cy="167.8" r="3" fill="#1f77b4"/>
<circle cx="428.9" cy="161.4" r="3" fill="#1f77b4"/>
<circle cx="432.3" cy="200.7" r="3" fill="#1f77b4"/>
<circle cx="435.8" cy="208.6" r="3" fill="#1f77b4"/>
<circle cx="439.2" cy="180.7" r="3" fill="#1f77b4"/>
<circle cx="442.7" cy="270.0" r="3" fill="#1f77b4"/>
<circle cx="446.1" cy="285.6" r="3" fill="#1f77b4"/>
<circle cx="449.5" cy="275.5" r="3" fill="#1f77b4"/>
<circle cx="453.0" cy="268.9" r="3" fill="#1f77b4"/>
<circle cx="456.4" cy="275.7" r="3" fill="#1f77b4"/>
<circle cx="459.9" cy="274.1" r="3" fill="#1f77b4"/>
<circle cx="463.3" cy="249.3" r="3" fill="#1f77b4"/>
<circle cx="466.8" cy="275.4" r="3" fill="#1f77b4"/>
<circle cx="470.2" cy="263.8" r="3" fill="#1f77b4"/>
<circle cx="473.6" cy="202.1" r="3" fill="#1f77b4"/>
<circle cx="477.1" cy="252.5" r="3" fill="#1f77b4"/>
<circle cx="480.5" cy="276.3" r="3" fill="#1f77b4"/>
<circle cx="484.0" cy="228.9" r="3" fill="#1f77b4"/>
<circle cx="487.4" cy="249.8" r="3" fill="#1f77b4"/>
<circle cx="490.9" cy="180.3" r="3" fill="#1f77b4"/>
<circle cx="494.3" cy="261.3" r="3" fill="#1f77b4"/>
<circle cx="497.7" cy="244.6" r="3" fill="#1f77b4"/>
<circle cx="501.2" cy="220.1" r="3" fill="#1f77b4"/>
<circle cx="504.6" cy="205.0" r="3" fill="#1f77b4"/>
<circle cx="508.1" cy="191.7" r="3" fill="#1f77b4"/>
<circle cx="511.5" cy="95.3" r="3" fill="#1f77b4"/>
<circle cx="514.9" cy="143.6" r="3" fill="#1f77b4"/>
<circle cx="518.4" cy="238.8" r="3" fill="#1f77b4"/>
<circle cx="521.8" cy="168.7" r="3" fill="#1f77b4"/>
<circle cx="525.3" cy="181.2" r="3" fill="#1f77b4"/>
<circle cx="528.7" cy="172.1" r="3" fill="#1f77b4"/>
<circle cx="532.2" cy="137.8" r="3" fill="#1f77b4"/>
<circle cx="535.6" cy="162.5" r="3" fill="#1f77b4"/>
<circle cx="539.0" cy="206.7" r="3" fill="#1f77b4"/>
<circle cx="542.5" cy="182.1" r="3" fill="#1f77b4"/>
<circle cx="545.9" cy="191.1" r="3" fill="#1f77b4"/>
<circle cx="549.4" cy="177.7" r="3" fill="#1f77b4"/>
<circle cx="552.8" cy="159.0" r="3" fill="#1f77b4"/>
<circle cx="556.3" cy="187.0" r="3" fill="#1f77b4"/>
<circle cx="559.7" cy="178.9" r="3" fill="#1f77b4"/>
<circle cx="563.1" cy="202.2" r="3" fill="#1f77b4"/>
<circle cx="566.6" cy="197.0" r="3" fill="#1f77b4"/>
<circle cx="570.0" cy="210.2" r="3" fill="#1f77b4"/>
<circle cx="573.5" cy="113.6" r="3" fill="#1f77b4"/>
<circle cx="576.9" cy="171.6" r="3" fill="#1f77b4"/>
<circle cx="580.4" cy="163.0" r="3" fill="#1f77b4"/>
<circle cx="583.8" cy="191.6" r="3" fill="#1f77b4"/>
<circle cx="587.2" cy="137.8" r="3" fill="#1f77b4"/>
<circle cx="590.7" cy="176.4" r="3" fill="#1f77b4"/>
<circle cx="594.1" cy="183.7" r="3" fill="#1f77b4"/>
<circle cx="597.6" cy="183.6" r="3" fill="#1f77b4"/>
<circle cx="601.0" cy="152.3" r="3" fill="#1f77b4"/>
<circle cx="604.4" cy="143.7" r="3" fill="#1f77b4"/>
<circle cx="607.9" cy="160.8" r="3" fill="#1f77b4"/>
<circle cx="611.3" cy="154.1" r="3" fill="#1f77b4"/>
<circle cx="614.8" cy="150.6" r="3" fill="#1f77b4"/>
<circle cx="618.2" cy="204.6" r="3" fill="#1f77b4"/>
<circle cx="621.7" cy="172.4" r="3" fill="#1f77b4"/>
<circle cx="625.1" cy="195.1" r="3" fill="#1f77b4"/>
<circle cx="628.5" cy="211.4" r="3" fill="#1f77b4"/>
<circle cx="632.0" cy="96.4" r="3" fill="#1f77b4"/>
<circle cx="635.4" cy="196.0" r="3" fill="#1f77b4"/>
<circle cx="638.9" cy="115.7" r="3" fill="#1f77b4"/>
<circle cx="642.3" cy="103.0" r="3" fill="#1f77b4"/>
<circle cx="645.8" cy="132.0" r="3" fill="#1f77b4"/>
<circle cx="649.2" cy="222.9" r="3" fill="#1f77b4"/>
<circle cx="652.6" cy="202.3" r="3" fill="#1f77b4"/>
<circle cx="656.1" cy="153.7" r="3" fill="#1f77b4"/>
<circle cx="659.5" cy="211.3" r="3" fill="#1f77b4"/>
<circle cx="663.0" cy="204.5" r="3" fill="#1f77b4"/>
<circle cx="666.4" cy="186.1" r="3" fill="#1f77b4"/>
<circle cx="669.8" cy="237.6" r="3" fill="#1f77b4"/>
<circle cx="673.3" cy="218.4" r="3" fill="#1f77b4"/>
<circle cx="676.7" cy="215.8" r="3" fill="#1f77b4"/>
<circle cx="680.2" cy="229.2" r="3" fill="#1f77b4"/>
<circle cx="683.6" cy="248.1" r="3" fill="#1f77b4"/>
<circle cx="687.1" cy="205.2" r="3" fill="#1f77b4"/>
<circle cx="690.5" cy="189.4" r="3" fill="#1f77b4"/>
<circle cx="693.9" cy="200.9" r="3" fill="#1f77b4"/>
<circle cx="697.4" cy="220.6" r="3" fill="#1f77b4"/>
<circle cx="700.8" cy="189.1" r="3" fill="#1f77b4"/>
<circle cx="704.3" cy="190.3" r="3" fill="#1f77b4"/>
<circle cx="707.7" cy="243.3" r="3" fill="#1f77b4"/>
<circle cx="711.2" cy="197.5" r="3" fill="#1f77b4"/>
<circle cx="714.6" cy="183.7" r="3" fill="#1f77b4"/>
<circle cx="718.0" cy="227.6" r="3" fill="#1f77b4"/>
<circle cx="721.5" cy="227.5" r="3" fill="#1f77b4"/>
<circle cx="724.9" cy="219.6" r="3" fill="#1f77b4"/>
<circle cx="728.4" cy="249.4" r="3" fill="#1f77b4"/>
<circle cx="731.8" cy="191.1" r="3" fill="#1f77b4"/>
<circle cx="735.3" cy="242.3" r="3" fill="#1f77b4"/>
<circle cx="738.7" cy="198.7" r="3" fill="#1f77b4"/>
<circle cx="742.1" cy="173.9" r="3" fill="#1f77b4"/>
<circle cx="745.6" cy="163.3" r="3" fill="#1f77b4"/>
<circle cx="749.0" cy="190.2" r="3" fill="#1f77b4"/>
<circle cx="752.5" cy="248.8" r="3" fill="#1f77b4"/>
<circle cx="755.9" cy="234.8" r="3" fill="#1f77b4"/>
<circle cx="759.3" cy="199.2" r="3" fill="#1f77b4"/>
<circle cx="762.8" cy="144.0" r="3" fill="#1f77b4"/>
<circle cx="766.2" cy="109.4" r="3" fill="#1f77b4"/>
<circle cx="769.7" cy="208.7" r="3" fill="#1f77b4"/>
<circle cx="773.1" cy="176.8" r="3" fill="#1f77b4"/>
<circle cx="776.6" cy="145.3" r="3" fill="#1f77b4"/>
<circle cx="780.0" cy="193.9" r="3" fill="#1f77b4"/>
<line x1="808" y1="96" x2="830" y2="96" stroke="#1f77b4" stroke-width="2.5"/>
<text x="838" y="100" font-family="Arial" font-size="13">std=True</text>
<polyline fill="none" stroke="#d62728" stroke-width="2.3" points="95.0,320.4 98.4,451.0 101.9,425.2 105.3,351.5 108.8,357.8 112.2,335.0 115.7,381.1 119.1,385.2 122.5,363.5 126.0,352.8 129.4,331.4 132.9,339.3 136.3,346.5 139.7,324.3 143.2,288.1 146.6,293.0 150.1,302.3 153.5,306.8 157.0,302.9 160.4,303.6 163.8,318.9 167.3,284.9 170.7,321.2 174.2,325.4 177.6,368.9 181.1,336.6 184.5,350.8 187.9,335.4 191.4,310.1 194.8,313.1 198.3,327.9 201.7,348.7 205.2,371.1 208.6,314.5 212.0,309.5 215.5,317.5 218.9,325.7 222.4,331.5 225.8,342.9 229.2,296.2 232.7,324.1 236.1,301.7 239.6,309.5 243.0,320.7 246.5,289.7 249.9,290.2 253.3,342.0 256.8,248.0 260.2,278.0 263.7,324.1 267.1,289.7 270.6,302.0 274.0,279.0 277.4,305.7 280.9,302.8 284.3,261.9 287.8,342.4 291.2,278.4 294.6,280.4 298.1,255.4 301.5,287.2 305.0,280.6 308.4,304.5 311.9,252.0 315.3,281.5 318.7,287.1 322.2,232.4 325.6,274.1 329.1,287.4 332.5,271.2 336.0,217.3 339.4,288.2 342.8,278.8 346.3,257.3 349.7,237.6 353.2,235.6 356.6,190.4 360.1,244.0 363.5,246.7 366.9,275.9 370.4,282.5 373.8,281.3 377.3,277.1 380.7,215.7 384.1,252.7 387.6,284.2 391.0,275.2 394.5,242.6 397.9,283.8 401.4,261.8 404.8,162.0 408.2,134.3 411.7,153.4 415.1,120.9 418.6,137.1 422.0,118.8 425.5,106.7 428.9,118.4 432.3,141.1 435.8,132.1 439.2,99.7 442.7,203.2 446.1,189.0 449.5,180.6 453.0,146.6 456.4,157.4 459.9,165.8 463.3,136.7 466.8,152.1 470.2,146.6 473.6,74.0 477.1,136.6 480.5,172.3 484.0,176.6 487.4,181.4 490.9,140.0 494.3,241.3 497.7,223.0 501.2,206.1 504.6,229.0 508.1,215.1 511.5,151.2 514.9,196.9 518.4,254.4 521.8,234.2 525.3,229.8 528.7,232.3 532.2,198.5 535.6,237.4 539.0,269.0 542.5,233.3 545.9,257.8 549.4,285.1 552.8,239.4 556.3,268.7 559.7,266.7 563.1,276.2 566.6,251.8 570.0,277.5 573.5,212.6 576.9,239.5 580.4,239.3 583.8,285.4 587.2,218.7 590.7,268.4 594.1,266.2 597.6,252.9 601.0,249.7 604.4,240.4 607.9,267.0 611.3,266.2 614.8,272.7 618.2,301.6 621.7,282.9 625.1,286.2 628.5,335.1 632.0,241.8 635.4,292.3 638.9,238.4 642.3,220.5 645.8,241.1 649.2,316.9 652.6,258.5 656.1,242.0 659.5,256.7 663.0,262.1 666.4,244.2 669.8,275.0 673.3,267.6 676.7,248.7 680.2,262.7 683.6,269.9 687.1,246.7 690.5,230.9 693.9,238.4 697.4,253.9 700.8,230.0 704.3,243.0 707.7,296.5 711.2,243.7 714.6,241.5 718.0,267.2 721.5,279.8 724.9,265.8 728.4,293.4 731.8,250.8 735.3,279.4 738.7,249.7 742.1,246.0 745.6,233.5 749.0,229.2 752.5,283.9 755.9,287.2 759.3,244.7 762.8,167.1 766.2,144.0 769.7,228.0 773.1,175.4 776.6,171.7 780.0,204.6"/>
<circle cx="95.0" cy="320.4" r="3" fill="#d62728"/>
<circle cx="98.4" cy="451.0" r="3" fill="#d62728"/>
<circle cx="101.9" cy="425.2" r="3" fill="#d62728"/>
<circle cx="105.3" cy="351.5" r="3" fill="#d62728"/>
<circle cx="108.8" cy="357.8" r="3" fill="#d62728"/>
<circle cx="112.2" cy="335.0" r="3" fill="#d62728"/>
<circle cx="115.7" cy="381.1" r="3" fill="#d62728"/>
<circle cx="119.1" cy="385.2" r="3" fill="#d62728"/>
<circle cx="122.5" cy="363.5" r="3" fill="#d62728"/>
<circle cx="126.0" cy="352.8" r="3" fill="#d62728"/>
<circle cx="129.4" cy="331.4" r="3" fill="#d62728"/>
<circle cx="132.9" cy="339.3" r="3" fill="#d62728"/>
<circle cx="136.3" cy="346.5" r="3" fill="#d62728"/>
<circle cx="139.7" cy="324.3" r="3" fill="#d62728"/>
<circle cx="143.2" cy="288.1" r="3" fill="#d62728"/>
<circle cx="146.6" cy="293.0" r="3" fill="#d62728"/>
<circle cx="150.1" cy="302.3" r="3" fill="#d62728"/>
<circle cx="153.5" cy="306.8" r="3" fill="#d62728"/>
<circle cx="157.0" cy="302.9" r="3" fill="#d62728"/>
<circle cx="160.4" cy="303.6" r="3" fill="#d62728"/>
<circle cx="163.8" cy="318.9" r="3" fill="#d62728"/>
<circle cx="167.3" cy="284.9" r="3" fill="#d62728"/>
<circle cx="170.7" cy="321.2" r="3" fill="#d62728"/>
<circle cx="174.2" cy="325.4" r="3" fill="#d62728"/>
<circle cx="177.6" cy="368.9" r="3" fill="#d62728"/>
<circle cx="181.1" cy="336.6" r="3" fill="#d62728"/>
<circle cx="184.5" cy="350.8" r="3" fill="#d62728"/>
<circle cx="187.9" cy="335.4" r="3" fill="#d62728"/>
<circle cx="191.4" cy="310.1" r="3" fill="#d62728"/>
<circle cx="194.8" cy="313.1" r="3" fill="#d62728"/>
<circle cx="198.3" cy="327.9" r="3" fill="#d62728"/>
<circle cx="201.7" cy="348.7" r="3" fill="#d62728"/>
<circle cx="205.2" cy="371.1" r="3" fill="#d62728"/>
<circle cx="208.6" cy="314.5" r="3" fill="#d62728"/>
<circle cx="212.0" cy="309.5" r="3" fill="#d62728"/>
<circle cx="215.5" cy="317.5" r="3" fill="#d62728"/>
<circle cx="218.9" cy="325.7" r="3" fill="#d62728"/>
<circle cx="222.4" cy="331.5" r="3" fill="#d62728"/>
<circle cx="225.8" cy="342.9" r="3" fill="#d62728"/>
<circle cx="229.2" cy="296.2" r="3" fill="#d62728"/>
<circle cx="232.7" cy="324.1" r="3" fill="#d62728"/>
<circle cx="236.1" cy="301.7" r="3" fill="#d62728"/>
<circle cx="239.6" cy="309.5" r="3" fill="#d62728"/>
<circle cx="243.0" cy="320.7" r="3" fill="#d62728"/>
<circle cx="246.5" cy="289.7" r="3" fill="#d62728"/>
<circle cx="249.9" cy="290.2" r="3" fill="#d62728"/>
<circle cx="253.3" cy="342.0" r="3" fill="#d62728"/>
<circle cx="256.8" cy="248.0" r="3" fill="#d62728"/>
<circle cx="260.2" cy="278.0" r="3" fill="#d62728"/>
<circle cx="263.7" cy="324.1" r="3" fill="#d62728"/>
<circle cx="267.1" cy="289.7" r="3" fill="#d62728"/>
<circle cx="270.6" cy="302.0" r="3" fill="#d62728"/>
<circle cx="274.0" cy="279.0" r="3" fill="#d62728"/>
<circle cx="277.4" cy="305.7" r="3" fill="#d62728"/>
<circle cx="280.9" cy="302.8" r="3" fill="#d62728"/>
<circle cx="284.3" cy="261.9" r="3" fill="#d62728"/>
<circle cx="287.8" cy="342.4" r="3" fill="#d62728"/>
<circle cx="291.2" cy="278.4" r="3" fill="#d62728"/>
<circle cx="294.6" cy="280.4" r="3" fill="#d62728"/>
<circle cx="298.1" cy="255.4" r="3" fill="#d62728"/>
<circle cx="301.5" cy="287.2" r="3" fill="#d62728"/>
<circle cx="305.0" cy="280.6" r="3" fill="#d62728"/>
<circle cx="308.4" cy="304.5" r="3" fill="#d62728"/>
<circle cx="311.9" cy="252.0" r="3" fill="#d62728"/>
<circle cx="315.3" cy="281.5" r="3" fill="#d62728"/>
<circle cx="318.7" cy="287.1" r="3" fill="#d62728"/>
<circle cx="322.2" cy="232.4" r="3" fill="#d62728"/>
<circle cx="325.6" cy="274.1" r="3" fill="#d62728"/>
<circle cx="329.1" cy="287.4" r="3" fill="#d62728"/>
<circle cx="332.5" cy="271.2" r="3" fill="#d62728"/>
<circle cx="336.0" cy="217.3" r="3" fill="#d62728"/>
<circle cx="339.4" cy="288.2" r="3" fill="#d62728"/>
<circle cx="342.8" cy="278.8" r="3" fill="#d62728"/>
<circle cx="346.3" cy="257.3" r="3" fill="#d62728"/>
<circle cx="349.7" cy="237.6" r="3" fill="#d62728"/>
<circle cx="353.2" cy="235.6" r="3" fill="#d62728"/>
<circle cx="356.6" cy="190.4" r="3" fill="#d62728"/>
<circle cx="360.1" cy="244.0" r="3" fill="#d62728"/>
<circle cx="363.5" cy="246.7" r="3" fill="#d62728"/>
<circle cx="366.9" cy="275.9" r="3" fill="#d62728"/>
<circle cx="370.4" cy="282.5" r="3" fill="#d62728"/>
<circle cx="373.8" cy="281.3" r="3" fill="#d62728"/>
<circle cx="377.3" cy="277.1" r="3" fill="#d62728"/>
<circle cx="380.7" cy="215.7" r="3" fill="#d62728"/>
<circle cx="384.1" cy="252.7" r="3" fill="#d62728"/>
<circle cx="387.6" cy="284.2" r="3" fill="#d62728"/>
<circle cx="391.0" cy="275.2" r="3" fill="#d62728"/>
<circle cx="394.5" cy="242.6" r="3" fill="#d62728"/>
<circle cx="397.9" cy="283.8" r="3" fill="#d62728"/>
<circle cx="401.4" cy="261.8" r="3" fill="#d62728"/>
<circle cx="404.8" cy="162.0" r="3" fill="#d62728"/>
<circle cx="408.2" cy="134.3" r="3" fill="#d62728"/>
<circle cx="411.7" cy="153.4" r="3" fill="#d62728"/>
<circle cx="415.1" cy="120.9" r="3" fill="#d62728"/>
<circle cx="418.6" cy="137.1" r="3" fill="#d62728"/>
<circle cx="422.0" cy="118.8" r="3" fill="#d62728"/>
<circle cx="425.5" cy="106.7" r="3" fill="#d62728"/>
<circle cx="428.9" cy="118.4" r="3" fill="#d62728"/>
<circle cx="432.3" cy="141.1" r="3" fill="#d62728"/>
<circle cx="435.8" cy="132.1" r="3" fill="#d62728"/>
<circle cx="439.2" cy="99.7" r="3" fill="#d62728"/>
<circle cx="442.7" cy="203.2" r="3" fill="#d62728"/>
<circle cx="446.1" cy="189.0" r="3" fill="#d62728"/>
<circle cx="449.5" cy="180.6" r="3" fill="#d62728"/>
<circle cx="453.0" cy="146.6" r="3" fill="#d62728"/>
<circle cx="456.4" cy="157.4" r="3" fill="#d62728"/>
<circle cx="459.9" cy="165.8" r="3" fill="#d62728"/>
<circle cx="463.3" cy="136.7" r="3" fill="#d62728"/>
<circle cx="466.8" cy="152.1" r="3" fill="#d62728"/>
<circle cx="470.2" cy="146.6" r="3" fill="#d62728"/>
<circle cx="473.6" cy="74.0" r="3" fill="#d62728"/>
<circle cx="477.1" cy="136.6" r="3" fill="#d62728"/>
<circle cx="480.5" cy="172.3" r="3" fill="#d62728"/>
<circle cx="484.0" cy="176.6" r="3" fill="#d62728"/>
<circle cx="487.4" cy="181.4" r="3" fill="#d62728"/>
<circle cx="490.9" cy="140.0" r="3" fill="#d62728"/>
<circle cx="494.3" cy="241.3" r="3" fill="#d62728"/>
<circle cx="497.7" cy="223.0" r="3" fill="#d62728"/>
<circle cx="501.2" cy="206.1" r="3" fill="#d62728"/>
<circle cx="504.6" cy="229.0" r="3" fill="#d62728"/>
<circle cx="508.1" cy="215.1" r="3" fill="#d62728"/>
<circle cx="511.5" cy="151.2" r="3" fill="#d62728"/>
<circle cx="514.9" cy="196.9" r="3" fill="#d62728"/>
<circle cx="518.4" cy="254.4" r="3" fill="#d62728"/>
<circle cx="521.8" cy="234.2" r="3" fill="#d62728"/>
<circle cx="525.3" cy="229.8" r="3" fill="#d62728"/>
<circle cx="528.7" cy="232.3" r="3" fill="#d62728"/>
<circle cx="532.2" cy="198.5" r="3" fill="#d62728"/>
<circle cx="535.6" cy="237.4" r="3" fill="#d62728"/>
<circle cx="539.0" cy="269.0" r="3" fill="#d62728"/>
<circle cx="542.5" cy="233.3" r="3" fill="#d62728"/>
<circle cx="545.9" cy="257.8" r="3" fill="#d62728"/>
<circle cx="549.4" cy="285.1" r="3" fill="#d62728"/>
<circle cx="552.8" cy="239.4" r="3" fill="#d62728"/>
<circle cx="556.3" cy="268.7" r="3" fill="#d62728"/>
<circle cx="559.7" cy="266.7" r="3" fill="#d62728"/>
<circle cx="563.1" cy="276.2" r="3" fill="#d62728"/>
<circle cx="566.6" cy="251.8" r="3" fill="#d62728"/>
<circle cx="570.0" cy="277.5" r="3" fill="#d62728"/>
<circle cx="573.5" cy="212.6" r="3" fill="#d62728"/>
<circle cx="576.9" cy="239.5" r="3" fill="#d62728"/>
<circle cx="580.4" cy="239.3" r="3" fill="#d62728"/>
<circle cx="583.8" cy="285.4" r="3" fill="#d62728"/>
<circle cx="587.2" cy="218.7" r="3" fill="#d62728"/>
<circle cx="590.7" cy="268.4" r="3" fill="#d62728"/>
<circle cx="594.1" cy="266.2" r="3" fill="#d62728"/>
<circle cx="597.6" cy="252.9" r="3" fill="#d62728"/>
<circle cx="601.0" cy="249.7" r="3" fill="#d62728"/>
<circle cx="604.4" cy="240.4" r="3" fill="#d62728"/>
<circle cx="607.9" cy="267.0" r="3" fill="#d62728"/>
<circle cx="611.3" cy="266.2" r="3" fill="#d62728"/>
<circle cx="614.8" cy="272.7" r="3" fill="#d62728"/>
<circle cx="618.2" cy="301.6" r="3" fill="#d62728"/>
<circle cx="621.7" cy="282.9" r="3" fill="#d62728"/>
<circle cx="625.1" cy="286.2" r="3" fill="#d62728"/>
<circle cx="628.5" cy="335.1" r="3" fill="#d62728"/>
<circle cx="632.0" cy="241.8" r="3" fill="#d62728"/>
<circle cx="635.4" cy="292.3" r="3" fill="#d62728"/>
<circle cx="638.9" cy="238.4" r="3" fill="#d62728"/>
<circle cx="642.3" cy="220.5" r="3" fill="#d62728"/>
<circle cx="645.8" cy="241.1" r="3" fill="#d62728"/>
<circle cx="649.2" cy="316.9" r="3" fill="#d62728"/>
<circle cx="652.6" cy="258.5" r="3" fill="#d62728"/>
<circle cx="656.1" cy="242.0" r="3" fill="#d62728"/>
<circle cx="659.5" cy="256.7" r="3" fill="#d62728"/>
<circle cx="663.0" cy="262.1" r="3" fill="#d62728"/>
<circle cx="666.4" cy="244.2" r="3" fill="#d62728"/>
<circle cx="669.8" cy="275.0" r="3" fill="#d62728"/>
<circle cx="673.3" cy="267.6" r="3" fill="#d62728"/>
<circle cx="676.7" cy="248.7" r="3" fill="#d62728"/>
<circle cx="680.2" cy="262.7" r="3" fill="#d62728"/>
<circle cx="683.6" cy="269.9" r="3" fill="#d62728"/>
<circle cx="687.1" cy="246.7" r="3" fill="#d62728"/>
<circle cx="690.5" cy="230.9" r="3" fill="#d62728"/>
<circle cx="693.9" cy="238.4" r="3" fill="#d62728"/>
<circle cx="697.4" cy="253.9" r="3" fill="#d62728"/>
<circle cx="700.8" cy="230.0" r="3" fill="#d62728"/>
<circle cx="704.3" cy="243.0" r="3" fill="#d62728"/>
<circle cx="707.7" cy="296.5" r="3" fill="#d62728"/>
<circle cx="711.2" cy="243.7" r="3" fill="#d62728"/>
<circle cx="714.6" cy="241.5" r="3" fill="#d62728"/>
<circle cx="718.0" cy="267.2" r="3" fill="#d62728"/>
<circle cx="721.5" cy="279.8" r="3" fill="#d62728"/>
<circle cx="724.9" cy="265.8" r="3" fill="#d62728"/>
<circle cx="728.4" cy="293.4" r="3" fill="#d62728"/>
<circle cx="731.8" cy="250.8" r="3" fill="#d62728"/>
<circle cx="735.3" cy="279.4" r="3" fill="#d62728"/>
<circle cx="738.7" cy="249.7" r="3" fill="#d62728"/>
<circle cx="742.1" cy="246.0" r="3" fill="#d62728"/>
<circle cx="745.6" cy="233.5" r="3" fill="#d62728"/>
<circle cx="749.0" cy="229.2" r="3" fill="#d62728"/>
<circle cx="752.5" cy="283.9" r="3" fill="#d62728"/>
<circle cx="755.9" cy="287.2" r="3" fill="#d62728"/>
<circle cx="759.3" cy="244.7" r="3" fill="#d62728"/>
<circle cx="762.8" cy="167.1" r="3" fill="#d62728"/>
<circle cx="766.2" cy="144.0" r="3" fill="#d62728"/>
<circle cx="769.7" cy="228.0" r="3" fill="#d62728"/>
<circle cx="773.1" cy="175.4" r="3" fill="#d62728"/>
<circle cx="776.6" cy="171.7" r="3" fill="#d62728"/>
<circle cx="780.0" cy="204.6" r="3" fill="#d62728"/>
<line x1="808" y1="121" x2="830" y2="121" stroke="#d62728" stroke-width="2.5"/>
<text x="838" y="125" font-family="Arial" font-size="13">std=False</text>
<text x="437.5" y="618" text-anchor="middle" font-family="Arial" font-size="15">GRPO step</text>
<text x="24" y="316.0" text-anchor="middle" font-family="Arial" font-size="15" transform="rotate(-90 24 316.0)">average response tokens</text>
</svg>
