<svg xmlns="http://www.w3.org/2000/svg" width="1040" height="640" viewBox="0 0 1040 640">
<rect width="100%" height="100%" fill="white"/>
<text x="520.0" y="36" text-anchor="middle" font-family="Arial" font-size="22" font-weight="700">GRPO gradient norm by group std normalization</text>
<line x1="95" y1="558" x2="780" y2="558" stroke="#222" stroke-width="1.5"/>
<line x1="95" y1="74" x2="95" y2="558" stroke="#222" stroke-width="1.5"/>
<line x1="90" y1="558.0" x2="780" y2="558.0" stroke="#ddd" stroke-width="1"/>
<text x="83" y="562.0" text-anchor="end" font-family="Arial" font-size="12">0.00</text>
<line x1="90" y1="461.2" x2="780" y2="461.2" stroke="#ddd" stroke-width="1"/>
<text x="83" y="465.2" text-anchor="end" font-family="Arial" font-size="12">0.38</text>
<line x1="90" y1="364.4" x2="780" y2="364.4" stroke="#ddd" stroke-width="1"/>
<text x="83" y="368.4" text-anchor="end" font-family="Arial" font-size="12">0.76</text>
<line x1="90" y1="267.6" x2="780" y2="267.6" stroke="#ddd" stroke-width="1"/>
<text x="83" y="271.6" text-anchor="end" font-family="Arial" font-size="12">1.14</text>
<line x1="90" y1="170.8" x2="780" y2="170.8" stroke="#ddd" stroke-width="1"/>
<text x="83" y="174.8" text-anchor="end" font-family="Arial" font-size="12">1.52</text>
<line x1="90" y1="74.0" x2="780" y2="74.0" stroke="#ddd" stroke-width="1"/>
<text x="83" y="78.0" text-anchor="end" font-family="Arial" font-size="12">1.90</text>
<line x1="95.0" y1="558" x2="95.0" y2="563" stroke="#222" stroke-width="1"/>
<text x="95.0" y="582" text-anchor="middle" font-family="Arial" font-size="12">1</text>
<line x1="232.0" y1="558" x2="232.0" y2="563" stroke="#222" stroke-width="1"/>
<text x="232.0" y="582" text-anchor="middle" font-family="Arial" font-size="12">41</text>
<line x1="369.0" y1="558" x2="369.0" y2="563" stroke="#222" stroke-width="1"/>
<text x="369.0" y="582" text-anchor="middle" font-family="Arial" font-size="12">81</text>
<line x1="506.0" y1="558" x2="506.0" y2="563" stroke="#222" stroke-width="1"/>
<text x="506.0" y="582" text-anchor="middle" font-family="Arial" font-size="12">120</text>
<line x1="643.0" y1="558" x2="643.0" y2="563" stroke="#222" stroke-width="1"/>
<text x="643.0" y="582" text-anchor="middle" font-family="Arial" font-size="12">160</text>
<line x1="780.0" y1="558" x2="780.0" y2="563" stroke="#222" stroke-width="1"/>
<text x="780.0" y="582" text-anchor="middle" font-family="Arial" font-size="12">200</text>
<polyline fill="none" stroke="#1f77b4" stroke-width="2.3" points="95.0,490.8 98.4,118.2 101.9,74.4 105.3,215.7 108.8,314.2 112.2,346.1 115.7,326.1 119.1,354.0 122.5,361.0 126.0,297.3 129.4,257.5 132.9,358.0 136.3,316.2 139.7,287.3 143.2,360.0 146.6,245.5 150.1,350.0 153.5,301.3 157.0,388.8 160.4,439.1 163.8,404.8 167.3,439.1 170.7,464.0 174.2,444.1 177.6,476.9 181.1,496.6 184.5,486.9 187.9,466.0 191.4,450.0 194.8,497.5 198.3,494.3 201.7,502.3 205.2,463.5 208.6,505.8 212.0,492.3 215.5,505.0 218.9,490.8 222.4,494.3 225.8,506.8 229.2,414.7 232.7,449.5 236.1,506.5 239.6,509.7 243.0,507.7 246.5,479.4 249.9,501.0 253.3,505.8 256.8,495.1 260.2,487.8 263.7,504.8 267.1,517.5 270.6,500.3 274.0,490.8 277.4,434.1 280.9,471.9 284.3,487.4 287.8,452.5 291.2,495.1 294.6,492.8 298.1,510.2 301.5,512.7 305.0,474.9 308.4,467.4 311.9,502.3 315.3,488.8 318.7,523.2 322.2,511.0 325.6,481.4 329.1,503.3 332.5,511.7 336.0,517.2 339.4,522.4 342.8,499.8 346.3,510.7 349.7,507.3 353.2,516.5 356.6,525.9 360.1,505.3 363.5,510.0 366.9,504.5 370.4,513.2 373.8,513.0 377.3,523.7 380.7,505.5 384.1,515.7 387.6,518.2 391.0,516.0 394.5,500.0 397.9,519.2 401.4,525.2 404.8,513.2 408.2,500.0 411.7,530.8 415.1,495.6 418.6,510.5 422.0,503.8 425.5,497.8 428.9,519.9 432.3,444.6 435.8,509.7 439.2,519.7 442.7,502.8 446.1,514.2 449.5,504.0 453.0,493.8 456.4,506.3 459.9,517.0 463.3,500.3 466.8,505.8 470.2,488.3 473.6,495.3 477.1,518.7 480.5,506.0 484.0,521.7 487.4,499.5 490.9,497.5 494.3,519.4 497.7,500.8 501.2,514.2 504.6,515.7 508.1,517.5 511.5,512.2 514.9,522.4 518.4,522.9 521.8,515.7 525.3,512.0 528.7,531.8 532.2,501.5 535.6,496.8 539.0,512.0 542.5,519.4 545.9,493.3 549.4,519.9 552.8,512.5 556.3,509.7 559.7,522.7 563.1,505.8 566.6,523.7 570.0,523.9 573.5,522.9 576.9,523.2 580.4,530.5 583.8,505.8 587.2,522.7 590.7,519.4 594.1,533.9 597.6,505.8 601.0,526.9 604.4,521.2 607.9,516.5 611.3,504.3 614.8,507.0 618.2,529.5 621.7,514.7 625.1,508.5 628.5,480.9 632.0,507.0 635.4,515.2 638.9,522.4 642.3,533.9 645.8,524.7 649.2,515.5 652.6,528.3 656.1,519.7 659.5,510.7 663.0,510.7 666.4,524.7 669.8,514.0 673.3,527.8 676.7,378.9 680.2,524.4 683.6,520.4 687.1,529.5 690.5,513.5 693.9,509.2 697.4,503.0 700.8,526.8 704.3,526.9 707.7,533.0 711.2,518.7 714.6,528.6 718.0,522.9 721.5,521.9 724.9,538.6 728.4,527.3 731.8,528.6 735.3,535.2 738.7,509.7 742.1,519.9 745.6,526.9 749.0,520.2 752.5,525.9 755.9,518.9 759.3,511.7 762.8,518.9 766.2,524.9 769.7,517.0 773.1,495.1 776.6,525.9 780.0,523.4"/>
<circle cx="95.0" cy="490.8" r="3" fill="#1f77b4"/>
<circle cx="98.4" cy="118.2" r="3" fill="#1f77b4"/>
<circle cx="101.9" cy="74.4" r="3" fill="#1f77b4"/>
<circle cx="105.3" cy="215.7" r="3" fill="#1f77b4"/>
<circle cx="108.8" cy="314.2" r="3" fill="#1f77b4"/>
<circle cx="112.2" cy="346.1" r="3" fill="#1f77b4"/>
<circle cx="115.7" cy="326.1" r="3" fill="#1f77b4"/>
<circle cx="119.1" cy="354.0" r="3" fill="#1f77b4"/>
<circle cx="122.5" cy="361.0" r="3" fill="#1f77b4"/>
<circle cx="126.0" cy="297.3" r="3" fill="#1f77b4"/>
<circle cx="129.4" cy="257.5" r="3" fill="#1f77b4"/>
<circle cx="132.9" cy="358.0" r="3" fill="#1f77b4"/>
<circle cx="136.3" cy="316.2" r="3" fill="#1f77b4"/>
<circle cx="139.7" cy="287.3" r="3" fill="#1f77b4"/>
<circle cx="143.2" cy="360.0" r="3" fill="#1f77b4"/>
<circle cx="146.6" cy="245.5" r="3" fill="#1f77b4"/>
<circle cx="150.1" cy="350.0" r="3" fill="#1f77b4"/>
<circle cx="153.5" cy="301.3" r="3" fill="#1f77b4"/>
<circle cx="157.0" cy="388.8" r="3" fill="#1f77b4"/>
<circle cx="160.4" cy="439.1" r="3" fill="#1f77b4"/>
<circle cx="163.8" cy="404.8" r="3" fill="#1f77b4"/>
<circle cx="167.3" cy="439.1" r="3" fill="#1f77b4"/>
<circle cx="170.7" cy="464.0" r="3" fill="#1f77b4"/>
<circle cx="174.2" cy="444.1" r="3" fill="#1f77b4"/>
<circle cx="177.6" cy="476.9" r="3" fill="#1f77b4"/>
<circle cx="181.1" cy="496.6" r="3" fill="#1f77b4"/>
<circle cx="184.5" cy="486.9" r="3" fill="#1f77b4"/>
<circle cx="187.9" cy="466.0" r="3" fill="#1f77b4"/>
<circle cx="191.4" cy="450.0" r="3" fill="#1f77b4"/>
<circle cx="194.8" cy="497.5" r="3" fill="#1f77b4"/>
<circle cx="198.3" cy="494.3" r="3" fill="#1f77b4"/>
<circle cx="201.7" cy="502.3" r="3" fill="#1f77b4"/>
<circle cx="205.2" cy="463.5" r="3" fill="#1f77b4"/>
<circle cx="208.6" cy="505.8" r="3" fill="#1f77b4"/>
<circle cx="212.0" cy="492.3" r="3" fill="#1f77b4"/>
<circle cx="215.5" cy="505.0" r="3" fill="#1f77b4"/>
<circle cx="218.9" cy="490.8" r="3" fill="#1f77b4"/>
<circle cx="222.4" cy="494.3" r="3" fill="#1f77b4"/>
<circle cx="225.8" cy="506.8" r="3" fill="#1f77b4"/>
<circle cx="229.2" cy="414.7" r="3" fill="#1f77b4"/>
<circle cx="232.7" cy="449.5" r="3" fill="#1f77b4"/>
<circle cx="236.1" cy="506.5" r="3" fill="#1f77b4"/>
<circle cx="239.6" cy="509.7" r="3" fill="#1f77b4"/>
<circle cx="243.0" cy="507.7" r="3" fill="#1f77b4"/>
<circle cx="246.5" cy="479.4" r="3" fill="#1f77b4"/>
<circle cx="249.9" cy="501.0" r="3" fill="#1f77b4"/>
<circle cx="253.3" cy="505.8" r="3" fill="#1f77b4"/>
<circle cx="256.8" cy="495.1" r="3" fill="#1f77b4"/>
<circle cx="260.2" cy="487.8" r="3" fill="#1f77b4"/>
<circle cx="263.7" cy="504.8" r="3" fill="#1f77b4"/>
<circle cx="267.1" cy="517.5" r="3" fill="#1f77b4"/>
<circle cx="270.6" cy="500.3" r="3" fill="#1f77b4"/>
<circle cx="274.0" cy="490.8" r="3" fill="#1f77b4"/>
<circle cx="277.4" cy="434.1" r="3" fill="#1f77b4"/>
<circle cx="280.9" cy="471.9" r="3" fill="#1f77b4"/>
<circle cx="284.3" cy="487.4" r="3" fill="#1f77b4"/>
<circle cx="287.8" cy="452.5" r="3" fill="#1f77b4"/>
<circle cx="291.2" cy="495.1" r="3" fill="#1f77b4"/>
<circle cx="294.6" cy="492.8" r="3" fill="#1f77b4"/>
<circle cx="298.1" cy="510.2" r="3" fill="#1f77b4"/>
<circle cx="301.5" cy="512.7" r="3" fill="#1f77b4"/>
<circle cx="305.0" cy="474.9" r="3" fill="#1f77b4"/>
<circle cx="308.4" cy="467.4" r="3" fill="#1f77b4"/>
<circle cx="311.9" cy="502.3" r="3" fill="#1f77b4"/>
<circle cx="315.3" cy="488.8" r="3" fill="#1f77b4"/>
<circle cx="318.7" cy="523.2" r="3" fill="#1f77b4"/>
<circle cx="322.2" cy="511.0" r="3" fill="#1f77b4"/>
<circle cx="325.6" cy="481.4" r="3" fill="#1f77b4"/>
<circle cx="329.1" cy="503.3" r="3" fill="#1f77b4"/>
<circle cx="332.5" cy="511.7" r="3" fill="#1f77b4"/>
<circle cx="336.0" cy="517.2" r="3" fill="#1f77b4"/>
<circle cx="339.4" cy="522.4" r="3" fill="#1f77b4"/>
<circle cx="342.8" cy="499.8" r="3" fill="#1f77b4"/>
<circle cx="346.3" cy="510.7" r="3" fill="#1f77b4"/>
<circle cx="349.7" cy="507.3" r="3" fill="#1f77b4"/>
<circle cx="353.2" cy="516.5" r="3" fill="#1f77b4"/>
<circle cx="356.6" cy="525.9" r="3" fill="#1f77b4"/>
<circle cx="360.1" cy="505.3" r="3" fill="#1f77b4"/>
<circle cx="363.5" cy="510.0" r="3" fill="#1f77b4"/>
<circle cx="366.9" cy="504.5" r="3" fill="#1f77b4"/>
<circle cx="370.4" cy="513.2" r="3" fill="#1f77b4"/>
<circle cx="373.8" cy="513.0" r="3" fill="#1f77b4"/>
<circle cx="377.3" cy="523.7" r="3" fill="#1f77b4"/>
<circle cx="380.7" cy="505.5" r="3" fill="#1f77b4"/>
<circle cx="384.1" cy="515.7" r="3" fill="#1f77b4"/>
<circle cx="387.6" cy="518.2" r="3" fill="#1f77b4"/>
<circle cx="391.0" cy="516.0" r="3" fill="#1f77b4"/>
<circle cx="394.5" cy="500.0" r="3" fill="#1f77b4"/>
<circle cx="397.9" cy="519.2" r="3" fill="#1f77b4"/>
<circle cx="401.4" cy="525.2" r="3" fill="#1f77b4"/>
<circle cx="404.8" cy="513.2" r="3" fill="#1f77b4"/>
<circle cx="408.2" cy="500.0" r="3" fill="#1f77b4"/>
<circle cx="411.7" cy="530.8" r="3" fill="#1f77b4"/>
<circle cx="415.1" cy="495.6" r="3" fill="#1f77b4"/>
<circle cx="418.6" cy="510.5" r="3" fill="#1f77b4"/>
<circle cx="422.0" cy="503.8" r="3" fill="#1f77b4"/>
<circle cx="425.5" cy="497.8" r="3" fill="#1f77b4"/>
<circle cx="428.9" cy="519.9" r="3" fill="#1f77b4"/>
<circle cx="432.3" cy="444.6" r="3" fill="#1f77b4"/>
<circle cx="435.8" cy="509.7" r="3" fill="#1f77b4"/>
<circle cx="439.2" cy="519.7" r="3" fill="#1f77b4"/>
<circle cx="442.7" cy="502.8" r="3" fill="#1f77b4"/>
<circle cx="446.1" cy="514.2" r="3" fill="#1f77b4"/>
<circle cx="449.5" cy="504.0" r="3" fill="#1f77b4"/>
<circle cx="453.0" cy="493.8" r="3" fill="#1f77b4"/>
<circle cx="456.4" cy="506.3" r="3" fill="#1f77b4"/>
<circle cx="459.9" cy="517.0" r="3" fill="#1f77b4"/>
<circle cx="463.3" cy="500.3" r="3" fill="#1f77b4"/>
<circle cx="466.8" cy="505.8" r="3" fill="#1f77b4"/>
<circle cx="470.2" cy="488.3" r="3" fill="#1f77b4"/>
<circle cx="473.6" cy="495.3" r="3" fill="#1f77b4"/>
<circle cx="477.1" cy="518.7" r="3" fill="#1f77b4"/>
<circle cx="480.5" cy="506.0" r="3" fill="#1f77b4"/>
<circle cx="484.0" cy="521.7" r="3" fill="#1f77b4"/>
<circle cx="487.4" cy="499.5" r="3" fill="#1f77b4"/>
<circle cx="490.9" cy="497.5" r="3" fill="#1f77b4"/>
<circle cx="494.3" cy="519.4" r="3" fill="#1f77b4"/>
<circle cx="497.7" cy="500.8" r="3" fill="#1f77b4"/>
<circle cx="501.2" cy="514.2" r="3" fill="#1f77b4"/>
<circle cx="504.6" cy="515.7" r="3" fill="#1f77b4"/>
<circle cx="508.1" cy="517.5" r="3" fill="#1f77b4"/>
<circle cx="511.5" cy="512.2" r="3" fill="#1f77b4"/>
<circle cx="514.9" cy="522.4" r="3" fill="#1f77b4"/>
<circle cx="518.4" cy="522.9" r="3" fill="#1f77b4"/>
<circle cx="521.8" cy="515.7" r="3" fill="#1f77b4"/>
<circle cx="525.3" cy="512.0" r="3" fill="#1f77b4"/>
<circle cx="528.7" cy="531.8" r="3" fill="#1f77b4"/>
<circle cx="532.2" cy="501.5" r="3" fill="#1f77b4"/>
<circle cx="535.6" cy="496.8" r="3" fill="#1f77b4"/>
<circle cx="539.0" cy="512.0" r="3" fill="#1f77b4"/>
<circle cx="542.5" cy="519.4" r="3" fill="#1f77b4"/>
<circle cx="545.9" cy="493.3" r="3" fill="#1f77b4"/>
<circle cx="549.4" cy="519.9" r="3" fill="#1f77b4"/>
<circle cx="552.8" cy="512.5" r="3" fill="#1f77b4"/>
<circle cx="556.3" cy="509.7" r="3" fill="#1f77b4"/>
<circle cx="559.7" cy="522.7" r="3" fill="#1f77b4"/>
<circle cx="563.1" cy="505.8" r="3" fill="#1f77b4"/>
<circle cx="566.6" cy="523.7" r="3" fill="#1f77b4"/>
<circle cx="570.0" cy="523.9" r="3" fill="#1f77b4"/>
<circle cx="573.5" cy="522.9" r="3" fill="#1f77b4"/>
<circle cx="576.9" cy="523.2" r="3" fill="#1f77b4"/>
<circle cx="580.4" cy="530.5" r="3" fill="#1f77b4"/>
<circle cx="583.8" cy="505.8" r="3" fill="#1f77b4"/>
<circle cx="587.2" cy="522.7" r="3" fill="#1f77b4"/>
<circle cx="590.7" cy="519.4" r="3" fill="#1f77b4"/>
<circle cx="594.1" cy="533.9" r="3" fill="#1f77b4"/>
<circle cx="597.6" cy="505.8" r="3" fill="#1f77b4"/>
<circle cx="601.0" cy="526.9" r="3" fill="#1f77b4"/>
<circle cx="604.4" cy="521.2" r="3" fill="#1f77b4"/>
<circle cx="607.9" cy="516.5" r="3" fill="#1f77b4"/>
<circle cx="611.3" cy="504.3" r="3" fill="#1f77b4"/>
<circle cx="614.8" cy="507.0" r="3" fill="#1f77b4"/>
<circle cx="618.2" cy="529.5" r="3" fill="#1f77b4"/>
<circle cx="621.7" cy="514.7" r="3" fill="#1f77b4"/>
<circle cx="625.1" cy="508.5" r="3" fill="#1f77b4"/>
<circle cx="628.5" cy="480.9" r="3" fill="#1f77b4"/>
<circle cx="632.0" cy="507.0" r="3" fill="#1f77b4"/>
<circle cx="635.4" cy="515.2" r="3" fill="#1f77b4"/>
<circle cx="638.9" cy="522.4" r="3" fill="#1f77b4"/>
<circle cx="642.3" cy="533.9" r="3" fill="#1f77b4"/>
<circle cx="645.8" cy="524.7" r="3" fill="#1f77b4"/>
<circle cx="649.2" cy="515.5" r="3" fill="#1f77b4"/>
<circle cx="652.6" cy="528.3" r="3" fill="#1f77b4"/>
<circle cx="656.1" cy="519.7" r="3" fill="#1f77b4"/>
<circle cx="659.5" cy="510.7" r="3" fill="#1f77b4"/>
<circle cx="663.0" cy="510.7" r="3" fill="#1f77b4"/>
<circle cx="666.4" cy="524.7" r="3" fill="#1f77b4"/>
<circle cx="669.8" cy="514.0" r="3" fill="#1f77b4"/>
<circle cx="673.3" cy="527.8" r="3" fill="#1f77b4"/>
<circle cx="676.7" cy="378.9" r="3" fill="#1f77b4"/>
<circle cx="680.2" cy="524.4" r="3" fill="#1f77b4"/>
<circle cx="683.6" cy="520.4" r="3" fill="#1f77b4"/>
<circle cx="687.1" cy="529.5" r="3" fill="#1f77b4"/>
<circle cx="690.5" cy="513.5" r="3" fill="#1f77b4"/>
<circle cx="693.9" cy="509.2" r="3" fill="#1f77b4"/>
<circle cx="697.4" cy="503.0" r="3" fill="#1f77b4"/>
<circle cx="700.8" cy="526.8" r="3" fill="#1f77b4"/>
<circle cx="704.3" cy="526.9" r="3" fill="#1f77b4"/>
<circle cx="707.7" cy="533.0" r="3" fill="#1f77b4"/>
<circle cx="711.2" cy="518.7" r="3" fill="#1f77b4"/>
<circle cx="714.6" cy="528.6" r="3" fill="#1f77b4"/>
<circle cx="718.0" cy="522.9" r="3" fill="#1f77b4"/>
<circle cx="721.5" cy="521.9" r="3" fill="#1f77b4"/>
<circle cx="724.9" cy="538.6" r="3" fill="#1f77b4"/>
<circle cx="728.4" cy="527.3" r="3" fill="#1f77b4"/>
<circle cx="731.8" cy="528.6" r="3" fill="#1f77b4"/>
<circle cx="735.3" cy="535.2" r="3" fill="#1f77b4"/>
<circle cx="738.7" cy="509.7" r="3" fill="#1f77b4"/>
<circle cx="742.1" cy="519.9" r="3" fill="#1f77b4"/>
<circle cx="745.6" cy="526.9" r="3" fill="#1f77b4"/>
<circle cx="749.0" cy="520.2" r="3" fill="#1f77b4"/>
<circle cx="752.5" cy="525.9" r="3" fill="#1f77b4"/>
<circle cx="755.9" cy="518.9" r="3" fill="#1f77b4"/>
<circle cx="759.3" cy="511.7" r="3" fill="#1f77b4"/>
<circle cx="762.8" cy="518.9" r="3" fill="#1f77b4"/>
<circle cx="766.2" cy="524.9" r="3" fill="#1f77b4"/>
<circle cx="769.7" cy="517.0" r="3" fill="#1f77b4"/>
<circle cx="773.1" cy="495.1" r="3" fill="#1f77b4"/>
<circle cx="776.6" cy="525.9" r="3" fill="#1f77b4"/>
<circle cx="780.0" cy="523.4" r="3" fill="#1f77b4"/>
<line x1="808" y1="96" x2="830" y2="96" stroke="#1f77b4" stroke-width="2.5"/>
<text x="838" y="100" font-family="Arial" font-size="13">std=True</text>
<polyline fill="none" stroke="#d62728" stroke-width="2.3" points="95.0,534.2 98.4,320.2 101.9,376.9 105.3,405.8 108.8,421.7 112.2,473.9 115.7,459.0 119.1,483.4 122.5,494.6 126.0,494.3 129.4,517.5 132.9,511.0 136.3,519.2 139.7,526.2 143.2,535.6 146.6,533.4 150.1,536.9 153.5,521.9 157.0,533.2 160.4,538.0 163.8,535.7 167.3,526.5 170.7,520.9 174.2,543.7 177.6,532.3 181.1,537.8 184.5,538.2 187.9,533.1 191.4,538.0 194.8,539.3 198.3,540.5 201.7,543.4 205.2,533.4 208.6,539.8 212.0,538.6 215.5,538.2 218.9,537.7 222.4,532.4 225.8,540.7 229.2,538.3 232.7,537.8 236.1,540.3 239.6,543.5 243.0,545.8 246.5,540.7 249.9,542.5 253.3,541.2 256.8,545.6 260.2,538.8 263.7,545.1 267.1,542.5 270.6,542.1 274.0,543.6 277.4,537.6 280.9,541.5 284.3,545.4 287.8,538.5 291.2,545.9 294.6,543.0 298.1,538.1 301.5,547.4 305.0,541.2 308.4,541.8 311.9,539.6 315.3,542.9 318.7,543.9 322.2,539.1 325.6,539.8 329.1,533.5 332.5,545.0 336.0,544.2 339.4,540.6 342.8,541.2 346.3,537.5 349.7,539.0 353.2,542.9 356.6,544.1 360.1,539.5 363.5,540.8 366.9,544.9 370.4,544.3 373.8,539.5 377.3,545.1 380.7,537.8 384.1,542.8 387.6,538.2 391.0,539.2 394.5,538.8 397.9,545.0 401.4,540.3 404.8,537.6 408.2,541.7 411.7,548.5 415.1,541.1 418.6,542.1 422.0,544.6 425.5,440.1 428.9,542.7 432.3,542.6 435.8,542.1 439.2,546.7 442.7,545.3 446.1,546.4 449.5,541.6 453.0,541.6 456.4,539.6 459.9,541.1 463.3,543.0 466.8,543.3 470.2,543.9 473.6,541.1 477.1,545.3 480.5,544.9 484.0,545.9 487.4,547.8 490.9,542.1 494.3,545.2 497.7,546.2 501.2,542.9 504.6,537.8 508.1,540.5 511.5,542.9 514.9,543.2 518.4,545.9 521.8,545.7 525.3,543.2 528.7,545.4 532.2,541.1 535.6,548.5 539.0,545.3 542.5,545.1 545.9,541.0 549.4,539.1 552.8,546.6 556.3,544.4 559.7,544.3 563.1,541.8 566.6,545.4 570.0,547.0 573.5,546.7 576.9,547.7 580.4,539.0 583.8,546.7 587.2,545.6 590.7,544.3 594.1,544.5 597.6,537.6 601.0,547.7 604.4,541.1 607.9,540.8 611.3,541.1 614.8,537.8 618.2,546.8 621.7,538.3 625.1,536.1 628.5,536.7 632.0,538.0 635.4,537.7 638.9,539.1 642.3,542.3 645.8,543.4 649.2,542.6 652.6,548.3 656.1,541.0 659.5,547.6 663.0,540.0 666.4,549.7 669.8,540.7 673.3,544.3 676.7,548.3 680.2,548.2 683.6,544.3 687.1,547.7 690.5,541.5 693.9,540.8 697.4,542.1 700.8,542.4 704.3,546.0 707.7,536.9 711.2,545.8 714.6,537.1 718.0,545.1 721.5,546.6 724.9,540.5 728.4,548.1 731.8,544.2 735.3,546.4 738.7,538.6 742.1,541.0 745.6,540.3 749.0,540.3 752.5,543.8 755.9,539.3 759.3,543.7 762.8,546.4 766.2,538.2 769.7,543.5 773.1,538.7 776.6,541.5 780.0,544.2"/>
<circle cx="95.0" cy="534.2" r="3" fill="#d62728"/>
<circle cx="98.4" cy="320.2" r="3" fill="#d62728"/>
<circle cx="101.9" cy="376.9" r="3" fill="#d62728"/>
<circle cx="105.3" cy="405.8" r="3" fill="#d62728"/>
<circle cx="108.8" cy="421.7" r="3" fill="#d62728"/>
<circle cx="112.2" cy="473.9" r="3" fill="#d62728"/>
<circle cx="115.7" cy="459.0" r="3" fill="#d62728"/>
<circle cx="119.1" cy="483.4" r="3" fill="#d62728"/>
<circle cx="122.5" cy="494.6" r="3" fill="#d62728"/>
<circle cx="126.0" cy="494.3" r="3" fill="#d62728"/>
<circle cx="129.4" cy="517.5" r="3" fill="#d62728"/>
<circle cx="132.9" cy="511.0" r="3" fill="#d62728"/>
<circle cx="136.3" cy="519.2" r="3" fill="#d62728"/>
<circle cx="139.7" cy="526.2" r="3" fill="#d62728"/>
<circle cx="143.2" cy="535.6" r="3" fill="#d62728"/>
<circle cx="146.6" cy="533.4" r="3" fill="#d62728"/>
<circle cx="150.1" cy="536.9" r="3" fill="#d62728"/>
<circle cx="153.5" cy="521.9" r="3" fill="#d62728"/>
<circle cx="157.0" cy="533.2" r="3" fill="#d62728"/>
<circle cx="160.4" cy="538.0" r="3" fill="#d62728"/>
<circle cx="163.8" cy="535.7" r="3" fill="#d62728"/>
<circle cx="167.3" cy="526.5" r="3" fill="#d62728"/>
<circle cx="170.7" cy="520.9" r="3" fill="#d62728"/>
<circle cx="174.2" cy="543.7" r="3" fill="#d62728"/>
<circle cx="177.6" cy="532.3" r="3" fill="#d62728"/>
<circle cx="181.1" cy="537.8" r="3" fill="#d62728"/>
<circle cx="184.5" cy="538.2" r="3" fill="#d62728"/>
<circle cx="187.9" cy="533.1" r="3" fill="#d62728"/>
<circle cx="191.4" cy="538.0" r="3" fill="#d62728"/>
<circle cx="194.8" cy="539.3" r="3" fill="#d62728"/>
<circle cx="198.3" cy="540.5" r="3" fill="#d62728"/>
<circle cx="201.7" cy="543.4" r="3" fill="#d62728"/>
<circle cx="205.2" cy="533.4" r="3" fill="#d62728"/>
<circle cx="208.6" cy="539.8" r="3" fill="#d62728"/>
<circle cx="212.0" cy="538.6" r="3" fill="#d62728"/>
<circle cx="215.5" cy="538.2" r="3" fill="#d62728"/>
<circle cx="218.9" cy="537.7" r="3" fill="#d62728"/>
<circle cx="222.4" cy="532.4" r="3" fill="#d62728"/>
<circle cx="225.8" cy="540.7" r="3" fill="#d62728"/>
<circle cx="229.2" cy="538.3" r="3" fill="#d62728"/>
<circle cx="232.7" cy="537.8" r="3" fill="#d62728"/>
<circle cx="236.1" cy="540.3" r="3" fill="#d62728"/>
<circle cx="239.6" cy="543.5" r="3" fill="#d62728"/>
<circle cx="243.0" cy="545.8" r="3" fill="#d62728"/>
<circle cx="246.5" cy="540.7" r="3" fill="#d62728"/>
<circle cx="249.9" cy="542.5" r="3" fill="#d62728"/>
<circle cx="253.3" cy="541.2" r="3" fill="#d62728"/>
<circle cx="256.8" cy="545.6" r="3" fill="#d62728"/>
<circle cx="260.2" cy="538.8" r="3" fill="#d62728"/>
<circle cx="263.7" cy="545.1" r="3" fill="#d62728"/>
<circle cx="267.1" cy="542.5" r="3" fill="#d62728"/>
<circle cx="270.6" cy="542.1" r="3" fill="#d62728"/>
<circle cx="274.0" cy="543.6" r="3" fill="#d62728"/>
<circle cx="277.4" cy="537.6" r="3" fill="#d62728"/>
<circle cx="280.9" cy="541.5" r="3" fill="#d62728"/>
<circle cx="284.3" cy="545.4" r="3" fill="#d62728"/>
<circle cx="287.8" cy="538.5" r="3" fill="#d62728"/>
<circle cx="291.2" cy="545.9" r="3" fill="#d62728"/>
<circle cx="294.6" cy="543.0" r="3" fill="#d62728"/>
<circle cx="298.1" cy="538.1" r="3" fill="#d62728"/>
<circle cx="301.5" cy="547.4" r="3" fill="#d62728"/>
<circle cx="305.0" cy="541.2" r="3" fill="#d62728"/>
<circle cx="308.4" cy="541.8" r="3" fill="#d62728"/>
<circle cx="311.9" cy="539.6" r="3" fill="#d62728"/>
<circle cx="315.3" cy="542.9" r="3" fill="#d62728"/>
<circle cx="318.7" cy="543.9" r="3" fill="#d62728"/>
<circle cx="322.2" cy="539.1" r="3" fill="#d62728"/>
<circle cx="325.6" cy="539.8" r="3" fill="#d62728"/>
<circle cx="329.1" cy="533.5" r="3" fill="#d62728"/>
<circle cx="332.5" cy="545.0" r="3" fill="#d62728"/>
<circle cx="336.0" cy="544.2" r="3" fill="#d62728"/>
<circle cx="339.4" cy="540.6" r="3" fill="#d62728"/>
<circle cx="342.8" cy="541.2" r="3" fill="#d62728"/>
<circle cx="346.3" cy="537.5" r="3" fill="#d62728"/>
<circle cx="349.7" cy="539.0" r="3" fill="#d62728"/>
<circle cx="353.2" cy="542.9" r="3" fill="#d62728"/>
<circle cx="356.6" cy="544.1" r="3" fill="#d62728"/>
<circle cx="360.1" cy="539.5" r="3" fill="#d62728"/>
<circle cx="363.5" cy="540.8" r="3" fill="#d62728"/>
<circle cx="366.9" cy="544.9" r="3" fill="#d62728"/>
<circle cx="370.4" cy="544.3" r="3" fill="#d62728"/>
<circle cx="373.8" cy="539.5" r="3" fill="#d62728"/>
<circle cx="377.3" cy="545.1" r="3" fill="#d62728"/>
<circle cx="380.7" cy="537.8" r="3" fill="#d62728"/>
<circle cx="384.1" cy="542.8" r="3" fill="#d62728"/>
<circle cx="387.6" cy="538.2" r="3" fill="#d62728"/>
<circle cx="391.0" cy="539.2" r="3" fill="#d62728"/>
<circle cx="394.5" cy="538.8" r="3" fill="#d62728"/>
<circle cx="397.9" cy="545.0" r="3" fill="#d62728"/>
<circle cx="401.4" cy="540.3" r="3" fill="#d62728"/>
<circle cx="404.8" cy="537.6" r="3" fill="#d62728"/>
<circle cx="408.2" cy="541.7" r="3" fill="#d62728"/>
<circle cx="411.7" cy="548.5" r="3" fill="#d62728"/>
<circle cx="415.1" cy="541.1" r="3" fill="#d62728"/>
<circle cx="418.6" cy="542.1" r="3" fill="#d62728"/>
<circle cx="422.0" cy="544.6" r="3" fill="#d62728"/>
<circle cx="425.5" cy="440.1" r="3" fill="#d62728"/>
<circle cx="428.9" cy="542.7" r="3" fill="#d62728"/>
<circle cx="432.3" cy="542.6" r="3" fill="#d62728"/>
<circle cx="435.8" cy="542.1" r="3" fill="#d62728"/>
<circle cx="439.2" cy="546.7" r="3" fill="#d62728"/>
<circle cx="442.7" cy="545.3" r="3" fill="#d62728"/>
<circle cx="446.1" cy="546.4" r="3" fill="#d62728"/>
<circle cx="449.5" cy="541.6" r="3" fill="#d62728"/>
<circle cx="453.0" cy="541.6" r="3" fill="#d62728"/>
<circle cx="456.4" cy="539.6" r="3" fill="#d62728"/>
<circle cx="459.9" cy="541.1" r="3" fill="#d62728"/>
<circle cx="463.3" cy="543.0" r="3" fill="#d62728"/>
<circle cx="466.8" cy="543.3" r="3" fill="#d62728"/>
<circle cx="470.2" cy="543.9" r="3" fill="#d62728"/>
<circle cx="473.6" cy="541.1" r="3" fill="#d62728"/>
<circle cx="477.1" cy="545.3" r="3" fill="#d62728"/>
<circle cx="480.5" cy="544.9" r="3" fill="#d62728"/>
<circle cx="484.0" cy="545.9" r="3" fill="#d62728"/>
<circle cx="487.4" cy="547.8" r="3" fill="#d62728"/>
<circle cx="490.9" cy="542.1" r="3" fill="#d62728"/>
<circle cx="494.3" cy="545.2" r="3" fill="#d62728"/>
<circle cx="497.7" cy="546.2" r="3" fill="#d62728"/>
<circle cx="501.2" cy="542.9" r="3" fill="#d62728"/>
<circle cx="504.6" cy="537.8" r="3" fill="#d62728"/>
<circle cx="508.1" cy="540.5" r="3" fill="#d62728"/>
<circle cx="511.5" cy="542.9" r="3" fill="#d62728"/>
<circle cx="514.9" cy="543.2" r="3" fill="#d62728"/>
<circle cx="518.4" cy="545.9" r="3" fill="#d62728"/>
<circle cx="521.8" cy="545.7" r="3" fill="#d62728"/>
<circle cx="525.3" cy="543.2" r="3" fill="#d62728"/>
<circle cx="528.7" cy="545.4" r="3" fill="#d62728"/>
<circle cx="532.2" cy="541.1" r="3" fill="#d62728"/>
<circle cx="535.6" cy="548.5" r="3" fill="#d62728"/>
<circle cx="539.0" cy="545.3" r="3" fill="#d62728"/>
<circle cx="542.5" cy="545.1" r="3" fill="#d62728"/>
<circle cx="545.9" cy="541.0" r="3" fill="#d62728"/>
<circle cx="549.4" cy="539.1" r="3" fill="#d62728"/>
<circle cx="552.8" cy="546.6" r="3" fill="#d62728"/>
<circle cx="556.3" cy="544.4" r="3" fill="#d62728"/>
<circle cx="559.7" cy="544.3" r="3" fill="#d62728"/>
<circle cx="563.1" cy="541.8" r="3" fill="#d62728"/>
<circle cx="566.6" cy="545.4" r="3" fill="#d62728"/>
<circle cx="570.0" cy="547.0" r="3" fill="#d62728"/>
<circle cx="573.5" cy="546.7" r="3" fill="#d62728"/>
<circle cx="576.9" cy="547.7" r="3" fill="#d62728"/>
<circle cx="580.4" cy="539.0" r="3" fill="#d62728"/>
<circle cx="583.8" cy="546.7" r="3" fill="#d62728"/>
<circle cx="587.2" cy="545.6" r="3" fill="#d62728"/>
<circle cx="590.7" cy="544.3" r="3" fill="#d62728"/>
<circle cx="594.1" cy="544.5" r="3" fill="#d62728"/>
<circle cx="597.6" cy="537.6" r="3" fill="#d62728"/>
<circle cx="601.0" cy="547.7" r="3" fill="#d62728"/>
<circle cx="604.4" cy="541.1" r="3" fill="#d62728"/>
<circle cx="607.9" cy="540.8" r="3" fill="#d62728"/>
<circle cx="611.3" cy="541.1" r="3" fill="#d62728"/>
<circle cx="614.8" cy="537.8" r="3" fill="#d62728"/>
<circle cx="618.2" cy="546.8" r="3" fill="#d62728"/>
<circle cx="621.7" cy="538.3" r="3" fill="#d62728"/>
<circle cx="625.1" cy="536.1" r="3" fill="#d62728"/>
<circle cx="628.5" cy="536.7" r="3" fill="#d62728"/>
<circle cx="632.0" cy="538.0" r="3" fill="#d62728"/>
<circle cx="635.4" cy="537.7" r="3" fill="#d62728"/>
<circle cx="638.9" cy="539.1" r="3" fill="#d62728"/>
<circle cx="642.3" cy="542.3" r="3" fill="#d62728"/>
<circle cx="645.8" cy="543.4" r="3" fill="#d62728"/>
<circle cx="649.2" cy="542.6" r="3" fill="#d62728"/>
<circle cx="652.6" cy="548.3" r="3" fill="#d62728"/>
<circle cx="656.1" cy="541.0" r="3" fill="#d62728"/>
<circle cx="659.5" cy="547.6" r="3" fill="#d62728"/>
<circle cx="663.0" cy="540.0" r="3" fill="#d62728"/>
<circle cx="666.4" cy="549.7" r="3" fill="#d62728"/>
<circle cx="669.8" cy="540.7" r="3" fill="#d62728"/>
<circle cx="673.3" cy="544.3" r="3" fill="#d62728"/>
<circle cx="676.7" cy="548.3" r="3" fill="#d62728"/>
<circle cx="680.2" cy="548.2" r="3" fill="#d62728"/>
<circle cx="683.6" cy="544.3" r="3" fill="#d62728"/>
<circle cx="687.1" cy="547.7" r="3" fill="#d62728"/>
<circle cx="690.5" cy="541.5" r="3" fill="#d62728"/>
<circle cx="693.9" cy="540.8" r="3" fill="#d62728"/>
<circle cx="697.4" cy="542.1" r="3" fill="#d62728"/>
<circle cx="700.8" cy="542.4" r="3" fill="#d62728"/>
<circle cx="704.3" cy="546.0" r="3" fill="#d62728"/>
<circle cx="707.7" cy="536.9" r="3" fill="#d62728"/>
<circle cx="711.2" cy="545.8" r="3" fill="#d62728"/>
<circle cx="714.6" cy="537.1" r="3" fill="#d62728"/>
<circle cx="718.0" cy="545.1" r="3" fill="#d62728"/>
<circle cx="721.5" cy="546.6" r="3" fill="#d62728"/>
<circle cx="724.9" cy="540.5" r="3" fill="#d62728"/>
<circle cx="728.4" cy="548.1" r="3" fill="#d62728"/>
<circle cx="731.8" cy="544.2" r="3" fill="#d62728"/>
<circle cx="735.3" cy="546.4" r="3" fill="#d62728"/>
<circle cx="738.7" cy="538.6" r="3" fill="#d62728"/>
<circle cx="742.1" cy="541.0" r="3" fill="#d62728"/>
<circle cx="745.6" cy="540.3" r="3" fill="#d62728"/>
<circle cx="749.0" cy="540.3" r="3" fill="#d62728"/>
<circle cx="752.5" cy="543.8" r="3" fill="#d62728"/>
<circle cx="755.9" cy="539.3" r="3" fill="#d62728"/>
<circle cx="759.3" cy="543.7" r="3" fill="#d62728"/>
<circle cx="762.8" cy="546.4" r="3" fill="#d62728"/>
<circle cx="766.2" cy="538.2" r="3" fill="#d62728"/>
<circle cx="769.7" cy="543.5" r="3" fill="#d62728"/>
<circle cx="773.1" cy="538.7" r="3" fill="#d62728"/>
<circle cx="776.6" cy="541.5" r="3" fill="#d62728"/>
<circle cx="780.0" cy="544.2" r="3" fill="#d62728"/>
<line x1="808" y1="121" x2="830" y2="121" stroke="#d62728" stroke-width="2.5"/>
<text x="838" y="125" font-family="Arial" font-size="13">std=False</text>
<text x="437.5" y="618" text-anchor="middle" font-family="Arial" font-size="15">GRPO step</text>
<text x="24" y="316.0" text-anchor="middle" font-family="Arial" font-size="15" transform="rotate(-90 24 316.0)">pre-clip gradient norm</text>
</svg>
