<svg xmlns="http://www.w3.org/2000/svg" width="1100" height="660" viewBox="0 0 1100 660">
<rect width="100%" height="100%" fill="white"/>
<text x="550.0" y="36" text-anchor="middle" font-family="Arial" font-size="22" font-weight="700">On-policy GRPO train loop: token entropy</text>
<line x1="95" y1="578" x2="800" y2="578" stroke="#222" stroke-width="1.5"/>
<line x1="95" y1="74" x2="95" y2="578" stroke="#222" stroke-width="1.5"/>
<line x1="90" y1="578.0" x2="800" y2="578.0" stroke="#ddd" stroke-width="1"/>
<text x="83" y="582.0" text-anchor="end" font-family="Arial" font-size="12">0.00</text>
<line x1="90" y1="477.2" x2="800" y2="477.2" stroke="#ddd" stroke-width="1"/>
<text x="83" y="481.2" text-anchor="end" font-family="Arial" font-size="12">0.20</text>
<line x1="90" y1="376.4" x2="800" y2="376.4" stroke="#ddd" stroke-width="1"/>
<text x="83" y="380.4" text-anchor="end" font-family="Arial" font-size="12">0.40</text>
<line x1="90" y1="275.6" x2="800" y2="275.6" stroke="#ddd" stroke-width="1"/>
<text x="83" y="279.6" text-anchor="end" font-family="Arial" font-size="12">0.60</text>
<line x1="90" y1="174.8" x2="800" y2="174.8" stroke="#ddd" stroke-width="1"/>
<text x="83" y="178.8" text-anchor="end" font-family="Arial" font-size="12">0.80</text>
<line x1="90" y1="74.0" x2="800" y2="74.0" stroke="#ddd" stroke-width="1"/>
<text x="83" y="78.0" text-anchor="end" font-family="Arial" font-size="12">1.00</text>
<line x1="95.0" y1="578" x2="95.0" y2="583" stroke="#222" stroke-width="1"/>
<text x="95.0" y="602" text-anchor="middle" font-family="Arial" font-size="12">1</text>
<line x1="236.0" y1="578" x2="236.0" y2="583" stroke="#222" stroke-width="1"/>
<text x="236.0" y="602" text-anchor="middle" font-family="Arial" font-size="12">41</text>
<line x1="377.0" y1="578" x2="377.0" y2="583" stroke="#222" stroke-width="1"/>
<text x="377.0" y="602" text-anchor="middle" font-family="Arial" font-size="12">81</text>
<line x1="518.0" y1="578" x2="518.0" y2="583" stroke="#222" stroke-width="1"/>
<text x="518.0" y="602" text-anchor="middle" font-family="Arial" font-size="12">120</text>
<line x1="659.0" y1="578" x2="659.0" y2="583" stroke="#222" stroke-width="1"/>
<text x="659.0" y="602" text-anchor="middle" font-family="Arial" font-size="12">160</text>
<line x1="800.0" y1="578" x2="800.0" y2="583" stroke="#222" stroke-width="1"/>
<text x="800.0" y="602" text-anchor="middle" font-family="Arial" font-size="12">200</text>
<polyline fill="none" stroke="#1f77b4" stroke-width="2.3" points="95.0,110.8 98.5,140.1 102.1,170.4 105.6,192.8 109.2,199.7 112.7,192.9 116.3,232.5 119.8,208.4 123.3,200.8 126.9,246.1 130.4,228.9 134.0,234.0 137.5,256.0 141.1,210.9 144.6,251.0 148.1,263.7 151.7,254.9 155.2,243.8 158.8,258.2 162.3,237.0 165.9,260.2 169.4,266.2 172.9,266.5 176.5,240.8 180.0,253.2 183.6,235.8 187.1,275.8 190.7,280.7 194.2,268.3 197.7,214.2 201.3,238.7 204.8,282.1 208.4,275.9 211.9,246.8 215.5,257.2 219.0,248.9 222.5,279.5 226.1,272.4 229.6,318.9 233.2,316.4 236.7,324.1 240.3,312.9 243.8,354.8 247.3,300.4 250.9,322.7 254.4,362.0 258.0,375.0 261.5,361.2 265.1,388.0 268.6,383.5 272.1,399.2 275.7,408.8 279.2,442.9 282.8,388.2 286.3,422.2 289.8,412.9 293.4,447.4 296.9,397.6 300.5,415.6 304.0,414.9 307.6,422.4 311.1,432.3 314.6,444.0 318.2,438.5 321.7,427.6 325.3,418.7 328.8,443.9 332.4,439.1 335.9,462.9 339.4,436.5 343.0,402.8 346.5,445.4 350.1,458.4 353.6,453.6 357.2,457.7 360.7,461.0 364.2,450.1 367.8,429.2 371.3,476.2 374.9,462.9 378.4,466.8 382.0,477.1 385.5,464.8 389.0,442.0 392.6,469.3 396.1,470.1 399.7,472.6 403.2,471.1 406.8,472.0 410.3,493.0 413.8,479.1 417.4,440.6 420.9,476.7 424.5,476.8 428.0,457.6 431.6,486.9 435.1,474.6 438.6,483.5 442.2,477.9 445.7,480.5 449.3,481.4 452.8,484.9 456.4,488.2 459.9,479.1 463.4,495.7 467.0,486.2 470.5,486.6 474.1,467.5 477.6,478.8 481.2,492.5 484.7,483.6 488.2,484.7 491.8,482.2 495.3,486.0 498.9,481.9 502.4,489.1 506.0,488.8 509.5,487.7 513.0,494.4 516.6,467.1 520.1,480.9 523.7,478.3 527.2,482.5 530.8,497.5 534.3,492.0 537.8,491.1 541.4,475.6 544.9,486.2 548.5,498.2 552.0,481.2 555.6,477.9 559.1,492.3 562.6,497.3 566.2,485.8 569.7,503.5 573.3,496.3 576.8,484.7 580.4,492.4 583.9,485.5 587.4,482.1 591.0,491.5 594.5,490.3 598.1,498.9 601.6,488.3 605.2,485.1 608.7,489.3 612.2,476.2 615.8,487.0 619.3,479.9 622.9,486.8 626.4,490.0 629.9,489.9 633.5,495.2 637.0,494.4 640.6,498.2 644.1,497.5 647.7,485.1 651.2,493.4 654.7,482.6 658.3,481.6 661.8,488.5 665.4,500.6 668.9,497.9 672.5,483.6 676.0,482.7 679.5,493.5 683.1,500.1 686.6,500.9 690.2,484.4 693.7,493.8 697.3,493.0 700.8,491.5 704.3,492.1 707.9,497.3 711.4,477.6 715.0,477.8 718.5,487.4 722.1,476.5 725.6,478.1 729.1,502.3 732.7,484.8 736.2,495.7 739.8,495.8 743.3,483.2 746.9,501.2 750.4,501.8 753.9,507.7 757.5,499.1 761.0,497.8 764.6,491.8 768.1,504.2 771.7,499.6 775.2,488.9 778.7,490.1 782.3,477.3 785.8,474.3 789.4,487.8 792.9,465.9 796.5,496.0 800.0,492.4"/>
<circle cx="95.0" cy="110.8" r="3" fill="#1f77b4"/>
<circle cx="98.5" cy="140.1" r="3" fill="#1f77b4"/>
<circle cx="102.1" cy="170.4" r="3" fill="#1f77b4"/>
<circle cx="105.6" cy="192.8" r="3" fill="#1f77b4"/>
<circle cx="109.2" cy="199.7" r="3" fill="#1f77b4"/>
<circle cx="112.7" cy="192.9" r="3" fill="#1f77b4"/>
<circle cx="116.3" cy="232.5" r="3" fill="#1f77b4"/>
<circle cx="119.8" cy="208.4" r="3" fill="#1f77b4"/>
<circle cx="123.3" cy="200.8" r="3" fill="#1f77b4"/>
<circle cx="126.9" cy="246.1" r="3" fill="#1f77b4"/>
<circle cx="130.4" cy="228.9" r="3" fill="#1f77b4"/>
<circle cx="134.0" cy="234.0" r="3" fill="#1f77b4"/>
<circle cx="137.5" cy="256.0" r="3" fill="#1f77b4"/>
<circle cx="141.1" cy="210.9" r="3" fill="#1f77b4"/>
<circle cx="144.6" cy="251.0" r="3" fill="#1f77b4"/>
<circle cx="148.1" cy="263.7" r="3" fill="#1f77b4"/>
<circle cx="151.7" cy="254.9" r="3" fill="#1f77b4"/>
<circle cx="155.2" cy="243.8" r="3" fill="#1f77b4"/>
<circle cx="158.8" cy="258.2" r="3" fill="#1f77b4"/>
<circle cx="162.3" cy="237.0" r="3" fill="#1f77b4"/>
<circle cx="165.9" cy="260.2" r="3" fill="#1f77b4"/>
<circle cx="169.4" cy="266.2" r="3" fill="#1f77b4"/>
<circle cx="172.9" cy="266.5" r="3" fill="#1f77b4"/>
<circle cx="176.5" cy="240.8" r="3" fill="#1f77b4"/>
<circle cx="180.0" cy="253.2" r="3" fill="#1f77b4"/>
<circle cx="183.6" cy="235.8" r="3" fill="#1f77b4"/>
<circle cx="187.1" cy="275.8" r="3" fill="#1f77b4"/>
<circle cx="190.7" cy="280.7" r="3" fill="#1f77b4"/>
<circle cx="194.2" cy="268.3" r="3" fill="#1f77b4"/>
<circle cx="197.7" cy="214.2" r="3" fill="#1f77b4"/>
<circle cx="201.3" cy="238.7" r="3" fill="#1f77b4"/>
<circle cx="204.8" cy="282.1" r="3" fill="#1f77b4"/>
<circle cx="208.4" cy="275.9" r="3" fill="#1f77b4"/>
<circle cx="211.9" cy="246.8" r="3" fill="#1f77b4"/>
<circle cx="215.5" cy="257.2" r="3" fill="#1f77b4"/>
<circle cx="219.0" cy="248.9" r="3" fill="#1f77b4"/>
<circle cx="222.5" cy="279.5" r="3" fill="#1f77b4"/>
<circle cx="226.1" cy="272.4" r="3" fill="#1f77b4"/>
<circle cx="229.6" cy="318.9" r="3" fill="#1f77b4"/>
<circle cx="233.2" cy="316.4" r="3" fill="#1f77b4"/>
<circle cx="236.7" cy="324.1" r="3" fill="#1f77b4"/>
<circle cx="240.3" cy="312.9" r="3" fill="#1f77b4"/>
<circle cx="243.8" cy="354.8" r="3" fill="#1f77b4"/>
<circle cx="247.3" cy="300.4" r="3" fill="#1f77b4"/>
<circle cx="250.9" cy="322.7" r="3" fill="#1f77b4"/>
<circle cx="254.4" cy="362.0" r="3" fill="#1f77b4"/>
<circle cx="258.0" cy="375.0" r="3" fill="#1f77b4"/>
<circle cx="261.5" cy="361.2" r="3" fill="#1f77b4"/>
<circle cx="265.1" cy="388.0" r="3" fill="#1f77b4"/>
<circle cx="268.6" cy="383.5" r="3" fill="#1f77b4"/>
<circle cx="272.1" cy="399.2" r="3" fill="#1f77b4"/>
<circle cx="275.7" cy="408.8" r="3" fill="#1f77b4"/>
<circle cx="279.2" cy="442.9" r="3" fill="#1f77b4"/>
<circle cx="282.8" cy="388.2" r="3" fill="#1f77b4"/>
<circle cx="286.3" cy="422.2" r="3" fill="#1f77b4"/>
<circle cx="289.8" cy="412.9" r="3" fill="#1f77b4"/>
<circle cx="293.4" cy="447.4" r="3" fill="#1f77b4"/>
<circle cx="296.9" cy="397.6" r="3" fill="#1f77b4"/>
<circle cx="300.5" cy="415.6" r="3" fill="#1f77b4"/>
<circle cx="304.0" cy="414.9" r="3" fill="#1f77b4"/>
<circle cx="307.6" cy="422.4" r="3" fill="#1f77b4"/>
<circle cx="311.1" cy="432.3" r="3" fill="#1f77b4"/>
<circle cx="314.6" cy="444.0" r="3" fill="#1f77b4"/>
<circle cx="318.2" cy="438.5" r="3" fill="#1f77b4"/>
<circle cx="321.7" cy="427.6" r="3" fill="#1f77b4"/>
<circle cx="325.3" cy="418.7" r="3" fill="#1f77b4"/>
<circle cx="328.8" cy="443.9" r="3" fill="#1f77b4"/>
<circle cx="332.4" cy="439.1" r="3" fill="#1f77b4"/>
<circle cx="335.9" cy="462.9" r="3" fill="#1f77b4"/>
<circle cx="339.4" cy="436.5" r="3" fill="#1f77b4"/>
<circle cx="343.0" cy="402.8" r="3" fill="#1f77b4"/>
<circle cx="346.5" cy="445.4" r="3" fill="#1f77b4"/>
<circle cx="350.1" cy="458.4" r="3" fill="#1f77b4"/>
<circle cx="353.6" cy="453.6" r="3" fill="#1f77b4"/>
<circle cx="357.2" cy="457.7" r="3" fill="#1f77b4"/>
<circle cx="360.7" cy="461.0" r="3" fill="#1f77b4"/>
<circle cx="364.2" cy="450.1" r="3" fill="#1f77b4"/>
<circle cx="367.8" cy="429.2" r="3" fill="#1f77b4"/>
<circle cx="371.3" cy="476.2" r="3" fill="#1f77b4"/>
<circle cx="374.9" cy="462.9" r="3" fill="#1f77b4"/>
<circle cx="378.4" cy="466.8" r="3" fill="#1f77b4"/>
<circle cx="382.0" cy="477.1" r="3" fill="#1f77b4"/>
<circle cx="385.5" cy="464.8" r="3" fill="#1f77b4"/>
<circle cx="389.0" cy="442.0" r="3" fill="#1f77b4"/>
<circle cx="392.6" cy="469.3" r="3" fill="#1f77b4"/>
<circle cx="396.1" cy="470.1" r="3" fill="#1f77b4"/>
<circle cx="399.7" cy="472.6" r="3" fill="#1f77b4"/>
<circle cx="403.2" cy="471.1" r="3" fill="#1f77b4"/>
<circle cx="406.8" cy="472.0" r="3" fill="#1f77b4"/>
<circle cx="410.3" cy="493.0" r="3" fill="#1f77b4"/>
<circle cx="413.8" cy="479.1" r="3" fill="#1f77b4"/>
<circle cx="417.4" cy="440.6" r="3" fill="#1f77b4"/>
<circle cx="420.9" cy="476.7" r="3" fill="#1f77b4"/>
<circle cx="424.5" cy="476.8" r="3" fill="#1f77b4"/>
<circle cx="428.0" cy="457.6" r="3" fill="#1f77b4"/>
<circle cx="431.6" cy="486.9" r="3" fill="#1f77b4"/>
<circle cx="435.1" cy="474.6" r="3" fill="#1f77b4"/>
<circle cx="438.6" cy="483.5" r="3" fill="#1f77b4"/>
<circle cx="442.2" cy="477.9" r="3" fill="#1f77b4"/>
<circle cx="445.7" cy="480.5" r="3" fill="#1f77b4"/>
<circle cx="449.3" cy="481.4" r="3" fill="#1f77b4"/>
<circle cx="452.8" cy="484.9" r="3" fill="#1f77b4"/>
<circle cx="456.4" cy="488.2" r="3" fill="#1f77b4"/>
<circle cx="459.9" cy="479.1" r="3" fill="#1f77b4"/>
<circle cx="463.4" cy="495.7" r="3" fill="#1f77b4"/>
<circle cx="467.0" cy="486.2" r="3" fill="#1f77b4"/>
<circle cx="470.5" cy="486.6" r="3" fill="#1f77b4"/>
<circle cx="474.1" cy="467.5" r="3" fill="#1f77b4"/>
<circle cx="477.6" cy="478.8" r="3" fill="#1f77b4"/>
<circle cx="481.2" cy="492.5" r="3" fill="#1f77b4"/>
<circle cx="484.7" cy="483.6" r="3" fill="#1f77b4"/>
<circle cx="488.2" cy="484.7" r="3" fill="#1f77b4"/>
<circle cx="491.8" cy="482.2" r="3" fill="#1f77b4"/>
<circle cx="495.3" cy="486.0" r="3" fill="#1f77b4"/>
<circle cx="498.9" cy="481.9" r="3" fill="#1f77b4"/>
<circle cx="502.4" cy="489.1" r="3" fill="#1f77b4"/>
<circle cx="506.0" cy="488.8" r="3" fill="#1f77b4"/>
<circle cx="509.5" cy="487.7" r="3" fill="#1f77b4"/>
<circle cx="513.0" cy="494.4" r="3" fill="#1f77b4"/>
<circle cx="516.6" cy="467.1" r="3" fill="#1f77b4"/>
<circle cx="520.1" cy="480.9" r="3" fill="#1f77b4"/>
<circle cx="523.7" cy="478.3" r="3" fill="#1f77b4"/>
<circle cx="527.2" cy="482.5" r="3" fill="#1f77b4"/>
<circle cx="530.8" cy="497.5" r="3" fill="#1f77b4"/>
<circle cx="534.3" cy="492.0" r="3" fill="#1f77b4"/>
<circle cx="537.8" cy="491.1" r="3" fill="#1f77b4"/>
<circle cx="541.4" cy="475.6" r="3" fill="#1f77b4"/>
<circle cx="544.9" cy="486.2" r="3" fill="#1f77b4"/>
<circle cx="548.5" cy="498.2" r="3" fill="#1f77b4"/>
<circle cx="552.0" cy="481.2" r="3" fill="#1f77b4"/>
<circle cx="555.6" cy="477.9" r="3" fill="#1f77b4"/>
<circle cx="559.1" cy="492.3" r="3" fill="#1f77b4"/>
<circle cx="562.6" cy="497.3" r="3" fill="#1f77b4"/>
<circle cx="566.2" cy="485.8" r="3" fill="#1f77b4"/>
<circle cx="569.7" cy="503.5" r="3" fill="#1f77b4"/>
<circle cx="573.3" cy="496.3" r="3" fill="#1f77b4"/>
<circle cx="576.8" cy="484.7" r="3" fill="#1f77b4"/>
<circle cx="580.4" cy="492.4" r="3" fill="#1f77b4"/>
<circle cx="583.9" cy="485.5" r="3" fill="#1f77b4"/>
<circle cx="587.4" cy="482.1" r="3" fill="#1f77b4"/>
<circle cx="591.0" cy="491.5" r="3" fill="#1f77b4"/>
<circle cx="594.5" cy="490.3" r="3" fill="#1f77b4"/>
<circle cx="598.1" cy="498.9" r="3" fill="#1f77b4"/>
<circle cx="601.6" cy="488.3" r="3" fill="#1f77b4"/>
<circle cx="605.2" cy="485.1" r="3" fill="#1f77b4"/>
<circle cx="608.7" cy="489.3" r="3" fill="#1f77b4"/>
<circle cx="612.2" cy="476.2" r="3" fill="#1f77b4"/>
<circle cx="615.8" cy="487.0" r="3" fill="#1f77b4"/>
<circle cx="619.3" cy="479.9" r="3" fill="#1f77b4"/>
<circle cx="622.9" cy="486.8" r="3" fill="#1f77b4"/>
<circle cx="626.4" cy="490.0" r="3" fill="#1f77b4"/>
<circle cx="629.9" cy="489.9" r="3" fill="#1f77b4"/>
<circle cx="633.5" cy="495.2" r="3" fill="#1f77b4"/>
<circle cx="637.0" cy="494.4" r="3" fill="#1f77b4"/>
<circle cx="640.6" cy="498.2" r="3" fill="#1f77b4"/>
<circle cx="644.1" cy="497.5" r="3" fill="#1f77b4"/>
<circle cx="647.7" cy="485.1" r="3" fill="#1f77b4"/>
<circle cx="651.2" cy="493.4" r="3" fill="#1f77b4"/>
<circle cx="654.7" cy="482.6" r="3" fill="#1f77b4"/>
<circle cx="658.3" cy="481.6" r="3" fill="#1f77b4"/>
<circle cx="661.8" cy="488.5" r="3" fill="#1f77b4"/>
<circle cx="665.4" cy="500.6" r="3" fill="#1f77b4"/>
<circle cx="668.9" cy="497.9" r="3" fill="#1f77b4"/>
<circle cx="672.5" cy="483.6" r="3" fill="#1f77b4"/>
<circle cx="676.0" cy="482.7" r="3" fill="#1f77b4"/>
<circle cx="679.5" cy="493.5" r="3" fill="#1f77b4"/>
<circle cx="683.1" cy="500.1" r="3" fill="#1f77b4"/>
<circle cx="686.6" cy="500.9" r="3" fill="#1f77b4"/>
<circle cx="690.2" cy="484.4" r="3" fill="#1f77b4"/>
<circle cx="693.7" cy="493.8" r="3" fill="#1f77b4"/>
<circle cx="697.3" cy="493.0" r="3" fill="#1f77b4"/>
<circle cx="700.8" cy="491.5" r="3" fill="#1f77b4"/>
<circle cx="704.3" cy="492.1" r="3" fill="#1f77b4"/>
<circle cx="707.9" cy="497.3" r="3" fill="#1f77b4"/>
<circle cx="711.4" cy="477.6" r="3" fill="#1f77b4"/>
<circle cx="715.0" cy="477.8" r="3" fill="#1f77b4"/>
<circle cx="718.5" cy="487.4" r="3" fill="#1f77b4"/>
<circle cx="722.1" cy="476.5" r="3" fill="#1f77b4"/>
<circle cx="725.6" cy="478.1" r="3" fill="#1f77b4"/>
<circle cx="729.1" cy="502.3" r="3" fill="#1f77b4"/>
<circle cx="732.7" cy="484.8" r="3" fill="#1f77b4"/>
<circle cx="736.2" cy="495.7" r="3" fill="#1f77b4"/>
<circle cx="739.8" cy="495.8" r="3" fill="#1f77b4"/>
<circle cx="743.3" cy="483.2" r="3" fill="#1f77b4"/>
<circle cx="746.9" cy="501.2" r="3" fill="#1f77b4"/>
<circle cx="750.4" cy="501.8" r="3" fill="#1f77b4"/>
<circle cx="753.9" cy="507.7" r="3" fill="#1f77b4"/>
<circle cx="757.5" cy="499.1" r="3" fill="#1f77b4"/>
<circle cx="761.0" cy="497.8" r="3" fill="#1f77b4"/>
<circle cx="764.6" cy="491.8" r="3" fill="#1f77b4"/>
<circle cx="768.1" cy="504.2" r="3" fill="#1f77b4"/>
<circle cx="771.7" cy="499.6" r="3" fill="#1f77b4"/>
<circle cx="775.2" cy="488.9" r="3" fill="#1f77b4"/>
<circle cx="778.7" cy="490.1" r="3" fill="#1f77b4"/>
<circle cx="782.3" cy="477.3" r="3" fill="#1f77b4"/>
<circle cx="785.8" cy="474.3" r="3" fill="#1f77b4"/>
<circle cx="789.4" cy="487.8" r="3" fill="#1f77b4"/>
<circle cx="792.9" cy="465.9" r="3" fill="#1f77b4"/>
<circle cx="796.5" cy="496.0" r="3" fill="#1f77b4"/>
<circle cx="800.0" cy="492.4" r="3" fill="#1f77b4"/>
<line x1="828" y1="96" x2="850" y2="96" stroke="#1f77b4" stroke-width="2.5"/>
<text x="858" y="100" font-family="Arial" font-size="13">grpo_on_policy_lr1e-5</text>
<text x="447.5" y="638" text-anchor="middle" font-family="Arial" font-size="15">GRPO step</text>
<text x="24" y="326.0" text-anchor="middle" font-family="Arial" font-size="15" transform="rotate(-90 24 326.0)">Token entropy (nats)</text>
</svg>
