<svg xmlns="http://www.w3.org/2000/svg" width="1100" height="660" viewBox="0 0 1100 660">
<rect width="100%" height="100%" fill="white"/>
<text x="550.0" y="36" text-anchor="middle" font-family="Arial" font-size="22" font-weight="700">On-policy GRPO train loop: validation format accuracy</text>
<line x1="95" y1="578" x2="800" y2="578" stroke="#222" stroke-width="1.5"/>
<line x1="95" y1="74" x2="95" y2="578" stroke="#222" stroke-width="1.5"/>
<line x1="90" y1="578.0" x2="800" y2="578.0" stroke="#ddd" stroke-width="1"/>
<text x="83" y="582.0" text-anchor="end" font-family="Arial" font-size="12">0.00%</text>
<line x1="90" y1="477.2" x2="800" y2="477.2" stroke="#ddd" stroke-width="1"/>
<text x="83" y="481.2" text-anchor="end" font-family="Arial" font-size="12">16.00%</text>
<line x1="90" y1="376.4" x2="800" y2="376.4" stroke="#ddd" stroke-width="1"/>
<text x="83" y="380.4" text-anchor="end" font-family="Arial" font-size="12">32.00%</text>
<line x1="90" y1="275.6" x2="800" y2="275.6" stroke="#ddd" stroke-width="1"/>
<text x="83" y="279.6" text-anchor="end" font-family="Arial" font-size="12">48.00%</text>
<line x1="90" y1="174.8" x2="800" y2="174.8" stroke="#ddd" stroke-width="1"/>
<text x="83" y="178.8" text-anchor="end" font-family="Arial" font-size="12">64.00%</text>
<line x1="90" y1="74.0" x2="800" y2="74.0" stroke="#ddd" stroke-width="1"/>
<text x="83" y="78.0" text-anchor="end" font-family="Arial" font-size="12">80.00%</text>
<line x1="95.0" y1="578" x2="95.0" y2="583" stroke="#222" stroke-width="1"/>
<text x="95.0" y="602" text-anchor="middle" font-family="Arial" font-size="12">0</text>
<line x1="236.0" y1="578" x2="236.0" y2="583" stroke="#222" stroke-width="1"/>
<text x="236.0" y="602" text-anchor="middle" font-family="Arial" font-size="12">40</text>
<line x1="377.0" y1="578" x2="377.0" y2="583" stroke="#222" stroke-width="1"/>
<text x="377.0" y="602" text-anchor="middle" font-family="Arial" font-size="12">80</text>
<line x1="518.0" y1="578" x2="518.0" y2="583" stroke="#222" stroke-width="1"/>
<text x="518.0" y="602" text-anchor="middle" font-family="Arial" font-size="12">120</text>
<line x1="659.0" y1="578" x2="659.0" y2="583" stroke="#222" stroke-width="1"/>
<text x="659.0" y="602" text-anchor="middle" font-family="Arial" font-size="12">160</text>
<line x1="800.0" y1="578" x2="800.0" y2="583" stroke="#222" stroke-width="1"/>
<text x="800.0" y="602" text-anchor="middle" font-family="Arial" font-size="12">200</text>
<polyline fill="none" stroke="#1f77b4" stroke-width="2.3" points="95.0,464.2 112.6,383.0 130.2,373.1 147.9,331.9 165.5,298.7 183.1,275.3 200.8,244.5 218.4,235.3 236.0,185.5 253.6,176.9 271.2,162.7 288.9,136.3 306.5,149.8 324.1,139.3 341.8,132.0 359.4,117.8 377.0,133.2 394.6,130.1 412.2,128.3 429.9,136.3 447.5,120.3 465.1,112.3 482.8,124.6 500.4,116.0 518.0,116.6 535.6,131.3 553.2,122.1 570.9,116.0 588.5,114.1 606.1,127.0 623.8,103.0 641.4,111.7 659.0,118.4 676.6,103.0 694.2,106.1 711.9,108.0 729.5,104.3 747.1,123.3 764.8,119.0 782.4,98.7 800.0,116.0"/>
<circle cx="95.0" cy="464.2" r="3" fill="#1f77b4"/>
<circle cx="112.6" cy="383.0" r="3" fill="#1f77b4"/>
<circle cx="130.2" cy="373.1" r="3" fill="#1f77b4"/>
<circle cx="147.9" cy="331.9" r="3" fill="#1f77b4"/>
<circle cx="165.5" cy="298.7" r="3" fill="#1f77b4"/>
<circle cx="183.1" cy="275.3" r="3" fill="#1f77b4"/>
<circle cx="200.8" cy="244.5" r="3" fill="#1f77b4"/>
<circle cx="218.4" cy="235.3" r="3" fill="#1f77b4"/>
<circle cx="236.0" cy="185.5" r="3" fill="#1f77b4"/>
<circle cx="253.6" cy="176.9" r="3" fill="#1f77b4"/>
<circle cx="271.2" cy="162.7" r="3" fill="#1f77b4"/>
<circle cx="288.9" cy="136.3" r="3" fill="#1f77b4"/>
<circle cx="306.5" cy="149.8" r="3" fill="#1f77b4"/>
<circle cx="324.1" cy="139.3" r="3" fill="#1f77b4"/>
<circle cx="341.8" cy="132.0" r="3" fill="#1f77b4"/>
<circle cx="359.4" cy="117.8" r="3" fill="#1f77b4"/>
<circle cx="377.0" cy="133.2" r="3" fill="#1f77b4"/>
<circle cx="394.6" cy="130.1" r="3" fill="#1f77b4"/>
<circle cx="412.2" cy="128.3" r="3" fill="#1f77b4"/>
<circle cx="429.9" cy="136.3" r="3" fill="#1f77b4"/>
<circle cx="447.5" cy="120.3" r="3" fill="#1f77b4"/>
<circle cx="465.1" cy="112.3" r="3" fill="#1f77b4"/>
<circle cx="482.8" cy="124.6" r="3" fill="#1f77b4"/>
<circle cx="500.4" cy="116.0" r="3" fill="#1f77b4"/>
<circle cx="518.0" cy="116.6" r="3" fill="#1f77b4"/>
<circle cx="535.6" cy="131.3" r="3" fill="#1f77b4"/>
<circle cx="553.2" cy="122.1" r="3" fill="#1f77b4"/>
<circle cx="570.9" cy="116.0" r="3" fill="#1f77b4"/>
<circle cx="588.5" cy="114.1" r="3" fill="#1f77b4"/>
<circle cx="606.1" cy="127.0" r="3" fill="#1f77b4"/>
<circle cx="623.8" cy="103.0" r="3" fill="#1f77b4"/>
<circle cx="641.4" cy="111.7" r="3" fill="#1f77b4"/>
<circle cx="659.0" cy="118.4" r="3" fill="#1f77b4"/>
<circle cx="676.6" cy="103.0" r="3" fill="#1f77b4"/>
<circle cx="694.2" cy="106.1" r="3" fill="#1f77b4"/>
<circle cx="711.9" cy="108.0" r="3" fill="#1f77b4"/>
<circle cx="729.5" cy="104.3" r="3" fill="#1f77b4"/>
<circle cx="747.1" cy="123.3" r="3" fill="#1f77b4"/>
<circle cx="764.8" cy="119.0" r="3" fill="#1f77b4"/>
<circle cx="782.4" cy="98.7" r="3" fill="#1f77b4"/>
<circle cx="800.0" cy="116.0" r="3" fill="#1f77b4"/>
<line x1="828" y1="96" x2="850" y2="96" stroke="#1f77b4" stroke-width="2.5"/>
<text x="858" y="100" font-family="Arial" font-size="13">grpo_on_policy_lr1e-5</text>
<text x="447.5" y="638" text-anchor="middle" font-family="Arial" font-size="15">GRPO step</text>
<text x="24" y="326.0" text-anchor="middle" font-family="Arial" font-size="15" transform="rotate(-90 24 326.0)">Validation format accuracy</text>
</svg>
