<svg xmlns="http://www.w3.org/2000/svg" width="1100" height="660" viewBox="0 0 1100 660">
<rect width="100%" height="100%" fill="white"/>
<text x="550.0" y="36" text-anchor="middle" font-family="Arial" font-size="22" font-weight="700">On-policy GRPO train loop: validation answer reward</text>
<line x1="95" y1="578" x2="800" y2="578" stroke="#222" stroke-width="1.5"/>
<line x1="95" y1="74" x2="95" y2="578" stroke="#222" stroke-width="1.5"/>
<line x1="90" y1="578.0" x2="800" y2="578.0" stroke="#ddd" stroke-width="1"/>
<text x="83" y="582.0" text-anchor="end" font-family="Arial" font-size="12">0.00%</text>
<line x1="90" y1="477.2" x2="800" y2="477.2" stroke="#ddd" stroke-width="1"/>
<text x="83" y="481.2" text-anchor="end" font-family="Arial" font-size="12">15.00%</text>
<line x1="90" y1="376.4" x2="800" y2="376.4" stroke="#ddd" stroke-width="1"/>
<text x="83" y="380.4" text-anchor="end" font-family="Arial" font-size="12">30.00%</text>
<line x1="90" y1="275.6" x2="800" y2="275.6" stroke="#ddd" stroke-width="1"/>
<text x="83" y="279.6" text-anchor="end" font-family="Arial" font-size="12">45.00%</text>
<line x1="90" y1="174.8" x2="800" y2="174.8" stroke="#ddd" stroke-width="1"/>
<text x="83" y="178.8" text-anchor="end" font-family="Arial" font-size="12">60.00%</text>
<line x1="90" y1="74.0" x2="800" y2="74.0" stroke="#ddd" stroke-width="1"/>
<text x="83" y="78.0" text-anchor="end" font-family="Arial" font-size="12">75.00%</text>
<line x1="95.0" y1="578" x2="95.0" y2="583" stroke="#222" stroke-width="1"/>
<text x="95.0" y="602" text-anchor="middle" font-family="Arial" font-size="12">0</text>
<line x1="236.0" y1="578" x2="236.0" y2="583" stroke="#222" stroke-width="1"/>
<text x="236.0" y="602" text-anchor="middle" font-family="Arial" font-size="12">40</text>
<line x1="377.0" y1="578" x2="377.0" y2="583" stroke="#222" stroke-width="1"/>
<text x="377.0" y="602" text-anchor="middle" font-family="Arial" font-size="12">80</text>
<line x1="518.0" y1="578" x2="518.0" y2="583" stroke="#222" stroke-width="1"/>
<text x="518.0" y="602" text-anchor="middle" font-family="Arial" font-size="12">120</text>
<line x1="659.0" y1="578" x2="659.0" y2="583" stroke="#222" stroke-width="1"/>
<text x="659.0" y="602" text-anchor="middle" font-family="Arial" font-size="12">160</text>
<line x1="800.0" y1="578" x2="800.0" y2="583" stroke="#222" stroke-width="1"/>
<text x="800.0" y="602" text-anchor="middle" font-family="Arial" font-size="12">200</text>
<polyline fill="none" stroke="#1f77b4" stroke-width="2.3" points="95.0,552.4 112.6,471.7 130.2,411.3 147.9,375.9 165.5,352.9 183.1,317.5 200.8,312.9 218.4,305.7 236.0,274.2 253.6,286.0 271.2,259.7 288.9,268.9 306.5,247.9 324.1,245.3 341.8,247.2 359.4,236.1 377.0,218.4 394.6,211.8 412.2,211.2 429.9,193.4 447.5,188.2 465.1,181.0 482.8,172.4 500.4,167.8 518.0,177.0 535.6,175.1 553.2,167.2 570.9,152.8 588.5,153.4 606.1,154.7 623.8,139.6 641.4,157.3 659.0,158.7 676.6,157.3 694.2,150.8 711.9,124.5 729.5,129.1 747.1,132.4 764.8,127.8 782.4,122.6 800.0,125.8"/>
<circle cx="95.0" cy="552.4" r="3" fill="#1f77b4"/>
<circle cx="112.6" cy="471.7" r="3" fill="#1f77b4"/>
<circle cx="130.2" cy="411.3" r="3" fill="#1f77b4"/>
<circle cx="147.9" cy="375.9" r="3" fill="#1f77b4"/>
<circle cx="165.5" cy="352.9" r="3" fill="#1f77b4"/>
<circle cx="183.1" cy="317.5" r="3" fill="#1f77b4"/>
<circle cx="200.8" cy="312.9" r="3" fill="#1f77b4"/>
<circle cx="218.4" cy="305.7" r="3" fill="#1f77b4"/>
<circle cx="236.0" cy="274.2" r="3" fill="#1f77b4"/>
<circle cx="253.6" cy="286.0" r="3" fill="#1f77b4"/>
<circle cx="271.2" cy="259.7" r="3" fill="#1f77b4"/>
<circle cx="288.9" cy="268.9" r="3" fill="#1f77b4"/>
<circle cx="306.5" cy="247.9" r="3" fill="#1f77b4"/>
<circle cx="324.1" cy="245.3" r="3" fill="#1f77b4"/>
<circle cx="341.8" cy="247.2" r="3" fill="#1f77b4"/>
<circle cx="359.4" cy="236.1" r="3" fill="#1f77b4"/>
<circle cx="377.0" cy="218.4" r="3" fill="#1f77b4"/>
<circle cx="394.6" cy="211.8" r="3" fill="#1f77b4"/>
<circle cx="412.2" cy="211.2" r="3" fill="#1f77b4"/>
<circle cx="429.9" cy="193.4" r="3" fill="#1f77b4"/>
<circle cx="447.5" cy="188.2" r="3" fill="#1f77b4"/>
<circle cx="465.1" cy="181.0" r="3" fill="#1f77b4"/>
<circle cx="482.8" cy="172.4" r="3" fill="#1f77b4"/>
<circle cx="500.4" cy="167.8" r="3" fill="#1f77b4"/>
<circle cx="518.0" cy="177.0" r="3" fill="#1f77b4"/>
<circle cx="535.6" cy="175.1" r="3" fill="#1f77b4"/>
<circle cx="553.2" cy="167.2" r="3" fill="#1f77b4"/>
<circle cx="570.9" cy="152.8" r="3" fill="#1f77b4"/>
<circle cx="588.5" cy="153.4" r="3" fill="#1f77b4"/>
<circle cx="606.1" cy="154.7" r="3" fill="#1f77b4"/>
<circle cx="623.8" cy="139.6" r="3" fill="#1f77b4"/>
<circle cx="641.4" cy="157.3" r="3" fill="#1f77b4"/>
<circle cx="659.0" cy="158.7" r="3" fill="#1f77b4"/>
<circle cx="676.6" cy="157.3" r="3" fill="#1f77b4"/>
<circle cx="694.2" cy="150.8" r="3" fill="#1f77b4"/>
<circle cx="711.9" cy="124.5" r="3" fill="#1f77b4"/>
<circle cx="729.5" cy="129.1" r="3" fill="#1f77b4"/>
<circle cx="747.1" cy="132.4" r="3" fill="#1f77b4"/>
<circle cx="764.8" cy="127.8" r="3" fill="#1f77b4"/>
<circle cx="782.4" cy="122.6" r="3" fill="#1f77b4"/>
<circle cx="800.0" cy="125.8" r="3" fill="#1f77b4"/>
<line x1="828" y1="96" x2="850" y2="96" stroke="#1f77b4" stroke-width="2.5"/>
<text x="858" y="100" font-family="Arial" font-size="13">grpo_on_policy_lr1e-5</text>
<text x="447.5" y="638" text-anchor="middle" font-family="Arial" font-size="15">GRPO step</text>
<text x="24" y="326.0" text-anchor="middle" font-family="Arial" font-size="15" transform="rotate(-90 24 326.0)">Validation answer reward</text>
</svg>
