<svg xmlns="http://www.w3.org/2000/svg" width="1100" height="660" viewBox="0 0 1100 660">
<rect width="100%" height="100%" fill="white"/>
<text x="550.0" y="36" text-anchor="middle" font-family="Arial" font-size="22" font-weight="700">On-policy GRPO train loop: rollout response length</text>
<line x1="95" y1="578" x2="800" y2="578" stroke="#222" stroke-width="1.5"/>
<line x1="95" y1="74" x2="95" y2="578" stroke="#222" stroke-width="1.5"/>
<line x1="90" y1="578.0" x2="800" y2="578.0" stroke="#ddd" stroke-width="1"/>
<text x="83" y="582.0" text-anchor="end" font-family="Arial" font-size="12">0.00</text>
<line x1="90" y1="477.2" x2="800" y2="477.2" stroke="#ddd" stroke-width="1"/>
<text x="83" y="481.2" text-anchor="end" font-family="Arial" font-size="12">76.92</text>
<line x1="90" y1="376.4" x2="800" y2="376.4" stroke="#ddd" stroke-width="1"/>
<text x="83" y="380.4" text-anchor="end" font-family="Arial" font-size="12">153.84</text>
<line x1="90" y1="275.6" x2="800" y2="275.6" stroke="#ddd" stroke-width="1"/>
<text x="83" y="279.6" text-anchor="end" font-family="Arial" font-size="12">230.76</text>
<line x1="90" y1="174.8" x2="800" y2="174.8" stroke="#ddd" stroke-width="1"/>
<text x="83" y="178.8" text-anchor="end" font-family="Arial" font-size="12">307.68</text>
<line x1="90" y1="74.0" x2="800" y2="74.0" stroke="#ddd" stroke-width="1"/>
<text x="83" y="78.0" text-anchor="end" font-family="Arial" font-size="12">384.60</text>
<line x1="95.0" y1="578" x2="95.0" y2="583" stroke="#222" stroke-width="1"/>
<text x="95.0" y="602" text-anchor="middle" font-family="Arial" font-size="12">1</text>
<line x1="236.0" y1="578" x2="236.0" y2="583" stroke="#222" stroke-width="1"/>
<text x="236.0" y="602" text-anchor="middle" font-family="Arial" font-size="12">41</text>
<line x1="377.0" y1="578" x2="377.0" y2="583" stroke="#222" stroke-width="1"/>
<text x="377.0" y="602" text-anchor="middle" font-family="Arial" font-size="12">81</text>
<line x1="518.0" y1="578" x2="518.0" y2="583" stroke="#222" stroke-width="1"/>
<text x="518.0" y="602" text-anchor="middle" font-family="Arial" font-size="12">120</text>
<line x1="659.0" y1="578" x2="659.0" y2="583" stroke="#222" stroke-width="1"/>
<text x="659.0" y="602" text-anchor="middle" font-family="Arial" font-size="12">160</text>
<line x1="800.0" y1="578" x2="800.0" y2="583" stroke="#222" stroke-width="1"/>
<text x="800.0" y="602" text-anchor="middle" font-family="Arial" font-size="12">200</text>
<polyline fill="none" stroke="#1f77b4" stroke-width="2.3" points="95.0,178.1 98.5,195.0 102.1,228.2 105.6,166.1 109.2,87.3 112.7,74.0 116.3,163.2 119.8,202.9 123.3,221.6 126.9,162.3 130.4,157.9 134.0,248.4 137.5,207.8 141.1,158.1 144.6,134.6 148.1,139.4 151.7,151.9 155.2,141.5 158.8,189.6 162.3,163.2 165.9,175.7 169.4,175.5 172.9,202.8 176.5,218.8 180.0,230.4 183.6,192.7 187.1,235.6 190.7,212.6 194.2,234.6 197.7,280.3 201.3,339.9 204.8,283.2 208.4,342.3 211.9,297.8 215.5,263.3 219.0,307.4 222.5,296.7 226.1,304.3 229.6,339.8 233.2,278.8 236.7,348.9 240.3,325.5 243.8,336.4 247.3,369.6 250.9,295.7 254.4,351.5 258.0,392.9 261.5,336.4 265.1,327.8 268.6,371.9 272.1,320.7 275.7,368.2 279.2,325.2 282.8,340.8 286.3,320.4 289.8,305.0 293.4,373.1 296.9,340.5 300.5,333.3 304.0,362.7 307.6,379.4 311.1,430.3 314.6,432.7 318.2,375.3 321.7,410.6 325.3,354.8 328.8,363.6 332.4,374.7 335.9,373.5 339.4,360.8 343.0,286.3 346.5,314.5 350.1,334.0 353.6,327.4 357.2,377.8 360.7,372.3 364.2,310.8 367.8,355.7 371.3,363.8 374.9,372.4 378.4,370.5 382.0,380.1 385.5,305.8 389.0,300.7 392.6,347.5 396.1,389.2 399.7,382.8 403.2,395.2 406.8,382.9 410.3,394.0 413.8,392.8 417.4,385.7 420.9,403.0 424.5,356.2 428.0,403.3 431.6,396.3 435.1,415.4 438.6,360.2 442.2,335.6 445.7,332.5 449.3,344.9 452.8,387.2 456.4,367.4 459.9,324.1 463.4,329.5 467.0,363.2 470.5,361.4 474.1,333.7 477.6,317.9 481.2,337.7 484.7,311.0 488.2,326.1 491.8,366.5 495.3,345.1 498.9,356.2 502.4,339.0 506.0,352.6 509.5,376.4 513.0,389.7 516.6,347.1 520.1,349.6 523.7,268.5 527.2,306.2 530.8,368.1 534.3,370.8 537.8,307.3 541.4,338.2 544.9,310.8 548.5,359.5 552.0,364.9 555.6,349.9 559.1,335.5 562.6,377.0 566.2,358.6 569.7,382.4 573.3,378.1 576.8,339.4 580.4,385.1 583.9,360.7 587.4,332.1 591.0,355.3 594.5,319.2 598.1,390.1 601.6,293.9 605.2,335.0 608.7,349.5 612.2,364.8 615.8,342.3 619.3,338.3 622.9,288.0 626.4,312.2 629.9,306.5 633.5,349.4 637.0,350.8 640.6,363.7 644.1,329.1 647.7,275.1 651.2,363.1 654.7,295.5 658.3,288.3 661.8,320.0 665.4,374.0 668.9,322.3 672.5,294.8 676.0,356.7 679.5,340.2 683.1,328.3 686.6,345.5 690.2,309.5 693.7,340.6 697.3,328.7 700.8,345.4 704.3,329.3 707.9,332.5 711.4,267.3 715.0,297.4 718.5,315.9 722.1,300.2 725.6,350.1 729.1,348.8 732.7,323.6 736.2,305.1 739.8,353.8 743.3,323.1 746.9,351.8 750.4,323.4 753.9,356.4 757.5,265.8 761.0,309.4 764.6,323.9 768.1,330.2 771.7,328.2 775.2,340.8 778.7,356.3 782.3,306.3 785.8,287.5 789.4,369.9 792.9,300.5 796.5,289.0 800.0,357.1"/>
<circle cx="95.0" cy="178.1" r="3" fill="#1f77b4"/>
<circle cx="98.5" cy="195.0" r="3" fill="#1f77b4"/>
<circle cx="102.1" cy="228.2" r="3" fill="#1f77b4"/>
<circle cx="105.6" cy="166.1" r="3" fill="#1f77b4"/>
<circle cx="109.2" cy="87.3" r="3" fill="#1f77b4"/>
<circle cx="112.7" cy="74.0" r="3" fill="#1f77b4"/>
<circle cx="116.3" cy="163.2" r="3" fill="#1f77b4"/>
<circle cx="119.8" cy="202.9" r="3" fill="#1f77b4"/>
<circle cx="123.3" cy="221.6" r="3" fill="#1f77b4"/>
<circle cx="126.9" cy="162.3" r="3" fill="#1f77b4"/>
<circle cx="130.4" cy="157.9" r="3" fill="#1f77b4"/>
<circle cx="134.0" cy="248.4" r="3" fill="#1f77b4"/>
<circle cx="137.5" cy="207.8" r="3" fill="#1f77b4"/>
<circle cx="141.1" cy="158.1" r="3" fill="#1f77b4"/>
<circle cx="144.6" cy="134.6" r="3" fill="#1f77b4"/>
<circle cx="148.1" cy="139.4" r="3" fill="#1f77b4"/>
<circle cx="151.7" cy="151.9" r="3" fill="#1f77b4"/>
<circle cx="155.2" cy="141.5" r="3" fill="#1f77b4"/>
<circle cx="158.8" cy="189.6" r="3" fill="#1f77b4"/>
<circle cx="162.3" cy="163.2" r="3" fill="#1f77b4"/>
<circle cx="165.9" cy="175.7" r="3" fill="#1f77b4"/>
<circle cx="169.4" cy="175.5" r="3" fill="#1f77b4"/>
<circle cx="172.9" cy="202.8" r="3" fill="#1f77b4"/>
<circle cx="176.5" cy="218.8" r="3" fill="#1f77b4"/>
<circle cx="180.0" cy="230.4" r="3" fill="#1f77b4"/>
<circle cx="183.6" cy="192.7" r="3" fill="#1f77b4"/>
<circle cx="187.1" cy="235.6" r="3" fill="#1f77b4"/>
<circle cx="190.7" cy="212.6" r="3" fill="#1f77b4"/>
<circle cx="194.2" cy="234.6" r="3" fill="#1f77b4"/>
<circle cx="197.7" cy="280.3" r="3" fill="#1f77b4"/>
<circle cx="201.3" cy="339.9" r="3" fill="#1f77b4"/>
<circle cx="204.8" cy="283.2" r="3" fill="#1f77b4"/>
<circle cx="208.4" cy="342.3" r="3" fill="#1f77b4"/>
<circle cx="211.9" cy="297.8" r="3" fill="#1f77b4"/>
<circle cx="215.5" cy="263.3" r="3" fill="#1f77b4"/>
<circle cx="219.0" cy="307.4" r="3" fill="#1f77b4"/>
<circle cx="222.5" cy="296.7" r="3" fill="#1f77b4"/>
<circle cx="226.1" cy="304.3" r="3" fill="#1f77b4"/>
<circle cx="229.6" cy="339.8" r="3" fill="#1f77b4"/>
<circle cx="233.2" cy="278.8" r="3" fill="#1f77b4"/>
<circle cx="236.7" cy="348.9" r="3" fill="#1f77b4"/>
<circle cx="240.3" cy="325.5" r="3" fill="#1f77b4"/>
<circle cx="243.8" cy="336.4" r="3" fill="#1f77b4"/>
<circle cx="247.3" cy="369.6" r="3" fill="#1f77b4"/>
<circle cx="250.9" cy="295.7" r="3" fill="#1f77b4"/>
<circle cx="254.4" cy="351.5" r="3" fill="#1f77b4"/>
<circle cx="258.0" cy="392.9" r="3" fill="#1f77b4"/>
<circle cx="261.5" cy="336.4" r="3" fill="#1f77b4"/>
<circle cx="265.1" cy="327.8" r="3" fill="#1f77b4"/>
<circle cx="268.6" cy="371.9" r="3" fill="#1f77b4"/>
<circle cx="272.1" cy="320.7" r="3" fill="#1f77b4"/>
<circle cx="275.7" cy="368.2" r="3" fill="#1f77b4"/>
<circle cx="279.2" cy="325.2" r="3" fill="#1f77b4"/>
<circle cx="282.8" cy="340.8" r="3" fill="#1f77b4"/>
<circle cx="286.3" cy="320.4" r="3" fill="#1f77b4"/>
<circle cx="289.8" cy="305.0" r="3" fill="#1f77b4"/>
<circle cx="293.4" cy="373.1" r="3" fill="#1f77b4"/>
<circle cx="296.9" cy="340.5" r="3" fill="#1f77b4"/>
<circle cx="300.5" cy="333.3" r="3" fill="#1f77b4"/>
<circle cx="304.0" cy="362.7" r="3" fill="#1f77b4"/>
<circle cx="307.6" cy="379.4" r="3" fill="#1f77b4"/>
<circle cx="311.1" cy="430.3" r="3" fill="#1f77b4"/>
<circle cx="314.6" cy="432.7" r="3" fill="#1f77b4"/>
<circle cx="318.2" cy="375.3" r="3" fill="#1f77b4"/>
<circle cx="321.7" cy="410.6" r="3" fill="#1f77b4"/>
<circle cx="325.3" cy="354.8" r="3" fill="#1f77b4"/>
<circle cx="328.8" cy="363.6" r="3" fill="#1f77b4"/>
<circle cx="332.4" cy="374.7" r="3" fill="#1f77b4"/>
<circle cx="335.9" cy="373.5" r="3" fill="#1f77b4"/>
<circle cx="339.4" cy="360.8" r="3" fill="#1f77b4"/>
<circle cx="343.0" cy="286.3" r="3" fill="#1f77b4"/>
<circle cx="346.5" cy="314.5" r="3" fill="#1f77b4"/>
<circle cx="350.1" cy="334.0" r="3" fill="#1f77b4"/>
<circle cx="353.6" cy="327.4" r="3" fill="#1f77b4"/>
<circle cx="357.2" cy="377.8" r="3" fill="#1f77b4"/>
<circle cx="360.7" cy="372.3" r="3" fill="#1f77b4"/>
<circle cx="364.2" cy="310.8" r="3" fill="#1f77b4"/>
<circle cx="367.8" cy="355.7" r="3" fill="#1f77b4"/>
<circle cx="371.3" cy="363.8" r="3" fill="#1f77b4"/>
<circle cx="374.9" cy="372.4" r="3" fill="#1f77b4"/>
<circle cx="378.4" cy="370.5" r="3" fill="#1f77b4"/>
<circle cx="382.0" cy="380.1" r="3" fill="#1f77b4"/>
<circle cx="385.5" cy="305.8" r="3" fill="#1f77b4"/>
<circle cx="389.0" cy="300.7" r="3" fill="#1f77b4"/>
<circle cx="392.6" cy="347.5" r="3" fill="#1f77b4"/>
<circle cx="396.1" cy="389.2" r="3" fill="#1f77b4"/>
<circle cx="399.7" cy="382.8" r="3" fill="#1f77b4"/>
<circle cx="403.2" cy="395.2" r="3" fill="#1f77b4"/>
<circle cx="406.8" cy="382.9" r="3" fill="#1f77b4"/>
<circle cx="410.3" cy="394.0" r="3" fill="#1f77b4"/>
<circle cx="413.8" cy="392.8" r="3" fill="#1f77b4"/>
<circle cx="417.4" cy="385.7" r="3" fill="#1f77b4"/>
<circle cx="420.9" cy="403.0" r="3" fill="#1f77b4"/>
<circle cx="424.5" cy="356.2" r="3" fill="#1f77b4"/>
<circle cx="428.0" cy="403.3" r="3" fill="#1f77b4"/>
<circle cx="431.6" cy="396.3" r="3" fill="#1f77b4"/>
<circle cx="435.1" cy="415.4" r="3" fill="#1f77b4"/>
<circle cx="438.6" cy="360.2" r="3" fill="#1f77b4"/>
<circle cx="442.2" cy="335.6" r="3" fill="#1f77b4"/>
<circle cx="445.7" cy="332.5" r="3" fill="#1f77b4"/>
<circle cx="449.3" cy="344.9" r="3" fill="#1f77b4"/>
<circle cx="452.8" cy="387.2" r="3" fill="#1f77b4"/>
<circle cx="456.4" cy="367.4" r="3" fill="#1f77b4"/>
<circle cx="459.9" cy="324.1" r="3" fill="#1f77b4"/>
<circle cx="463.4" cy="329.5" r="3" fill="#1f77b4"/>
<circle cx="467.0" cy="363.2" r="3" fill="#1f77b4"/>
<circle cx="470.5" cy="361.4" r="3" fill="#1f77b4"/>
<circle cx="474.1" cy="333.7" r="3" fill="#1f77b4"/>
<circle cx="477.6" cy="317.9" r="3" fill="#1f77b4"/>
<circle cx="481.2" cy="337.7" r="3" fill="#1f77b4"/>
<circle cx="484.7" cy="311.0" r="3" fill="#1f77b4"/>
<circle cx="488.2" cy="326.1" r="3" fill="#1f77b4"/>
<circle cx="491.8" cy="366.5" r="3" fill="#1f77b4"/>
<circle cx="495.3" cy="345.1" r="3" fill="#1f77b4"/>
<circle cx="498.9" cy="356.2" r="3" fill="#1f77b4"/>
<circle cx="502.4" cy="339.0" r="3" fill="#1f77b4"/>
<circle cx="506.0" cy="352.6" r="3" fill="#1f77b4"/>
<circle cx="509.5" cy="376.4" r="3" fill="#1f77b4"/>
<circle cx="513.0" cy="389.7" r="3" fill="#1f77b4"/>
<circle cx="516.6" cy="347.1" r="3" fill="#1f77b4"/>
<circle cx="520.1" cy="349.6" r="3" fill="#1f77b4"/>
<circle cx="523.7" cy="268.5" r="3" fill="#1f77b4"/>
<circle cx="527.2" cy="306.2" r="3" fill="#1f77b4"/>
<circle cx="530.8" cy="368.1" r="3" fill="#1f77b4"/>
<circle cx="534.3" cy="370.8" r="3" fill="#1f77b4"/>
<circle cx="537.8" cy="307.3" r="3" fill="#1f77b4"/>
<circle cx="541.4" cy="338.2" r="3" fill="#1f77b4"/>
<circle cx="544.9" cy="310.8" r="3" fill="#1f77b4"/>
<circle cx="548.5" cy="359.5" r="3" fill="#1f77b4"/>
<circle cx="552.0" cy="364.9" r="3" fill="#1f77b4"/>
<circle cx="555.6" cy="349.9" r="3" fill="#1f77b4"/>
<circle cx="559.1" cy="335.5" r="3" fill="#1f77b4"/>
<circle cx="562.6" cy="377.0" r="3" fill="#1f77b4"/>
<circle cx="566.2" cy="358.6" r="3" fill="#1f77b4"/>
<circle cx="569.7" cy="382.4" r="3" fill="#1f77b4"/>
<circle cx="573.3" cy="378.1" r="3" fill="#1f77b4"/>
<circle cx="576.8" cy="339.4" r="3" fill="#1f77b4"/>
<circle cx="580.4" cy="385.1" r="3" fill="#1f77b4"/>
<circle cx="583.9" cy="360.7" r="3" fill="#1f77b4"/>
<circle cx="587.4" cy="332.1" r="3" fill="#1f77b4"/>
<circle cx="591.0" cy="355.3" r="3" fill="#1f77b4"/>
<circle cx="594.5" cy="319.2" r="3" fill="#1f77b4"/>
<circle cx="598.1" cy="390.1" r="3" fill="#1f77b4"/>
<circle cx="601.6" cy="293.9" r="3" fill="#1f77b4"/>
<circle cx="605.2" cy="335.0" r="3" fill="#1f77b4"/>
<circle cx="608.7" cy="349.5" r="3" fill="#1f77b4"/>
<circle cx="612.2" cy="364.8" r="3" fill="#1f77b4"/>
<circle cx="615.8" cy="342.3" r="3" fill="#1f77b4"/>
<circle cx="619.3" cy="338.3" r="3" fill="#1f77b4"/>
<circle cx="622.9" cy="288.0" r="3" fill="#1f77b4"/>
<circle cx="626.4" cy="312.2" r="3" fill="#1f77b4"/>
<circle cx="629.9" cy="306.5" r="3" fill="#1f77b4"/>
<circle cx="633.5" cy="349.4" r="3" fill="#1f77b4"/>
<circle cx="637.0" cy="350.8" r="3" fill="#1f77b4"/>
<circle cx="640.6" cy="363.7" r="3" fill="#1f77b4"/>
<circle cx="644.1" cy="329.1" r="3" fill="#1f77b4"/>
<circle cx="647.7" cy="275.1" r="3" fill="#1f77b4"/>
<circle cx="651.2" cy="363.1" r="3" fill="#1f77b4"/>
<circle cx="654.7" cy="295.5" r="3" fill="#1f77b4"/>
<circle cx="658.3" cy="288.3" r="3" fill="#1f77b4"/>
<circle cx="661.8" cy="320.0" r="3" fill="#1f77b4"/>
<circle cx="665.4" cy="374.0" r="3" fill="#1f77b4"/>
<circle cx="668.9" cy="322.3" r="3" fill="#1f77b4"/>
<circle cx="672.5" cy="294.8" r="3" fill="#1f77b4"/>
<circle cx="676.0" cy="356.7" r="3" fill="#1f77b4"/>
<circle cx="679.5" cy="340.2" r="3" fill="#1f77b4"/>
<circle cx="683.1" cy="328.3" r="3" fill="#1f77b4"/>
<circle cx="686.6" cy="345.5" r="3" fill="#1f77b4"/>
<circle cx="690.2" cy="309.5" r="3" fill="#1f77b4"/>
<circle cx="693.7" cy="340.6" r="3" fill="#1f77b4"/>
<circle cx="697.3" cy="328.7" r="3" fill="#1f77b4"/>
<circle cx="700.8" cy="345.4" r="3" fill="#1f77b4"/>
<circle cx="704.3" cy="329.3" r="3" fill="#1f77b4"/>
<circle cx="707.9" cy="332.5" r="3" fill="#1f77b4"/>
<circle cx="711.4" cy="267.3" r="3" fill="#1f77b4"/>
<circle cx="715.0" cy="297.4" r="3" fill="#1f77b4"/>
<circle cx="718.5" cy="315.9" r="3" fill="#1f77b4"/>
<circle cx="722.1" cy="300.2" r="3" fill="#1f77b4"/>
<circle cx="725.6" cy="350.1" r="3" fill="#1f77b4"/>
<circle cx="729.1" cy="348.8" r="3" fill="#1f77b4"/>
<circle cx="732.7" cy="323.6" r="3" fill="#1f77b4"/>
<circle cx="736.2" cy="305.1" r="3" fill="#1f77b4"/>
<circle cx="739.8" cy="353.8" r="3" fill="#1f77b4"/>
<circle cx="743.3" cy="323.1" r="3" fill="#1f77b4"/>
<circle cx="746.9" cy="351.8" r="3" fill="#1f77b4"/>
<circle cx="750.4" cy="323.4" r="3" fill="#1f77b4"/>
<circle cx="753.9" cy="356.4" r="3" fill="#1f77b4"/>
<circle cx="757.5" cy="265.8" r="3" fill="#1f77b4"/>
<circle cx="761.0" cy="309.4" r="3" fill="#1f77b4"/>
<circle cx="764.6" cy="323.9" r="3" fill="#1f77b4"/>
<circle cx="768.1" cy="330.2" r="3" fill="#1f77b4"/>
<circle cx="771.7" cy="328.2" r="3" fill="#1f77b4"/>
<circle cx="775.2" cy="340.8" r="3" fill="#1f77b4"/>
<circle cx="778.7" cy="356.3" r="3" fill="#1f77b4"/>
<circle cx="782.3" cy="306.3" r="3" fill="#1f77b4"/>
<circle cx="785.8" cy="287.5" r="3" fill="#1f77b4"/>
<circle cx="789.4" cy="369.9" r="3" fill="#1f77b4"/>
<circle cx="792.9" cy="300.5" r="3" fill="#1f77b4"/>
<circle cx="796.5" cy="289.0" r="3" fill="#1f77b4"/>
<circle cx="800.0" cy="357.1" r="3" fill="#1f77b4"/>
<line x1="828" y1="96" x2="850" y2="96" stroke="#1f77b4" stroke-width="2.5"/>
<text x="858" y="100" font-family="Arial" font-size="13">grpo_on_policy_lr1e-5</text>
<text x="447.5" y="638" text-anchor="middle" font-family="Arial" font-size="15">GRPO step</text>
<text x="24" y="326.0" text-anchor="middle" font-family="Arial" font-size="15" transform="rotate(-90 24 326.0)">Average rollout response tokens</text>
</svg>
