<svg xmlns="http://www.w3.org/2000/svg" width="1100" height="660" viewBox="0 0 1100 660">
<rect width="100%" height="100%" fill="white"/>
<text x="550.0" y="36" text-anchor="middle" font-family="Arial" font-size="22" font-weight="700">On-policy GRPO train loop: token entropy</text>
<line x1="95" y1="578" x2="800" y2="578" stroke="#222" stroke-width="1.5"/>
<line x1="95" y1="74" x2="95" y2="578" stroke="#222" stroke-width="1.5"/>
<line x1="90" y1="578.0" x2="800" y2="578.0" stroke="#ddd" stroke-width="1"/>
<text x="83" y="582.0" text-anchor="end" font-family="Arial" font-size="12">0.00</text>
<line x1="90" y1="477.2" x2="800" y2="477.2" stroke="#ddd" stroke-width="1"/>
<text x="83" y="481.2" text-anchor="end" font-family="Arial" font-size="12">0.20</text>
<line x1="90" y1="376.4" x2="800" y2="376.4" stroke="#ddd" stroke-width="1"/>
<text x="83" y="380.4" text-anchor="end" font-family="Arial" font-size="12">0.40</text>
<line x1="90" y1="275.6" x2="800" y2="275.6" stroke="#ddd" stroke-width="1"/>
<text x="83" y="279.6" text-anchor="end" font-family="Arial" font-size="12">0.60</text>
<line x1="90" y1="174.8" x2="800" y2="174.8" stroke="#ddd" stroke-width="1"/>
<text x="83" y="178.8" text-anchor="end" font-family="Arial" font-size="12">0.80</text>
<line x1="90" y1="74.0" x2="800" y2="74.0" stroke="#ddd" stroke-width="1"/>
<text x="83" y="78.0" text-anchor="end" font-family="Arial" font-size="12">1.00</text>
<line x1="95.0" y1="578" x2="95.0" y2="583" stroke="#222" stroke-width="1"/>
<text x="95.0" y="602" text-anchor="middle" font-family="Arial" font-size="12">1</text>
<line x1="236.0" y1="578" x2="236.0" y2="583" stroke="#222" stroke-width="1"/>
<text x="236.0" y="602" text-anchor="middle" font-family="Arial" font-size="12">41</text>
<line x1="377.0" y1="578" x2="377.0" y2="583" stroke="#222" stroke-width="1"/>
<text x="377.0" y="602" text-anchor="middle" font-family="Arial" font-size="12">81</text>
<line x1="518.0" y1="578" x2="518.0" y2="583" stroke="#222" stroke-width="1"/>
<text x="518.0" y="602" text-anchor="middle" font-family="Arial" font-size="12">120</text>
<line x1="659.0" y1="578" x2="659.0" y2="583" stroke="#222" stroke-width="1"/>
<text x="659.0" y="602" text-anchor="middle" font-family="Arial" font-size="12">160</text>
<line x1="800.0" y1="578" x2="800.0" y2="583" stroke="#222" stroke-width="1"/>
<text x="800.0" y="602" text-anchor="middle" font-family="Arial" font-size="12">200</text>
<polyline fill="none" stroke="#1f77b4" stroke-width="2.3" points="95.0,112.5 98.5,187.5 102.1,191.5 105.6,253.2 109.2,270.3 112.7,280.7 116.3,347.1 119.8,301.4 123.3,327.7 126.9,319.5 130.4,341.8 134.0,351.7 137.5,378.9 141.1,360.5 144.6,347.5 148.1,376.3 151.7,380.6 155.2,374.0 158.8,387.1 162.3,372.6 165.9,397.8 169.4,400.9 172.9,397.5 176.5,381.0 180.0,414.9 183.6,392.1 187.1,418.8 190.7,414.1 194.2,390.8 197.7,410.9 201.3,402.4 204.8,401.7 208.4,393.2 211.9,424.1 215.5,404.6 219.0,393.3 222.5,395.9 226.1,402.5 229.6,437.5 233.2,417.0 236.7,416.0 240.3,394.3 243.8,439.0 247.3,417.4 250.9,393.1 254.4,419.4 258.0,434.8 261.5,427.6 265.1,425.8 268.6,421.5 272.1,442.7 275.7,456.1 279.2,458.2 282.8,435.7 286.3,447.6 289.8,441.7 293.4,451.8 296.9,425.7 300.5,450.6 304.0,429.2 307.6,426.9 311.1,449.0 314.6,446.6 318.2,442.9 321.7,420.1 325.3,438.4 328.8,432.7 332.4,425.1 335.9,458.3 339.4,454.2 343.0,404.6 346.5,463.3 350.1,461.9 353.6,438.5 357.2,460.1 360.7,456.3 364.2,453.1 367.8,452.7 371.3,468.0 374.9,448.2 378.4,435.9 382.0,461.2 385.5,456.2 389.0,433.0 392.6,443.4 396.1,464.7 399.7,454.8 403.2,453.5 406.8,447.5 410.3,473.3 413.8,454.0 417.4,440.3 420.9,471.2 424.5,477.4 428.0,468.7 431.6,480.0 435.1,445.8 438.6,464.6 442.2,473.4 445.7,468.4 449.3,465.6 452.8,458.0 456.4,475.1 459.9,478.0 463.4,484.4 467.0,485.2 470.5,477.1 474.1,459.9 477.6,479.7 481.2,489.5 484.7,470.0 488.2,483.2 491.8,485.8 495.3,482.2 498.9,470.9 502.4,474.5 506.0,490.3 509.5,482.6 513.0,482.0 516.6,457.3 520.1,478.8 523.7,474.9 527.2,474.0 530.8,504.6 534.3,478.2 537.8,487.4 541.4,468.5 544.9,480.0 548.5,498.6 552.0,484.3 555.6,471.4 559.1,483.4 562.6,484.4 566.2,489.6 569.7,496.5 573.3,494.7 576.8,479.3 580.4,506.2 583.9,486.1 587.4,462.5 591.0,498.6 594.5,492.9 598.1,497.1 601.6,485.0 605.2,488.8 608.7,492.0 612.2,465.4 615.8,492.8 619.3,485.3 622.9,477.5 626.4,485.2 629.9,474.6 633.5,488.7 637.0,480.6 640.6,494.3 644.1,481.7 647.7,470.2 651.2,496.6 654.7,485.0 658.3,487.9 661.8,495.3 665.4,496.9 668.9,499.0 672.5,466.9 676.0,482.8 679.5,487.7 683.1,487.7 686.6,487.5 690.2,495.6 693.7,475.1 697.3,484.6 700.8,484.8 704.3,486.2 707.9,497.3 711.4,487.0 715.0,491.8 718.5,486.0 722.1,483.6 725.6,495.3 729.1,507.2 732.7,490.0 736.2,503.3 739.8,508.5 743.3,499.3 746.9,506.7 750.4,513.6 753.9,510.9 757.5,498.3 761.0,504.0 764.6,495.2 768.1,508.9 771.7,513.8 775.2,503.9 778.7,503.9 782.3,495.5 785.8,481.1 789.4,503.3 792.9,495.5 796.5,500.3 800.0,510.7"/>
<circle cx="95.0" cy="112.5" r="3" fill="#1f77b4"/>
<circle cx="98.5" cy="187.5" r="3" fill="#1f77b4"/>
<circle cx="102.1" cy="191.5" r="3" fill="#1f77b4"/>
<circle cx="105.6" cy="253.2" r="3" fill="#1f77b4"/>
<circle cx="109.2" cy="270.3" r="3" fill="#1f77b4"/>
<circle cx="112.7" cy="280.7" r="3" fill="#1f77b4"/>
<circle cx="116.3" cy="347.1" r="3" fill="#1f77b4"/>
<circle cx="119.8" cy="301.4" r="3" fill="#1f77b4"/>
<circle cx="123.3" cy="327.7" r="3" fill="#1f77b4"/>
<circle cx="126.9" cy="319.5" r="3" fill="#1f77b4"/>
<circle cx="130.4" cy="341.8" r="3" fill="#1f77b4"/>
<circle cx="134.0" cy="351.7" r="3" fill="#1f77b4"/>
<circle cx="137.5" cy="378.9" r="3" fill="#1f77b4"/>
<circle cx="141.1" cy="360.5" r="3" fill="#1f77b4"/>
<circle cx="144.6" cy="347.5" r="3" fill="#1f77b4"/>
<circle cx="148.1" cy="376.3" r="3" fill="#1f77b4"/>
<circle cx="151.7" cy="380.6" r="3" fill="#1f77b4"/>
<circle cx="155.2" cy="374.0" r="3" fill="#1f77b4"/>
<circle cx="158.8" cy="387.1" r="3" fill="#1f77b4"/>
<circle cx="162.3" cy="372.6" r="3" fill="#1f77b4"/>
<circle cx="165.9" cy="397.8" r="3" fill="#1f77b4"/>
<circle cx="169.4" cy="400.9" r="3" fill="#1f77b4"/>
<circle cx="172.9" cy="397.5" r="3" fill="#1f77b4"/>
<circle cx="176.5" cy="381.0" r="3" fill="#1f77b4"/>
<circle cx="180.0" cy="414.9" r="3" fill="#1f77b4"/>
<circle cx="183.6" cy="392.1" r="3" fill="#1f77b4"/>
<circle cx="187.1" cy="418.8" r="3" fill="#1f77b4"/>
<circle cx="190.7" cy="414.1" r="3" fill="#1f77b4"/>
<circle cx="194.2" cy="390.8" r="3" fill="#1f77b4"/>
<circle cx="197.7" cy="410.9" r="3" fill="#1f77b4"/>
<circle cx="201.3" cy="402.4" r="3" fill="#1f77b4"/>
<circle cx="204.8" cy="401.7" r="3" fill="#1f77b4"/>
<circle cx="208.4" cy="393.2" r="3" fill="#1f77b4"/>
<circle cx="211.9" cy="424.1" r="3" fill="#1f77b4"/>
<circle cx="215.5" cy="404.6" r="3" fill="#1f77b4"/>
<circle cx="219.0" cy="393.3" r="3" fill="#1f77b4"/>
<circle cx="222.5" cy="395.9" r="3" fill="#1f77b4"/>
<circle cx="226.1" cy="402.5" r="3" fill="#1f77b4"/>
<circle cx="229.6" cy="437.5" r="3" fill="#1f77b4"/>
<circle cx="233.2" cy="417.0" r="3" fill="#1f77b4"/>
<circle cx="236.7" cy="416.0" r="3" fill="#1f77b4"/>
<circle cx="240.3" cy="394.3" r="3" fill="#1f77b4"/>
<circle cx="243.8" cy="439.0" r="3" fill="#1f77b4"/>
<circle cx="247.3" cy="417.4" r="3" fill="#1f77b4"/>
<circle cx="250.9" cy="393.1" r="3" fill="#1f77b4"/>
<circle cx="254.4" cy="419.4" r="3" fill="#1f77b4"/>
<circle cx="258.0" cy="434.8" r="3" fill="#1f77b4"/>
<circle cx="261.5" cy="427.6" r="3" fill="#1f77b4"/>
<circle cx="265.1" cy="425.8" r="3" fill="#1f77b4"/>
<circle cx="268.6" cy="421.5" r="3" fill="#1f77b4"/>
<circle cx="272.1" cy="442.7" r="3" fill="#1f77b4"/>
<circle cx="275.7" cy="456.1" r="3" fill="#1f77b4"/>
<circle cx="279.2" cy="458.2" r="3" fill="#1f77b4"/>
<circle cx="282.8" cy="435.7" r="3" fill="#1f77b4"/>
<circle cx="286.3" cy="447.6" r="3" fill="#1f77b4"/>
<circle cx="289.8" cy="441.7" r="3" fill="#1f77b4"/>
<circle cx="293.4" cy="451.8" r="3" fill="#1f77b4"/>
<circle cx="296.9" cy="425.7" r="3" fill="#1f77b4"/>
<circle cx="300.5" cy="450.6" r="3" fill="#1f77b4"/>
<circle cx="304.0" cy="429.2" r="3" fill="#1f77b4"/>
<circle cx="307.6" cy="426.9" r="3" fill="#1f77b4"/>
<circle cx="311.1" cy="449.0" r="3" fill="#1f77b4"/>
<circle cx="314.6" cy="446.6" r="3" fill="#1f77b4"/>
<circle cx="318.2" cy="442.9" r="3" fill="#1f77b4"/>
<circle cx="321.7" cy="420.1" r="3" fill="#1f77b4"/>
<circle cx="325.3" cy="438.4" r="3" fill="#1f77b4"/>
<circle cx="328.8" cy="432.7" r="3" fill="#1f77b4"/>
<circle cx="332.4" cy="425.1" r="3" fill="#1f77b4"/>
<circle cx="335.9" cy="458.3" r="3" fill="#1f77b4"/>
<circle cx="339.4" cy="454.2" r="3" fill="#1f77b4"/>
<circle cx="343.0" cy="404.6" r="3" fill="#1f77b4"/>
<circle cx="346.5" cy="463.3" r="3" fill="#1f77b4"/>
<circle cx="350.1" cy="461.9" r="3" fill="#1f77b4"/>
<circle cx="353.6" cy="438.5" r="3" fill="#1f77b4"/>
<circle cx="357.2" cy="460.1" r="3" fill="#1f77b4"/>
<circle cx="360.7" cy="456.3" r="3" fill="#1f77b4"/>
<circle cx="364.2" cy="453.1" r="3" fill="#1f77b4"/>
<circle cx="367.8" cy="452.7" r="3" fill="#1f77b4"/>
<circle cx="371.3" cy="468.0" r="3" fill="#1f77b4"/>
<circle cx="374.9" cy="448.2" r="3" fill="#1f77b4"/>
<circle cx="378.4" cy="435.9" r="3" fill="#1f77b4"/>
<circle cx="382.0" cy="461.2" r="3" fill="#1f77b4"/>
<circle cx="385.5" cy="456.2" r="3" fill="#1f77b4"/>
<circle cx="389.0" cy="433.0" r="3" fill="#1f77b4"/>
<circle cx="392.6" cy="443.4" r="3" fill="#1f77b4"/>
<circle cx="396.1" cy="464.7" r="3" fill="#1f77b4"/>
<circle cx="399.7" cy="454.8" r="3" fill="#1f77b4"/>
<circle cx="403.2" cy="453.5" r="3" fill="#1f77b4"/>
<circle cx="406.8" cy="447.5" r="3" fill="#1f77b4"/>
<circle cx="410.3" cy="473.3" r="3" fill="#1f77b4"/>
<circle cx="413.8" cy="454.0" r="3" fill="#1f77b4"/>
<circle cx="417.4" cy="440.3" r="3" fill="#1f77b4"/>
<circle cx="420.9" cy="471.2" r="3" fill="#1f77b4"/>
<circle cx="424.5" cy="477.4" r="3" fill="#1f77b4"/>
<circle cx="428.0" cy="468.7" r="3" fill="#1f77b4"/>
<circle cx="431.6" cy="480.0" r="3" fill="#1f77b4"/>
<circle cx="435.1" cy="445.8" r="3" fill="#1f77b4"/>
<circle cx="438.6" cy="464.6" r="3" fill="#1f77b4"/>
<circle cx="442.2" cy="473.4" r="3" fill="#1f77b4"/>
<circle cx="445.7" cy="468.4" r="3" fill="#1f77b4"/>
<circle cx="449.3" cy="465.6" r="3" fill="#1f77b4"/>
<circle cx="452.8" cy="458.0" r="3" fill="#1f77b4"/>
<circle cx="456.4" cy="475.1" r="3" fill="#1f77b4"/>
<circle cx="459.9" cy="478.0" r="3" fill="#1f77b4"/>
<circle cx="463.4" cy="484.4" r="3" fill="#1f77b4"/>
<circle cx="467.0" cy="485.2" r="3" fill="#1f77b4"/>
<circle cx="470.5" cy="477.1" r="3" fill="#1f77b4"/>
<circle cx="474.1" cy="459.9" r="3" fill="#1f77b4"/>
<circle cx="477.6" cy="479.7" r="3" fill="#1f77b4"/>
<circle cx="481.2" cy="489.5" r="3" fill="#1f77b4"/>
<circle cx="484.7" cy="470.0" r="3" fill="#1f77b4"/>
<circle cx="488.2" cy="483.2" r="3" fill="#1f77b4"/>
<circle cx="491.8" cy="485.8" r="3" fill="#1f77b4"/>
<circle cx="495.3" cy="482.2" r="3" fill="#1f77b4"/>
<circle cx="498.9" cy="470.9" r="3" fill="#1f77b4"/>
<circle cx="502.4" cy="474.5" r="3" fill="#1f77b4"/>
<circle cx="506.0" cy="490.3" r="3" fill="#1f77b4"/>
<circle cx="509.5" cy="482.6" r="3" fill="#1f77b4"/>
<circle cx="513.0" cy="482.0" r="3" fill="#1f77b4"/>
<circle cx="516.6" cy="457.3" r="3" fill="#1f77b4"/>
<circle cx="520.1" cy="478.8" r="3" fill="#1f77b4"/>
<circle cx="523.7" cy="474.9" r="3" fill="#1f77b4"/>
<circle cx="527.2" cy="474.0" r="3" fill="#1f77b4"/>
<circle cx="530.8" cy="504.6" r="3" fill="#1f77b4"/>
<circle cx="534.3" cy="478.2" r="3" fill="#1f77b4"/>
<circle cx="537.8" cy="487.4" r="3" fill="#1f77b4"/>
<circle cx="541.4" cy="468.5" r="3" fill="#1f77b4"/>
<circle cx="544.9" cy="480.0" r="3" fill="#1f77b4"/>
<circle cx="548.5" cy="498.6" r="3" fill="#1f77b4"/>
<circle cx="552.0" cy="484.3" r="3" fill="#1f77b4"/>
<circle cx="555.6" cy="471.4" r="3" fill="#1f77b4"/>
<circle cx="559.1" cy="483.4" r="3" fill="#1f77b4"/>
<circle cx="562.6" cy="484.4" r="3" fill="#1f77b4"/>
<circle cx="566.2" cy="489.6" r="3" fill="#1f77b4"/>
<circle cx="569.7" cy="496.5" r="3" fill="#1f77b4"/>
<circle cx="573.3" cy="494.7" r="3" fill="#1f77b4"/>
<circle cx="576.8" cy="479.3" r="3" fill="#1f77b4"/>
<circle cx="580.4" cy="506.2" r="3" fill="#1f77b4"/>
<circle cx="583.9" cy="486.1" r="3" fill="#1f77b4"/>
<circle cx="587.4" cy="462.5" r="3" fill="#1f77b4"/>
<circle cx="591.0" cy="498.6" r="3" fill="#1f77b4"/>
<circle cx="594.5" cy="492.9" r="3" fill="#1f77b4"/>
<circle cx="598.1" cy="497.1" r="3" fill="#1f77b4"/>
<circle cx="601.6" cy="485.0" r="3" fill="#1f77b4"/>
<circle cx="605.2" cy="488.8" r="3" fill="#1f77b4"/>
<circle cx="608.7" cy="492.0" r="3" fill="#1f77b4"/>
<circle cx="612.2" cy="465.4" r="3" fill="#1f77b4"/>
<circle cx="615.8" cy="492.8" r="3" fill="#1f77b4"/>
<circle cx="619.3" cy="485.3" r="3" fill="#1f77b4"/>
<circle cx="622.9" cy="477.5" r="3" fill="#1f77b4"/>
<circle cx="626.4" cy="485.2" r="3" fill="#1f77b4"/>
<circle cx="629.9" cy="474.6" r="3" fill="#1f77b4"/>
<circle cx="633.5" cy="488.7" r="3" fill="#1f77b4"/>
<circle cx="637.0" cy="480.6" r="3" fill="#1f77b4"/>
<circle cx="640.6" cy="494.3" r="3" fill="#1f77b4"/>
<circle cx="644.1" cy="481.7" r="3" fill="#1f77b4"/>
<circle cx="647.7" cy="470.2" r="3" fill="#1f77b4"/>
<circle cx="651.2" cy="496.6" r="3" fill="#1f77b4"/>
<circle cx="654.7" cy="485.0" r="3" fill="#1f77b4"/>
<circle cx="658.3" cy="487.9" r="3" fill="#1f77b4"/>
<circle cx="661.8" cy="495.3" r="3" fill="#1f77b4"/>
<circle cx="665.4" cy="496.9" r="3" fill="#1f77b4"/>
<circle cx="668.9" cy="499.0" r="3" fill="#1f77b4"/>
<circle cx="672.5" cy="466.9" r="3" fill="#1f77b4"/>
<circle cx="676.0" cy="482.8" r="3" fill="#1f77b4"/>
<circle cx="679.5" cy="487.7" r="3" fill="#1f77b4"/>
<circle cx="683.1" cy="487.7" r="3" fill="#1f77b4"/>
<circle cx="686.6" cy="487.5" r="3" fill="#1f77b4"/>
<circle cx="690.2" cy="495.6" r="3" fill="#1f77b4"/>
<circle cx="693.7" cy="475.1" r="3" fill="#1f77b4"/>
<circle cx="697.3" cy="484.6" r="3" fill="#1f77b4"/>
<circle cx="700.8" cy="484.8" r="3" fill="#1f77b4"/>
<circle cx="704.3" cy="486.2" r="3" fill="#1f77b4"/>
<circle cx="707.9" cy="497.3" r="3" fill="#1f77b4"/>
<circle cx="711.4" cy="487.0" r="3" fill="#1f77b4"/>
<circle cx="715.0" cy="491.8" r="3" fill="#1f77b4"/>
<circle cx="718.5" cy="486.0" r="3" fill="#1f77b4"/>
<circle cx="722.1" cy="483.6" r="3" fill="#1f77b4"/>
<circle cx="725.6" cy="495.3" r="3" fill="#1f77b4"/>
<circle cx="729.1" cy="507.2" r="3" fill="#1f77b4"/>
<circle cx="732.7" cy="490.0" r="3" fill="#1f77b4"/>
<circle cx="736.2" cy="503.3" r="3" fill="#1f77b4"/>
<circle cx="739.8" cy="508.5" r="3" fill="#1f77b4"/>
<circle cx="743.3" cy="499.3" r="3" fill="#1f77b4"/>
<circle cx="746.9" cy="506.7" r="3" fill="#1f77b4"/>
<circle cx="750.4" cy="513.6" r="3" fill="#1f77b4"/>
<circle cx="753.9" cy="510.9" r="3" fill="#1f77b4"/>
<circle cx="757.5" cy="498.3" r="3" fill="#1f77b4"/>
<circle cx="761.0" cy="504.0" r="3" fill="#1f77b4"/>
<circle cx="764.6" cy="495.2" r="3" fill="#1f77b4"/>
<circle cx="768.1" cy="508.9" r="3" fill="#1f77b4"/>
<circle cx="771.7" cy="513.8" r="3" fill="#1f77b4"/>
<circle cx="775.2" cy="503.9" r="3" fill="#1f77b4"/>
<circle cx="778.7" cy="503.9" r="3" fill="#1f77b4"/>
<circle cx="782.3" cy="495.5" r="3" fill="#1f77b4"/>
<circle cx="785.8" cy="481.1" r="3" fill="#1f77b4"/>
<circle cx="789.4" cy="503.3" r="3" fill="#1f77b4"/>
<circle cx="792.9" cy="495.5" r="3" fill="#1f77b4"/>
<circle cx="796.5" cy="500.3" r="3" fill="#1f77b4"/>
<circle cx="800.0" cy="510.7" r="3" fill="#1f77b4"/>
<line x1="828" y1="96" x2="850" y2="96" stroke="#1f77b4" stroke-width="2.5"/>
<text x="858" y="100" font-family="Arial" font-size="13">grpo_on_policy_lr1e-5</text>
<text x="447.5" y="638" text-anchor="middle" font-family="Arial" font-size="15">GRPO step</text>
<text x="24" y="326.0" text-anchor="middle" font-family="Arial" font-size="15" transform="rotate(-90 24 326.0)">Token entropy (nats)</text>
</svg>
