<svg xmlns="http://www.w3.org/2000/svg" width="1100" height="660" viewBox="0 0 1100 660">
<rect width="100%" height="100%" fill="white"/>
<text x="550.0" y="36" text-anchor="middle" font-family="Arial" font-size="22" font-weight="700">On-policy GRPO train loop: validation format accuracy</text>
<line x1="95" y1="578" x2="800" y2="578" stroke="#222" stroke-width="1.5"/>
<line x1="95" y1="74" x2="95" y2="578" stroke="#222" stroke-width="1.5"/>
<line x1="90" y1="578.0" x2="800" y2="578.0" stroke="#ddd" stroke-width="1"/>
<text x="83" y="582.0" text-anchor="end" font-family="Arial" font-size="12">0.00%</text>
<line x1="90" y1="477.2" x2="800" y2="477.2" stroke="#ddd" stroke-width="1"/>
<text x="83" y="481.2" text-anchor="end" font-family="Arial" font-size="12">20.00%</text>
<line x1="90" y1="376.4" x2="800" y2="376.4" stroke="#ddd" stroke-width="1"/>
<text x="83" y="380.4" text-anchor="end" font-family="Arial" font-size="12">40.00%</text>
<line x1="90" y1="275.6" x2="800" y2="275.6" stroke="#ddd" stroke-width="1"/>
<text x="83" y="279.6" text-anchor="end" font-family="Arial" font-size="12">60.00%</text>
<line x1="90" y1="174.8" x2="800" y2="174.8" stroke="#ddd" stroke-width="1"/>
<text x="83" y="178.8" text-anchor="end" font-family="Arial" font-size="12">80.00%</text>
<line x1="90" y1="74.0" x2="800" y2="74.0" stroke="#ddd" stroke-width="1"/>
<text x="83" y="78.0" text-anchor="end" font-family="Arial" font-size="12">100.00%</text>
<line x1="95.0" y1="578" x2="95.0" y2="583" stroke="#222" stroke-width="1"/>
<text x="95.0" y="602" text-anchor="middle" font-family="Arial" font-size="12">0</text>
<line x1="236.0" y1="578" x2="236.0" y2="583" stroke="#222" stroke-width="1"/>
<text x="236.0" y="602" text-anchor="middle" font-family="Arial" font-size="12">40</text>
<line x1="377.0" y1="578" x2="377.0" y2="583" stroke="#222" stroke-width="1"/>
<text x="377.0" y="602" text-anchor="middle" font-family="Arial" font-size="12">80</text>
<line x1="518.0" y1="578" x2="518.0" y2="583" stroke="#222" stroke-width="1"/>
<text x="518.0" y="602" text-anchor="middle" font-family="Arial" font-size="12">120</text>
<line x1="659.0" y1="578" x2="659.0" y2="583" stroke="#222" stroke-width="1"/>
<text x="659.0" y="602" text-anchor="middle" font-family="Arial" font-size="12">160</text>
<line x1="800.0" y1="578" x2="800.0" y2="583" stroke="#222" stroke-width="1"/>
<text x="800.0" y="602" text-anchor="middle" font-family="Arial" font-size="12">200</text>
<polyline fill="none" stroke="#1f77b4" stroke-width="2.3" points="95.0,486.9 112.6,326.5 130.2,256.1 147.9,238.4 165.5,204.4 183.1,195.1 200.8,176.4 218.4,174.9 236.0,165.5 253.6,157.2 271.2,155.7 288.9,153.7 306.5,147.8 324.1,155.7 341.8,152.3 359.4,147.8 377.0,140.9 394.6,144.9 412.2,132.1 429.9,121.2 447.5,110.9 465.1,112.4 482.8,105.5 500.4,114.4 518.0,112.4 535.6,107.5 553.2,113.9 570.9,105.5 588.5,110.4 606.1,114.4 623.8,116.3 641.4,109.4 659.0,109.9 676.6,109.9 694.2,107.5 711.9,95.7 729.5,94.2 747.1,93.7 764.8,93.7 782.4,91.7 800.0,96.1"/>
<circle cx="95.0" cy="486.9" r="3" fill="#1f77b4"/>
<circle cx="112.6" cy="326.5" r="3" fill="#1f77b4"/>
<circle cx="130.2" cy="256.1" r="3" fill="#1f77b4"/>
<circle cx="147.9" cy="238.4" r="3" fill="#1f77b4"/>
<circle cx="165.5" cy="204.4" r="3" fill="#1f77b4"/>
<circle cx="183.1" cy="195.1" r="3" fill="#1f77b4"/>
<circle cx="200.8" cy="176.4" r="3" fill="#1f77b4"/>
<circle cx="218.4" cy="174.9" r="3" fill="#1f77b4"/>
<circle cx="236.0" cy="165.5" r="3" fill="#1f77b4"/>
<circle cx="253.6" cy="157.2" r="3" fill="#1f77b4"/>
<circle cx="271.2" cy="155.7" r="3" fill="#1f77b4"/>
<circle cx="288.9" cy="153.7" r="3" fill="#1f77b4"/>
<circle cx="306.5" cy="147.8" r="3" fill="#1f77b4"/>
<circle cx="324.1" cy="155.7" r="3" fill="#1f77b4"/>
<circle cx="341.8" cy="152.3" r="3" fill="#1f77b4"/>
<circle cx="359.4" cy="147.8" r="3" fill="#1f77b4"/>
<circle cx="377.0" cy="140.9" r="3" fill="#1f77b4"/>
<circle cx="394.6" cy="144.9" r="3" fill="#1f77b4"/>
<circle cx="412.2" cy="132.1" r="3" fill="#1f77b4"/>
<circle cx="429.9" cy="121.2" r="3" fill="#1f77b4"/>
<circle cx="447.5" cy="110.9" r="3" fill="#1f77b4"/>
<circle cx="465.1" cy="112.4" r="3" fill="#1f77b4"/>
<circle cx="482.8" cy="105.5" r="3" fill="#1f77b4"/>
<circle cx="500.4" cy="114.4" r="3" fill="#1f77b4"/>
<circle cx="518.0" cy="112.4" r="3" fill="#1f77b4"/>
<circle cx="535.6" cy="107.5" r="3" fill="#1f77b4"/>
<circle cx="553.2" cy="113.9" r="3" fill="#1f77b4"/>
<circle cx="570.9" cy="105.5" r="3" fill="#1f77b4"/>
<circle cx="588.5" cy="110.4" r="3" fill="#1f77b4"/>
<circle cx="606.1" cy="114.4" r="3" fill="#1f77b4"/>
<circle cx="623.8" cy="116.3" r="3" fill="#1f77b4"/>
<circle cx="641.4" cy="109.4" r="3" fill="#1f77b4"/>
<circle cx="659.0" cy="109.9" r="3" fill="#1f77b4"/>
<circle cx="676.6" cy="109.9" r="3" fill="#1f77b4"/>
<circle cx="694.2" cy="107.5" r="3" fill="#1f77b4"/>
<circle cx="711.9" cy="95.7" r="3" fill="#1f77b4"/>
<circle cx="729.5" cy="94.2" r="3" fill="#1f77b4"/>
<circle cx="747.1" cy="93.7" r="3" fill="#1f77b4"/>
<circle cx="764.8" cy="93.7" r="3" fill="#1f77b4"/>
<circle cx="782.4" cy="91.7" r="3" fill="#1f77b4"/>
<circle cx="800.0" cy="96.1" r="3" fill="#1f77b4"/>
<line x1="828" y1="96" x2="850" y2="96" stroke="#1f77b4" stroke-width="2.5"/>
<text x="858" y="100" font-family="Arial" font-size="13">grpo_on_policy_lr1e-5</text>
<text x="447.5" y="638" text-anchor="middle" font-family="Arial" font-size="15">GRPO step</text>
<text x="24" y="326.0" text-anchor="middle" font-family="Arial" font-size="15" transform="rotate(-90 24 326.0)">Validation format accuracy</text>
</svg>
