<svg xmlns="http://www.w3.org/2000/svg" width="1100" height="660" viewBox="0 0 1100 660">
<rect width="100%" height="100%" fill="white"/>
<text x="550.0" y="36" text-anchor="middle" font-family="Arial" font-size="22" font-weight="700">On-policy GRPO train loop: rollout response length</text>
<line x1="95" y1="578" x2="800" y2="578" stroke="#222" stroke-width="1.5"/>
<line x1="95" y1="74" x2="95" y2="578" stroke="#222" stroke-width="1.5"/>
<line x1="90" y1="578.0" x2="800" y2="578.0" stroke="#ddd" stroke-width="1"/>
<text x="83" y="582.0" text-anchor="end" font-family="Arial" font-size="12">0.00</text>
<line x1="90" y1="477.2" x2="800" y2="477.2" stroke="#ddd" stroke-width="1"/>
<text x="83" y="481.2" text-anchor="end" font-family="Arial" font-size="12">77.84</text>
<line x1="90" y1="376.4" x2="800" y2="376.4" stroke="#ddd" stroke-width="1"/>
<text x="83" y="380.4" text-anchor="end" font-family="Arial" font-size="12">155.68</text>
<line x1="90" y1="275.6" x2="800" y2="275.6" stroke="#ddd" stroke-width="1"/>
<text x="83" y="279.6" text-anchor="end" font-family="Arial" font-size="12">233.52</text>
<line x1="90" y1="174.8" x2="800" y2="174.8" stroke="#ddd" stroke-width="1"/>
<text x="83" y="178.8" text-anchor="end" font-family="Arial" font-size="12">311.36</text>
<line x1="90" y1="74.0" x2="800" y2="74.0" stroke="#ddd" stroke-width="1"/>
<text x="83" y="78.0" text-anchor="end" font-family="Arial" font-size="12">389.20</text>
<line x1="95.0" y1="578" x2="95.0" y2="583" stroke="#222" stroke-width="1"/>
<text x="95.0" y="602" text-anchor="middle" font-family="Arial" font-size="12">1</text>
<line x1="236.0" y1="578" x2="236.0" y2="583" stroke="#222" stroke-width="1"/>
<text x="236.0" y="602" text-anchor="middle" font-family="Arial" font-size="12">41</text>
<line x1="377.0" y1="578" x2="377.0" y2="583" stroke="#222" stroke-width="1"/>
<text x="377.0" y="602" text-anchor="middle" font-family="Arial" font-size="12">81</text>
<line x1="518.0" y1="578" x2="518.0" y2="583" stroke="#222" stroke-width="1"/>
<text x="518.0" y="602" text-anchor="middle" font-family="Arial" font-size="12">120</text>
<line x1="659.0" y1="578" x2="659.0" y2="583" stroke="#222" stroke-width="1"/>
<text x="659.0" y="602" text-anchor="middle" font-family="Arial" font-size="12">160</text>
<line x1="800.0" y1="578" x2="800.0" y2="583" stroke="#222" stroke-width="1"/>
<text x="800.0" y="602" text-anchor="middle" font-family="Arial" font-size="12">200</text>
<polyline fill="none" stroke="#1f77b4" stroke-width="2.3" points="95.0,183.5 98.5,208.9 102.1,232.7 105.6,177.4 109.2,183.5 112.7,74.1 116.3,188.4 119.8,219.6 123.3,212.2 126.9,215.6 130.4,182.5 134.0,246.7 137.5,215.5 141.1,227.1 144.6,199.0 148.1,189.3 151.7,197.6 155.2,160.5 158.8,220.8 162.3,232.9 165.9,210.9 169.4,167.2 172.9,191.4 176.5,204.8 180.0,241.2 183.6,215.2 187.1,286.3 190.7,255.7 194.2,229.4 197.7,233.0 201.3,270.0 204.8,230.4 208.4,272.7 211.9,226.3 215.5,188.9 219.0,194.1 222.5,232.6 226.1,182.1 229.6,255.4 233.2,192.0 236.7,252.3 240.3,193.3 243.8,198.8 247.3,287.7 250.9,196.4 254.4,229.9 258.0,300.2 261.5,148.2 265.1,217.4 268.6,271.1 272.1,240.9 275.7,286.5 279.2,230.3 282.8,276.9 286.3,211.2 289.8,170.4 293.4,291.3 296.9,228.9 300.5,202.4 304.0,216.5 307.6,278.0 311.1,299.4 314.6,306.2 318.2,255.9 321.7,278.8 325.3,270.5 328.8,210.7 332.4,295.4 335.9,239.0 339.4,246.3 343.0,136.9 346.5,212.8 350.1,210.3 353.6,223.4 357.2,259.0 360.7,247.9 364.2,185.0 367.8,226.3 371.3,239.2 374.9,228.8 378.4,261.3 382.0,254.1 385.5,227.1 389.0,185.8 392.6,237.5 396.1,271.9 399.7,289.1 403.2,205.1 406.8,301.2 410.3,301.6 413.8,242.7 417.4,271.4 420.9,303.8 424.5,275.4 428.0,316.8 431.6,293.5 435.1,272.8 438.6,262.5 442.2,243.0 445.7,277.0 449.3,192.3 452.8,290.3 456.4,318.9 459.9,269.8 463.4,277.4 467.0,269.0 470.5,265.6 474.1,264.6 477.6,251.6 481.2,281.3 484.7,217.2 488.2,280.0 491.8,270.9 495.3,280.3 498.9,275.3 502.4,216.6 506.0,284.3 509.5,302.8 513.0,277.5 516.6,252.4 520.1,241.2 523.7,168.1 527.2,221.9 530.8,316.1 534.3,272.8 537.8,258.7 541.4,251.4 544.9,220.5 548.5,274.1 552.0,262.9 555.6,253.3 559.1,222.9 562.6,306.2 566.2,258.3 569.7,289.8 573.3,245.4 576.8,258.9 580.4,261.4 583.9,250.2 587.4,182.6 591.0,267.8 594.5,259.6 598.1,298.9 601.6,167.8 605.2,247.0 608.7,244.5 612.2,217.4 615.8,263.8 619.3,164.4 622.9,218.0 626.4,189.2 629.9,200.6 633.5,247.0 637.0,235.9 640.6,280.1 644.1,273.6 647.7,164.0 651.2,275.1 654.7,153.3 658.3,167.5 661.8,242.4 665.4,289.0 668.9,292.4 672.5,233.7 676.0,255.2 679.5,223.5 683.1,221.9 686.6,257.9 690.2,249.6 693.7,266.1 697.3,279.5 700.8,235.7 704.3,238.4 707.9,225.3 711.4,213.1 715.0,277.3 718.5,254.3 722.1,273.6 725.6,315.1 729.1,288.2 732.7,263.2 736.2,305.9 739.8,326.2 743.3,282.0 746.9,314.4 750.4,277.0 753.9,276.7 757.5,239.5 761.0,249.6 764.6,261.3 768.1,223.2 771.7,321.0 775.2,286.0 778.7,286.1 782.3,206.8 785.8,202.7 789.4,303.6 792.9,216.3 796.5,271.6 800.0,309.7"/>
<circle cx="95.0" cy="183.5" r="3" fill="#1f77b4"/>
<circle cx="98.5" cy="208.9" r="3" fill="#1f77b4"/>
<circle cx="102.1" cy="232.7" r="3" fill="#1f77b4"/>
<circle cx="105.6" cy="177.4" r="3" fill="#1f77b4"/>
<circle cx="109.2" cy="183.5" r="3" fill="#1f77b4"/>
<circle cx="112.7" cy="74.1" r="3" fill="#1f77b4"/>
<circle cx="116.3" cy="188.4" r="3" fill="#1f77b4"/>
<circle cx="119.8" cy="219.6" r="3" fill="#1f77b4"/>
<circle cx="123.3" cy="212.2" r="3" fill="#1f77b4"/>
<circle cx="126.9" cy="215.6" r="3" fill="#1f77b4"/>
<circle cx="130.4" cy="182.5" r="3" fill="#1f77b4"/>
<circle cx="134.0" cy="246.7" r="3" fill="#1f77b4"/>
<circle cx="137.5" cy="215.5" r="3" fill="#1f77b4"/>
<circle cx="141.1" cy="227.1" r="3" fill="#1f77b4"/>
<circle cx="144.6" cy="199.0" r="3" fill="#1f77b4"/>
<circle cx="148.1" cy="189.3" r="3" fill="#1f77b4"/>
<circle cx="151.7" cy="197.6" r="3" fill="#1f77b4"/>
<circle cx="155.2" cy="160.5" r="3" fill="#1f77b4"/>
<circle cx="158.8" cy="220.8" r="3" fill="#1f77b4"/>
<circle cx="162.3" cy="232.9" r="3" fill="#1f77b4"/>
<circle cx="165.9" cy="210.9" r="3" fill="#1f77b4"/>
<circle cx="169.4" cy="167.2" r="3" fill="#1f77b4"/>
<circle cx="172.9" cy="191.4" r="3" fill="#1f77b4"/>
<circle cx="176.5" cy="204.8" r="3" fill="#1f77b4"/>
<circle cx="180.0" cy="241.2" r="3" fill="#1f77b4"/>
<circle cx="183.6" cy="215.2" r="3" fill="#1f77b4"/>
<circle cx="187.1" cy="286.3" r="3" fill="#1f77b4"/>
<circle cx="190.7" cy="255.7" r="3" fill="#1f77b4"/>
<circle cx="194.2" cy="229.4" r="3" fill="#1f77b4"/>
<circle cx="197.7" cy="233.0" r="3" fill="#1f77b4"/>
<circle cx="201.3" cy="270.0" r="3" fill="#1f77b4"/>
<circle cx="204.8" cy="230.4" r="3" fill="#1f77b4"/>
<circle cx="208.4" cy="272.7" r="3" fill="#1f77b4"/>
<circle cx="211.9" cy="226.3" r="3" fill="#1f77b4"/>
<circle cx="215.5" cy="188.9" r="3" fill="#1f77b4"/>
<circle cx="219.0" cy="194.1" r="3" fill="#1f77b4"/>
<circle cx="222.5" cy="232.6" r="3" fill="#1f77b4"/>
<circle cx="226.1" cy="182.1" r="3" fill="#1f77b4"/>
<circle cx="229.6" cy="255.4" r="3" fill="#1f77b4"/>
<circle cx="233.2" cy="192.0" r="3" fill="#1f77b4"/>
<circle cx="236.7" cy="252.3" r="3" fill="#1f77b4"/>
<circle cx="240.3" cy="193.3" r="3" fill="#1f77b4"/>
<circle cx="243.8" cy="198.8" r="3" fill="#1f77b4"/>
<circle cx="247.3" cy="287.7" r="3" fill="#1f77b4"/>
<circle cx="250.9" cy="196.4" r="3" fill="#1f77b4"/>
<circle cx="254.4" cy="229.9" r="3" fill="#1f77b4"/>
<circle cx="258.0" cy="300.2" r="3" fill="#1f77b4"/>
<circle cx="261.5" cy="148.2" r="3" fill="#1f77b4"/>
<circle cx="265.1" cy="217.4" r="3" fill="#1f77b4"/>
<circle cx="268.6" cy="271.1" r="3" fill="#1f77b4"/>
<circle cx="272.1" cy="240.9" r="3" fill="#1f77b4"/>
<circle cx="275.7" cy="286.5" r="3" fill="#1f77b4"/>
<circle cx="279.2" cy="230.3" r="3" fill="#1f77b4"/>
<circle cx="282.8" cy="276.9" r="3" fill="#1f77b4"/>
<circle cx="286.3" cy="211.2" r="3" fill="#1f77b4"/>
<circle cx="289.8" cy="170.4" r="3" fill="#1f77b4"/>
<circle cx="293.4" cy="291.3" r="3" fill="#1f77b4"/>
<circle cx="296.9" cy="228.9" r="3" fill="#1f77b4"/>
<circle cx="300.5" cy="202.4" r="3" fill="#1f77b4"/>
<circle cx="304.0" cy="216.5" r="3" fill="#1f77b4"/>
<circle cx="307.6" cy="278.0" r="3" fill="#1f77b4"/>
<circle cx="311.1" cy="299.4" r="3" fill="#1f77b4"/>
<circle cx="314.6" cy="306.2" r="3" fill="#1f77b4"/>
<circle cx="318.2" cy="255.9" r="3" fill="#1f77b4"/>
<circle cx="321.7" cy="278.8" r="3" fill="#1f77b4"/>
<circle cx="325.3" cy="270.5" r="3" fill="#1f77b4"/>
<circle cx="328.8" cy="210.7" r="3" fill="#1f77b4"/>
<circle cx="332.4" cy="295.4" r="3" fill="#1f77b4"/>
<circle cx="335.9" cy="239.0" r="3" fill="#1f77b4"/>
<circle cx="339.4" cy="246.3" r="3" fill="#1f77b4"/>
<circle cx="343.0" cy="136.9" r="3" fill="#1f77b4"/>
<circle cx="346.5" cy="212.8" r="3" fill="#1f77b4"/>
<circle cx="350.1" cy="210.3" r="3" fill="#1f77b4"/>
<circle cx="353.6" cy="223.4" r="3" fill="#1f77b4"/>
<circle cx="357.2" cy="259.0" r="3" fill="#1f77b4"/>
<circle cx="360.7" cy="247.9" r="3" fill="#1f77b4"/>
<circle cx="364.2" cy="185.0" r="3" fill="#1f77b4"/>
<circle cx="367.8" cy="226.3" r="3" fill="#1f77b4"/>
<circle cx="371.3" cy="239.2" r="3" fill="#1f77b4"/>
<circle cx="374.9" cy="228.8" r="3" fill="#1f77b4"/>
<circle cx="378.4" cy="261.3" r="3" fill="#1f77b4"/>
<circle cx="382.0" cy="254.1" r="3" fill="#1f77b4"/>
<circle cx="385.5" cy="227.1" r="3" fill="#1f77b4"/>
<circle cx="389.0" cy="185.8" r="3" fill="#1f77b4"/>
<circle cx="392.6" cy="237.5" r="3" fill="#1f77b4"/>
<circle cx="396.1" cy="271.9" r="3" fill="#1f77b4"/>
<circle cx="399.7" cy="289.1" r="3" fill="#1f77b4"/>
<circle cx="403.2" cy="205.1" r="3" fill="#1f77b4"/>
<circle cx="406.8" cy="301.2" r="3" fill="#1f77b4"/>
<circle cx="410.3" cy="301.6" r="3" fill="#1f77b4"/>
<circle cx="413.8" cy="242.7" r="3" fill="#1f77b4"/>
<circle cx="417.4" cy="271.4" r="3" fill="#1f77b4"/>
<circle cx="420.9" cy="303.8" r="3" fill="#1f77b4"/>
<circle cx="424.5" cy="275.4" r="3" fill="#1f77b4"/>
<circle cx="428.0" cy="316.8" r="3" fill="#1f77b4"/>
<circle cx="431.6" cy="293.5" r="3" fill="#1f77b4"/>
<circle cx="435.1" cy="272.8" r="3" fill="#1f77b4"/>
<circle cx="438.6" cy="262.5" r="3" fill="#1f77b4"/>
<circle cx="442.2" cy="243.0" r="3" fill="#1f77b4"/>
<circle cx="445.7" cy="277.0" r="3" fill="#1f77b4"/>
<circle cx="449.3" cy="192.3" r="3" fill="#1f77b4"/>
<circle cx="452.8" cy="290.3" r="3" fill="#1f77b4"/>
<circle cx="456.4" cy="318.9" r="3" fill="#1f77b4"/>
<circle cx="459.9" cy="269.8" r="3" fill="#1f77b4"/>
<circle cx="463.4" cy="277.4" r="3" fill="#1f77b4"/>
<circle cx="467.0" cy="269.0" r="3" fill="#1f77b4"/>
<circle cx="470.5" cy="265.6" r="3" fill="#1f77b4"/>
<circle cx="474.1" cy="264.6" r="3" fill="#1f77b4"/>
<circle cx="477.6" cy="251.6" r="3" fill="#1f77b4"/>
<circle cx="481.2" cy="281.3" r="3" fill="#1f77b4"/>
<circle cx="484.7" cy="217.2" r="3" fill="#1f77b4"/>
<circle cx="488.2" cy="280.0" r="3" fill="#1f77b4"/>
<circle cx="491.8" cy="270.9" r="3" fill="#1f77b4"/>
<circle cx="495.3" cy="280.3" r="3" fill="#1f77b4"/>
<circle cx="498.9" cy="275.3" r="3" fill="#1f77b4"/>
<circle cx="502.4" cy="216.6" r="3" fill="#1f77b4"/>
<circle cx="506.0" cy="284.3" r="3" fill="#1f77b4"/>
<circle cx="509.5" cy="302.8" r="3" fill="#1f77b4"/>
<circle cx="513.0" cy="277.5" r="3" fill="#1f77b4"/>
<circle cx="516.6" cy="252.4" r="3" fill="#1f77b4"/>
<circle cx="520.1" cy="241.2" r="3" fill="#1f77b4"/>
<circle cx="523.7" cy="168.1" r="3" fill="#1f77b4"/>
<circle cx="527.2" cy="221.9" r="3" fill="#1f77b4"/>
<circle cx="530.8" cy="316.1" r="3" fill="#1f77b4"/>
<circle cx="534.3" cy="272.8" r="3" fill="#1f77b4"/>
<circle cx="537.8" cy="258.7" r="3" fill="#1f77b4"/>
<circle cx="541.4" cy="251.4" r="3" fill="#1f77b4"/>
<circle cx="544.9" cy="220.5" r="3" fill="#1f77b4"/>
<circle cx="548.5" cy="274.1" r="3" fill="#1f77b4"/>
<circle cx="552.0" cy="262.9" r="3" fill="#1f77b4"/>
<circle cx="555.6" cy="253.3" r="3" fill="#1f77b4"/>
<circle cx="559.1" cy="222.9" r="3" fill="#1f77b4"/>
<circle cx="562.6" cy="306.2" r="3" fill="#1f77b4"/>
<circle cx="566.2" cy="258.3" r="3" fill="#1f77b4"/>
<circle cx="569.7" cy="289.8" r="3" fill="#1f77b4"/>
<circle cx="573.3" cy="245.4" r="3" fill="#1f77b4"/>
<circle cx="576.8" cy="258.9" r="3" fill="#1f77b4"/>
<circle cx="580.4" cy="261.4" r="3" fill="#1f77b4"/>
<circle cx="583.9" cy="250.2" r="3" fill="#1f77b4"/>
<circle cx="587.4" cy="182.6" r="3" fill="#1f77b4"/>
<circle cx="591.0" cy="267.8" r="3" fill="#1f77b4"/>
<circle cx="594.5" cy="259.6" r="3" fill="#1f77b4"/>
<circle cx="598.1" cy="298.9" r="3" fill="#1f77b4"/>
<circle cx="601.6" cy="167.8" r="3" fill="#1f77b4"/>
<circle cx="605.2" cy="247.0" r="3" fill="#1f77b4"/>
<circle cx="608.7" cy="244.5" r="3" fill="#1f77b4"/>
<circle cx="612.2" cy="217.4" r="3" fill="#1f77b4"/>
<circle cx="615.8" cy="263.8" r="3" fill="#1f77b4"/>
<circle cx="619.3" cy="164.4" r="3" fill="#1f77b4"/>
<circle cx="622.9" cy="218.0" r="3" fill="#1f77b4"/>
<circle cx="626.4" cy="189.2" r="3" fill="#1f77b4"/>
<circle cx="629.9" cy="200.6" r="3" fill="#1f77b4"/>
<circle cx="633.5" cy="247.0" r="3" fill="#1f77b4"/>
<circle cx="637.0" cy="235.9" r="3" fill="#1f77b4"/>
<circle cx="640.6" cy="280.1" r="3" fill="#1f77b4"/>
<circle cx="644.1" cy="273.6" r="3" fill="#1f77b4"/>
<circle cx="647.7" cy="164.0" r="3" fill="#1f77b4"/>
<circle cx="651.2" cy="275.1" r="3" fill="#1f77b4"/>
<circle cx="654.7" cy="153.3" r="3" fill="#1f77b4"/>
<circle cx="658.3" cy="167.5" r="3" fill="#1f77b4"/>
<circle cx="661.8" cy="242.4" r="3" fill="#1f77b4"/>
<circle cx="665.4" cy="289.0" r="3" fill="#1f77b4"/>
<circle cx="668.9" cy="292.4" r="3" fill="#1f77b4"/>
<circle cx="672.5" cy="233.7" r="3" fill="#1f77b4"/>
<circle cx="676.0" cy="255.2" r="3" fill="#1f77b4"/>
<circle cx="679.5" cy="223.5" r="3" fill="#1f77b4"/>
<circle cx="683.1" cy="221.9" r="3" fill="#1f77b4"/>
<circle cx="686.6" cy="257.9" r="3" fill="#1f77b4"/>
<circle cx="690.2" cy="249.6" r="3" fill="#1f77b4"/>
<circle cx="693.7" cy="266.1" r="3" fill="#1f77b4"/>
<circle cx="697.3" cy="279.5" r="3" fill="#1f77b4"/>
<circle cx="700.8" cy="235.7" r="3" fill="#1f77b4"/>
<circle cx="704.3" cy="238.4" r="3" fill="#1f77b4"/>
<circle cx="707.9" cy="225.3" r="3" fill="#1f77b4"/>
<circle cx="711.4" cy="213.1" r="3" fill="#1f77b4"/>
<circle cx="715.0" cy="277.3" r="3" fill="#1f77b4"/>
<circle cx="718.5" cy="254.3" r="3" fill="#1f77b4"/>
<circle cx="722.1" cy="273.6" r="3" fill="#1f77b4"/>
<circle cx="725.6" cy="315.1" r="3" fill="#1f77b4"/>
<circle cx="729.1" cy="288.2" r="3" fill="#1f77b4"/>
<circle cx="732.7" cy="263.2" r="3" fill="#1f77b4"/>
<circle cx="736.2" cy="305.9" r="3" fill="#1f77b4"/>
<circle cx="739.8" cy="326.2" r="3" fill="#1f77b4"/>
<circle cx="743.3" cy="282.0" r="3" fill="#1f77b4"/>
<circle cx="746.9" cy="314.4" r="3" fill="#1f77b4"/>
<circle cx="750.4" cy="277.0" r="3" fill="#1f77b4"/>
<circle cx="753.9" cy="276.7" r="3" fill="#1f77b4"/>
<circle cx="757.5" cy="239.5" r="3" fill="#1f77b4"/>
<circle cx="761.0" cy="249.6" r="3" fill="#1f77b4"/>
<circle cx="764.6" cy="261.3" r="3" fill="#1f77b4"/>
<circle cx="768.1" cy="223.2" r="3" fill="#1f77b4"/>
<circle cx="771.7" cy="321.0" r="3" fill="#1f77b4"/>
<circle cx="775.2" cy="286.0" r="3" fill="#1f77b4"/>
<circle cx="778.7" cy="286.1" r="3" fill="#1f77b4"/>
<circle cx="782.3" cy="206.8" r="3" fill="#1f77b4"/>
<circle cx="785.8" cy="202.7" r="3" fill="#1f77b4"/>
<circle cx="789.4" cy="303.6" r="3" fill="#1f77b4"/>
<circle cx="792.9" cy="216.3" r="3" fill="#1f77b4"/>
<circle cx="796.5" cy="271.6" r="3" fill="#1f77b4"/>
<circle cx="800.0" cy="309.7" r="3" fill="#1f77b4"/>
<line x1="828" y1="96" x2="850" y2="96" stroke="#1f77b4" stroke-width="2.5"/>
<text x="858" y="100" font-family="Arial" font-size="13">grpo_on_policy_lr1e-5</text>
<text x="447.5" y="638" text-anchor="middle" font-family="Arial" font-size="15">GRPO step</text>
<text x="24" y="326.0" text-anchor="middle" font-family="Arial" font-size="15" transform="rotate(-90 24 326.0)">Average rollout response tokens</text>
</svg>
