<svg xmlns="http://www.w3.org/2000/svg" width="900" height="520" viewBox="0 0 900 520">
<rect width="100%" height="100%" fill="white"/>
<text x="450.0" y="26" text-anchor="middle" font-family="Arial, sans-serif" font-size="20" font-weight="700">SFT Training Loss</text>
<line x1="82" y1="450" x2="868" y2="450" stroke="#222" stroke-width="1.2"/>
<line x1="82" y1="48" x2="82" y2="450" stroke="#222" stroke-width="1.2"/>
<line x1="82.0" y1="48" x2="82.0" y2="450" stroke="#eee" stroke-width="1"/>
<text x="82.0" y="478" text-anchor="middle" font-family="Arial, sans-serif" font-size="12">1</text>
<line x1="278.5" y1="48" x2="278.5" y2="450" stroke="#eee" stroke-width="1"/>
<text x="278.5" y="478" text-anchor="middle" font-family="Arial, sans-serif" font-size="12">1682</text>
<line x1="475.0" y1="48" x2="475.0" y2="450" stroke="#eee" stroke-width="1"/>
<text x="475.0" y="478" text-anchor="middle" font-family="Arial, sans-serif" font-size="12">3364</text>
<line x1="671.5" y1="48" x2="671.5" y2="450" stroke="#eee" stroke-width="1"/>
<text x="671.5" y="478" text-anchor="middle" font-family="Arial, sans-serif" font-size="12">5046</text>
<line x1="868.0" y1="48" x2="868.0" y2="450" stroke="#eee" stroke-width="1"/>
<text x="868.0" y="478" text-anchor="middle" font-family="Arial, sans-serif" font-size="12">6727</text>
<line x1="82" y1="450.0" x2="868" y2="450.0" stroke="#eee" stroke-width="1"/>
<text x="72" y="454.0" text-anchor="end" font-family="Arial, sans-serif" font-size="12">1.091</text>
<line x1="82" y1="349.5" x2="868" y2="349.5" stroke="#eee" stroke-width="1"/>
<text x="72" y="353.5" text-anchor="end" font-family="Arial, sans-serif" font-size="12">1.315</text>
<line x1="82" y1="249.0" x2="868" y2="249.0" stroke="#eee" stroke-width="1"/>
<text x="72" y="253.0" text-anchor="end" font-family="Arial, sans-serif" font-size="12">1.540</text>
<line x1="82" y1="148.5" x2="868" y2="148.5" stroke="#eee" stroke-width="1"/>
<text x="72" y="152.5" text-anchor="end" font-family="Arial, sans-serif" font-size="12">1.764</text>
<line x1="82" y1="48.0" x2="868" y2="48.0" stroke="#eee" stroke-width="1"/>
<text x="72" y="52.0" text-anchor="end" font-family="Arial, sans-serif" font-size="12">1.989</text>
<text x="475.0" y="500" text-anchor="middle" font-family="Arial, sans-serif" font-size="14">Optimizer step</text>
<text transform="translate(22,249.0) rotate(-90)" text-anchor="middle" font-family="Arial, sans-serif" font-size="14">Training loss</text>
<polyline points="82.0,145.5 82.7,75.7 83.4,163.8 84.1,154.0 84.8,260.7 85.5,235.0 86.2,229.2 86.9,193.3 87.6,219.1 88.3,238.1 89.0,225.3 89.7,236.0 90.4,251.5 91.1,277.6 91.8,172.7 92.5,177.1 93.2,251.0 93.9,282.6 94.6,230.1 95.3,212.4 96.0,249.8 96.7,273.4 97.4,245.4 98.1,263.4 98.8,231.3 99.5,243.7 100.2,268.6 100.9,309.9 101.6,315.4 102.3,261.9 103.0,264.5 103.7,325.0 104.4,241.2 105.1,318.5 105.8,276.8 106.5,298.9 107.2,272.8 107.9,224.3 108.6,343.3 109.3,248.7 110.0,320.6 110.7,238.0 111.4,235.9 112.1,261.4 112.9,299.1 113.6,290.7 114.3,245.0 115.0,345.1 115.7,223.4 116.4,275.2 117.1,245.5 117.8,272.9 118.5,259.9 119.2,274.4 119.9,202.3 120.6,326.8 121.3,339.2 122.0,281.7 122.7,266.4 123.4,324.0 124.1,284.1 124.8,242.2 125.5,334.1 126.2,277.0 126.9,253.1 127.6,265.5 128.3,296.4 129.0,253.8 129.7,319.5 130.4,224.1 131.1,315.6 131.8,355.3 132.5,256.6 133.2,313.3 133.9,176.6 134.6,220.0 135.3,252.2 136.0,243.5 136.7,309.4 137.4,279.9 138.1,298.1 138.8,305.6 139.5,261.4 140.2,185.1 140.9,313.6 141.6,194.3 142.3,301.5 143.0,244.0 143.7,308.1 144.4,331.3 145.1,262.2 145.8,276.4 146.5,241.6 147.2,355.2 147.9,240.4 148.6,265.1 149.3,263.3 150.0,334.3 150.7,257.4 151.4,266.6 152.1,328.8 152.8,258.9 153.5,299.9 154.2,288.8 154.9,277.9 155.6,295.9 156.3,264.9 157.0,289.8 157.7,322.3 158.4,364.4 159.1,279.4 159.8,272.8 160.5,304.8 161.2,353.4 161.9,264.3 162.6,243.8 163.3,247.9 164.0,340.7 164.7,360.7 165.4,272.5 166.1,261.3 166.8,291.2 167.5,290.9 168.2,318.2 168.9,284.5 169.6,231.2 170.3,266.7 171.0,304.8 171.7,273.2 172.4,299.8 173.2,195.6 173.9,318.1 174.6,304.7 175.3,276.0 176.0,266.2 176.7,294.6 177.4,311.7 178.1,271.3 178.8,314.8 179.5,296.5 180.2,234.9 180.9,183.0 181.6,256.6 182.3,323.9 183.0,322.2 183.7,279.6 184.4,311.6 185.1,284.3 185.8,287.0 186.5,248.8 187.2,290.9 187.9,306.6 188.6,281.7 189.3,326.1 190.0,302.8 190.7,212.2 191.4,234.0 192.1,233.5 192.8,296.3 193.5,296.8 194.2,192.5 194.9,313.9 195.6,261.6 196.3,273.0 197.0,328.9 197.7,236.5 198.4,312.7 199.1,287.5 199.8,307.0 200.5,334.9 201.2,283.1 201.9,260.7 202.6,384.1 203.3,374.5 204.0,301.5 204.7,287.2 205.4,279.4 206.1,329.7 206.8,277.0 207.5,305.5 208.2,328.3 208.9,311.2 209.6,233.8 210.3,276.4 211.0,287.3 211.7,315.2 212.4,306.7 213.1,276.9 213.8,279.6 214.5,293.8 215.2,326.9 215.9,242.3 216.6,284.2 217.3,222.2 218.0,318.4 218.7,270.7 219.4,302.5 220.1,261.1 220.8,299.4 221.5,365.0 222.2,284.8 222.9,322.0 223.6,289.9 224.3,265.4 225.0,316.1 225.7,340.8 226.4,267.2 227.1,224.3 227.8,346.4 228.5,324.6 229.2,328.9 229.9,341.0 230.6,310.0 231.3,303.5 232.0,300.9 232.7,335.6 233.5,264.9 234.2,282.7 234.9,263.3 235.6,283.5 236.3,287.2 237.0,278.5 237.7,211.1 238.4,202.0 239.1,338.0 239.8,345.5 240.5,308.0 241.2,298.7 241.9,242.8 242.6,318.2 243.3,323.3 244.0,244.6 244.7,333.5 245.4,339.0 246.1,306.7 246.8,291.5 247.5,274.1 248.2,265.7 248.9,349.6 249.6,335.3 250.3,303.9 251.0,343.2 251.7,253.4 252.4,328.0 253.1,265.3 253.8,276.6 254.5,254.8 255.2,244.8 255.9,316.9 256.6,319.9 257.3,365.6 258.0,292.0 258.7,300.0 259.4,266.9 260.1,293.0 260.8,299.8 261.5,253.7 262.2,314.3 262.9,318.0 263.6,239.5 264.3,289.6 265.0,344.6 265.7,334.5 266.4,301.1 267.1,283.3 267.8,379.4 268.5,260.0 269.2,374.4 269.9,290.1 270.6,293.7 271.3,296.7 272.0,277.3 272.7,345.4 273.4,185.2 274.1,287.7 274.8,342.0 275.5,292.0 276.2,237.6 276.9,318.2 277.6,319.4 278.3,356.2 279.0,302.3 279.7,329.3 280.4,344.3 281.1,240.5 281.8,254.6 282.5,322.1 283.2,302.0 283.9,241.5 284.6,299.5 285.3,315.1 286.0,224.5 286.7,306.6 287.4,318.5 288.1,240.1 288.8,353.5 289.5,336.6 290.2,336.5 290.9,295.4 291.6,263.1 292.3,284.2 293.0,354.0 293.8,276.3 294.5,311.5 295.2,366.4 295.9,202.4 296.6,338.7 297.3,327.6 298.0,346.7 298.7,252.1 299.4,328.8 300.1,340.5 300.8,374.8 301.5,294.7 302.2,331.5 302.9,283.7 303.6,344.4 304.3,287.1 305.0,291.6 305.7,297.8 306.4,316.8 307.1,351.7 307.8,225.2 308.5,298.1 309.2,262.8 309.9,309.8 310.6,357.4 311.3,266.4 312.0,308.7 312.7,401.4 313.4,210.9 314.1,333.8 314.8,296.5 315.5,254.7 316.2,256.0 316.9,309.5 317.6,274.9 318.3,230.4 319.0,282.7 319.7,296.8 320.4,348.9 321.1,373.9 321.8,326.0 322.5,255.0 323.2,322.2 323.9,316.9 324.6,329.6 325.3,298.5 326.0,321.2 326.7,237.9 327.4,344.0 328.1,326.6 328.8,338.3 329.5,335.8 330.2,278.9 330.9,333.5 331.6,271.7 332.3,251.7 333.0,328.9 333.7,203.4 334.4,332.1 335.1,314.5 335.8,264.7 336.5,299.4 337.2,315.6 337.9,297.6 338.6,245.7 339.3,265.8 340.0,258.2 340.7,304.5 341.4,257.6 342.1,289.3 342.8,266.7 343.5,282.8 344.2,275.0 344.9,337.3 345.6,314.6 346.3,248.0 347.0,309.5 347.7,239.8 348.4,348.7 349.1,271.2 349.8,301.9 350.5,301.1 351.2,287.2 351.9,354.4 352.6,295.7 353.3,308.2 354.0,267.8 354.8,311.9 355.5,356.1 356.2,299.1 356.9,256.8 357.6,322.9 358.3,227.6 359.0,312.3 359.7,234.7 360.4,339.7 361.1,263.9 361.8,289.2 362.5,354.1 363.2,325.9 363.9,285.8 364.6,340.4 365.3,321.4 366.0,279.4 366.7,367.8 367.4,292.0 368.1,313.4 368.8,326.2 369.5,323.5 370.2,295.1 370.9,278.9 371.6,299.5 372.3,254.5 373.0,310.9 373.7,390.7 374.4,320.3 375.1,274.6 375.8,280.1 376.5,332.8 377.2,295.5 377.9,248.8 378.6,345.2 379.3,318.2 380.0,273.3 380.7,318.0 381.4,244.0 382.1,287.6 382.8,229.8 383.5,270.2 384.2,351.2 384.9,265.5 385.6,294.3 386.3,334.9 387.0,312.3 387.7,321.3 388.4,266.6 389.1,317.8 389.8,344.3 390.5,273.7 391.2,257.7 391.9,324.6 392.6,320.4 393.3,311.9 394.0,258.7 394.7,285.2 395.4,318.2 396.1,249.8 396.8,281.2 397.5,292.8 398.2,300.7 398.9,290.9 399.6,326.5 400.3,282.3 401.0,270.0 401.7,354.4 402.4,255.9 403.1,322.0 403.8,253.7 404.5,304.2 405.2,285.3 405.9,260.6 406.6,292.5 407.3,332.9 408.0,231.8 408.7,178.2 409.4,306.0 410.1,230.6 410.8,392.1 411.5,355.9 412.2,318.9 412.9,289.7 413.6,315.4 414.3,232.5 415.1,327.2 415.8,255.5 416.5,279.2 417.2,315.9 417.9,355.2 418.6,274.9 419.3,256.7 420.0,200.8 420.7,264.8 421.4,230.8 422.1,312.9 422.8,337.9 423.5,263.2 424.2,341.5 424.9,369.2 425.6,316.9 426.3,339.3 427.0,293.7 427.7,277.1 428.4,227.5 429.1,302.5 429.8,336.5 430.5,211.7 431.2,303.4 431.9,332.6 432.6,327.6 433.3,279.4 434.0,288.5 434.7,302.4 435.4,266.2 436.1,333.2 436.8,310.8 437.5,227.4 438.2,253.2 438.9,283.7 439.6,283.7 440.3,364.4 441.0,270.6 441.7,343.9 442.4,296.4 443.1,286.8 443.8,340.9 444.5,341.8 445.2,370.5 445.9,332.9 446.6,288.3 447.3,381.7 448.0,342.9 448.7,273.9 449.4,307.9 450.1,309.1 450.8,323.0 451.5,257.4 452.2,192.3 452.9,241.6 453.6,258.9 454.3,261.5 455.0,349.2 455.7,297.0 456.4,304.2 457.1,358.3 457.8,310.9 458.5,321.3 459.2,306.3 459.9,266.7 460.6,234.8 461.3,358.3 462.0,246.8 462.7,288.1 463.4,281.4 464.1,318.5 464.8,332.3 465.5,306.4 466.2,261.4 466.9,336.8 467.6,314.7 468.3,324.8 469.0,237.5 469.7,307.2 470.4,340.5 471.1,236.7 471.8,317.2 472.5,323.3 473.2,369.0 473.9,243.8 474.6,279.3 475.4,304.5 476.1,349.1 476.8,366.3 477.5,319.8 478.2,281.5 478.9,370.9 479.6,334.3 480.3,336.9 481.0,240.7 481.7,281.1 482.4,287.5 483.1,280.7 483.8,348.3 484.5,295.3 485.2,275.5 485.9,256.9 486.6,309.0 487.3,193.0 488.0,377.4 488.7,332.9 489.4,346.5 490.1,251.2 490.8,302.9 491.5,316.6 492.2,326.1 492.9,293.9 493.6,287.9 494.3,270.0 495.0,326.0 495.7,308.3 496.4,283.5 497.1,286.2 497.8,323.3 498.5,268.9 499.2,328.6 499.9,276.3 500.6,262.8 501.3,359.5 502.0,330.0 502.7,314.6 503.4,277.1 504.1,277.9 504.8,380.6 505.5,319.7 506.2,287.0 506.9,265.1 507.6,289.5 508.3,301.8 509.0,270.0 509.7,372.0 510.4,319.1 511.1,232.5 511.8,303.1 512.5,319.1 513.2,286.5 513.9,306.7 514.6,305.6 515.3,353.6 516.0,321.1 516.7,364.3 517.4,298.9 518.1,300.8 518.8,368.4 519.5,263.1 520.2,310.4 520.9,327.6 521.6,317.4 522.3,274.0 523.0,265.3 523.7,344.2 524.4,345.3 525.1,272.5 525.8,325.4 526.5,304.3 527.2,241.5 527.9,341.1 528.6,243.0 529.3,370.9 530.0,367.1 530.7,279.7 531.4,292.8 532.1,287.5 532.8,312.8 533.5,285.4 534.2,249.0 534.9,301.7 535.7,318.8 536.4,335.5 537.1,291.8 537.8,316.0 538.5,344.6 539.2,350.7 539.9,292.1 540.6,331.6 541.3,349.3 542.0,305.4 542.7,276.4 543.4,319.3 544.1,294.2 544.8,288.0 545.5,320.4 546.2,334.9 546.9,328.0 547.6,278.5 548.3,333.8 549.0,323.0 549.7,277.1 550.4,275.5 551.1,288.0 551.8,285.3 552.5,285.1 553.2,303.5 553.9,284.8 554.6,316.5 555.3,272.6 556.0,310.3 556.7,373.7 557.4,272.0 558.1,303.3 558.8,348.1 559.5,346.7 560.2,356.1 560.9,356.0 561.6,278.0 562.3,277.6 563.0,397.2 563.7,255.9 564.4,340.0 565.1,247.0 565.8,352.4 566.5,273.5 567.2,322.0 567.9,299.9 568.6,286.3 569.3,275.9 570.0,300.0 570.7,340.8 571.4,322.6 572.1,293.8 572.8,310.6 573.5,293.3 574.2,294.1 574.9,272.4 575.6,374.8 576.3,275.6 577.0,332.6 577.7,370.3 578.4,323.8 579.1,325.8 579.8,305.9 580.5,293.4 581.2,260.2 581.9,352.4 582.6,275.6 583.3,279.7 584.0,337.0 584.7,265.6 585.4,354.5 586.1,350.1 586.8,308.5 587.5,293.5 588.2,305.5 588.9,341.8 589.6,223.9 590.3,316.1 591.0,289.2 591.7,328.2 592.4,329.9 593.1,370.9 593.8,328.6 594.5,344.0 595.2,263.9 596.0,311.0 596.7,273.7 597.4,283.4 598.1,324.9 598.8,192.4 599.5,362.6 600.2,335.0 600.9,352.8 601.6,266.2 602.3,203.5 603.0,342.5 603.7,327.5 604.4,277.7 605.1,317.7 605.8,320.8 606.5,312.6 607.2,346.5 607.9,353.6 608.6,321.2 609.3,348.5 610.0,332.9 610.7,227.6 611.4,371.5 612.1,360.2 612.8,286.3 613.5,251.8 614.2,279.3 614.9,282.8 615.6,366.4 616.3,422.3 617.0,356.9 617.7,300.9 618.4,324.0 619.1,262.2 619.8,384.3 620.5,306.3 621.2,240.5 621.9,318.6 622.6,303.9 623.3,262.4 624.0,308.2 624.7,296.8 625.4,335.5 626.1,257.6 626.8,334.1 627.5,321.8 628.2,295.4 628.9,277.9 629.6,277.1 630.3,268.6 631.0,282.8 631.7,339.2 632.4,343.9 633.1,306.8 633.8,328.6 634.5,216.7 635.2,276.6 635.9,280.5 636.6,331.8 637.3,290.6 638.0,292.4 638.7,308.2 639.4,347.6 640.1,272.0 640.8,308.4 641.5,226.7 642.2,312.2 642.9,295.9 643.6,323.1 644.3,300.3 645.0,300.5 645.7,280.0 646.4,198.8 647.1,284.2 647.8,258.2 648.5,324.9 649.2,332.7 649.9,301.9 650.6,332.5 651.3,288.8 652.0,315.7 652.7,294.4 653.4,319.3 654.1,301.9 654.8,284.5 655.5,322.8 656.2,320.5 657.0,218.6 657.7,356.6 658.4,291.7 659.1,301.0 659.8,297.1 660.5,279.5 661.2,273.9 661.9,290.5 662.6,333.5 663.3,258.1 664.0,288.4 664.7,304.3 665.4,271.2 666.1,338.2 666.8,351.5 667.5,293.1 668.2,356.1 668.9,312.4 669.6,300.0 670.3,305.7 671.0,239.6 671.7,348.5 672.4,279.8 673.1,315.2 673.8,300.5 674.5,312.5 675.2,362.7 675.9,270.7 676.6,346.5 677.3,261.6 678.0,267.6 678.7,289.8 679.4,318.7 680.1,385.5 680.8,344.4 681.5,352.9 682.2,309.4 682.9,278.0 683.6,254.3 684.3,361.5 685.0,340.8 685.7,347.9 686.4,324.3 687.1,352.5 687.8,346.6 688.5,261.9 689.2,321.8 689.9,206.0 690.6,332.0 691.3,263.4 692.0,348.1 692.7,270.1 693.4,273.5 694.1,332.3 694.8,316.8 695.5,280.7 696.2,284.6 696.9,293.2 697.6,320.8 698.3,273.1 699.0,327.7 699.7,308.9 700.4,353.3 701.1,352.5 701.8,354.7 702.5,306.3 703.2,389.3 703.9,256.5 704.6,289.8 705.3,384.9 706.0,391.6 706.7,234.7 707.4,327.2 708.1,335.8 708.8,272.2 709.5,243.6 710.2,306.2 710.9,245.5 711.6,332.4 712.3,315.6 713.0,345.2 713.7,231.2 714.4,286.8 715.1,323.5 715.8,334.2 716.5,332.2 717.3,371.6 718.0,329.7 718.7,343.3 719.4,358.6 720.1,268.2 720.8,332.0 721.5,349.8 722.2,314.6 722.9,217.5 723.6,338.7 724.3,326.9 725.0,334.3 725.7,323.7 726.4,285.7 727.1,292.5 727.8,252.9 728.5,261.0 729.2,320.3 729.9,328.0 730.6,328.2 731.3,388.2 732.0,308.5 732.7,373.4 733.4,219.6 734.1,347.2 734.8,348.1 735.5,352.4 736.2,323.1 736.9,351.7 737.6,287.4 738.3,321.3 739.0,339.2 739.7,225.5 740.4,384.4 741.1,278.6 741.8,304.1 742.5,352.6 743.2,326.5 743.9,281.9 744.6,285.1 745.3,290.7 746.0,323.7 746.7,262.8 747.4,341.9 748.1,373.6 748.8,279.7 749.5,279.4 750.2,383.0 750.9,350.0 751.6,349.8 752.3,300.7 753.0,308.0 753.7,310.5 754.4,303.1 755.1,244.6 755.8,353.7 756.5,347.1 757.2,376.8 757.9,367.8 758.6,318.4 759.3,328.4 760.0,348.1 760.7,292.6 761.4,291.0 762.1,276.1 762.8,398.9 763.5,370.3 764.2,350.5 764.9,216.0 765.6,347.5 766.3,245.1 767.0,313.3 767.7,245.4 768.4,265.5 769.1,299.2 769.8,305.2 770.5,344.4 771.2,335.1 771.9,309.0 772.6,294.4 773.3,316.3 774.0,302.1 774.7,323.5 775.4,321.7 776.1,251.5 776.8,283.8 777.6,359.9 778.3,282.8 779.0,290.8 779.7,309.0 780.4,241.7 781.1,255.0 781.8,280.1 782.5,391.5 783.2,332.8 783.9,342.1 784.6,295.9 785.3,307.0 786.0,348.1 786.7,271.7 787.4,288.9 788.1,340.4 788.8,279.3 789.5,333.2 790.2,324.3 790.9,328.1 791.6,288.3 792.3,298.9 793.0,307.4 793.7,268.3 794.4,299.8 795.1,321.6 795.8,325.8 796.5,269.3 797.2,292.0 797.9,310.1 798.6,288.2 799.3,291.4 800.0,301.0 800.7,352.4 801.4,368.6 802.1,327.7 802.8,367.5 803.5,338.0 804.2,320.5 804.9,372.9 805.6,327.1 806.3,276.8 807.0,334.5 807.7,306.4 808.4,212.9 809.1,297.6 809.8,296.0 810.5,310.3 811.2,327.2 811.9,285.8 812.6,317.8 813.3,284.0 814.0,325.6 814.7,283.5 815.4,337.5 816.1,300.7 816.8,330.3 817.5,323.2 818.2,342.7 818.9,363.0 819.6,353.2 820.3,314.2 821.0,338.0 821.7,280.7 822.4,380.8 823.1,383.7 823.8,331.3 824.5,293.1 825.2,364.5 825.9,265.7 826.6,352.8 827.3,311.2 828.0,264.5 828.7,264.8 829.4,338.6 830.1,289.0 830.8,305.2 831.5,335.7 832.2,301.2 832.9,303.8 833.6,281.2 834.3,323.7 835.0,315.6 835.7,265.5 836.4,305.4 837.1,226.7 837.9,294.2 838.6,274.7 839.3,317.8 840.0,293.5 840.7,325.1 841.4,290.4 842.1,247.0 842.8,241.0 843.5,328.8 844.2,277.1 844.9,279.7 845.6,236.0 846.3,352.2 847.0,354.5 847.7,277.2 848.4,273.3 849.1,312.3 849.8,301.6 850.5,286.0 851.2,323.2 851.9,279.7 852.6,373.2 853.3,325.0 854.0,357.9 854.7,308.0 855.4,297.0 856.1,363.3 856.8,335.1 857.5,261.7 858.2,309.5 858.9,246.6 859.6,293.5 860.3,397.8 861.0,308.0 861.7,330.4 862.4,329.3 863.1,279.1 863.8,307.9 864.5,293.8 865.2,306.0 865.9,282.5 866.6,345.1 867.3,303.3 868.0,366.9" fill="none" stroke="#d62728" stroke-width="2.4" stroke-linejoin="round" stroke-linecap="round"/>
<line x1="100" y1="66" x2="124" y2="66" stroke="#d62728" stroke-width="2.4"/>
<text x="132" y="70" font-family="Arial, sans-serif" font-size="13">train loss</text>
</svg>
