<svg xmlns="http://www.w3.org/2000/svg" width="900" height="520" viewBox="0 0 900 520">
<rect width="100%" height="100%" fill="white"/>
<text x="450.0" y="26" text-anchor="middle" font-family="Arial, sans-serif" font-size="20" font-weight="700">SFT Training Loss</text>
<line x1="82" y1="450" x2="868" y2="450" stroke="#222" stroke-width="1.2"/>
<line x1="82" y1="48" x2="82" y2="450" stroke="#222" stroke-width="1.2"/>
<line x1="82.0" y1="48" x2="82.0" y2="450" stroke="#eee" stroke-width="1"/>
<text x="82.0" y="478" text-anchor="middle" font-family="Arial, sans-serif" font-size="12">1</text>
<line x1="278.5" y1="48" x2="278.5" y2="450" stroke="#eee" stroke-width="1"/>
<text x="278.5" y="478" text-anchor="middle" font-family="Arial, sans-serif" font-size="12">1682</text>
<line x1="475.0" y1="48" x2="475.0" y2="450" stroke="#eee" stroke-width="1"/>
<text x="475.0" y="478" text-anchor="middle" font-family="Arial, sans-serif" font-size="12">3364</text>
<line x1="671.5" y1="48" x2="671.5" y2="450" stroke="#eee" stroke-width="1"/>
<text x="671.5" y="478" text-anchor="middle" font-family="Arial, sans-serif" font-size="12">5046</text>
<line x1="868.0" y1="48" x2="868.0" y2="450" stroke="#eee" stroke-width="1"/>
<text x="868.0" y="478" text-anchor="middle" font-family="Arial, sans-serif" font-size="12">6727</text>
<line x1="82" y1="450.0" x2="868" y2="450.0" stroke="#eee" stroke-width="1"/>
<text x="72" y="454.0" text-anchor="end" font-family="Arial, sans-serif" font-size="12">1.092</text>
<line x1="82" y1="349.5" x2="868" y2="349.5" stroke="#eee" stroke-width="1"/>
<text x="72" y="353.5" text-anchor="end" font-family="Arial, sans-serif" font-size="12">1.316</text>
<line x1="82" y1="249.0" x2="868" y2="249.0" stroke="#eee" stroke-width="1"/>
<text x="72" y="253.0" text-anchor="end" font-family="Arial, sans-serif" font-size="12">1.540</text>
<line x1="82" y1="148.5" x2="868" y2="148.5" stroke="#eee" stroke-width="1"/>
<text x="72" y="152.5" text-anchor="end" font-family="Arial, sans-serif" font-size="12">1.764</text>
<line x1="82" y1="48.0" x2="868" y2="48.0" stroke="#eee" stroke-width="1"/>
<text x="72" y="52.0" text-anchor="end" font-family="Arial, sans-serif" font-size="12">1.988</text>
<text x="475.0" y="500" text-anchor="middle" font-family="Arial, sans-serif" font-size="14">Optimizer step</text>
<text transform="translate(22,249.0) rotate(-90)" text-anchor="middle" font-family="Arial, sans-serif" font-size="14">Training loss</text>
<polyline points="82.0,145.4 82.7,75.7 83.4,163.9 84.1,154.2 84.8,260.8 85.5,235.1 86.2,229.4 86.9,193.4 87.6,219.1 88.3,238.3 89.0,225.3 89.7,236.2 90.4,251.7 91.1,277.7 91.8,172.6 92.5,177.2 93.2,251.3 93.9,283.0 94.6,230.3 95.3,212.5 96.0,250.1 96.7,273.5 97.4,245.5 98.1,263.4 98.8,231.5 99.5,243.7 100.2,268.7 100.9,310.5 101.6,315.8 102.3,262.1 103.0,264.9 103.7,325.2 104.4,241.7 105.1,318.8 105.8,277.5 106.5,299.1 107.2,273.0 107.9,224.4 108.6,343.2 109.3,249.3 110.0,321.2 110.7,238.4 111.4,236.3 112.1,261.3 112.9,299.7 113.6,291.3 114.3,245.1 115.0,345.4 115.7,223.2 116.4,275.4 117.1,245.5 117.8,272.8 118.5,260.0 119.2,273.8 119.9,202.8 120.6,327.1 121.3,339.3 122.0,282.0 122.7,266.2 123.4,324.0 124.1,284.2 124.8,241.8 125.5,334.3 126.2,277.1 126.9,253.4 127.6,265.9 128.3,296.8 129.0,254.1 129.7,319.7 130.4,223.9 131.1,316.2 131.8,355.6 132.5,256.5 133.2,313.2 133.9,176.6 134.6,220.4 135.3,252.7 136.0,243.2 136.7,309.7 137.4,279.6 138.1,298.3 138.8,305.6 139.5,261.2 140.2,185.0 140.9,314.1 141.6,194.9 142.3,301.7 143.0,244.2 143.7,308.3 144.4,331.9 145.1,262.1 145.8,276.5 146.5,241.4 147.2,355.5 147.9,241.4 148.6,262.6 149.3,263.1 150.0,334.4 150.7,257.4 151.4,266.3 152.1,328.9 152.8,259.3 153.5,300.6 154.2,289.4 154.9,277.7 155.6,296.1 156.3,264.4 157.0,290.2 157.7,322.4 158.4,365.1 159.1,279.4 159.8,272.9 160.5,305.1 161.2,354.3 161.9,264.6 162.6,235.7 163.3,248.2 164.0,341.2 164.7,361.0 165.4,273.0 166.1,259.0 166.8,291.1 167.5,291.3 168.2,319.3 168.9,284.6 169.6,230.3 170.3,266.6 171.0,305.0 171.7,273.4 172.4,300.1 173.2,195.6 173.9,318.4 174.6,304.9 175.3,276.1 176.0,267.0 176.7,294.6 177.4,312.1 178.1,272.0 178.8,315.2 179.5,298.7 180.2,234.6 180.9,182.6 181.6,257.3 182.3,323.9 183.0,322.5 183.7,279.6 184.4,311.2 185.1,284.7 185.8,286.8 186.5,249.1 187.2,291.0 187.9,307.3 188.6,282.0 189.3,326.4 190.0,303.0 190.7,211.8 191.4,234.0 192.1,233.8 192.8,296.5 193.5,296.2 194.2,192.3 194.9,314.2 195.6,261.8 196.3,272.3 197.0,329.1 197.7,236.0 198.4,313.0 199.1,287.8 199.8,307.7 200.5,334.8 201.2,283.4 201.9,259.1 202.6,384.4 203.3,374.9 204.0,301.6 204.7,287.4 205.4,278.7 206.1,330.2 206.8,277.3 207.5,305.4 208.2,328.4 208.9,311.6 209.6,234.0 210.3,276.6 211.0,287.5 211.7,316.0 212.4,306.6 213.1,277.0 213.8,279.4 214.5,293.7 215.2,327.3 215.9,242.7 216.6,284.4 217.3,222.6 218.0,318.8 218.7,270.5 219.4,302.5 220.1,261.7 220.8,300.1 221.5,365.8 222.2,285.3 222.9,322.3 223.6,290.3 224.3,265.5 225.0,316.1 225.7,341.4 226.4,267.2 227.1,223.8 227.8,346.8 228.5,325.0 229.2,328.9 229.9,341.2 230.6,310.2 231.3,304.3 232.0,301.3 232.7,335.7 233.5,265.7 234.2,283.0 234.9,263.0 235.6,283.8 236.3,287.2 237.0,279.6 237.7,210.8 238.4,202.4 239.1,338.4 239.8,346.0 240.5,308.3 241.2,298.7 241.9,242.9 242.6,318.4 243.3,323.0 244.0,244.5 244.7,334.1 245.4,338.9 246.1,306.9 246.8,293.2 247.5,274.2 248.2,265.7 248.9,350.2 249.6,336.0 250.3,304.2 251.0,343.2 251.7,253.2 252.4,328.1 253.1,265.6 253.8,277.0 254.5,254.4 255.2,244.9 255.9,316.7 256.6,319.8 257.3,366.4 258.0,292.1 258.7,300.2 259.4,267.4 260.1,293.3 260.8,299.8 261.5,253.7 262.2,314.4 262.9,317.8 263.6,239.6 264.3,290.2 265.0,344.6 265.7,334.3 266.4,301.8 267.1,284.1 267.8,379.7 268.5,260.7 269.2,374.7 269.9,290.2 270.6,294.0 271.3,296.5 272.0,277.3 272.7,345.4 273.4,184.9 274.1,287.7 274.8,342.3 275.5,292.6 276.2,238.0 276.9,319.4 277.6,319.7 278.3,356.5 279.0,302.4 279.7,329.4 280.4,344.5 281.1,240.5 281.8,254.5 282.5,322.2 283.2,302.3 283.9,241.6 284.6,299.5 285.3,315.6 286.0,224.7 286.7,307.4 287.4,318.7 288.1,240.4 288.8,354.0 289.5,336.7 290.2,336.8 290.9,295.9 291.6,262.6 292.3,284.4 293.0,354.5 293.8,275.2 294.5,311.7 295.2,366.2 295.9,202.2 296.6,339.0 297.3,327.7 298.0,346.9 298.7,252.5 299.4,328.9 300.1,340.9 300.8,375.1 301.5,295.2 302.2,331.7 302.9,284.4 303.6,344.5 304.3,286.9 305.0,291.7 305.7,298.4 306.4,317.3 307.1,352.1 307.8,225.5 308.5,298.3 309.2,262.1 309.9,309.9 310.6,358.4 311.3,266.0 312.0,308.8 312.7,401.6 313.4,210.9 314.1,335.2 314.8,296.6 315.5,254.9 316.2,256.1 316.9,310.1 317.6,274.7 318.3,230.1 319.0,283.0 319.7,297.4 320.4,349.3 321.1,374.2 321.8,326.2 322.5,254.7 323.2,322.5 323.9,316.6 324.6,330.0 325.3,298.7 326.0,322.3 326.7,237.4 327.4,343.4 328.1,326.7 328.8,338.5 329.5,336.0 330.2,279.0 330.9,334.0 331.6,272.0 332.3,252.0 333.0,329.7 333.7,203.2 334.4,333.2 335.1,315.0 335.8,264.7 336.5,299.7 337.2,316.2 337.9,297.7 338.6,244.9 339.3,266.0 340.0,258.0 340.7,304.8 341.4,258.4 342.1,288.6 342.8,266.0 343.5,282.8 344.2,275.6 344.9,338.2 345.6,314.4 346.3,248.4 347.0,310.1 347.7,239.6 348.4,349.4 349.1,271.7 349.8,302.8 350.5,301.0 351.2,287.5 351.9,355.1 352.6,295.7 353.3,308.9 354.0,268.1 354.8,312.7 355.5,356.3 356.2,299.4 356.9,257.4 357.6,323.3 358.3,227.1 359.0,312.0 359.7,234.7 360.4,339.9 361.1,264.5 361.8,288.6 362.5,354.4 363.2,325.8 363.9,287.4 364.6,340.5 365.3,321.7 366.0,278.8 366.7,367.8 367.4,291.8 368.1,313.8 368.8,326.4 369.5,323.9 370.2,295.0 370.9,279.2 371.6,298.8 372.3,254.9 373.0,311.2 373.7,391.0 374.4,320.4 375.1,275.6 375.8,280.9 376.5,333.7 377.2,295.8 377.9,248.5 378.6,345.6 379.3,318.8 380.0,274.4 380.7,318.5 381.4,244.4 382.1,287.7 382.8,230.1 383.5,269.7 384.2,352.0 384.9,265.7 385.6,294.2 386.3,335.5 387.0,312.6 387.7,322.1 388.4,266.8 389.1,318.0 389.8,344.9 390.5,273.6 391.2,257.6 391.9,324.7 392.6,320.6 393.3,311.4 394.0,259.6 394.7,285.3 395.4,318.6 396.1,249.1 396.8,281.8 397.5,292.8 398.2,300.8 398.9,291.0 399.6,327.4 400.3,283.0 401.0,270.5 401.7,354.6 402.4,255.8 403.1,322.2 403.8,253.4 404.5,305.2 405.2,285.9 405.9,261.4 406.6,292.6 407.3,333.6 408.0,232.4 408.7,177.7 409.4,306.1 410.1,230.5 410.8,393.0 411.5,355.8 412.2,318.9 412.9,290.1 413.6,315.9 414.3,231.7 415.1,328.2 415.8,255.3 416.5,279.2 417.2,315.9 417.9,355.9 418.6,275.5 419.3,257.5 420.0,201.1 420.7,264.4 421.4,231.2 422.1,313.2 422.8,338.4 423.5,263.8 424.2,342.0 424.9,369.4 425.6,317.1 426.3,339.5 427.0,293.7 427.7,277.7 428.4,227.7 429.1,302.7 429.8,337.0 430.5,210.9 431.2,303.4 431.9,332.7 432.6,327.1 433.3,280.1 434.0,288.6 434.7,302.7 435.4,267.1 436.1,332.9 436.8,310.8 437.5,227.8 438.2,253.7 438.9,283.4 439.6,283.8 440.3,364.6 441.0,270.2 441.7,344.3 442.4,296.6 443.1,286.9 443.8,341.0 444.5,342.1 445.2,370.5 445.9,333.6 446.6,288.2 447.3,382.4 448.0,343.4 448.7,274.5 449.4,308.1 450.1,309.1 450.8,322.8 451.5,257.7 452.2,192.1 452.9,241.7 453.6,258.7 454.3,261.8 455.0,349.4 455.7,298.2 456.4,305.0 457.1,359.5 457.8,310.9 458.5,321.4 459.2,306.9 459.9,267.5 460.6,234.5 461.3,358.0 462.0,247.1 462.7,288.1 463.4,281.9 464.1,318.9 464.8,332.1 465.5,306.5 466.2,261.4 466.9,337.3 467.6,314.9 468.3,324.5 469.0,237.2 469.7,308.0 470.4,340.7 471.1,237.0 471.8,317.1 472.5,323.1 473.2,369.3 473.9,243.8 474.6,278.4 475.4,304.5 476.1,349.4 476.8,366.9 477.5,320.0 478.2,282.0 478.9,372.0 479.6,334.4 480.3,337.3 481.0,241.3 481.7,281.3 482.4,287.8 483.1,281.1 483.8,348.3 484.5,295.8 485.2,275.6 485.9,256.7 486.6,308.4 487.3,193.5 488.0,377.9 488.7,333.3 489.4,347.3 490.1,250.9 490.8,302.9 491.5,316.6 492.2,326.6 492.9,293.8 493.6,288.3 494.3,269.8 495.0,326.5 495.7,308.5 496.4,283.9 497.1,286.6 497.8,323.7 498.5,269.1 499.2,328.8 499.9,276.0 500.6,262.9 501.3,359.3 502.0,330.0 502.7,314.9 503.4,277.2 504.1,277.8 504.8,380.9 505.5,321.9 506.2,287.0 506.9,265.7 507.6,289.7 508.3,302.2 509.0,270.2 509.7,372.6 510.4,319.6 511.1,232.4 511.8,303.6 512.5,319.5 513.2,287.0 513.9,306.9 514.6,305.6 515.3,353.9 516.0,322.0 516.7,364.0 517.4,299.2 518.1,301.0 518.8,368.8 519.5,262.6 520.2,311.2 520.9,327.6 521.6,318.1 522.3,274.7 523.0,266.2 523.7,344.5 524.4,345.3 525.1,272.5 525.8,325.7 526.5,305.6 527.2,241.3 527.9,340.9 528.6,242.6 529.3,371.5 530.0,367.3 530.7,279.7 531.4,293.2 532.1,287.2 532.8,312.8 533.5,286.1 534.2,248.2 534.9,302.3 535.7,318.7 536.4,335.8 537.1,291.4 537.8,315.5 538.5,345.2 539.2,351.0 539.9,292.5 540.6,332.4 541.3,349.6 542.0,306.1 542.7,276.1 543.4,319.0 544.1,294.8 544.8,288.5 545.5,320.3 546.2,334.7 546.9,328.4 547.6,278.6 548.3,335.1 549.0,323.6 549.7,277.2 550.4,275.1 551.1,287.9 551.8,286.1 552.5,285.3 553.2,303.5 553.9,286.2 554.6,316.6 555.3,273.2 556.0,311.2 556.7,374.2 557.4,272.6 558.1,303.4 558.8,348.3 559.5,346.9 560.2,356.4 560.9,356.4 561.6,277.8 562.3,278.0 563.0,397.8 563.7,255.8 564.4,341.0 565.1,246.9 565.8,352.8 566.5,274.3 567.2,322.5 567.9,300.1 568.6,285.4 569.3,276.4 570.0,300.7 570.7,341.1 571.4,323.0 572.1,294.0 572.8,310.9 573.5,293.6 574.2,293.7 574.9,272.8 575.6,375.3 576.3,275.4 577.0,333.2 577.7,370.2 578.4,324.3 579.1,325.9 579.8,305.9 580.5,293.2 581.2,260.7 581.9,352.8 582.6,276.5 583.3,280.0 584.0,337.5 584.7,266.6 585.4,354.9 586.1,350.8 586.8,308.6 587.5,293.9 588.2,305.4 588.9,343.0 589.6,223.6 590.3,315.9 591.0,289.2 591.7,328.4 592.4,330.1 593.1,370.9 593.8,328.8 594.5,344.4 595.2,264.1 596.0,311.8 596.7,273.9 597.4,283.8 598.1,325.0 598.8,192.1 599.5,362.7 600.2,335.3 600.9,352.8 601.6,266.7 602.3,203.8 603.0,343.1 603.7,328.1 604.4,277.4 605.1,318.0 605.8,320.6 606.5,313.0 607.2,347.3 607.9,353.8 608.6,322.0 609.3,348.5 610.0,333.5 610.7,227.2 611.4,372.2 612.1,360.4 612.8,286.6 613.5,251.7 614.2,279.7 614.9,282.9 615.6,366.1 616.3,422.3 617.0,356.8 617.7,300.7 618.4,324.1 619.1,262.1 619.8,384.8 620.5,305.8 621.2,240.5 621.9,318.6 622.6,304.0 623.3,261.7 624.0,309.0 624.7,297.4 625.4,336.0 626.1,257.7 626.8,334.4 627.5,322.2 628.2,295.5 628.9,278.2 629.6,277.8 630.3,269.6 631.0,283.3 631.7,339.7 632.4,344.4 633.1,306.8 633.8,328.9 634.5,216.5 635.2,276.6 635.9,280.5 636.6,332.3 637.3,290.7 638.0,292.9 638.7,308.2 639.4,347.7 640.1,271.8 640.8,309.1 641.5,226.9 642.2,312.7 642.9,296.0 643.6,322.8 644.3,298.0 645.0,301.0 645.7,280.3 646.4,198.8 647.1,283.6 647.8,258.1 648.5,325.9 649.2,332.6 649.9,301.2 650.6,333.0 651.3,289.2 652.0,315.9 652.7,294.6 653.4,319.6 654.1,301.9 654.8,284.4 655.5,323.2 656.2,320.2 657.0,218.4 657.7,356.8 658.4,292.6 659.1,300.7 659.8,297.2 660.5,279.6 661.2,274.6 661.9,291.0 662.6,333.7 663.3,258.3 664.0,288.5 664.7,304.4 665.4,271.4 666.1,338.8 666.8,351.8 667.5,293.5 668.2,356.2 668.9,313.2 669.6,300.2 670.3,306.2 671.0,239.7 671.7,348.4 672.4,280.0 673.1,315.4 673.8,301.1 674.5,313.0 675.2,362.9 675.9,270.6 676.6,347.8 677.3,262.2 678.0,267.6 678.7,289.4 679.4,317.9 680.1,386.1 680.8,344.6 681.5,352.6 682.2,309.4 682.9,278.6 683.6,254.5 684.3,361.8 685.0,341.0 685.7,348.0 686.4,324.8 687.1,352.6 687.8,347.0 688.5,261.5 689.2,322.3 689.9,206.1 690.6,332.9 691.3,263.6 692.0,348.5 692.7,270.6 693.4,273.5 694.1,332.4 694.8,317.5 695.5,281.4 696.2,285.1 696.9,293.7 697.6,321.4 698.3,273.5 699.0,328.0 699.7,308.7 700.4,353.5 701.1,352.9 701.8,355.5 702.5,306.6 703.2,390.2 703.9,256.7 704.6,290.1 705.3,384.8 706.0,391.9 706.7,234.5 707.4,327.1 708.1,335.8 708.8,272.8 709.5,244.2 710.2,306.5 710.9,245.8 711.6,332.6 712.3,315.7 713.0,345.4 713.7,231.3 714.4,287.1 715.1,324.1 715.8,334.4 716.5,332.9 717.3,371.3 718.0,330.2 718.7,343.8 719.4,358.8 720.1,267.8 720.8,332.1 721.5,350.0 722.2,314.9 722.9,217.4 723.6,339.2 724.3,326.9 725.0,334.4 725.7,323.6 726.4,285.5 727.1,292.8 727.8,252.8 728.5,261.1 729.2,320.8 729.9,328.3 730.6,328.2 731.3,388.8 732.0,308.5 732.7,373.5 733.4,220.0 734.1,347.2 734.8,348.4 735.5,352.5 736.2,323.3 736.9,351.9 737.6,288.4 738.3,321.5 739.0,339.6 739.7,224.5 740.4,384.6 741.1,279.1 741.8,304.9 742.5,352.8 743.2,327.0 743.9,282.3 744.6,285.6 745.3,291.4 746.0,323.7 746.7,263.1 747.4,342.1 748.1,373.0 748.8,279.4 749.5,280.0 750.2,383.1 750.9,350.5 751.6,350.6 752.3,300.9 753.0,308.3 753.7,310.8 754.4,303.5 755.1,244.9 755.8,353.9 756.5,347.6 757.2,377.6 757.9,367.8 758.6,318.7 759.3,328.4 760.0,348.1 760.7,292.8 761.4,291.4 762.1,276.4 762.8,399.0 763.5,370.1 764.2,350.9 764.9,216.1 765.6,347.7 766.3,245.3 767.0,313.4 767.7,245.6 768.4,265.6 769.1,299.1 769.8,305.1 770.5,344.8 771.2,335.6 771.9,309.0 772.6,294.8 773.3,316.6 774.0,302.8 774.7,323.7 775.4,322.1 776.1,251.7 776.8,284.2 777.6,360.2 778.3,282.6 779.0,290.9 779.7,309.1 780.4,241.8 781.1,255.6 781.8,280.0 782.5,392.2 783.2,333.0 783.9,342.5 784.6,295.8 785.3,307.6 786.0,348.0 786.7,272.0 787.4,289.1 788.1,340.5 788.8,279.4 789.5,334.1 790.2,324.6 790.9,328.0 791.6,288.8 792.3,299.3 793.0,307.0 793.7,268.1 794.4,300.0 795.1,322.2 795.8,325.9 796.5,269.5 797.2,292.2 797.9,312.6 798.6,289.1 799.3,291.2 800.0,301.2 800.7,352.5 801.4,369.0 802.1,328.4 802.8,368.2 803.5,338.2 804.2,320.8 804.9,373.3 805.6,327.7 806.3,277.1 807.0,334.7 807.7,306.6 808.4,213.2 809.1,297.7 809.8,296.0 810.5,310.5 811.2,327.3 811.9,285.7 812.6,317.7 813.3,283.7 814.0,325.9 814.7,284.2 815.4,337.7 816.1,300.5 816.8,330.8 817.5,323.3 818.2,343.0 818.9,363.5 819.6,354.9 820.3,314.8 821.0,338.7 821.7,280.9 822.4,381.2 823.1,384.2 823.8,331.6 824.5,293.5 825.2,365.3 825.9,266.2 826.6,353.2 827.3,311.7 828.0,265.0 828.7,265.0 829.4,339.2 830.1,288.6 830.8,305.1 831.5,335.7 832.2,301.5 832.9,304.1 833.6,281.7 834.3,324.0 835.0,315.9 835.7,265.8 836.4,305.4 837.1,227.2 837.9,294.2 838.6,274.8 839.3,318.9 840.0,294.0 840.7,325.4 841.4,290.5 842.1,247.2 842.8,241.4 843.5,328.9 844.2,277.4 844.9,280.4 845.6,237.2 846.3,352.3 847.0,354.6 847.7,276.6 848.4,273.6 849.1,312.5 849.8,301.6 850.5,286.8 851.2,323.1 851.9,279.8 852.6,373.7 853.3,325.1 854.0,358.0 854.7,308.4 855.4,297.4 856.1,363.6 856.8,335.6 857.5,261.3 858.2,309.6 858.9,246.4 859.6,293.6 860.3,397.6 861.0,308.5 861.7,331.0 862.4,329.6 863.1,279.6 863.8,308.0 864.5,293.7 865.2,305.9 865.9,281.9 866.6,345.4 867.3,303.2 868.0,367.7" fill="none" stroke="#d62728" stroke-width="2.4" stroke-linejoin="round" stroke-linecap="round"/>
<line x1="100" y1="66" x2="124" y2="66" stroke="#d62728" stroke-width="2.4"/>
<text x="132" y="70" font-family="Arial, sans-serif" font-size="13">train loss</text>
</svg>
