<svg xmlns="http://www.w3.org/2000/svg" width="1100" height="660" viewBox="0 0 1100 660">
<rect width="100%" height="100%" fill="white"/>
<text x="550.0" y="36" text-anchor="middle" font-family="Arial" font-size="22" font-weight="700">On-policy vs off-policy focused comparison: rollout response length</text>
<line x1="95" y1="578" x2="800" y2="578" stroke="#222" stroke-width="1.5"/>
<line x1="95" y1="74" x2="95" y2="578" stroke="#222" stroke-width="1.5"/>
<line x1="90" y1="578.0" x2="800" y2="578.0" stroke="#ddd" stroke-width="1"/>
<text x="83" y="582.0" text-anchor="end" font-family="Arial" font-size="12">0.00</text>
<line x1="90" y1="477.2" x2="800" y2="477.2" stroke="#ddd" stroke-width="1"/>
<text x="83" y="481.2" text-anchor="end" font-family="Arial" font-size="12">204.80</text>
<line x1="90" y1="376.4" x2="800" y2="376.4" stroke="#ddd" stroke-width="1"/>
<text x="83" y="380.4" text-anchor="end" font-family="Arial" font-size="12">409.60</text>
<line x1="90" y1="275.6" x2="800" y2="275.6" stroke="#ddd" stroke-width="1"/>
<text x="83" y="279.6" text-anchor="end" font-family="Arial" font-size="12">614.40</text>
<line x1="90" y1="174.8" x2="800" y2="174.8" stroke="#ddd" stroke-width="1"/>
<text x="83" y="178.8" text-anchor="end" font-family="Arial" font-size="12">819.20</text>
<line x1="90" y1="74.0" x2="800" y2="74.0" stroke="#ddd" stroke-width="1"/>
<text x="83" y="78.0" text-anchor="end" font-family="Arial" font-size="12">1024.00</text>
<line x1="95.0" y1="578" x2="95.0" y2="583" stroke="#222" stroke-width="1"/>
<text x="95.0" y="602" text-anchor="middle" font-family="Arial" font-size="12">1</text>
<line x1="236.0" y1="578" x2="236.0" y2="583" stroke="#222" stroke-width="1"/>
<text x="236.0" y="602" text-anchor="middle" font-family="Arial" font-size="12">41</text>
<line x1="377.0" y1="578" x2="377.0" y2="583" stroke="#222" stroke-width="1"/>
<text x="377.0" y="602" text-anchor="middle" font-family="Arial" font-size="12">81</text>
<line x1="518.0" y1="578" x2="518.0" y2="583" stroke="#222" stroke-width="1"/>
<text x="518.0" y="602" text-anchor="middle" font-family="Arial" font-size="12">120</text>
<line x1="659.0" y1="578" x2="659.0" y2="583" stroke="#222" stroke-width="1"/>
<text x="659.0" y="602" text-anchor="middle" font-family="Arial" font-size="12">160</text>
<line x1="800.0" y1="578" x2="800.0" y2="583" stroke="#222" stroke-width="1"/>
<text x="800.0" y="602" text-anchor="middle" font-family="Arial" font-size="12">200</text>
<polyline fill="none" stroke="#1f77b4" stroke-width="2.3" points="95.0,427.8 98.5,502.0 102.1,510.8 105.6,483.0 109.2,471.2 112.7,437.7 116.3,460.0 119.8,452.1 123.3,460.9 126.9,453.1 130.4,451.2 134.0,483.9 137.5,464.9 141.1,448.6 144.6,433.3 148.1,441.4 151.7,438.4 155.2,426.2 158.8,440.0 162.3,444.0 165.9,442.9 169.4,437.2 172.9,441.0 176.5,439.0 180.0,462.4 183.6,448.8 187.1,460.2 190.7,452.0 194.2,438.6 197.7,439.2 201.3,449.4 204.8,448.4 208.4,451.8 211.9,430.9 215.5,419.4 219.0,427.6 222.5,427.9 226.1,427.9 229.6,453.7 233.2,418.5 236.7,439.3 240.3,421.4 243.8,438.4 247.3,439.0 250.9,409.1 254.4,426.2 258.0,458.1 261.5,396.4 265.1,423.7 268.6,440.2 272.1,419.4 275.7,430.7 279.2,421.3 282.8,445.7 286.3,425.9 289.8,416.8 293.4,448.6 296.9,422.6 300.5,435.1 304.0,420.5 307.6,444.8 311.1,437.6 314.6,462.3 318.2,421.0 321.7,439.2 325.3,439.4 328.8,408.5 332.4,427.5 335.9,436.3 339.4,426.9 343.0,389.6 346.5,432.2 350.1,421.2 353.6,415.9 357.2,416.0 360.7,421.3 364.2,390.7 367.8,432.1 371.3,432.1 374.9,444.1 378.4,438.3 382.0,450.9 385.5,429.3 389.0,399.8 392.6,421.6 396.1,445.1 399.7,447.9 403.2,429.6 406.8,449.7 410.3,455.2 413.8,410.4 417.4,400.5 420.9,435.7 424.5,417.7 428.0,428.3 431.6,421.2 435.1,406.5 438.6,401.2 442.2,409.7 445.7,399.1 449.3,378.0 452.8,442.5 456.4,421.2 459.9,423.5 463.4,429.1 467.0,402.3 470.5,395.9 474.1,391.2 477.6,406.7 481.2,414.4 484.7,378.9 488.2,398.6 491.8,425.6 495.3,402.6 498.9,423.5 502.4,390.1 506.0,433.1 509.5,428.9 513.0,417.0 516.6,420.0 520.1,404.6 523.7,357.3 527.2,384.8 530.8,440.6 534.3,424.0 537.8,427.0 541.4,405.8 544.9,405.2 548.5,419.5 552.0,424.8 555.6,417.9 559.1,413.5 562.6,430.2 566.2,426.9 569.7,430.6 573.3,434.0 576.8,433.5 580.4,427.5 583.9,436.1 587.4,388.1 591.0,407.2 594.5,418.4 598.1,436.7 601.6,405.8 605.2,416.6 608.7,423.5 612.2,426.3 615.8,409.0 619.3,390.5 622.9,404.3 626.4,408.5 629.9,397.7 633.5,437.3 637.0,406.0 640.6,426.4 644.1,419.3 647.7,352.6 651.2,400.6 654.7,366.6 658.3,350.6 661.8,387.8 665.4,436.8 668.9,396.7 672.5,383.6 676.0,400.6 679.5,404.0 683.1,405.8 686.6,426.6 690.2,410.3 693.7,422.2 697.3,423.8 700.8,417.9 704.3,408.0 707.9,401.5 711.4,416.3 715.0,415.0 718.5,402.1 722.1,409.6 725.6,432.9 729.1,412.6 732.7,399.5 736.2,419.9 739.8,442.5 743.3,428.1 746.9,442.1 750.4,409.4 753.9,433.3 757.5,417.8 761.0,408.4 764.6,397.9 768.1,396.9 771.7,441.0 775.2,429.5 778.7,419.8 782.3,391.8 785.8,378.2 789.4,419.5 792.9,387.3 796.5,402.1 800.0,414.3"/>
<circle cx="95.0" cy="427.8" r="3" fill="#1f77b4"/>
<circle cx="98.5" cy="502.0" r="3" fill="#1f77b4"/>
<circle cx="102.1" cy="510.8" r="3" fill="#1f77b4"/>
<circle cx="105.6" cy="483.0" r="3" fill="#1f77b4"/>
<circle cx="109.2" cy="471.2" r="3" fill="#1f77b4"/>
<circle cx="112.7" cy="437.7" r="3" fill="#1f77b4"/>
<circle cx="116.3" cy="460.0" r="3" fill="#1f77b4"/>
<circle cx="119.8" cy="452.1" r="3" fill="#1f77b4"/>
<circle cx="123.3" cy="460.9" r="3" fill="#1f77b4"/>
<circle cx="126.9" cy="453.1" r="3" fill="#1f77b4"/>
<circle cx="130.4" cy="451.2" r="3" fill="#1f77b4"/>
<circle cx="134.0" cy="483.9" r="3" fill="#1f77b4"/>
<circle cx="137.5" cy="464.9" r="3" fill="#1f77b4"/>
<circle cx="141.1" cy="448.6" r="3" fill="#1f77b4"/>
<circle cx="144.6" cy="433.3" r="3" fill="#1f77b4"/>
<circle cx="148.1" cy="441.4" r="3" fill="#1f77b4"/>
<circle cx="151.7" cy="438.4" r="3" fill="#1f77b4"/>
<circle cx="155.2" cy="426.2" r="3" fill="#1f77b4"/>
<circle cx="158.8" cy="440.0" r="3" fill="#1f77b4"/>
<circle cx="162.3" cy="444.0" r="3" fill="#1f77b4"/>
<circle cx="165.9" cy="442.9" r="3" fill="#1f77b4"/>
<circle cx="169.4" cy="437.2" r="3" fill="#1f77b4"/>
<circle cx="172.9" cy="441.0" r="3" fill="#1f77b4"/>
<circle cx="176.5" cy="439.0" r="3" fill="#1f77b4"/>
<circle cx="180.0" cy="462.4" r="3" fill="#1f77b4"/>
<circle cx="183.6" cy="448.8" r="3" fill="#1f77b4"/>
<circle cx="187.1" cy="460.2" r="3" fill="#1f77b4"/>
<circle cx="190.7" cy="452.0" r="3" fill="#1f77b4"/>
<circle cx="194.2" cy="438.6" r="3" fill="#1f77b4"/>
<circle cx="197.7" cy="439.2" r="3" fill="#1f77b4"/>
<circle cx="201.3" cy="449.4" r="3" fill="#1f77b4"/>
<circle cx="204.8" cy="448.4" r="3" fill="#1f77b4"/>
<circle cx="208.4" cy="451.8" r="3" fill="#1f77b4"/>
<circle cx="211.9" cy="430.9" r="3" fill="#1f77b4"/>
<circle cx="215.5" cy="419.4" r="3" fill="#1f77b4"/>
<circle cx="219.0" cy="427.6" r="3" fill="#1f77b4"/>
<circle cx="222.5" cy="427.9" r="3" fill="#1f77b4"/>
<circle cx="226.1" cy="427.9" r="3" fill="#1f77b4"/>
<circle cx="229.6" cy="453.7" r="3" fill="#1f77b4"/>
<circle cx="233.2" cy="418.5" r="3" fill="#1f77b4"/>
<circle cx="236.7" cy="439.3" r="3" fill="#1f77b4"/>
<circle cx="240.3" cy="421.4" r="3" fill="#1f77b4"/>
<circle cx="243.8" cy="438.4" r="3" fill="#1f77b4"/>
<circle cx="247.3" cy="439.0" r="3" fill="#1f77b4"/>
<circle cx="250.9" cy="409.1" r="3" fill="#1f77b4"/>
<circle cx="254.4" cy="426.2" r="3" fill="#1f77b4"/>
<circle cx="258.0" cy="458.1" r="3" fill="#1f77b4"/>
<circle cx="261.5" cy="396.4" r="3" fill="#1f77b4"/>
<circle cx="265.1" cy="423.7" r="3" fill="#1f77b4"/>
<circle cx="268.6" cy="440.2" r="3" fill="#1f77b4"/>
<circle cx="272.1" cy="419.4" r="3" fill="#1f77b4"/>
<circle cx="275.7" cy="430.7" r="3" fill="#1f77b4"/>
<circle cx="279.2" cy="421.3" r="3" fill="#1f77b4"/>
<circle cx="282.8" cy="445.7" r="3" fill="#1f77b4"/>
<circle cx="286.3" cy="425.9" r="3" fill="#1f77b4"/>
<circle cx="289.8" cy="416.8" r="3" fill="#1f77b4"/>
<circle cx="293.4" cy="448.6" r="3" fill="#1f77b4"/>
<circle cx="296.9" cy="422.6" r="3" fill="#1f77b4"/>
<circle cx="300.5" cy="435.1" r="3" fill="#1f77b4"/>
<circle cx="304.0" cy="420.5" r="3" fill="#1f77b4"/>
<circle cx="307.6" cy="444.8" r="3" fill="#1f77b4"/>
<circle cx="311.1" cy="437.6" r="3" fill="#1f77b4"/>
<circle cx="314.6" cy="462.3" r="3" fill="#1f77b4"/>
<circle cx="318.2" cy="421.0" r="3" fill="#1f77b4"/>
<circle cx="321.7" cy="439.2" r="3" fill="#1f77b4"/>
<circle cx="325.3" cy="439.4" r="3" fill="#1f77b4"/>
<circle cx="328.8" cy="408.5" r="3" fill="#1f77b4"/>
<circle cx="332.4" cy="427.5" r="3" fill="#1f77b4"/>
<circle cx="335.9" cy="436.3" r="3" fill="#1f77b4"/>
<circle cx="339.4" cy="426.9" r="3" fill="#1f77b4"/>
<circle cx="343.0" cy="389.6" r="3" fill="#1f77b4"/>
<circle cx="346.5" cy="432.2" r="3" fill="#1f77b4"/>
<circle cx="350.1" cy="421.2" r="3" fill="#1f77b4"/>
<circle cx="353.6" cy="415.9" r="3" fill="#1f77b4"/>
<circle cx="357.2" cy="416.0" r="3" fill="#1f77b4"/>
<circle cx="360.7" cy="421.3" r="3" fill="#1f77b4"/>
<circle cx="364.2" cy="390.7" r="3" fill="#1f77b4"/>
<circle cx="367.8" cy="432.1" r="3" fill="#1f77b4"/>
<circle cx="371.3" cy="432.1" r="3" fill="#1f77b4"/>
<circle cx="374.9" cy="444.1" r="3" fill="#1f77b4"/>
<circle cx="378.4" cy="438.3" r="3" fill="#1f77b4"/>
<circle cx="382.0" cy="450.9" r="3" fill="#1f77b4"/>
<circle cx="385.5" cy="429.3" r="3" fill="#1f77b4"/>
<circle cx="389.0" cy="399.8" r="3" fill="#1f77b4"/>
<circle cx="392.6" cy="421.6" r="3" fill="#1f77b4"/>
<circle cx="396.1" cy="445.1" r="3" fill="#1f77b4"/>
<circle cx="399.7" cy="447.9" r="3" fill="#1f77b4"/>
<circle cx="403.2" cy="429.6" r="3" fill="#1f77b4"/>
<circle cx="406.8" cy="449.7" r="3" fill="#1f77b4"/>
<circle cx="410.3" cy="455.2" r="3" fill="#1f77b4"/>
<circle cx="413.8" cy="410.4" r="3" fill="#1f77b4"/>
<circle cx="417.4" cy="400.5" r="3" fill="#1f77b4"/>
<circle cx="420.9" cy="435.7" r="3" fill="#1f77b4"/>
<circle cx="424.5" cy="417.7" r="3" fill="#1f77b4"/>
<circle cx="428.0" cy="428.3" r="3" fill="#1f77b4"/>
<circle cx="431.6" cy="421.2" r="3" fill="#1f77b4"/>
<circle cx="435.1" cy="406.5" r="3" fill="#1f77b4"/>
<circle cx="438.6" cy="401.2" r="3" fill="#1f77b4"/>
<circle cx="442.2" cy="409.7" r="3" fill="#1f77b4"/>
<circle cx="445.7" cy="399.1" r="3" fill="#1f77b4"/>
<circle cx="449.3" cy="378.0" r="3" fill="#1f77b4"/>
<circle cx="452.8" cy="442.5" r="3" fill="#1f77b4"/>
<circle cx="456.4" cy="421.2" r="3" fill="#1f77b4"/>
<circle cx="459.9" cy="423.5" r="3" fill="#1f77b4"/>
<circle cx="463.4" cy="429.1" r="3" fill="#1f77b4"/>
<circle cx="467.0" cy="402.3" r="3" fill="#1f77b4"/>
<circle cx="470.5" cy="395.9" r="3" fill="#1f77b4"/>
<circle cx="474.1" cy="391.2" r="3" fill="#1f77b4"/>
<circle cx="477.6" cy="406.7" r="3" fill="#1f77b4"/>
<circle cx="481.2" cy="414.4" r="3" fill="#1f77b4"/>
<circle cx="484.7" cy="378.9" r="3" fill="#1f77b4"/>
<circle cx="488.2" cy="398.6" r="3" fill="#1f77b4"/>
<circle cx="491.8" cy="425.6" r="3" fill="#1f77b4"/>
<circle cx="495.3" cy="402.6" r="3" fill="#1f77b4"/>
<circle cx="498.9" cy="423.5" r="3" fill="#1f77b4"/>
<circle cx="502.4" cy="390.1" r="3" fill="#1f77b4"/>
<circle cx="506.0" cy="433.1" r="3" fill="#1f77b4"/>
<circle cx="509.5" cy="428.9" r="3" fill="#1f77b4"/>
<circle cx="513.0" cy="417.0" r="3" fill="#1f77b4"/>
<circle cx="516.6" cy="420.0" r="3" fill="#1f77b4"/>
<circle cx="520.1" cy="404.6" r="3" fill="#1f77b4"/>
<circle cx="523.7" cy="357.3" r="3" fill="#1f77b4"/>
<circle cx="527.2" cy="384.8" r="3" fill="#1f77b4"/>
<circle cx="530.8" cy="440.6" r="3" fill="#1f77b4"/>
<circle cx="534.3" cy="424.0" r="3" fill="#1f77b4"/>
<circle cx="537.8" cy="427.0" r="3" fill="#1f77b4"/>
<circle cx="541.4" cy="405.8" r="3" fill="#1f77b4"/>
<circle cx="544.9" cy="405.2" r="3" fill="#1f77b4"/>
<circle cx="548.5" cy="419.5" r="3" fill="#1f77b4"/>
<circle cx="552.0" cy="424.8" r="3" fill="#1f77b4"/>
<circle cx="555.6" cy="417.9" r="3" fill="#1f77b4"/>
<circle cx="559.1" cy="413.5" r="3" fill="#1f77b4"/>
<circle cx="562.6" cy="430.2" r="3" fill="#1f77b4"/>
<circle cx="566.2" cy="426.9" r="3" fill="#1f77b4"/>
<circle cx="569.7" cy="430.6" r="3" fill="#1f77b4"/>
<circle cx="573.3" cy="434.0" r="3" fill="#1f77b4"/>
<circle cx="576.8" cy="433.5" r="3" fill="#1f77b4"/>
<circle cx="580.4" cy="427.5" r="3" fill="#1f77b4"/>
<circle cx="583.9" cy="436.1" r="3" fill="#1f77b4"/>
<circle cx="587.4" cy="388.1" r="3" fill="#1f77b4"/>
<circle cx="591.0" cy="407.2" r="3" fill="#1f77b4"/>
<circle cx="594.5" cy="418.4" r="3" fill="#1f77b4"/>
<circle cx="598.1" cy="436.7" r="3" fill="#1f77b4"/>
<circle cx="601.6" cy="405.8" r="3" fill="#1f77b4"/>
<circle cx="605.2" cy="416.6" r="3" fill="#1f77b4"/>
<circle cx="608.7" cy="423.5" r="3" fill="#1f77b4"/>
<circle cx="612.2" cy="426.3" r="3" fill="#1f77b4"/>
<circle cx="615.8" cy="409.0" r="3" fill="#1f77b4"/>
<circle cx="619.3" cy="390.5" r="3" fill="#1f77b4"/>
<circle cx="622.9" cy="404.3" r="3" fill="#1f77b4"/>
<circle cx="626.4" cy="408.5" r="3" fill="#1f77b4"/>
<circle cx="629.9" cy="397.7" r="3" fill="#1f77b4"/>
<circle cx="633.5" cy="437.3" r="3" fill="#1f77b4"/>
<circle cx="637.0" cy="406.0" r="3" fill="#1f77b4"/>
<circle cx="640.6" cy="426.4" r="3" fill="#1f77b4"/>
<circle cx="644.1" cy="419.3" r="3" fill="#1f77b4"/>
<circle cx="647.7" cy="352.6" r="3" fill="#1f77b4"/>
<circle cx="651.2" cy="400.6" r="3" fill="#1f77b4"/>
<circle cx="654.7" cy="366.6" r="3" fill="#1f77b4"/>
<circle cx="658.3" cy="350.6" r="3" fill="#1f77b4"/>
<circle cx="661.8" cy="387.8" r="3" fill="#1f77b4"/>
<circle cx="665.4" cy="436.8" r="3" fill="#1f77b4"/>
<circle cx="668.9" cy="396.7" r="3" fill="#1f77b4"/>
<circle cx="672.5" cy="383.6" r="3" fill="#1f77b4"/>
<circle cx="676.0" cy="400.6" r="3" fill="#1f77b4"/>
<circle cx="679.5" cy="404.0" r="3" fill="#1f77b4"/>
<circle cx="683.1" cy="405.8" r="3" fill="#1f77b4"/>
<circle cx="686.6" cy="426.6" r="3" fill="#1f77b4"/>
<circle cx="690.2" cy="410.3" r="3" fill="#1f77b4"/>
<circle cx="693.7" cy="422.2" r="3" fill="#1f77b4"/>
<circle cx="697.3" cy="423.8" r="3" fill="#1f77b4"/>
<circle cx="700.8" cy="417.9" r="3" fill="#1f77b4"/>
<circle cx="704.3" cy="408.0" r="3" fill="#1f77b4"/>
<circle cx="707.9" cy="401.5" r="3" fill="#1f77b4"/>
<circle cx="711.4" cy="416.3" r="3" fill="#1f77b4"/>
<circle cx="715.0" cy="415.0" r="3" fill="#1f77b4"/>
<circle cx="718.5" cy="402.1" r="3" fill="#1f77b4"/>
<circle cx="722.1" cy="409.6" r="3" fill="#1f77b4"/>
<circle cx="725.6" cy="432.9" r="3" fill="#1f77b4"/>
<circle cx="729.1" cy="412.6" r="3" fill="#1f77b4"/>
<circle cx="732.7" cy="399.5" r="3" fill="#1f77b4"/>
<circle cx="736.2" cy="419.9" r="3" fill="#1f77b4"/>
<circle cx="739.8" cy="442.5" r="3" fill="#1f77b4"/>
<circle cx="743.3" cy="428.1" r="3" fill="#1f77b4"/>
<circle cx="746.9" cy="442.1" r="3" fill="#1f77b4"/>
<circle cx="750.4" cy="409.4" r="3" fill="#1f77b4"/>
<circle cx="753.9" cy="433.3" r="3" fill="#1f77b4"/>
<circle cx="757.5" cy="417.8" r="3" fill="#1f77b4"/>
<circle cx="761.0" cy="408.4" r="3" fill="#1f77b4"/>
<circle cx="764.6" cy="397.9" r="3" fill="#1f77b4"/>
<circle cx="768.1" cy="396.9" r="3" fill="#1f77b4"/>
<circle cx="771.7" cy="441.0" r="3" fill="#1f77b4"/>
<circle cx="775.2" cy="429.5" r="3" fill="#1f77b4"/>
<circle cx="778.7" cy="419.8" r="3" fill="#1f77b4"/>
<circle cx="782.3" cy="391.8" r="3" fill="#1f77b4"/>
<circle cx="785.8" cy="378.2" r="3" fill="#1f77b4"/>
<circle cx="789.4" cy="419.5" r="3" fill="#1f77b4"/>
<circle cx="792.9" cy="387.3" r="3" fill="#1f77b4"/>
<circle cx="796.5" cy="402.1" r="3" fill="#1f77b4"/>
<circle cx="800.0" cy="414.3" r="3" fill="#1f77b4"/>
<line x1="828" y1="96" x2="850" y2="96" stroke="#1f77b4" stroke-width="2.5"/>
<text x="858" y="100" font-family="Arial" font-size="13">on_policy_reference_e1_tb256</text>
<polyline fill="none" stroke="#d62728" stroke-width="2.3" points="95.0,427.8 98.5,501.5 102.1,500.3 105.6,484.0 109.2,524.8 112.7,489.9 116.3,502.6 119.8,498.9 123.3,518.7 126.9,519.6 130.4,525.5 134.0,518.1 137.5,525.4 141.1,514.4 144.6,524.0 148.1,526.4 151.7,506.8 155.2,515.9 158.8,501.6 162.3,504.1 165.9,514.7 169.4,505.8 172.9,509.9 176.5,516.2 180.0,510.8 183.6,519.9 187.1,484.3 190.7,499.2 194.2,506.8 197.7,485.8 201.3,490.9 204.8,511.6 208.4,514.2 211.9,512.5 215.5,508.5 219.0,492.6 222.5,508.9 226.1,503.4 229.6,496.4 233.2,501.7 236.7,494.4 240.3,506.1 243.8,508.9 247.3,486.7 250.9,491.9 254.4,492.0 258.0,466.1 261.5,470.9 265.1,461.1 268.6,478.2 272.1,475.2 275.7,449.9 279.2,438.7 282.8,464.7 286.3,452.1 289.8,460.9 293.4,419.3 296.9,423.7 300.5,416.4 304.0,424.5 307.6,454.6 311.1,424.2 314.6,428.4 318.2,434.0 321.7,426.3 325.3,428.7 328.8,441.8 332.4,444.2 335.9,410.1 339.4,425.2 343.0,411.4 346.5,407.8 350.1,420.4 353.6,427.5 357.2,413.6 360.7,386.6 364.2,348.2 367.8,379.1 371.3,374.6 374.9,351.0 378.4,383.5 382.0,338.4 385.5,370.6 389.0,331.0 392.6,380.1 396.1,380.6 399.7,391.3 403.2,414.5 406.8,403.6 410.3,397.7 413.8,362.8 417.4,395.6 420.9,369.2 424.5,374.1 428.0,384.1 431.6,385.3 435.1,356.5 438.6,354.0 442.2,347.7 445.7,341.4 449.3,363.5 452.8,324.8 456.4,333.3 459.9,343.8 463.4,392.7 467.0,359.8 470.5,364.0 474.1,301.9 477.6,288.8 481.2,279.2 484.7,252.9 488.2,321.9 491.8,282.6 495.3,319.7 498.9,311.0 502.4,386.0 506.0,361.1 509.5,384.2 513.0,400.4 516.6,384.2 520.1,375.6 523.7,378.2 527.2,337.8 530.8,317.7 534.3,317.9 537.8,357.1 541.4,350.1 544.9,325.9 548.5,307.1 552.0,348.0 555.6,327.5 559.1,390.7 562.6,379.2 566.2,383.5 569.7,376.6 573.3,370.0 576.8,396.5 580.4,378.1 583.9,392.5 587.4,409.4 591.0,350.4 594.5,386.4 598.1,340.8 601.6,351.3 605.2,346.6 608.7,355.8 612.2,405.1 615.8,400.9 619.3,354.3 622.9,322.0 626.4,376.1 629.9,408.3 633.5,379.2 637.0,354.4 640.6,369.5 644.1,367.1 647.7,394.0 651.2,370.2 654.7,395.0 658.3,365.4 661.8,390.6 665.4,373.7 668.9,392.0 672.5,346.4 676.0,386.6 679.5,392.6 683.1,404.6 686.6,365.3 690.2,411.3 693.7,392.6 697.3,412.4 700.8,412.3 704.3,449.2 707.9,409.4 711.4,414.3 715.0,434.5 718.5,436.0 722.1,430.4 725.6,442.9 729.1,450.1 732.7,455.6 736.2,429.2 739.8,430.4 743.3,430.8 746.9,452.5 750.4,437.5 753.9,440.2 757.5,462.0 761.0,440.9 764.6,444.2 768.1,422.1 771.7,451.9 775.2,444.6 778.7,435.7 782.3,451.0 785.8,74.0 789.4,74.0 792.9,74.0 796.5,74.0 800.0,74.0"/>
<circle cx="95.0" cy="427.8" r="3" fill="#d62728"/>
<circle cx="98.5" cy="501.5" r="3" fill="#d62728"/>
<circle cx="102.1" cy="500.3" r="3" fill="#d62728"/>
<circle cx="105.6" cy="484.0" r="3" fill="#d62728"/>
<circle cx="109.2" cy="524.8" r="3" fill="#d62728"/>
<circle cx="112.7" cy="489.9" r="3" fill="#d62728"/>
<circle cx="116.3" cy="502.6" r="3" fill="#d62728"/>
<circle cx="119.8" cy="498.9" r="3" fill="#d62728"/>
<circle cx="123.3" cy="518.7" r="3" fill="#d62728"/>
<circle cx="126.9" cy="519.6" r="3" fill="#d62728"/>
<circle cx="130.4" cy="525.5" r="3" fill="#d62728"/>
<circle cx="134.0" cy="518.1" r="3" fill="#d62728"/>
<circle cx="137.5" cy="525.4" r="3" fill="#d62728"/>
<circle cx="141.1" cy="514.4" r="3" fill="#d62728"/>
<circle cx="144.6" cy="524.0" r="3" fill="#d62728"/>
<circle cx="148.1" cy="526.4" r="3" fill="#d62728"/>
<circle cx="151.7" cy="506.8" r="3" fill="#d62728"/>
<circle cx="155.2" cy="515.9" r="3" fill="#d62728"/>
<circle cx="158.8" cy="501.6" r="3" fill="#d62728"/>
<circle cx="162.3" cy="504.1" r="3" fill="#d62728"/>
<circle cx="165.9" cy="514.7" r="3" fill="#d62728"/>
<circle cx="169.4" cy="505.8" r="3" fill="#d62728"/>
<circle cx="172.9" cy="509.9" r="3" fill="#d62728"/>
<circle cx="176.5" cy="516.2" r="3" fill="#d62728"/>
<circle cx="180.0" cy="510.8" r="3" fill="#d62728"/>
<circle cx="183.6" cy="519.9" r="3" fill="#d62728"/>
<circle cx="187.1" cy="484.3" r="3" fill="#d62728"/>
<circle cx="190.7" cy="499.2" r="3" fill="#d62728"/>
<circle cx="194.2" cy="506.8" r="3" fill="#d62728"/>
<circle cx="197.7" cy="485.8" r="3" fill="#d62728"/>
<circle cx="201.3" cy="490.9" r="3" fill="#d62728"/>
<circle cx="204.8" cy="511.6" r="3" fill="#d62728"/>
<circle cx="208.4" cy="514.2" r="3" fill="#d62728"/>
<circle cx="211.9" cy="512.5" r="3" fill="#d62728"/>
<circle cx="215.5" cy="508.5" r="3" fill="#d62728"/>
<circle cx="219.0" cy="492.6" r="3" fill="#d62728"/>
<circle cx="222.5" cy="508.9" r="3" fill="#d62728"/>
<circle cx="226.1" cy="503.4" r="3" fill="#d62728"/>
<circle cx="229.6" cy="496.4" r="3" fill="#d62728"/>
<circle cx="233.2" cy="501.7" r="3" fill="#d62728"/>
<circle cx="236.7" cy="494.4" r="3" fill="#d62728"/>
<circle cx="240.3" cy="506.1" r="3" fill="#d62728"/>
<circle cx="243.8" cy="508.9" r="3" fill="#d62728"/>
<circle cx="247.3" cy="486.7" r="3" fill="#d62728"/>
<circle cx="250.9" cy="491.9" r="3" fill="#d62728"/>
<circle cx="254.4" cy="492.0" r="3" fill="#d62728"/>
<circle cx="258.0" cy="466.1" r="3" fill="#d62728"/>
<circle cx="261.5" cy="470.9" r="3" fill="#d62728"/>
<circle cx="265.1" cy="461.1" r="3" fill="#d62728"/>
<circle cx="268.6" cy="478.2" r="3" fill="#d62728"/>
<circle cx="272.1" cy="475.2" r="3" fill="#d62728"/>
<circle cx="275.7" cy="449.9" r="3" fill="#d62728"/>
<circle cx="279.2" cy="438.7" r="3" fill="#d62728"/>
<circle cx="282.8" cy="464.7" r="3" fill="#d62728"/>
<circle cx="286.3" cy="452.1" r="3" fill="#d62728"/>
<circle cx="289.8" cy="460.9" r="3" fill="#d62728"/>
<circle cx="293.4" cy="419.3" r="3" fill="#d62728"/>
<circle cx="296.9" cy="423.7" r="3" fill="#d62728"/>
<circle cx="300.5" cy="416.4" r="3" fill="#d62728"/>
<circle cx="304.0" cy="424.5" r="3" fill="#d62728"/>
<circle cx="307.6" cy="454.6" r="3" fill="#d62728"/>
<circle cx="311.1" cy="424.2" r="3" fill="#d62728"/>
<circle cx="314.6" cy="428.4" r="3" fill="#d62728"/>
<circle cx="318.2" cy="434.0" r="3" fill="#d62728"/>
<circle cx="321.7" cy="426.3" r="3" fill="#d62728"/>
<circle cx="325.3" cy="428.7" r="3" fill="#d62728"/>
<circle cx="328.8" cy="441.8" r="3" fill="#d62728"/>
<circle cx="332.4" cy="444.2" r="3" fill="#d62728"/>
<circle cx="335.9" cy="410.1" r="3" fill="#d62728"/>
<circle cx="339.4" cy="425.2" r="3" fill="#d62728"/>
<circle cx="343.0" cy="411.4" r="3" fill="#d62728"/>
<circle cx="346.5" cy="407.8" r="3" fill="#d62728"/>
<circle cx="350.1" cy="420.4" r="3" fill="#d62728"/>
<circle cx="353.6" cy="427.5" r="3" fill="#d62728"/>
<circle cx="357.2" cy="413.6" r="3" fill="#d62728"/>
<circle cx="360.7" cy="386.6" r="3" fill="#d62728"/>
<circle cx="364.2" cy="348.2" r="3" fill="#d62728"/>
<circle cx="367.8" cy="379.1" r="3" fill="#d62728"/>
<circle cx="371.3" cy="374.6" r="3" fill="#d62728"/>
<circle cx="374.9" cy="351.0" r="3" fill="#d62728"/>
<circle cx="378.4" cy="383.5" r="3" fill="#d62728"/>
<circle cx="382.0" cy="338.4" r="3" fill="#d62728"/>
<circle cx="385.5" cy="370.6" r="3" fill="#d62728"/>
<circle cx="389.0" cy="331.0" r="3" fill="#d62728"/>
<circle cx="392.6" cy="380.1" r="3" fill="#d62728"/>
<circle cx="396.1" cy="380.6" r="3" fill="#d62728"/>
<circle cx="399.7" cy="391.3" r="3" fill="#d62728"/>
<circle cx="403.2" cy="414.5" r="3" fill="#d62728"/>
<circle cx="406.8" cy="403.6" r="3" fill="#d62728"/>
<circle cx="410.3" cy="397.7" r="3" fill="#d62728"/>
<circle cx="413.8" cy="362.8" r="3" fill="#d62728"/>
<circle cx="417.4" cy="395.6" r="3" fill="#d62728"/>
<circle cx="420.9" cy="369.2" r="3" fill="#d62728"/>
<circle cx="424.5" cy="374.1" r="3" fill="#d62728"/>
<circle cx="428.0" cy="384.1" r="3" fill="#d62728"/>
<circle cx="431.6" cy="385.3" r="3" fill="#d62728"/>
<circle cx="435.1" cy="356.5" r="3" fill="#d62728"/>
<circle cx="438.6" cy="354.0" r="3" fill="#d62728"/>
<circle cx="442.2" cy="347.7" r="3" fill="#d62728"/>
<circle cx="445.7" cy="341.4" r="3" fill="#d62728"/>
<circle cx="449.3" cy="363.5" r="3" fill="#d62728"/>
<circle cx="452.8" cy="324.8" r="3" fill="#d62728"/>
<circle cx="456.4" cy="333.3" r="3" fill="#d62728"/>
<circle cx="459.9" cy="343.8" r="3" fill="#d62728"/>
<circle cx="463.4" cy="392.7" r="3" fill="#d62728"/>
<circle cx="467.0" cy="359.8" r="3" fill="#d62728"/>
<circle cx="470.5" cy="364.0" r="3" fill="#d62728"/>
<circle cx="474.1" cy="301.9" r="3" fill="#d62728"/>
<circle cx="477.6" cy="288.8" r="3" fill="#d62728"/>
<circle cx="481.2" cy="279.2" r="3" fill="#d62728"/>
<circle cx="484.7" cy="252.9" r="3" fill="#d62728"/>
<circle cx="488.2" cy="321.9" r="3" fill="#d62728"/>
<circle cx="491.8" cy="282.6" r="3" fill="#d62728"/>
<circle cx="495.3" cy="319.7" r="3" fill="#d62728"/>
<circle cx="498.9" cy="311.0" r="3" fill="#d62728"/>
<circle cx="502.4" cy="386.0" r="3" fill="#d62728"/>
<circle cx="506.0" cy="361.1" r="3" fill="#d62728"/>
<circle cx="509.5" cy="384.2" r="3" fill="#d62728"/>
<circle cx="513.0" cy="400.4" r="3" fill="#d62728"/>
<circle cx="516.6" cy="384.2" r="3" fill="#d62728"/>
<circle cx="520.1" cy="375.6" r="3" fill="#d62728"/>
<circle cx="523.7" cy="378.2" r="3" fill="#d62728"/>
<circle cx="527.2" cy="337.8" r="3" fill="#d62728"/>
<circle cx="530.8" cy="317.7" r="3" fill="#d62728"/>
<circle cx="534.3" cy="317.9" r="3" fill="#d62728"/>
<circle cx="537.8" cy="357.1" r="3" fill="#d62728"/>
<circle cx="541.4" cy="350.1" r="3" fill="#d62728"/>
<circle cx="544.9" cy="325.9" r="3" fill="#d62728"/>
<circle cx="548.5" cy="307.1" r="3" fill="#d62728"/>
<circle cx="552.0" cy="348.0" r="3" fill="#d62728"/>
<circle cx="555.6" cy="327.5" r="3" fill="#d62728"/>
<circle cx="559.1" cy="390.7" r="3" fill="#d62728"/>
<circle cx="562.6" cy="379.2" r="3" fill="#d62728"/>
<circle cx="566.2" cy="383.5" r="3" fill="#d62728"/>
<circle cx="569.7" cy="376.6" r="3" fill="#d62728"/>
<circle cx="573.3" cy="370.0" r="3" fill="#d62728"/>
<circle cx="576.8" cy="396.5" r="3" fill="#d62728"/>
<circle cx="580.4" cy="378.1" r="3" fill="#d62728"/>
<circle cx="583.9" cy="392.5" r="3" fill="#d62728"/>
<circle cx="587.4" cy="409.4" r="3" fill="#d62728"/>
<circle cx="591.0" cy="350.4" r="3" fill="#d62728"/>
<circle cx="594.5" cy="386.4" r="3" fill="#d62728"/>
<circle cx="598.1" cy="340.8" r="3" fill="#d62728"/>
<circle cx="601.6" cy="351.3" r="3" fill="#d62728"/>
<circle cx="605.2" cy="346.6" r="3" fill="#d62728"/>
<circle cx="608.7" cy="355.8" r="3" fill="#d62728"/>
<circle cx="612.2" cy="405.1" r="3" fill="#d62728"/>
<circle cx="615.8" cy="400.9" r="3" fill="#d62728"/>
<circle cx="619.3" cy="354.3" r="3" fill="#d62728"/>
<circle cx="622.9" cy="322.0" r="3" fill="#d62728"/>
<circle cx="626.4" cy="376.1" r="3" fill="#d62728"/>
<circle cx="629.9" cy="408.3" r="3" fill="#d62728"/>
<circle cx="633.5" cy="379.2" r="3" fill="#d62728"/>
<circle cx="637.0" cy="354.4" r="3" fill="#d62728"/>
<circle cx="640.6" cy="369.5" r="3" fill="#d62728"/>
<circle cx="644.1" cy="367.1" r="3" fill="#d62728"/>
<circle cx="647.7" cy="394.0" r="3" fill="#d62728"/>
<circle cx="651.2" cy="370.2" r="3" fill="#d62728"/>
<circle cx="654.7" cy="395.0" r="3" fill="#d62728"/>
<circle cx="658.3" cy="365.4" r="3" fill="#d62728"/>
<circle cx="661.8" cy="390.6" r="3" fill="#d62728"/>
<circle cx="665.4" cy="373.7" r="3" fill="#d62728"/>
<circle cx="668.9" cy="392.0" r="3" fill="#d62728"/>
<circle cx="672.5" cy="346.4" r="3" fill="#d62728"/>
<circle cx="676.0" cy="386.6" r="3" fill="#d62728"/>
<circle cx="679.5" cy="392.6" r="3" fill="#d62728"/>
<circle cx="683.1" cy="404.6" r="3" fill="#d62728"/>
<circle cx="686.6" cy="365.3" r="3" fill="#d62728"/>
<circle cx="690.2" cy="411.3" r="3" fill="#d62728"/>
<circle cx="693.7" cy="392.6" r="3" fill="#d62728"/>
<circle cx="697.3" cy="412.4" r="3" fill="#d62728"/>
<circle cx="700.8" cy="412.3" r="3" fill="#d62728"/>
<circle cx="704.3" cy="449.2" r="3" fill="#d62728"/>
<circle cx="707.9" cy="409.4" r="3" fill="#d62728"/>
<circle cx="711.4" cy="414.3" r="3" fill="#d62728"/>
<circle cx="715.0" cy="434.5" r="3" fill="#d62728"/>
<circle cx="718.5" cy="436.0" r="3" fill="#d62728"/>
<circle cx="722.1" cy="430.4" r="3" fill="#d62728"/>
<circle cx="725.6" cy="442.9" r="3" fill="#d62728"/>
<circle cx="729.1" cy="450.1" r="3" fill="#d62728"/>
<circle cx="732.7" cy="455.6" r="3" fill="#d62728"/>
<circle cx="736.2" cy="429.2" r="3" fill="#d62728"/>
<circle cx="739.8" cy="430.4" r="3" fill="#d62728"/>
<circle cx="743.3" cy="430.8" r="3" fill="#d62728"/>
<circle cx="746.9" cy="452.5" r="3" fill="#d62728"/>
<circle cx="750.4" cy="437.5" r="3" fill="#d62728"/>
<circle cx="753.9" cy="440.2" r="3" fill="#d62728"/>
<circle cx="757.5" cy="462.0" r="3" fill="#d62728"/>
<circle cx="761.0" cy="440.9" r="3" fill="#d62728"/>
<circle cx="764.6" cy="444.2" r="3" fill="#d62728"/>
<circle cx="768.1" cy="422.1" r="3" fill="#d62728"/>
<circle cx="771.7" cy="451.9" r="3" fill="#d62728"/>
<circle cx="775.2" cy="444.6" r="3" fill="#d62728"/>
<circle cx="778.7" cy="435.7" r="3" fill="#d62728"/>
<circle cx="782.3" cy="451.0" r="3" fill="#d62728"/>
<circle cx="785.8" cy="74.0" r="3" fill="#d62728"/>
<circle cx="789.4" cy="74.0" r="3" fill="#d62728"/>
<circle cx="792.9" cy="74.0" r="3" fill="#d62728"/>
<circle cx="796.5" cy="74.0" r="3" fill="#d62728"/>
<circle cx="800.0" cy="74.0" r="3" fill="#d62728"/>
<line x1="828" y1="120" x2="850" y2="120" stroke="#d62728" stroke-width="2.5"/>
<text x="858" y="124" font-family="Arial" font-size="13">focused_e2_tb256</text>
<text x="447.5" y="638" text-anchor="middle" font-family="Arial" font-size="15">GRPO step</text>
<text x="24" y="326.0" text-anchor="middle" font-family="Arial" font-size="15" transform="rotate(-90 24 326.0)">Average rollout response tokens</text>
</svg>
