<svg xmlns="http://www.w3.org/2000/svg" width="1100" height="660" viewBox="0 0 1100 660">
<rect width="100%" height="100%" fill="white"/>
<text x="550.0" y="36" text-anchor="middle" font-family="Arial" font-size="22" font-weight="700">On-policy vs off-policy focused comparison: answer reward vs wall-clock time</text>
<line x1="95" y1="578" x2="800" y2="578" stroke="#222" stroke-width="1.5"/>
<line x1="95" y1="74" x2="95" y2="578" stroke="#222" stroke-width="1.5"/>
<line x1="90" y1="578.0" x2="800" y2="578.0" stroke="#ddd" stroke-width="1"/>
<text x="83" y="582.0" text-anchor="end" font-family="Arial" font-size="12">0.00%</text>
<line x1="90" y1="477.2" x2="800" y2="477.2" stroke="#ddd" stroke-width="1"/>
<text x="83" y="481.2" text-anchor="end" font-family="Arial" font-size="12">17.00%</text>
<line x1="90" y1="376.4" x2="800" y2="376.4" stroke="#ddd" stroke-width="1"/>
<text x="83" y="380.4" text-anchor="end" font-family="Arial" font-size="12">34.00%</text>
<line x1="90" y1="275.6" x2="800" y2="275.6" stroke="#ddd" stroke-width="1"/>
<text x="83" y="279.6" text-anchor="end" font-family="Arial" font-size="12">51.00%</text>
<line x1="90" y1="174.8" x2="800" y2="174.8" stroke="#ddd" stroke-width="1"/>
<text x="83" y="178.8" text-anchor="end" font-family="Arial" font-size="12">68.00%</text>
<line x1="90" y1="74.0" x2="800" y2="74.0" stroke="#ddd" stroke-width="1"/>
<text x="83" y="78.0" text-anchor="end" font-family="Arial" font-size="12">85.00%</text>
<line x1="95.0" y1="578" x2="95.0" y2="583" stroke="#222" stroke-width="1"/>
<text x="95.0" y="602" text-anchor="middle" font-family="Arial" font-size="12">0.7</text>
<line x1="236.0" y1="578" x2="236.0" y2="583" stroke="#222" stroke-width="1"/>
<text x="236.0" y="602" text-anchor="middle" font-family="Arial" font-size="12">47.9</text>
<line x1="377.0" y1="578" x2="377.0" y2="583" stroke="#222" stroke-width="1"/>
<text x="377.0" y="602" text-anchor="middle" font-family="Arial" font-size="12">95.1</text>
<line x1="518.0" y1="578" x2="518.0" y2="583" stroke="#222" stroke-width="1"/>
<text x="518.0" y="602" text-anchor="middle" font-family="Arial" font-size="12">142.3</text>
<line x1="659.0" y1="578" x2="659.0" y2="583" stroke="#222" stroke-width="1"/>
<text x="659.0" y="602" text-anchor="middle" font-family="Arial" font-size="12">189.4</text>
<line x1="800.0" y1="578" x2="800.0" y2="583" stroke="#222" stroke-width="1"/>
<text x="800.0" y="602" text-anchor="middle" font-family="Arial" font-size="12">236.6</text>
<polyline fill="none" stroke="#1f77b4" stroke-width="2.3" points="95.0,555.4 103.4,443.7 112.5,380.5 121.9,304.7 131.7,264.2 141.4,238.7 151.1,202.8 161.1,190.0 171.4,177.3 181.8,150.7 192.4,138.5 203.0,131.0 213.2,111.9 222.7,120.6 232.8,119.4 243.2,114.2 253.3,114.8 263.4,109.6 273.3,112.4 284.6,103.2 294.6,118.2 305.1,115.9 316.4,120.6 326.7,113.0 337.9,103.2 348.3,115.3 359.4,109.6 369.4,116.5 380.4,114.8 390.4,115.9 400.6,117.7 411.4,119.4 422.2,106.1 433.6,132.1 443.8,111.9 453.9,128.1 464.7,114.8 474.7,110.1 485.1,113.0 496.0,115.9 506.5,117.7"/>
<circle cx="95.0" cy="555.4" r="3" fill="#1f77b4"/>
<circle cx="103.4" cy="443.7" r="3" fill="#1f77b4"/>
<circle cx="112.5" cy="380.5" r="3" fill="#1f77b4"/>
<circle cx="121.9" cy="304.7" r="3" fill="#1f77b4"/>
<circle cx="131.7" cy="264.2" r="3" fill="#1f77b4"/>
<circle cx="141.4" cy="238.7" r="3" fill="#1f77b4"/>
<circle cx="151.1" cy="202.8" r="3" fill="#1f77b4"/>
<circle cx="161.1" cy="190.0" r="3" fill="#1f77b4"/>
<circle cx="171.4" cy="177.3" r="3" fill="#1f77b4"/>
<circle cx="181.8" cy="150.7" r="3" fill="#1f77b4"/>
<circle cx="192.4" cy="138.5" r="3" fill="#1f77b4"/>
<circle cx="203.0" cy="131.0" r="3" fill="#1f77b4"/>
<circle cx="213.2" cy="111.9" r="3" fill="#1f77b4"/>
<circle cx="222.7" cy="120.6" r="3" fill="#1f77b4"/>
<circle cx="232.8" cy="119.4" r="3" fill="#1f77b4"/>
<circle cx="243.2" cy="114.2" r="3" fill="#1f77b4"/>
<circle cx="253.3" cy="114.8" r="3" fill="#1f77b4"/>
<circle cx="263.4" cy="109.6" r="3" fill="#1f77b4"/>
<circle cx="273.3" cy="112.4" r="3" fill="#1f77b4"/>
<circle cx="284.6" cy="103.2" r="3" fill="#1f77b4"/>
<circle cx="294.6" cy="118.2" r="3" fill="#1f77b4"/>
<circle cx="305.1" cy="115.9" r="3" fill="#1f77b4"/>
<circle cx="316.4" cy="120.6" r="3" fill="#1f77b4"/>
<circle cx="326.7" cy="113.0" r="3" fill="#1f77b4"/>
<circle cx="337.9" cy="103.2" r="3" fill="#1f77b4"/>
<circle cx="348.3" cy="115.3" r="3" fill="#1f77b4"/>
<circle cx="359.4" cy="109.6" r="3" fill="#1f77b4"/>
<circle cx="369.4" cy="116.5" r="3" fill="#1f77b4"/>
<circle cx="380.4" cy="114.8" r="3" fill="#1f77b4"/>
<circle cx="390.4" cy="115.9" r="3" fill="#1f77b4"/>
<circle cx="400.6" cy="117.7" r="3" fill="#1f77b4"/>
<circle cx="411.4" cy="119.4" r="3" fill="#1f77b4"/>
<circle cx="422.2" cy="106.1" r="3" fill="#1f77b4"/>
<circle cx="433.6" cy="132.1" r="3" fill="#1f77b4"/>
<circle cx="443.8" cy="111.9" r="3" fill="#1f77b4"/>
<circle cx="453.9" cy="128.1" r="3" fill="#1f77b4"/>
<circle cx="464.7" cy="114.8" r="3" fill="#1f77b4"/>
<circle cx="474.7" cy="110.1" r="3" fill="#1f77b4"/>
<circle cx="485.1" cy="113.0" r="3" fill="#1f77b4"/>
<circle cx="496.0" cy="115.9" r="3" fill="#1f77b4"/>
<circle cx="506.5" cy="117.7" r="3" fill="#1f77b4"/>
<line x1="828" y1="96" x2="850" y2="96" stroke="#1f77b4" stroke-width="2.5"/>
<text x="858" y="100" font-family="Arial" font-size="13">on_policy_reference_e1_tb256</text>
<polyline fill="none" stroke="#d62728" stroke-width="2.3" points="95.0,555.4 110.7,481.9 126.1,455.2 140.9,467.4 156.0,425.1 170.5,429.2 186.0,413.6 201.8,408.3 218.7,413.6 234.0,395.6 249.7,395.0 266.1,391.0 283.0,389.8 300.0,374.2 316.6,389.2 332.7,383.4 350.3,409.5 368.0,387.5 386.3,378.2 404.3,382.9 422.6,388.7 440.7,382.9 460.7,387.5 479.9,399.1 497.5,403.1 515.3,395.0 533.9,407.2 551.4,410.1 569.9,415.9 589.2,415.9 607.7,403.7 624.9,404.3 645.0,407.8 662.9,398.5 680.4,407.8 698.0,398.5 716.0,394.4 732.4,399.7 748.7,387.5 774.2,578.0 800.0,578.0"/>
<circle cx="95.0" cy="555.4" r="3" fill="#d62728"/>
<circle cx="110.7" cy="481.9" r="3" fill="#d62728"/>
<circle cx="126.1" cy="455.2" r="3" fill="#d62728"/>
<circle cx="140.9" cy="467.4" r="3" fill="#d62728"/>
<circle cx="156.0" cy="425.1" r="3" fill="#d62728"/>
<circle cx="170.5" cy="429.2" r="3" fill="#d62728"/>
<circle cx="186.0" cy="413.6" r="3" fill="#d62728"/>
<circle cx="201.8" cy="408.3" r="3" fill="#d62728"/>
<circle cx="218.7" cy="413.6" r="3" fill="#d62728"/>
<circle cx="234.0" cy="395.6" r="3" fill="#d62728"/>
<circle cx="249.7" cy="395.0" r="3" fill="#d62728"/>
<circle cx="266.1" cy="391.0" r="3" fill="#d62728"/>
<circle cx="283.0" cy="389.8" r="3" fill="#d62728"/>
<circle cx="300.0" cy="374.2" r="3" fill="#d62728"/>
<circle cx="316.6" cy="389.2" r="3" fill="#d62728"/>
<circle cx="332.7" cy="383.4" r="3" fill="#d62728"/>
<circle cx="350.3" cy="409.5" r="3" fill="#d62728"/>
<circle cx="368.0" cy="387.5" r="3" fill="#d62728"/>
<circle cx="386.3" cy="378.2" r="3" fill="#d62728"/>
<circle cx="404.3" cy="382.9" r="3" fill="#d62728"/>
<circle cx="422.6" cy="388.7" r="3" fill="#d62728"/>
<circle cx="440.7" cy="382.9" r="3" fill="#d62728"/>
<circle cx="460.7" cy="387.5" r="3" fill="#d62728"/>
<circle cx="479.9" cy="399.1" r="3" fill="#d62728"/>
<circle cx="497.5" cy="403.1" r="3" fill="#d62728"/>
<circle cx="515.3" cy="395.0" r="3" fill="#d62728"/>
<circle cx="533.9" cy="407.2" r="3" fill="#d62728"/>
<circle cx="551.4" cy="410.1" r="3" fill="#d62728"/>
<circle cx="569.9" cy="415.9" r="3" fill="#d62728"/>
<circle cx="589.2" cy="415.9" r="3" fill="#d62728"/>
<circle cx="607.7" cy="403.7" r="3" fill="#d62728"/>
<circle cx="624.9" cy="404.3" r="3" fill="#d62728"/>
<circle cx="645.0" cy="407.8" r="3" fill="#d62728"/>
<circle cx="662.9" cy="398.5" r="3" fill="#d62728"/>
<circle cx="680.4" cy="407.8" r="3" fill="#d62728"/>
<circle cx="698.0" cy="398.5" r="3" fill="#d62728"/>
<circle cx="716.0" cy="394.4" r="3" fill="#d62728"/>
<circle cx="732.4" cy="399.7" r="3" fill="#d62728"/>
<circle cx="748.7" cy="387.5" r="3" fill="#d62728"/>
<circle cx="774.2" cy="578.0" r="3" fill="#d62728"/>
<circle cx="800.0" cy="578.0" r="3" fill="#d62728"/>
<line x1="828" y1="120" x2="850" y2="120" stroke="#d62728" stroke-width="2.5"/>
<text x="858" y="124" font-family="Arial" font-size="13">focused_e2_tb256</text>
<text x="447.5" y="638" text-anchor="middle" font-family="Arial" font-size="15">Wall-clock time (minutes)</text>
<text x="24" y="326.0" text-anchor="middle" font-family="Arial" font-size="15" transform="rotate(-90 24 326.0)">Validation answer reward</text>
</svg>
