<svg xmlns="http://www.w3.org/2000/svg" width="1100" height="660" viewBox="0 0 1100 660">
<rect width="100%" height="100%" fill="white"/>
<text x="550.0" y="36" text-anchor="middle" font-family="Arial" font-size="22" font-weight="700">On-policy vs off-policy focused comparison: token entropy</text>
<line x1="95" y1="578" x2="800" y2="578" stroke="#222" stroke-width="1.5"/>
<line x1="95" y1="74" x2="95" y2="578" stroke="#222" stroke-width="1.5"/>
<line x1="90" y1="578.0" x2="800" y2="578.0" stroke="#ddd" stroke-width="1"/>
<text x="83" y="582.0" text-anchor="end" font-family="Arial" font-size="12">0.00</text>
<line x1="90" y1="477.2" x2="800" y2="477.2" stroke="#ddd" stroke-width="1"/>
<text x="83" y="481.2" text-anchor="end" font-family="Arial" font-size="12">0.86</text>
<line x1="90" y1="376.4" x2="800" y2="376.4" stroke="#ddd" stroke-width="1"/>
<text x="83" y="380.4" text-anchor="end" font-family="Arial" font-size="12">1.72</text>
<line x1="90" y1="275.6" x2="800" y2="275.6" stroke="#ddd" stroke-width="1"/>
<text x="83" y="279.6" text-anchor="end" font-family="Arial" font-size="12">2.58</text>
<line x1="90" y1="174.8" x2="800" y2="174.8" stroke="#ddd" stroke-width="1"/>
<text x="83" y="178.8" text-anchor="end" font-family="Arial" font-size="12">3.44</text>
<line x1="90" y1="74.0" x2="800" y2="74.0" stroke="#ddd" stroke-width="1"/>
<text x="83" y="78.0" text-anchor="end" font-family="Arial" font-size="12">4.30</text>
<line x1="95.0" y1="578" x2="95.0" y2="583" stroke="#222" stroke-width="1"/>
<text x="95.0" y="602" text-anchor="middle" font-family="Arial" font-size="12">1</text>
<line x1="236.0" y1="578" x2="236.0" y2="583" stroke="#222" stroke-width="1"/>
<text x="236.0" y="602" text-anchor="middle" font-family="Arial" font-size="12">41</text>
<line x1="377.0" y1="578" x2="377.0" y2="583" stroke="#222" stroke-width="1"/>
<text x="377.0" y="602" text-anchor="middle" font-family="Arial" font-size="12">81</text>
<line x1="518.0" y1="578" x2="518.0" y2="583" stroke="#222" stroke-width="1"/>
<text x="518.0" y="602" text-anchor="middle" font-family="Arial" font-size="12">120</text>
<line x1="659.0" y1="578" x2="659.0" y2="583" stroke="#222" stroke-width="1"/>
<text x="659.0" y="602" text-anchor="middle" font-family="Arial" font-size="12">160</text>
<line x1="800.0" y1="578" x2="800.0" y2="583" stroke="#222" stroke-width="1"/>
<text x="800.0" y="602" text-anchor="middle" font-family="Arial" font-size="12">200</text>
<polyline fill="none" stroke="#1f77b4" stroke-width="2.3" points="95.0,469.3 98.5,526.7 102.1,517.7 105.6,524.1 109.2,523.8 112.7,527.5 116.3,536.9 119.8,530.6 123.3,535.4 126.9,536.3 130.4,538.2 134.0,539.0 137.5,540.3 141.1,540.6 144.6,543.0 148.1,546.7 151.7,543.2 155.2,542.6 158.8,550.5 162.3,544.1 165.9,545.2 169.4,547.2 172.9,548.7 176.5,550.8 180.0,549.3 183.6,549.1 187.1,551.9 190.7,550.7 194.2,551.0 197.7,553.5 201.3,554.8 204.8,554.6 208.4,555.6 211.9,553.9 215.5,552.9 219.0,552.5 222.5,555.3 226.1,555.9 229.6,558.2 233.2,555.7 236.7,557.9 240.3,557.7 243.8,561.7 247.3,557.5 250.9,559.3 254.4,559.5 258.0,560.0 261.5,563.0 265.1,564.0 268.6,562.8 272.1,565.7 275.7,564.7 279.2,567.9 282.8,565.8 286.3,562.7 289.8,565.9 293.4,563.7 296.9,566.6 300.5,566.8 304.0,538.7 307.6,561.5 311.1,452.3 314.6,514.1 318.2,349.3 321.7,128.8 325.3,75.1 328.8,251.5 332.4,572.0 335.9,573.1 339.4,564.3 343.0,96.3 346.5,257.9 350.1,211.8 353.6,305.1 357.2,508.8 360.7,520.6 364.2,464.0 367.8,413.6 371.3,473.3 374.9,547.1 378.4,539.9 382.0,511.4 385.5,496.6 389.0,448.7 392.6,474.7 396.1,520.9 399.7,501.6 403.2,388.2 406.8,337.4 410.3,369.6 413.8,447.9 417.4,435.7 420.9,424.8 424.5,503.7 428.0,526.0 431.6,538.3 435.1,547.6 438.6,553.3 442.2,562.9 445.7,565.6 449.3,571.4 452.8,570.8 456.4,571.4 459.9,569.3 463.4,568.1 467.0,568.4 470.5,567.1 474.1,566.9 477.6,566.8 481.2,568.2 484.7,569.1 488.2,569.8 491.8,570.7 495.3,570.3 498.9,569.0 502.4,568.7 506.0,568.6 509.5,569.0 513.0,570.1 516.6,565.7 520.1,568.9 523.7,567.7 527.2,568.2 530.8,567.9 534.3,570.1 537.8,570.1 541.4,571.3 544.9,570.9 548.5,572.1 552.0,571.9 555.6,569.5 559.1,571.2 562.6,568.3 566.2,568.2 569.7,569.4 573.3,568.5 576.8,567.3 580.4,566.4 583.9,568.1 587.4,571.8 591.0,570.2 594.5,571.2 598.1,571.9 601.6,571.8 605.2,571.7 608.7,572.1 612.2,571.4 615.8,571.8 619.3,571.8 622.9,571.8 626.4,570.7 629.9,571.9 633.5,569.1 637.0,571.4 640.6,571.3 644.1,571.8 647.7,573.3 651.2,573.0 654.7,573.1 658.3,573.4 661.8,572.5 665.4,572.2 668.9,573.1 672.5,572.1 676.0,571.6 679.5,572.4 683.1,571.9 686.6,571.0 690.2,570.8 693.7,569.6 697.3,570.0 700.8,569.1 704.3,570.1 707.9,570.5 711.4,569.2 715.0,569.1 718.5,569.7 722.1,570.6 725.6,569.7 729.1,572.0 732.7,571.2 736.2,571.2 739.8,571.6 743.3,572.2 746.9,572.0 750.4,572.3 753.9,571.6 757.5,572.3 761.0,572.0 764.6,572.5 768.1,572.8 771.7,572.3 775.2,571.9 778.7,572.4 782.3,571.6 785.8,572.3 789.4,571.6 792.9,572.5 796.5,572.5 800.0,572.9"/>
<circle cx="95.0" cy="469.3" r="3" fill="#1f77b4"/>
<circle cx="98.5" cy="526.7" r="3" fill="#1f77b4"/>
<circle cx="102.1" cy="517.7" r="3" fill="#1f77b4"/>
<circle cx="105.6" cy="524.1" r="3" fill="#1f77b4"/>
<circle cx="109.2" cy="523.8" r="3" fill="#1f77b4"/>
<circle cx="112.7" cy="527.5" r="3" fill="#1f77b4"/>
<circle cx="116.3" cy="536.9" r="3" fill="#1f77b4"/>
<circle cx="119.8" cy="530.6" r="3" fill="#1f77b4"/>
<circle cx="123.3" cy="535.4" r="3" fill="#1f77b4"/>
<circle cx="126.9" cy="536.3" r="3" fill="#1f77b4"/>
<circle cx="130.4" cy="538.2" r="3" fill="#1f77b4"/>
<circle cx="134.0" cy="539.0" r="3" fill="#1f77b4"/>
<circle cx="137.5" cy="540.3" r="3" fill="#1f77b4"/>
<circle cx="141.1" cy="540.6" r="3" fill="#1f77b4"/>
<circle cx="144.6" cy="543.0" r="3" fill="#1f77b4"/>
<circle cx="148.1" cy="546.7" r="3" fill="#1f77b4"/>
<circle cx="151.7" cy="543.2" r="3" fill="#1f77b4"/>
<circle cx="155.2" cy="542.6" r="3" fill="#1f77b4"/>
<circle cx="158.8" cy="550.5" r="3" fill="#1f77b4"/>
<circle cx="162.3" cy="544.1" r="3" fill="#1f77b4"/>
<circle cx="165.9" cy="545.2" r="3" fill="#1f77b4"/>
<circle cx="169.4" cy="547.2" r="3" fill="#1f77b4"/>
<circle cx="172.9" cy="548.7" r="3" fill="#1f77b4"/>
<circle cx="176.5" cy="550.8" r="3" fill="#1f77b4"/>
<circle cx="180.0" cy="549.3" r="3" fill="#1f77b4"/>
<circle cx="183.6" cy="549.1" r="3" fill="#1f77b4"/>
<circle cx="187.1" cy="551.9" r="3" fill="#1f77b4"/>
<circle cx="190.7" cy="550.7" r="3" fill="#1f77b4"/>
<circle cx="194.2" cy="551.0" r="3" fill="#1f77b4"/>
<circle cx="197.7" cy="553.5" r="3" fill="#1f77b4"/>
<circle cx="201.3" cy="554.8" r="3" fill="#1f77b4"/>
<circle cx="204.8" cy="554.6" r="3" fill="#1f77b4"/>
<circle cx="208.4" cy="555.6" r="3" fill="#1f77b4"/>
<circle cx="211.9" cy="553.9" r="3" fill="#1f77b4"/>
<circle cx="215.5" cy="552.9" r="3" fill="#1f77b4"/>
<circle cx="219.0" cy="552.5" r="3" fill="#1f77b4"/>
<circle cx="222.5" cy="555.3" r="3" fill="#1f77b4"/>
<circle cx="226.1" cy="555.9" r="3" fill="#1f77b4"/>
<circle cx="229.6" cy="558.2" r="3" fill="#1f77b4"/>
<circle cx="233.2" cy="555.7" r="3" fill="#1f77b4"/>
<circle cx="236.7" cy="557.9" r="3" fill="#1f77b4"/>
<circle cx="240.3" cy="557.7" r="3" fill="#1f77b4"/>
<circle cx="243.8" cy="561.7" r="3" fill="#1f77b4"/>
<circle cx="247.3" cy="557.5" r="3" fill="#1f77b4"/>
<circle cx="250.9" cy="559.3" r="3" fill="#1f77b4"/>
<circle cx="254.4" cy="559.5" r="3" fill="#1f77b4"/>
<circle cx="258.0" cy="560.0" r="3" fill="#1f77b4"/>
<circle cx="261.5" cy="563.0" r="3" fill="#1f77b4"/>
<circle cx="265.1" cy="564.0" r="3" fill="#1f77b4"/>
<circle cx="268.6" cy="562.8" r="3" fill="#1f77b4"/>
<circle cx="272.1" cy="565.7" r="3" fill="#1f77b4"/>
<circle cx="275.7" cy="564.7" r="3" fill="#1f77b4"/>
<circle cx="279.2" cy="567.9" r="3" fill="#1f77b4"/>
<circle cx="282.8" cy="565.8" r="3" fill="#1f77b4"/>
<circle cx="286.3" cy="562.7" r="3" fill="#1f77b4"/>
<circle cx="289.8" cy="565.9" r="3" fill="#1f77b4"/>
<circle cx="293.4" cy="563.7" r="3" fill="#1f77b4"/>
<circle cx="296.9" cy="566.6" r="3" fill="#1f77b4"/>
<circle cx="300.5" cy="566.8" r="3" fill="#1f77b4"/>
<circle cx="304.0" cy="538.7" r="3" fill="#1f77b4"/>
<circle cx="307.6" cy="561.5" r="3" fill="#1f77b4"/>
<circle cx="311.1" cy="452.3" r="3" fill="#1f77b4"/>
<circle cx="314.6" cy="514.1" r="3" fill="#1f77b4"/>
<circle cx="318.2" cy="349.3" r="3" fill="#1f77b4"/>
<circle cx="321.7" cy="128.8" r="3" fill="#1f77b4"/>
<circle cx="325.3" cy="75.1" r="3" fill="#1f77b4"/>
<circle cx="328.8" cy="251.5" r="3" fill="#1f77b4"/>
<circle cx="332.4" cy="572.0" r="3" fill="#1f77b4"/>
<circle cx="335.9" cy="573.1" r="3" fill="#1f77b4"/>
<circle cx="339.4" cy="564.3" r="3" fill="#1f77b4"/>
<circle cx="343.0" cy="96.3" r="3" fill="#1f77b4"/>
<circle cx="346.5" cy="257.9" r="3" fill="#1f77b4"/>
<circle cx="350.1" cy="211.8" r="3" fill="#1f77b4"/>
<circle cx="353.6" cy="305.1" r="3" fill="#1f77b4"/>
<circle cx="357.2" cy="508.8" r="3" fill="#1f77b4"/>
<circle cx="360.7" cy="520.6" r="3" fill="#1f77b4"/>
<circle cx="364.2" cy="464.0" r="3" fill="#1f77b4"/>
<circle cx="367.8" cy="413.6" r="3" fill="#1f77b4"/>
<circle cx="371.3" cy="473.3" r="3" fill="#1f77b4"/>
<circle cx="374.9" cy="547.1" r="3" fill="#1f77b4"/>
<circle cx="378.4" cy="539.9" r="3" fill="#1f77b4"/>
<circle cx="382.0" cy="511.4" r="3" fill="#1f77b4"/>
<circle cx="385.5" cy="496.6" r="3" fill="#1f77b4"/>
<circle cx="389.0" cy="448.7" r="3" fill="#1f77b4"/>
<circle cx="392.6" cy="474.7" r="3" fill="#1f77b4"/>
<circle cx="396.1" cy="520.9" r="3" fill="#1f77b4"/>
<circle cx="399.7" cy="501.6" r="3" fill="#1f77b4"/>
<circle cx="403.2" cy="388.2" r="3" fill="#1f77b4"/>
<circle cx="406.8" cy="337.4" r="3" fill="#1f77b4"/>
<circle cx="410.3" cy="369.6" r="3" fill="#1f77b4"/>
<circle cx="413.8" cy="447.9" r="3" fill="#1f77b4"/>
<circle cx="417.4" cy="435.7" r="3" fill="#1f77b4"/>
<circle cx="420.9" cy="424.8" r="3" fill="#1f77b4"/>
<circle cx="424.5" cy="503.7" r="3" fill="#1f77b4"/>
<circle cx="428.0" cy="526.0" r="3" fill="#1f77b4"/>
<circle cx="431.6" cy="538.3" r="3" fill="#1f77b4"/>
<circle cx="435.1" cy="547.6" r="3" fill="#1f77b4"/>
<circle cx="438.6" cy="553.3" r="3" fill="#1f77b4"/>
<circle cx="442.2" cy="562.9" r="3" fill="#1f77b4"/>
<circle cx="445.7" cy="565.6" r="3" fill="#1f77b4"/>
<circle cx="449.3" cy="571.4" r="3" fill="#1f77b4"/>
<circle cx="452.8" cy="570.8" r="3" fill="#1f77b4"/>
<circle cx="456.4" cy="571.4" r="3" fill="#1f77b4"/>
<circle cx="459.9" cy="569.3" r="3" fill="#1f77b4"/>
<circle cx="463.4" cy="568.1" r="3" fill="#1f77b4"/>
<circle cx="467.0" cy="568.4" r="3" fill="#1f77b4"/>
<circle cx="470.5" cy="567.1" r="3" fill="#1f77b4"/>
<circle cx="474.1" cy="566.9" r="3" fill="#1f77b4"/>
<circle cx="477.6" cy="566.8" r="3" fill="#1f77b4"/>
<circle cx="481.2" cy="568.2" r="3" fill="#1f77b4"/>
<circle cx="484.7" cy="569.1" r="3" fill="#1f77b4"/>
<circle cx="488.2" cy="569.8" r="3" fill="#1f77b4"/>
<circle cx="491.8" cy="570.7" r="3" fill="#1f77b4"/>
<circle cx="495.3" cy="570.3" r="3" fill="#1f77b4"/>
<circle cx="498.9" cy="569.0" r="3" fill="#1f77b4"/>
<circle cx="502.4" cy="568.7" r="3" fill="#1f77b4"/>
<circle cx="506.0" cy="568.6" r="3" fill="#1f77b4"/>
<circle cx="509.5" cy="569.0" r="3" fill="#1f77b4"/>
<circle cx="513.0" cy="570.1" r="3" fill="#1f77b4"/>
<circle cx="516.6" cy="565.7" r="3" fill="#1f77b4"/>
<circle cx="520.1" cy="568.9" r="3" fill="#1f77b4"/>
<circle cx="523.7" cy="567.7" r="3" fill="#1f77b4"/>
<circle cx="527.2" cy="568.2" r="3" fill="#1f77b4"/>
<circle cx="530.8" cy="567.9" r="3" fill="#1f77b4"/>
<circle cx="534.3" cy="570.1" r="3" fill="#1f77b4"/>
<circle cx="537.8" cy="570.1" r="3" fill="#1f77b4"/>
<circle cx="541.4" cy="571.3" r="3" fill="#1f77b4"/>
<circle cx="544.9" cy="570.9" r="3" fill="#1f77b4"/>
<circle cx="548.5" cy="572.1" r="3" fill="#1f77b4"/>
<circle cx="552.0" cy="571.9" r="3" fill="#1f77b4"/>
<circle cx="555.6" cy="569.5" r="3" fill="#1f77b4"/>
<circle cx="559.1" cy="571.2" r="3" fill="#1f77b4"/>
<circle cx="562.6" cy="568.3" r="3" fill="#1f77b4"/>
<circle cx="566.2" cy="568.2" r="3" fill="#1f77b4"/>
<circle cx="569.7" cy="569.4" r="3" fill="#1f77b4"/>
<circle cx="573.3" cy="568.5" r="3" fill="#1f77b4"/>
<circle cx="576.8" cy="567.3" r="3" fill="#1f77b4"/>
<circle cx="580.4" cy="566.4" r="3" fill="#1f77b4"/>
<circle cx="583.9" cy="568.1" r="3" fill="#1f77b4"/>
<circle cx="587.4" cy="571.8" r="3" fill="#1f77b4"/>
<circle cx="591.0" cy="570.2" r="3" fill="#1f77b4"/>
<circle cx="594.5" cy="571.2" r="3" fill="#1f77b4"/>
<circle cx="598.1" cy="571.9" r="3" fill="#1f77b4"/>
<circle cx="601.6" cy="571.8" r="3" fill="#1f77b4"/>
<circle cx="605.2" cy="571.7" r="3" fill="#1f77b4"/>
<circle cx="608.7" cy="572.1" r="3" fill="#1f77b4"/>
<circle cx="612.2" cy="571.4" r="3" fill="#1f77b4"/>
<circle cx="615.8" cy="571.8" r="3" fill="#1f77b4"/>
<circle cx="619.3" cy="571.8" r="3" fill="#1f77b4"/>
<circle cx="622.9" cy="571.8" r="3" fill="#1f77b4"/>
<circle cx="626.4" cy="570.7" r="3" fill="#1f77b4"/>
<circle cx="629.9" cy="571.9" r="3" fill="#1f77b4"/>
<circle cx="633.5" cy="569.1" r="3" fill="#1f77b4"/>
<circle cx="637.0" cy="571.4" r="3" fill="#1f77b4"/>
<circle cx="640.6" cy="571.3" r="3" fill="#1f77b4"/>
<circle cx="644.1" cy="571.8" r="3" fill="#1f77b4"/>
<circle cx="647.7" cy="573.3" r="3" fill="#1f77b4"/>
<circle cx="651.2" cy="573.0" r="3" fill="#1f77b4"/>
<circle cx="654.7" cy="573.1" r="3" fill="#1f77b4"/>
<circle cx="658.3" cy="573.4" r="3" fill="#1f77b4"/>
<circle cx="661.8" cy="572.5" r="3" fill="#1f77b4"/>
<circle cx="665.4" cy="572.2" r="3" fill="#1f77b4"/>
<circle cx="668.9" cy="573.1" r="3" fill="#1f77b4"/>
<circle cx="672.5" cy="572.1" r="3" fill="#1f77b4"/>
<circle cx="676.0" cy="571.6" r="3" fill="#1f77b4"/>
<circle cx="679.5" cy="572.4" r="3" fill="#1f77b4"/>
<circle cx="683.1" cy="571.9" r="3" fill="#1f77b4"/>
<circle cx="686.6" cy="571.0" r="3" fill="#1f77b4"/>
<circle cx="690.2" cy="570.8" r="3" fill="#1f77b4"/>
<circle cx="693.7" cy="569.6" r="3" fill="#1f77b4"/>
<circle cx="697.3" cy="570.0" r="3" fill="#1f77b4"/>
<circle cx="700.8" cy="569.1" r="3" fill="#1f77b4"/>
<circle cx="704.3" cy="570.1" r="3" fill="#1f77b4"/>
<circle cx="707.9" cy="570.5" r="3" fill="#1f77b4"/>
<circle cx="711.4" cy="569.2" r="3" fill="#1f77b4"/>
<circle cx="715.0" cy="569.1" r="3" fill="#1f77b4"/>
<circle cx="718.5" cy="569.7" r="3" fill="#1f77b4"/>
<circle cx="722.1" cy="570.6" r="3" fill="#1f77b4"/>
<circle cx="725.6" cy="569.7" r="3" fill="#1f77b4"/>
<circle cx="729.1" cy="572.0" r="3" fill="#1f77b4"/>
<circle cx="732.7" cy="571.2" r="3" fill="#1f77b4"/>
<circle cx="736.2" cy="571.2" r="3" fill="#1f77b4"/>
<circle cx="739.8" cy="571.6" r="3" fill="#1f77b4"/>
<circle cx="743.3" cy="572.2" r="3" fill="#1f77b4"/>
<circle cx="746.9" cy="572.0" r="3" fill="#1f77b4"/>
<circle cx="750.4" cy="572.3" r="3" fill="#1f77b4"/>
<circle cx="753.9" cy="571.6" r="3" fill="#1f77b4"/>
<circle cx="757.5" cy="572.3" r="3" fill="#1f77b4"/>
<circle cx="761.0" cy="572.0" r="3" fill="#1f77b4"/>
<circle cx="764.6" cy="572.5" r="3" fill="#1f77b4"/>
<circle cx="768.1" cy="572.8" r="3" fill="#1f77b4"/>
<circle cx="771.7" cy="572.3" r="3" fill="#1f77b4"/>
<circle cx="775.2" cy="571.9" r="3" fill="#1f77b4"/>
<circle cx="778.7" cy="572.4" r="3" fill="#1f77b4"/>
<circle cx="782.3" cy="571.6" r="3" fill="#1f77b4"/>
<circle cx="785.8" cy="572.3" r="3" fill="#1f77b4"/>
<circle cx="789.4" cy="571.6" r="3" fill="#1f77b4"/>
<circle cx="792.9" cy="572.5" r="3" fill="#1f77b4"/>
<circle cx="796.5" cy="572.5" r="3" fill="#1f77b4"/>
<circle cx="800.0" cy="572.9" r="3" fill="#1f77b4"/>
<line x1="828" y1="96" x2="850" y2="96" stroke="#1f77b4" stroke-width="2.5"/>
<text x="858" y="100" font-family="Arial" font-size="13">on_policy_reference_e1_tb256</text>
<polyline fill="none" stroke="#d62728" stroke-width="2.3" points="95.0,497.2 98.5,499.4 102.1,516.3 105.6,522.7 109.2,519.3 112.7,531.4 116.3,535.7 119.8,531.7 123.3,539.9 126.9,546.2 130.4,538.4 134.0,544.5 137.5,538.1 141.1,542.7 144.6,548.2 148.1,546.8 151.7,546.4 155.2,550.6 158.8,546.9 162.3,552.4 165.9,551.7 169.4,549.6 172.9,552.8 176.5,552.7 180.0,554.1 183.6,553.8 187.1,553.9 190.7,556.5 194.2,555.3 197.7,555.6 201.3,555.1 204.8,556.4 208.4,557.6 211.9,558.8 215.5,556.1 219.0,559.4 222.5,559.0 226.1,558.9 229.6,559.0 233.2,555.3 236.7,557.2 240.3,558.7 243.8,559.7 247.3,557.7 250.9,557.1 254.4,558.2 258.0,557.6 261.5,556.5 265.1,556.3 268.6,557.3 272.1,556.3 275.7,557.7 279.2,554.7 282.8,555.9 286.3,554.0 289.8,557.2 293.4,553.6 296.9,555.1 300.5,556.6 304.0,556.0 307.6,556.6 311.1,556.0 314.6,555.6 318.2,555.9 321.7,555.5 325.3,557.0 328.8,556.0 332.4,555.6 335.9,556.7 339.4,555.5 343.0,558.6 346.5,558.2 350.1,559.5 353.6,558.7 357.2,560.2 360.7,559.9 364.2,566.4 367.8,563.7 371.3,565.8 374.9,568.0 378.4,562.2 382.0,562.0 385.5,565.3 389.0,564.9 392.6,560.8 396.1,559.8 399.7,558.2 403.2,558.5 406.8,559.8 410.3,560.4 413.8,560.9 417.4,559.1 420.9,562.4 424.5,563.3 428.0,560.8 431.6,558.5 435.1,564.8 438.6,562.8 442.2,564.3 445.7,566.8 449.3,563.6 452.8,566.2 456.4,565.6 459.9,561.9 463.4,558.5 467.0,563.7 470.5,563.9 474.1,568.5 477.6,567.8 481.2,568.0 484.7,568.7 488.2,562.8 491.8,565.0 495.3,562.5 498.9,562.6 502.4,552.4 506.0,556.7 509.5,557.1 513.0,555.7 516.6,556.7 520.1,557.0 523.7,558.6 527.2,563.0 530.8,567.6 534.3,566.0 537.8,562.4 541.4,564.5 544.9,564.2 548.5,566.1 552.0,562.5 555.6,563.3 559.1,559.8 562.6,556.8 566.2,556.4 569.7,556.5 573.3,560.5 576.8,558.9 580.4,557.0 583.9,560.6 587.4,556.3 591.0,566.1 594.5,561.3 598.1,564.2 601.6,565.8 605.2,565.6 608.7,564.7 612.2,560.6 615.8,558.7 619.3,564.3 622.9,565.0 626.4,561.2 629.9,556.6 633.5,559.5 637.0,565.1 640.6,562.8 644.1,561.5 647.7,560.6 651.2,562.7 654.7,558.7 658.3,564.0 661.8,562.2 665.4,562.4 668.9,561.8 672.5,564.0 676.0,562.5 679.5,560.4 683.1,559.4 686.6,561.3 690.2,556.3 693.7,556.5 697.3,560.9 700.8,558.3 704.3,557.7 707.9,557.9 711.4,558.3 715.0,554.5 718.5,556.4 722.1,558.0 725.6,557.3 729.1,561.2 732.7,562.7 736.2,562.5 739.8,562.3 743.3,563.0 746.9,559.9 750.4,558.8 753.9,561.9 757.5,565.5 761.0,568.7 764.6,568.3 768.1,568.9 771.7,568.3 775.2,566.2 778.7,566.8 782.3,561.4"/>
<circle cx="95.0" cy="497.2" r="3" fill="#d62728"/>
<circle cx="98.5" cy="499.4" r="3" fill="#d62728"/>
<circle cx="102.1" cy="516.3" r="3" fill="#d62728"/>
<circle cx="105.6" cy="522.7" r="3" fill="#d62728"/>
<circle cx="109.2" cy="519.3" r="3" fill="#d62728"/>
<circle cx="112.7" cy="531.4" r="3" fill="#d62728"/>
<circle cx="116.3" cy="535.7" r="3" fill="#d62728"/>
<circle cx="119.8" cy="531.7" r="3" fill="#d62728"/>
<circle cx="123.3" cy="539.9" r="3" fill="#d62728"/>
<circle cx="126.9" cy="546.2" r="3" fill="#d62728"/>
<circle cx="130.4" cy="538.4" r="3" fill="#d62728"/>
<circle cx="134.0" cy="544.5" r="3" fill="#d62728"/>
<circle cx="137.5" cy="538.1" r="3" fill="#d62728"/>
<circle cx="141.1" cy="542.7" r="3" fill="#d62728"/>
<circle cx="144.6" cy="548.2" r="3" fill="#d62728"/>
<circle cx="148.1" cy="546.8" r="3" fill="#d62728"/>
<circle cx="151.7" cy="546.4" r="3" fill="#d62728"/>
<circle cx="155.2" cy="550.6" r="3" fill="#d62728"/>
<circle cx="158.8" cy="546.9" r="3" fill="#d62728"/>
<circle cx="162.3" cy="552.4" r="3" fill="#d62728"/>
<circle cx="165.9" cy="551.7" r="3" fill="#d62728"/>
<circle cx="169.4" cy="549.6" r="3" fill="#d62728"/>
<circle cx="172.9" cy="552.8" r="3" fill="#d62728"/>
<circle cx="176.5" cy="552.7" r="3" fill="#d62728"/>
<circle cx="180.0" cy="554.1" r="3" fill="#d62728"/>
<circle cx="183.6" cy="553.8" r="3" fill="#d62728"/>
<circle cx="187.1" cy="553.9" r="3" fill="#d62728"/>
<circle cx="190.7" cy="556.5" r="3" fill="#d62728"/>
<circle cx="194.2" cy="555.3" r="3" fill="#d62728"/>
<circle cx="197.7" cy="555.6" r="3" fill="#d62728"/>
<circle cx="201.3" cy="555.1" r="3" fill="#d62728"/>
<circle cx="204.8" cy="556.4" r="3" fill="#d62728"/>
<circle cx="208.4" cy="557.6" r="3" fill="#d62728"/>
<circle cx="211.9" cy="558.8" r="3" fill="#d62728"/>
<circle cx="215.5" cy="556.1" r="3" fill="#d62728"/>
<circle cx="219.0" cy="559.4" r="3" fill="#d62728"/>
<circle cx="222.5" cy="559.0" r="3" fill="#d62728"/>
<circle cx="226.1" cy="558.9" r="3" fill="#d62728"/>
<circle cx="229.6" cy="559.0" r="3" fill="#d62728"/>
<circle cx="233.2" cy="555.3" r="3" fill="#d62728"/>
<circle cx="236.7" cy="557.2" r="3" fill="#d62728"/>
<circle cx="240.3" cy="558.7" r="3" fill="#d62728"/>
<circle cx="243.8" cy="559.7" r="3" fill="#d62728"/>
<circle cx="247.3" cy="557.7" r="3" fill="#d62728"/>
<circle cx="250.9" cy="557.1" r="3" fill="#d62728"/>
<circle cx="254.4" cy="558.2" r="3" fill="#d62728"/>
<circle cx="258.0" cy="557.6" r="3" fill="#d62728"/>
<circle cx="261.5" cy="556.5" r="3" fill="#d62728"/>
<circle cx="265.1" cy="556.3" r="3" fill="#d62728"/>
<circle cx="268.6" cy="557.3" r="3" fill="#d62728"/>
<circle cx="272.1" cy="556.3" r="3" fill="#d62728"/>
<circle cx="275.7" cy="557.7" r="3" fill="#d62728"/>
<circle cx="279.2" cy="554.7" r="3" fill="#d62728"/>
<circle cx="282.8" cy="555.9" r="3" fill="#d62728"/>
<circle cx="286.3" cy="554.0" r="3" fill="#d62728"/>
<circle cx="289.8" cy="557.2" r="3" fill="#d62728"/>
<circle cx="293.4" cy="553.6" r="3" fill="#d62728"/>
<circle cx="296.9" cy="555.1" r="3" fill="#d62728"/>
<circle cx="300.5" cy="556.6" r="3" fill="#d62728"/>
<circle cx="304.0" cy="556.0" r="3" fill="#d62728"/>
<circle cx="307.6" cy="556.6" r="3" fill="#d62728"/>
<circle cx="311.1" cy="556.0" r="3" fill="#d62728"/>
<circle cx="314.6" cy="555.6" r="3" fill="#d62728"/>
<circle cx="318.2" cy="555.9" r="3" fill="#d62728"/>
<circle cx="321.7" cy="555.5" r="3" fill="#d62728"/>
<circle cx="325.3" cy="557.0" r="3" fill="#d62728"/>
<circle cx="328.8" cy="556.0" r="3" fill="#d62728"/>
<circle cx="332.4" cy="555.6" r="3" fill="#d62728"/>
<circle cx="335.9" cy="556.7" r="3" fill="#d62728"/>
<circle cx="339.4" cy="555.5" r="3" fill="#d62728"/>
<circle cx="343.0" cy="558.6" r="3" fill="#d62728"/>
<circle cx="346.5" cy="558.2" r="3" fill="#d62728"/>
<circle cx="350.1" cy="559.5" r="3" fill="#d62728"/>
<circle cx="353.6" cy="558.7" r="3" fill="#d62728"/>
<circle cx="357.2" cy="560.2" r="3" fill="#d62728"/>
<circle cx="360.7" cy="559.9" r="3" fill="#d62728"/>
<circle cx="364.2" cy="566.4" r="3" fill="#d62728"/>
<circle cx="367.8" cy="563.7" r="3" fill="#d62728"/>
<circle cx="371.3" cy="565.8" r="3" fill="#d62728"/>
<circle cx="374.9" cy="568.0" r="3" fill="#d62728"/>
<circle cx="378.4" cy="562.2" r="3" fill="#d62728"/>
<circle cx="382.0" cy="562.0" r="3" fill="#d62728"/>
<circle cx="385.5" cy="565.3" r="3" fill="#d62728"/>
<circle cx="389.0" cy="564.9" r="3" fill="#d62728"/>
<circle cx="392.6" cy="560.8" r="3" fill="#d62728"/>
<circle cx="396.1" cy="559.8" r="3" fill="#d62728"/>
<circle cx="399.7" cy="558.2" r="3" fill="#d62728"/>
<circle cx="403.2" cy="558.5" r="3" fill="#d62728"/>
<circle cx="406.8" cy="559.8" r="3" fill="#d62728"/>
<circle cx="410.3" cy="560.4" r="3" fill="#d62728"/>
<circle cx="413.8" cy="560.9" r="3" fill="#d62728"/>
<circle cx="417.4" cy="559.1" r="3" fill="#d62728"/>
<circle cx="420.9" cy="562.4" r="3" fill="#d62728"/>
<circle cx="424.5" cy="563.3" r="3" fill="#d62728"/>
<circle cx="428.0" cy="560.8" r="3" fill="#d62728"/>
<circle cx="431.6" cy="558.5" r="3" fill="#d62728"/>
<circle cx="435.1" cy="564.8" r="3" fill="#d62728"/>
<circle cx="438.6" cy="562.8" r="3" fill="#d62728"/>
<circle cx="442.2" cy="564.3" r="3" fill="#d62728"/>
<circle cx="445.7" cy="566.8" r="3" fill="#d62728"/>
<circle cx="449.3" cy="563.6" r="3" fill="#d62728"/>
<circle cx="452.8" cy="566.2" r="3" fill="#d62728"/>
<circle cx="456.4" cy="565.6" r="3" fill="#d62728"/>
<circle cx="459.9" cy="561.9" r="3" fill="#d62728"/>
<circle cx="463.4" cy="558.5" r="3" fill="#d62728"/>
<circle cx="467.0" cy="563.7" r="3" fill="#d62728"/>
<circle cx="470.5" cy="563.9" r="3" fill="#d62728"/>
<circle cx="474.1" cy="568.5" r="3" fill="#d62728"/>
<circle cx="477.6" cy="567.8" r="3" fill="#d62728"/>
<circle cx="481.2" cy="568.0" r="3" fill="#d62728"/>
<circle cx="484.7" cy="568.7" r="3" fill="#d62728"/>
<circle cx="488.2" cy="562.8" r="3" fill="#d62728"/>
<circle cx="491.8" cy="565.0" r="3" fill="#d62728"/>
<circle cx="495.3" cy="562.5" r="3" fill="#d62728"/>
<circle cx="498.9" cy="562.6" r="3" fill="#d62728"/>
<circle cx="502.4" cy="552.4" r="3" fill="#d62728"/>
<circle cx="506.0" cy="556.7" r="3" fill="#d62728"/>
<circle cx="509.5" cy="557.1" r="3" fill="#d62728"/>
<circle cx="513.0" cy="555.7" r="3" fill="#d62728"/>
<circle cx="516.6" cy="556.7" r="3" fill="#d62728"/>
<circle cx="520.1" cy="557.0" r="3" fill="#d62728"/>
<circle cx="523.7" cy="558.6" r="3" fill="#d62728"/>
<circle cx="527.2" cy="563.0" r="3" fill="#d62728"/>
<circle cx="530.8" cy="567.6" r="3" fill="#d62728"/>
<circle cx="534.3" cy="566.0" r="3" fill="#d62728"/>
<circle cx="537.8" cy="562.4" r="3" fill="#d62728"/>
<circle cx="541.4" cy="564.5" r="3" fill="#d62728"/>
<circle cx="544.9" cy="564.2" r="3" fill="#d62728"/>
<circle cx="548.5" cy="566.1" r="3" fill="#d62728"/>
<circle cx="552.0" cy="562.5" r="3" fill="#d62728"/>
<circle cx="555.6" cy="563.3" r="3" fill="#d62728"/>
<circle cx="559.1" cy="559.8" r="3" fill="#d62728"/>
<circle cx="562.6" cy="556.8" r="3" fill="#d62728"/>
<circle cx="566.2" cy="556.4" r="3" fill="#d62728"/>
<circle cx="569.7" cy="556.5" r="3" fill="#d62728"/>
<circle cx="573.3" cy="560.5" r="3" fill="#d62728"/>
<circle cx="576.8" cy="558.9" r="3" fill="#d62728"/>
<circle cx="580.4" cy="557.0" r="3" fill="#d62728"/>
<circle cx="583.9" cy="560.6" r="3" fill="#d62728"/>
<circle cx="587.4" cy="556.3" r="3" fill="#d62728"/>
<circle cx="591.0" cy="566.1" r="3" fill="#d62728"/>
<circle cx="594.5" cy="561.3" r="3" fill="#d62728"/>
<circle cx="598.1" cy="564.2" r="3" fill="#d62728"/>
<circle cx="601.6" cy="565.8" r="3" fill="#d62728"/>
<circle cx="605.2" cy="565.6" r="3" fill="#d62728"/>
<circle cx="608.7" cy="564.7" r="3" fill="#d62728"/>
<circle cx="612.2" cy="560.6" r="3" fill="#d62728"/>
<circle cx="615.8" cy="558.7" r="3" fill="#d62728"/>
<circle cx="619.3" cy="564.3" r="3" fill="#d62728"/>
<circle cx="622.9" cy="565.0" r="3" fill="#d62728"/>
<circle cx="626.4" cy="561.2" r="3" fill="#d62728"/>
<circle cx="629.9" cy="556.6" r="3" fill="#d62728"/>
<circle cx="633.5" cy="559.5" r="3" fill="#d62728"/>
<circle cx="637.0" cy="565.1" r="3" fill="#d62728"/>
<circle cx="640.6" cy="562.8" r="3" fill="#d62728"/>
<circle cx="644.1" cy="561.5" r="3" fill="#d62728"/>
<circle cx="647.7" cy="560.6" r="3" fill="#d62728"/>
<circle cx="651.2" cy="562.7" r="3" fill="#d62728"/>
<circle cx="654.7" cy="558.7" r="3" fill="#d62728"/>
<circle cx="658.3" cy="564.0" r="3" fill="#d62728"/>
<circle cx="661.8" cy="562.2" r="3" fill="#d62728"/>
<circle cx="665.4" cy="562.4" r="3" fill="#d62728"/>
<circle cx="668.9" cy="561.8" r="3" fill="#d62728"/>
<circle cx="672.5" cy="564.0" r="3" fill="#d62728"/>
<circle cx="676.0" cy="562.5" r="3" fill="#d62728"/>
<circle cx="679.5" cy="560.4" r="3" fill="#d62728"/>
<circle cx="683.1" cy="559.4" r="3" fill="#d62728"/>
<circle cx="686.6" cy="561.3" r="3" fill="#d62728"/>
<circle cx="690.2" cy="556.3" r="3" fill="#d62728"/>
<circle cx="693.7" cy="556.5" r="3" fill="#d62728"/>
<circle cx="697.3" cy="560.9" r="3" fill="#d62728"/>
<circle cx="700.8" cy="558.3" r="3" fill="#d62728"/>
<circle cx="704.3" cy="557.7" r="3" fill="#d62728"/>
<circle cx="707.9" cy="557.9" r="3" fill="#d62728"/>
<circle cx="711.4" cy="558.3" r="3" fill="#d62728"/>
<circle cx="715.0" cy="554.5" r="3" fill="#d62728"/>
<circle cx="718.5" cy="556.4" r="3" fill="#d62728"/>
<circle cx="722.1" cy="558.0" r="3" fill="#d62728"/>
<circle cx="725.6" cy="557.3" r="3" fill="#d62728"/>
<circle cx="729.1" cy="561.2" r="3" fill="#d62728"/>
<circle cx="732.7" cy="562.7" r="3" fill="#d62728"/>
<circle cx="736.2" cy="562.5" r="3" fill="#d62728"/>
<circle cx="739.8" cy="562.3" r="3" fill="#d62728"/>
<circle cx="743.3" cy="563.0" r="3" fill="#d62728"/>
<circle cx="746.9" cy="559.9" r="3" fill="#d62728"/>
<circle cx="750.4" cy="558.8" r="3" fill="#d62728"/>
<circle cx="753.9" cy="561.9" r="3" fill="#d62728"/>
<circle cx="757.5" cy="565.5" r="3" fill="#d62728"/>
<circle cx="761.0" cy="568.7" r="3" fill="#d62728"/>
<circle cx="764.6" cy="568.3" r="3" fill="#d62728"/>
<circle cx="768.1" cy="568.9" r="3" fill="#d62728"/>
<circle cx="771.7" cy="568.3" r="3" fill="#d62728"/>
<circle cx="775.2" cy="566.2" r="3" fill="#d62728"/>
<circle cx="778.7" cy="566.8" r="3" fill="#d62728"/>
<circle cx="782.3" cy="561.4" r="3" fill="#d62728"/>
<line x1="828" y1="120" x2="850" y2="120" stroke="#d62728" stroke-width="2.5"/>
<text x="858" y="124" font-family="Arial" font-size="13">focused_e2_tb256</text>
<text x="447.5" y="638" text-anchor="middle" font-family="Arial" font-size="15">GRPO step</text>
<text x="24" y="326.0" text-anchor="middle" font-family="Arial" font-size="15" transform="rotate(-90 24 326.0)">Token entropy (nats)</text>
</svg>
