<svg xmlns="http://www.w3.org/2000/svg" width="1040" height="640" viewBox="0 0 1040 640">
<rect width="100%" height="100%" fill="white"/>
<text x="520.0" y="36" text-anchor="middle" font-family="Arial" font-size="22" font-weight="700">GRPO token entropy by baseline choice</text>
<line x1="95" y1="558" x2="780" y2="558" stroke="#222" stroke-width="1.5"/>
<line x1="95" y1="74" x2="95" y2="558" stroke="#222" stroke-width="1.5"/>
<line x1="90" y1="558.0" x2="780" y2="558.0" stroke="#ddd" stroke-width="1"/>
<text x="83" y="562.0" text-anchor="end" font-family="Arial" font-size="12">0.00</text>
<line x1="90" y1="461.2" x2="780" y2="461.2" stroke="#ddd" stroke-width="1"/>
<text x="83" y="465.2" text-anchor="end" font-family="Arial" font-size="12">0.34</text>
<line x1="90" y1="364.4" x2="780" y2="364.4" stroke="#ddd" stroke-width="1"/>
<text x="83" y="368.4" text-anchor="end" font-family="Arial" font-size="12">0.68</text>
<line x1="90" y1="267.6" x2="780" y2="267.6" stroke="#ddd" stroke-width="1"/>
<text x="83" y="271.6" text-anchor="end" font-family="Arial" font-size="12">1.02</text>
<line x1="90" y1="170.8" x2="780" y2="170.8" stroke="#ddd" stroke-width="1"/>
<text x="83" y="174.8" text-anchor="end" font-family="Arial" font-size="12">1.36</text>
<line x1="90" y1="74.0" x2="780" y2="74.0" stroke="#ddd" stroke-width="1"/>
<text x="83" y="78.0" text-anchor="end" font-family="Arial" font-size="12">1.70</text>
<line x1="95.0" y1="558" x2="95.0" y2="563" stroke="#222" stroke-width="1"/>
<text x="95.0" y="582" text-anchor="middle" font-family="Arial" font-size="12">1</text>
<line x1="232.0" y1="558" x2="232.0" y2="563" stroke="#222" stroke-width="1"/>
<text x="232.0" y="582" text-anchor="middle" font-family="Arial" font-size="12">41</text>
<line x1="369.0" y1="558" x2="369.0" y2="563" stroke="#222" stroke-width="1"/>
<text x="369.0" y="582" text-anchor="middle" font-family="Arial" font-size="12">81</text>
<line x1="506.0" y1="558" x2="506.0" y2="563" stroke="#222" stroke-width="1"/>
<text x="506.0" y="582" text-anchor="middle" font-family="Arial" font-size="12">120</text>
<line x1="643.0" y1="558" x2="643.0" y2="563" stroke="#222" stroke-width="1"/>
<text x="643.0" y="582" text-anchor="middle" font-family="Arial" font-size="12">160</text>
<line x1="780.0" y1="558" x2="780.0" y2="563" stroke="#222" stroke-width="1"/>
<text x="780.0" y="582" text-anchor="middle" font-family="Arial" font-size="12">200</text>
<polyline fill="none" stroke="#1f77b4" stroke-width="2.3" points="95.0,294.1 98.4,437.1 101.9,414.0 105.3,414.6 108.8,419.5 112.2,408.9 115.7,442.4 119.1,422.6 122.5,431.7 126.0,419.9 129.4,421.3 132.9,441.2 136.3,450.9 139.7,449.6 143.2,450.7 146.6,467.9 150.1,464.2 153.5,472.3 157.0,476.0 160.4,471.7 163.8,474.0 167.3,474.6 170.7,482.1 174.2,483.1 177.6,484.8 181.1,478.3 184.5,485.6 187.9,483.0 191.4,485.0 194.8,491.0 198.3,488.8 201.7,491.9 205.2,487.8 208.6,489.3 212.0,483.6 215.5,488.3 218.9,492.5 222.4,491.3 225.8,495.2 229.2,488.9 232.7,493.8 236.1,485.6 239.6,501.4 243.0,485.4 246.5,490.4 249.9,486.3 253.3,493.1 256.8,496.8 260.2,495.0 263.7,497.9 267.1,498.0 270.6,500.9 274.0,507.1 277.4,493.3 280.9,500.9 284.3,497.3 287.8,496.7 291.2,494.3 294.6,500.5 298.1,489.2 301.5,501.1 305.0,496.4 308.4,495.2 311.9,488.2 315.3,492.5 318.7,498.2 322.2,492.6 325.6,494.1 329.1,509.8 332.5,510.1 336.0,500.8 339.4,513.4 342.8,508.7 346.3,510.2 349.7,513.4 353.2,503.1 356.6,501.4 360.1,499.7 363.5,504.3 366.9,498.4 370.4,501.4 373.8,500.3 377.3,504.3 380.7,491.0 384.1,501.7 387.6,498.1 391.0,499.0 394.5,486.2 397.9,497.0 401.4,498.0 404.8,491.7 408.2,484.2 411.7,495.6 415.1,491.6 418.6,490.0 422.0,494.2 425.5,480.7 428.9,491.4 432.3,491.4 435.8,491.3 439.2,492.3 442.7,486.6 446.1,499.6 449.5,497.8 453.0,502.0 456.4,496.1 459.9,498.1 463.3,488.1 466.8,494.2 470.2,486.8 473.6,493.7 477.1,497.2 480.5,500.6 484.0,498.9 487.4,497.0 490.9,493.0 494.3,501.9 497.7,510.3 501.2,511.3 504.6,502.7 508.1,512.3 511.5,512.9 514.9,511.9 518.4,516.8 521.8,507.6 525.3,509.2 528.7,506.1 532.2,507.9 535.6,509.1 539.0,512.7 542.5,506.1 545.9,510.6 549.4,509.3 552.8,505.6 556.3,515.0 559.7,517.9 563.1,511.4 566.6,521.3 570.0,520.9 573.5,517.6 576.9,524.2 580.4,524.1 583.8,522.2 587.2,480.0 590.7,449.7 594.1,466.1 597.6,459.5 601.0,492.1 604.4,514.8 607.9,511.4 611.3,519.8 614.8,530.1 618.2,539.1 621.7,541.1 625.1,539.0 628.5,542.8 632.0,545.4 635.4,547.4 638.9,546.8 642.3,544.8 645.8,543.3 649.2,541.7 652.6,542.7 656.1,541.6 659.5,542.0 663.0,543.4 666.4,544.8 669.8,542.6 673.3,542.8 676.7,544.4 680.2,544.3 683.6,543.0 687.1,543.0 690.5,543.9 693.9,542.2 697.4,541.7 700.8,543.2 704.3,542.7 707.7,544.0 711.2,543.1 714.6,544.5 718.0,544.9 721.5,541.0 724.9,543.3 728.4,540.4 731.8,541.8 735.3,540.3 738.7,539.1 742.1,538.7 745.6,541.2 749.0,542.4 752.5,538.9 755.9,539.2 759.3,539.3 762.8,540.8 766.2,544.4 769.7,540.1 773.1,545.2 776.6,543.6 780.0,542.3"/>
<circle cx="95.0" cy="294.1" r="3" fill="#1f77b4"/>
<circle cx="98.4" cy="437.1" r="3" fill="#1f77b4"/>
<circle cx="101.9" cy="414.0" r="3" fill="#1f77b4"/>
<circle cx="105.3" cy="414.6" r="3" fill="#1f77b4"/>
<circle cx="108.8" cy="419.5" r="3" fill="#1f77b4"/>
<circle cx="112.2" cy="408.9" r="3" fill="#1f77b4"/>
<circle cx="115.7" cy="442.4" r="3" fill="#1f77b4"/>
<circle cx="119.1" cy="422.6" r="3" fill="#1f77b4"/>
<circle cx="122.5" cy="431.7" r="3" fill="#1f77b4"/>
<circle cx="126.0" cy="419.9" r="3" fill="#1f77b4"/>
<circle cx="129.4" cy="421.3" r="3" fill="#1f77b4"/>
<circle cx="132.9" cy="441.2" r="3" fill="#1f77b4"/>
<circle cx="136.3" cy="450.9" r="3" fill="#1f77b4"/>
<circle cx="139.7" cy="449.6" r="3" fill="#1f77b4"/>
<circle cx="143.2" cy="450.7" r="3" fill="#1f77b4"/>
<circle cx="146.6" cy="467.9" r="3" fill="#1f77b4"/>
<circle cx="150.1" cy="464.2" r="3" fill="#1f77b4"/>
<circle cx="153.5" cy="472.3" r="3" fill="#1f77b4"/>
<circle cx="157.0" cy="476.0" r="3" fill="#1f77b4"/>
<circle cx="160.4" cy="471.7" r="3" fill="#1f77b4"/>
<circle cx="163.8" cy="474.0" r="3" fill="#1f77b4"/>
<circle cx="167.3" cy="474.6" r="3" fill="#1f77b4"/>
<circle cx="170.7" cy="482.1" r="3" fill="#1f77b4"/>
<circle cx="174.2" cy="483.1" r="3" fill="#1f77b4"/>
<circle cx="177.6" cy="484.8" r="3" fill="#1f77b4"/>
<circle cx="181.1" cy="478.3" r="3" fill="#1f77b4"/>
<circle cx="184.5" cy="485.6" r="3" fill="#1f77b4"/>
<circle cx="187.9" cy="483.0" r="3" fill="#1f77b4"/>
<circle cx="191.4" cy="485.0" r="3" fill="#1f77b4"/>
<circle cx="194.8" cy="491.0" r="3" fill="#1f77b4"/>
<circle cx="198.3" cy="488.8" r="3" fill="#1f77b4"/>
<circle cx="201.7" cy="491.9" r="3" fill="#1f77b4"/>
<circle cx="205.2" cy="487.8" r="3" fill="#1f77b4"/>
<circle cx="208.6" cy="489.3" r="3" fill="#1f77b4"/>
<circle cx="212.0" cy="483.6" r="3" fill="#1f77b4"/>
<circle cx="215.5" cy="488.3" r="3" fill="#1f77b4"/>
<circle cx="218.9" cy="492.5" r="3" fill="#1f77b4"/>
<circle cx="222.4" cy="491.3" r="3" fill="#1f77b4"/>
<circle cx="225.8" cy="495.2" r="3" fill="#1f77b4"/>
<circle cx="229.2" cy="488.9" r="3" fill="#1f77b4"/>
<circle cx="232.7" cy="493.8" r="3" fill="#1f77b4"/>
<circle cx="236.1" cy="485.6" r="3" fill="#1f77b4"/>
<circle cx="239.6" cy="501.4" r="3" fill="#1f77b4"/>
<circle cx="243.0" cy="485.4" r="3" fill="#1f77b4"/>
<circle cx="246.5" cy="490.4" r="3" fill="#1f77b4"/>
<circle cx="249.9" cy="486.3" r="3" fill="#1f77b4"/>
<circle cx="253.3" cy="493.1" r="3" fill="#1f77b4"/>
<circle cx="256.8" cy="496.8" r="3" fill="#1f77b4"/>
<circle cx="260.2" cy="495.0" r="3" fill="#1f77b4"/>
<circle cx="263.7" cy="497.9" r="3" fill="#1f77b4"/>
<circle cx="267.1" cy="498.0" r="3" fill="#1f77b4"/>
<circle cx="270.6" cy="500.9" r="3" fill="#1f77b4"/>
<circle cx="274.0" cy="507.1" r="3" fill="#1f77b4"/>
<circle cx="277.4" cy="493.3" r="3" fill="#1f77b4"/>
<circle cx="280.9" cy="500.9" r="3" fill="#1f77b4"/>
<circle cx="284.3" cy="497.3" r="3" fill="#1f77b4"/>
<circle cx="287.8" cy="496.7" r="3" fill="#1f77b4"/>
<circle cx="291.2" cy="494.3" r="3" fill="#1f77b4"/>
<circle cx="294.6" cy="500.5" r="3" fill="#1f77b4"/>
<circle cx="298.1" cy="489.2" r="3" fill="#1f77b4"/>
<circle cx="301.5" cy="501.1" r="3" fill="#1f77b4"/>
<circle cx="305.0" cy="496.4" r="3" fill="#1f77b4"/>
<circle cx="308.4" cy="495.2" r="3" fill="#1f77b4"/>
<circle cx="311.9" cy="488.2" r="3" fill="#1f77b4"/>
<circle cx="315.3" cy="492.5" r="3" fill="#1f77b4"/>
<circle cx="318.7" cy="498.2" r="3" fill="#1f77b4"/>
<circle cx="322.2" cy="492.6" r="3" fill="#1f77b4"/>
<circle cx="325.6" cy="494.1" r="3" fill="#1f77b4"/>
<circle cx="329.1" cy="509.8" r="3" fill="#1f77b4"/>
<circle cx="332.5" cy="510.1" r="3" fill="#1f77b4"/>
<circle cx="336.0" cy="500.8" r="3" fill="#1f77b4"/>
<circle cx="339.4" cy="513.4" r="3" fill="#1f77b4"/>
<circle cx="342.8" cy="508.7" r="3" fill="#1f77b4"/>
<circle cx="346.3" cy="510.2" r="3" fill="#1f77b4"/>
<circle cx="349.7" cy="513.4" r="3" fill="#1f77b4"/>
<circle cx="353.2" cy="503.1" r="3" fill="#1f77b4"/>
<circle cx="356.6" cy="501.4" r="3" fill="#1f77b4"/>
<circle cx="360.1" cy="499.7" r="3" fill="#1f77b4"/>
<circle cx="363.5" cy="504.3" r="3" fill="#1f77b4"/>
<circle cx="366.9" cy="498.4" r="3" fill="#1f77b4"/>
<circle cx="370.4" cy="501.4" r="3" fill="#1f77b4"/>
<circle cx="373.8" cy="500.3" r="3" fill="#1f77b4"/>
<circle cx="377.3" cy="504.3" r="3" fill="#1f77b4"/>
<circle cx="380.7" cy="491.0" r="3" fill="#1f77b4"/>
<circle cx="384.1" cy="501.7" r="3" fill="#1f77b4"/>
<circle cx="387.6" cy="498.1" r="3" fill="#1f77b4"/>
<circle cx="391.0" cy="499.0" r="3" fill="#1f77b4"/>
<circle cx="394.5" cy="486.2" r="3" fill="#1f77b4"/>
<circle cx="397.9" cy="497.0" r="3" fill="#1f77b4"/>
<circle cx="401.4" cy="498.0" r="3" fill="#1f77b4"/>
<circle cx="404.8" cy="491.7" r="3" fill="#1f77b4"/>
<circle cx="408.2" cy="484.2" r="3" fill="#1f77b4"/>
<circle cx="411.7" cy="495.6" r="3" fill="#1f77b4"/>
<circle cx="415.1" cy="491.6" r="3" fill="#1f77b4"/>
<circle cx="418.6" cy="490.0" r="3" fill="#1f77b4"/>
<circle cx="422.0" cy="494.2" r="3" fill="#1f77b4"/>
<circle cx="425.5" cy="480.7" r="3" fill="#1f77b4"/>
<circle cx="428.9" cy="491.4" r="3" fill="#1f77b4"/>
<circle cx="432.3" cy="491.4" r="3" fill="#1f77b4"/>
<circle cx="435.8" cy="491.3" r="3" fill="#1f77b4"/>
<circle cx="439.2" cy="492.3" r="3" fill="#1f77b4"/>
<circle cx="442.7" cy="486.6" r="3" fill="#1f77b4"/>
<circle cx="446.1" cy="499.6" r="3" fill="#1f77b4"/>
<circle cx="449.5" cy="497.8" r="3" fill="#1f77b4"/>
<circle cx="453.0" cy="502.0" r="3" fill="#1f77b4"/>
<circle cx="456.4" cy="496.1" r="3" fill="#1f77b4"/>
<circle cx="459.9" cy="498.1" r="3" fill="#1f77b4"/>
<circle cx="463.3" cy="488.1" r="3" fill="#1f77b4"/>
<circle cx="466.8" cy="494.2" r="3" fill="#1f77b4"/>
<circle cx="470.2" cy="486.8" r="3" fill="#1f77b4"/>
<circle cx="473.6" cy="493.7" r="3" fill="#1f77b4"/>
<circle cx="477.1" cy="497.2" r="3" fill="#1f77b4"/>
<circle cx="480.5" cy="500.6" r="3" fill="#1f77b4"/>
<circle cx="484.0" cy="498.9" r="3" fill="#1f77b4"/>
<circle cx="487.4" cy="497.0" r="3" fill="#1f77b4"/>
<circle cx="490.9" cy="493.0" r="3" fill="#1f77b4"/>
<circle cx="494.3" cy="501.9" r="3" fill="#1f77b4"/>
<circle cx="497.7" cy="510.3" r="3" fill="#1f77b4"/>
<circle cx="501.2" cy="511.3" r="3" fill="#1f77b4"/>
<circle cx="504.6" cy="502.7" r="3" fill="#1f77b4"/>
<circle cx="508.1" cy="512.3" r="3" fill="#1f77b4"/>
<circle cx="511.5" cy="512.9" r="3" fill="#1f77b4"/>
<circle cx="514.9" cy="511.9" r="3" fill="#1f77b4"/>
<circle cx="518.4" cy="516.8" r="3" fill="#1f77b4"/>
<circle cx="521.8" cy="507.6" r="3" fill="#1f77b4"/>
<circle cx="525.3" cy="509.2" r="3" fill="#1f77b4"/>
<circle cx="528.7" cy="506.1" r="3" fill="#1f77b4"/>
<circle cx="532.2" cy="507.9" r="3" fill="#1f77b4"/>
<circle cx="535.6" cy="509.1" r="3" fill="#1f77b4"/>
<circle cx="539.0" cy="512.7" r="3" fill="#1f77b4"/>
<circle cx="542.5" cy="506.1" r="3" fill="#1f77b4"/>
<circle cx="545.9" cy="510.6" r="3" fill="#1f77b4"/>
<circle cx="549.4" cy="509.3" r="3" fill="#1f77b4"/>
<circle cx="552.8" cy="505.6" r="3" fill="#1f77b4"/>
<circle cx="556.3" cy="515.0" r="3" fill="#1f77b4"/>
<circle cx="559.7" cy="517.9" r="3" fill="#1f77b4"/>
<circle cx="563.1" cy="511.4" r="3" fill="#1f77b4"/>
<circle cx="566.6" cy="521.3" r="3" fill="#1f77b4"/>
<circle cx="570.0" cy="520.9" r="3" fill="#1f77b4"/>
<circle cx="573.5" cy="517.6" r="3" fill="#1f77b4"/>
<circle cx="576.9" cy="524.2" r="3" fill="#1f77b4"/>
<circle cx="580.4" cy="524.1" r="3" fill="#1f77b4"/>
<circle cx="583.8" cy="522.2" r="3" fill="#1f77b4"/>
<circle cx="587.2" cy="480.0" r="3" fill="#1f77b4"/>
<circle cx="590.7" cy="449.7" r="3" fill="#1f77b4"/>
<circle cx="594.1" cy="466.1" r="3" fill="#1f77b4"/>
<circle cx="597.6" cy="459.5" r="3" fill="#1f77b4"/>
<circle cx="601.0" cy="492.1" r="3" fill="#1f77b4"/>
<circle cx="604.4" cy="514.8" r="3" fill="#1f77b4"/>
<circle cx="607.9" cy="511.4" r="3" fill="#1f77b4"/>
<circle cx="611.3" cy="519.8" r="3" fill="#1f77b4"/>
<circle cx="614.8" cy="530.1" r="3" fill="#1f77b4"/>
<circle cx="618.2" cy="539.1" r="3" fill="#1f77b4"/>
<circle cx="621.7" cy="541.1" r="3" fill="#1f77b4"/>
<circle cx="625.1" cy="539.0" r="3" fill="#1f77b4"/>
<circle cx="628.5" cy="542.8" r="3" fill="#1f77b4"/>
<circle cx="632.0" cy="545.4" r="3" fill="#1f77b4"/>
<circle cx="635.4" cy="547.4" r="3" fill="#1f77b4"/>
<circle cx="638.9" cy="546.8" r="3" fill="#1f77b4"/>
<circle cx="642.3" cy="544.8" r="3" fill="#1f77b4"/>
<circle cx="645.8" cy="543.3" r="3" fill="#1f77b4"/>
<circle cx="649.2" cy="541.7" r="3" fill="#1f77b4"/>
<circle cx="652.6" cy="542.7" r="3" fill="#1f77b4"/>
<circle cx="656.1" cy="541.6" r="3" fill="#1f77b4"/>
<circle cx="659.5" cy="542.0" r="3" fill="#1f77b4"/>
<circle cx="663.0" cy="543.4" r="3" fill="#1f77b4"/>
<circle cx="666.4" cy="544.8" r="3" fill="#1f77b4"/>
<circle cx="669.8" cy="542.6" r="3" fill="#1f77b4"/>
<circle cx="673.3" cy="542.8" r="3" fill="#1f77b4"/>
<circle cx="676.7" cy="544.4" r="3" fill="#1f77b4"/>
<circle cx="680.2" cy="544.3" r="3" fill="#1f77b4"/>
<circle cx="683.6" cy="543.0" r="3" fill="#1f77b4"/>
<circle cx="687.1" cy="543.0" r="3" fill="#1f77b4"/>
<circle cx="690.5" cy="543.9" r="3" fill="#1f77b4"/>
<circle cx="693.9" cy="542.2" r="3" fill="#1f77b4"/>
<circle cx="697.4" cy="541.7" r="3" fill="#1f77b4"/>
<circle cx="700.8" cy="543.2" r="3" fill="#1f77b4"/>
<circle cx="704.3" cy="542.7" r="3" fill="#1f77b4"/>
<circle cx="707.7" cy="544.0" r="3" fill="#1f77b4"/>
<circle cx="711.2" cy="543.1" r="3" fill="#1f77b4"/>
<circle cx="714.6" cy="544.5" r="3" fill="#1f77b4"/>
<circle cx="718.0" cy="544.9" r="3" fill="#1f77b4"/>
<circle cx="721.5" cy="541.0" r="3" fill="#1f77b4"/>
<circle cx="724.9" cy="543.3" r="3" fill="#1f77b4"/>
<circle cx="728.4" cy="540.4" r="3" fill="#1f77b4"/>
<circle cx="731.8" cy="541.8" r="3" fill="#1f77b4"/>
<circle cx="735.3" cy="540.3" r="3" fill="#1f77b4"/>
<circle cx="738.7" cy="539.1" r="3" fill="#1f77b4"/>
<circle cx="742.1" cy="538.7" r="3" fill="#1f77b4"/>
<circle cx="745.6" cy="541.2" r="3" fill="#1f77b4"/>
<circle cx="749.0" cy="542.4" r="3" fill="#1f77b4"/>
<circle cx="752.5" cy="538.9" r="3" fill="#1f77b4"/>
<circle cx="755.9" cy="539.2" r="3" fill="#1f77b4"/>
<circle cx="759.3" cy="539.3" r="3" fill="#1f77b4"/>
<circle cx="762.8" cy="540.8" r="3" fill="#1f77b4"/>
<circle cx="766.2" cy="544.4" r="3" fill="#1f77b4"/>
<circle cx="769.7" cy="540.1" r="3" fill="#1f77b4"/>
<circle cx="773.1" cy="545.2" r="3" fill="#1f77b4"/>
<circle cx="776.6" cy="543.6" r="3" fill="#1f77b4"/>
<circle cx="780.0" cy="542.3" r="3" fill="#1f77b4"/>
<line x1="808" y1="96" x2="830" y2="96" stroke="#1f77b4" stroke-width="2.5"/>
<text x="838" y="100" font-family="Arial" font-size="13">reinforce_with_baseline</text>
<polyline fill="none" stroke="#d62728" stroke-width="2.3" points="95.0,294.1 98.4,386.4 101.9,335.0 105.3,262.1 108.8,260.1 112.2,282.9 115.7,279.6 119.1,276.4 122.5,257.9 126.0,229.9 129.4,253.5 132.9,256.3 136.3,265.9 139.7,261.0 143.2,247.7 146.6,249.8 150.1,234.4 153.5,224.5 157.0,226.8 160.4,192.7 163.8,206.0 167.3,232.8 170.7,241.3 174.2,214.1 177.6,245.9 181.1,256.8 184.5,250.4 187.9,240.4 191.4,248.3 194.8,254.7 198.3,285.0 201.7,273.9 205.2,283.9 208.6,245.9 212.0,238.3 215.5,246.3 218.9,280.4 222.4,226.0 225.8,207.7 229.2,146.5 232.7,143.4 236.1,140.2 239.6,130.0 243.0,88.9 246.5,134.9 249.9,173.5 253.3,304.6 256.8,289.2 260.2,302.2 263.7,310.9 267.1,315.8 270.6,339.7 274.0,353.0 277.4,348.9 280.9,396.9 284.3,401.3 287.8,381.1 291.2,380.4 294.6,362.8 298.1,332.7 301.5,337.9 305.0,331.7 308.4,323.5 311.9,326.9 315.3,328.8 318.7,354.3 322.2,341.0 325.6,349.0 329.1,345.7 332.5,332.9 336.0,257.7 339.4,305.2 342.8,337.4 346.3,319.0 349.7,279.0 353.2,310.2 356.6,266.7 360.1,265.8 363.5,396.1 366.9,419.9 370.4,420.0 373.8,411.6 377.3,441.7 380.7,426.2 384.1,436.4 387.6,418.2 391.0,446.7 394.5,461.6 397.9,479.6 401.4,492.7 404.8,497.7 408.2,499.4 411.7,506.0 415.1,517.5 418.6,509.8 422.0,510.1 425.5,507.8 428.9,503.0 432.3,502.3 435.8,511.7 439.2,510.5 442.7,522.4 446.1,512.1 449.5,520.9 453.0,517.5 456.4,519.8 459.9,508.5 463.3,504.7 466.8,485.4 470.2,466.5 473.6,459.2 477.1,465.1 480.5,461.5 484.0,469.8 487.4,465.0 490.9,422.5 494.3,438.2 497.7,422.8 501.2,392.3 504.6,363.1 508.1,383.0 511.5,389.9 514.9,400.5 518.4,448.5 521.8,445.0 525.3,485.9 528.7,473.0 532.2,500.2 535.6,503.1 539.0,498.9 542.5,502.4 545.9,501.9 549.4,509.4 552.8,504.1 556.3,506.2 559.7,500.2 563.1,479.6 566.6,476.0 570.0,476.2 573.5,453.4 576.9,491.1 580.4,495.0 583.8,489.0 587.2,490.9 590.7,497.1 594.1,470.8 597.6,440.0 601.0,433.7 604.4,444.7 607.9,417.7 611.3,430.8 614.8,451.6 618.2,474.6 621.7,445.5 625.1,502.9 628.5,499.3 632.0,503.1 635.4,500.1 638.9,493.9 642.3,497.9 645.8,503.2 649.2,485.6 652.6,497.7 656.1,483.9 659.5,491.1 663.0,490.0 666.4,494.4 669.8,434.8 673.3,398.5 676.7,396.3 680.2,413.6 683.6,401.6 687.1,420.2 690.5,400.9 693.9,372.7 697.4,302.1 700.8,273.6 704.3,217.7 707.7,234.2 711.2,252.2 714.6,256.2 718.0,307.6 721.5,376.9 724.9,409.4 728.4,438.7 731.8,464.7 735.3,469.2 738.7,481.1 742.1,466.5 745.6,458.6 749.0,448.7 752.5,443.7 755.9,421.5 759.3,438.4 762.8,405.4 766.2,412.0 769.7,407.7 773.1,422.5 776.6,431.4 780.0,445.4"/>
<circle cx="95.0" cy="294.1" r="3" fill="#d62728"/>
<circle cx="98.4" cy="386.4" r="3" fill="#d62728"/>
<circle cx="101.9" cy="335.0" r="3" fill="#d62728"/>
<circle cx="105.3" cy="262.1" r="3" fill="#d62728"/>
<circle cx="108.8" cy="260.1" r="3" fill="#d62728"/>
<circle cx="112.2" cy="282.9" r="3" fill="#d62728"/>
<circle cx="115.7" cy="279.6" r="3" fill="#d62728"/>
<circle cx="119.1" cy="276.4" r="3" fill="#d62728"/>
<circle cx="122.5" cy="257.9" r="3" fill="#d62728"/>
<circle cx="126.0" cy="229.9" r="3" fill="#d62728"/>
<circle cx="129.4" cy="253.5" r="3" fill="#d62728"/>
<circle cx="132.9" cy="256.3" r="3" fill="#d62728"/>
<circle cx="136.3" cy="265.9" r="3" fill="#d62728"/>
<circle cx="139.7" cy="261.0" r="3" fill="#d62728"/>
<circle cx="143.2" cy="247.7" r="3" fill="#d62728"/>
<circle cx="146.6" cy="249.8" r="3" fill="#d62728"/>
<circle cx="150.1" cy="234.4" r="3" fill="#d62728"/>
<circle cx="153.5" cy="224.5" r="3" fill="#d62728"/>
<circle cx="157.0" cy="226.8" r="3" fill="#d62728"/>
<circle cx="160.4" cy="192.7" r="3" fill="#d62728"/>
<circle cx="163.8" cy="206.0" r="3" fill="#d62728"/>
<circle cx="167.3" cy="232.8" r="3" fill="#d62728"/>
<circle cx="170.7" cy="241.3" r="3" fill="#d62728"/>
<circle cx="174.2" cy="214.1" r="3" fill="#d62728"/>
<circle cx="177.6" cy="245.9" r="3" fill="#d62728"/>
<circle cx="181.1" cy="256.8" r="3" fill="#d62728"/>
<circle cx="184.5" cy="250.4" r="3" fill="#d62728"/>
<circle cx="187.9" cy="240.4" r="3" fill="#d62728"/>
<circle cx="191.4" cy="248.3" r="3" fill="#d62728"/>
<circle cx="194.8" cy="254.7" r="3" fill="#d62728"/>
<circle cx="198.3" cy="285.0" r="3" fill="#d62728"/>
<circle cx="201.7" cy="273.9" r="3" fill="#d62728"/>
<circle cx="205.2" cy="283.9" r="3" fill="#d62728"/>
<circle cx="208.6" cy="245.9" r="3" fill="#d62728"/>
<circle cx="212.0" cy="238.3" r="3" fill="#d62728"/>
<circle cx="215.5" cy="246.3" r="3" fill="#d62728"/>
<circle cx="218.9" cy="280.4" r="3" fill="#d62728"/>
<circle cx="222.4" cy="226.0" r="3" fill="#d62728"/>
<circle cx="225.8" cy="207.7" r="3" fill="#d62728"/>
<circle cx="229.2" cy="146.5" r="3" fill="#d62728"/>
<circle cx="232.7" cy="143.4" r="3" fill="#d62728"/>
<circle cx="236.1" cy="140.2" r="3" fill="#d62728"/>
<circle cx="239.6" cy="130.0" r="3" fill="#d62728"/>
<circle cx="243.0" cy="88.9" r="3" fill="#d62728"/>
<circle cx="246.5" cy="134.9" r="3" fill="#d62728"/>
<circle cx="249.9" cy="173.5" r="3" fill="#d62728"/>
<circle cx="253.3" cy="304.6" r="3" fill="#d62728"/>
<circle cx="256.8" cy="289.2" r="3" fill="#d62728"/>
<circle cx="260.2" cy="302.2" r="3" fill="#d62728"/>
<circle cx="263.7" cy="310.9" r="3" fill="#d62728"/>
<circle cx="267.1" cy="315.8" r="3" fill="#d62728"/>
<circle cx="270.6" cy="339.7" r="3" fill="#d62728"/>
<circle cx="274.0" cy="353.0" r="3" fill="#d62728"/>
<circle cx="277.4" cy="348.9" r="3" fill="#d62728"/>
<circle cx="280.9" cy="396.9" r="3" fill="#d62728"/>
<circle cx="284.3" cy="401.3" r="3" fill="#d62728"/>
<circle cx="287.8" cy="381.1" r="3" fill="#d62728"/>
<circle cx="291.2" cy="380.4" r="3" fill="#d62728"/>
<circle cx="294.6" cy="362.8" r="3" fill="#d62728"/>
<circle cx="298.1" cy="332.7" r="3" fill="#d62728"/>
<circle cx="301.5" cy="337.9" r="3" fill="#d62728"/>
<circle cx="305.0" cy="331.7" r="3" fill="#d62728"/>
<circle cx="308.4" cy="323.5" r="3" fill="#d62728"/>
<circle cx="311.9" cy="326.9" r="3" fill="#d62728"/>
<circle cx="315.3" cy="328.8" r="3" fill="#d62728"/>
<circle cx="318.7" cy="354.3" r="3" fill="#d62728"/>
<circle cx="322.2" cy="341.0" r="3" fill="#d62728"/>
<circle cx="325.6" cy="349.0" r="3" fill="#d62728"/>
<circle cx="329.1" cy="345.7" r="3" fill="#d62728"/>
<circle cx="332.5" cy="332.9" r="3" fill="#d62728"/>
<circle cx="336.0" cy="257.7" r="3" fill="#d62728"/>
<circle cx="339.4" cy="305.2" r="3" fill="#d62728"/>
<circle cx="342.8" cy="337.4" r="3" fill="#d62728"/>
<circle cx="346.3" cy="319.0" r="3" fill="#d62728"/>
<circle cx="349.7" cy="279.0" r="3" fill="#d62728"/>
<circle cx="353.2" cy="310.2" r="3" fill="#d62728"/>
<circle cx="356.6" cy="266.7" r="3" fill="#d62728"/>
<circle cx="360.1" cy="265.8" r="3" fill="#d62728"/>
<circle cx="363.5" cy="396.1" r="3" fill="#d62728"/>
<circle cx="366.9" cy="419.9" r="3" fill="#d62728"/>
<circle cx="370.4" cy="420.0" r="3" fill="#d62728"/>
<circle cx="373.8" cy="411.6" r="3" fill="#d62728"/>
<circle cx="377.3" cy="441.7" r="3" fill="#d62728"/>
<circle cx="380.7" cy="426.2" r="3" fill="#d62728"/>
<circle cx="384.1" cy="436.4" r="3" fill="#d62728"/>
<circle cx="387.6" cy="418.2" r="3" fill="#d62728"/>
<circle cx="391.0" cy="446.7" r="3" fill="#d62728"/>
<circle cx="394.5" cy="461.6" r="3" fill="#d62728"/>
<circle cx="397.9" cy="479.6" r="3" fill="#d62728"/>
<circle cx="401.4" cy="492.7" r="3" fill="#d62728"/>
<circle cx="404.8" cy="497.7" r="3" fill="#d62728"/>
<circle cx="408.2" cy="499.4" r="3" fill="#d62728"/>
<circle cx="411.7" cy="506.0" r="3" fill="#d62728"/>
<circle cx="415.1" cy="517.5" r="3" fill="#d62728"/>
<circle cx="418.6" cy="509.8" r="3" fill="#d62728"/>
<circle cx="422.0" cy="510.1" r="3" fill="#d62728"/>
<circle cx="425.5" cy="507.8" r="3" fill="#d62728"/>
<circle cx="428.9" cy="503.0" r="3" fill="#d62728"/>
<circle cx="432.3" cy="502.3" r="3" fill="#d62728"/>
<circle cx="435.8" cy="511.7" r="3" fill="#d62728"/>
<circle cx="439.2" cy="510.5" r="3" fill="#d62728"/>
<circle cx="442.7" cy="522.4" r="3" fill="#d62728"/>
<circle cx="446.1" cy="512.1" r="3" fill="#d62728"/>
<circle cx="449.5" cy="520.9" r="3" fill="#d62728"/>
<circle cx="453.0" cy="517.5" r="3" fill="#d62728"/>
<circle cx="456.4" cy="519.8" r="3" fill="#d62728"/>
<circle cx="459.9" cy="508.5" r="3" fill="#d62728"/>
<circle cx="463.3" cy="504.7" r="3" fill="#d62728"/>
<circle cx="466.8" cy="485.4" r="3" fill="#d62728"/>
<circle cx="470.2" cy="466.5" r="3" fill="#d62728"/>
<circle cx="473.6" cy="459.2" r="3" fill="#d62728"/>
<circle cx="477.1" cy="465.1" r="3" fill="#d62728"/>
<circle cx="480.5" cy="461.5" r="3" fill="#d62728"/>
<circle cx="484.0" cy="469.8" r="3" fill="#d62728"/>
<circle cx="487.4" cy="465.0" r="3" fill="#d62728"/>
<circle cx="490.9" cy="422.5" r="3" fill="#d62728"/>
<circle cx="494.3" cy="438.2" r="3" fill="#d62728"/>
<circle cx="497.7" cy="422.8" r="3" fill="#d62728"/>
<circle cx="501.2" cy="392.3" r="3" fill="#d62728"/>
<circle cx="504.6" cy="363.1" r="3" fill="#d62728"/>
<circle cx="508.1" cy="383.0" r="3" fill="#d62728"/>
<circle cx="511.5" cy="389.9" r="3" fill="#d62728"/>
<circle cx="514.9" cy="400.5" r="3" fill="#d62728"/>
<circle cx="518.4" cy="448.5" r="3" fill="#d62728"/>
<circle cx="521.8" cy="445.0" r="3" fill="#d62728"/>
<circle cx="525.3" cy="485.9" r="3" fill="#d62728"/>
<circle cx="528.7" cy="473.0" r="3" fill="#d62728"/>
<circle cx="532.2" cy="500.2" r="3" fill="#d62728"/>
<circle cx="535.6" cy="503.1" r="3" fill="#d62728"/>
<circle cx="539.0" cy="498.9" r="3" fill="#d62728"/>
<circle cx="542.5" cy="502.4" r="3" fill="#d62728"/>
<circle cx="545.9" cy="501.9" r="3" fill="#d62728"/>
<circle cx="549.4" cy="509.4" r="3" fill="#d62728"/>
<circle cx="552.8" cy="504.1" r="3" fill="#d62728"/>
<circle cx="556.3" cy="506.2" r="3" fill="#d62728"/>
<circle cx="559.7" cy="500.2" r="3" fill="#d62728"/>
<circle cx="563.1" cy="479.6" r="3" fill="#d62728"/>
<circle cx="566.6" cy="476.0" r="3" fill="#d62728"/>
<circle cx="570.0" cy="476.2" r="3" fill="#d62728"/>
<circle cx="573.5" cy="453.4" r="3" fill="#d62728"/>
<circle cx="576.9" cy="491.1" r="3" fill="#d62728"/>
<circle cx="580.4" cy="495.0" r="3" fill="#d62728"/>
<circle cx="583.8" cy="489.0" r="3" fill="#d62728"/>
<circle cx="587.2" cy="490.9" r="3" fill="#d62728"/>
<circle cx="590.7" cy="497.1" r="3" fill="#d62728"/>
<circle cx="594.1" cy="470.8" r="3" fill="#d62728"/>
<circle cx="597.6" cy="440.0" r="3" fill="#d62728"/>
<circle cx="601.0" cy="433.7" r="3" fill="#d62728"/>
<circle cx="604.4" cy="444.7" r="3" fill="#d62728"/>
<circle cx="607.9" cy="417.7" r="3" fill="#d62728"/>
<circle cx="611.3" cy="430.8" r="3" fill="#d62728"/>
<circle cx="614.8" cy="451.6" r="3" fill="#d62728"/>
<circle cx="618.2" cy="474.6" r="3" fill="#d62728"/>
<circle cx="621.7" cy="445.5" r="3" fill="#d62728"/>
<circle cx="625.1" cy="502.9" r="3" fill="#d62728"/>
<circle cx="628.5" cy="499.3" r="3" fill="#d62728"/>
<circle cx="632.0" cy="503.1" r="3" fill="#d62728"/>
<circle cx="635.4" cy="500.1" r="3" fill="#d62728"/>
<circle cx="638.9" cy="493.9" r="3" fill="#d62728"/>
<circle cx="642.3" cy="497.9" r="3" fill="#d62728"/>
<circle cx="645.8" cy="503.2" r="3" fill="#d62728"/>
<circle cx="649.2" cy="485.6" r="3" fill="#d62728"/>
<circle cx="652.6" cy="497.7" r="3" fill="#d62728"/>
<circle cx="656.1" cy="483.9" r="3" fill="#d62728"/>
<circle cx="659.5" cy="491.1" r="3" fill="#d62728"/>
<circle cx="663.0" cy="490.0" r="3" fill="#d62728"/>
<circle cx="666.4" cy="494.4" r="3" fill="#d62728"/>
<circle cx="669.8" cy="434.8" r="3" fill="#d62728"/>
<circle cx="673.3" cy="398.5" r="3" fill="#d62728"/>
<circle cx="676.7" cy="396.3" r="3" fill="#d62728"/>
<circle cx="680.2" cy="413.6" r="3" fill="#d62728"/>
<circle cx="683.6" cy="401.6" r="3" fill="#d62728"/>
<circle cx="687.1" cy="420.2" r="3" fill="#d62728"/>
<circle cx="690.5" cy="400.9" r="3" fill="#d62728"/>
<circle cx="693.9" cy="372.7" r="3" fill="#d62728"/>
<circle cx="697.4" cy="302.1" r="3" fill="#d62728"/>
<circle cx="700.8" cy="273.6" r="3" fill="#d62728"/>
<circle cx="704.3" cy="217.7" r="3" fill="#d62728"/>
<circle cx="707.7" cy="234.2" r="3" fill="#d62728"/>
<circle cx="711.2" cy="252.2" r="3" fill="#d62728"/>
<circle cx="714.6" cy="256.2" r="3" fill="#d62728"/>
<circle cx="718.0" cy="307.6" r="3" fill="#d62728"/>
<circle cx="721.5" cy="376.9" r="3" fill="#d62728"/>
<circle cx="724.9" cy="409.4" r="3" fill="#d62728"/>
<circle cx="728.4" cy="438.7" r="3" fill="#d62728"/>
<circle cx="731.8" cy="464.7" r="3" fill="#d62728"/>
<circle cx="735.3" cy="469.2" r="3" fill="#d62728"/>
<circle cx="738.7" cy="481.1" r="3" fill="#d62728"/>
<circle cx="742.1" cy="466.5" r="3" fill="#d62728"/>
<circle cx="745.6" cy="458.6" r="3" fill="#d62728"/>
<circle cx="749.0" cy="448.7" r="3" fill="#d62728"/>
<circle cx="752.5" cy="443.7" r="3" fill="#d62728"/>
<circle cx="755.9" cy="421.5" r="3" fill="#d62728"/>
<circle cx="759.3" cy="438.4" r="3" fill="#d62728"/>
<circle cx="762.8" cy="405.4" r="3" fill="#d62728"/>
<circle cx="766.2" cy="412.0" r="3" fill="#d62728"/>
<circle cx="769.7" cy="407.7" r="3" fill="#d62728"/>
<circle cx="773.1" cy="422.5" r="3" fill="#d62728"/>
<circle cx="776.6" cy="431.4" r="3" fill="#d62728"/>
<circle cx="780.0" cy="445.4" r="3" fill="#d62728"/>
<line x1="808" y1="121" x2="830" y2="121" stroke="#d62728" stroke-width="2.5"/>
<text x="838" y="125" font-family="Arial" font-size="13">no_baseline</text>
<text x="437.5" y="618" text-anchor="middle" font-family="Arial" font-size="15">GRPO step</text>
<text x="24" y="316.0" text-anchor="middle" font-family="Arial" font-size="15" transform="rotate(-90 24 316.0)">token entropy (nats)</text>
</svg>
