<svg xmlns="http://www.w3.org/2000/svg" width="1040" height="640" viewBox="0 0 1040 640">
<rect width="100%" height="100%" fill="white"/>
<text x="520.0" y="36" text-anchor="middle" font-family="Arial" font-size="22" font-weight="700">GRPO rollout response length by baseline choice</text>
<line x1="95" y1="558" x2="780" y2="558" stroke="#222" stroke-width="1.5"/>
<line x1="95" y1="74" x2="95" y2="558" stroke="#222" stroke-width="1.5"/>
<line x1="90" y1="558.0" x2="780" y2="558.0" stroke="#ddd" stroke-width="1"/>
<text x="83" y="562.0" text-anchor="end" font-family="Arial" font-size="12">0.00</text>
<line x1="90" y1="461.2" x2="780" y2="461.2" stroke="#ddd" stroke-width="1"/>
<text x="83" y="465.2" text-anchor="end" font-family="Arial" font-size="12">118.68</text>
<line x1="90" y1="364.4" x2="780" y2="364.4" stroke="#ddd" stroke-width="1"/>
<text x="83" y="368.4" text-anchor="end" font-family="Arial" font-size="12">237.36</text>
<line x1="90" y1="267.6" x2="780" y2="267.6" stroke="#ddd" stroke-width="1"/>
<text x="83" y="271.6" text-anchor="end" font-family="Arial" font-size="12">356.04</text>
<line x1="90" y1="170.8" x2="780" y2="170.8" stroke="#ddd" stroke-width="1"/>
<text x="83" y="174.8" text-anchor="end" font-family="Arial" font-size="12">474.72</text>
<line x1="90" y1="74.0" x2="780" y2="74.0" stroke="#ddd" stroke-width="1"/>
<text x="83" y="78.0" text-anchor="end" font-family="Arial" font-size="12">593.40</text>
<line x1="95.0" y1="558" x2="95.0" y2="563" stroke="#222" stroke-width="1"/>
<text x="95.0" y="582" text-anchor="middle" font-family="Arial" font-size="12">1</text>
<line x1="232.0" y1="558" x2="232.0" y2="563" stroke="#222" stroke-width="1"/>
<text x="232.0" y="582" text-anchor="middle" font-family="Arial" font-size="12">41</text>
<line x1="369.0" y1="558" x2="369.0" y2="563" stroke="#222" stroke-width="1"/>
<text x="369.0" y="582" text-anchor="middle" font-family="Arial" font-size="12">81</text>
<line x1="506.0" y1="558" x2="506.0" y2="563" stroke="#222" stroke-width="1"/>
<text x="506.0" y="582" text-anchor="middle" font-family="Arial" font-size="12">120</text>
<line x1="643.0" y1="558" x2="643.0" y2="563" stroke="#222" stroke-width="1"/>
<text x="643.0" y="582" text-anchor="middle" font-family="Arial" font-size="12">160</text>
<line x1="780.0" y1="558" x2="780.0" y2="563" stroke="#222" stroke-width="1"/>
<text x="780.0" y="582" text-anchor="middle" font-family="Arial" font-size="12">200</text>
<polyline fill="none" stroke="#1f77b4" stroke-width="2.3" points="95.0,309.5 98.4,461.6 101.9,422.0 105.3,382.3 108.8,347.7 112.2,341.6 115.7,350.0 119.1,385.9 122.5,365.2 126.0,393.7 129.4,370.0 132.9,384.2 136.3,360.8 139.7,372.8 143.2,356.7 146.6,349.6 150.1,350.5 153.5,345.8 157.0,345.1 160.4,336.7 163.8,323.2 167.3,298.6 170.7,310.1 174.2,331.6 177.6,334.6 181.1,310.5 184.5,331.9 187.9,298.8 191.4,294.3 194.8,270.6 198.3,316.0 201.7,333.7 205.2,355.7 208.6,306.1 212.0,291.9 215.5,301.8 218.9,317.9 222.4,309.3 225.8,323.1 229.2,278.0 232.7,321.0 236.1,277.9 239.6,289.7 243.0,292.4 246.5,279.4 249.9,239.8 253.3,334.7 256.8,238.9 260.2,283.5 263.7,314.4 267.1,290.8 270.6,302.8 274.0,282.8 277.4,325.2 280.9,300.8 284.3,250.5 287.8,323.5 291.2,271.8 294.6,257.6 298.1,220.3 301.5,282.8 305.0,271.0 308.4,291.0 311.9,180.5 315.3,243.7 318.7,254.1 322.2,187.6 325.6,243.3 329.1,236.3 332.5,211.5 336.0,154.7 339.4,207.5 342.8,201.4 346.3,185.8 349.7,160.1 353.2,205.5 356.6,119.9 360.1,170.8 363.5,173.2 366.9,232.9 370.4,183.7 373.8,191.9 377.3,175.4 380.7,112.4 384.1,172.0 387.6,162.8 391.0,227.6 394.5,191.0 397.9,228.7 401.4,219.3 404.8,148.2 408.2,95.5 411.7,173.8 415.1,152.2 418.6,167.9 422.0,140.4 425.5,149.9 428.9,143.2 432.3,184.4 435.8,192.6 439.2,163.4 442.7,256.8 446.1,273.1 449.5,262.6 453.0,255.7 456.4,262.8 459.9,261.1 463.3,235.2 466.8,262.5 470.2,250.3 473.6,185.7 477.1,238.5 480.5,263.4 484.0,213.8 487.4,235.7 490.9,163.0 494.3,247.7 497.7,230.2 501.2,204.7 504.6,188.8 508.1,174.9 511.5,74.1 514.9,124.6 518.4,224.1 521.8,150.9 525.3,163.9 528.7,154.4 532.2,118.5 535.6,144.3 539.0,190.6 542.5,164.8 545.9,174.2 549.4,160.2 552.8,140.7 556.3,170.0 559.7,161.6 563.1,185.9 566.6,180.4 570.0,194.3 573.5,93.3 576.9,153.8 580.4,144.9 583.8,174.8 587.2,118.5 590.7,158.9 594.1,166.5 597.6,166.4 601.0,133.7 604.4,124.8 607.9,142.6 611.3,135.6 614.8,131.9 618.2,188.3 621.7,154.7 625.1,178.4 628.5,195.6 632.0,75.2 635.4,179.4 638.9,95.4 642.3,82.1 645.8,112.5 649.2,207.6 652.6,186.0 656.1,135.1 659.5,195.4 663.0,188.3 666.4,169.1 669.8,222.9 673.3,202.8 676.7,200.1 680.2,214.2 683.6,233.9 687.1,189.1 690.5,172.5 693.9,184.6 697.4,205.1 700.8,172.2 704.3,173.4 707.7,228.8 711.2,181.0 714.6,166.5 718.0,212.4 721.5,212.4 724.9,204.1 728.4,235.3 731.8,174.3 735.3,227.9 738.7,182.2 742.1,156.3 745.6,145.2 749.0,173.4 752.5,234.6 755.9,220.0 759.3,182.8 762.8,125.0 766.2,88.9 769.7,192.7 773.1,159.4 776.6,126.4 780.0,177.2"/>
<circle cx="95.0" cy="309.5" r="3" fill="#1f77b4"/>
<circle cx="98.4" cy="461.6" r="3" fill="#1f77b4"/>
<circle cx="101.9" cy="422.0" r="3" fill="#1f77b4"/>
<circle cx="105.3" cy="382.3" r="3" fill="#1f77b4"/>
<circle cx="108.8" cy="347.7" r="3" fill="#1f77b4"/>
<circle cx="112.2" cy="341.6" r="3" fill="#1f77b4"/>
<circle cx="115.7" cy="350.0" r="3" fill="#1f77b4"/>
<circle cx="119.1" cy="385.9" r="3" fill="#1f77b4"/>
<circle cx="122.5" cy="365.2" r="3" fill="#1f77b4"/>
<circle cx="126.0" cy="393.7" r="3" fill="#1f77b4"/>
<circle cx="129.4" cy="370.0" r="3" fill="#1f77b4"/>
<circle cx="132.9" cy="384.2" r="3" fill="#1f77b4"/>
<circle cx="136.3" cy="360.8" r="3" fill="#1f77b4"/>
<circle cx="139.7" cy="372.8" r="3" fill="#1f77b4"/>
<circle cx="143.2" cy="356.7" r="3" fill="#1f77b4"/>
<circle cx="146.6" cy="349.6" r="3" fill="#1f77b4"/>
<circle cx="150.1" cy="350.5" r="3" fill="#1f77b4"/>
<circle cx="153.5" cy="345.8" r="3" fill="#1f77b4"/>
<circle cx="157.0" cy="345.1" r="3" fill="#1f77b4"/>
<circle cx="160.4" cy="336.7" r="3" fill="#1f77b4"/>
<circle cx="163.8" cy="323.2" r="3" fill="#1f77b4"/>
<circle cx="167.3" cy="298.6" r="3" fill="#1f77b4"/>
<circle cx="170.7" cy="310.1" r="3" fill="#1f77b4"/>
<circle cx="174.2" cy="331.6" r="3" fill="#1f77b4"/>
<circle cx="177.6" cy="334.6" r="3" fill="#1f77b4"/>
<circle cx="181.1" cy="310.5" r="3" fill="#1f77b4"/>
<circle cx="184.5" cy="331.9" r="3" fill="#1f77b4"/>
<circle cx="187.9" cy="298.8" r="3" fill="#1f77b4"/>
<circle cx="191.4" cy="294.3" r="3" fill="#1f77b4"/>
<circle cx="194.8" cy="270.6" r="3" fill="#1f77b4"/>
<circle cx="198.3" cy="316.0" r="3" fill="#1f77b4"/>
<circle cx="201.7" cy="333.7" r="3" fill="#1f77b4"/>
<circle cx="205.2" cy="355.7" r="3" fill="#1f77b4"/>
<circle cx="208.6" cy="306.1" r="3" fill="#1f77b4"/>
<circle cx="212.0" cy="291.9" r="3" fill="#1f77b4"/>
<circle cx="215.5" cy="301.8" r="3" fill="#1f77b4"/>
<circle cx="218.9" cy="317.9" r="3" fill="#1f77b4"/>
<circle cx="222.4" cy="309.3" r="3" fill="#1f77b4"/>
<circle cx="225.8" cy="323.1" r="3" fill="#1f77b4"/>
<circle cx="229.2" cy="278.0" r="3" fill="#1f77b4"/>
<circle cx="232.7" cy="321.0" r="3" fill="#1f77b4"/>
<circle cx="236.1" cy="277.9" r="3" fill="#1f77b4"/>
<circle cx="239.6" cy="289.7" r="3" fill="#1f77b4"/>
<circle cx="243.0" cy="292.4" r="3" fill="#1f77b4"/>
<circle cx="246.5" cy="279.4" r="3" fill="#1f77b4"/>
<circle cx="249.9" cy="239.8" r="3" fill="#1f77b4"/>
<circle cx="253.3" cy="334.7" r="3" fill="#1f77b4"/>
<circle cx="256.8" cy="238.9" r="3" fill="#1f77b4"/>
<circle cx="260.2" cy="283.5" r="3" fill="#1f77b4"/>
<circle cx="263.7" cy="314.4" r="3" fill="#1f77b4"/>
<circle cx="267.1" cy="290.8" r="3" fill="#1f77b4"/>
<circle cx="270.6" cy="302.8" r="3" fill="#1f77b4"/>
<circle cx="274.0" cy="282.8" r="3" fill="#1f77b4"/>
<circle cx="277.4" cy="325.2" r="3" fill="#1f77b4"/>
<circle cx="280.9" cy="300.8" r="3" fill="#1f77b4"/>
<circle cx="284.3" cy="250.5" r="3" fill="#1f77b4"/>
<circle cx="287.8" cy="323.5" r="3" fill="#1f77b4"/>
<circle cx="291.2" cy="271.8" r="3" fill="#1f77b4"/>
<circle cx="294.6" cy="257.6" r="3" fill="#1f77b4"/>
<circle cx="298.1" cy="220.3" r="3" fill="#1f77b4"/>
<circle cx="301.5" cy="282.8" r="3" fill="#1f77b4"/>
<circle cx="305.0" cy="271.0" r="3" fill="#1f77b4"/>
<circle cx="308.4" cy="291.0" r="3" fill="#1f77b4"/>
<circle cx="311.9" cy="180.5" r="3" fill="#1f77b4"/>
<circle cx="315.3" cy="243.7" r="3" fill="#1f77b4"/>
<circle cx="318.7" cy="254.1" r="3" fill="#1f77b4"/>
<circle cx="322.2" cy="187.6" r="3" fill="#1f77b4"/>
<circle cx="325.6" cy="243.3" r="3" fill="#1f77b4"/>
<circle cx="329.1" cy="236.3" r="3" fill="#1f77b4"/>
<circle cx="332.5" cy="211.5" r="3" fill="#1f77b4"/>
<circle cx="336.0" cy="154.7" r="3" fill="#1f77b4"/>
<circle cx="339.4" cy="207.5" r="3" fill="#1f77b4"/>
<circle cx="342.8" cy="201.4" r="3" fill="#1f77b4"/>
<circle cx="346.3" cy="185.8" r="3" fill="#1f77b4"/>
<circle cx="349.7" cy="160.1" r="3" fill="#1f77b4"/>
<circle cx="353.2" cy="205.5" r="3" fill="#1f77b4"/>
<circle cx="356.6" cy="119.9" r="3" fill="#1f77b4"/>
<circle cx="360.1" cy="170.8" r="3" fill="#1f77b4"/>
<circle cx="363.5" cy="173.2" r="3" fill="#1f77b4"/>
<circle cx="366.9" cy="232.9" r="3" fill="#1f77b4"/>
<circle cx="370.4" cy="183.7" r="3" fill="#1f77b4"/>
<circle cx="373.8" cy="191.9" r="3" fill="#1f77b4"/>
<circle cx="377.3" cy="175.4" r="3" fill="#1f77b4"/>
<circle cx="380.7" cy="112.4" r="3" fill="#1f77b4"/>
<circle cx="384.1" cy="172.0" r="3" fill="#1f77b4"/>
<circle cx="387.6" cy="162.8" r="3" fill="#1f77b4"/>
<circle cx="391.0" cy="227.6" r="3" fill="#1f77b4"/>
<circle cx="394.5" cy="191.0" r="3" fill="#1f77b4"/>
<circle cx="397.9" cy="228.7" r="3" fill="#1f77b4"/>
<circle cx="401.4" cy="219.3" r="3" fill="#1f77b4"/>
<circle cx="404.8" cy="148.2" r="3" fill="#1f77b4"/>
<circle cx="408.2" cy="95.5" r="3" fill="#1f77b4"/>
<circle cx="411.7" cy="173.8" r="3" fill="#1f77b4"/>
<circle cx="415.1" cy="152.2" r="3" fill="#1f77b4"/>
<circle cx="418.6" cy="167.9" r="3" fill="#1f77b4"/>
<circle cx="422.0" cy="140.4" r="3" fill="#1f77b4"/>
<circle cx="425.5" cy="149.9" r="3" fill="#1f77b4"/>
<circle cx="428.9" cy="143.2" r="3" fill="#1f77b4"/>
<circle cx="432.3" cy="184.4" r="3" fill="#1f77b4"/>
<circle cx="435.8" cy="192.6" r="3" fill="#1f77b4"/>
<circle cx="439.2" cy="163.4" r="3" fill="#1f77b4"/>
<circle cx="442.7" cy="256.8" r="3" fill="#1f77b4"/>
<circle cx="446.1" cy="273.1" r="3" fill="#1f77b4"/>
<circle cx="449.5" cy="262.6" r="3" fill="#1f77b4"/>
<circle cx="453.0" cy="255.7" r="3" fill="#1f77b4"/>
<circle cx="456.4" cy="262.8" r="3" fill="#1f77b4"/>
<circle cx="459.9" cy="261.1" r="3" fill="#1f77b4"/>
<circle cx="463.3" cy="235.2" r="3" fill="#1f77b4"/>
<circle cx="466.8" cy="262.5" r="3" fill="#1f77b4"/>
<circle cx="470.2" cy="250.3" r="3" fill="#1f77b4"/>
<circle cx="473.6" cy="185.7" r="3" fill="#1f77b4"/>
<circle cx="477.1" cy="238.5" r="3" fill="#1f77b4"/>
<circle cx="480.5" cy="263.4" r="3" fill="#1f77b4"/>
<circle cx="484.0" cy="213.8" r="3" fill="#1f77b4"/>
<circle cx="487.4" cy="235.7" r="3" fill="#1f77b4"/>
<circle cx="490.9" cy="163.0" r="3" fill="#1f77b4"/>
<circle cx="494.3" cy="247.7" r="3" fill="#1f77b4"/>
<circle cx="497.7" cy="230.2" r="3" fill="#1f77b4"/>
<circle cx="501.2" cy="204.7" r="3" fill="#1f77b4"/>
<circle cx="504.6" cy="188.8" r="3" fill="#1f77b4"/>
<circle cx="508.1" cy="174.9" r="3" fill="#1f77b4"/>
<circle cx="511.5" cy="74.1" r="3" fill="#1f77b4"/>
<circle cx="514.9" cy="124.6" r="3" fill="#1f77b4"/>
<circle cx="518.4" cy="224.1" r="3" fill="#1f77b4"/>
<circle cx="521.8" cy="150.9" r="3" fill="#1f77b4"/>
<circle cx="525.3" cy="163.9" r="3" fill="#1f77b4"/>
<circle cx="528.7" cy="154.4" r="3" fill="#1f77b4"/>
<circle cx="532.2" cy="118.5" r="3" fill="#1f77b4"/>
<circle cx="535.6" cy="144.3" r="3" fill="#1f77b4"/>
<circle cx="539.0" cy="190.6" r="3" fill="#1f77b4"/>
<circle cx="542.5" cy="164.8" r="3" fill="#1f77b4"/>
<circle cx="545.9" cy="174.2" r="3" fill="#1f77b4"/>
<circle cx="549.4" cy="160.2" r="3" fill="#1f77b4"/>
<circle cx="552.8" cy="140.7" r="3" fill="#1f77b4"/>
<circle cx="556.3" cy="170.0" r="3" fill="#1f77b4"/>
<circle cx="559.7" cy="161.6" r="3" fill="#1f77b4"/>
<circle cx="563.1" cy="185.9" r="3" fill="#1f77b4"/>
<circle cx="566.6" cy="180.4" r="3" fill="#1f77b4"/>
<circle cx="570.0" cy="194.3" r="3" fill="#1f77b4"/>
<circle cx="573.5" cy="93.3" r="3" fill="#1f77b4"/>
<circle cx="576.9" cy="153.8" r="3" fill="#1f77b4"/>
<circle cx="580.4" cy="144.9" r="3" fill="#1f77b4"/>
<circle cx="583.8" cy="174.8" r="3" fill="#1f77b4"/>
<circle cx="587.2" cy="118.5" r="3" fill="#1f77b4"/>
<circle cx="590.7" cy="158.9" r="3" fill="#1f77b4"/>
<circle cx="594.1" cy="166.5" r="3" fill="#1f77b4"/>
<circle cx="597.6" cy="166.4" r="3" fill="#1f77b4"/>
<circle cx="601.0" cy="133.7" r="3" fill="#1f77b4"/>
<circle cx="604.4" cy="124.8" r="3" fill="#1f77b4"/>
<circle cx="607.9" cy="142.6" r="3" fill="#1f77b4"/>
<circle cx="611.3" cy="135.6" r="3" fill="#1f77b4"/>
<circle cx="614.8" cy="131.9" r="3" fill="#1f77b4"/>
<circle cx="618.2" cy="188.3" r="3" fill="#1f77b4"/>
<circle cx="621.7" cy="154.7" r="3" fill="#1f77b4"/>
<circle cx="625.1" cy="178.4" r="3" fill="#1f77b4"/>
<circle cx="628.5" cy="195.6" r="3" fill="#1f77b4"/>
<circle cx="632.0" cy="75.2" r="3" fill="#1f77b4"/>
<circle cx="635.4" cy="179.4" r="3" fill="#1f77b4"/>
<circle cx="638.9" cy="95.4" r="3" fill="#1f77b4"/>
<circle cx="642.3" cy="82.1" r="3" fill="#1f77b4"/>
<circle cx="645.8" cy="112.5" r="3" fill="#1f77b4"/>
<circle cx="649.2" cy="207.6" r="3" fill="#1f77b4"/>
<circle cx="652.6" cy="186.0" r="3" fill="#1f77b4"/>
<circle cx="656.1" cy="135.1" r="3" fill="#1f77b4"/>
<circle cx="659.5" cy="195.4" r="3" fill="#1f77b4"/>
<circle cx="663.0" cy="188.3" r="3" fill="#1f77b4"/>
<circle cx="666.4" cy="169.1" r="3" fill="#1f77b4"/>
<circle cx="669.8" cy="222.9" r="3" fill="#1f77b4"/>
<circle cx="673.3" cy="202.8" r="3" fill="#1f77b4"/>
<circle cx="676.7" cy="200.1" r="3" fill="#1f77b4"/>
<circle cx="680.2" cy="214.2" r="3" fill="#1f77b4"/>
<circle cx="683.6" cy="233.9" r="3" fill="#1f77b4"/>
<circle cx="687.1" cy="189.1" r="3" fill="#1f77b4"/>
<circle cx="690.5" cy="172.5" r="3" fill="#1f77b4"/>
<circle cx="693.9" cy="184.6" r="3" fill="#1f77b4"/>
<circle cx="697.4" cy="205.1" r="3" fill="#1f77b4"/>
<circle cx="700.8" cy="172.2" r="3" fill="#1f77b4"/>
<circle cx="704.3" cy="173.4" r="3" fill="#1f77b4"/>
<circle cx="707.7" cy="228.8" r="3" fill="#1f77b4"/>
<circle cx="711.2" cy="181.0" r="3" fill="#1f77b4"/>
<circle cx="714.6" cy="166.5" r="3" fill="#1f77b4"/>
<circle cx="718.0" cy="212.4" r="3" fill="#1f77b4"/>
<circle cx="721.5" cy="212.4" r="3" fill="#1f77b4"/>
<circle cx="724.9" cy="204.1" r="3" fill="#1f77b4"/>
<circle cx="728.4" cy="235.3" r="3" fill="#1f77b4"/>
<circle cx="731.8" cy="174.3" r="3" fill="#1f77b4"/>
<circle cx="735.3" cy="227.9" r="3" fill="#1f77b4"/>
<circle cx="738.7" cy="182.2" r="3" fill="#1f77b4"/>
<circle cx="742.1" cy="156.3" r="3" fill="#1f77b4"/>
<circle cx="745.6" cy="145.2" r="3" fill="#1f77b4"/>
<circle cx="749.0" cy="173.4" r="3" fill="#1f77b4"/>
<circle cx="752.5" cy="234.6" r="3" fill="#1f77b4"/>
<circle cx="755.9" cy="220.0" r="3" fill="#1f77b4"/>
<circle cx="759.3" cy="182.8" r="3" fill="#1f77b4"/>
<circle cx="762.8" cy="125.0" r="3" fill="#1f77b4"/>
<circle cx="766.2" cy="88.9" r="3" fill="#1f77b4"/>
<circle cx="769.7" cy="192.7" r="3" fill="#1f77b4"/>
<circle cx="773.1" cy="159.4" r="3" fill="#1f77b4"/>
<circle cx="776.6" cy="126.4" r="3" fill="#1f77b4"/>
<circle cx="780.0" cy="177.2" r="3" fill="#1f77b4"/>
<line x1="808" y1="96" x2="830" y2="96" stroke="#1f77b4" stroke-width="2.5"/>
<text x="838" y="100" font-family="Arial" font-size="13">reinforce_with_baseline</text>
<polyline fill="none" stroke="#d62728" stroke-width="2.3" points="95.0,309.5 98.4,472.4 101.9,525.9 105.3,538.6 108.8,535.6 112.2,518.3 115.7,528.9 119.1,542.9 122.5,546.0 126.0,546.5 129.4,546.4 132.9,546.4 136.3,546.5 139.7,546.7 143.2,545.8 146.6,546.1 150.1,546.0 153.5,546.0 157.0,546.2 160.4,546.0 163.8,546.3 167.3,546.0 170.7,545.8 174.2,542.7 177.6,546.4 181.1,546.3 184.5,546.5 187.9,546.4 191.4,545.5 194.8,546.6 198.3,542.3 201.7,546.3 205.2,540.3 208.6,539.4 212.0,493.4 215.5,414.3 218.9,490.4 222.4,513.5 225.8,508.1 229.2,525.9 232.7,518.0 236.1,512.5 239.6,520.9 243.0,519.3 246.5,306.5 249.9,503.0 253.3,514.0 256.8,496.1 260.2,530.4 263.7,533.6 267.1,537.0 270.6,539.8 274.0,540.0 277.4,540.3 280.9,539.6 284.3,539.1 287.8,538.7 291.2,527.7 294.6,511.6 298.1,499.1 301.5,532.2 305.0,529.6 308.4,530.3 311.9,531.0 315.3,536.9 318.7,538.8 322.2,540.8 325.6,540.3 329.1,541.0 332.5,541.2 336.0,541.0 339.4,538.0 342.8,541.0 346.3,540.8 349.7,537.4 353.2,509.4 356.6,530.1 360.1,537.5 363.5,540.3 366.9,538.8 370.4,542.3 373.8,536.3 377.3,536.2 380.7,532.5 384.1,537.4 387.6,534.7 391.0,534.0 394.5,542.7 397.9,532.8 401.4,535.3 404.8,537.4 408.2,544.1 411.7,525.8 415.1,448.1 418.6,471.7 422.0,503.8 425.5,518.4 428.9,511.6 432.3,525.7 435.8,532.0 439.2,541.6 442.7,509.0 446.1,130.8 449.5,234.0 453.0,476.0 456.4,530.0 459.9,543.5 463.3,546.4 466.8,546.4 470.2,545.9 473.6,546.4 477.1,546.6 480.5,546.3 484.0,544.7 487.4,544.8 490.9,533.6 494.3,524.8 497.7,379.4 501.2,450.2 504.6,485.1 508.1,522.9 511.5,535.6 514.9,545.1 518.4,541.8 521.8,526.3 525.3,535.6 528.7,527.9 532.2,537.9 535.6,540.7 539.0,541.3 542.5,545.2 545.9,546.1 549.4,541.7 552.8,538.9 556.3,511.5 559.7,513.3 563.1,530.3 566.6,533.0 570.0,532.9 573.5,508.0 576.9,538.8 580.4,542.2 583.8,536.6 587.2,541.2 590.7,544.9 594.1,544.8 597.6,545.1 601.0,544.7 604.4,545.0 607.9,544.7 611.3,541.9 614.8,544.1 618.2,538.4 621.7,534.8 625.1,543.6 628.5,519.8 632.0,514.9 635.4,502.8 638.9,513.4 642.3,493.0 645.8,528.5 649.2,541.2 652.6,543.1 656.1,534.7 659.5,526.3 663.0,523.9 666.4,516.6 669.8,510.0 673.3,504.6 676.7,403.5 680.2,393.6 683.6,285.1 687.1,298.8 690.5,491.3 693.9,532.1 697.4,537.7 700.8,538.7 704.3,542.5 707.7,543.0 711.2,544.4 714.6,544.1 718.0,535.0 721.5,370.8 724.9,539.8 728.4,539.2 731.8,539.2 735.3,538.8 738.7,524.8 742.1,507.1 745.6,500.4 749.0,508.4 752.5,510.5 755.9,517.5 759.3,511.9 762.8,504.7 766.2,501.5 769.7,474.0 773.1,447.6 776.6,447.4 780.0,473.5"/>
<circle cx="95.0" cy="309.5" r="3" fill="#d62728"/>
<circle cx="98.4" cy="472.4" r="3" fill="#d62728"/>
<circle cx="101.9" cy="525.9" r="3" fill="#d62728"/>
<circle cx="105.3" cy="538.6" r="3" fill="#d62728"/>
<circle cx="108.8" cy="535.6" r="3" fill="#d62728"/>
<circle cx="112.2" cy="518.3" r="3" fill="#d62728"/>
<circle cx="115.7" cy="528.9" r="3" fill="#d62728"/>
<circle cx="119.1" cy="542.9" r="3" fill="#d62728"/>
<circle cx="122.5" cy="546.0" r="3" fill="#d62728"/>
<circle cx="126.0" cy="546.5" r="3" fill="#d62728"/>
<circle cx="129.4" cy="546.4" r="3" fill="#d62728"/>
<circle cx="132.9" cy="546.4" r="3" fill="#d62728"/>
<circle cx="136.3" cy="546.5" r="3" fill="#d62728"/>
<circle cx="139.7" cy="546.7" r="3" fill="#d62728"/>
<circle cx="143.2" cy="545.8" r="3" fill="#d62728"/>
<circle cx="146.6" cy="546.1" r="3" fill="#d62728"/>
<circle cx="150.1" cy="546.0" r="3" fill="#d62728"/>
<circle cx="153.5" cy="546.0" r="3" fill="#d62728"/>
<circle cx="157.0" cy="546.2" r="3" fill="#d62728"/>
<circle cx="160.4" cy="546.0" r="3" fill="#d62728"/>
<circle cx="163.8" cy="546.3" r="3" fill="#d62728"/>
<circle cx="167.3" cy="546.0" r="3" fill="#d62728"/>
<circle cx="170.7" cy="545.8" r="3" fill="#d62728"/>
<circle cx="174.2" cy="542.7" r="3" fill="#d62728"/>
<circle cx="177.6" cy="546.4" r="3" fill="#d62728"/>
<circle cx="181.1" cy="546.3" r="3" fill="#d62728"/>
<circle cx="184.5" cy="546.5" r="3" fill="#d62728"/>
<circle cx="187.9" cy="546.4" r="3" fill="#d62728"/>
<circle cx="191.4" cy="545.5" r="3" fill="#d62728"/>
<circle cx="194.8" cy="546.6" r="3" fill="#d62728"/>
<circle cx="198.3" cy="542.3" r="3" fill="#d62728"/>
<circle cx="201.7" cy="546.3" r="3" fill="#d62728"/>
<circle cx="205.2" cy="540.3" r="3" fill="#d62728"/>
<circle cx="208.6" cy="539.4" r="3" fill="#d62728"/>
<circle cx="212.0" cy="493.4" r="3" fill="#d62728"/>
<circle cx="215.5" cy="414.3" r="3" fill="#d62728"/>
<circle cx="218.9" cy="490.4" r="3" fill="#d62728"/>
<circle cx="222.4" cy="513.5" r="3" fill="#d62728"/>
<circle cx="225.8" cy="508.1" r="3" fill="#d62728"/>
<circle cx="229.2" cy="525.9" r="3" fill="#d62728"/>
<circle cx="232.7" cy="518.0" r="3" fill="#d62728"/>
<circle cx="236.1" cy="512.5" r="3" fill="#d62728"/>
<circle cx="239.6" cy="520.9" r="3" fill="#d62728"/>
<circle cx="243.0" cy="519.3" r="3" fill="#d62728"/>
<circle cx="246.5" cy="306.5" r="3" fill="#d62728"/>
<circle cx="249.9" cy="503.0" r="3" fill="#d62728"/>
<circle cx="253.3" cy="514.0" r="3" fill="#d62728"/>
<circle cx="256.8" cy="496.1" r="3" fill="#d62728"/>
<circle cx="260.2" cy="530.4" r="3" fill="#d62728"/>
<circle cx="263.7" cy="533.6" r="3" fill="#d62728"/>
<circle cx="267.1" cy="537.0" r="3" fill="#d62728"/>
<circle cx="270.6" cy="539.8" r="3" fill="#d62728"/>
<circle cx="274.0" cy="540.0" r="3" fill="#d62728"/>
<circle cx="277.4" cy="540.3" r="3" fill="#d62728"/>
<circle cx="280.9" cy="539.6" r="3" fill="#d62728"/>
<circle cx="284.3" cy="539.1" r="3" fill="#d62728"/>
<circle cx="287.8" cy="538.7" r="3" fill="#d62728"/>
<circle cx="291.2" cy="527.7" r="3" fill="#d62728"/>
<circle cx="294.6" cy="511.6" r="3" fill="#d62728"/>
<circle cx="298.1" cy="499.1" r="3" fill="#d62728"/>
<circle cx="301.5" cy="532.2" r="3" fill="#d62728"/>
<circle cx="305.0" cy="529.6" r="3" fill="#d62728"/>
<circle cx="308.4" cy="530.3" r="3" fill="#d62728"/>
<circle cx="311.9" cy="531.0" r="3" fill="#d62728"/>
<circle cx="315.3" cy="536.9" r="3" fill="#d62728"/>
<circle cx="318.7" cy="538.8" r="3" fill="#d62728"/>
<circle cx="322.2" cy="540.8" r="3" fill="#d62728"/>
<circle cx="325.6" cy="540.3" r="3" fill="#d62728"/>
<circle cx="329.1" cy="541.0" r="3" fill="#d62728"/>
<circle cx="332.5" cy="541.2" r="3" fill="#d62728"/>
<circle cx="336.0" cy="541.0" r="3" fill="#d62728"/>
<circle cx="339.4" cy="538.0" r="3" fill="#d62728"/>
<circle cx="342.8" cy="541.0" r="3" fill="#d62728"/>
<circle cx="346.3" cy="540.8" r="3" fill="#d62728"/>
<circle cx="349.7" cy="537.4" r="3" fill="#d62728"/>
<circle cx="353.2" cy="509.4" r="3" fill="#d62728"/>
<circle cx="356.6" cy="530.1" r="3" fill="#d62728"/>
<circle cx="360.1" cy="537.5" r="3" fill="#d62728"/>
<circle cx="363.5" cy="540.3" r="3" fill="#d62728"/>
<circle cx="366.9" cy="538.8" r="3" fill="#d62728"/>
<circle cx="370.4" cy="542.3" r="3" fill="#d62728"/>
<circle cx="373.8" cy="536.3" r="3" fill="#d62728"/>
<circle cx="377.3" cy="536.2" r="3" fill="#d62728"/>
<circle cx="380.7" cy="532.5" r="3" fill="#d62728"/>
<circle cx="384.1" cy="537.4" r="3" fill="#d62728"/>
<circle cx="387.6" cy="534.7" r="3" fill="#d62728"/>
<circle cx="391.0" cy="534.0" r="3" fill="#d62728"/>
<circle cx="394.5" cy="542.7" r="3" fill="#d62728"/>
<circle cx="397.9" cy="532.8" r="3" fill="#d62728"/>
<circle cx="401.4" cy="535.3" r="3" fill="#d62728"/>
<circle cx="404.8" cy="537.4" r="3" fill="#d62728"/>
<circle cx="408.2" cy="544.1" r="3" fill="#d62728"/>
<circle cx="411.7" cy="525.8" r="3" fill="#d62728"/>
<circle cx="415.1" cy="448.1" r="3" fill="#d62728"/>
<circle cx="418.6" cy="471.7" r="3" fill="#d62728"/>
<circle cx="422.0" cy="503.8" r="3" fill="#d62728"/>
<circle cx="425.5" cy="518.4" r="3" fill="#d62728"/>
<circle cx="428.9" cy="511.6" r="3" fill="#d62728"/>
<circle cx="432.3" cy="525.7" r="3" fill="#d62728"/>
<circle cx="435.8" cy="532.0" r="3" fill="#d62728"/>
<circle cx="439.2" cy="541.6" r="3" fill="#d62728"/>
<circle cx="442.7" cy="509.0" r="3" fill="#d62728"/>
<circle cx="446.1" cy="130.8" r="3" fill="#d62728"/>
<circle cx="449.5" cy="234.0" r="3" fill="#d62728"/>
<circle cx="453.0" cy="476.0" r="3" fill="#d62728"/>
<circle cx="456.4" cy="530.0" r="3" fill="#d62728"/>
<circle cx="459.9" cy="543.5" r="3" fill="#d62728"/>
<circle cx="463.3" cy="546.4" r="3" fill="#d62728"/>
<circle cx="466.8" cy="546.4" r="3" fill="#d62728"/>
<circle cx="470.2" cy="545.9" r="3" fill="#d62728"/>
<circle cx="473.6" cy="546.4" r="3" fill="#d62728"/>
<circle cx="477.1" cy="546.6" r="3" fill="#d62728"/>
<circle cx="480.5" cy="546.3" r="3" fill="#d62728"/>
<circle cx="484.0" cy="544.7" r="3" fill="#d62728"/>
<circle cx="487.4" cy="544.8" r="3" fill="#d62728"/>
<circle cx="490.9" cy="533.6" r="3" fill="#d62728"/>
<circle cx="494.3" cy="524.8" r="3" fill="#d62728"/>
<circle cx="497.7" cy="379.4" r="3" fill="#d62728"/>
<circle cx="501.2" cy="450.2" r="3" fill="#d62728"/>
<circle cx="504.6" cy="485.1" r="3" fill="#d62728"/>
<circle cx="508.1" cy="522.9" r="3" fill="#d62728"/>
<circle cx="511.5" cy="535.6" r="3" fill="#d62728"/>
<circle cx="514.9" cy="545.1" r="3" fill="#d62728"/>
<circle cx="518.4" cy="541.8" r="3" fill="#d62728"/>
<circle cx="521.8" cy="526.3" r="3" fill="#d62728"/>
<circle cx="525.3" cy="535.6" r="3" fill="#d62728"/>
<circle cx="528.7" cy="527.9" r="3" fill="#d62728"/>
<circle cx="532.2" cy="537.9" r="3" fill="#d62728"/>
<circle cx="535.6" cy="540.7" r="3" fill="#d62728"/>
<circle cx="539.0" cy="541.3" r="3" fill="#d62728"/>
<circle cx="542.5" cy="545.2" r="3" fill="#d62728"/>
<circle cx="545.9" cy="546.1" r="3" fill="#d62728"/>
<circle cx="549.4" cy="541.7" r="3" fill="#d62728"/>
<circle cx="552.8" cy="538.9" r="3" fill="#d62728"/>
<circle cx="556.3" cy="511.5" r="3" fill="#d62728"/>
<circle cx="559.7" cy="513.3" r="3" fill="#d62728"/>
<circle cx="563.1" cy="530.3" r="3" fill="#d62728"/>
<circle cx="566.6" cy="533.0" r="3" fill="#d62728"/>
<circle cx="570.0" cy="532.9" r="3" fill="#d62728"/>
<circle cx="573.5" cy="508.0" r="3" fill="#d62728"/>
<circle cx="576.9" cy="538.8" r="3" fill="#d62728"/>
<circle cx="580.4" cy="542.2" r="3" fill="#d62728"/>
<circle cx="583.8" cy="536.6" r="3" fill="#d62728"/>
<circle cx="587.2" cy="541.2" r="3" fill="#d62728"/>
<circle cx="590.7" cy="544.9" r="3" fill="#d62728"/>
<circle cx="594.1" cy="544.8" r="3" fill="#d62728"/>
<circle cx="597.6" cy="545.1" r="3" fill="#d62728"/>
<circle cx="601.0" cy="544.7" r="3" fill="#d62728"/>
<circle cx="604.4" cy="545.0" r="3" fill="#d62728"/>
<circle cx="607.9" cy="544.7" r="3" fill="#d62728"/>
<circle cx="611.3" cy="541.9" r="3" fill="#d62728"/>
<circle cx="614.8" cy="544.1" r="3" fill="#d62728"/>
<circle cx="618.2" cy="538.4" r="3" fill="#d62728"/>
<circle cx="621.7" cy="534.8" r="3" fill="#d62728"/>
<circle cx="625.1" cy="543.6" r="3" fill="#d62728"/>
<circle cx="628.5" cy="519.8" r="3" fill="#d62728"/>
<circle cx="632.0" cy="514.9" r="3" fill="#d62728"/>
<circle cx="635.4" cy="502.8" r="3" fill="#d62728"/>
<circle cx="638.9" cy="513.4" r="3" fill="#d62728"/>
<circle cx="642.3" cy="493.0" r="3" fill="#d62728"/>
<circle cx="645.8" cy="528.5" r="3" fill="#d62728"/>
<circle cx="649.2" cy="541.2" r="3" fill="#d62728"/>
<circle cx="652.6" cy="543.1" r="3" fill="#d62728"/>
<circle cx="656.1" cy="534.7" r="3" fill="#d62728"/>
<circle cx="659.5" cy="526.3" r="3" fill="#d62728"/>
<circle cx="663.0" cy="523.9" r="3" fill="#d62728"/>
<circle cx="666.4" cy="516.6" r="3" fill="#d62728"/>
<circle cx="669.8" cy="510.0" r="3" fill="#d62728"/>
<circle cx="673.3" cy="504.6" r="3" fill="#d62728"/>
<circle cx="676.7" cy="403.5" r="3" fill="#d62728"/>
<circle cx="680.2" cy="393.6" r="3" fill="#d62728"/>
<circle cx="683.6" cy="285.1" r="3" fill="#d62728"/>
<circle cx="687.1" cy="298.8" r="3" fill="#d62728"/>
<circle cx="690.5" cy="491.3" r="3" fill="#d62728"/>
<circle cx="693.9" cy="532.1" r="3" fill="#d62728"/>
<circle cx="697.4" cy="537.7" r="3" fill="#d62728"/>
<circle cx="700.8" cy="538.7" r="3" fill="#d62728"/>
<circle cx="704.3" cy="542.5" r="3" fill="#d62728"/>
<circle cx="707.7" cy="543.0" r="3" fill="#d62728"/>
<circle cx="711.2" cy="544.4" r="3" fill="#d62728"/>
<circle cx="714.6" cy="544.1" r="3" fill="#d62728"/>
<circle cx="718.0" cy="535.0" r="3" fill="#d62728"/>
<circle cx="721.5" cy="370.8" r="3" fill="#d62728"/>
<circle cx="724.9" cy="539.8" r="3" fill="#d62728"/>
<circle cx="728.4" cy="539.2" r="3" fill="#d62728"/>
<circle cx="731.8" cy="539.2" r="3" fill="#d62728"/>
<circle cx="735.3" cy="538.8" r="3" fill="#d62728"/>
<circle cx="738.7" cy="524.8" r="3" fill="#d62728"/>
<circle cx="742.1" cy="507.1" r="3" fill="#d62728"/>
<circle cx="745.6" cy="500.4" r="3" fill="#d62728"/>
<circle cx="749.0" cy="508.4" r="3" fill="#d62728"/>
<circle cx="752.5" cy="510.5" r="3" fill="#d62728"/>
<circle cx="755.9" cy="517.5" r="3" fill="#d62728"/>
<circle cx="759.3" cy="511.9" r="3" fill="#d62728"/>
<circle cx="762.8" cy="504.7" r="3" fill="#d62728"/>
<circle cx="766.2" cy="501.5" r="3" fill="#d62728"/>
<circle cx="769.7" cy="474.0" r="3" fill="#d62728"/>
<circle cx="773.1" cy="447.6" r="3" fill="#d62728"/>
<circle cx="776.6" cy="447.4" r="3" fill="#d62728"/>
<circle cx="780.0" cy="473.5" r="3" fill="#d62728"/>
<line x1="808" y1="121" x2="830" y2="121" stroke="#d62728" stroke-width="2.5"/>
<text x="838" y="125" font-family="Arial" font-size="13">no_baseline</text>
<text x="437.5" y="618" text-anchor="middle" font-family="Arial" font-size="15">GRPO step</text>
<text x="24" y="316.0" text-anchor="middle" font-family="Arial" font-size="15" transform="rotate(-90 24 316.0)">average rollout response tokens</text>
</svg>
