<svg xmlns="http://www.w3.org/2000/svg" width="1040" height="640" viewBox="0 0 1040 640">
<rect width="100%" height="100%" fill="white"/>
<text x="520.0" y="36" text-anchor="middle" font-family="Arial" font-size="22" font-weight="700">GRPO token entropy by baseline choice</text>
<line x1="95" y1="558" x2="780" y2="558" stroke="#222" stroke-width="1.5"/>
<line x1="95" y1="74" x2="95" y2="558" stroke="#222" stroke-width="1.5"/>
<line x1="90" y1="558.0" x2="780" y2="558.0" stroke="#ddd" stroke-width="1"/>
<text x="83" y="562.0" text-anchor="end" font-family="Arial" font-size="12">0.00</text>
<line x1="90" y1="461.2" x2="780" y2="461.2" stroke="#ddd" stroke-width="1"/>
<text x="83" y="465.2" text-anchor="end" font-family="Arial" font-size="12">0.50</text>
<line x1="90" y1="364.4" x2="780" y2="364.4" stroke="#ddd" stroke-width="1"/>
<text x="83" y="368.4" text-anchor="end" font-family="Arial" font-size="12">1.00</text>
<line x1="90" y1="267.6" x2="780" y2="267.6" stroke="#ddd" stroke-width="1"/>
<text x="83" y="271.6" text-anchor="end" font-family="Arial" font-size="12">1.50</text>
<line x1="90" y1="170.8" x2="780" y2="170.8" stroke="#ddd" stroke-width="1"/>
<text x="83" y="174.8" text-anchor="end" font-family="Arial" font-size="12">2.00</text>
<line x1="90" y1="74.0" x2="780" y2="74.0" stroke="#ddd" stroke-width="1"/>
<text x="83" y="78.0" text-anchor="end" font-family="Arial" font-size="12">2.50</text>
<line x1="95.0" y1="558" x2="95.0" y2="563" stroke="#222" stroke-width="1"/>
<text x="95.0" y="582" text-anchor="middle" font-family="Arial" font-size="12">1</text>
<line x1="232.0" y1="558" x2="232.0" y2="563" stroke="#222" stroke-width="1"/>
<text x="232.0" y="582" text-anchor="middle" font-family="Arial" font-size="12">41</text>
<line x1="369.0" y1="558" x2="369.0" y2="563" stroke="#222" stroke-width="1"/>
<text x="369.0" y="582" text-anchor="middle" font-family="Arial" font-size="12">81</text>
<line x1="506.0" y1="558" x2="506.0" y2="563" stroke="#222" stroke-width="1"/>
<text x="506.0" y="582" text-anchor="middle" font-family="Arial" font-size="12">120</text>
<line x1="643.0" y1="558" x2="643.0" y2="563" stroke="#222" stroke-width="1"/>
<text x="643.0" y="582" text-anchor="middle" font-family="Arial" font-size="12">160</text>
<line x1="780.0" y1="558" x2="780.0" y2="563" stroke="#222" stroke-width="1"/>
<text x="780.0" y="582" text-anchor="middle" font-family="Arial" font-size="12">200</text>
<polyline fill="none" stroke="#1f77b4" stroke-width="2.3" points="95.0,379.2 98.4,481.3 101.9,511.2 105.3,507.0 108.8,509.4 112.2,500.2 115.7,498.7 119.1,499.5 122.5,505.2 126.0,502.0 129.4,517.4 132.9,523.2 136.3,531.2 139.7,526.7 143.2,526.2 146.6,531.5 150.1,531.5 153.5,525.9 157.0,531.1 160.4,533.2 163.8,530.4 167.3,530.8 170.7,533.3 174.2,534.7 177.6,533.8 181.1,531.0 184.5,535.9 187.9,534.1 191.4,535.6 194.8,536.6 198.3,534.7 201.7,534.2 205.2,533.7 208.6,529.7 212.0,530.7 215.5,529.7 218.9,531.7 222.4,528.4 225.8,536.1 229.2,529.3 232.7,535.9 236.1,535.3 239.6,541.0 243.0,538.5 246.5,540.6 249.9,541.5 253.3,544.3 256.8,546.8 260.2,548.3 263.7,547.2 267.1,548.8 270.6,549.2 274.0,549.7 277.4,549.9 280.9,550.7 284.3,549.1 287.8,551.3 291.2,549.2 294.6,551.9 298.1,550.2 301.5,551.8 305.0,551.0 308.4,551.1 311.9,551.8 315.3,550.9 318.7,551.3 322.2,550.7 325.6,550.2 329.1,551.9 332.5,551.0 336.0,547.5 339.4,550.0 342.8,551.0 346.3,551.1 349.7,553.4 353.2,552.9 356.6,552.0 360.1,551.5 363.5,552.7 366.9,551.5 370.4,551.5 373.8,552.1 377.3,552.1 380.7,551.8 384.1,553.6 387.6,553.8 391.0,554.1 394.5,552.0 397.9,551.9 401.4,554.0 404.8,552.5 408.2,551.9 411.7,553.7 415.1,552.9 418.6,553.3 422.0,553.0 425.5,552.7 428.9,553.4 432.3,553.0 435.8,552.2 439.2,552.1 442.7,551.4 446.1,551.8 449.5,551.9 453.0,551.4 456.4,551.5 459.9,551.9 463.3,551.1 466.8,551.4 470.2,552.0 473.6,551.8 477.1,552.8 480.5,553.0 484.0,553.2 487.4,552.2 490.9,552.6 494.3,552.7 497.7,552.9 501.2,552.9 504.6,551.2 508.1,552.5 511.5,552.8 514.9,553.0 518.4,553.8 521.8,552.9 525.3,553.1 528.7,552.0 532.2,552.4 535.6,552.7 539.0,552.5 542.5,551.8 545.9,552.5 549.4,552.5 552.8,552.1 556.3,553.0 559.7,553.5 563.1,551.9 566.6,553.2 570.0,552.3 573.5,550.0 576.9,552.1 580.4,550.9 583.8,551.9 587.2,550.1 590.7,549.4 594.1,551.1 597.6,548.8 601.0,552.1 604.4,549.5 607.9,550.4 611.3,552.8 614.8,550.8 618.2,552.3 621.7,552.3 625.1,552.4 628.5,551.6 632.0,552.6 635.4,553.2 638.9,552.7 642.3,551.7 645.8,552.8 649.2,551.4 652.6,552.4 656.1,550.8 659.5,549.9 663.0,551.4 666.4,553.3 669.8,552.0 673.3,552.6 676.7,551.9 680.2,551.3 683.6,551.9 687.1,552.4 690.5,552.4 693.9,551.5 697.4,550.4 700.8,549.8 704.3,550.7 707.7,550.6 711.2,551.0 714.6,551.0 718.0,551.2 721.5,552.9 724.9,552.1 728.4,552.2 731.8,552.7 735.3,553.0 738.7,552.5 742.1,553.2 745.6,552.3 749.0,553.4 752.5,554.3 755.9,552.4 759.3,553.3 762.8,553.0 766.2,552.6 769.7,553.0 773.1,552.9 776.6,553.5 780.0,553.5"/>
<circle cx="95.0" cy="379.2" r="3" fill="#1f77b4"/>
<circle cx="98.4" cy="481.3" r="3" fill="#1f77b4"/>
<circle cx="101.9" cy="511.2" r="3" fill="#1f77b4"/>
<circle cx="105.3" cy="507.0" r="3" fill="#1f77b4"/>
<circle cx="108.8" cy="509.4" r="3" fill="#1f77b4"/>
<circle cx="112.2" cy="500.2" r="3" fill="#1f77b4"/>
<circle cx="115.7" cy="498.7" r="3" fill="#1f77b4"/>
<circle cx="119.1" cy="499.5" r="3" fill="#1f77b4"/>
<circle cx="122.5" cy="505.2" r="3" fill="#1f77b4"/>
<circle cx="126.0" cy="502.0" r="3" fill="#1f77b4"/>
<circle cx="129.4" cy="517.4" r="3" fill="#1f77b4"/>
<circle cx="132.9" cy="523.2" r="3" fill="#1f77b4"/>
<circle cx="136.3" cy="531.2" r="3" fill="#1f77b4"/>
<circle cx="139.7" cy="526.7" r="3" fill="#1f77b4"/>
<circle cx="143.2" cy="526.2" r="3" fill="#1f77b4"/>
<circle cx="146.6" cy="531.5" r="3" fill="#1f77b4"/>
<circle cx="150.1" cy="531.5" r="3" fill="#1f77b4"/>
<circle cx="153.5" cy="525.9" r="3" fill="#1f77b4"/>
<circle cx="157.0" cy="531.1" r="3" fill="#1f77b4"/>
<circle cx="160.4" cy="533.2" r="3" fill="#1f77b4"/>
<circle cx="163.8" cy="530.4" r="3" fill="#1f77b4"/>
<circle cx="167.3" cy="530.8" r="3" fill="#1f77b4"/>
<circle cx="170.7" cy="533.3" r="3" fill="#1f77b4"/>
<circle cx="174.2" cy="534.7" r="3" fill="#1f77b4"/>
<circle cx="177.6" cy="533.8" r="3" fill="#1f77b4"/>
<circle cx="181.1" cy="531.0" r="3" fill="#1f77b4"/>
<circle cx="184.5" cy="535.9" r="3" fill="#1f77b4"/>
<circle cx="187.9" cy="534.1" r="3" fill="#1f77b4"/>
<circle cx="191.4" cy="535.6" r="3" fill="#1f77b4"/>
<circle cx="194.8" cy="536.6" r="3" fill="#1f77b4"/>
<circle cx="198.3" cy="534.7" r="3" fill="#1f77b4"/>
<circle cx="201.7" cy="534.2" r="3" fill="#1f77b4"/>
<circle cx="205.2" cy="533.7" r="3" fill="#1f77b4"/>
<circle cx="208.6" cy="529.7" r="3" fill="#1f77b4"/>
<circle cx="212.0" cy="530.7" r="3" fill="#1f77b4"/>
<circle cx="215.5" cy="529.7" r="3" fill="#1f77b4"/>
<circle cx="218.9" cy="531.7" r="3" fill="#1f77b4"/>
<circle cx="222.4" cy="528.4" r="3" fill="#1f77b4"/>
<circle cx="225.8" cy="536.1" r="3" fill="#1f77b4"/>
<circle cx="229.2" cy="529.3" r="3" fill="#1f77b4"/>
<circle cx="232.7" cy="535.9" r="3" fill="#1f77b4"/>
<circle cx="236.1" cy="535.3" r="3" fill="#1f77b4"/>
<circle cx="239.6" cy="541.0" r="3" fill="#1f77b4"/>
<circle cx="243.0" cy="538.5" r="3" fill="#1f77b4"/>
<circle cx="246.5" cy="540.6" r="3" fill="#1f77b4"/>
<circle cx="249.9" cy="541.5" r="3" fill="#1f77b4"/>
<circle cx="253.3" cy="544.3" r="3" fill="#1f77b4"/>
<circle cx="256.8" cy="546.8" r="3" fill="#1f77b4"/>
<circle cx="260.2" cy="548.3" r="3" fill="#1f77b4"/>
<circle cx="263.7" cy="547.2" r="3" fill="#1f77b4"/>
<circle cx="267.1" cy="548.8" r="3" fill="#1f77b4"/>
<circle cx="270.6" cy="549.2" r="3" fill="#1f77b4"/>
<circle cx="274.0" cy="549.7" r="3" fill="#1f77b4"/>
<circle cx="277.4" cy="549.9" r="3" fill="#1f77b4"/>
<circle cx="280.9" cy="550.7" r="3" fill="#1f77b4"/>
<circle cx="284.3" cy="549.1" r="3" fill="#1f77b4"/>
<circle cx="287.8" cy="551.3" r="3" fill="#1f77b4"/>
<circle cx="291.2" cy="549.2" r="3" fill="#1f77b4"/>
<circle cx="294.6" cy="551.9" r="3" fill="#1f77b4"/>
<circle cx="298.1" cy="550.2" r="3" fill="#1f77b4"/>
<circle cx="301.5" cy="551.8" r="3" fill="#1f77b4"/>
<circle cx="305.0" cy="551.0" r="3" fill="#1f77b4"/>
<circle cx="308.4" cy="551.1" r="3" fill="#1f77b4"/>
<circle cx="311.9" cy="551.8" r="3" fill="#1f77b4"/>
<circle cx="315.3" cy="550.9" r="3" fill="#1f77b4"/>
<circle cx="318.7" cy="551.3" r="3" fill="#1f77b4"/>
<circle cx="322.2" cy="550.7" r="3" fill="#1f77b4"/>
<circle cx="325.6" cy="550.2" r="3" fill="#1f77b4"/>
<circle cx="329.1" cy="551.9" r="3" fill="#1f77b4"/>
<circle cx="332.5" cy="551.0" r="3" fill="#1f77b4"/>
<circle cx="336.0" cy="547.5" r="3" fill="#1f77b4"/>
<circle cx="339.4" cy="550.0" r="3" fill="#1f77b4"/>
<circle cx="342.8" cy="551.0" r="3" fill="#1f77b4"/>
<circle cx="346.3" cy="551.1" r="3" fill="#1f77b4"/>
<circle cx="349.7" cy="553.4" r="3" fill="#1f77b4"/>
<circle cx="353.2" cy="552.9" r="3" fill="#1f77b4"/>
<circle cx="356.6" cy="552.0" r="3" fill="#1f77b4"/>
<circle cx="360.1" cy="551.5" r="3" fill="#1f77b4"/>
<circle cx="363.5" cy="552.7" r="3" fill="#1f77b4"/>
<circle cx="366.9" cy="551.5" r="3" fill="#1f77b4"/>
<circle cx="370.4" cy="551.5" r="3" fill="#1f77b4"/>
<circle cx="373.8" cy="552.1" r="3" fill="#1f77b4"/>
<circle cx="377.3" cy="552.1" r="3" fill="#1f77b4"/>
<circle cx="380.7" cy="551.8" r="3" fill="#1f77b4"/>
<circle cx="384.1" cy="553.6" r="3" fill="#1f77b4"/>
<circle cx="387.6" cy="553.8" r="3" fill="#1f77b4"/>
<circle cx="391.0" cy="554.1" r="3" fill="#1f77b4"/>
<circle cx="394.5" cy="552.0" r="3" fill="#1f77b4"/>
<circle cx="397.9" cy="551.9" r="3" fill="#1f77b4"/>
<circle cx="401.4" cy="554.0" r="3" fill="#1f77b4"/>
<circle cx="404.8" cy="552.5" r="3" fill="#1f77b4"/>
<circle cx="408.2" cy="551.9" r="3" fill="#1f77b4"/>
<circle cx="411.7" cy="553.7" r="3" fill="#1f77b4"/>
<circle cx="415.1" cy="552.9" r="3" fill="#1f77b4"/>
<circle cx="418.6" cy="553.3" r="3" fill="#1f77b4"/>
<circle cx="422.0" cy="553.0" r="3" fill="#1f77b4"/>
<circle cx="425.5" cy="552.7" r="3" fill="#1f77b4"/>
<circle cx="428.9" cy="553.4" r="3" fill="#1f77b4"/>
<circle cx="432.3" cy="553.0" r="3" fill="#1f77b4"/>
<circle cx="435.8" cy="552.2" r="3" fill="#1f77b4"/>
<circle cx="439.2" cy="552.1" r="3" fill="#1f77b4"/>
<circle cx="442.7" cy="551.4" r="3" fill="#1f77b4"/>
<circle cx="446.1" cy="551.8" r="3" fill="#1f77b4"/>
<circle cx="449.5" cy="551.9" r="3" fill="#1f77b4"/>
<circle cx="453.0" cy="551.4" r="3" fill="#1f77b4"/>
<circle cx="456.4" cy="551.5" r="3" fill="#1f77b4"/>
<circle cx="459.9" cy="551.9" r="3" fill="#1f77b4"/>
<circle cx="463.3" cy="551.1" r="3" fill="#1f77b4"/>
<circle cx="466.8" cy="551.4" r="3" fill="#1f77b4"/>
<circle cx="470.2" cy="552.0" r="3" fill="#1f77b4"/>
<circle cx="473.6" cy="551.8" r="3" fill="#1f77b4"/>
<circle cx="477.1" cy="552.8" r="3" fill="#1f77b4"/>
<circle cx="480.5" cy="553.0" r="3" fill="#1f77b4"/>
<circle cx="484.0" cy="553.2" r="3" fill="#1f77b4"/>
<circle cx="487.4" cy="552.2" r="3" fill="#1f77b4"/>
<circle cx="490.9" cy="552.6" r="3" fill="#1f77b4"/>
<circle cx="494.3" cy="552.7" r="3" fill="#1f77b4"/>
<circle cx="497.7" cy="552.9" r="3" fill="#1f77b4"/>
<circle cx="501.2" cy="552.9" r="3" fill="#1f77b4"/>
<circle cx="504.6" cy="551.2" r="3" fill="#1f77b4"/>
<circle cx="508.1" cy="552.5" r="3" fill="#1f77b4"/>
<circle cx="511.5" cy="552.8" r="3" fill="#1f77b4"/>
<circle cx="514.9" cy="553.0" r="3" fill="#1f77b4"/>
<circle cx="518.4" cy="553.8" r="3" fill="#1f77b4"/>
<circle cx="521.8" cy="552.9" r="3" fill="#1f77b4"/>
<circle cx="525.3" cy="553.1" r="3" fill="#1f77b4"/>
<circle cx="528.7" cy="552.0" r="3" fill="#1f77b4"/>
<circle cx="532.2" cy="552.4" r="3" fill="#1f77b4"/>
<circle cx="535.6" cy="552.7" r="3" fill="#1f77b4"/>
<circle cx="539.0" cy="552.5" r="3" fill="#1f77b4"/>
<circle cx="542.5" cy="551.8" r="3" fill="#1f77b4"/>
<circle cx="545.9" cy="552.5" r="3" fill="#1f77b4"/>
<circle cx="549.4" cy="552.5" r="3" fill="#1f77b4"/>
<circle cx="552.8" cy="552.1" r="3" fill="#1f77b4"/>
<circle cx="556.3" cy="553.0" r="3" fill="#1f77b4"/>
<circle cx="559.7" cy="553.5" r="3" fill="#1f77b4"/>
<circle cx="563.1" cy="551.9" r="3" fill="#1f77b4"/>
<circle cx="566.6" cy="553.2" r="3" fill="#1f77b4"/>
<circle cx="570.0" cy="552.3" r="3" fill="#1f77b4"/>
<circle cx="573.5" cy="550.0" r="3" fill="#1f77b4"/>
<circle cx="576.9" cy="552.1" r="3" fill="#1f77b4"/>
<circle cx="580.4" cy="550.9" r="3" fill="#1f77b4"/>
<circle cx="583.8" cy="551.9" r="3" fill="#1f77b4"/>
<circle cx="587.2" cy="550.1" r="3" fill="#1f77b4"/>
<circle cx="590.7" cy="549.4" r="3" fill="#1f77b4"/>
<circle cx="594.1" cy="551.1" r="3" fill="#1f77b4"/>
<circle cx="597.6" cy="548.8" r="3" fill="#1f77b4"/>
<circle cx="601.0" cy="552.1" r="3" fill="#1f77b4"/>
<circle cx="604.4" cy="549.5" r="3" fill="#1f77b4"/>
<circle cx="607.9" cy="550.4" r="3" fill="#1f77b4"/>
<circle cx="611.3" cy="552.8" r="3" fill="#1f77b4"/>
<circle cx="614.8" cy="550.8" r="3" fill="#1f77b4"/>
<circle cx="618.2" cy="552.3" r="3" fill="#1f77b4"/>
<circle cx="621.7" cy="552.3" r="3" fill="#1f77b4"/>
<circle cx="625.1" cy="552.4" r="3" fill="#1f77b4"/>
<circle cx="628.5" cy="551.6" r="3" fill="#1f77b4"/>
<circle cx="632.0" cy="552.6" r="3" fill="#1f77b4"/>
<circle cx="635.4" cy="553.2" r="3" fill="#1f77b4"/>
<circle cx="638.9" cy="552.7" r="3" fill="#1f77b4"/>
<circle cx="642.3" cy="551.7" r="3" fill="#1f77b4"/>
<circle cx="645.8" cy="552.8" r="3" fill="#1f77b4"/>
<circle cx="649.2" cy="551.4" r="3" fill="#1f77b4"/>
<circle cx="652.6" cy="552.4" r="3" fill="#1f77b4"/>
<circle cx="656.1" cy="550.8" r="3" fill="#1f77b4"/>
<circle cx="659.5" cy="549.9" r="3" fill="#1f77b4"/>
<circle cx="663.0" cy="551.4" r="3" fill="#1f77b4"/>
<circle cx="666.4" cy="553.3" r="3" fill="#1f77b4"/>
<circle cx="669.8" cy="552.0" r="3" fill="#1f77b4"/>
<circle cx="673.3" cy="552.6" r="3" fill="#1f77b4"/>
<circle cx="676.7" cy="551.9" r="3" fill="#1f77b4"/>
<circle cx="680.2" cy="551.3" r="3" fill="#1f77b4"/>
<circle cx="683.6" cy="551.9" r="3" fill="#1f77b4"/>
<circle cx="687.1" cy="552.4" r="3" fill="#1f77b4"/>
<circle cx="690.5" cy="552.4" r="3" fill="#1f77b4"/>
<circle cx="693.9" cy="551.5" r="3" fill="#1f77b4"/>
<circle cx="697.4" cy="550.4" r="3" fill="#1f77b4"/>
<circle cx="700.8" cy="549.8" r="3" fill="#1f77b4"/>
<circle cx="704.3" cy="550.7" r="3" fill="#1f77b4"/>
<circle cx="707.7" cy="550.6" r="3" fill="#1f77b4"/>
<circle cx="711.2" cy="551.0" r="3" fill="#1f77b4"/>
<circle cx="714.6" cy="551.0" r="3" fill="#1f77b4"/>
<circle cx="718.0" cy="551.2" r="3" fill="#1f77b4"/>
<circle cx="721.5" cy="552.9" r="3" fill="#1f77b4"/>
<circle cx="724.9" cy="552.1" r="3" fill="#1f77b4"/>
<circle cx="728.4" cy="552.2" r="3" fill="#1f77b4"/>
<circle cx="731.8" cy="552.7" r="3" fill="#1f77b4"/>
<circle cx="735.3" cy="553.0" r="3" fill="#1f77b4"/>
<circle cx="738.7" cy="552.5" r="3" fill="#1f77b4"/>
<circle cx="742.1" cy="553.2" r="3" fill="#1f77b4"/>
<circle cx="745.6" cy="552.3" r="3" fill="#1f77b4"/>
<circle cx="749.0" cy="553.4" r="3" fill="#1f77b4"/>
<circle cx="752.5" cy="554.3" r="3" fill="#1f77b4"/>
<circle cx="755.9" cy="552.4" r="3" fill="#1f77b4"/>
<circle cx="759.3" cy="553.3" r="3" fill="#1f77b4"/>
<circle cx="762.8" cy="553.0" r="3" fill="#1f77b4"/>
<circle cx="766.2" cy="552.6" r="3" fill="#1f77b4"/>
<circle cx="769.7" cy="553.0" r="3" fill="#1f77b4"/>
<circle cx="773.1" cy="552.9" r="3" fill="#1f77b4"/>
<circle cx="776.6" cy="553.5" r="3" fill="#1f77b4"/>
<circle cx="780.0" cy="553.5" r="3" fill="#1f77b4"/>
<line x1="808" y1="96" x2="830" y2="96" stroke="#1f77b4" stroke-width="2.5"/>
<text x="838" y="100" font-family="Arial" font-size="13">reinforce_with_baseline</text>
<polyline fill="none" stroke="#d62728" stroke-width="2.3" points="95.0,379.2 98.4,474.0 101.9,485.0 105.3,477.3 108.8,446.8 112.2,410.5 115.7,443.2 119.1,434.8 122.5,446.5 126.0,455.7 129.4,472.1 132.9,479.6 136.3,491.3 139.7,511.8 143.2,486.0 146.6,495.3 150.1,506.3 153.5,503.1 157.0,519.9 160.4,512.8 163.8,523.4 167.3,514.4 170.7,511.1 174.2,509.4 177.6,515.2 181.1,518.1 184.5,517.9 187.9,512.7 191.4,495.9 194.8,482.8 198.3,478.4 201.7,493.6 205.2,502.1 208.6,473.9 212.0,448.5 215.5,439.2 218.9,401.2 222.4,399.6 225.8,410.8 229.2,388.6 232.7,356.7 236.1,430.8 239.6,460.5 243.0,471.9 246.5,412.4 249.9,463.5 253.3,447.0 256.8,441.7 260.2,456.9 263.7,462.1 267.1,471.9 270.6,494.1 274.0,515.2 277.4,513.9 280.9,501.4 284.3,490.1 287.8,497.3 291.2,490.6 294.6,496.2 298.1,509.7 301.5,514.8 305.0,498.7 308.4,479.3 311.9,492.9 315.3,522.0 318.7,526.9 322.2,531.1 325.6,534.4 329.1,528.5 332.5,519.2 336.0,519.4 339.4,524.6 342.8,531.5 346.3,531.3 349.7,512.3 353.2,460.7 356.6,471.5 360.1,486.0 363.5,485.0 366.9,482.9 370.4,426.2 373.8,428.0 377.3,419.8 380.7,425.7 384.1,409.9 387.6,431.2 391.0,450.7 394.5,490.0 397.9,435.1 401.4,445.7 404.8,434.9 408.2,419.6 411.7,340.1 415.1,218.9 418.6,222.4 422.0,243.1 425.5,354.7 428.9,391.3 432.3,473.4 435.8,493.2 439.2,499.2 442.7,396.9 446.1,110.7 449.5,106.6 453.0,353.5 456.4,477.5 459.9,536.7 463.3,538.7 466.8,528.3 470.2,513.4 473.6,488.6 477.1,476.6 480.5,483.9 484.0,481.4 487.4,456.9 490.9,419.3 494.3,372.1 497.7,271.0 501.2,290.7 504.6,337.5 508.1,413.6 511.5,460.8 514.9,512.0 518.4,486.7 521.8,493.3 525.3,519.7 528.7,488.3 532.2,465.8 535.6,513.2 539.0,510.9 542.5,529.6 545.9,531.6 549.4,488.3 552.8,506.5 556.3,502.9 559.7,496.9 563.1,486.4 566.6,488.2 570.0,464.7 573.5,458.8 576.9,467.4 580.4,496.0 583.8,499.8 587.2,528.4 590.7,547.7 594.1,543.4 597.6,543.9 601.0,542.7 604.4,536.0 607.9,526.2 611.3,520.3 614.8,510.8 618.2,513.0 621.7,510.9 625.1,518.7 628.5,503.6 632.0,491.4 635.4,421.4 638.9,449.7 642.3,492.1 645.8,493.6 649.2,478.8 652.6,476.4 656.1,458.3 659.5,438.6 663.0,437.9 666.4,396.0 669.8,358.6 673.3,340.1 676.7,353.8 680.2,382.3 683.6,409.7 687.1,440.3 690.5,399.1 693.9,427.0 697.4,474.3 700.8,498.1 704.3,500.4 707.7,493.5 711.2,491.3 714.6,499.7 718.0,506.0 721.5,527.4 724.9,528.9 728.4,543.4 731.8,540.2 735.3,535.7 738.7,508.5 742.1,449.4 745.6,418.5 749.0,352.4 752.5,339.7 755.9,381.5 759.3,374.0 762.8,321.2 766.2,260.8 769.7,233.2 773.1,167.8 776.6,103.4 780.0,82.9"/>
<circle cx="95.0" cy="379.2" r="3" fill="#d62728"/>
<circle cx="98.4" cy="474.0" r="3" fill="#d62728"/>
<circle cx="101.9" cy="485.0" r="3" fill="#d62728"/>
<circle cx="105.3" cy="477.3" r="3" fill="#d62728"/>
<circle cx="108.8" cy="446.8" r="3" fill="#d62728"/>
<circle cx="112.2" cy="410.5" r="3" fill="#d62728"/>
<circle cx="115.7" cy="443.2" r="3" fill="#d62728"/>
<circle cx="119.1" cy="434.8" r="3" fill="#d62728"/>
<circle cx="122.5" cy="446.5" r="3" fill="#d62728"/>
<circle cx="126.0" cy="455.7" r="3" fill="#d62728"/>
<circle cx="129.4" cy="472.1" r="3" fill="#d62728"/>
<circle cx="132.9" cy="479.6" r="3" fill="#d62728"/>
<circle cx="136.3" cy="491.3" r="3" fill="#d62728"/>
<circle cx="139.7" cy="511.8" r="3" fill="#d62728"/>
<circle cx="143.2" cy="486.0" r="3" fill="#d62728"/>
<circle cx="146.6" cy="495.3" r="3" fill="#d62728"/>
<circle cx="150.1" cy="506.3" r="3" fill="#d62728"/>
<circle cx="153.5" cy="503.1" r="3" fill="#d62728"/>
<circle cx="157.0" cy="519.9" r="3" fill="#d62728"/>
<circle cx="160.4" cy="512.8" r="3" fill="#d62728"/>
<circle cx="163.8" cy="523.4" r="3" fill="#d62728"/>
<circle cx="167.3" cy="514.4" r="3" fill="#d62728"/>
<circle cx="170.7" cy="511.1" r="3" fill="#d62728"/>
<circle cx="174.2" cy="509.4" r="3" fill="#d62728"/>
<circle cx="177.6" cy="515.2" r="3" fill="#d62728"/>
<circle cx="181.1" cy="518.1" r="3" fill="#d62728"/>
<circle cx="184.5" cy="517.9" r="3" fill="#d62728"/>
<circle cx="187.9" cy="512.7" r="3" fill="#d62728"/>
<circle cx="191.4" cy="495.9" r="3" fill="#d62728"/>
<circle cx="194.8" cy="482.8" r="3" fill="#d62728"/>
<circle cx="198.3" cy="478.4" r="3" fill="#d62728"/>
<circle cx="201.7" cy="493.6" r="3" fill="#d62728"/>
<circle cx="205.2" cy="502.1" r="3" fill="#d62728"/>
<circle cx="208.6" cy="473.9" r="3" fill="#d62728"/>
<circle cx="212.0" cy="448.5" r="3" fill="#d62728"/>
<circle cx="215.5" cy="439.2" r="3" fill="#d62728"/>
<circle cx="218.9" cy="401.2" r="3" fill="#d62728"/>
<circle cx="222.4" cy="399.6" r="3" fill="#d62728"/>
<circle cx="225.8" cy="410.8" r="3" fill="#d62728"/>
<circle cx="229.2" cy="388.6" r="3" fill="#d62728"/>
<circle cx="232.7" cy="356.7" r="3" fill="#d62728"/>
<circle cx="236.1" cy="430.8" r="3" fill="#d62728"/>
<circle cx="239.6" cy="460.5" r="3" fill="#d62728"/>
<circle cx="243.0" cy="471.9" r="3" fill="#d62728"/>
<circle cx="246.5" cy="412.4" r="3" fill="#d62728"/>
<circle cx="249.9" cy="463.5" r="3" fill="#d62728"/>
<circle cx="253.3" cy="447.0" r="3" fill="#d62728"/>
<circle cx="256.8" cy="441.7" r="3" fill="#d62728"/>
<circle cx="260.2" cy="456.9" r="3" fill="#d62728"/>
<circle cx="263.7" cy="462.1" r="3" fill="#d62728"/>
<circle cx="267.1" cy="471.9" r="3" fill="#d62728"/>
<circle cx="270.6" cy="494.1" r="3" fill="#d62728"/>
<circle cx="274.0" cy="515.2" r="3" fill="#d62728"/>
<circle cx="277.4" cy="513.9" r="3" fill="#d62728"/>
<circle cx="280.9" cy="501.4" r="3" fill="#d62728"/>
<circle cx="284.3" cy="490.1" r="3" fill="#d62728"/>
<circle cx="287.8" cy="497.3" r="3" fill="#d62728"/>
<circle cx="291.2" cy="490.6" r="3" fill="#d62728"/>
<circle cx="294.6" cy="496.2" r="3" fill="#d62728"/>
<circle cx="298.1" cy="509.7" r="3" fill="#d62728"/>
<circle cx="301.5" cy="514.8" r="3" fill="#d62728"/>
<circle cx="305.0" cy="498.7" r="3" fill="#d62728"/>
<circle cx="308.4" cy="479.3" r="3" fill="#d62728"/>
<circle cx="311.9" cy="492.9" r="3" fill="#d62728"/>
<circle cx="315.3" cy="522.0" r="3" fill="#d62728"/>
<circle cx="318.7" cy="526.9" r="3" fill="#d62728"/>
<circle cx="322.2" cy="531.1" r="3" fill="#d62728"/>
<circle cx="325.6" cy="534.4" r="3" fill="#d62728"/>
<circle cx="329.1" cy="528.5" r="3" fill="#d62728"/>
<circle cx="332.5" cy="519.2" r="3" fill="#d62728"/>
<circle cx="336.0" cy="519.4" r="3" fill="#d62728"/>
<circle cx="339.4" cy="524.6" r="3" fill="#d62728"/>
<circle cx="342.8" cy="531.5" r="3" fill="#d62728"/>
<circle cx="346.3" cy="531.3" r="3" fill="#d62728"/>
<circle cx="349.7" cy="512.3" r="3" fill="#d62728"/>
<circle cx="353.2" cy="460.7" r="3" fill="#d62728"/>
<circle cx="356.6" cy="471.5" r="3" fill="#d62728"/>
<circle cx="360.1" cy="486.0" r="3" fill="#d62728"/>
<circle cx="363.5" cy="485.0" r="3" fill="#d62728"/>
<circle cx="366.9" cy="482.9" r="3" fill="#d62728"/>
<circle cx="370.4" cy="426.2" r="3" fill="#d62728"/>
<circle cx="373.8" cy="428.0" r="3" fill="#d62728"/>
<circle cx="377.3" cy="419.8" r="3" fill="#d62728"/>
<circle cx="380.7" cy="425.7" r="3" fill="#d62728"/>
<circle cx="384.1" cy="409.9" r="3" fill="#d62728"/>
<circle cx="387.6" cy="431.2" r="3" fill="#d62728"/>
<circle cx="391.0" cy="450.7" r="3" fill="#d62728"/>
<circle cx="394.5" cy="490.0" r="3" fill="#d62728"/>
<circle cx="397.9" cy="435.1" r="3" fill="#d62728"/>
<circle cx="401.4" cy="445.7" r="3" fill="#d62728"/>
<circle cx="404.8" cy="434.9" r="3" fill="#d62728"/>
<circle cx="408.2" cy="419.6" r="3" fill="#d62728"/>
<circle cx="411.7" cy="340.1" r="3" fill="#d62728"/>
<circle cx="415.1" cy="218.9" r="3" fill="#d62728"/>
<circle cx="418.6" cy="222.4" r="3" fill="#d62728"/>
<circle cx="422.0" cy="243.1" r="3" fill="#d62728"/>
<circle cx="425.5" cy="354.7" r="3" fill="#d62728"/>
<circle cx="428.9" cy="391.3" r="3" fill="#d62728"/>
<circle cx="432.3" cy="473.4" r="3" fill="#d62728"/>
<circle cx="435.8" cy="493.2" r="3" fill="#d62728"/>
<circle cx="439.2" cy="499.2" r="3" fill="#d62728"/>
<circle cx="442.7" cy="396.9" r="3" fill="#d62728"/>
<circle cx="446.1" cy="110.7" r="3" fill="#d62728"/>
<circle cx="449.5" cy="106.6" r="3" fill="#d62728"/>
<circle cx="453.0" cy="353.5" r="3" fill="#d62728"/>
<circle cx="456.4" cy="477.5" r="3" fill="#d62728"/>
<circle cx="459.9" cy="536.7" r="3" fill="#d62728"/>
<circle cx="463.3" cy="538.7" r="3" fill="#d62728"/>
<circle cx="466.8" cy="528.3" r="3" fill="#d62728"/>
<circle cx="470.2" cy="513.4" r="3" fill="#d62728"/>
<circle cx="473.6" cy="488.6" r="3" fill="#d62728"/>
<circle cx="477.1" cy="476.6" r="3" fill="#d62728"/>
<circle cx="480.5" cy="483.9" r="3" fill="#d62728"/>
<circle cx="484.0" cy="481.4" r="3" fill="#d62728"/>
<circle cx="487.4" cy="456.9" r="3" fill="#d62728"/>
<circle cx="490.9" cy="419.3" r="3" fill="#d62728"/>
<circle cx="494.3" cy="372.1" r="3" fill="#d62728"/>
<circle cx="497.7" cy="271.0" r="3" fill="#d62728"/>
<circle cx="501.2" cy="290.7" r="3" fill="#d62728"/>
<circle cx="504.6" cy="337.5" r="3" fill="#d62728"/>
<circle cx="508.1" cy="413.6" r="3" fill="#d62728"/>
<circle cx="511.5" cy="460.8" r="3" fill="#d62728"/>
<circle cx="514.9" cy="512.0" r="3" fill="#d62728"/>
<circle cx="518.4" cy="486.7" r="3" fill="#d62728"/>
<circle cx="521.8" cy="493.3" r="3" fill="#d62728"/>
<circle cx="525.3" cy="519.7" r="3" fill="#d62728"/>
<circle cx="528.7" cy="488.3" r="3" fill="#d62728"/>
<circle cx="532.2" cy="465.8" r="3" fill="#d62728"/>
<circle cx="535.6" cy="513.2" r="3" fill="#d62728"/>
<circle cx="539.0" cy="510.9" r="3" fill="#d62728"/>
<circle cx="542.5" cy="529.6" r="3" fill="#d62728"/>
<circle cx="545.9" cy="531.6" r="3" fill="#d62728"/>
<circle cx="549.4" cy="488.3" r="3" fill="#d62728"/>
<circle cx="552.8" cy="506.5" r="3" fill="#d62728"/>
<circle cx="556.3" cy="502.9" r="3" fill="#d62728"/>
<circle cx="559.7" cy="496.9" r="3" fill="#d62728"/>
<circle cx="563.1" cy="486.4" r="3" fill="#d62728"/>
<circle cx="566.6" cy="488.2" r="3" fill="#d62728"/>
<circle cx="570.0" cy="464.7" r="3" fill="#d62728"/>
<circle cx="573.5" cy="458.8" r="3" fill="#d62728"/>
<circle cx="576.9" cy="467.4" r="3" fill="#d62728"/>
<circle cx="580.4" cy="496.0" r="3" fill="#d62728"/>
<circle cx="583.8" cy="499.8" r="3" fill="#d62728"/>
<circle cx="587.2" cy="528.4" r="3" fill="#d62728"/>
<circle cx="590.7" cy="547.7" r="3" fill="#d62728"/>
<circle cx="594.1" cy="543.4" r="3" fill="#d62728"/>
<circle cx="597.6" cy="543.9" r="3" fill="#d62728"/>
<circle cx="601.0" cy="542.7" r="3" fill="#d62728"/>
<circle cx="604.4" cy="536.0" r="3" fill="#d62728"/>
<circle cx="607.9" cy="526.2" r="3" fill="#d62728"/>
<circle cx="611.3" cy="520.3" r="3" fill="#d62728"/>
<circle cx="614.8" cy="510.8" r="3" fill="#d62728"/>
<circle cx="618.2" cy="513.0" r="3" fill="#d62728"/>
<circle cx="621.7" cy="510.9" r="3" fill="#d62728"/>
<circle cx="625.1" cy="518.7" r="3" fill="#d62728"/>
<circle cx="628.5" cy="503.6" r="3" fill="#d62728"/>
<circle cx="632.0" cy="491.4" r="3" fill="#d62728"/>
<circle cx="635.4" cy="421.4" r="3" fill="#d62728"/>
<circle cx="638.9" cy="449.7" r="3" fill="#d62728"/>
<circle cx="642.3" cy="492.1" r="3" fill="#d62728"/>
<circle cx="645.8" cy="493.6" r="3" fill="#d62728"/>
<circle cx="649.2" cy="478.8" r="3" fill="#d62728"/>
<circle cx="652.6" cy="476.4" r="3" fill="#d62728"/>
<circle cx="656.1" cy="458.3" r="3" fill="#d62728"/>
<circle cx="659.5" cy="438.6" r="3" fill="#d62728"/>
<circle cx="663.0" cy="437.9" r="3" fill="#d62728"/>
<circle cx="666.4" cy="396.0" r="3" fill="#d62728"/>
<circle cx="669.8" cy="358.6" r="3" fill="#d62728"/>
<circle cx="673.3" cy="340.1" r="3" fill="#d62728"/>
<circle cx="676.7" cy="353.8" r="3" fill="#d62728"/>
<circle cx="680.2" cy="382.3" r="3" fill="#d62728"/>
<circle cx="683.6" cy="409.7" r="3" fill="#d62728"/>
<circle cx="687.1" cy="440.3" r="3" fill="#d62728"/>
<circle cx="690.5" cy="399.1" r="3" fill="#d62728"/>
<circle cx="693.9" cy="427.0" r="3" fill="#d62728"/>
<circle cx="697.4" cy="474.3" r="3" fill="#d62728"/>
<circle cx="700.8" cy="498.1" r="3" fill="#d62728"/>
<circle cx="704.3" cy="500.4" r="3" fill="#d62728"/>
<circle cx="707.7" cy="493.5" r="3" fill="#d62728"/>
<circle cx="711.2" cy="491.3" r="3" fill="#d62728"/>
<circle cx="714.6" cy="499.7" r="3" fill="#d62728"/>
<circle cx="718.0" cy="506.0" r="3" fill="#d62728"/>
<circle cx="721.5" cy="527.4" r="3" fill="#d62728"/>
<circle cx="724.9" cy="528.9" r="3" fill="#d62728"/>
<circle cx="728.4" cy="543.4" r="3" fill="#d62728"/>
<circle cx="731.8" cy="540.2" r="3" fill="#d62728"/>
<circle cx="735.3" cy="535.7" r="3" fill="#d62728"/>
<circle cx="738.7" cy="508.5" r="3" fill="#d62728"/>
<circle cx="742.1" cy="449.4" r="3" fill="#d62728"/>
<circle cx="745.6" cy="418.5" r="3" fill="#d62728"/>
<circle cx="749.0" cy="352.4" r="3" fill="#d62728"/>
<circle cx="752.5" cy="339.7" r="3" fill="#d62728"/>
<circle cx="755.9" cy="381.5" r="3" fill="#d62728"/>
<circle cx="759.3" cy="374.0" r="3" fill="#d62728"/>
<circle cx="762.8" cy="321.2" r="3" fill="#d62728"/>
<circle cx="766.2" cy="260.8" r="3" fill="#d62728"/>
<circle cx="769.7" cy="233.2" r="3" fill="#d62728"/>
<circle cx="773.1" cy="167.8" r="3" fill="#d62728"/>
<circle cx="776.6" cy="103.4" r="3" fill="#d62728"/>
<circle cx="780.0" cy="82.9" r="3" fill="#d62728"/>
<line x1="808" y1="121" x2="830" y2="121" stroke="#d62728" stroke-width="2.5"/>
<text x="838" y="125" font-family="Arial" font-size="13">no_baseline</text>
<text x="437.5" y="618" text-anchor="middle" font-family="Arial" font-size="15">GRPO step</text>
<text x="24" y="316.0" text-anchor="middle" font-family="Arial" font-size="15" transform="rotate(-90 24 316.0)">token entropy (nats)</text>
</svg>
