<svg xmlns="http://www.w3.org/2000/svg" width="1040" height="640" viewBox="0 0 1040 640">
<rect width="100%" height="100%" fill="white"/>
<text x="520.0" y="36" text-anchor="middle" font-family="Arial" font-size="22" font-weight="700">GRPO Learning-Rate Sweep: Validation Format Accuracy</text>
<line x1="95" y1="558" x2="780" y2="558" stroke="#222" stroke-width="1.5"/>
<line x1="95" y1="74" x2="95" y2="558" stroke="#222" stroke-width="1.5"/>
<line x1="90" y1="558.0" x2="780" y2="558.0" stroke="#ddd" stroke-width="1"/>
<text x="83" y="562.0" text-anchor="end" font-family="Arial" font-size="12">0.00</text>
<line x1="90" y1="461.2" x2="780" y2="461.2" stroke="#ddd" stroke-width="1"/>
<text x="83" y="465.2" text-anchor="end" font-family="Arial" font-size="12">0.20</text>
<line x1="90" y1="364.4" x2="780" y2="364.4" stroke="#ddd" stroke-width="1"/>
<text x="83" y="368.4" text-anchor="end" font-family="Arial" font-size="12">0.40</text>
<line x1="90" y1="267.6" x2="780" y2="267.6" stroke="#ddd" stroke-width="1"/>
<text x="83" y="271.6" text-anchor="end" font-family="Arial" font-size="12">0.60</text>
<line x1="90" y1="170.8" x2="780" y2="170.8" stroke="#ddd" stroke-width="1"/>
<text x="83" y="174.8" text-anchor="end" font-family="Arial" font-size="12">0.80</text>
<line x1="90" y1="74.0" x2="780" y2="74.0" stroke="#ddd" stroke-width="1"/>
<text x="83" y="78.0" text-anchor="end" font-family="Arial" font-size="12">1.00</text>
<line x1="95.0" y1="558" x2="95.0" y2="563" stroke="#222" stroke-width="1"/>
<text x="95.0" y="582" text-anchor="middle" font-family="Arial" font-size="12">0</text>
<line x1="232.0" y1="558" x2="232.0" y2="563" stroke="#222" stroke-width="1"/>
<text x="232.0" y="582" text-anchor="middle" font-family="Arial" font-size="12">40</text>
<line x1="369.0" y1="558" x2="369.0" y2="563" stroke="#222" stroke-width="1"/>
<text x="369.0" y="582" text-anchor="middle" font-family="Arial" font-size="12">80</text>
<line x1="506.0" y1="558" x2="506.0" y2="563" stroke="#222" stroke-width="1"/>
<text x="506.0" y="582" text-anchor="middle" font-family="Arial" font-size="12">120</text>
<line x1="643.0" y1="558" x2="643.0" y2="563" stroke="#222" stroke-width="1"/>
<text x="643.0" y="582" text-anchor="middle" font-family="Arial" font-size="12">160</text>
<line x1="780.0" y1="558" x2="780.0" y2="563" stroke="#222" stroke-width="1"/>
<text x="780.0" y="582" text-anchor="middle" font-family="Arial" font-size="12">200</text>
<polyline fill="none" stroke="#1f77b4" stroke-width="2.3" points="95.0,470.6 112.1,464.4 129.2,450.7 146.4,464.4 163.5,463.5 180.6,453.1 197.8,447.4 214.9,436.5"/>
<circle cx="95.0" cy="470.6" r="3" fill="#1f77b4"/>
<circle cx="112.1" cy="464.4" r="3" fill="#1f77b4"/>
<circle cx="129.2" cy="450.7" r="3" fill="#1f77b4"/>
<circle cx="146.4" cy="464.4" r="3" fill="#1f77b4"/>
<circle cx="163.5" cy="463.5" r="3" fill="#1f77b4"/>
<circle cx="180.6" cy="453.1" r="3" fill="#1f77b4"/>
<circle cx="197.8" cy="447.4" r="3" fill="#1f77b4"/>
<circle cx="214.9" cy="436.5" r="3" fill="#1f77b4"/>
<line x1="808" y1="96" x2="830" y2="96" stroke="#1f77b4" stroke-width="2.5"/>
<text x="838" y="100" font-family="Arial" font-size="13">lr=3e-6 (stopped)</text>
<polyline fill="none" stroke="#d62728" stroke-width="2.3" points="95.0,470.6 112.1,461.6 129.2,436.1 146.4,436.5 163.5,406.8 180.6,411.5 197.8,409.6 214.9,404.4 232.0,392.6 249.1,386.4 266.2,398.7 283.4,380.8 300.5,376.5 317.6,365.6 334.8,364.7 351.9,377.0 369.0,362.3 386.1,354.3 403.2,367.5 420.4,341.5 437.5,339.6 454.6,355.7 471.8,346.7 488.9,329.7 506.0,342.5 523.1,336.8 540.2,331.1 557.4,332.1 574.5,337.3 591.6,329.7 608.8,317.9 625.9,308.0 643.0,314.1 660.1,331.1 677.2,301.3 694.4,309.9 711.5,298.5 728.6,322.1 745.8,313.6 762.9,320.3 780.0,297.1"/>
<circle cx="95.0" cy="470.6" r="3" fill="#d62728"/>
<circle cx="112.1" cy="461.6" r="3" fill="#d62728"/>
<circle cx="129.2" cy="436.1" r="3" fill="#d62728"/>
<circle cx="146.4" cy="436.5" r="3" fill="#d62728"/>
<circle cx="163.5" cy="406.8" r="3" fill="#d62728"/>
<circle cx="180.6" cy="411.5" r="3" fill="#d62728"/>
<circle cx="197.8" cy="409.6" r="3" fill="#d62728"/>
<circle cx="214.9" cy="404.4" r="3" fill="#d62728"/>
<circle cx="232.0" cy="392.6" r="3" fill="#d62728"/>
<circle cx="249.1" cy="386.4" r="3" fill="#d62728"/>
<circle cx="266.2" cy="398.7" r="3" fill="#d62728"/>
<circle cx="283.4" cy="380.8" r="3" fill="#d62728"/>
<circle cx="300.5" cy="376.5" r="3" fill="#d62728"/>
<circle cx="317.6" cy="365.6" r="3" fill="#d62728"/>
<circle cx="334.8" cy="364.7" r="3" fill="#d62728"/>
<circle cx="351.9" cy="377.0" r="3" fill="#d62728"/>
<circle cx="369.0" cy="362.3" r="3" fill="#d62728"/>
<circle cx="386.1" cy="354.3" r="3" fill="#d62728"/>
<circle cx="403.2" cy="367.5" r="3" fill="#d62728"/>
<circle cx="420.4" cy="341.5" r="3" fill="#d62728"/>
<circle cx="437.5" cy="339.6" r="3" fill="#d62728"/>
<circle cx="454.6" cy="355.7" r="3" fill="#d62728"/>
<circle cx="471.8" cy="346.7" r="3" fill="#d62728"/>
<circle cx="488.9" cy="329.7" r="3" fill="#d62728"/>
<circle cx="506.0" cy="342.5" r="3" fill="#d62728"/>
<circle cx="523.1" cy="336.8" r="3" fill="#d62728"/>
<circle cx="540.2" cy="331.1" r="3" fill="#d62728"/>
<circle cx="557.4" cy="332.1" r="3" fill="#d62728"/>
<circle cx="574.5" cy="337.3" r="3" fill="#d62728"/>
<circle cx="591.6" cy="329.7" r="3" fill="#d62728"/>
<circle cx="608.8" cy="317.9" r="3" fill="#d62728"/>
<circle cx="625.9" cy="308.0" r="3" fill="#d62728"/>
<circle cx="643.0" cy="314.1" r="3" fill="#d62728"/>
<circle cx="660.1" cy="331.1" r="3" fill="#d62728"/>
<circle cx="677.2" cy="301.3" r="3" fill="#d62728"/>
<circle cx="694.4" cy="309.9" r="3" fill="#d62728"/>
<circle cx="711.5" cy="298.5" r="3" fill="#d62728"/>
<circle cx="728.6" cy="322.1" r="3" fill="#d62728"/>
<circle cx="745.8" cy="313.6" r="3" fill="#d62728"/>
<circle cx="762.9" cy="320.3" r="3" fill="#d62728"/>
<circle cx="780.0" cy="297.1" r="3" fill="#d62728"/>
<line x1="808" y1="121" x2="830" y2="121" stroke="#d62728" stroke-width="2.5"/>
<text x="838" y="125" font-family="Arial" font-size="13">lr=5e-6</text>
<polyline fill="none" stroke="#2ca02c" stroke-width="2.3" points="95.0,470.6 112.1,408.2 129.2,400.6 146.4,368.9 163.5,343.4 180.6,325.5 197.8,301.8 214.9,294.7 232.0,256.4 249.1,249.8 266.2,239.0 283.4,218.6 300.5,229.0 317.6,221.0 334.8,215.3 351.9,204.5 369.0,216.3 386.1,213.9 403.2,212.5 420.4,218.6 437.5,206.3 454.6,200.2 471.8,209.7 488.9,203.0 506.0,203.5 523.1,214.9 540.2,207.8 557.4,203.0 574.5,201.6 591.6,211.5 608.8,193.1 625.9,199.7 643.0,204.9 660.1,193.1 677.2,195.5 694.4,196.9 711.5,194.1 728.6,208.7 745.8,205.4 762.9,189.8 780.0,203.0"/>
<circle cx="95.0" cy="470.6" r="3" fill="#2ca02c"/>
<circle cx="112.1" cy="408.2" r="3" fill="#2ca02c"/>
<circle cx="129.2" cy="400.6" r="3" fill="#2ca02c"/>
<circle cx="146.4" cy="368.9" r="3" fill="#2ca02c"/>
<circle cx="163.5" cy="343.4" r="3" fill="#2ca02c"/>
<circle cx="180.6" cy="325.5" r="3" fill="#2ca02c"/>
<circle cx="197.8" cy="301.8" r="3" fill="#2ca02c"/>
<circle cx="214.9" cy="294.7" r="3" fill="#2ca02c"/>
<circle cx="232.0" cy="256.4" r="3" fill="#2ca02c"/>
<circle cx="249.1" cy="249.8" r="3" fill="#2ca02c"/>
<circle cx="266.2" cy="239.0" r="3" fill="#2ca02c"/>
<circle cx="283.4" cy="218.6" r="3" fill="#2ca02c"/>
<circle cx="300.5" cy="229.0" r="3" fill="#2ca02c"/>
<circle cx="317.6" cy="221.0" r="3" fill="#2ca02c"/>
<circle cx="334.8" cy="215.3" r="3" fill="#2ca02c"/>
<circle cx="351.9" cy="204.5" r="3" fill="#2ca02c"/>
<circle cx="369.0" cy="216.3" r="3" fill="#2ca02c"/>
<circle cx="386.1" cy="213.9" r="3" fill="#2ca02c"/>
<circle cx="403.2" cy="212.5" r="3" fill="#2ca02c"/>
<circle cx="420.4" cy="218.6" r="3" fill="#2ca02c"/>
<circle cx="437.5" cy="206.3" r="3" fill="#2ca02c"/>
<circle cx="454.6" cy="200.2" r="3" fill="#2ca02c"/>
<circle cx="471.8" cy="209.7" r="3" fill="#2ca02c"/>
<circle cx="488.9" cy="203.0" r="3" fill="#2ca02c"/>
<circle cx="506.0" cy="203.5" r="3" fill="#2ca02c"/>
<circle cx="523.1" cy="214.9" r="3" fill="#2ca02c"/>
<circle cx="540.2" cy="207.8" r="3" fill="#2ca02c"/>
<circle cx="557.4" cy="203.0" r="3" fill="#2ca02c"/>
<circle cx="574.5" cy="201.6" r="3" fill="#2ca02c"/>
<circle cx="591.6" cy="211.5" r="3" fill="#2ca02c"/>
<circle cx="608.8" cy="193.1" r="3" fill="#2ca02c"/>
<circle cx="625.9" cy="199.7" r="3" fill="#2ca02c"/>
<circle cx="643.0" cy="204.9" r="3" fill="#2ca02c"/>
<circle cx="660.1" cy="193.1" r="3" fill="#2ca02c"/>
<circle cx="677.2" cy="195.5" r="3" fill="#2ca02c"/>
<circle cx="694.4" cy="196.9" r="3" fill="#2ca02c"/>
<circle cx="711.5" cy="194.1" r="3" fill="#2ca02c"/>
<circle cx="728.6" cy="208.7" r="3" fill="#2ca02c"/>
<circle cx="745.8" cy="205.4" r="3" fill="#2ca02c"/>
<circle cx="762.9" cy="189.8" r="3" fill="#2ca02c"/>
<circle cx="780.0" cy="203.0" r="3" fill="#2ca02c"/>
<line x1="808" y1="146" x2="830" y2="146" stroke="#2ca02c" stroke-width="2.5"/>
<text x="838" y="150" font-family="Arial" font-size="13">lr=1e-5</text>
<polyline fill="none" stroke="#9467bd" stroke-width="2.3" points="95.0,470.6 112.1,320.3 129.2,299.5 146.4,284.3 163.5,271.1 180.6,253.6 197.8,243.7 214.9,246.5 232.0,233.8 249.1,240.8 266.2,232.3 283.4,242.7 300.5,228.1 317.6,226.7 334.8,223.4 351.9,202.1 369.0,209.7 386.1,206.8 403.2,191.7 420.4,185.5 437.5,190.3 454.6,204.5 471.8,203.5 488.9,195.0 506.0,197.8 523.1,195.9 540.2,180.3 557.4,199.3 574.5,181.8 591.6,189.3 608.8,202.1 625.9,189.3 643.0,215.8 660.1,198.3 677.2,199.3 694.4,187.0 711.5,183.7 728.6,182.2 745.8,189.8 762.9,179.9 780.0,193.6"/>
<circle cx="95.0" cy="470.6" r="3" fill="#9467bd"/>
<circle cx="112.1" cy="320.3" r="3" fill="#9467bd"/>
<circle cx="129.2" cy="299.5" r="3" fill="#9467bd"/>
<circle cx="146.4" cy="284.3" r="3" fill="#9467bd"/>
<circle cx="163.5" cy="271.1" r="3" fill="#9467bd"/>
<circle cx="180.6" cy="253.6" r="3" fill="#9467bd"/>
<circle cx="197.8" cy="243.7" r="3" fill="#9467bd"/>
<circle cx="214.9" cy="246.5" r="3" fill="#9467bd"/>
<circle cx="232.0" cy="233.8" r="3" fill="#9467bd"/>
<circle cx="249.1" cy="240.8" r="3" fill="#9467bd"/>
<circle cx="266.2" cy="232.3" r="3" fill="#9467bd"/>
<circle cx="283.4" cy="242.7" r="3" fill="#9467bd"/>
<circle cx="300.5" cy="228.1" r="3" fill="#9467bd"/>
<circle cx="317.6" cy="226.7" r="3" fill="#9467bd"/>
<circle cx="334.8" cy="223.4" r="3" fill="#9467bd"/>
<circle cx="351.9" cy="202.1" r="3" fill="#9467bd"/>
<circle cx="369.0" cy="209.7" r="3" fill="#9467bd"/>
<circle cx="386.1" cy="206.8" r="3" fill="#9467bd"/>
<circle cx="403.2" cy="191.7" r="3" fill="#9467bd"/>
<circle cx="420.4" cy="185.5" r="3" fill="#9467bd"/>
<circle cx="437.5" cy="190.3" r="3" fill="#9467bd"/>
<circle cx="454.6" cy="204.5" r="3" fill="#9467bd"/>
<circle cx="471.8" cy="203.5" r="3" fill="#9467bd"/>
<circle cx="488.9" cy="195.0" r="3" fill="#9467bd"/>
<circle cx="506.0" cy="197.8" r="3" fill="#9467bd"/>
<circle cx="523.1" cy="195.9" r="3" fill="#9467bd"/>
<circle cx="540.2" cy="180.3" r="3" fill="#9467bd"/>
<circle cx="557.4" cy="199.3" r="3" fill="#9467bd"/>
<circle cx="574.5" cy="181.8" r="3" fill="#9467bd"/>
<circle cx="591.6" cy="189.3" r="3" fill="#9467bd"/>
<circle cx="608.8" cy="202.1" r="3" fill="#9467bd"/>
<circle cx="625.9" cy="189.3" r="3" fill="#9467bd"/>
<circle cx="643.0" cy="215.8" r="3" fill="#9467bd"/>
<circle cx="660.1" cy="198.3" r="3" fill="#9467bd"/>
<circle cx="677.2" cy="199.3" r="3" fill="#9467bd"/>
<circle cx="694.4" cy="187.0" r="3" fill="#9467bd"/>
<circle cx="711.5" cy="183.7" r="3" fill="#9467bd"/>
<circle cx="728.6" cy="182.2" r="3" fill="#9467bd"/>
<circle cx="745.8" cy="189.8" r="3" fill="#9467bd"/>
<circle cx="762.9" cy="179.9" r="3" fill="#9467bd"/>
<circle cx="780.0" cy="193.6" r="3" fill="#9467bd"/>
<line x1="808" y1="171" x2="830" y2="171" stroke="#9467bd" stroke-width="2.5"/>
<text x="838" y="175" font-family="Arial" font-size="13">lr=2e-5</text>
<polyline fill="none" stroke="#ff7f0e" stroke-width="2.3" points="95.0,470.6 112.1,248.4 129.2,198.8 146.4,182.2 163.5,173.3 180.6,197.8 197.8,198.3 214.9,192.6 232.0,208.2 249.1,208.7 266.2,208.2 283.4,196.4 300.5,182.2 317.6,187.9 334.8,189.3 351.9,201.6 369.0,191.7 386.1,174.2 403.2,162.9 420.4,172.8 437.5,169.5 454.6,165.2 471.8,162.4 488.9,188.4 506.0,176.1 523.1,192.2 540.2,191.2 557.4,202.1 574.5,175.1 591.6,170.9 608.8,159.1 625.9,156.2 643.0,142.1 660.1,138.3 677.2,132.1 694.4,136.9 711.5,143.5 728.6,139.2 745.8,144.9 762.9,141.6 780.0,146.8"/>
<circle cx="95.0" cy="470.6" r="3" fill="#ff7f0e"/>
<circle cx="112.1" cy="248.4" r="3" fill="#ff7f0e"/>
<circle cx="129.2" cy="198.8" r="3" fill="#ff7f0e"/>
<circle cx="146.4" cy="182.2" r="3" fill="#ff7f0e"/>
<circle cx="163.5" cy="173.3" r="3" fill="#ff7f0e"/>
<circle cx="180.6" cy="197.8" r="3" fill="#ff7f0e"/>
<circle cx="197.8" cy="198.3" r="3" fill="#ff7f0e"/>
<circle cx="214.9" cy="192.6" r="3" fill="#ff7f0e"/>
<circle cx="232.0" cy="208.2" r="3" fill="#ff7f0e"/>
<circle cx="249.1" cy="208.7" r="3" fill="#ff7f0e"/>
<circle cx="266.2" cy="208.2" r="3" fill="#ff7f0e"/>
<circle cx="283.4" cy="196.4" r="3" fill="#ff7f0e"/>
<circle cx="300.5" cy="182.2" r="3" fill="#ff7f0e"/>
<circle cx="317.6" cy="187.9" r="3" fill="#ff7f0e"/>
<circle cx="334.8" cy="189.3" r="3" fill="#ff7f0e"/>
<circle cx="351.9" cy="201.6" r="3" fill="#ff7f0e"/>
<circle cx="369.0" cy="191.7" r="3" fill="#ff7f0e"/>
<circle cx="386.1" cy="174.2" r="3" fill="#ff7f0e"/>
<circle cx="403.2" cy="162.9" r="3" fill="#ff7f0e"/>
<circle cx="420.4" cy="172.8" r="3" fill="#ff7f0e"/>
<circle cx="437.5" cy="169.5" r="3" fill="#ff7f0e"/>
<circle cx="454.6" cy="165.2" r="3" fill="#ff7f0e"/>
<circle cx="471.8" cy="162.4" r="3" fill="#ff7f0e"/>
<circle cx="488.9" cy="188.4" r="3" fill="#ff7f0e"/>
<circle cx="506.0" cy="176.1" r="3" fill="#ff7f0e"/>
<circle cx="523.1" cy="192.2" r="3" fill="#ff7f0e"/>
<circle cx="540.2" cy="191.2" r="3" fill="#ff7f0e"/>
<circle cx="557.4" cy="202.1" r="3" fill="#ff7f0e"/>
<circle cx="574.5" cy="175.1" r="3" fill="#ff7f0e"/>
<circle cx="591.6" cy="170.9" r="3" fill="#ff7f0e"/>
<circle cx="608.8" cy="159.1" r="3" fill="#ff7f0e"/>
<circle cx="625.9" cy="156.2" r="3" fill="#ff7f0e"/>
<circle cx="643.0" cy="142.1" r="3" fill="#ff7f0e"/>
<circle cx="660.1" cy="138.3" r="3" fill="#ff7f0e"/>
<circle cx="677.2" cy="132.1" r="3" fill="#ff7f0e"/>
<circle cx="694.4" cy="136.9" r="3" fill="#ff7f0e"/>
<circle cx="711.5" cy="143.5" r="3" fill="#ff7f0e"/>
<circle cx="728.6" cy="139.2" r="3" fill="#ff7f0e"/>
<circle cx="745.8" cy="144.9" r="3" fill="#ff7f0e"/>
<circle cx="762.9" cy="141.6" r="3" fill="#ff7f0e"/>
<circle cx="780.0" cy="146.8" r="3" fill="#ff7f0e"/>
<line x1="808" y1="196" x2="830" y2="196" stroke="#ff7f0e" stroke-width="2.5"/>
<text x="838" y="200" font-family="Arial" font-size="13">lr=3e-5</text>
<polyline fill="none" stroke="#17becf" stroke-width="2.3" points="95.0,470.6 112.1,175.6 129.2,126.9 146.4,128.4 163.5,101.4 180.6,96.2 197.8,93.4 214.9,90.1 232.0,89.1 249.1,86.3 266.2,82.5 283.4,85.8 300.5,90.1 317.6,94.3 334.8,93.9 351.9,98.1 369.0,93.9 386.1,89.6 403.2,90.5 420.4,97.2 437.5,101.4 454.6,101.9 471.8,93.4 488.9,98.6 506.0,98.1 523.1,92.0 540.2,105.2 557.4,106.1 574.5,118.0 591.6,111.8 608.8,104.7 625.9,112.3 643.0,107.6 660.1,124.1 677.2,125.0 694.4,127.9 711.5,139.7 728.6,135.0 745.8,127.4 762.9,135.0 780.0,133.6"/>
<circle cx="95.0" cy="470.6" r="3" fill="#17becf"/>
<circle cx="112.1" cy="175.6" r="3" fill="#17becf"/>
<circle cx="129.2" cy="126.9" r="3" fill="#17becf"/>
<circle cx="146.4" cy="128.4" r="3" fill="#17becf"/>
<circle cx="163.5" cy="101.4" r="3" fill="#17becf"/>
<circle cx="180.6" cy="96.2" r="3" fill="#17becf"/>
<circle cx="197.8" cy="93.4" r="3" fill="#17becf"/>
<circle cx="214.9" cy="90.1" r="3" fill="#17becf"/>
<circle cx="232.0" cy="89.1" r="3" fill="#17becf"/>
<circle cx="249.1" cy="86.3" r="3" fill="#17becf"/>
<circle cx="266.2" cy="82.5" r="3" fill="#17becf"/>
<circle cx="283.4" cy="85.8" r="3" fill="#17becf"/>
<circle cx="300.5" cy="90.1" r="3" fill="#17becf"/>
<circle cx="317.6" cy="94.3" r="3" fill="#17becf"/>
<circle cx="334.8" cy="93.9" r="3" fill="#17becf"/>
<circle cx="351.9" cy="98.1" r="3" fill="#17becf"/>
<circle cx="369.0" cy="93.9" r="3" fill="#17becf"/>
<circle cx="386.1" cy="89.6" r="3" fill="#17becf"/>
<circle cx="403.2" cy="90.5" r="3" fill="#17becf"/>
<circle cx="420.4" cy="97.2" r="3" fill="#17becf"/>
<circle cx="437.5" cy="101.4" r="3" fill="#17becf"/>
<circle cx="454.6" cy="101.9" r="3" fill="#17becf"/>
<circle cx="471.8" cy="93.4" r="3" fill="#17becf"/>
<circle cx="488.9" cy="98.6" r="3" fill="#17becf"/>
<circle cx="506.0" cy="98.1" r="3" fill="#17becf"/>
<circle cx="523.1" cy="92.0" r="3" fill="#17becf"/>
<circle cx="540.2" cy="105.2" r="3" fill="#17becf"/>
<circle cx="557.4" cy="106.1" r="3" fill="#17becf"/>
<circle cx="574.5" cy="118.0" r="3" fill="#17becf"/>
<circle cx="591.6" cy="111.8" r="3" fill="#17becf"/>
<circle cx="608.8" cy="104.7" r="3" fill="#17becf"/>
<circle cx="625.9" cy="112.3" r="3" fill="#17becf"/>
<circle cx="643.0" cy="107.6" r="3" fill="#17becf"/>
<circle cx="660.1" cy="124.1" r="3" fill="#17becf"/>
<circle cx="677.2" cy="125.0" r="3" fill="#17becf"/>
<circle cx="694.4" cy="127.9" r="3" fill="#17becf"/>
<circle cx="711.5" cy="139.7" r="3" fill="#17becf"/>
<circle cx="728.6" cy="135.0" r="3" fill="#17becf"/>
<circle cx="745.8" cy="127.4" r="3" fill="#17becf"/>
<circle cx="762.9" cy="135.0" r="3" fill="#17becf"/>
<circle cx="780.0" cy="133.6" r="3" fill="#17becf"/>
<line x1="808" y1="221" x2="830" y2="221" stroke="#17becf" stroke-width="2.5"/>
<text x="838" y="225" font-family="Arial" font-size="13">lr=4e-5</text>
<polyline fill="none" stroke="#8c564b" stroke-width="2.3" points="95.0,470.6 112.1,154.8 129.2,129.8 146.4,111.8 163.5,99.1 180.6,99.1 197.8,110.9 214.9,105.2 232.0,116.1 249.1,113.2 266.2,105.7 283.4,106.6 300.5,128.4 317.6,149.6 334.8,147.7 351.9,176.6 369.0,154.8 386.1,170.4 403.2,186.5 420.4,138.3 437.5,113.7 454.6,107.1 471.8,108.0 488.9,119.4 506.0,144.9 523.1,160.5 540.2,154.8 557.4,170.9 574.5,166.6 591.6,136.9 608.8,128.4 625.9,119.4 643.0,119.8 660.1,140.6 677.2,132.6 694.4,138.3 711.5,138.3 728.6,121.3 745.8,133.1 762.9,156.2 780.0,152.5"/>
<circle cx="95.0" cy="470.6" r="3" fill="#8c564b"/>
<circle cx="112.1" cy="154.8" r="3" fill="#8c564b"/>
<circle cx="129.2" cy="129.8" r="3" fill="#8c564b"/>
<circle cx="146.4" cy="111.8" r="3" fill="#8c564b"/>
<circle cx="163.5" cy="99.1" r="3" fill="#8c564b"/>
<circle cx="180.6" cy="99.1" r="3" fill="#8c564b"/>
<circle cx="197.8" cy="110.9" r="3" fill="#8c564b"/>
<circle cx="214.9" cy="105.2" r="3" fill="#8c564b"/>
<circle cx="232.0" cy="116.1" r="3" fill="#8c564b"/>
<circle cx="249.1" cy="113.2" r="3" fill="#8c564b"/>
<circle cx="266.2" cy="105.7" r="3" fill="#8c564b"/>
<circle cx="283.4" cy="106.6" r="3" fill="#8c564b"/>
<circle cx="300.5" cy="128.4" r="3" fill="#8c564b"/>
<circle cx="317.6" cy="149.6" r="3" fill="#8c564b"/>
<circle cx="334.8" cy="147.7" r="3" fill="#8c564b"/>
<circle cx="351.9" cy="176.6" r="3" fill="#8c564b"/>
<circle cx="369.0" cy="154.8" r="3" fill="#8c564b"/>
<circle cx="386.1" cy="170.4" r="3" fill="#8c564b"/>
<circle cx="403.2" cy="186.5" r="3" fill="#8c564b"/>
<circle cx="420.4" cy="138.3" r="3" fill="#8c564b"/>
<circle cx="437.5" cy="113.7" r="3" fill="#8c564b"/>
<circle cx="454.6" cy="107.1" r="3" fill="#8c564b"/>
<circle cx="471.8" cy="108.0" r="3" fill="#8c564b"/>
<circle cx="488.9" cy="119.4" r="3" fill="#8c564b"/>
<circle cx="506.0" cy="144.9" r="3" fill="#8c564b"/>
<circle cx="523.1" cy="160.5" r="3" fill="#8c564b"/>
<circle cx="540.2" cy="154.8" r="3" fill="#8c564b"/>
<circle cx="557.4" cy="170.9" r="3" fill="#8c564b"/>
<circle cx="574.5" cy="166.6" r="3" fill="#8c564b"/>
<circle cx="591.6" cy="136.9" r="3" fill="#8c564b"/>
<circle cx="608.8" cy="128.4" r="3" fill="#8c564b"/>
<circle cx="625.9" cy="119.4" r="3" fill="#8c564b"/>
<circle cx="643.0" cy="119.8" r="3" fill="#8c564b"/>
<circle cx="660.1" cy="140.6" r="3" fill="#8c564b"/>
<circle cx="677.2" cy="132.6" r="3" fill="#8c564b"/>
<circle cx="694.4" cy="138.3" r="3" fill="#8c564b"/>
<circle cx="711.5" cy="138.3" r="3" fill="#8c564b"/>
<circle cx="728.6" cy="121.3" r="3" fill="#8c564b"/>
<circle cx="745.8" cy="133.1" r="3" fill="#8c564b"/>
<circle cx="762.9" cy="156.2" r="3" fill="#8c564b"/>
<circle cx="780.0" cy="152.5" r="3" fill="#8c564b"/>
<line x1="808" y1="246" x2="830" y2="246" stroke="#8c564b" stroke-width="2.5"/>
<text x="838" y="250" font-family="Arial" font-size="13">lr=5e-5</text>
<polyline fill="none" stroke="#e377c2" stroke-width="2.3" points="95.0,470.6 112.1,150.6 129.2,411.9 146.4,270.2 163.5,381.7"/>
<circle cx="95.0" cy="470.6" r="3" fill="#e377c2"/>
<circle cx="112.1" cy="150.6" r="3" fill="#e377c2"/>
<circle cx="129.2" cy="411.9" r="3" fill="#e377c2"/>
<circle cx="146.4" cy="270.2" r="3" fill="#e377c2"/>
<circle cx="163.5" cy="381.7" r="3" fill="#e377c2"/>
<line x1="808" y1="271" x2="830" y2="271" stroke="#e377c2" stroke-width="2.5"/>
<text x="838" y="275" font-family="Arial" font-size="13">lr=7e-5 (stopped)</text>
<polyline fill="none" stroke="#7f7f7f" stroke-width="2.3" points="95.0,470.6 112.1,558.0"/>
<circle cx="95.0" cy="470.6" r="3" fill="#7f7f7f"/>
<circle cx="112.1" cy="558.0" r="3" fill="#7f7f7f"/>
<line x1="808" y1="296" x2="830" y2="296" stroke="#7f7f7f" stroke-width="2.5"/>
<text x="838" y="300" font-family="Arial" font-size="13">lr=2e-4 (stopped)</text>
<text x="437.5" y="618" text-anchor="middle" font-family="Arial" font-size="15">GRPO step</text>
<text x="24" y="316.0" text-anchor="middle" font-family="Arial" font-size="15" transform="rotate(-90 24 316.0)">Validation format accuracy</text>
</svg>
