<svg xmlns="http://www.w3.org/2000/svg" width="1040" height="640" viewBox="0 0 1040 640">
<rect width="100%" height="100%" fill="white"/>
<text x="520.0" y="36" text-anchor="middle" font-family="Arial" font-size="22" font-weight="700">GRPO rollout response length by group std normalization</text>
<line x1="95" y1="558" x2="780" y2="558" stroke="#222" stroke-width="1.5"/>
<line x1="95" y1="74" x2="95" y2="558" stroke="#222" stroke-width="1.5"/>
<line x1="90" y1="558.0" x2="780" y2="558.0" stroke="#ddd" stroke-width="1"/>
<text x="83" y="562.0" text-anchor="end" font-family="Arial" font-size="12">0.00</text>
<line x1="90" y1="461.2" x2="780" y2="461.2" stroke="#ddd" stroke-width="1"/>
<text x="83" y="465.2" text-anchor="end" font-family="Arial" font-size="12">105.30</text>
<line x1="90" y1="364.4" x2="780" y2="364.4" stroke="#ddd" stroke-width="1"/>
<text x="83" y="368.4" text-anchor="end" font-family="Arial" font-size="12">210.60</text>
<line x1="90" y1="267.6" x2="780" y2="267.6" stroke="#ddd" stroke-width="1"/>
<text x="83" y="271.6" text-anchor="end" font-family="Arial" font-size="12">315.90</text>
<line x1="90" y1="170.8" x2="780" y2="170.8" stroke="#ddd" stroke-width="1"/>
<text x="83" y="174.8" text-anchor="end" font-family="Arial" font-size="12">421.20</text>
<line x1="90" y1="74.0" x2="780" y2="74.0" stroke="#ddd" stroke-width="1"/>
<text x="83" y="78.0" text-anchor="end" font-family="Arial" font-size="12">526.50</text>
<line x1="95.0" y1="558" x2="95.0" y2="563" stroke="#222" stroke-width="1"/>
<text x="95.0" y="582" text-anchor="middle" font-family="Arial" font-size="12">1</text>
<line x1="232.0" y1="558" x2="232.0" y2="563" stroke="#222" stroke-width="1"/>
<text x="232.0" y="582" text-anchor="middle" font-family="Arial" font-size="12">41</text>
<line x1="369.0" y1="558" x2="369.0" y2="563" stroke="#222" stroke-width="1"/>
<text x="369.0" y="582" text-anchor="middle" font-family="Arial" font-size="12">81</text>
<line x1="506.0" y1="558" x2="506.0" y2="563" stroke="#222" stroke-width="1"/>
<text x="506.0" y="582" text-anchor="middle" font-family="Arial" font-size="12">120</text>
<line x1="643.0" y1="558" x2="643.0" y2="563" stroke="#222" stroke-width="1"/>
<text x="643.0" y="582" text-anchor="middle" font-family="Arial" font-size="12">160</text>
<line x1="780.0" y1="558" x2="780.0" y2="563" stroke="#222" stroke-width="1"/>
<text x="780.0" y="582" text-anchor="middle" font-family="Arial" font-size="12">200</text>
<polyline fill="none" stroke="#1f77b4" stroke-width="2.3" points="95.0,277.5 98.4,410.5 101.9,428.5 105.3,368.0 108.8,386.6 112.2,383.3 115.7,409.3 119.1,431.4 122.5,430.2 126.0,441.4 129.4,437.5 132.9,403.4 136.3,378.0 139.7,362.0 143.2,343.8 146.6,321.6 150.1,345.0 153.5,282.9 157.0,352.7 160.4,344.8 163.8,335.5 167.3,337.5 170.7,344.5 174.2,335.5 177.6,364.3 181.1,351.6 184.5,359.2 187.9,342.0 191.4,340.2 194.8,332.5 198.3,355.1 201.7,361.3 205.2,352.1 208.6,346.0 212.0,308.7 215.5,330.9 218.9,332.2 222.4,333.5 225.8,377.9 229.2,322.2 232.7,356.3 236.1,349.0 239.6,354.5 243.0,374.7 246.5,327.1 249.9,329.6 253.3,372.1 256.8,316.5 260.2,318.6 263.7,346.5 267.1,320.8 270.6,323.4 274.0,322.4 277.4,351.9 280.9,323.2 284.3,287.0 287.8,356.0 291.2,295.1 294.6,301.9 298.1,242.4 301.5,311.2 305.0,296.1 308.4,344.4 311.9,258.4 315.3,299.4 318.7,293.7 322.2,245.1 325.6,293.4 329.1,308.1 332.5,259.2 336.0,221.0 339.4,286.9 342.8,272.6 346.3,256.6 349.7,280.3 353.2,290.0 356.6,241.3 360.1,275.4 363.5,282.5 366.9,326.1 370.4,296.2 373.8,309.4 377.3,292.5 380.7,273.0 384.1,305.2 387.6,325.7 391.0,342.1 394.5,296.0 397.9,331.4 401.4,361.6 404.8,307.7 408.2,287.8 411.7,343.8 415.1,332.0 418.6,312.9 422.0,320.7 425.5,271.5 428.9,270.9 432.3,290.6 435.8,245.8 439.2,220.7 442.7,306.8 446.1,347.4 449.5,293.1 453.0,286.2 456.4,285.7 459.9,286.1 463.3,254.4 466.8,244.1 470.2,280.7 473.6,217.2 477.1,257.0 480.5,325.2 484.0,288.8 487.4,296.9 490.9,250.8 494.3,317.4 497.7,310.6 501.2,305.1 504.6,289.1 508.1,280.5 511.5,200.0 514.9,299.8 518.4,343.3 521.8,313.7 525.3,289.4 528.7,290.0 532.2,272.5 535.6,333.8 539.0,304.2 542.5,290.3 545.9,262.8 549.4,260.2 552.8,274.0 556.3,306.3 559.7,287.8 563.1,289.2 566.6,321.6 570.0,300.6 573.5,229.6 576.9,292.2 580.4,274.0 583.8,305.3 587.2,233.2 590.7,269.5 594.1,298.9 597.6,292.9 601.0,247.8 604.4,206.3 607.9,280.7 611.3,238.4 614.8,192.5 618.2,288.0 621.7,229.1 625.1,247.4 628.5,220.6 632.0,144.8 635.4,205.5 638.9,163.3 642.3,124.7 645.8,210.6 649.2,257.4 652.6,271.0 656.1,200.6 659.5,204.7 663.0,254.0 666.4,215.2 669.8,222.8 673.3,220.6 676.7,205.1 680.2,176.4 683.6,198.5 687.1,202.8 690.5,182.2 693.9,212.7 697.4,200.2 700.8,135.9 704.3,207.2 707.7,200.1 711.2,242.7 714.6,137.2 718.0,180.3 721.5,272.7 724.9,239.5 728.4,278.4 731.8,231.3 735.3,280.4 738.7,201.0 742.1,204.9 745.6,154.4 749.0,142.6 752.5,297.9 755.9,239.4 759.3,229.9 762.8,166.2 766.2,74.0 769.7,202.6 773.1,117.4 776.6,123.8 780.0,196.1"/>
<circle cx="95.0" cy="277.5" r="3" fill="#1f77b4"/>
<circle cx="98.4" cy="410.5" r="3" fill="#1f77b4"/>
<circle cx="101.9" cy="428.5" r="3" fill="#1f77b4"/>
<circle cx="105.3" cy="368.0" r="3" fill="#1f77b4"/>
<circle cx="108.8" cy="386.6" r="3" fill="#1f77b4"/>
<circle cx="112.2" cy="383.3" r="3" fill="#1f77b4"/>
<circle cx="115.7" cy="409.3" r="3" fill="#1f77b4"/>
<circle cx="119.1" cy="431.4" r="3" fill="#1f77b4"/>
<circle cx="122.5" cy="430.2" r="3" fill="#1f77b4"/>
<circle cx="126.0" cy="441.4" r="3" fill="#1f77b4"/>
<circle cx="129.4" cy="437.5" r="3" fill="#1f77b4"/>
<circle cx="132.9" cy="403.4" r="3" fill="#1f77b4"/>
<circle cx="136.3" cy="378.0" r="3" fill="#1f77b4"/>
<circle cx="139.7" cy="362.0" r="3" fill="#1f77b4"/>
<circle cx="143.2" cy="343.8" r="3" fill="#1f77b4"/>
<circle cx="146.6" cy="321.6" r="3" fill="#1f77b4"/>
<circle cx="150.1" cy="345.0" r="3" fill="#1f77b4"/>
<circle cx="153.5" cy="282.9" r="3" fill="#1f77b4"/>
<circle cx="157.0" cy="352.7" r="3" fill="#1f77b4"/>
<circle cx="160.4" cy="344.8" r="3" fill="#1f77b4"/>
<circle cx="163.8" cy="335.5" r="3" fill="#1f77b4"/>
<circle cx="167.3" cy="337.5" r="3" fill="#1f77b4"/>
<circle cx="170.7" cy="344.5" r="3" fill="#1f77b4"/>
<circle cx="174.2" cy="335.5" r="3" fill="#1f77b4"/>
<circle cx="177.6" cy="364.3" r="3" fill="#1f77b4"/>
<circle cx="181.1" cy="351.6" r="3" fill="#1f77b4"/>
<circle cx="184.5" cy="359.2" r="3" fill="#1f77b4"/>
<circle cx="187.9" cy="342.0" r="3" fill="#1f77b4"/>
<circle cx="191.4" cy="340.2" r="3" fill="#1f77b4"/>
<circle cx="194.8" cy="332.5" r="3" fill="#1f77b4"/>
<circle cx="198.3" cy="355.1" r="3" fill="#1f77b4"/>
<circle cx="201.7" cy="361.3" r="3" fill="#1f77b4"/>
<circle cx="205.2" cy="352.1" r="3" fill="#1f77b4"/>
<circle cx="208.6" cy="346.0" r="3" fill="#1f77b4"/>
<circle cx="212.0" cy="308.7" r="3" fill="#1f77b4"/>
<circle cx="215.5" cy="330.9" r="3" fill="#1f77b4"/>
<circle cx="218.9" cy="332.2" r="3" fill="#1f77b4"/>
<circle cx="222.4" cy="333.5" r="3" fill="#1f77b4"/>
<circle cx="225.8" cy="377.9" r="3" fill="#1f77b4"/>
<circle cx="229.2" cy="322.2" r="3" fill="#1f77b4"/>
<circle cx="232.7" cy="356.3" r="3" fill="#1f77b4"/>
<circle cx="236.1" cy="349.0" r="3" fill="#1f77b4"/>
<circle cx="239.6" cy="354.5" r="3" fill="#1f77b4"/>
<circle cx="243.0" cy="374.7" r="3" fill="#1f77b4"/>
<circle cx="246.5" cy="327.1" r="3" fill="#1f77b4"/>
<circle cx="249.9" cy="329.6" r="3" fill="#1f77b4"/>
<circle cx="253.3" cy="372.1" r="3" fill="#1f77b4"/>
<circle cx="256.8" cy="316.5" r="3" fill="#1f77b4"/>
<circle cx="260.2" cy="318.6" r="3" fill="#1f77b4"/>
<circle cx="263.7" cy="346.5" r="3" fill="#1f77b4"/>
<circle cx="267.1" cy="320.8" r="3" fill="#1f77b4"/>
<circle cx="270.6" cy="323.4" r="3" fill="#1f77b4"/>
<circle cx="274.0" cy="322.4" r="3" fill="#1f77b4"/>
<circle cx="277.4" cy="351.9" r="3" fill="#1f77b4"/>
<circle cx="280.9" cy="323.2" r="3" fill="#1f77b4"/>
<circle cx="284.3" cy="287.0" r="3" fill="#1f77b4"/>
<circle cx="287.8" cy="356.0" r="3" fill="#1f77b4"/>
<circle cx="291.2" cy="295.1" r="3" fill="#1f77b4"/>
<circle cx="294.6" cy="301.9" r="3" fill="#1f77b4"/>
<circle cx="298.1" cy="242.4" r="3" fill="#1f77b4"/>
<circle cx="301.5" cy="311.2" r="3" fill="#1f77b4"/>
<circle cx="305.0" cy="296.1" r="3" fill="#1f77b4"/>
<circle cx="308.4" cy="344.4" r="3" fill="#1f77b4"/>
<circle cx="311.9" cy="258.4" r="3" fill="#1f77b4"/>
<circle cx="315.3" cy="299.4" r="3" fill="#1f77b4"/>
<circle cx="318.7" cy="293.7" r="3" fill="#1f77b4"/>
<circle cx="322.2" cy="245.1" r="3" fill="#1f77b4"/>
<circle cx="325.6" cy="293.4" r="3" fill="#1f77b4"/>
<circle cx="329.1" cy="308.1" r="3" fill="#1f77b4"/>
<circle cx="332.5" cy="259.2" r="3" fill="#1f77b4"/>
<circle cx="336.0" cy="221.0" r="3" fill="#1f77b4"/>
<circle cx="339.4" cy="286.9" r="3" fill="#1f77b4"/>
<circle cx="342.8" cy="272.6" r="3" fill="#1f77b4"/>
<circle cx="346.3" cy="256.6" r="3" fill="#1f77b4"/>
<circle cx="349.7" cy="280.3" r="3" fill="#1f77b4"/>
<circle cx="353.2" cy="290.0" r="3" fill="#1f77b4"/>
<circle cx="356.6" cy="241.3" r="3" fill="#1f77b4"/>
<circle cx="360.1" cy="275.4" r="3" fill="#1f77b4"/>
<circle cx="363.5" cy="282.5" r="3" fill="#1f77b4"/>
<circle cx="366.9" cy="326.1" r="3" fill="#1f77b4"/>
<circle cx="370.4" cy="296.2" r="3" fill="#1f77b4"/>
<circle cx="373.8" cy="309.4" r="3" fill="#1f77b4"/>
<circle cx="377.3" cy="292.5" r="3" fill="#1f77b4"/>
<circle cx="380.7" cy="273.0" r="3" fill="#1f77b4"/>
<circle cx="384.1" cy="305.2" r="3" fill="#1f77b4"/>
<circle cx="387.6" cy="325.7" r="3" fill="#1f77b4"/>
<circle cx="391.0" cy="342.1" r="3" fill="#1f77b4"/>
<circle cx="394.5" cy="296.0" r="3" fill="#1f77b4"/>
<circle cx="397.9" cy="331.4" r="3" fill="#1f77b4"/>
<circle cx="401.4" cy="361.6" r="3" fill="#1f77b4"/>
<circle cx="404.8" cy="307.7" r="3" fill="#1f77b4"/>
<circle cx="408.2" cy="287.8" r="3" fill="#1f77b4"/>
<circle cx="411.7" cy="343.8" r="3" fill="#1f77b4"/>
<circle cx="415.1" cy="332.0" r="3" fill="#1f77b4"/>
<circle cx="418.6" cy="312.9" r="3" fill="#1f77b4"/>
<circle cx="422.0" cy="320.7" r="3" fill="#1f77b4"/>
<circle cx="425.5" cy="271.5" r="3" fill="#1f77b4"/>
<circle cx="428.9" cy="270.9" r="3" fill="#1f77b4"/>
<circle cx="432.3" cy="290.6" r="3" fill="#1f77b4"/>
<circle cx="435.8" cy="245.8" r="3" fill="#1f77b4"/>
<circle cx="439.2" cy="220.7" r="3" fill="#1f77b4"/>
<circle cx="442.7" cy="306.8" r="3" fill="#1f77b4"/>
<circle cx="446.1" cy="347.4" r="3" fill="#1f77b4"/>
<circle cx="449.5" cy="293.1" r="3" fill="#1f77b4"/>
<circle cx="453.0" cy="286.2" r="3" fill="#1f77b4"/>
<circle cx="456.4" cy="285.7" r="3" fill="#1f77b4"/>
<circle cx="459.9" cy="286.1" r="3" fill="#1f77b4"/>
<circle cx="463.3" cy="254.4" r="3" fill="#1f77b4"/>
<circle cx="466.8" cy="244.1" r="3" fill="#1f77b4"/>
<circle cx="470.2" cy="280.7" r="3" fill="#1f77b4"/>
<circle cx="473.6" cy="217.2" r="3" fill="#1f77b4"/>
<circle cx="477.1" cy="257.0" r="3" fill="#1f77b4"/>
<circle cx="480.5" cy="325.2" r="3" fill="#1f77b4"/>
<circle cx="484.0" cy="288.8" r="3" fill="#1f77b4"/>
<circle cx="487.4" cy="296.9" r="3" fill="#1f77b4"/>
<circle cx="490.9" cy="250.8" r="3" fill="#1f77b4"/>
<circle cx="494.3" cy="317.4" r="3" fill="#1f77b4"/>
<circle cx="497.7" cy="310.6" r="3" fill="#1f77b4"/>
<circle cx="501.2" cy="305.1" r="3" fill="#1f77b4"/>
<circle cx="504.6" cy="289.1" r="3" fill="#1f77b4"/>
<circle cx="508.1" cy="280.5" r="3" fill="#1f77b4"/>
<circle cx="511.5" cy="200.0" r="3" fill="#1f77b4"/>
<circle cx="514.9" cy="299.8" r="3" fill="#1f77b4"/>
<circle cx="518.4" cy="343.3" r="3" fill="#1f77b4"/>
<circle cx="521.8" cy="313.7" r="3" fill="#1f77b4"/>
<circle cx="525.3" cy="289.4" r="3" fill="#1f77b4"/>
<circle cx="528.7" cy="290.0" r="3" fill="#1f77b4"/>
<circle cx="532.2" cy="272.5" r="3" fill="#1f77b4"/>
<circle cx="535.6" cy="333.8" r="3" fill="#1f77b4"/>
<circle cx="539.0" cy="304.2" r="3" fill="#1f77b4"/>
<circle cx="542.5" cy="290.3" r="3" fill="#1f77b4"/>
<circle cx="545.9" cy="262.8" r="3" fill="#1f77b4"/>
<circle cx="549.4" cy="260.2" r="3" fill="#1f77b4"/>
<circle cx="552.8" cy="274.0" r="3" fill="#1f77b4"/>
<circle cx="556.3" cy="306.3" r="3" fill="#1f77b4"/>
<circle cx="559.7" cy="287.8" r="3" fill="#1f77b4"/>
<circle cx="563.1" cy="289.2" r="3" fill="#1f77b4"/>
<circle cx="566.6" cy="321.6" r="3" fill="#1f77b4"/>
<circle cx="570.0" cy="300.6" r="3" fill="#1f77b4"/>
<circle cx="573.5" cy="229.6" r="3" fill="#1f77b4"/>
<circle cx="576.9" cy="292.2" r="3" fill="#1f77b4"/>
<circle cx="580.4" cy="274.0" r="3" fill="#1f77b4"/>
<circle cx="583.8" cy="305.3" r="3" fill="#1f77b4"/>
<circle cx="587.2" cy="233.2" r="3" fill="#1f77b4"/>
<circle cx="590.7" cy="269.5" r="3" fill="#1f77b4"/>
<circle cx="594.1" cy="298.9" r="3" fill="#1f77b4"/>
<circle cx="597.6" cy="292.9" r="3" fill="#1f77b4"/>
<circle cx="601.0" cy="247.8" r="3" fill="#1f77b4"/>
<circle cx="604.4" cy="206.3" r="3" fill="#1f77b4"/>
<circle cx="607.9" cy="280.7" r="3" fill="#1f77b4"/>
<circle cx="611.3" cy="238.4" r="3" fill="#1f77b4"/>
<circle cx="614.8" cy="192.5" r="3" fill="#1f77b4"/>
<circle cx="618.2" cy="288.0" r="3" fill="#1f77b4"/>
<circle cx="621.7" cy="229.1" r="3" fill="#1f77b4"/>
<circle cx="625.1" cy="247.4" r="3" fill="#1f77b4"/>
<circle cx="628.5" cy="220.6" r="3" fill="#1f77b4"/>
<circle cx="632.0" cy="144.8" r="3" fill="#1f77b4"/>
<circle cx="635.4" cy="205.5" r="3" fill="#1f77b4"/>
<circle cx="638.9" cy="163.3" r="3" fill="#1f77b4"/>
<circle cx="642.3" cy="124.7" r="3" fill="#1f77b4"/>
<circle cx="645.8" cy="210.6" r="3" fill="#1f77b4"/>
<circle cx="649.2" cy="257.4" r="3" fill="#1f77b4"/>
<circle cx="652.6" cy="271.0" r="3" fill="#1f77b4"/>
<circle cx="656.1" cy="200.6" r="3" fill="#1f77b4"/>
<circle cx="659.5" cy="204.7" r="3" fill="#1f77b4"/>
<circle cx="663.0" cy="254.0" r="3" fill="#1f77b4"/>
<circle cx="666.4" cy="215.2" r="3" fill="#1f77b4"/>
<circle cx="669.8" cy="222.8" r="3" fill="#1f77b4"/>
<circle cx="673.3" cy="220.6" r="3" fill="#1f77b4"/>
<circle cx="676.7" cy="205.1" r="3" fill="#1f77b4"/>
<circle cx="680.2" cy="176.4" r="3" fill="#1f77b4"/>
<circle cx="683.6" cy="198.5" r="3" fill="#1f77b4"/>
<circle cx="687.1" cy="202.8" r="3" fill="#1f77b4"/>
<circle cx="690.5" cy="182.2" r="3" fill="#1f77b4"/>
<circle cx="693.9" cy="212.7" r="3" fill="#1f77b4"/>
<circle cx="697.4" cy="200.2" r="3" fill="#1f77b4"/>
<circle cx="700.8" cy="135.9" r="3" fill="#1f77b4"/>
<circle cx="704.3" cy="207.2" r="3" fill="#1f77b4"/>
<circle cx="707.7" cy="200.1" r="3" fill="#1f77b4"/>
<circle cx="711.2" cy="242.7" r="3" fill="#1f77b4"/>
<circle cx="714.6" cy="137.2" r="3" fill="#1f77b4"/>
<circle cx="718.0" cy="180.3" r="3" fill="#1f77b4"/>
<circle cx="721.5" cy="272.7" r="3" fill="#1f77b4"/>
<circle cx="724.9" cy="239.5" r="3" fill="#1f77b4"/>
<circle cx="728.4" cy="278.4" r="3" fill="#1f77b4"/>
<circle cx="731.8" cy="231.3" r="3" fill="#1f77b4"/>
<circle cx="735.3" cy="280.4" r="3" fill="#1f77b4"/>
<circle cx="738.7" cy="201.0" r="3" fill="#1f77b4"/>
<circle cx="742.1" cy="204.9" r="3" fill="#1f77b4"/>
<circle cx="745.6" cy="154.4" r="3" fill="#1f77b4"/>
<circle cx="749.0" cy="142.6" r="3" fill="#1f77b4"/>
<circle cx="752.5" cy="297.9" r="3" fill="#1f77b4"/>
<circle cx="755.9" cy="239.4" r="3" fill="#1f77b4"/>
<circle cx="759.3" cy="229.9" r="3" fill="#1f77b4"/>
<circle cx="762.8" cy="166.2" r="3" fill="#1f77b4"/>
<circle cx="766.2" cy="74.0" r="3" fill="#1f77b4"/>
<circle cx="769.7" cy="202.6" r="3" fill="#1f77b4"/>
<circle cx="773.1" cy="117.4" r="3" fill="#1f77b4"/>
<circle cx="776.6" cy="123.8" r="3" fill="#1f77b4"/>
<circle cx="780.0" cy="196.1" r="3" fill="#1f77b4"/>
<line x1="808" y1="96" x2="830" y2="96" stroke="#1f77b4" stroke-width="2.5"/>
<text x="838" y="100" font-family="Arial" font-size="13">std=True</text>
<polyline fill="none" stroke="#d62728" stroke-width="2.3" points="95.0,277.5 98.4,416.1 101.9,432.5 105.3,380.7 108.8,358.5 112.2,295.9 115.7,337.6 119.1,322.8 122.5,339.3 126.0,324.7 129.4,321.3 132.9,382.3 136.3,346.7 139.7,316.4 143.2,287.8 146.6,302.8 150.1,297.3 153.5,274.5 157.0,300.3 160.4,307.7 163.8,305.8 167.3,295.1 170.7,302.0 174.2,298.3 177.6,342.1 181.1,316.7 184.5,338.0 187.9,322.6 191.4,297.6 194.8,298.7 198.3,317.8 201.7,315.9 205.2,322.3 208.6,283.2 212.0,261.8 215.5,277.1 218.9,277.7 222.4,277.7 225.8,325.8 229.2,260.1 232.7,299.0 236.1,265.5 239.6,297.3 243.0,298.3 246.5,242.5 249.9,274.5 253.3,334.1 256.8,218.8 260.2,269.8 263.7,300.6 267.1,261.8 270.6,282.9 274.0,265.3 277.4,311.0 280.9,273.9 284.3,256.9 287.8,316.4 291.2,267.8 294.6,291.2 298.1,263.8 301.5,309.3 305.0,295.8 308.4,341.8 311.9,264.7 315.3,298.8 318.7,299.1 322.2,241.4 325.6,277.0 329.1,293.3 332.5,275.8 336.0,206.0 339.4,285.6 342.8,265.2 346.3,255.2 349.7,255.5 353.2,265.4 356.6,208.2 360.1,285.6 363.5,285.5 366.9,307.8 370.4,297.2 373.8,320.7 377.3,280.3 380.7,225.3 384.1,265.9 387.6,309.7 391.0,314.9 394.5,280.9 397.9,318.4 401.4,328.6 404.8,245.0 408.2,226.5 411.7,292.2 415.1,258.6 418.6,278.4 422.0,265.1 425.5,237.7 428.9,227.8 432.3,243.6 435.8,223.8 439.2,184.5 442.7,304.9 446.1,265.2 449.5,269.5 453.0,280.0 456.4,229.9 459.9,217.8 463.3,209.0 466.8,238.1 470.2,252.5 473.6,186.2 477.1,223.0 480.5,273.3 484.0,230.4 487.4,269.4 490.9,207.1 494.3,287.4 497.7,279.6 501.2,257.3 504.6,262.9 508.1,234.2 511.5,145.8 514.9,197.2 518.4,301.4 521.8,270.4 525.3,276.0 528.7,236.4 532.2,235.3 535.6,262.0 539.0,271.9 542.5,258.9 545.9,250.8 549.4,282.0 552.8,275.7 556.3,282.7 559.7,289.0 563.1,288.2 566.6,276.9 570.0,293.0 573.5,203.3 576.9,239.0 580.4,259.8 583.8,294.1 587.2,236.3 590.7,256.5 594.1,269.4 597.6,274.6 601.0,242.4 604.4,207.8 607.9,233.7 611.3,241.4 614.8,221.3 618.2,295.3 621.7,236.7 625.1,274.8 628.5,261.5 632.0,137.1 635.4,226.6 638.9,163.3 642.3,133.2 645.8,202.7 649.2,294.2 652.6,219.4 656.1,195.0 659.5,226.7 663.0,233.1 666.4,236.4 669.8,275.2 673.3,244.8 676.7,267.1 680.2,269.9 683.6,258.9 687.1,240.4 690.5,228.3 693.9,256.0 697.4,253.6 700.8,229.4 704.3,243.4 707.7,287.1 711.2,249.1 714.6,224.5 718.0,262.8 721.5,304.9 724.9,278.0 728.4,304.2 731.8,243.1 735.3,287.8 738.7,258.8 742.1,241.3 745.6,221.6 749.0,219.7 752.5,302.2 755.9,280.7 759.3,262.5 762.8,210.2 766.2,184.7 769.7,262.0 773.1,201.8 776.6,229.4 780.0,252.2"/>
<circle cx="95.0" cy="277.5" r="3" fill="#d62728"/>
<circle cx="98.4" cy="416.1" r="3" fill="#d62728"/>
<circle cx="101.9" cy="432.5" r="3" fill="#d62728"/>
<circle cx="105.3" cy="380.7" r="3" fill="#d62728"/>
<circle cx="108.8" cy="358.5" r="3" fill="#d62728"/>
<circle cx="112.2" cy="295.9" r="3" fill="#d62728"/>
<circle cx="115.7" cy="337.6" r="3" fill="#d62728"/>
<circle cx="119.1" cy="322.8" r="3" fill="#d62728"/>
<circle cx="122.5" cy="339.3" r="3" fill="#d62728"/>
<circle cx="126.0" cy="324.7" r="3" fill="#d62728"/>
<circle cx="129.4" cy="321.3" r="3" fill="#d62728"/>
<circle cx="132.9" cy="382.3" r="3" fill="#d62728"/>
<circle cx="136.3" cy="346.7" r="3" fill="#d62728"/>
<circle cx="139.7" cy="316.4" r="3" fill="#d62728"/>
<circle cx="143.2" cy="287.8" r="3" fill="#d62728"/>
<circle cx="146.6" cy="302.8" r="3" fill="#d62728"/>
<circle cx="150.1" cy="297.3" r="3" fill="#d62728"/>
<circle cx="153.5" cy="274.5" r="3" fill="#d62728"/>
<circle cx="157.0" cy="300.3" r="3" fill="#d62728"/>
<circle cx="160.4" cy="307.7" r="3" fill="#d62728"/>
<circle cx="163.8" cy="305.8" r="3" fill="#d62728"/>
<circle cx="167.3" cy="295.1" r="3" fill="#d62728"/>
<circle cx="170.7" cy="302.0" r="3" fill="#d62728"/>
<circle cx="174.2" cy="298.3" r="3" fill="#d62728"/>
<circle cx="177.6" cy="342.1" r="3" fill="#d62728"/>
<circle cx="181.1" cy="316.7" r="3" fill="#d62728"/>
<circle cx="184.5" cy="338.0" r="3" fill="#d62728"/>
<circle cx="187.9" cy="322.6" r="3" fill="#d62728"/>
<circle cx="191.4" cy="297.6" r="3" fill="#d62728"/>
<circle cx="194.8" cy="298.7" r="3" fill="#d62728"/>
<circle cx="198.3" cy="317.8" r="3" fill="#d62728"/>
<circle cx="201.7" cy="315.9" r="3" fill="#d62728"/>
<circle cx="205.2" cy="322.3" r="3" fill="#d62728"/>
<circle cx="208.6" cy="283.2" r="3" fill="#d62728"/>
<circle cx="212.0" cy="261.8" r="3" fill="#d62728"/>
<circle cx="215.5" cy="277.1" r="3" fill="#d62728"/>
<circle cx="218.9" cy="277.7" r="3" fill="#d62728"/>
<circle cx="222.4" cy="277.7" r="3" fill="#d62728"/>
<circle cx="225.8" cy="325.8" r="3" fill="#d62728"/>
<circle cx="229.2" cy="260.1" r="3" fill="#d62728"/>
<circle cx="232.7" cy="299.0" r="3" fill="#d62728"/>
<circle cx="236.1" cy="265.5" r="3" fill="#d62728"/>
<circle cx="239.6" cy="297.3" r="3" fill="#d62728"/>
<circle cx="243.0" cy="298.3" r="3" fill="#d62728"/>
<circle cx="246.5" cy="242.5" r="3" fill="#d62728"/>
<circle cx="249.9" cy="274.5" r="3" fill="#d62728"/>
<circle cx="253.3" cy="334.1" r="3" fill="#d62728"/>
<circle cx="256.8" cy="218.8" r="3" fill="#d62728"/>
<circle cx="260.2" cy="269.8" r="3" fill="#d62728"/>
<circle cx="263.7" cy="300.6" r="3" fill="#d62728"/>
<circle cx="267.1" cy="261.8" r="3" fill="#d62728"/>
<circle cx="270.6" cy="282.9" r="3" fill="#d62728"/>
<circle cx="274.0" cy="265.3" r="3" fill="#d62728"/>
<circle cx="277.4" cy="311.0" r="3" fill="#d62728"/>
<circle cx="280.9" cy="273.9" r="3" fill="#d62728"/>
<circle cx="284.3" cy="256.9" r="3" fill="#d62728"/>
<circle cx="287.8" cy="316.4" r="3" fill="#d62728"/>
<circle cx="291.2" cy="267.8" r="3" fill="#d62728"/>
<circle cx="294.6" cy="291.2" r="3" fill="#d62728"/>
<circle cx="298.1" cy="263.8" r="3" fill="#d62728"/>
<circle cx="301.5" cy="309.3" r="3" fill="#d62728"/>
<circle cx="305.0" cy="295.8" r="3" fill="#d62728"/>
<circle cx="308.4" cy="341.8" r="3" fill="#d62728"/>
<circle cx="311.9" cy="264.7" r="3" fill="#d62728"/>
<circle cx="315.3" cy="298.8" r="3" fill="#d62728"/>
<circle cx="318.7" cy="299.1" r="3" fill="#d62728"/>
<circle cx="322.2" cy="241.4" r="3" fill="#d62728"/>
<circle cx="325.6" cy="277.0" r="3" fill="#d62728"/>
<circle cx="329.1" cy="293.3" r="3" fill="#d62728"/>
<circle cx="332.5" cy="275.8" r="3" fill="#d62728"/>
<circle cx="336.0" cy="206.0" r="3" fill="#d62728"/>
<circle cx="339.4" cy="285.6" r="3" fill="#d62728"/>
<circle cx="342.8" cy="265.2" r="3" fill="#d62728"/>
<circle cx="346.3" cy="255.2" r="3" fill="#d62728"/>
<circle cx="349.7" cy="255.5" r="3" fill="#d62728"/>
<circle cx="353.2" cy="265.4" r="3" fill="#d62728"/>
<circle cx="356.6" cy="208.2" r="3" fill="#d62728"/>
<circle cx="360.1" cy="285.6" r="3" fill="#d62728"/>
<circle cx="363.5" cy="285.5" r="3" fill="#d62728"/>
<circle cx="366.9" cy="307.8" r="3" fill="#d62728"/>
<circle cx="370.4" cy="297.2" r="3" fill="#d62728"/>
<circle cx="373.8" cy="320.7" r="3" fill="#d62728"/>
<circle cx="377.3" cy="280.3" r="3" fill="#d62728"/>
<circle cx="380.7" cy="225.3" r="3" fill="#d62728"/>
<circle cx="384.1" cy="265.9" r="3" fill="#d62728"/>
<circle cx="387.6" cy="309.7" r="3" fill="#d62728"/>
<circle cx="391.0" cy="314.9" r="3" fill="#d62728"/>
<circle cx="394.5" cy="280.9" r="3" fill="#d62728"/>
<circle cx="397.9" cy="318.4" r="3" fill="#d62728"/>
<circle cx="401.4" cy="328.6" r="3" fill="#d62728"/>
<circle cx="404.8" cy="245.0" r="3" fill="#d62728"/>
<circle cx="408.2" cy="226.5" r="3" fill="#d62728"/>
<circle cx="411.7" cy="292.2" r="3" fill="#d62728"/>
<circle cx="415.1" cy="258.6" r="3" fill="#d62728"/>
<circle cx="418.6" cy="278.4" r="3" fill="#d62728"/>
<circle cx="422.0" cy="265.1" r="3" fill="#d62728"/>
<circle cx="425.5" cy="237.7" r="3" fill="#d62728"/>
<circle cx="428.9" cy="227.8" r="3" fill="#d62728"/>
<circle cx="432.3" cy="243.6" r="3" fill="#d62728"/>
<circle cx="435.8" cy="223.8" r="3" fill="#d62728"/>
<circle cx="439.2" cy="184.5" r="3" fill="#d62728"/>
<circle cx="442.7" cy="304.9" r="3" fill="#d62728"/>
<circle cx="446.1" cy="265.2" r="3" fill="#d62728"/>
<circle cx="449.5" cy="269.5" r="3" fill="#d62728"/>
<circle cx="453.0" cy="280.0" r="3" fill="#d62728"/>
<circle cx="456.4" cy="229.9" r="3" fill="#d62728"/>
<circle cx="459.9" cy="217.8" r="3" fill="#d62728"/>
<circle cx="463.3" cy="209.0" r="3" fill="#d62728"/>
<circle cx="466.8" cy="238.1" r="3" fill="#d62728"/>
<circle cx="470.2" cy="252.5" r="3" fill="#d62728"/>
<circle cx="473.6" cy="186.2" r="3" fill="#d62728"/>
<circle cx="477.1" cy="223.0" r="3" fill="#d62728"/>
<circle cx="480.5" cy="273.3" r="3" fill="#d62728"/>
<circle cx="484.0" cy="230.4" r="3" fill="#d62728"/>
<circle cx="487.4" cy="269.4" r="3" fill="#d62728"/>
<circle cx="490.9" cy="207.1" r="3" fill="#d62728"/>
<circle cx="494.3" cy="287.4" r="3" fill="#d62728"/>
<circle cx="497.7" cy="279.6" r="3" fill="#d62728"/>
<circle cx="501.2" cy="257.3" r="3" fill="#d62728"/>
<circle cx="504.6" cy="262.9" r="3" fill="#d62728"/>
<circle cx="508.1" cy="234.2" r="3" fill="#d62728"/>
<circle cx="511.5" cy="145.8" r="3" fill="#d62728"/>
<circle cx="514.9" cy="197.2" r="3" fill="#d62728"/>
<circle cx="518.4" cy="301.4" r="3" fill="#d62728"/>
<circle cx="521.8" cy="270.4" r="3" fill="#d62728"/>
<circle cx="525.3" cy="276.0" r="3" fill="#d62728"/>
<circle cx="528.7" cy="236.4" r="3" fill="#d62728"/>
<circle cx="532.2" cy="235.3" r="3" fill="#d62728"/>
<circle cx="535.6" cy="262.0" r="3" fill="#d62728"/>
<circle cx="539.0" cy="271.9" r="3" fill="#d62728"/>
<circle cx="542.5" cy="258.9" r="3" fill="#d62728"/>
<circle cx="545.9" cy="250.8" r="3" fill="#d62728"/>
<circle cx="549.4" cy="282.0" r="3" fill="#d62728"/>
<circle cx="552.8" cy="275.7" r="3" fill="#d62728"/>
<circle cx="556.3" cy="282.7" r="3" fill="#d62728"/>
<circle cx="559.7" cy="289.0" r="3" fill="#d62728"/>
<circle cx="563.1" cy="288.2" r="3" fill="#d62728"/>
<circle cx="566.6" cy="276.9" r="3" fill="#d62728"/>
<circle cx="570.0" cy="293.0" r="3" fill="#d62728"/>
<circle cx="573.5" cy="203.3" r="3" fill="#d62728"/>
<circle cx="576.9" cy="239.0" r="3" fill="#d62728"/>
<circle cx="580.4" cy="259.8" r="3" fill="#d62728"/>
<circle cx="583.8" cy="294.1" r="3" fill="#d62728"/>
<circle cx="587.2" cy="236.3" r="3" fill="#d62728"/>
<circle cx="590.7" cy="256.5" r="3" fill="#d62728"/>
<circle cx="594.1" cy="269.4" r="3" fill="#d62728"/>
<circle cx="597.6" cy="274.6" r="3" fill="#d62728"/>
<circle cx="601.0" cy="242.4" r="3" fill="#d62728"/>
<circle cx="604.4" cy="207.8" r="3" fill="#d62728"/>
<circle cx="607.9" cy="233.7" r="3" fill="#d62728"/>
<circle cx="611.3" cy="241.4" r="3" fill="#d62728"/>
<circle cx="614.8" cy="221.3" r="3" fill="#d62728"/>
<circle cx="618.2" cy="295.3" r="3" fill="#d62728"/>
<circle cx="621.7" cy="236.7" r="3" fill="#d62728"/>
<circle cx="625.1" cy="274.8" r="3" fill="#d62728"/>
<circle cx="628.5" cy="261.5" r="3" fill="#d62728"/>
<circle cx="632.0" cy="137.1" r="3" fill="#d62728"/>
<circle cx="635.4" cy="226.6" r="3" fill="#d62728"/>
<circle cx="638.9" cy="163.3" r="3" fill="#d62728"/>
<circle cx="642.3" cy="133.2" r="3" fill="#d62728"/>
<circle cx="645.8" cy="202.7" r="3" fill="#d62728"/>
<circle cx="649.2" cy="294.2" r="3" fill="#d62728"/>
<circle cx="652.6" cy="219.4" r="3" fill="#d62728"/>
<circle cx="656.1" cy="195.0" r="3" fill="#d62728"/>
<circle cx="659.5" cy="226.7" r="3" fill="#d62728"/>
<circle cx="663.0" cy="233.1" r="3" fill="#d62728"/>
<circle cx="666.4" cy="236.4" r="3" fill="#d62728"/>
<circle cx="669.8" cy="275.2" r="3" fill="#d62728"/>
<circle cx="673.3" cy="244.8" r="3" fill="#d62728"/>
<circle cx="676.7" cy="267.1" r="3" fill="#d62728"/>
<circle cx="680.2" cy="269.9" r="3" fill="#d62728"/>
<circle cx="683.6" cy="258.9" r="3" fill="#d62728"/>
<circle cx="687.1" cy="240.4" r="3" fill="#d62728"/>
<circle cx="690.5" cy="228.3" r="3" fill="#d62728"/>
<circle cx="693.9" cy="256.0" r="3" fill="#d62728"/>
<circle cx="697.4" cy="253.6" r="3" fill="#d62728"/>
<circle cx="700.8" cy="229.4" r="3" fill="#d62728"/>
<circle cx="704.3" cy="243.4" r="3" fill="#d62728"/>
<circle cx="707.7" cy="287.1" r="3" fill="#d62728"/>
<circle cx="711.2" cy="249.1" r="3" fill="#d62728"/>
<circle cx="714.6" cy="224.5" r="3" fill="#d62728"/>
<circle cx="718.0" cy="262.8" r="3" fill="#d62728"/>
<circle cx="721.5" cy="304.9" r="3" fill="#d62728"/>
<circle cx="724.9" cy="278.0" r="3" fill="#d62728"/>
<circle cx="728.4" cy="304.2" r="3" fill="#d62728"/>
<circle cx="731.8" cy="243.1" r="3" fill="#d62728"/>
<circle cx="735.3" cy="287.8" r="3" fill="#d62728"/>
<circle cx="738.7" cy="258.8" r="3" fill="#d62728"/>
<circle cx="742.1" cy="241.3" r="3" fill="#d62728"/>
<circle cx="745.6" cy="221.6" r="3" fill="#d62728"/>
<circle cx="749.0" cy="219.7" r="3" fill="#d62728"/>
<circle cx="752.5" cy="302.2" r="3" fill="#d62728"/>
<circle cx="755.9" cy="280.7" r="3" fill="#d62728"/>
<circle cx="759.3" cy="262.5" r="3" fill="#d62728"/>
<circle cx="762.8" cy="210.2" r="3" fill="#d62728"/>
<circle cx="766.2" cy="184.7" r="3" fill="#d62728"/>
<circle cx="769.7" cy="262.0" r="3" fill="#d62728"/>
<circle cx="773.1" cy="201.8" r="3" fill="#d62728"/>
<circle cx="776.6" cy="229.4" r="3" fill="#d62728"/>
<circle cx="780.0" cy="252.2" r="3" fill="#d62728"/>
<line x1="808" y1="121" x2="830" y2="121" stroke="#d62728" stroke-width="2.5"/>
<text x="838" y="125" font-family="Arial" font-size="13">std=False</text>
<text x="437.5" y="618" text-anchor="middle" font-family="Arial" font-size="15">GRPO step</text>
<text x="24" y="316.0" text-anchor="middle" font-family="Arial" font-size="15" transform="rotate(-90 24 316.0)">average response tokens</text>
</svg>
