<svg xmlns="http://www.w3.org/2000/svg" width="1040" height="640" viewBox="0 0 1040 640">
<rect width="100%" height="100%" fill="white"/>
<text x="520.0" y="36" text-anchor="middle" font-family="Arial" font-size="22" font-weight="700">GRPO gradient norm by group std normalization</text>
<line x1="95" y1="558" x2="780" y2="558" stroke="#222" stroke-width="1.5"/>
<line x1="95" y1="74" x2="95" y2="558" stroke="#222" stroke-width="1.5"/>
<line x1="90" y1="558.0" x2="780" y2="558.0" stroke="#ddd" stroke-width="1"/>
<text x="83" y="562.0" text-anchor="end" font-family="Arial" font-size="12">0.00</text>
<line x1="90" y1="461.2" x2="780" y2="461.2" stroke="#ddd" stroke-width="1"/>
<text x="83" y="465.2" text-anchor="end" font-family="Arial" font-size="12">6.70</text>
<line x1="90" y1="364.4" x2="780" y2="364.4" stroke="#ddd" stroke-width="1"/>
<text x="83" y="368.4" text-anchor="end" font-family="Arial" font-size="12">13.40</text>
<line x1="90" y1="267.6" x2="780" y2="267.6" stroke="#ddd" stroke-width="1"/>
<text x="83" y="271.6" text-anchor="end" font-family="Arial" font-size="12">20.10</text>
<line x1="90" y1="170.8" x2="780" y2="170.8" stroke="#ddd" stroke-width="1"/>
<text x="83" y="174.8" text-anchor="end" font-family="Arial" font-size="12">26.80</text>
<line x1="90" y1="74.0" x2="780" y2="74.0" stroke="#ddd" stroke-width="1"/>
<text x="83" y="78.0" text-anchor="end" font-family="Arial" font-size="12">33.50</text>
<line x1="95.0" y1="558" x2="95.0" y2="563" stroke="#222" stroke-width="1"/>
<text x="95.0" y="582" text-anchor="middle" font-family="Arial" font-size="12">1</text>
<line x1="232.0" y1="558" x2="232.0" y2="563" stroke="#222" stroke-width="1"/>
<text x="232.0" y="582" text-anchor="middle" font-family="Arial" font-size="12">41</text>
<line x1="369.0" y1="558" x2="369.0" y2="563" stroke="#222" stroke-width="1"/>
<text x="369.0" y="582" text-anchor="middle" font-family="Arial" font-size="12">81</text>
<line x1="506.0" y1="558" x2="506.0" y2="563" stroke="#222" stroke-width="1"/>
<text x="506.0" y="582" text-anchor="middle" font-family="Arial" font-size="12">120</text>
<line x1="643.0" y1="558" x2="643.0" y2="563" stroke="#222" stroke-width="1"/>
<text x="643.0" y="582" text-anchor="middle" font-family="Arial" font-size="12">160</text>
<line x1="780.0" y1="558" x2="780.0" y2="563" stroke="#222" stroke-width="1"/>
<text x="780.0" y="582" text-anchor="middle" font-family="Arial" font-size="12">200</text>
<polyline fill="none" stroke="#1f77b4" stroke-width="2.3" points="95.0,554.1 98.4,509.7 101.9,543.1 105.3,549.3 108.8,546.3 112.2,548.3 115.7,550.0 119.1,547.0 122.5,544.3 126.0,547.3 129.4,545.1 132.9,543.2 136.3,549.4 139.7,548.9 143.2,551.1 146.6,549.3 150.1,551.4 153.5,549.8 157.0,549.9 160.4,551.3 163.8,552.4 167.3,552.4 170.7,551.5 174.2,553.2 177.6,553.1 181.1,553.8 184.5,554.2 187.9,546.7 191.4,554.1 194.8,554.6 198.3,554.3 201.7,554.9 205.2,553.2 208.6,554.0 212.0,553.2 215.5,554.4 218.9,554.5 222.4,554.0 225.8,553.8 229.2,554.3 232.7,554.5 236.1,553.7 239.6,552.9 243.0,553.3 246.5,553.1 249.9,554.0 253.3,553.7 256.8,554.7 260.2,553.6 263.7,554.9 267.1,553.4 270.6,554.6 274.0,554.3 277.4,554.9 280.9,553.7 284.3,554.3 287.8,553.1 291.2,554.6 294.6,554.7 298.1,554.4 301.5,554.7 305.0,554.4 308.4,554.5 311.9,554.4 315.3,555.3 318.7,555.6 322.2,555.0 325.6,554.6 329.1,554.6 332.5,553.7 336.0,555.0 339.4,555.5 342.8,555.0 346.3,554.6 349.7,554.7 353.2,555.1 356.6,554.8 360.1,554.7 363.5,555.0 366.9,555.1 370.4,554.7 373.8,555.7 377.3,555.4 380.7,554.7 384.1,554.9 387.6,554.9 391.0,554.7 394.5,554.9 397.9,554.9 401.4,554.8 404.8,555.0 408.2,554.7 411.7,554.2 415.1,554.4 418.6,554.1 422.0,555.3 425.5,554.7 428.9,554.6 432.3,553.9 435.8,554.5 439.2,554.8 442.7,554.5 446.1,555.5 449.5,554.5 453.0,554.9 456.4,553.9 459.9,555.0 463.3,554.9 466.8,555.8 470.2,554.4 473.6,555.1 477.1,554.7 480.5,554.6 484.0,554.7 487.4,555.0 490.9,553.0 494.3,553.6 497.7,554.5 501.2,553.7 504.6,552.6 508.1,554.2 511.5,553.7 514.9,553.6 518.4,550.7 521.8,550.6 525.3,553.3 528.7,553.2 532.2,550.6 535.6,552.8 539.0,553.8 542.5,550.8 545.9,551.9 549.4,551.4 552.8,552.8 556.3,552.7 559.7,552.6 563.1,549.8 566.6,550.6 570.0,550.1 573.5,549.4 576.9,547.6 580.4,545.1 583.8,535.4 587.2,500.4 590.7,513.8 594.1,452.4 597.6,495.2 601.0,488.0 604.4,488.0 607.9,518.9 611.3,493.0 614.8,506.8 618.2,517.1 621.7,501.6 625.1,428.0 628.5,411.7 632.0,517.8 635.4,536.8 638.9,531.9 642.3,548.6 645.8,547.7 649.2,550.3 652.6,545.9 656.1,549.3 659.5,550.2 663.0,549.5 666.4,546.2 669.8,541.1 673.3,546.8 676.7,545.0 680.2,542.1 683.6,549.4 687.1,545.3 690.5,543.0 693.9,541.2 697.4,540.4 700.8,535.4 704.3,537.8 707.7,533.8 711.2,517.6 714.6,536.1 718.0,526.2 721.5,520.3 724.9,531.0 728.4,532.3 731.8,538.2 735.3,546.5 738.7,547.1 742.1,540.5 745.6,547.0 749.0,544.5 752.5,547.3 755.9,536.0 759.3,552.1 762.8,544.3 766.2,547.6 769.7,545.6 773.1,534.3 776.6,537.7 780.0,543.2"/>
<circle cx="95.0" cy="554.1" r="3" fill="#1f77b4"/>
<circle cx="98.4" cy="509.7" r="3" fill="#1f77b4"/>
<circle cx="101.9" cy="543.1" r="3" fill="#1f77b4"/>
<circle cx="105.3" cy="549.3" r="3" fill="#1f77b4"/>
<circle cx="108.8" cy="546.3" r="3" fill="#1f77b4"/>
<circle cx="112.2" cy="548.3" r="3" fill="#1f77b4"/>
<circle cx="115.7" cy="550.0" r="3" fill="#1f77b4"/>
<circle cx="119.1" cy="547.0" r="3" fill="#1f77b4"/>
<circle cx="122.5" cy="544.3" r="3" fill="#1f77b4"/>
<circle cx="126.0" cy="547.3" r="3" fill="#1f77b4"/>
<circle cx="129.4" cy="545.1" r="3" fill="#1f77b4"/>
<circle cx="132.9" cy="543.2" r="3" fill="#1f77b4"/>
<circle cx="136.3" cy="549.4" r="3" fill="#1f77b4"/>
<circle cx="139.7" cy="548.9" r="3" fill="#1f77b4"/>
<circle cx="143.2" cy="551.1" r="3" fill="#1f77b4"/>
<circle cx="146.6" cy="549.3" r="3" fill="#1f77b4"/>
<circle cx="150.1" cy="551.4" r="3" fill="#1f77b4"/>
<circle cx="153.5" cy="549.8" r="3" fill="#1f77b4"/>
<circle cx="157.0" cy="549.9" r="3" fill="#1f77b4"/>
<circle cx="160.4" cy="551.3" r="3" fill="#1f77b4"/>
<circle cx="163.8" cy="552.4" r="3" fill="#1f77b4"/>
<circle cx="167.3" cy="552.4" r="3" fill="#1f77b4"/>
<circle cx="170.7" cy="551.5" r="3" fill="#1f77b4"/>
<circle cx="174.2" cy="553.2" r="3" fill="#1f77b4"/>
<circle cx="177.6" cy="553.1" r="3" fill="#1f77b4"/>
<circle cx="181.1" cy="553.8" r="3" fill="#1f77b4"/>
<circle cx="184.5" cy="554.2" r="3" fill="#1f77b4"/>
<circle cx="187.9" cy="546.7" r="3" fill="#1f77b4"/>
<circle cx="191.4" cy="554.1" r="3" fill="#1f77b4"/>
<circle cx="194.8" cy="554.6" r="3" fill="#1f77b4"/>
<circle cx="198.3" cy="554.3" r="3" fill="#1f77b4"/>
<circle cx="201.7" cy="554.9" r="3" fill="#1f77b4"/>
<circle cx="205.2" cy="553.2" r="3" fill="#1f77b4"/>
<circle cx="208.6" cy="554.0" r="3" fill="#1f77b4"/>
<circle cx="212.0" cy="553.2" r="3" fill="#1f77b4"/>
<circle cx="215.5" cy="554.4" r="3" fill="#1f77b4"/>
<circle cx="218.9" cy="554.5" r="3" fill="#1f77b4"/>
<circle cx="222.4" cy="554.0" r="3" fill="#1f77b4"/>
<circle cx="225.8" cy="553.8" r="3" fill="#1f77b4"/>
<circle cx="229.2" cy="554.3" r="3" fill="#1f77b4"/>
<circle cx="232.7" cy="554.5" r="3" fill="#1f77b4"/>
<circle cx="236.1" cy="553.7" r="3" fill="#1f77b4"/>
<circle cx="239.6" cy="552.9" r="3" fill="#1f77b4"/>
<circle cx="243.0" cy="553.3" r="3" fill="#1f77b4"/>
<circle cx="246.5" cy="553.1" r="3" fill="#1f77b4"/>
<circle cx="249.9" cy="554.0" r="3" fill="#1f77b4"/>
<circle cx="253.3" cy="553.7" r="3" fill="#1f77b4"/>
<circle cx="256.8" cy="554.7" r="3" fill="#1f77b4"/>
<circle cx="260.2" cy="553.6" r="3" fill="#1f77b4"/>
<circle cx="263.7" cy="554.9" r="3" fill="#1f77b4"/>
<circle cx="267.1" cy="553.4" r="3" fill="#1f77b4"/>
<circle cx="270.6" cy="554.6" r="3" fill="#1f77b4"/>
<circle cx="274.0" cy="554.3" r="3" fill="#1f77b4"/>
<circle cx="277.4" cy="554.9" r="3" fill="#1f77b4"/>
<circle cx="280.9" cy="553.7" r="3" fill="#1f77b4"/>
<circle cx="284.3" cy="554.3" r="3" fill="#1f77b4"/>
<circle cx="287.8" cy="553.1" r="3" fill="#1f77b4"/>
<circle cx="291.2" cy="554.6" r="3" fill="#1f77b4"/>
<circle cx="294.6" cy="554.7" r="3" fill="#1f77b4"/>
<circle cx="298.1" cy="554.4" r="3" fill="#1f77b4"/>
<circle cx="301.5" cy="554.7" r="3" fill="#1f77b4"/>
<circle cx="305.0" cy="554.4" r="3" fill="#1f77b4"/>
<circle cx="308.4" cy="554.5" r="3" fill="#1f77b4"/>
<circle cx="311.9" cy="554.4" r="3" fill="#1f77b4"/>
<circle cx="315.3" cy="555.3" r="3" fill="#1f77b4"/>
<circle cx="318.7" cy="555.6" r="3" fill="#1f77b4"/>
<circle cx="322.2" cy="555.0" r="3" fill="#1f77b4"/>
<circle cx="325.6" cy="554.6" r="3" fill="#1f77b4"/>
<circle cx="329.1" cy="554.6" r="3" fill="#1f77b4"/>
<circle cx="332.5" cy="553.7" r="3" fill="#1f77b4"/>
<circle cx="336.0" cy="555.0" r="3" fill="#1f77b4"/>
<circle cx="339.4" cy="555.5" r="3" fill="#1f77b4"/>
<circle cx="342.8" cy="555.0" r="3" fill="#1f77b4"/>
<circle cx="346.3" cy="554.6" r="3" fill="#1f77b4"/>
<circle cx="349.7" cy="554.7" r="3" fill="#1f77b4"/>
<circle cx="353.2" cy="555.1" r="3" fill="#1f77b4"/>
<circle cx="356.6" cy="554.8" r="3" fill="#1f77b4"/>
<circle cx="360.1" cy="554.7" r="3" fill="#1f77b4"/>
<circle cx="363.5" cy="555.0" r="3" fill="#1f77b4"/>
<circle cx="366.9" cy="555.1" r="3" fill="#1f77b4"/>
<circle cx="370.4" cy="554.7" r="3" fill="#1f77b4"/>
<circle cx="373.8" cy="555.7" r="3" fill="#1f77b4"/>
<circle cx="377.3" cy="555.4" r="3" fill="#1f77b4"/>
<circle cx="380.7" cy="554.7" r="3" fill="#1f77b4"/>
<circle cx="384.1" cy="554.9" r="3" fill="#1f77b4"/>
<circle cx="387.6" cy="554.9" r="3" fill="#1f77b4"/>
<circle cx="391.0" cy="554.7" r="3" fill="#1f77b4"/>
<circle cx="394.5" cy="554.9" r="3" fill="#1f77b4"/>
<circle cx="397.9" cy="554.9" r="3" fill="#1f77b4"/>
<circle cx="401.4" cy="554.8" r="3" fill="#1f77b4"/>
<circle cx="404.8" cy="555.0" r="3" fill="#1f77b4"/>
<circle cx="408.2" cy="554.7" r="3" fill="#1f77b4"/>
<circle cx="411.7" cy="554.2" r="3" fill="#1f77b4"/>
<circle cx="415.1" cy="554.4" r="3" fill="#1f77b4"/>
<circle cx="418.6" cy="554.1" r="3" fill="#1f77b4"/>
<circle cx="422.0" cy="555.3" r="3" fill="#1f77b4"/>
<circle cx="425.5" cy="554.7" r="3" fill="#1f77b4"/>
<circle cx="428.9" cy="554.6" r="3" fill="#1f77b4"/>
<circle cx="432.3" cy="553.9" r="3" fill="#1f77b4"/>
<circle cx="435.8" cy="554.5" r="3" fill="#1f77b4"/>
<circle cx="439.2" cy="554.8" r="3" fill="#1f77b4"/>
<circle cx="442.7" cy="554.5" r="3" fill="#1f77b4"/>
<circle cx="446.1" cy="555.5" r="3" fill="#1f77b4"/>
<circle cx="449.5" cy="554.5" r="3" fill="#1f77b4"/>
<circle cx="453.0" cy="554.9" r="3" fill="#1f77b4"/>
<circle cx="456.4" cy="553.9" r="3" fill="#1f77b4"/>
<circle cx="459.9" cy="555.0" r="3" fill="#1f77b4"/>
<circle cx="463.3" cy="554.9" r="3" fill="#1f77b4"/>
<circle cx="466.8" cy="555.8" r="3" fill="#1f77b4"/>
<circle cx="470.2" cy="554.4" r="3" fill="#1f77b4"/>
<circle cx="473.6" cy="555.1" r="3" fill="#1f77b4"/>
<circle cx="477.1" cy="554.7" r="3" fill="#1f77b4"/>
<circle cx="480.5" cy="554.6" r="3" fill="#1f77b4"/>
<circle cx="484.0" cy="554.7" r="3" fill="#1f77b4"/>
<circle cx="487.4" cy="555.0" r="3" fill="#1f77b4"/>
<circle cx="490.9" cy="553.0" r="3" fill="#1f77b4"/>
<circle cx="494.3" cy="553.6" r="3" fill="#1f77b4"/>
<circle cx="497.7" cy="554.5" r="3" fill="#1f77b4"/>
<circle cx="501.2" cy="553.7" r="3" fill="#1f77b4"/>
<circle cx="504.6" cy="552.6" r="3" fill="#1f77b4"/>
<circle cx="508.1" cy="554.2" r="3" fill="#1f77b4"/>
<circle cx="511.5" cy="553.7" r="3" fill="#1f77b4"/>
<circle cx="514.9" cy="553.6" r="3" fill="#1f77b4"/>
<circle cx="518.4" cy="550.7" r="3" fill="#1f77b4"/>
<circle cx="521.8" cy="550.6" r="3" fill="#1f77b4"/>
<circle cx="525.3" cy="553.3" r="3" fill="#1f77b4"/>
<circle cx="528.7" cy="553.2" r="3" fill="#1f77b4"/>
<circle cx="532.2" cy="550.6" r="3" fill="#1f77b4"/>
<circle cx="535.6" cy="552.8" r="3" fill="#1f77b4"/>
<circle cx="539.0" cy="553.8" r="3" fill="#1f77b4"/>
<circle cx="542.5" cy="550.8" r="3" fill="#1f77b4"/>
<circle cx="545.9" cy="551.9" r="3" fill="#1f77b4"/>
<circle cx="549.4" cy="551.4" r="3" fill="#1f77b4"/>
<circle cx="552.8" cy="552.8" r="3" fill="#1f77b4"/>
<circle cx="556.3" cy="552.7" r="3" fill="#1f77b4"/>
<circle cx="559.7" cy="552.6" r="3" fill="#1f77b4"/>
<circle cx="563.1" cy="549.8" r="3" fill="#1f77b4"/>
<circle cx="566.6" cy="550.6" r="3" fill="#1f77b4"/>
<circle cx="570.0" cy="550.1" r="3" fill="#1f77b4"/>
<circle cx="573.5" cy="549.4" r="3" fill="#1f77b4"/>
<circle cx="576.9" cy="547.6" r="3" fill="#1f77b4"/>
<circle cx="580.4" cy="545.1" r="3" fill="#1f77b4"/>
<circle cx="583.8" cy="535.4" r="3" fill="#1f77b4"/>
<circle cx="587.2" cy="500.4" r="3" fill="#1f77b4"/>
<circle cx="590.7" cy="513.8" r="3" fill="#1f77b4"/>
<circle cx="594.1" cy="452.4" r="3" fill="#1f77b4"/>
<circle cx="597.6" cy="495.2" r="3" fill="#1f77b4"/>
<circle cx="601.0" cy="488.0" r="3" fill="#1f77b4"/>
<circle cx="604.4" cy="488.0" r="3" fill="#1f77b4"/>
<circle cx="607.9" cy="518.9" r="3" fill="#1f77b4"/>
<circle cx="611.3" cy="493.0" r="3" fill="#1f77b4"/>
<circle cx="614.8" cy="506.8" r="3" fill="#1f77b4"/>
<circle cx="618.2" cy="517.1" r="3" fill="#1f77b4"/>
<circle cx="621.7" cy="501.6" r="3" fill="#1f77b4"/>
<circle cx="625.1" cy="428.0" r="3" fill="#1f77b4"/>
<circle cx="628.5" cy="411.7" r="3" fill="#1f77b4"/>
<circle cx="632.0" cy="517.8" r="3" fill="#1f77b4"/>
<circle cx="635.4" cy="536.8" r="3" fill="#1f77b4"/>
<circle cx="638.9" cy="531.9" r="3" fill="#1f77b4"/>
<circle cx="642.3" cy="548.6" r="3" fill="#1f77b4"/>
<circle cx="645.8" cy="547.7" r="3" fill="#1f77b4"/>
<circle cx="649.2" cy="550.3" r="3" fill="#1f77b4"/>
<circle cx="652.6" cy="545.9" r="3" fill="#1f77b4"/>
<circle cx="656.1" cy="549.3" r="3" fill="#1f77b4"/>
<circle cx="659.5" cy="550.2" r="3" fill="#1f77b4"/>
<circle cx="663.0" cy="549.5" r="3" fill="#1f77b4"/>
<circle cx="666.4" cy="546.2" r="3" fill="#1f77b4"/>
<circle cx="669.8" cy="541.1" r="3" fill="#1f77b4"/>
<circle cx="673.3" cy="546.8" r="3" fill="#1f77b4"/>
<circle cx="676.7" cy="545.0" r="3" fill="#1f77b4"/>
<circle cx="680.2" cy="542.1" r="3" fill="#1f77b4"/>
<circle cx="683.6" cy="549.4" r="3" fill="#1f77b4"/>
<circle cx="687.1" cy="545.3" r="3" fill="#1f77b4"/>
<circle cx="690.5" cy="543.0" r="3" fill="#1f77b4"/>
<circle cx="693.9" cy="541.2" r="3" fill="#1f77b4"/>
<circle cx="697.4" cy="540.4" r="3" fill="#1f77b4"/>
<circle cx="700.8" cy="535.4" r="3" fill="#1f77b4"/>
<circle cx="704.3" cy="537.8" r="3" fill="#1f77b4"/>
<circle cx="707.7" cy="533.8" r="3" fill="#1f77b4"/>
<circle cx="711.2" cy="517.6" r="3" fill="#1f77b4"/>
<circle cx="714.6" cy="536.1" r="3" fill="#1f77b4"/>
<circle cx="718.0" cy="526.2" r="3" fill="#1f77b4"/>
<circle cx="721.5" cy="520.3" r="3" fill="#1f77b4"/>
<circle cx="724.9" cy="531.0" r="3" fill="#1f77b4"/>
<circle cx="728.4" cy="532.3" r="3" fill="#1f77b4"/>
<circle cx="731.8" cy="538.2" r="3" fill="#1f77b4"/>
<circle cx="735.3" cy="546.5" r="3" fill="#1f77b4"/>
<circle cx="738.7" cy="547.1" r="3" fill="#1f77b4"/>
<circle cx="742.1" cy="540.5" r="3" fill="#1f77b4"/>
<circle cx="745.6" cy="547.0" r="3" fill="#1f77b4"/>
<circle cx="749.0" cy="544.5" r="3" fill="#1f77b4"/>
<circle cx="752.5" cy="547.3" r="3" fill="#1f77b4"/>
<circle cx="755.9" cy="536.0" r="3" fill="#1f77b4"/>
<circle cx="759.3" cy="552.1" r="3" fill="#1f77b4"/>
<circle cx="762.8" cy="544.3" r="3" fill="#1f77b4"/>
<circle cx="766.2" cy="547.6" r="3" fill="#1f77b4"/>
<circle cx="769.7" cy="545.6" r="3" fill="#1f77b4"/>
<circle cx="773.1" cy="534.3" r="3" fill="#1f77b4"/>
<circle cx="776.6" cy="537.7" r="3" fill="#1f77b4"/>
<circle cx="780.0" cy="543.2" r="3" fill="#1f77b4"/>
<line x1="808" y1="96" x2="830" y2="96" stroke="#1f77b4" stroke-width="2.5"/>
<text x="838" y="100" font-family="Arial" font-size="13">std=True</text>
<polyline fill="none" stroke="#d62728" stroke-width="2.3" points="95.0,556.6 98.4,536.2 101.9,551.1 105.3,550.9 108.8,552.8 112.2,554.6 115.7,554.2 119.1,555.4 122.5,554.4 126.0,555.0 129.4,555.2 132.9,552.9 136.3,555.1 139.7,555.5 143.2,556.3 146.6,556.4 150.1,556.2 153.5,555.6 157.0,556.3 160.4,556.4 163.8,556.1 167.3,556.4 170.7,556.5 174.2,556.0 177.6,556.4 181.1,556.5 184.5,556.1 187.9,556.2 191.4,556.3 194.8,556.7 198.3,556.5 201.7,556.4 205.2,556.6 208.6,556.3 212.0,556.1 215.5,556.3 218.9,556.1 222.4,556.5 225.8,556.0 229.2,556.8 232.7,556.6 236.1,556.5 239.6,556.8 243.0,556.8 246.5,556.5 249.9,556.9 253.3,556.5 256.8,556.9 260.2,556.2 263.7,556.6 267.1,555.9 270.6,556.1 274.0,554.9 277.4,551.6 280.9,552.7 284.3,552.6 287.8,549.5 291.2,548.5 294.6,545.0 298.1,540.7 301.5,536.0 305.0,524.8 308.4,529.1 311.9,442.4 315.3,537.0 318.7,541.9 322.2,525.9 325.6,547.7 329.1,548.1 332.5,514.9 336.0,535.0 339.4,528.9 342.8,508.1 346.3,520.5 349.7,495.2 353.2,452.4 356.6,460.9 360.1,493.9 363.5,448.7 366.9,459.1 370.4,366.6 373.8,483.1 377.3,434.3 380.7,435.2 384.1,502.5 387.6,471.8 391.0,495.7 394.5,517.4 397.9,502.0 401.4,512.2 404.8,497.0 408.2,487.6 411.7,507.9 415.1,437.9 418.6,468.2 422.0,470.4 425.5,440.6 428.9,422.6 432.3,456.9 435.8,321.4 439.2,316.0 442.7,464.1 446.1,329.5 449.5,358.4 453.0,182.4 456.4,418.0 459.9,173.3 463.3,449.6 466.8,368.4 470.2,176.9 473.6,431.6 477.1,476.7 480.5,365.7 484.0,463.2 487.4,502.5 490.9,417.1 494.3,423.5 497.7,394.6 501.2,401.8 504.6,479.4 508.1,288.9 511.5,372.9 514.9,409.9 518.4,334.1 521.8,458.2 525.3,469.1 528.7,491.2 532.2,251.0 535.6,335.0 539.0,471.3 542.5,419.8 545.9,455.1 549.4,355.7 552.8,366.6 556.3,421.6 559.7,358.4 563.1,312.4 566.6,400.0 570.0,368.4 573.5,240.1 576.9,270.9 580.4,425.3 583.8,427.1 587.2,294.3 590.7,316.0 594.1,444.7 597.6,344.9 601.0,437.9 604.4,368.4 607.9,418.0 611.3,359.3 614.8,325.0 618.2,434.3 621.7,401.8 625.1,251.0 628.5,74.0 632.0,349.4 635.4,178.7 638.9,240.1 642.3,424.4 645.8,317.8 649.2,413.5 652.6,415.3 656.1,316.0 659.5,450.1 663.0,327.7 666.4,462.7 669.8,355.7 673.3,390.0 676.7,395.5 680.2,434.3 683.6,368.4 687.1,510.4 690.5,363.0 693.9,488.9 697.4,432.5 700.8,476.7 704.3,466.3 707.7,486.7 711.2,403.6 714.6,421.6 718.0,368.4 721.5,469.1 724.9,390.0 728.4,448.3 731.8,443.8 735.3,481.2 738.7,446.0 742.1,326.8 745.6,398.2 749.0,372.0 752.5,343.1 755.9,327.7 759.3,258.2 762.8,290.7 766.2,426.2 769.7,375.6 773.1,376.5 776.6,319.6 780.0,95.7"/>
<circle cx="95.0" cy="556.6" r="3" fill="#d62728"/>
<circle cx="98.4" cy="536.2" r="3" fill="#d62728"/>
<circle cx="101.9" cy="551.1" r="3" fill="#d62728"/>
<circle cx="105.3" cy="550.9" r="3" fill="#d62728"/>
<circle cx="108.8" cy="552.8" r="3" fill="#d62728"/>
<circle cx="112.2" cy="554.6" r="3" fill="#d62728"/>
<circle cx="115.7" cy="554.2" r="3" fill="#d62728"/>
<circle cx="119.1" cy="555.4" r="3" fill="#d62728"/>
<circle cx="122.5" cy="554.4" r="3" fill="#d62728"/>
<circle cx="126.0" cy="555.0" r="3" fill="#d62728"/>
<circle cx="129.4" cy="555.2" r="3" fill="#d62728"/>
<circle cx="132.9" cy="552.9" r="3" fill="#d62728"/>
<circle cx="136.3" cy="555.1" r="3" fill="#d62728"/>
<circle cx="139.7" cy="555.5" r="3" fill="#d62728"/>
<circle cx="143.2" cy="556.3" r="3" fill="#d62728"/>
<circle cx="146.6" cy="556.4" r="3" fill="#d62728"/>
<circle cx="150.1" cy="556.2" r="3" fill="#d62728"/>
<circle cx="153.5" cy="555.6" r="3" fill="#d62728"/>
<circle cx="157.0" cy="556.3" r="3" fill="#d62728"/>
<circle cx="160.4" cy="556.4" r="3" fill="#d62728"/>
<circle cx="163.8" cy="556.1" r="3" fill="#d62728"/>
<circle cx="167.3" cy="556.4" r="3" fill="#d62728"/>
<circle cx="170.7" cy="556.5" r="3" fill="#d62728"/>
<circle cx="174.2" cy="556.0" r="3" fill="#d62728"/>
<circle cx="177.6" cy="556.4" r="3" fill="#d62728"/>
<circle cx="181.1" cy="556.5" r="3" fill="#d62728"/>
<circle cx="184.5" cy="556.1" r="3" fill="#d62728"/>
<circle cx="187.9" cy="556.2" r="3" fill="#d62728"/>
<circle cx="191.4" cy="556.3" r="3" fill="#d62728"/>
<circle cx="194.8" cy="556.7" r="3" fill="#d62728"/>
<circle cx="198.3" cy="556.5" r="3" fill="#d62728"/>
<circle cx="201.7" cy="556.4" r="3" fill="#d62728"/>
<circle cx="205.2" cy="556.6" r="3" fill="#d62728"/>
<circle cx="208.6" cy="556.3" r="3" fill="#d62728"/>
<circle cx="212.0" cy="556.1" r="3" fill="#d62728"/>
<circle cx="215.5" cy="556.3" r="3" fill="#d62728"/>
<circle cx="218.9" cy="556.1" r="3" fill="#d62728"/>
<circle cx="222.4" cy="556.5" r="3" fill="#d62728"/>
<circle cx="225.8" cy="556.0" r="3" fill="#d62728"/>
<circle cx="229.2" cy="556.8" r="3" fill="#d62728"/>
<circle cx="232.7" cy="556.6" r="3" fill="#d62728"/>
<circle cx="236.1" cy="556.5" r="3" fill="#d62728"/>
<circle cx="239.6" cy="556.8" r="3" fill="#d62728"/>
<circle cx="243.0" cy="556.8" r="3" fill="#d62728"/>
<circle cx="246.5" cy="556.5" r="3" fill="#d62728"/>
<circle cx="249.9" cy="556.9" r="3" fill="#d62728"/>
<circle cx="253.3" cy="556.5" r="3" fill="#d62728"/>
<circle cx="256.8" cy="556.9" r="3" fill="#d62728"/>
<circle cx="260.2" cy="556.2" r="3" fill="#d62728"/>
<circle cx="263.7" cy="556.6" r="3" fill="#d62728"/>
<circle cx="267.1" cy="555.9" r="3" fill="#d62728"/>
<circle cx="270.6" cy="556.1" r="3" fill="#d62728"/>
<circle cx="274.0" cy="554.9" r="3" fill="#d62728"/>
<circle cx="277.4" cy="551.6" r="3" fill="#d62728"/>
<circle cx="280.9" cy="552.7" r="3" fill="#d62728"/>
<circle cx="284.3" cy="552.6" r="3" fill="#d62728"/>
<circle cx="287.8" cy="549.5" r="3" fill="#d62728"/>
<circle cx="291.2" cy="548.5" r="3" fill="#d62728"/>
<circle cx="294.6" cy="545.0" r="3" fill="#d62728"/>
<circle cx="298.1" cy="540.7" r="3" fill="#d62728"/>
<circle cx="301.5" cy="536.0" r="3" fill="#d62728"/>
<circle cx="305.0" cy="524.8" r="3" fill="#d62728"/>
<circle cx="308.4" cy="529.1" r="3" fill="#d62728"/>
<circle cx="311.9" cy="442.4" r="3" fill="#d62728"/>
<circle cx="315.3" cy="537.0" r="3" fill="#d62728"/>
<circle cx="318.7" cy="541.9" r="3" fill="#d62728"/>
<circle cx="322.2" cy="525.9" r="3" fill="#d62728"/>
<circle cx="325.6" cy="547.7" r="3" fill="#d62728"/>
<circle cx="329.1" cy="548.1" r="3" fill="#d62728"/>
<circle cx="332.5" cy="514.9" r="3" fill="#d62728"/>
<circle cx="336.0" cy="535.0" r="3" fill="#d62728"/>
<circle cx="339.4" cy="528.9" r="3" fill="#d62728"/>
<circle cx="342.8" cy="508.1" r="3" fill="#d62728"/>
<circle cx="346.3" cy="520.5" r="3" fill="#d62728"/>
<circle cx="349.7" cy="495.2" r="3" fill="#d62728"/>
<circle cx="353.2" cy="452.4" r="3" fill="#d62728"/>
<circle cx="356.6" cy="460.9" r="3" fill="#d62728"/>
<circle cx="360.1" cy="493.9" r="3" fill="#d62728"/>
<circle cx="363.5" cy="448.7" r="3" fill="#d62728"/>
<circle cx="366.9" cy="459.1" r="3" fill="#d62728"/>
<circle cx="370.4" cy="366.6" r="3" fill="#d62728"/>
<circle cx="373.8" cy="483.1" r="3" fill="#d62728"/>
<circle cx="377.3" cy="434.3" r="3" fill="#d62728"/>
<circle cx="380.7" cy="435.2" r="3" fill="#d62728"/>
<circle cx="384.1" cy="502.5" r="3" fill="#d62728"/>
<circle cx="387.6" cy="471.8" r="3" fill="#d62728"/>
<circle cx="391.0" cy="495.7" r="3" fill="#d62728"/>
<circle cx="394.5" cy="517.4" r="3" fill="#d62728"/>
<circle cx="397.9" cy="502.0" r="3" fill="#d62728"/>
<circle cx="401.4" cy="512.2" r="3" fill="#d62728"/>
<circle cx="404.8" cy="497.0" r="3" fill="#d62728"/>
<circle cx="408.2" cy="487.6" r="3" fill="#d62728"/>
<circle cx="411.7" cy="507.9" r="3" fill="#d62728"/>
<circle cx="415.1" cy="437.9" r="3" fill="#d62728"/>
<circle cx="418.6" cy="468.2" r="3" fill="#d62728"/>
<circle cx="422.0" cy="470.4" r="3" fill="#d62728"/>
<circle cx="425.5" cy="440.6" r="3" fill="#d62728"/>
<circle cx="428.9" cy="422.6" r="3" fill="#d62728"/>
<circle cx="432.3" cy="456.9" r="3" fill="#d62728"/>
<circle cx="435.8" cy="321.4" r="3" fill="#d62728"/>
<circle cx="439.2" cy="316.0" r="3" fill="#d62728"/>
<circle cx="442.7" cy="464.1" r="3" fill="#d62728"/>
<circle cx="446.1" cy="329.5" r="3" fill="#d62728"/>
<circle cx="449.5" cy="358.4" r="3" fill="#d62728"/>
<circle cx="453.0" cy="182.4" r="3" fill="#d62728"/>
<circle cx="456.4" cy="418.0" r="3" fill="#d62728"/>
<circle cx="459.9" cy="173.3" r="3" fill="#d62728"/>
<circle cx="463.3" cy="449.6" r="3" fill="#d62728"/>
<circle cx="466.8" cy="368.4" r="3" fill="#d62728"/>
<circle cx="470.2" cy="176.9" r="3" fill="#d62728"/>
<circle cx="473.6" cy="431.6" r="3" fill="#d62728"/>
<circle cx="477.1" cy="476.7" r="3" fill="#d62728"/>
<circle cx="480.5" cy="365.7" r="3" fill="#d62728"/>
<circle cx="484.0" cy="463.2" r="3" fill="#d62728"/>
<circle cx="487.4" cy="502.5" r="3" fill="#d62728"/>
<circle cx="490.9" cy="417.1" r="3" fill="#d62728"/>
<circle cx="494.3" cy="423.5" r="3" fill="#d62728"/>
<circle cx="497.7" cy="394.6" r="3" fill="#d62728"/>
<circle cx="501.2" cy="401.8" r="3" fill="#d62728"/>
<circle cx="504.6" cy="479.4" r="3" fill="#d62728"/>
<circle cx="508.1" cy="288.9" r="3" fill="#d62728"/>
<circle cx="511.5" cy="372.9" r="3" fill="#d62728"/>
<circle cx="514.9" cy="409.9" r="3" fill="#d62728"/>
<circle cx="518.4" cy="334.1" r="3" fill="#d62728"/>
<circle cx="521.8" cy="458.2" r="3" fill="#d62728"/>
<circle cx="525.3" cy="469.1" r="3" fill="#d62728"/>
<circle cx="528.7" cy="491.2" r="3" fill="#d62728"/>
<circle cx="532.2" cy="251.0" r="3" fill="#d62728"/>
<circle cx="535.6" cy="335.0" r="3" fill="#d62728"/>
<circle cx="539.0" cy="471.3" r="3" fill="#d62728"/>
<circle cx="542.5" cy="419.8" r="3" fill="#d62728"/>
<circle cx="545.9" cy="455.1" r="3" fill="#d62728"/>
<circle cx="549.4" cy="355.7" r="3" fill="#d62728"/>
<circle cx="552.8" cy="366.6" r="3" fill="#d62728"/>
<circle cx="556.3" cy="421.6" r="3" fill="#d62728"/>
<circle cx="559.7" cy="358.4" r="3" fill="#d62728"/>
<circle cx="563.1" cy="312.4" r="3" fill="#d62728"/>
<circle cx="566.6" cy="400.0" r="3" fill="#d62728"/>
<circle cx="570.0" cy="368.4" r="3" fill="#d62728"/>
<circle cx="573.5" cy="240.1" r="3" fill="#d62728"/>
<circle cx="576.9" cy="270.9" r="3" fill="#d62728"/>
<circle cx="580.4" cy="425.3" r="3" fill="#d62728"/>
<circle cx="583.8" cy="427.1" r="3" fill="#d62728"/>
<circle cx="587.2" cy="294.3" r="3" fill="#d62728"/>
<circle cx="590.7" cy="316.0" r="3" fill="#d62728"/>
<circle cx="594.1" cy="444.7" r="3" fill="#d62728"/>
<circle cx="597.6" cy="344.9" r="3" fill="#d62728"/>
<circle cx="601.0" cy="437.9" r="3" fill="#d62728"/>
<circle cx="604.4" cy="368.4" r="3" fill="#d62728"/>
<circle cx="607.9" cy="418.0" r="3" fill="#d62728"/>
<circle cx="611.3" cy="359.3" r="3" fill="#d62728"/>
<circle cx="614.8" cy="325.0" r="3" fill="#d62728"/>
<circle cx="618.2" cy="434.3" r="3" fill="#d62728"/>
<circle cx="621.7" cy="401.8" r="3" fill="#d62728"/>
<circle cx="625.1" cy="251.0" r="3" fill="#d62728"/>
<circle cx="628.5" cy="74.0" r="3" fill="#d62728"/>
<circle cx="632.0" cy="349.4" r="3" fill="#d62728"/>
<circle cx="635.4" cy="178.7" r="3" fill="#d62728"/>
<circle cx="638.9" cy="240.1" r="3" fill="#d62728"/>
<circle cx="642.3" cy="424.4" r="3" fill="#d62728"/>
<circle cx="645.8" cy="317.8" r="3" fill="#d62728"/>
<circle cx="649.2" cy="413.5" r="3" fill="#d62728"/>
<circle cx="652.6" cy="415.3" r="3" fill="#d62728"/>
<circle cx="656.1" cy="316.0" r="3" fill="#d62728"/>
<circle cx="659.5" cy="450.1" r="3" fill="#d62728"/>
<circle cx="663.0" cy="327.7" r="3" fill="#d62728"/>
<circle cx="666.4" cy="462.7" r="3" fill="#d62728"/>
<circle cx="669.8" cy="355.7" r="3" fill="#d62728"/>
<circle cx="673.3" cy="390.0" r="3" fill="#d62728"/>
<circle cx="676.7" cy="395.5" r="3" fill="#d62728"/>
<circle cx="680.2" cy="434.3" r="3" fill="#d62728"/>
<circle cx="683.6" cy="368.4" r="3" fill="#d62728"/>
<circle cx="687.1" cy="510.4" r="3" fill="#d62728"/>
<circle cx="690.5" cy="363.0" r="3" fill="#d62728"/>
<circle cx="693.9" cy="488.9" r="3" fill="#d62728"/>
<circle cx="697.4" cy="432.5" r="3" fill="#d62728"/>
<circle cx="700.8" cy="476.7" r="3" fill="#d62728"/>
<circle cx="704.3" cy="466.3" r="3" fill="#d62728"/>
<circle cx="707.7" cy="486.7" r="3" fill="#d62728"/>
<circle cx="711.2" cy="403.6" r="3" fill="#d62728"/>
<circle cx="714.6" cy="421.6" r="3" fill="#d62728"/>
<circle cx="718.0" cy="368.4" r="3" fill="#d62728"/>
<circle cx="721.5" cy="469.1" r="3" fill="#d62728"/>
<circle cx="724.9" cy="390.0" r="3" fill="#d62728"/>
<circle cx="728.4" cy="448.3" r="3" fill="#d62728"/>
<circle cx="731.8" cy="443.8" r="3" fill="#d62728"/>
<circle cx="735.3" cy="481.2" r="3" fill="#d62728"/>
<circle cx="738.7" cy="446.0" r="3" fill="#d62728"/>
<circle cx="742.1" cy="326.8" r="3" fill="#d62728"/>
<circle cx="745.6" cy="398.2" r="3" fill="#d62728"/>
<circle cx="749.0" cy="372.0" r="3" fill="#d62728"/>
<circle cx="752.5" cy="343.1" r="3" fill="#d62728"/>
<circle cx="755.9" cy="327.7" r="3" fill="#d62728"/>
<circle cx="759.3" cy="258.2" r="3" fill="#d62728"/>
<circle cx="762.8" cy="290.7" r="3" fill="#d62728"/>
<circle cx="766.2" cy="426.2" r="3" fill="#d62728"/>
<circle cx="769.7" cy="375.6" r="3" fill="#d62728"/>
<circle cx="773.1" cy="376.5" r="3" fill="#d62728"/>
<circle cx="776.6" cy="319.6" r="3" fill="#d62728"/>
<circle cx="780.0" cy="95.7" r="3" fill="#d62728"/>
<line x1="808" y1="121" x2="830" y2="121" stroke="#d62728" stroke-width="2.5"/>
<text x="838" y="125" font-family="Arial" font-size="13">std=False</text>
<text x="437.5" y="618" text-anchor="middle" font-family="Arial" font-size="15">GRPO step</text>
<text x="24" y="316.0" text-anchor="middle" font-family="Arial" font-size="15" transform="rotate(-90 24 316.0)">pre-clip gradient norm</text>
</svg>
