<svg xmlns="http://www.w3.org/2000/svg" width="1040" height="640" viewBox="0 0 1040 640">
<rect width="100%" height="100%" fill="white"/>
<text x="520.0" y="36" text-anchor="middle" font-family="Arial" font-size="22" font-weight="700">GRPO token entropy by group std normalization</text>
<line x1="95" y1="558" x2="780" y2="558" stroke="#222" stroke-width="1.5"/>
<line x1="95" y1="74" x2="95" y2="558" stroke="#222" stroke-width="1.5"/>
<line x1="90" y1="558.0" x2="780" y2="558.0" stroke="#ddd" stroke-width="1"/>
<text x="83" y="562.0" text-anchor="end" font-family="Arial" font-size="12">0.00</text>
<line x1="90" y1="461.2" x2="780" y2="461.2" stroke="#ddd" stroke-width="1"/>
<text x="83" y="465.2" text-anchor="end" font-family="Arial" font-size="12">0.20</text>
<line x1="90" y1="364.4" x2="780" y2="364.4" stroke="#ddd" stroke-width="1"/>
<text x="83" y="368.4" text-anchor="end" font-family="Arial" font-size="12">0.40</text>
<line x1="90" y1="267.6" x2="780" y2="267.6" stroke="#ddd" stroke-width="1"/>
<text x="83" y="271.6" text-anchor="end" font-family="Arial" font-size="12">0.60</text>
<line x1="90" y1="170.8" x2="780" y2="170.8" stroke="#ddd" stroke-width="1"/>
<text x="83" y="174.8" text-anchor="end" font-family="Arial" font-size="12">0.80</text>
<line x1="90" y1="74.0" x2="780" y2="74.0" stroke="#ddd" stroke-width="1"/>
<text x="83" y="78.0" text-anchor="end" font-family="Arial" font-size="12">1.00</text>
<line x1="95.0" y1="558" x2="95.0" y2="563" stroke="#222" stroke-width="1"/>
<text x="95.0" y="582" text-anchor="middle" font-family="Arial" font-size="12">1</text>
<line x1="232.0" y1="558" x2="232.0" y2="563" stroke="#222" stroke-width="1"/>
<text x="232.0" y="582" text-anchor="middle" font-family="Arial" font-size="12">41</text>
<line x1="369.0" y1="558" x2="369.0" y2="563" stroke="#222" stroke-width="1"/>
<text x="369.0" y="582" text-anchor="middle" font-family="Arial" font-size="12">81</text>
<line x1="506.0" y1="558" x2="506.0" y2="563" stroke="#222" stroke-width="1"/>
<text x="506.0" y="582" text-anchor="middle" font-family="Arial" font-size="12">120</text>
<line x1="643.0" y1="558" x2="643.0" y2="563" stroke="#222" stroke-width="1"/>
<text x="643.0" y="582" text-anchor="middle" font-family="Arial" font-size="12">160</text>
<line x1="780.0" y1="558" x2="780.0" y2="563" stroke="#222" stroke-width="1"/>
<text x="780.0" y="582" text-anchor="middle" font-family="Arial" font-size="12">200</text>
<polyline fill="none" stroke="#1f77b4" stroke-width="2.3" points="95.0,110.9 98.4,366.4 101.9,441.0 105.3,430.6 108.8,436.5 112.2,413.4 115.7,409.6 119.1,411.8 122.5,426.0 126.0,418.0 129.4,456.4 132.9,471.0 136.3,491.0 139.7,479.9 143.2,478.6 146.6,491.7 150.1,491.6 153.5,477.8 157.0,490.7 160.4,496.1 163.8,489.1 167.3,489.9 170.7,496.2 174.2,499.8 177.6,497.5 181.1,490.6 184.5,502.8 187.9,498.3 191.4,501.9 194.8,504.6 198.3,499.9 201.7,498.6 205.2,497.3 208.6,487.3 212.0,489.8 215.5,487.3 218.9,492.2 222.4,484.1 225.8,503.3 229.2,486.2 232.7,502.9 236.1,501.4 239.6,515.4 243.0,509.2 246.5,514.5 249.9,516.7 253.3,523.9 256.8,529.9 260.2,533.8 263.7,531.0 267.1,535.1 270.6,536.0 274.0,537.2 277.4,537.8 280.9,539.7 284.3,535.7 287.8,541.2 291.2,535.9 294.6,542.7 298.1,538.6 301.5,542.5 305.0,540.5 308.4,540.8 311.9,542.4 315.3,540.4 318.7,541.2 322.2,539.8 325.6,538.6 329.1,542.8 332.5,540.6 336.0,531.8 339.4,538.1 342.8,540.5 346.3,540.8 349.7,546.5 353.2,545.3 356.6,543.0 360.1,541.7 363.5,544.8 366.9,541.7 370.4,541.8 373.8,543.2 377.3,543.2 380.7,542.4 384.1,546.9 387.6,547.5 391.0,548.3 394.5,542.9 397.9,542.8 401.4,548.0 404.8,544.3 408.2,542.9 411.7,547.1 415.1,545.2 418.6,546.2 422.0,545.6 425.5,544.7 428.9,546.4 432.3,545.6 435.8,543.5 439.2,543.3 442.7,541.5 446.1,542.4 449.5,542.7 453.0,541.4 456.4,541.9 459.9,542.9 463.3,540.8 466.8,541.5 470.2,543.0 473.6,542.4 477.1,544.9 480.5,545.5 484.0,546.0 487.4,543.5 490.9,544.6 494.3,544.8 497.7,545.3 501.2,545.3 504.6,540.9 508.1,544.1 511.5,544.9 514.9,545.4 518.4,547.4 521.8,545.2 525.3,545.6 528.7,543.0 532.2,544.0 535.6,544.6 539.0,544.3 542.5,542.4 545.9,544.2 549.4,544.3 552.8,543.2 556.3,545.5 559.7,546.6 563.1,542.7 566.6,546.0 570.0,543.8 573.5,538.0 576.9,543.2 580.4,540.2 583.8,542.8 587.2,538.4 590.7,536.6 594.1,540.7 597.6,535.1 601.0,543.3 604.4,536.7 607.9,539.0 611.3,545.0 614.8,540.1 618.2,543.7 621.7,543.7 625.1,544.0 628.5,542.0 632.0,544.6 635.4,546.0 638.9,544.7 642.3,542.3 645.8,545.1 649.2,541.5 652.6,543.9 656.1,539.9 659.5,537.8 663.0,541.4 666.4,546.2 669.8,543.0 673.3,544.6 676.7,542.8 680.2,541.3 683.6,542.6 687.1,544.0 690.5,544.0 693.9,541.8 697.4,539.0 700.8,537.6 704.3,539.8 707.7,539.4 711.2,540.5 714.6,540.5 718.0,541.0 721.5,545.2 724.9,543.1 728.4,543.5 731.8,544.6 735.3,545.6 738.7,544.3 742.1,546.0 745.6,543.8 749.0,546.6 752.5,548.8 755.9,544.0 759.3,546.2 762.8,545.5 766.2,544.6 769.7,545.4 773.1,545.4 776.6,546.7 780.0,546.7"/>
<circle cx="95.0" cy="110.9" r="3" fill="#1f77b4"/>
<circle cx="98.4" cy="366.4" r="3" fill="#1f77b4"/>
<circle cx="101.9" cy="441.0" r="3" fill="#1f77b4"/>
<circle cx="105.3" cy="430.6" r="3" fill="#1f77b4"/>
<circle cx="108.8" cy="436.5" r="3" fill="#1f77b4"/>
<circle cx="112.2" cy="413.4" r="3" fill="#1f77b4"/>
<circle cx="115.7" cy="409.6" r="3" fill="#1f77b4"/>
<circle cx="119.1" cy="411.8" r="3" fill="#1f77b4"/>
<circle cx="122.5" cy="426.0" r="3" fill="#1f77b4"/>
<circle cx="126.0" cy="418.0" r="3" fill="#1f77b4"/>
<circle cx="129.4" cy="456.4" r="3" fill="#1f77b4"/>
<circle cx="132.9" cy="471.0" r="3" fill="#1f77b4"/>
<circle cx="136.3" cy="491.0" r="3" fill="#1f77b4"/>
<circle cx="139.7" cy="479.9" r="3" fill="#1f77b4"/>
<circle cx="143.2" cy="478.6" r="3" fill="#1f77b4"/>
<circle cx="146.6" cy="491.7" r="3" fill="#1f77b4"/>
<circle cx="150.1" cy="491.6" r="3" fill="#1f77b4"/>
<circle cx="153.5" cy="477.8" r="3" fill="#1f77b4"/>
<circle cx="157.0" cy="490.7" r="3" fill="#1f77b4"/>
<circle cx="160.4" cy="496.1" r="3" fill="#1f77b4"/>
<circle cx="163.8" cy="489.1" r="3" fill="#1f77b4"/>
<circle cx="167.3" cy="489.9" r="3" fill="#1f77b4"/>
<circle cx="170.7" cy="496.2" r="3" fill="#1f77b4"/>
<circle cx="174.2" cy="499.8" r="3" fill="#1f77b4"/>
<circle cx="177.6" cy="497.5" r="3" fill="#1f77b4"/>
<circle cx="181.1" cy="490.6" r="3" fill="#1f77b4"/>
<circle cx="184.5" cy="502.8" r="3" fill="#1f77b4"/>
<circle cx="187.9" cy="498.3" r="3" fill="#1f77b4"/>
<circle cx="191.4" cy="501.9" r="3" fill="#1f77b4"/>
<circle cx="194.8" cy="504.6" r="3" fill="#1f77b4"/>
<circle cx="198.3" cy="499.9" r="3" fill="#1f77b4"/>
<circle cx="201.7" cy="498.6" r="3" fill="#1f77b4"/>
<circle cx="205.2" cy="497.3" r="3" fill="#1f77b4"/>
<circle cx="208.6" cy="487.3" r="3" fill="#1f77b4"/>
<circle cx="212.0" cy="489.8" r="3" fill="#1f77b4"/>
<circle cx="215.5" cy="487.3" r="3" fill="#1f77b4"/>
<circle cx="218.9" cy="492.2" r="3" fill="#1f77b4"/>
<circle cx="222.4" cy="484.1" r="3" fill="#1f77b4"/>
<circle cx="225.8" cy="503.3" r="3" fill="#1f77b4"/>
<circle cx="229.2" cy="486.2" r="3" fill="#1f77b4"/>
<circle cx="232.7" cy="502.9" r="3" fill="#1f77b4"/>
<circle cx="236.1" cy="501.4" r="3" fill="#1f77b4"/>
<circle cx="239.6" cy="515.4" r="3" fill="#1f77b4"/>
<circle cx="243.0" cy="509.2" r="3" fill="#1f77b4"/>
<circle cx="246.5" cy="514.5" r="3" fill="#1f77b4"/>
<circle cx="249.9" cy="516.7" r="3" fill="#1f77b4"/>
<circle cx="253.3" cy="523.9" r="3" fill="#1f77b4"/>
<circle cx="256.8" cy="529.9" r="3" fill="#1f77b4"/>
<circle cx="260.2" cy="533.8" r="3" fill="#1f77b4"/>
<circle cx="263.7" cy="531.0" r="3" fill="#1f77b4"/>
<circle cx="267.1" cy="535.1" r="3" fill="#1f77b4"/>
<circle cx="270.6" cy="536.0" r="3" fill="#1f77b4"/>
<circle cx="274.0" cy="537.2" r="3" fill="#1f77b4"/>
<circle cx="277.4" cy="537.8" r="3" fill="#1f77b4"/>
<circle cx="280.9" cy="539.7" r="3" fill="#1f77b4"/>
<circle cx="284.3" cy="535.7" r="3" fill="#1f77b4"/>
<circle cx="287.8" cy="541.2" r="3" fill="#1f77b4"/>
<circle cx="291.2" cy="535.9" r="3" fill="#1f77b4"/>
<circle cx="294.6" cy="542.7" r="3" fill="#1f77b4"/>
<circle cx="298.1" cy="538.6" r="3" fill="#1f77b4"/>
<circle cx="301.5" cy="542.5" r="3" fill="#1f77b4"/>
<circle cx="305.0" cy="540.5" r="3" fill="#1f77b4"/>
<circle cx="308.4" cy="540.8" r="3" fill="#1f77b4"/>
<circle cx="311.9" cy="542.4" r="3" fill="#1f77b4"/>
<circle cx="315.3" cy="540.4" r="3" fill="#1f77b4"/>
<circle cx="318.7" cy="541.2" r="3" fill="#1f77b4"/>
<circle cx="322.2" cy="539.8" r="3" fill="#1f77b4"/>
<circle cx="325.6" cy="538.6" r="3" fill="#1f77b4"/>
<circle cx="329.1" cy="542.8" r="3" fill="#1f77b4"/>
<circle cx="332.5" cy="540.6" r="3" fill="#1f77b4"/>
<circle cx="336.0" cy="531.8" r="3" fill="#1f77b4"/>
<circle cx="339.4" cy="538.1" r="3" fill="#1f77b4"/>
<circle cx="342.8" cy="540.5" r="3" fill="#1f77b4"/>
<circle cx="346.3" cy="540.8" r="3" fill="#1f77b4"/>
<circle cx="349.7" cy="546.5" r="3" fill="#1f77b4"/>
<circle cx="353.2" cy="545.3" r="3" fill="#1f77b4"/>
<circle cx="356.6" cy="543.0" r="3" fill="#1f77b4"/>
<circle cx="360.1" cy="541.7" r="3" fill="#1f77b4"/>
<circle cx="363.5" cy="544.8" r="3" fill="#1f77b4"/>
<circle cx="366.9" cy="541.7" r="3" fill="#1f77b4"/>
<circle cx="370.4" cy="541.8" r="3" fill="#1f77b4"/>
<circle cx="373.8" cy="543.2" r="3" fill="#1f77b4"/>
<circle cx="377.3" cy="543.2" r="3" fill="#1f77b4"/>
<circle cx="380.7" cy="542.4" r="3" fill="#1f77b4"/>
<circle cx="384.1" cy="546.9" r="3" fill="#1f77b4"/>
<circle cx="387.6" cy="547.5" r="3" fill="#1f77b4"/>
<circle cx="391.0" cy="548.3" r="3" fill="#1f77b4"/>
<circle cx="394.5" cy="542.9" r="3" fill="#1f77b4"/>
<circle cx="397.9" cy="542.8" r="3" fill="#1f77b4"/>
<circle cx="401.4" cy="548.0" r="3" fill="#1f77b4"/>
<circle cx="404.8" cy="544.3" r="3" fill="#1f77b4"/>
<circle cx="408.2" cy="542.9" r="3" fill="#1f77b4"/>
<circle cx="411.7" cy="547.1" r="3" fill="#1f77b4"/>
<circle cx="415.1" cy="545.2" r="3" fill="#1f77b4"/>
<circle cx="418.6" cy="546.2" r="3" fill="#1f77b4"/>
<circle cx="422.0" cy="545.6" r="3" fill="#1f77b4"/>
<circle cx="425.5" cy="544.7" r="3" fill="#1f77b4"/>
<circle cx="428.9" cy="546.4" r="3" fill="#1f77b4"/>
<circle cx="432.3" cy="545.6" r="3" fill="#1f77b4"/>
<circle cx="435.8" cy="543.5" r="3" fill="#1f77b4"/>
<circle cx="439.2" cy="543.3" r="3" fill="#1f77b4"/>
<circle cx="442.7" cy="541.5" r="3" fill="#1f77b4"/>
<circle cx="446.1" cy="542.4" r="3" fill="#1f77b4"/>
<circle cx="449.5" cy="542.7" r="3" fill="#1f77b4"/>
<circle cx="453.0" cy="541.4" r="3" fill="#1f77b4"/>
<circle cx="456.4" cy="541.9" r="3" fill="#1f77b4"/>
<circle cx="459.9" cy="542.9" r="3" fill="#1f77b4"/>
<circle cx="463.3" cy="540.8" r="3" fill="#1f77b4"/>
<circle cx="466.8" cy="541.5" r="3" fill="#1f77b4"/>
<circle cx="470.2" cy="543.0" r="3" fill="#1f77b4"/>
<circle cx="473.6" cy="542.4" r="3" fill="#1f77b4"/>
<circle cx="477.1" cy="544.9" r="3" fill="#1f77b4"/>
<circle cx="480.5" cy="545.5" r="3" fill="#1f77b4"/>
<circle cx="484.0" cy="546.0" r="3" fill="#1f77b4"/>
<circle cx="487.4" cy="543.5" r="3" fill="#1f77b4"/>
<circle cx="490.9" cy="544.6" r="3" fill="#1f77b4"/>
<circle cx="494.3" cy="544.8" r="3" fill="#1f77b4"/>
<circle cx="497.7" cy="545.3" r="3" fill="#1f77b4"/>
<circle cx="501.2" cy="545.3" r="3" fill="#1f77b4"/>
<circle cx="504.6" cy="540.9" r="3" fill="#1f77b4"/>
<circle cx="508.1" cy="544.1" r="3" fill="#1f77b4"/>
<circle cx="511.5" cy="544.9" r="3" fill="#1f77b4"/>
<circle cx="514.9" cy="545.4" r="3" fill="#1f77b4"/>
<circle cx="518.4" cy="547.4" r="3" fill="#1f77b4"/>
<circle cx="521.8" cy="545.2" r="3" fill="#1f77b4"/>
<circle cx="525.3" cy="545.6" r="3" fill="#1f77b4"/>
<circle cx="528.7" cy="543.0" r="3" fill="#1f77b4"/>
<circle cx="532.2" cy="544.0" r="3" fill="#1f77b4"/>
<circle cx="535.6" cy="544.6" r="3" fill="#1f77b4"/>
<circle cx="539.0" cy="544.3" r="3" fill="#1f77b4"/>
<circle cx="542.5" cy="542.4" r="3" fill="#1f77b4"/>
<circle cx="545.9" cy="544.2" r="3" fill="#1f77b4"/>
<circle cx="549.4" cy="544.3" r="3" fill="#1f77b4"/>
<circle cx="552.8" cy="543.2" r="3" fill="#1f77b4"/>
<circle cx="556.3" cy="545.5" r="3" fill="#1f77b4"/>
<circle cx="559.7" cy="546.6" r="3" fill="#1f77b4"/>
<circle cx="563.1" cy="542.7" r="3" fill="#1f77b4"/>
<circle cx="566.6" cy="546.0" r="3" fill="#1f77b4"/>
<circle cx="570.0" cy="543.8" r="3" fill="#1f77b4"/>
<circle cx="573.5" cy="538.0" r="3" fill="#1f77b4"/>
<circle cx="576.9" cy="543.2" r="3" fill="#1f77b4"/>
<circle cx="580.4" cy="540.2" r="3" fill="#1f77b4"/>
<circle cx="583.8" cy="542.8" r="3" fill="#1f77b4"/>
<circle cx="587.2" cy="538.4" r="3" fill="#1f77b4"/>
<circle cx="590.7" cy="536.6" r="3" fill="#1f77b4"/>
<circle cx="594.1" cy="540.7" r="3" fill="#1f77b4"/>
<circle cx="597.6" cy="535.1" r="3" fill="#1f77b4"/>
<circle cx="601.0" cy="543.3" r="3" fill="#1f77b4"/>
<circle cx="604.4" cy="536.7" r="3" fill="#1f77b4"/>
<circle cx="607.9" cy="539.0" r="3" fill="#1f77b4"/>
<circle cx="611.3" cy="545.0" r="3" fill="#1f77b4"/>
<circle cx="614.8" cy="540.1" r="3" fill="#1f77b4"/>
<circle cx="618.2" cy="543.7" r="3" fill="#1f77b4"/>
<circle cx="621.7" cy="543.7" r="3" fill="#1f77b4"/>
<circle cx="625.1" cy="544.0" r="3" fill="#1f77b4"/>
<circle cx="628.5" cy="542.0" r="3" fill="#1f77b4"/>
<circle cx="632.0" cy="544.6" r="3" fill="#1f77b4"/>
<circle cx="635.4" cy="546.0" r="3" fill="#1f77b4"/>
<circle cx="638.9" cy="544.7" r="3" fill="#1f77b4"/>
<circle cx="642.3" cy="542.3" r="3" fill="#1f77b4"/>
<circle cx="645.8" cy="545.1" r="3" fill="#1f77b4"/>
<circle cx="649.2" cy="541.5" r="3" fill="#1f77b4"/>
<circle cx="652.6" cy="543.9" r="3" fill="#1f77b4"/>
<circle cx="656.1" cy="539.9" r="3" fill="#1f77b4"/>
<circle cx="659.5" cy="537.8" r="3" fill="#1f77b4"/>
<circle cx="663.0" cy="541.4" r="3" fill="#1f77b4"/>
<circle cx="666.4" cy="546.2" r="3" fill="#1f77b4"/>
<circle cx="669.8" cy="543.0" r="3" fill="#1f77b4"/>
<circle cx="673.3" cy="544.6" r="3" fill="#1f77b4"/>
<circle cx="676.7" cy="542.8" r="3" fill="#1f77b4"/>
<circle cx="680.2" cy="541.3" r="3" fill="#1f77b4"/>
<circle cx="683.6" cy="542.6" r="3" fill="#1f77b4"/>
<circle cx="687.1" cy="544.0" r="3" fill="#1f77b4"/>
<circle cx="690.5" cy="544.0" r="3" fill="#1f77b4"/>
<circle cx="693.9" cy="541.8" r="3" fill="#1f77b4"/>
<circle cx="697.4" cy="539.0" r="3" fill="#1f77b4"/>
<circle cx="700.8" cy="537.6" r="3" fill="#1f77b4"/>
<circle cx="704.3" cy="539.8" r="3" fill="#1f77b4"/>
<circle cx="707.7" cy="539.4" r="3" fill="#1f77b4"/>
<circle cx="711.2" cy="540.5" r="3" fill="#1f77b4"/>
<circle cx="714.6" cy="540.5" r="3" fill="#1f77b4"/>
<circle cx="718.0" cy="541.0" r="3" fill="#1f77b4"/>
<circle cx="721.5" cy="545.2" r="3" fill="#1f77b4"/>
<circle cx="724.9" cy="543.1" r="3" fill="#1f77b4"/>
<circle cx="728.4" cy="543.5" r="3" fill="#1f77b4"/>
<circle cx="731.8" cy="544.6" r="3" fill="#1f77b4"/>
<circle cx="735.3" cy="545.6" r="3" fill="#1f77b4"/>
<circle cx="738.7" cy="544.3" r="3" fill="#1f77b4"/>
<circle cx="742.1" cy="546.0" r="3" fill="#1f77b4"/>
<circle cx="745.6" cy="543.8" r="3" fill="#1f77b4"/>
<circle cx="749.0" cy="546.6" r="3" fill="#1f77b4"/>
<circle cx="752.5" cy="548.8" r="3" fill="#1f77b4"/>
<circle cx="755.9" cy="544.0" r="3" fill="#1f77b4"/>
<circle cx="759.3" cy="546.2" r="3" fill="#1f77b4"/>
<circle cx="762.8" cy="545.5" r="3" fill="#1f77b4"/>
<circle cx="766.2" cy="544.6" r="3" fill="#1f77b4"/>
<circle cx="769.7" cy="545.4" r="3" fill="#1f77b4"/>
<circle cx="773.1" cy="545.4" r="3" fill="#1f77b4"/>
<circle cx="776.6" cy="546.7" r="3" fill="#1f77b4"/>
<circle cx="780.0" cy="546.7" r="3" fill="#1f77b4"/>
<line x1="808" y1="96" x2="830" y2="96" stroke="#1f77b4" stroke-width="2.5"/>
<text x="838" y="100" font-family="Arial" font-size="13">std=True</text>
<polyline fill="none" stroke="#d62728" stroke-width="2.3" points="95.0,110.9 98.4,372.5 101.9,433.7 105.3,389.3 108.8,379.0 112.2,319.8 115.7,312.3 119.1,300.7 122.5,353.9 126.0,344.8 129.4,359.5 132.9,385.2 136.3,388.1 139.7,381.4 143.2,392.8 146.6,411.9 150.1,396.6 153.5,405.8 157.0,422.6 160.4,413.4 163.8,426.3 167.3,430.7 170.7,441.8 174.2,450.2 177.6,452.3 181.1,441.3 184.5,450.9 187.9,458.5 191.4,449.8 194.8,468.6 198.3,469.0 201.7,459.5 205.2,459.7 208.6,468.5 212.0,461.9 215.5,460.4 218.9,465.0 222.4,466.0 225.8,478.9 229.2,472.1 232.7,473.3 236.1,474.6 239.6,490.1 243.0,473.5 246.5,477.1 249.9,475.8 253.3,483.5 256.8,496.6 260.2,493.9 263.7,490.0 267.1,501.6 270.6,495.2 274.0,506.2 277.4,495.8 280.9,507.0 284.3,499.7 287.8,509.1 291.2,498.9 294.6,510.7 298.1,504.2 301.5,515.5 305.0,515.0 308.4,516.6 311.9,511.0 315.3,516.8 318.7,518.7 322.2,517.2 325.6,509.9 329.1,524.0 332.5,524.7 336.0,511.7 339.4,524.8 342.8,525.7 346.3,522.5 349.7,531.6 353.2,528.8 356.6,528.9 360.1,527.9 363.5,532.3 366.9,528.9 370.4,528.0 373.8,527.1 377.3,529.1 380.7,525.2 384.1,531.8 387.6,531.5 391.0,535.5 394.5,530.3 397.9,533.5 401.4,537.4 404.8,531.4 408.2,531.8 411.7,537.1 415.1,532.6 418.6,531.5 422.0,532.3 425.5,525.5 428.9,532.1 432.3,530.0 435.8,528.6 439.2,526.1 442.7,520.4 446.1,529.3 449.5,528.5 453.0,527.0 456.4,527.9 459.9,524.3 463.3,519.6 466.8,522.7 470.2,522.1 473.6,524.1 477.1,525.2 480.5,524.5 484.0,524.5 487.4,523.7 490.9,522.0 494.3,522.3 497.7,522.9 501.2,526.8 504.6,515.1 508.1,523.0 511.5,525.3 514.9,525.8 518.4,531.1 521.8,520.6 525.3,524.2 528.7,518.0 532.2,523.9 535.6,525.1 539.0,520.1 542.5,514.5 545.9,523.9 549.4,520.3 552.8,519.0 556.3,525.0 559.7,526.4 563.1,514.7 566.6,530.1 570.0,526.1 573.5,515.7 576.9,528.2 580.4,526.2 583.8,528.1 587.2,527.0 590.7,522.6 594.1,529.0 597.6,526.2 601.0,530.9 604.4,524.5 607.9,525.2 611.3,532.0 614.8,525.9 618.2,529.0 621.7,528.4 625.1,523.2 628.5,521.7 632.0,519.4 635.4,520.6 638.9,519.5 642.3,515.6 645.8,518.1 649.2,517.0 652.6,522.4 656.1,505.0 659.5,501.4 663.0,509.0 666.4,522.4 669.8,516.8 673.3,523.7 676.7,521.2 680.2,522.2 683.6,522.6 687.1,524.9 690.5,532.1 693.9,531.2 697.4,527.6 700.8,528.8 704.3,533.0 707.7,533.7 711.2,537.7 714.6,535.4 718.0,539.6 721.5,542.9 724.9,538.2 728.4,541.1 731.8,541.7 735.3,542.4 738.7,540.3 742.1,541.3 745.6,541.3 749.0,543.7 752.5,546.2 755.9,540.8 759.3,540.8 762.8,541.8 766.2,539.8 769.7,542.0 773.1,541.8 776.6,542.5 780.0,543.2"/>
<circle cx="95.0" cy="110.9" r="3" fill="#d62728"/>
<circle cx="98.4" cy="372.5" r="3" fill="#d62728"/>
<circle cx="101.9" cy="433.7" r="3" fill="#d62728"/>
<circle cx="105.3" cy="389.3" r="3" fill="#d62728"/>
<circle cx="108.8" cy="379.0" r="3" fill="#d62728"/>
<circle cx="112.2" cy="319.8" r="3" fill="#d62728"/>
<circle cx="115.7" cy="312.3" r="3" fill="#d62728"/>
<circle cx="119.1" cy="300.7" r="3" fill="#d62728"/>
<circle cx="122.5" cy="353.9" r="3" fill="#d62728"/>
<circle cx="126.0" cy="344.8" r="3" fill="#d62728"/>
<circle cx="129.4" cy="359.5" r="3" fill="#d62728"/>
<circle cx="132.9" cy="385.2" r="3" fill="#d62728"/>
<circle cx="136.3" cy="388.1" r="3" fill="#d62728"/>
<circle cx="139.7" cy="381.4" r="3" fill="#d62728"/>
<circle cx="143.2" cy="392.8" r="3" fill="#d62728"/>
<circle cx="146.6" cy="411.9" r="3" fill="#d62728"/>
<circle cx="150.1" cy="396.6" r="3" fill="#d62728"/>
<circle cx="153.5" cy="405.8" r="3" fill="#d62728"/>
<circle cx="157.0" cy="422.6" r="3" fill="#d62728"/>
<circle cx="160.4" cy="413.4" r="3" fill="#d62728"/>
<circle cx="163.8" cy="426.3" r="3" fill="#d62728"/>
<circle cx="167.3" cy="430.7" r="3" fill="#d62728"/>
<circle cx="170.7" cy="441.8" r="3" fill="#d62728"/>
<circle cx="174.2" cy="450.2" r="3" fill="#d62728"/>
<circle cx="177.6" cy="452.3" r="3" fill="#d62728"/>
<circle cx="181.1" cy="441.3" r="3" fill="#d62728"/>
<circle cx="184.5" cy="450.9" r="3" fill="#d62728"/>
<circle cx="187.9" cy="458.5" r="3" fill="#d62728"/>
<circle cx="191.4" cy="449.8" r="3" fill="#d62728"/>
<circle cx="194.8" cy="468.6" r="3" fill="#d62728"/>
<circle cx="198.3" cy="469.0" r="3" fill="#d62728"/>
<circle cx="201.7" cy="459.5" r="3" fill="#d62728"/>
<circle cx="205.2" cy="459.7" r="3" fill="#d62728"/>
<circle cx="208.6" cy="468.5" r="3" fill="#d62728"/>
<circle cx="212.0" cy="461.9" r="3" fill="#d62728"/>
<circle cx="215.5" cy="460.4" r="3" fill="#d62728"/>
<circle cx="218.9" cy="465.0" r="3" fill="#d62728"/>
<circle cx="222.4" cy="466.0" r="3" fill="#d62728"/>
<circle cx="225.8" cy="478.9" r="3" fill="#d62728"/>
<circle cx="229.2" cy="472.1" r="3" fill="#d62728"/>
<circle cx="232.7" cy="473.3" r="3" fill="#d62728"/>
<circle cx="236.1" cy="474.6" r="3" fill="#d62728"/>
<circle cx="239.6" cy="490.1" r="3" fill="#d62728"/>
<circle cx="243.0" cy="473.5" r="3" fill="#d62728"/>
<circle cx="246.5" cy="477.1" r="3" fill="#d62728"/>
<circle cx="249.9" cy="475.8" r="3" fill="#d62728"/>
<circle cx="253.3" cy="483.5" r="3" fill="#d62728"/>
<circle cx="256.8" cy="496.6" r="3" fill="#d62728"/>
<circle cx="260.2" cy="493.9" r="3" fill="#d62728"/>
<circle cx="263.7" cy="490.0" r="3" fill="#d62728"/>
<circle cx="267.1" cy="501.6" r="3" fill="#d62728"/>
<circle cx="270.6" cy="495.2" r="3" fill="#d62728"/>
<circle cx="274.0" cy="506.2" r="3" fill="#d62728"/>
<circle cx="277.4" cy="495.8" r="3" fill="#d62728"/>
<circle cx="280.9" cy="507.0" r="3" fill="#d62728"/>
<circle cx="284.3" cy="499.7" r="3" fill="#d62728"/>
<circle cx="287.8" cy="509.1" r="3" fill="#d62728"/>
<circle cx="291.2" cy="498.9" r="3" fill="#d62728"/>
<circle cx="294.6" cy="510.7" r="3" fill="#d62728"/>
<circle cx="298.1" cy="504.2" r="3" fill="#d62728"/>
<circle cx="301.5" cy="515.5" r="3" fill="#d62728"/>
<circle cx="305.0" cy="515.0" r="3" fill="#d62728"/>
<circle cx="308.4" cy="516.6" r="3" fill="#d62728"/>
<circle cx="311.9" cy="511.0" r="3" fill="#d62728"/>
<circle cx="315.3" cy="516.8" r="3" fill="#d62728"/>
<circle cx="318.7" cy="518.7" r="3" fill="#d62728"/>
<circle cx="322.2" cy="517.2" r="3" fill="#d62728"/>
<circle cx="325.6" cy="509.9" r="3" fill="#d62728"/>
<circle cx="329.1" cy="524.0" r="3" fill="#d62728"/>
<circle cx="332.5" cy="524.7" r="3" fill="#d62728"/>
<circle cx="336.0" cy="511.7" r="3" fill="#d62728"/>
<circle cx="339.4" cy="524.8" r="3" fill="#d62728"/>
<circle cx="342.8" cy="525.7" r="3" fill="#d62728"/>
<circle cx="346.3" cy="522.5" r="3" fill="#d62728"/>
<circle cx="349.7" cy="531.6" r="3" fill="#d62728"/>
<circle cx="353.2" cy="528.8" r="3" fill="#d62728"/>
<circle cx="356.6" cy="528.9" r="3" fill="#d62728"/>
<circle cx="360.1" cy="527.9" r="3" fill="#d62728"/>
<circle cx="363.5" cy="532.3" r="3" fill="#d62728"/>
<circle cx="366.9" cy="528.9" r="3" fill="#d62728"/>
<circle cx="370.4" cy="528.0" r="3" fill="#d62728"/>
<circle cx="373.8" cy="527.1" r="3" fill="#d62728"/>
<circle cx="377.3" cy="529.1" r="3" fill="#d62728"/>
<circle cx="380.7" cy="525.2" r="3" fill="#d62728"/>
<circle cx="384.1" cy="531.8" r="3" fill="#d62728"/>
<circle cx="387.6" cy="531.5" r="3" fill="#d62728"/>
<circle cx="391.0" cy="535.5" r="3" fill="#d62728"/>
<circle cx="394.5" cy="530.3" r="3" fill="#d62728"/>
<circle cx="397.9" cy="533.5" r="3" fill="#d62728"/>
<circle cx="401.4" cy="537.4" r="3" fill="#d62728"/>
<circle cx="404.8" cy="531.4" r="3" fill="#d62728"/>
<circle cx="408.2" cy="531.8" r="3" fill="#d62728"/>
<circle cx="411.7" cy="537.1" r="3" fill="#d62728"/>
<circle cx="415.1" cy="532.6" r="3" fill="#d62728"/>
<circle cx="418.6" cy="531.5" r="3" fill="#d62728"/>
<circle cx="422.0" cy="532.3" r="3" fill="#d62728"/>
<circle cx="425.5" cy="525.5" r="3" fill="#d62728"/>
<circle cx="428.9" cy="532.1" r="3" fill="#d62728"/>
<circle cx="432.3" cy="530.0" r="3" fill="#d62728"/>
<circle cx="435.8" cy="528.6" r="3" fill="#d62728"/>
<circle cx="439.2" cy="526.1" r="3" fill="#d62728"/>
<circle cx="442.7" cy="520.4" r="3" fill="#d62728"/>
<circle cx="446.1" cy="529.3" r="3" fill="#d62728"/>
<circle cx="449.5" cy="528.5" r="3" fill="#d62728"/>
<circle cx="453.0" cy="527.0" r="3" fill="#d62728"/>
<circle cx="456.4" cy="527.9" r="3" fill="#d62728"/>
<circle cx="459.9" cy="524.3" r="3" fill="#d62728"/>
<circle cx="463.3" cy="519.6" r="3" fill="#d62728"/>
<circle cx="466.8" cy="522.7" r="3" fill="#d62728"/>
<circle cx="470.2" cy="522.1" r="3" fill="#d62728"/>
<circle cx="473.6" cy="524.1" r="3" fill="#d62728"/>
<circle cx="477.1" cy="525.2" r="3" fill="#d62728"/>
<circle cx="480.5" cy="524.5" r="3" fill="#d62728"/>
<circle cx="484.0" cy="524.5" r="3" fill="#d62728"/>
<circle cx="487.4" cy="523.7" r="3" fill="#d62728"/>
<circle cx="490.9" cy="522.0" r="3" fill="#d62728"/>
<circle cx="494.3" cy="522.3" r="3" fill="#d62728"/>
<circle cx="497.7" cy="522.9" r="3" fill="#d62728"/>
<circle cx="501.2" cy="526.8" r="3" fill="#d62728"/>
<circle cx="504.6" cy="515.1" r="3" fill="#d62728"/>
<circle cx="508.1" cy="523.0" r="3" fill="#d62728"/>
<circle cx="511.5" cy="525.3" r="3" fill="#d62728"/>
<circle cx="514.9" cy="525.8" r="3" fill="#d62728"/>
<circle cx="518.4" cy="531.1" r="3" fill="#d62728"/>
<circle cx="521.8" cy="520.6" r="3" fill="#d62728"/>
<circle cx="525.3" cy="524.2" r="3" fill="#d62728"/>
<circle cx="528.7" cy="518.0" r="3" fill="#d62728"/>
<circle cx="532.2" cy="523.9" r="3" fill="#d62728"/>
<circle cx="535.6" cy="525.1" r="3" fill="#d62728"/>
<circle cx="539.0" cy="520.1" r="3" fill="#d62728"/>
<circle cx="542.5" cy="514.5" r="3" fill="#d62728"/>
<circle cx="545.9" cy="523.9" r="3" fill="#d62728"/>
<circle cx="549.4" cy="520.3" r="3" fill="#d62728"/>
<circle cx="552.8" cy="519.0" r="3" fill="#d62728"/>
<circle cx="556.3" cy="525.0" r="3" fill="#d62728"/>
<circle cx="559.7" cy="526.4" r="3" fill="#d62728"/>
<circle cx="563.1" cy="514.7" r="3" fill="#d62728"/>
<circle cx="566.6" cy="530.1" r="3" fill="#d62728"/>
<circle cx="570.0" cy="526.1" r="3" fill="#d62728"/>
<circle cx="573.5" cy="515.7" r="3" fill="#d62728"/>
<circle cx="576.9" cy="528.2" r="3" fill="#d62728"/>
<circle cx="580.4" cy="526.2" r="3" fill="#d62728"/>
<circle cx="583.8" cy="528.1" r="3" fill="#d62728"/>
<circle cx="587.2" cy="527.0" r="3" fill="#d62728"/>
<circle cx="590.7" cy="522.6" r="3" fill="#d62728"/>
<circle cx="594.1" cy="529.0" r="3" fill="#d62728"/>
<circle cx="597.6" cy="526.2" r="3" fill="#d62728"/>
<circle cx="601.0" cy="530.9" r="3" fill="#d62728"/>
<circle cx="604.4" cy="524.5" r="3" fill="#d62728"/>
<circle cx="607.9" cy="525.2" r="3" fill="#d62728"/>
<circle cx="611.3" cy="532.0" r="3" fill="#d62728"/>
<circle cx="614.8" cy="525.9" r="3" fill="#d62728"/>
<circle cx="618.2" cy="529.0" r="3" fill="#d62728"/>
<circle cx="621.7" cy="528.4" r="3" fill="#d62728"/>
<circle cx="625.1" cy="523.2" r="3" fill="#d62728"/>
<circle cx="628.5" cy="521.7" r="3" fill="#d62728"/>
<circle cx="632.0" cy="519.4" r="3" fill="#d62728"/>
<circle cx="635.4" cy="520.6" r="3" fill="#d62728"/>
<circle cx="638.9" cy="519.5" r="3" fill="#d62728"/>
<circle cx="642.3" cy="515.6" r="3" fill="#d62728"/>
<circle cx="645.8" cy="518.1" r="3" fill="#d62728"/>
<circle cx="649.2" cy="517.0" r="3" fill="#d62728"/>
<circle cx="652.6" cy="522.4" r="3" fill="#d62728"/>
<circle cx="656.1" cy="505.0" r="3" fill="#d62728"/>
<circle cx="659.5" cy="501.4" r="3" fill="#d62728"/>
<circle cx="663.0" cy="509.0" r="3" fill="#d62728"/>
<circle cx="666.4" cy="522.4" r="3" fill="#d62728"/>
<circle cx="669.8" cy="516.8" r="3" fill="#d62728"/>
<circle cx="673.3" cy="523.7" r="3" fill="#d62728"/>
<circle cx="676.7" cy="521.2" r="3" fill="#d62728"/>
<circle cx="680.2" cy="522.2" r="3" fill="#d62728"/>
<circle cx="683.6" cy="522.6" r="3" fill="#d62728"/>
<circle cx="687.1" cy="524.9" r="3" fill="#d62728"/>
<circle cx="690.5" cy="532.1" r="3" fill="#d62728"/>
<circle cx="693.9" cy="531.2" r="3" fill="#d62728"/>
<circle cx="697.4" cy="527.6" r="3" fill="#d62728"/>
<circle cx="700.8" cy="528.8" r="3" fill="#d62728"/>
<circle cx="704.3" cy="533.0" r="3" fill="#d62728"/>
<circle cx="707.7" cy="533.7" r="3" fill="#d62728"/>
<circle cx="711.2" cy="537.7" r="3" fill="#d62728"/>
<circle cx="714.6" cy="535.4" r="3" fill="#d62728"/>
<circle cx="718.0" cy="539.6" r="3" fill="#d62728"/>
<circle cx="721.5" cy="542.9" r="3" fill="#d62728"/>
<circle cx="724.9" cy="538.2" r="3" fill="#d62728"/>
<circle cx="728.4" cy="541.1" r="3" fill="#d62728"/>
<circle cx="731.8" cy="541.7" r="3" fill="#d62728"/>
<circle cx="735.3" cy="542.4" r="3" fill="#d62728"/>
<circle cx="738.7" cy="540.3" r="3" fill="#d62728"/>
<circle cx="742.1" cy="541.3" r="3" fill="#d62728"/>
<circle cx="745.6" cy="541.3" r="3" fill="#d62728"/>
<circle cx="749.0" cy="543.7" r="3" fill="#d62728"/>
<circle cx="752.5" cy="546.2" r="3" fill="#d62728"/>
<circle cx="755.9" cy="540.8" r="3" fill="#d62728"/>
<circle cx="759.3" cy="540.8" r="3" fill="#d62728"/>
<circle cx="762.8" cy="541.8" r="3" fill="#d62728"/>
<circle cx="766.2" cy="539.8" r="3" fill="#d62728"/>
<circle cx="769.7" cy="542.0" r="3" fill="#d62728"/>
<circle cx="773.1" cy="541.8" r="3" fill="#d62728"/>
<circle cx="776.6" cy="542.5" r="3" fill="#d62728"/>
<circle cx="780.0" cy="543.2" r="3" fill="#d62728"/>
<line x1="808" y1="121" x2="830" y2="121" stroke="#d62728" stroke-width="2.5"/>
<text x="838" y="125" font-family="Arial" font-size="13">std=False</text>
<text x="437.5" y="618" text-anchor="middle" font-family="Arial" font-size="15">GRPO step</text>
<text x="24" y="316.0" text-anchor="middle" font-family="Arial" font-size="15" transform="rotate(-90 24 316.0)">token entropy (nats)</text>
</svg>
