<svg xmlns="http://www.w3.org/2000/svg" width="1100" height="660" viewBox="0 0 1100 660">
<rect width="100%" height="100%" fill="white"/>
<text x="550.0" y="36" text-anchor="middle" font-family="Arial" font-size="22" font-weight="700">SFT + KL GRPO rollout response length</text>
<line x1="95" y1="578" x2="800" y2="578" stroke="#222" stroke-width="1.5"/>
<line x1="95" y1="74" x2="95" y2="578" stroke="#222" stroke-width="1.5"/>
<line x1="90" y1="578.0" x2="800" y2="578.0" stroke="#ddd" stroke-width="1"/>
<text x="83" y="582.0" text-anchor="end" font-family="Arial" font-size="12">0.00</text>
<line x1="90" y1="477.2" x2="800" y2="477.2" stroke="#ddd" stroke-width="1"/>
<text x="83" y="481.2" text-anchor="end" font-family="Arial" font-size="12">118.68</text>
<line x1="90" y1="376.4" x2="800" y2="376.4" stroke="#ddd" stroke-width="1"/>
<text x="83" y="380.4" text-anchor="end" font-family="Arial" font-size="12">237.36</text>
<line x1="90" y1="275.6" x2="800" y2="275.6" stroke="#ddd" stroke-width="1"/>
<text x="83" y="279.6" text-anchor="end" font-family="Arial" font-size="12">356.04</text>
<line x1="90" y1="174.8" x2="800" y2="174.8" stroke="#ddd" stroke-width="1"/>
<text x="83" y="178.8" text-anchor="end" font-family="Arial" font-size="12">474.72</text>
<line x1="90" y1="74.0" x2="800" y2="74.0" stroke="#ddd" stroke-width="1"/>
<text x="83" y="78.0" text-anchor="end" font-family="Arial" font-size="12">593.40</text>
<line x1="95.0" y1="578" x2="95.0" y2="583" stroke="#222" stroke-width="1"/>
<text x="95.0" y="602" text-anchor="middle" font-family="Arial" font-size="12">1</text>
<line x1="236.0" y1="578" x2="236.0" y2="583" stroke="#222" stroke-width="1"/>
<text x="236.0" y="602" text-anchor="middle" font-family="Arial" font-size="12">41</text>
<line x1="377.0" y1="578" x2="377.0" y2="583" stroke="#222" stroke-width="1"/>
<text x="377.0" y="602" text-anchor="middle" font-family="Arial" font-size="12">81</text>
<line x1="518.0" y1="578" x2="518.0" y2="583" stroke="#222" stroke-width="1"/>
<text x="518.0" y="602" text-anchor="middle" font-family="Arial" font-size="12">120</text>
<line x1="659.0" y1="578" x2="659.0" y2="583" stroke="#222" stroke-width="1"/>
<text x="659.0" y="602" text-anchor="middle" font-family="Arial" font-size="12">160</text>
<line x1="800.0" y1="578" x2="800.0" y2="583" stroke="#222" stroke-width="1"/>
<text x="800.0" y="602" text-anchor="middle" font-family="Arial" font-size="12">200</text>
<polyline fill="none" stroke="#1f77b4" stroke-width="2.3" points="95.0,345.0 98.5,417.1 102.1,452.1 105.6,393.8 109.2,407.1 112.7,380.2 116.3,421.5 119.8,429.1 123.3,434.6 126.9,422.3 130.4,387.4 134.0,423.8 137.5,402.7 141.1,408.4 144.6,366.1 148.1,409.7 151.7,380.7 155.2,368.7 158.8,411.6 162.3,396.1 165.9,390.5 169.4,371.7 172.9,402.1 176.5,410.7 180.0,431.1 183.6,375.3 187.1,407.4 190.7,392.1 194.2,368.4 197.7,355.8 201.3,387.0 204.8,409.9 208.4,414.5 211.9,365.3 215.5,339.0 219.0,361.4 222.5,381.1 226.1,364.6 229.6,394.3 233.2,350.7 236.7,377.6 240.3,356.0 243.8,366.4 247.3,376.9 250.9,335.9 254.4,367.6 258.0,420.9 261.5,330.5 265.1,352.6 268.6,384.2 272.1,349.0 275.7,350.8 279.2,324.3 282.8,358.9 286.3,358.6 289.8,334.2 293.4,406.4 296.9,372.1 300.5,386.6 304.0,345.9 307.6,386.9 311.1,367.9 314.6,409.6 318.2,367.6 321.7,375.8 325.3,361.4 328.8,351.3 332.4,386.3 335.9,391.8 339.4,371.6 343.0,308.4 346.5,387.2 350.1,364.5 353.6,369.0 357.2,386.1 360.7,348.6 364.2,318.4 367.8,369.7 371.3,328.7 374.9,391.4 378.4,376.0 382.0,380.2 385.5,361.3 389.0,326.0 392.6,348.5 396.1,388.1 399.7,408.8 403.2,358.9 406.8,387.8 410.3,395.3 413.8,346.7 417.4,336.4 420.9,384.8 424.5,336.4 428.0,368.6 431.6,351.5 435.1,316.2 438.6,340.7 442.2,306.7 445.7,348.2 449.3,256.5 452.8,385.5 456.4,379.3 459.9,321.3 463.4,347.3 467.0,356.6 470.5,337.8 474.1,284.7 477.6,326.6 481.2,340.8 484.7,253.4 488.2,289.5 491.8,365.9 495.3,313.4 498.9,335.6 502.4,311.4 506.0,360.4 509.5,341.8 513.0,340.6 516.6,353.7 520.1,319.2 523.7,255.9 527.2,301.7 530.8,385.5 534.3,373.0 537.8,365.8 541.4,340.7 544.9,315.2 548.5,359.5 552.0,328.2 555.6,354.8 559.1,337.2 562.6,371.2 566.2,357.9 569.7,399.2 573.3,354.1 576.8,371.9 580.4,391.4 583.9,374.8 587.4,306.0 591.0,350.1 594.5,388.6 598.1,400.9 601.6,332.7 605.2,364.0 608.7,367.2 612.2,375.4 615.8,372.7 619.3,351.9 622.9,373.3 626.4,356.0 629.9,379.2 633.5,385.2 637.0,349.4 640.6,402.3 644.1,403.1 647.7,301.3 651.2,367.7 654.7,301.1 658.3,260.6 661.8,322.2 665.4,374.4 668.9,355.4 672.5,338.0 676.0,376.0 679.5,367.8 683.1,339.7 686.6,350.8 690.2,330.0 693.7,331.6 697.3,342.5 700.8,345.5 704.3,311.7 707.9,328.2 711.4,326.5 715.0,316.2 718.5,258.9 722.1,337.7 725.6,353.5 729.1,316.2 732.7,278.1 736.2,338.5 739.8,361.7 743.3,326.6 746.9,355.4 750.4,314.8 753.9,341.6 757.5,316.9 761.0,303.9 764.6,283.4"/>
<circle cx="95.0" cy="345.0" r="3" fill="#1f77b4"/>
<circle cx="98.5" cy="417.1" r="3" fill="#1f77b4"/>
<circle cx="102.1" cy="452.1" r="3" fill="#1f77b4"/>
<circle cx="105.6" cy="393.8" r="3" fill="#1f77b4"/>
<circle cx="109.2" cy="407.1" r="3" fill="#1f77b4"/>
<circle cx="112.7" cy="380.2" r="3" fill="#1f77b4"/>
<circle cx="116.3" cy="421.5" r="3" fill="#1f77b4"/>
<circle cx="119.8" cy="429.1" r="3" fill="#1f77b4"/>
<circle cx="123.3" cy="434.6" r="3" fill="#1f77b4"/>
<circle cx="126.9" cy="422.3" r="3" fill="#1f77b4"/>
<circle cx="130.4" cy="387.4" r="3" fill="#1f77b4"/>
<circle cx="134.0" cy="423.8" r="3" fill="#1f77b4"/>
<circle cx="137.5" cy="402.7" r="3" fill="#1f77b4"/>
<circle cx="141.1" cy="408.4" r="3" fill="#1f77b4"/>
<circle cx="144.6" cy="366.1" r="3" fill="#1f77b4"/>
<circle cx="148.1" cy="409.7" r="3" fill="#1f77b4"/>
<circle cx="151.7" cy="380.7" r="3" fill="#1f77b4"/>
<circle cx="155.2" cy="368.7" r="3" fill="#1f77b4"/>
<circle cx="158.8" cy="411.6" r="3" fill="#1f77b4"/>
<circle cx="162.3" cy="396.1" r="3" fill="#1f77b4"/>
<circle cx="165.9" cy="390.5" r="3" fill="#1f77b4"/>
<circle cx="169.4" cy="371.7" r="3" fill="#1f77b4"/>
<circle cx="172.9" cy="402.1" r="3" fill="#1f77b4"/>
<circle cx="176.5" cy="410.7" r="3" fill="#1f77b4"/>
<circle cx="180.0" cy="431.1" r="3" fill="#1f77b4"/>
<circle cx="183.6" cy="375.3" r="3" fill="#1f77b4"/>
<circle cx="187.1" cy="407.4" r="3" fill="#1f77b4"/>
<circle cx="190.7" cy="392.1" r="3" fill="#1f77b4"/>
<circle cx="194.2" cy="368.4" r="3" fill="#1f77b4"/>
<circle cx="197.7" cy="355.8" r="3" fill="#1f77b4"/>
<circle cx="201.3" cy="387.0" r="3" fill="#1f77b4"/>
<circle cx="204.8" cy="409.9" r="3" fill="#1f77b4"/>
<circle cx="208.4" cy="414.5" r="3" fill="#1f77b4"/>
<circle cx="211.9" cy="365.3" r="3" fill="#1f77b4"/>
<circle cx="215.5" cy="339.0" r="3" fill="#1f77b4"/>
<circle cx="219.0" cy="361.4" r="3" fill="#1f77b4"/>
<circle cx="222.5" cy="381.1" r="3" fill="#1f77b4"/>
<circle cx="226.1" cy="364.6" r="3" fill="#1f77b4"/>
<circle cx="229.6" cy="394.3" r="3" fill="#1f77b4"/>
<circle cx="233.2" cy="350.7" r="3" fill="#1f77b4"/>
<circle cx="236.7" cy="377.6" r="3" fill="#1f77b4"/>
<circle cx="240.3" cy="356.0" r="3" fill="#1f77b4"/>
<circle cx="243.8" cy="366.4" r="3" fill="#1f77b4"/>
<circle cx="247.3" cy="376.9" r="3" fill="#1f77b4"/>
<circle cx="250.9" cy="335.9" r="3" fill="#1f77b4"/>
<circle cx="254.4" cy="367.6" r="3" fill="#1f77b4"/>
<circle cx="258.0" cy="420.9" r="3" fill="#1f77b4"/>
<circle cx="261.5" cy="330.5" r="3" fill="#1f77b4"/>
<circle cx="265.1" cy="352.6" r="3" fill="#1f77b4"/>
<circle cx="268.6" cy="384.2" r="3" fill="#1f77b4"/>
<circle cx="272.1" cy="349.0" r="3" fill="#1f77b4"/>
<circle cx="275.7" cy="350.8" r="3" fill="#1f77b4"/>
<circle cx="279.2" cy="324.3" r="3" fill="#1f77b4"/>
<circle cx="282.8" cy="358.9" r="3" fill="#1f77b4"/>
<circle cx="286.3" cy="358.6" r="3" fill="#1f77b4"/>
<circle cx="289.8" cy="334.2" r="3" fill="#1f77b4"/>
<circle cx="293.4" cy="406.4" r="3" fill="#1f77b4"/>
<circle cx="296.9" cy="372.1" r="3" fill="#1f77b4"/>
<circle cx="300.5" cy="386.6" r="3" fill="#1f77b4"/>
<circle cx="304.0" cy="345.9" r="3" fill="#1f77b4"/>
<circle cx="307.6" cy="386.9" r="3" fill="#1f77b4"/>
<circle cx="311.1" cy="367.9" r="3" fill="#1f77b4"/>
<circle cx="314.6" cy="409.6" r="3" fill="#1f77b4"/>
<circle cx="318.2" cy="367.6" r="3" fill="#1f77b4"/>
<circle cx="321.7" cy="375.8" r="3" fill="#1f77b4"/>
<circle cx="325.3" cy="361.4" r="3" fill="#1f77b4"/>
<circle cx="328.8" cy="351.3" r="3" fill="#1f77b4"/>
<circle cx="332.4" cy="386.3" r="3" fill="#1f77b4"/>
<circle cx="335.9" cy="391.8" r="3" fill="#1f77b4"/>
<circle cx="339.4" cy="371.6" r="3" fill="#1f77b4"/>
<circle cx="343.0" cy="308.4" r="3" fill="#1f77b4"/>
<circle cx="346.5" cy="387.2" r="3" fill="#1f77b4"/>
<circle cx="350.1" cy="364.5" r="3" fill="#1f77b4"/>
<circle cx="353.6" cy="369.0" r="3" fill="#1f77b4"/>
<circle cx="357.2" cy="386.1" r="3" fill="#1f77b4"/>
<circle cx="360.7" cy="348.6" r="3" fill="#1f77b4"/>
<circle cx="364.2" cy="318.4" r="3" fill="#1f77b4"/>
<circle cx="367.8" cy="369.7" r="3" fill="#1f77b4"/>
<circle cx="371.3" cy="328.7" r="3" fill="#1f77b4"/>
<circle cx="374.9" cy="391.4" r="3" fill="#1f77b4"/>
<circle cx="378.4" cy="376.0" r="3" fill="#1f77b4"/>
<circle cx="382.0" cy="380.2" r="3" fill="#1f77b4"/>
<circle cx="385.5" cy="361.3" r="3" fill="#1f77b4"/>
<circle cx="389.0" cy="326.0" r="3" fill="#1f77b4"/>
<circle cx="392.6" cy="348.5" r="3" fill="#1f77b4"/>
<circle cx="396.1" cy="388.1" r="3" fill="#1f77b4"/>
<circle cx="399.7" cy="408.8" r="3" fill="#1f77b4"/>
<circle cx="403.2" cy="358.9" r="3" fill="#1f77b4"/>
<circle cx="406.8" cy="387.8" r="3" fill="#1f77b4"/>
<circle cx="410.3" cy="395.3" r="3" fill="#1f77b4"/>
<circle cx="413.8" cy="346.7" r="3" fill="#1f77b4"/>
<circle cx="417.4" cy="336.4" r="3" fill="#1f77b4"/>
<circle cx="420.9" cy="384.8" r="3" fill="#1f77b4"/>
<circle cx="424.5" cy="336.4" r="3" fill="#1f77b4"/>
<circle cx="428.0" cy="368.6" r="3" fill="#1f77b4"/>
<circle cx="431.6" cy="351.5" r="3" fill="#1f77b4"/>
<circle cx="435.1" cy="316.2" r="3" fill="#1f77b4"/>
<circle cx="438.6" cy="340.7" r="3" fill="#1f77b4"/>
<circle cx="442.2" cy="306.7" r="3" fill="#1f77b4"/>
<circle cx="445.7" cy="348.2" r="3" fill="#1f77b4"/>
<circle cx="449.3" cy="256.5" r="3" fill="#1f77b4"/>
<circle cx="452.8" cy="385.5" r="3" fill="#1f77b4"/>
<circle cx="456.4" cy="379.3" r="3" fill="#1f77b4"/>
<circle cx="459.9" cy="321.3" r="3" fill="#1f77b4"/>
<circle cx="463.4" cy="347.3" r="3" fill="#1f77b4"/>
<circle cx="467.0" cy="356.6" r="3" fill="#1f77b4"/>
<circle cx="470.5" cy="337.8" r="3" fill="#1f77b4"/>
<circle cx="474.1" cy="284.7" r="3" fill="#1f77b4"/>
<circle cx="477.6" cy="326.6" r="3" fill="#1f77b4"/>
<circle cx="481.2" cy="340.8" r="3" fill="#1f77b4"/>
<circle cx="484.7" cy="253.4" r="3" fill="#1f77b4"/>
<circle cx="488.2" cy="289.5" r="3" fill="#1f77b4"/>
<circle cx="491.8" cy="365.9" r="3" fill="#1f77b4"/>
<circle cx="495.3" cy="313.4" r="3" fill="#1f77b4"/>
<circle cx="498.9" cy="335.6" r="3" fill="#1f77b4"/>
<circle cx="502.4" cy="311.4" r="3" fill="#1f77b4"/>
<circle cx="506.0" cy="360.4" r="3" fill="#1f77b4"/>
<circle cx="509.5" cy="341.8" r="3" fill="#1f77b4"/>
<circle cx="513.0" cy="340.6" r="3" fill="#1f77b4"/>
<circle cx="516.6" cy="353.7" r="3" fill="#1f77b4"/>
<circle cx="520.1" cy="319.2" r="3" fill="#1f77b4"/>
<circle cx="523.7" cy="255.9" r="3" fill="#1f77b4"/>
<circle cx="527.2" cy="301.7" r="3" fill="#1f77b4"/>
<circle cx="530.8" cy="385.5" r="3" fill="#1f77b4"/>
<circle cx="534.3" cy="373.0" r="3" fill="#1f77b4"/>
<circle cx="537.8" cy="365.8" r="3" fill="#1f77b4"/>
<circle cx="541.4" cy="340.7" r="3" fill="#1f77b4"/>
<circle cx="544.9" cy="315.2" r="3" fill="#1f77b4"/>
<circle cx="548.5" cy="359.5" r="3" fill="#1f77b4"/>
<circle cx="552.0" cy="328.2" r="3" fill="#1f77b4"/>
<circle cx="555.6" cy="354.8" r="3" fill="#1f77b4"/>
<circle cx="559.1" cy="337.2" r="3" fill="#1f77b4"/>
<circle cx="562.6" cy="371.2" r="3" fill="#1f77b4"/>
<circle cx="566.2" cy="357.9" r="3" fill="#1f77b4"/>
<circle cx="569.7" cy="399.2" r="3" fill="#1f77b4"/>
<circle cx="573.3" cy="354.1" r="3" fill="#1f77b4"/>
<circle cx="576.8" cy="371.9" r="3" fill="#1f77b4"/>
<circle cx="580.4" cy="391.4" r="3" fill="#1f77b4"/>
<circle cx="583.9" cy="374.8" r="3" fill="#1f77b4"/>
<circle cx="587.4" cy="306.0" r="3" fill="#1f77b4"/>
<circle cx="591.0" cy="350.1" r="3" fill="#1f77b4"/>
<circle cx="594.5" cy="388.6" r="3" fill="#1f77b4"/>
<circle cx="598.1" cy="400.9" r="3" fill="#1f77b4"/>
<circle cx="601.6" cy="332.7" r="3" fill="#1f77b4"/>
<circle cx="605.2" cy="364.0" r="3" fill="#1f77b4"/>
<circle cx="608.7" cy="367.2" r="3" fill="#1f77b4"/>
<circle cx="612.2" cy="375.4" r="3" fill="#1f77b4"/>
<circle cx="615.8" cy="372.7" r="3" fill="#1f77b4"/>
<circle cx="619.3" cy="351.9" r="3" fill="#1f77b4"/>
<circle cx="622.9" cy="373.3" r="3" fill="#1f77b4"/>
<circle cx="626.4" cy="356.0" r="3" fill="#1f77b4"/>
<circle cx="629.9" cy="379.2" r="3" fill="#1f77b4"/>
<circle cx="633.5" cy="385.2" r="3" fill="#1f77b4"/>
<circle cx="637.0" cy="349.4" r="3" fill="#1f77b4"/>
<circle cx="640.6" cy="402.3" r="3" fill="#1f77b4"/>
<circle cx="644.1" cy="403.1" r="3" fill="#1f77b4"/>
<circle cx="647.7" cy="301.3" r="3" fill="#1f77b4"/>
<circle cx="651.2" cy="367.7" r="3" fill="#1f77b4"/>
<circle cx="654.7" cy="301.1" r="3" fill="#1f77b4"/>
<circle cx="658.3" cy="260.6" r="3" fill="#1f77b4"/>
<circle cx="661.8" cy="322.2" r="3" fill="#1f77b4"/>
<circle cx="665.4" cy="374.4" r="3" fill="#1f77b4"/>
<circle cx="668.9" cy="355.4" r="3" fill="#1f77b4"/>
<circle cx="672.5" cy="338.0" r="3" fill="#1f77b4"/>
<circle cx="676.0" cy="376.0" r="3" fill="#1f77b4"/>
<circle cx="679.5" cy="367.8" r="3" fill="#1f77b4"/>
<circle cx="683.1" cy="339.7" r="3" fill="#1f77b4"/>
<circle cx="686.6" cy="350.8" r="3" fill="#1f77b4"/>
<circle cx="690.2" cy="330.0" r="3" fill="#1f77b4"/>
<circle cx="693.7" cy="331.6" r="3" fill="#1f77b4"/>
<circle cx="697.3" cy="342.5" r="3" fill="#1f77b4"/>
<circle cx="700.8" cy="345.5" r="3" fill="#1f77b4"/>
<circle cx="704.3" cy="311.7" r="3" fill="#1f77b4"/>
<circle cx="707.9" cy="328.2" r="3" fill="#1f77b4"/>
<circle cx="711.4" cy="326.5" r="3" fill="#1f77b4"/>
<circle cx="715.0" cy="316.2" r="3" fill="#1f77b4"/>
<circle cx="718.5" cy="258.9" r="3" fill="#1f77b4"/>
<circle cx="722.1" cy="337.7" r="3" fill="#1f77b4"/>
<circle cx="725.6" cy="353.5" r="3" fill="#1f77b4"/>
<circle cx="729.1" cy="316.2" r="3" fill="#1f77b4"/>
<circle cx="732.7" cy="278.1" r="3" fill="#1f77b4"/>
<circle cx="736.2" cy="338.5" r="3" fill="#1f77b4"/>
<circle cx="739.8" cy="361.7" r="3" fill="#1f77b4"/>
<circle cx="743.3" cy="326.6" r="3" fill="#1f77b4"/>
<circle cx="746.9" cy="355.4" r="3" fill="#1f77b4"/>
<circle cx="750.4" cy="314.8" r="3" fill="#1f77b4"/>
<circle cx="753.9" cy="341.6" r="3" fill="#1f77b4"/>
<circle cx="757.5" cy="316.9" r="3" fill="#1f77b4"/>
<circle cx="761.0" cy="303.9" r="3" fill="#1f77b4"/>
<circle cx="764.6" cy="283.4" r="3" fill="#1f77b4"/>
<line x1="828" y1="96" x2="850" y2="96" stroke="#1f77b4" stroke-width="2.5"/>
<text x="858" y="100" font-family="Arial" font-size="13">SFT + KL GRPO</text>
<polyline fill="none" stroke="#d62728" stroke-width="2.3" points="95.0,319.3 98.5,477.6 102.1,436.4 105.6,395.0 109.2,359.0 112.7,352.6 116.3,361.4 119.8,398.8 123.3,377.2 126.9,406.9 130.4,382.3 134.0,397.0 137.5,372.6 141.1,385.2 144.6,368.4 148.1,361.0 151.7,361.9 155.2,357.1 158.8,356.3 162.3,347.6 165.9,333.5 169.4,307.9 172.9,319.8 176.5,342.3 180.0,345.4 183.6,320.2 187.1,342.6 190.7,308.0 194.2,303.4 197.7,278.8 201.3,326.0 204.8,344.4 208.4,367.4 211.9,315.7 215.5,300.9 219.0,311.2 222.5,328.0 226.1,319.0 229.6,333.4 233.2,286.5 236.7,331.2 240.3,286.3 243.8,298.6 247.3,301.4 250.9,287.9 254.4,246.6 258.0,345.5 261.5,245.7 265.1,292.1 268.6,324.3 272.1,299.7 275.7,312.3 279.2,291.4 282.8,335.6 286.3,310.2 289.8,257.8 293.4,333.8 296.9,280.0 300.5,265.2 304.0,226.3 307.6,291.4 311.1,279.1 314.6,299.9 318.2,184.9 321.7,250.7 325.3,261.6 328.8,192.3 332.4,250.3 335.9,243.0 339.4,217.2 343.0,158.0 346.5,213.0 350.1,206.7 353.6,190.4 357.2,163.6 360.7,210.9 364.2,121.8 367.8,174.8 371.3,177.3 374.9,239.4 378.4,188.3 382.0,196.8 385.5,179.6 389.0,114.0 392.6,176.0 396.1,166.4 399.7,233.9 403.2,195.8 406.8,235.1 410.3,225.3 413.8,151.2 417.4,96.4 420.9,177.9 424.5,155.5 428.0,171.8 431.6,143.2 435.1,153.1 438.6,146.0 442.2,188.9 445.7,197.5 449.3,167.1 452.8,264.4 456.4,281.4 459.9,270.4 463.4,263.2 467.0,270.6 470.5,268.8 474.1,241.8 477.6,270.3 481.2,257.6 484.7,190.4 488.2,245.3 491.8,271.2 495.3,219.6 498.9,242.4 502.4,166.7 506.0,254.9 509.5,236.6 513.0,210.1 516.6,193.5 520.1,179.1 523.7,74.1 527.2,126.7 530.8,230.3 534.3,154.1 537.8,167.7 541.4,157.7 544.9,120.4 548.5,147.2 552.0,195.4 555.6,168.6 559.1,178.4 562.6,163.8 566.2,143.5 569.7,174.0 573.3,165.2 576.8,190.5 580.4,184.8 583.9,199.2 587.4,94.1 591.0,157.1 594.5,147.8 598.1,179.0 601.6,120.4 605.2,162.4 608.7,170.3 612.2,170.3 615.8,136.2 619.3,126.8 622.9,145.5 626.4,138.1 629.9,134.3 633.5,193.1 637.0,158.0 640.6,182.7 644.1,200.6 647.7,75.3 651.2,183.8 654.7,96.3 658.3,82.5 661.8,114.1 665.4,213.1 668.9,190.6 672.5,137.7 676.0,200.4 679.5,193.0 683.1,173.0 686.6,229.1 690.2,208.2 693.7,205.3 697.3,219.9 700.8,240.5 704.3,193.8 707.9,176.5 711.4,189.1 715.0,210.5 718.5,176.3 722.1,177.5 725.6,235.2 729.1,185.4 732.7,170.4 736.2,218.2 739.8,218.1 743.3,209.5 746.9,241.9 750.4,178.5 753.9,234.2 757.5,186.7 761.0,159.7 764.6,148.2 768.1,177.5 771.7,241.3 775.2,226.0 778.7,187.3 782.3,127.2 785.8,89.5 789.4,197.6 792.9,162.9 796.5,128.6 800.0,181.4"/>
<circle cx="95.0" cy="319.3" r="3" fill="#d62728"/>
<circle cx="98.5" cy="477.6" r="3" fill="#d62728"/>
<circle cx="102.1" cy="436.4" r="3" fill="#d62728"/>
<circle cx="105.6" cy="395.0" r="3" fill="#d62728"/>
<circle cx="109.2" cy="359.0" r="3" fill="#d62728"/>
<circle cx="112.7" cy="352.6" r="3" fill="#d62728"/>
<circle cx="116.3" cy="361.4" r="3" fill="#d62728"/>
<circle cx="119.8" cy="398.8" r="3" fill="#d62728"/>
<circle cx="123.3" cy="377.2" r="3" fill="#d62728"/>
<circle cx="126.9" cy="406.9" r="3" fill="#d62728"/>
<circle cx="130.4" cy="382.3" r="3" fill="#d62728"/>
<circle cx="134.0" cy="397.0" r="3" fill="#d62728"/>
<circle cx="137.5" cy="372.6" r="3" fill="#d62728"/>
<circle cx="141.1" cy="385.2" r="3" fill="#d62728"/>
<circle cx="144.6" cy="368.4" r="3" fill="#d62728"/>
<circle cx="148.1" cy="361.0" r="3" fill="#d62728"/>
<circle cx="151.7" cy="361.9" r="3" fill="#d62728"/>
<circle cx="155.2" cy="357.1" r="3" fill="#d62728"/>
<circle cx="158.8" cy="356.3" r="3" fill="#d62728"/>
<circle cx="162.3" cy="347.6" r="3" fill="#d62728"/>
<circle cx="165.9" cy="333.5" r="3" fill="#d62728"/>
<circle cx="169.4" cy="307.9" r="3" fill="#d62728"/>
<circle cx="172.9" cy="319.8" r="3" fill="#d62728"/>
<circle cx="176.5" cy="342.3" r="3" fill="#d62728"/>
<circle cx="180.0" cy="345.4" r="3" fill="#d62728"/>
<circle cx="183.6" cy="320.2" r="3" fill="#d62728"/>
<circle cx="187.1" cy="342.6" r="3" fill="#d62728"/>
<circle cx="190.7" cy="308.0" r="3" fill="#d62728"/>
<circle cx="194.2" cy="303.4" r="3" fill="#d62728"/>
<circle cx="197.7" cy="278.8" r="3" fill="#d62728"/>
<circle cx="201.3" cy="326.0" r="3" fill="#d62728"/>
<circle cx="204.8" cy="344.4" r="3" fill="#d62728"/>
<circle cx="208.4" cy="367.4" r="3" fill="#d62728"/>
<circle cx="211.9" cy="315.7" r="3" fill="#d62728"/>
<circle cx="215.5" cy="300.9" r="3" fill="#d62728"/>
<circle cx="219.0" cy="311.2" r="3" fill="#d62728"/>
<circle cx="222.5" cy="328.0" r="3" fill="#d62728"/>
<circle cx="226.1" cy="319.0" r="3" fill="#d62728"/>
<circle cx="229.6" cy="333.4" r="3" fill="#d62728"/>
<circle cx="233.2" cy="286.5" r="3" fill="#d62728"/>
<circle cx="236.7" cy="331.2" r="3" fill="#d62728"/>
<circle cx="240.3" cy="286.3" r="3" fill="#d62728"/>
<circle cx="243.8" cy="298.6" r="3" fill="#d62728"/>
<circle cx="247.3" cy="301.4" r="3" fill="#d62728"/>
<circle cx="250.9" cy="287.9" r="3" fill="#d62728"/>
<circle cx="254.4" cy="246.6" r="3" fill="#d62728"/>
<circle cx="258.0" cy="345.5" r="3" fill="#d62728"/>
<circle cx="261.5" cy="245.7" r="3" fill="#d62728"/>
<circle cx="265.1" cy="292.1" r="3" fill="#d62728"/>
<circle cx="268.6" cy="324.3" r="3" fill="#d62728"/>
<circle cx="272.1" cy="299.7" r="3" fill="#d62728"/>
<circle cx="275.7" cy="312.3" r="3" fill="#d62728"/>
<circle cx="279.2" cy="291.4" r="3" fill="#d62728"/>
<circle cx="282.8" cy="335.6" r="3" fill="#d62728"/>
<circle cx="286.3" cy="310.2" r="3" fill="#d62728"/>
<circle cx="289.8" cy="257.8" r="3" fill="#d62728"/>
<circle cx="293.4" cy="333.8" r="3" fill="#d62728"/>
<circle cx="296.9" cy="280.0" r="3" fill="#d62728"/>
<circle cx="300.5" cy="265.2" r="3" fill="#d62728"/>
<circle cx="304.0" cy="226.3" r="3" fill="#d62728"/>
<circle cx="307.6" cy="291.4" r="3" fill="#d62728"/>
<circle cx="311.1" cy="279.1" r="3" fill="#d62728"/>
<circle cx="314.6" cy="299.9" r="3" fill="#d62728"/>
<circle cx="318.2" cy="184.9" r="3" fill="#d62728"/>
<circle cx="321.7" cy="250.7" r="3" fill="#d62728"/>
<circle cx="325.3" cy="261.6" r="3" fill="#d62728"/>
<circle cx="328.8" cy="192.3" r="3" fill="#d62728"/>
<circle cx="332.4" cy="250.3" r="3" fill="#d62728"/>
<circle cx="335.9" cy="243.0" r="3" fill="#d62728"/>
<circle cx="339.4" cy="217.2" r="3" fill="#d62728"/>
<circle cx="343.0" cy="158.0" r="3" fill="#d62728"/>
<circle cx="346.5" cy="213.0" r="3" fill="#d62728"/>
<circle cx="350.1" cy="206.7" r="3" fill="#d62728"/>
<circle cx="353.6" cy="190.4" r="3" fill="#d62728"/>
<circle cx="357.2" cy="163.6" r="3" fill="#d62728"/>
<circle cx="360.7" cy="210.9" r="3" fill="#d62728"/>
<circle cx="364.2" cy="121.8" r="3" fill="#d62728"/>
<circle cx="367.8" cy="174.8" r="3" fill="#d62728"/>
<circle cx="371.3" cy="177.3" r="3" fill="#d62728"/>
<circle cx="374.9" cy="239.4" r="3" fill="#d62728"/>
<circle cx="378.4" cy="188.3" r="3" fill="#d62728"/>
<circle cx="382.0" cy="196.8" r="3" fill="#d62728"/>
<circle cx="385.5" cy="179.6" r="3" fill="#d62728"/>
<circle cx="389.0" cy="114.0" r="3" fill="#d62728"/>
<circle cx="392.6" cy="176.0" r="3" fill="#d62728"/>
<circle cx="396.1" cy="166.4" r="3" fill="#d62728"/>
<circle cx="399.7" cy="233.9" r="3" fill="#d62728"/>
<circle cx="403.2" cy="195.8" r="3" fill="#d62728"/>
<circle cx="406.8" cy="235.1" r="3" fill="#d62728"/>
<circle cx="410.3" cy="225.3" r="3" fill="#d62728"/>
<circle cx="413.8" cy="151.2" r="3" fill="#d62728"/>
<circle cx="417.4" cy="96.4" r="3" fill="#d62728"/>
<circle cx="420.9" cy="177.9" r="3" fill="#d62728"/>
<circle cx="424.5" cy="155.5" r="3" fill="#d62728"/>
<circle cx="428.0" cy="171.8" r="3" fill="#d62728"/>
<circle cx="431.6" cy="143.2" r="3" fill="#d62728"/>
<circle cx="435.1" cy="153.1" r="3" fill="#d62728"/>
<circle cx="438.6" cy="146.0" r="3" fill="#d62728"/>
<circle cx="442.2" cy="188.9" r="3" fill="#d62728"/>
<circle cx="445.7" cy="197.5" r="3" fill="#d62728"/>
<circle cx="449.3" cy="167.1" r="3" fill="#d62728"/>
<circle cx="452.8" cy="264.4" r="3" fill="#d62728"/>
<circle cx="456.4" cy="281.4" r="3" fill="#d62728"/>
<circle cx="459.9" cy="270.4" r="3" fill="#d62728"/>
<circle cx="463.4" cy="263.2" r="3" fill="#d62728"/>
<circle cx="467.0" cy="270.6" r="3" fill="#d62728"/>
<circle cx="470.5" cy="268.8" r="3" fill="#d62728"/>
<circle cx="474.1" cy="241.8" r="3" fill="#d62728"/>
<circle cx="477.6" cy="270.3" r="3" fill="#d62728"/>
<circle cx="481.2" cy="257.6" r="3" fill="#d62728"/>
<circle cx="484.7" cy="190.4" r="3" fill="#d62728"/>
<circle cx="488.2" cy="245.3" r="3" fill="#d62728"/>
<circle cx="491.8" cy="271.2" r="3" fill="#d62728"/>
<circle cx="495.3" cy="219.6" r="3" fill="#d62728"/>
<circle cx="498.9" cy="242.4" r="3" fill="#d62728"/>
<circle cx="502.4" cy="166.7" r="3" fill="#d62728"/>
<circle cx="506.0" cy="254.9" r="3" fill="#d62728"/>
<circle cx="509.5" cy="236.6" r="3" fill="#d62728"/>
<circle cx="513.0" cy="210.1" r="3" fill="#d62728"/>
<circle cx="516.6" cy="193.5" r="3" fill="#d62728"/>
<circle cx="520.1" cy="179.1" r="3" fill="#d62728"/>
<circle cx="523.7" cy="74.1" r="3" fill="#d62728"/>
<circle cx="527.2" cy="126.7" r="3" fill="#d62728"/>
<circle cx="530.8" cy="230.3" r="3" fill="#d62728"/>
<circle cx="534.3" cy="154.1" r="3" fill="#d62728"/>
<circle cx="537.8" cy="167.7" r="3" fill="#d62728"/>
<circle cx="541.4" cy="157.7" r="3" fill="#d62728"/>
<circle cx="544.9" cy="120.4" r="3" fill="#d62728"/>
<circle cx="548.5" cy="147.2" r="3" fill="#d62728"/>
<circle cx="552.0" cy="195.4" r="3" fill="#d62728"/>
<circle cx="555.6" cy="168.6" r="3" fill="#d62728"/>
<circle cx="559.1" cy="178.4" r="3" fill="#d62728"/>
<circle cx="562.6" cy="163.8" r="3" fill="#d62728"/>
<circle cx="566.2" cy="143.5" r="3" fill="#d62728"/>
<circle cx="569.7" cy="174.0" r="3" fill="#d62728"/>
<circle cx="573.3" cy="165.2" r="3" fill="#d62728"/>
<circle cx="576.8" cy="190.5" r="3" fill="#d62728"/>
<circle cx="580.4" cy="184.8" r="3" fill="#d62728"/>
<circle cx="583.9" cy="199.2" r="3" fill="#d62728"/>
<circle cx="587.4" cy="94.1" r="3" fill="#d62728"/>
<circle cx="591.0" cy="157.1" r="3" fill="#d62728"/>
<circle cx="594.5" cy="147.8" r="3" fill="#d62728"/>
<circle cx="598.1" cy="179.0" r="3" fill="#d62728"/>
<circle cx="601.6" cy="120.4" r="3" fill="#d62728"/>
<circle cx="605.2" cy="162.4" r="3" fill="#d62728"/>
<circle cx="608.7" cy="170.3" r="3" fill="#d62728"/>
<circle cx="612.2" cy="170.3" r="3" fill="#d62728"/>
<circle cx="615.8" cy="136.2" r="3" fill="#d62728"/>
<circle cx="619.3" cy="126.8" r="3" fill="#d62728"/>
<circle cx="622.9" cy="145.5" r="3" fill="#d62728"/>
<circle cx="626.4" cy="138.1" r="3" fill="#d62728"/>
<circle cx="629.9" cy="134.3" r="3" fill="#d62728"/>
<circle cx="633.5" cy="193.1" r="3" fill="#d62728"/>
<circle cx="637.0" cy="158.0" r="3" fill="#d62728"/>
<circle cx="640.6" cy="182.7" r="3" fill="#d62728"/>
<circle cx="644.1" cy="200.6" r="3" fill="#d62728"/>
<circle cx="647.7" cy="75.3" r="3" fill="#d62728"/>
<circle cx="651.2" cy="183.8" r="3" fill="#d62728"/>
<circle cx="654.7" cy="96.3" r="3" fill="#d62728"/>
<circle cx="658.3" cy="82.5" r="3" fill="#d62728"/>
<circle cx="661.8" cy="114.1" r="3" fill="#d62728"/>
<circle cx="665.4" cy="213.1" r="3" fill="#d62728"/>
<circle cx="668.9" cy="190.6" r="3" fill="#d62728"/>
<circle cx="672.5" cy="137.7" r="3" fill="#d62728"/>
<circle cx="676.0" cy="200.4" r="3" fill="#d62728"/>
<circle cx="679.5" cy="193.0" r="3" fill="#d62728"/>
<circle cx="683.1" cy="173.0" r="3" fill="#d62728"/>
<circle cx="686.6" cy="229.1" r="3" fill="#d62728"/>
<circle cx="690.2" cy="208.2" r="3" fill="#d62728"/>
<circle cx="693.7" cy="205.3" r="3" fill="#d62728"/>
<circle cx="697.3" cy="219.9" r="3" fill="#d62728"/>
<circle cx="700.8" cy="240.5" r="3" fill="#d62728"/>
<circle cx="704.3" cy="193.8" r="3" fill="#d62728"/>
<circle cx="707.9" cy="176.5" r="3" fill="#d62728"/>
<circle cx="711.4" cy="189.1" r="3" fill="#d62728"/>
<circle cx="715.0" cy="210.5" r="3" fill="#d62728"/>
<circle cx="718.5" cy="176.3" r="3" fill="#d62728"/>
<circle cx="722.1" cy="177.5" r="3" fill="#d62728"/>
<circle cx="725.6" cy="235.2" r="3" fill="#d62728"/>
<circle cx="729.1" cy="185.4" r="3" fill="#d62728"/>
<circle cx="732.7" cy="170.4" r="3" fill="#d62728"/>
<circle cx="736.2" cy="218.2" r="3" fill="#d62728"/>
<circle cx="739.8" cy="218.1" r="3" fill="#d62728"/>
<circle cx="743.3" cy="209.5" r="3" fill="#d62728"/>
<circle cx="746.9" cy="241.9" r="3" fill="#d62728"/>
<circle cx="750.4" cy="178.5" r="3" fill="#d62728"/>
<circle cx="753.9" cy="234.2" r="3" fill="#d62728"/>
<circle cx="757.5" cy="186.7" r="3" fill="#d62728"/>
<circle cx="761.0" cy="159.7" r="3" fill="#d62728"/>
<circle cx="764.6" cy="148.2" r="3" fill="#d62728"/>
<circle cx="768.1" cy="177.5" r="3" fill="#d62728"/>
<circle cx="771.7" cy="241.3" r="3" fill="#d62728"/>
<circle cx="775.2" cy="226.0" r="3" fill="#d62728"/>
<circle cx="778.7" cy="187.3" r="3" fill="#d62728"/>
<circle cx="782.3" cy="127.2" r="3" fill="#d62728"/>
<circle cx="785.8" cy="89.5" r="3" fill="#d62728"/>
<circle cx="789.4" cy="197.6" r="3" fill="#d62728"/>
<circle cx="792.9" cy="162.9" r="3" fill="#d62728"/>
<circle cx="796.5" cy="128.6" r="3" fill="#d62728"/>
<circle cx="800.0" cy="181.4" r="3" fill="#d62728"/>
<line x1="828" y1="120" x2="850" y2="120" stroke="#d62728" stroke-width="2.5"/>
<text x="858" y="124" font-family="Arial" font-size="13">Direct GRPO reference</text>
<text x="447.5" y="638" text-anchor="middle" font-family="Arial" font-size="15">GRPO step</text>
<text x="24" y="326.0" text-anchor="middle" font-family="Arial" font-size="15" transform="rotate(-90 24 326.0)">Average response tokens</text>
</svg>
