<svg xmlns="http://www.w3.org/2000/svg" width="1040" height="640" viewBox="0 0 1040 640">
<rect width="100%" height="100%" fill="white"/>
<text x="520.0" y="36" text-anchor="middle" font-family="Arial" font-size="22" font-weight="700">GRPO validation answer reward by length normalization</text>
<line x1="95" y1="558" x2="780" y2="558" stroke="#222" stroke-width="1.5"/>
<line x1="95" y1="74" x2="95" y2="558" stroke="#222" stroke-width="1.5"/>
<line x1="90" y1="558.0" x2="780" y2="558.0" stroke="#ddd" stroke-width="1"/>
<text x="83" y="562.0" text-anchor="end" font-family="Arial" font-size="12">0.00</text>
<line x1="90" y1="461.2" x2="780" y2="461.2" stroke="#ddd" stroke-width="1"/>
<text x="83" y="465.2" text-anchor="end" font-family="Arial" font-size="12">0.18</text>
<line x1="90" y1="364.4" x2="780" y2="364.4" stroke="#ddd" stroke-width="1"/>
<text x="83" y="368.4" text-anchor="end" font-family="Arial" font-size="12">0.36</text>
<line x1="90" y1="267.6" x2="780" y2="267.6" stroke="#ddd" stroke-width="1"/>
<text x="83" y="271.6" text-anchor="end" font-family="Arial" font-size="12">0.54</text>
<line x1="90" y1="170.8" x2="780" y2="170.8" stroke="#ddd" stroke-width="1"/>
<text x="83" y="174.8" text-anchor="end" font-family="Arial" font-size="12">0.72</text>
<line x1="90" y1="74.0" x2="780" y2="74.0" stroke="#ddd" stroke-width="1"/>
<text x="83" y="78.0" text-anchor="end" font-family="Arial" font-size="12">0.90</text>
<line x1="95.0" y1="558" x2="95.0" y2="563" stroke="#222" stroke-width="1"/>
<text x="95.0" y="582" text-anchor="middle" font-family="Arial" font-size="12">0</text>
<line x1="232.0" y1="558" x2="232.0" y2="563" stroke="#222" stroke-width="1"/>
<text x="232.0" y="582" text-anchor="middle" font-family="Arial" font-size="12">40</text>
<line x1="369.0" y1="558" x2="369.0" y2="563" stroke="#222" stroke-width="1"/>
<text x="369.0" y="582" text-anchor="middle" font-family="Arial" font-size="12">80</text>
<line x1="506.0" y1="558" x2="506.0" y2="563" stroke="#222" stroke-width="1"/>
<text x="506.0" y="582" text-anchor="middle" font-family="Arial" font-size="12">120</text>
<line x1="643.0" y1="558" x2="643.0" y2="563" stroke="#222" stroke-width="1"/>
<text x="643.0" y="582" text-anchor="middle" font-family="Arial" font-size="12">160</text>
<line x1="780.0" y1="558" x2="780.0" y2="563" stroke="#222" stroke-width="1"/>
<text x="780.0" y="582" text-anchor="middle" font-family="Arial" font-size="12">200</text>
<polyline fill="none" stroke="#1f77b4" stroke-width="2.3" points="95.0,537.5 112.1,397.3 129.2,324.8 146.4,255.0 163.5,186.2 180.6,167.3 197.8,156.2 214.9,144.7 232.0,135.2 249.1,116.3 266.2,113.2 283.4,119.0 300.5,104.8 317.6,101.6 334.8,107.9 351.9,102.7 369.0,90.1 386.1,93.7 403.2,95.8 420.4,87.4 437.5,95.3 454.6,100.6 471.8,104.3 488.9,105.8 506.0,105.8 523.1,94.3 540.2,95.8 557.4,100.6 574.5,89.5 591.6,101.1 608.8,84.3 625.9,89.0 643.0,90.1 660.1,87.4 677.2,90.1 694.4,90.1 711.5,92.7 728.6,89.0 745.8,83.8 762.9,90.1 780.0,83.8"/>
<circle cx="95.0" cy="537.5" r="3" fill="#1f77b4"/>
<circle cx="112.1" cy="397.3" r="3" fill="#1f77b4"/>
<circle cx="129.2" cy="324.8" r="3" fill="#1f77b4"/>
<circle cx="146.4" cy="255.0" r="3" fill="#1f77b4"/>
<circle cx="163.5" cy="186.2" r="3" fill="#1f77b4"/>
<circle cx="180.6" cy="167.3" r="3" fill="#1f77b4"/>
<circle cx="197.8" cy="156.2" r="3" fill="#1f77b4"/>
<circle cx="214.9" cy="144.7" r="3" fill="#1f77b4"/>
<circle cx="232.0" cy="135.2" r="3" fill="#1f77b4"/>
<circle cx="249.1" cy="116.3" r="3" fill="#1f77b4"/>
<circle cx="266.2" cy="113.2" r="3" fill="#1f77b4"/>
<circle cx="283.4" cy="119.0" r="3" fill="#1f77b4"/>
<circle cx="300.5" cy="104.8" r="3" fill="#1f77b4"/>
<circle cx="317.6" cy="101.6" r="3" fill="#1f77b4"/>
<circle cx="334.8" cy="107.9" r="3" fill="#1f77b4"/>
<circle cx="351.9" cy="102.7" r="3" fill="#1f77b4"/>
<circle cx="369.0" cy="90.1" r="3" fill="#1f77b4"/>
<circle cx="386.1" cy="93.7" r="3" fill="#1f77b4"/>
<circle cx="403.2" cy="95.8" r="3" fill="#1f77b4"/>
<circle cx="420.4" cy="87.4" r="3" fill="#1f77b4"/>
<circle cx="437.5" cy="95.3" r="3" fill="#1f77b4"/>
<circle cx="454.6" cy="100.6" r="3" fill="#1f77b4"/>
<circle cx="471.8" cy="104.3" r="3" fill="#1f77b4"/>
<circle cx="488.9" cy="105.8" r="3" fill="#1f77b4"/>
<circle cx="506.0" cy="105.8" r="3" fill="#1f77b4"/>
<circle cx="523.1" cy="94.3" r="3" fill="#1f77b4"/>
<circle cx="540.2" cy="95.8" r="3" fill="#1f77b4"/>
<circle cx="557.4" cy="100.6" r="3" fill="#1f77b4"/>
<circle cx="574.5" cy="89.5" r="3" fill="#1f77b4"/>
<circle cx="591.6" cy="101.1" r="3" fill="#1f77b4"/>
<circle cx="608.8" cy="84.3" r="3" fill="#1f77b4"/>
<circle cx="625.9" cy="89.0" r="3" fill="#1f77b4"/>
<circle cx="643.0" cy="90.1" r="3" fill="#1f77b4"/>
<circle cx="660.1" cy="87.4" r="3" fill="#1f77b4"/>
<circle cx="677.2" cy="90.1" r="3" fill="#1f77b4"/>
<circle cx="694.4" cy="90.1" r="3" fill="#1f77b4"/>
<circle cx="711.5" cy="92.7" r="3" fill="#1f77b4"/>
<circle cx="728.6" cy="89.0" r="3" fill="#1f77b4"/>
<circle cx="745.8" cy="83.8" r="3" fill="#1f77b4"/>
<circle cx="762.9" cy="90.1" r="3" fill="#1f77b4"/>
<circle cx="780.0" cy="83.8" r="3" fill="#1f77b4"/>
<line x1="808" y1="96" x2="830" y2="96" stroke="#1f77b4" stroke-width="2.5"/>
<text x="838" y="100" font-family="Arial" font-size="13">masked_mean</text>
<polyline fill="none" stroke="#d62728" stroke-width="2.3" points="95.0,537.5 112.1,465.0 129.2,443.0 146.4,405.2 163.5,374.7 180.6,391.0 197.8,373.1 214.9,330.1 232.0,308.0 249.1,283.9 266.2,251.3 283.4,199.8 300.5,157.3 317.6,160.4 334.8,139.4 351.9,130.0 369.0,126.3 386.1,114.2 403.2,111.1 420.4,113.2 437.5,115.3 454.6,108.5 471.8,109.5 488.9,105.3 506.0,102.7 523.1,107.4 540.2,95.8 557.4,103.7 574.5,102.1 591.6,104.3 608.8,102.7 625.9,100.0 643.0,97.9 660.1,89.5 677.2,90.1 694.4,93.7 711.5,98.5 728.6,99.5 745.8,92.2 762.9,95.3 780.0,89.5"/>
<circle cx="95.0" cy="537.5" r="3" fill="#d62728"/>
<circle cx="112.1" cy="465.0" r="3" fill="#d62728"/>
<circle cx="129.2" cy="443.0" r="3" fill="#d62728"/>
<circle cx="146.4" cy="405.2" r="3" fill="#d62728"/>
<circle cx="163.5" cy="374.7" r="3" fill="#d62728"/>
<circle cx="180.6" cy="391.0" r="3" fill="#d62728"/>
<circle cx="197.8" cy="373.1" r="3" fill="#d62728"/>
<circle cx="214.9" cy="330.1" r="3" fill="#d62728"/>
<circle cx="232.0" cy="308.0" r="3" fill="#d62728"/>
<circle cx="249.1" cy="283.9" r="3" fill="#d62728"/>
<circle cx="266.2" cy="251.3" r="3" fill="#d62728"/>
<circle cx="283.4" cy="199.8" r="3" fill="#d62728"/>
<circle cx="300.5" cy="157.3" r="3" fill="#d62728"/>
<circle cx="317.6" cy="160.4" r="3" fill="#d62728"/>
<circle cx="334.8" cy="139.4" r="3" fill="#d62728"/>
<circle cx="351.9" cy="130.0" r="3" fill="#d62728"/>
<circle cx="369.0" cy="126.3" r="3" fill="#d62728"/>
<circle cx="386.1" cy="114.2" r="3" fill="#d62728"/>
<circle cx="403.2" cy="111.1" r="3" fill="#d62728"/>
<circle cx="420.4" cy="113.2" r="3" fill="#d62728"/>
<circle cx="437.5" cy="115.3" r="3" fill="#d62728"/>
<circle cx="454.6" cy="108.5" r="3" fill="#d62728"/>
<circle cx="471.8" cy="109.5" r="3" fill="#d62728"/>
<circle cx="488.9" cy="105.3" r="3" fill="#d62728"/>
<circle cx="506.0" cy="102.7" r="3" fill="#d62728"/>
<circle cx="523.1" cy="107.4" r="3" fill="#d62728"/>
<circle cx="540.2" cy="95.8" r="3" fill="#d62728"/>
<circle cx="557.4" cy="103.7" r="3" fill="#d62728"/>
<circle cx="574.5" cy="102.1" r="3" fill="#d62728"/>
<circle cx="591.6" cy="104.3" r="3" fill="#d62728"/>
<circle cx="608.8" cy="102.7" r="3" fill="#d62728"/>
<circle cx="625.9" cy="100.0" r="3" fill="#d62728"/>
<circle cx="643.0" cy="97.9" r="3" fill="#d62728"/>
<circle cx="660.1" cy="89.5" r="3" fill="#d62728"/>
<circle cx="677.2" cy="90.1" r="3" fill="#d62728"/>
<circle cx="694.4" cy="93.7" r="3" fill="#d62728"/>
<circle cx="711.5" cy="98.5" r="3" fill="#d62728"/>
<circle cx="728.6" cy="99.5" r="3" fill="#d62728"/>
<circle cx="745.8" cy="92.2" r="3" fill="#d62728"/>
<circle cx="762.9" cy="95.3" r="3" fill="#d62728"/>
<circle cx="780.0" cy="89.5" r="3" fill="#d62728"/>
<line x1="808" y1="121" x2="830" y2="121" stroke="#d62728" stroke-width="2.5"/>
<text x="838" y="125" font-family="Arial" font-size="13">masked_normalize</text>
<polyline fill="none" stroke="#2ca02c" stroke-width="2.3" points="95.0,537.5 112.1,374.7 129.2,346.9 146.4,297.5 163.5,249.2 180.6,196.7 197.8,172.0 214.9,178.3 232.0,172.5 249.1,157.3 266.2,142.6 283.4,127.9 300.5,120.5 317.6,117.4 334.8,111.1 351.9,102.1 369.0,113.2 386.1,107.4 403.2,106.9 420.4,101.6 437.5,102.1 454.6,98.5 471.8,90.6 488.9,98.5 506.0,119.0 523.1,124.2 540.2,117.9 557.4,111.6 574.5,112.1 591.6,111.6 608.8,103.7 625.9,105.3 643.0,114.8 660.1,122.1 677.2,121.1 694.4,108.5 711.5,107.4 728.6,99.0 745.8,97.4 762.9,91.6 780.0,93.2"/>
<circle cx="95.0" cy="537.5" r="3" fill="#2ca02c"/>
<circle cx="112.1" cy="374.7" r="3" fill="#2ca02c"/>
<circle cx="129.2" cy="346.9" r="3" fill="#2ca02c"/>
<circle cx="146.4" cy="297.5" r="3" fill="#2ca02c"/>
<circle cx="163.5" cy="249.2" r="3" fill="#2ca02c"/>
<circle cx="180.6" cy="196.7" r="3" fill="#2ca02c"/>
<circle cx="197.8" cy="172.0" r="3" fill="#2ca02c"/>
<circle cx="214.9" cy="178.3" r="3" fill="#2ca02c"/>
<circle cx="232.0" cy="172.5" r="3" fill="#2ca02c"/>
<circle cx="249.1" cy="157.3" r="3" fill="#2ca02c"/>
<circle cx="266.2" cy="142.6" r="3" fill="#2ca02c"/>
<circle cx="283.4" cy="127.9" r="3" fill="#2ca02c"/>
<circle cx="300.5" cy="120.5" r="3" fill="#2ca02c"/>
<circle cx="317.6" cy="117.4" r="3" fill="#2ca02c"/>
<circle cx="334.8" cy="111.1" r="3" fill="#2ca02c"/>
<circle cx="351.9" cy="102.1" r="3" fill="#2ca02c"/>
<circle cx="369.0" cy="113.2" r="3" fill="#2ca02c"/>
<circle cx="386.1" cy="107.4" r="3" fill="#2ca02c"/>
<circle cx="403.2" cy="106.9" r="3" fill="#2ca02c"/>
<circle cx="420.4" cy="101.6" r="3" fill="#2ca02c"/>
<circle cx="437.5" cy="102.1" r="3" fill="#2ca02c"/>
<circle cx="454.6" cy="98.5" r="3" fill="#2ca02c"/>
<circle cx="471.8" cy="90.6" r="3" fill="#2ca02c"/>
<circle cx="488.9" cy="98.5" r="3" fill="#2ca02c"/>
<circle cx="506.0" cy="119.0" r="3" fill="#2ca02c"/>
<circle cx="523.1" cy="124.2" r="3" fill="#2ca02c"/>
<circle cx="540.2" cy="117.9" r="3" fill="#2ca02c"/>
<circle cx="557.4" cy="111.6" r="3" fill="#2ca02c"/>
<circle cx="574.5" cy="112.1" r="3" fill="#2ca02c"/>
<circle cx="591.6" cy="111.6" r="3" fill="#2ca02c"/>
<circle cx="608.8" cy="103.7" r="3" fill="#2ca02c"/>
<circle cx="625.9" cy="105.3" r="3" fill="#2ca02c"/>
<circle cx="643.0" cy="114.8" r="3" fill="#2ca02c"/>
<circle cx="660.1" cy="122.1" r="3" fill="#2ca02c"/>
<circle cx="677.2" cy="121.1" r="3" fill="#2ca02c"/>
<circle cx="694.4" cy="108.5" r="3" fill="#2ca02c"/>
<circle cx="711.5" cy="107.4" r="3" fill="#2ca02c"/>
<circle cx="728.6" cy="99.0" r="3" fill="#2ca02c"/>
<circle cx="745.8" cy="97.4" r="3" fill="#2ca02c"/>
<circle cx="762.9" cy="91.6" r="3" fill="#2ca02c"/>
<circle cx="780.0" cy="93.2" r="3" fill="#2ca02c"/>
<line x1="808" y1="146" x2="830" y2="146" stroke="#2ca02c" stroke-width="2.5"/>
<text x="838" y="150" font-family="Arial" font-size="13">batch_token_mean</text>
<text x="437.5" y="618" text-anchor="middle" font-family="Arial" font-size="15">GRPO step</text>
<text x="24" y="316.0" text-anchor="middle" font-family="Arial" font-size="15" transform="rotate(-90 24 316.0)">validation answer reward</text>
</svg>
