<svg xmlns="http://www.w3.org/2000/svg" width="1040" height="640" viewBox="0 0 1040 640">
<rect width="100%" height="100%" fill="white"/>
<text x="520.0" y="36" text-anchor="middle" font-family="Arial" font-size="22" font-weight="700">GRPO gradient norm by length normalization</text>
<line x1="95" y1="558" x2="780" y2="558" stroke="#222" stroke-width="1.5"/>
<line x1="95" y1="74" x2="95" y2="558" stroke="#222" stroke-width="1.5"/>
<line x1="90" y1="558.0" x2="780" y2="558.0" stroke="#ddd" stroke-width="1"/>
<text x="83" y="562.0" text-anchor="end" font-family="Arial" font-size="12">0.00</text>
<line x1="90" y1="461.2" x2="780" y2="461.2" stroke="#ddd" stroke-width="1"/>
<text x="83" y="465.2" text-anchor="end" font-family="Arial" font-size="12">0.38</text>
<line x1="90" y1="364.4" x2="780" y2="364.4" stroke="#ddd" stroke-width="1"/>
<text x="83" y="368.4" text-anchor="end" font-family="Arial" font-size="12">0.76</text>
<line x1="90" y1="267.6" x2="780" y2="267.6" stroke="#ddd" stroke-width="1"/>
<text x="83" y="271.6" text-anchor="end" font-family="Arial" font-size="12">1.14</text>
<line x1="90" y1="170.8" x2="780" y2="170.8" stroke="#ddd" stroke-width="1"/>
<text x="83" y="174.8" text-anchor="end" font-family="Arial" font-size="12">1.52</text>
<line x1="90" y1="74.0" x2="780" y2="74.0" stroke="#ddd" stroke-width="1"/>
<text x="83" y="78.0" text-anchor="end" font-family="Arial" font-size="12">1.90</text>
<line x1="95.0" y1="558" x2="95.0" y2="563" stroke="#222" stroke-width="1"/>
<text x="95.0" y="582" text-anchor="middle" font-family="Arial" font-size="12">1</text>
<line x1="232.0" y1="558" x2="232.0" y2="563" stroke="#222" stroke-width="1"/>
<text x="232.0" y="582" text-anchor="middle" font-family="Arial" font-size="12">41</text>
<line x1="369.0" y1="558" x2="369.0" y2="563" stroke="#222" stroke-width="1"/>
<text x="369.0" y="582" text-anchor="middle" font-family="Arial" font-size="12">81</text>
<line x1="506.0" y1="558" x2="506.0" y2="563" stroke="#222" stroke-width="1"/>
<text x="506.0" y="582" text-anchor="middle" font-family="Arial" font-size="12">120</text>
<line x1="643.0" y1="558" x2="643.0" y2="563" stroke="#222" stroke-width="1"/>
<text x="643.0" y="582" text-anchor="middle" font-family="Arial" font-size="12">160</text>
<line x1="780.0" y1="558" x2="780.0" y2="563" stroke="#222" stroke-width="1"/>
<text x="780.0" y="582" text-anchor="middle" font-family="Arial" font-size="12">200</text>
<polyline fill="none" stroke="#1f77b4" stroke-width="2.3" points="95.0,490.8 98.4,118.2 101.9,74.4 105.3,215.7 108.8,314.2 112.2,346.1 115.7,326.1 119.1,354.0 122.5,361.0 126.0,297.3 129.4,257.5 132.9,358.0 136.3,316.2 139.7,287.3 143.2,360.0 146.6,245.5 150.1,350.0 153.5,301.3 157.0,388.8 160.4,439.1 163.8,404.8 167.3,439.1 170.7,464.0 174.2,444.1 177.6,476.9 181.1,496.6 184.5,486.9 187.9,466.0 191.4,450.0 194.8,497.5 198.3,494.3 201.7,502.3 205.2,463.5 208.6,505.8 212.0,492.3 215.5,505.0 218.9,490.8 222.4,494.3 225.8,506.8 229.2,414.7 232.7,449.5 236.1,506.5 239.6,509.7 243.0,507.7 246.5,479.4 249.9,501.0 253.3,505.8 256.8,495.1 260.2,487.8 263.7,504.8 267.1,517.5 270.6,500.3 274.0,490.8 277.4,434.1 280.9,471.9 284.3,487.4 287.8,452.5 291.2,495.1 294.6,492.8 298.1,510.2 301.5,512.7 305.0,474.9 308.4,467.4 311.9,502.3 315.3,488.8 318.7,523.2 322.2,511.0 325.6,481.4 329.1,503.3 332.5,511.7 336.0,517.2 339.4,522.4 342.8,499.8 346.3,510.7 349.7,507.3 353.2,516.5 356.6,525.9 360.1,505.3 363.5,510.0 366.9,504.5 370.4,513.2 373.8,513.0 377.3,523.7 380.7,505.5 384.1,515.7 387.6,518.2 391.0,516.0 394.5,500.0 397.9,519.2 401.4,525.2 404.8,513.2 408.2,500.0 411.7,530.8 415.1,495.6 418.6,510.5 422.0,503.8 425.5,497.8 428.9,519.9 432.3,444.6 435.8,509.7 439.2,519.7 442.7,502.8 446.1,514.2 449.5,504.0 453.0,493.8 456.4,506.3 459.9,517.0 463.3,500.3 466.8,505.8 470.2,488.3 473.6,495.3 477.1,518.7 480.5,506.0 484.0,521.7 487.4,499.5 490.9,497.5 494.3,519.4 497.7,500.8 501.2,514.2 504.6,515.7 508.1,517.5 511.5,512.2 514.9,522.4 518.4,522.9 521.8,515.7 525.3,512.0 528.7,531.8 532.2,501.5 535.6,496.8 539.0,512.0 542.5,519.4 545.9,493.3 549.4,519.9 552.8,512.5 556.3,509.7 559.7,522.7 563.1,505.8 566.6,523.7 570.0,523.9 573.5,522.9 576.9,523.2 580.4,530.5 583.8,505.8 587.2,522.7 590.7,519.4 594.1,533.9 597.6,505.8 601.0,526.9 604.4,521.2 607.9,516.5 611.3,504.3 614.8,507.0 618.2,529.5 621.7,514.7 625.1,508.5 628.5,480.9 632.0,507.0 635.4,515.2 638.9,522.4 642.3,533.9 645.8,524.7 649.2,515.5 652.6,528.3 656.1,519.7 659.5,510.7 663.0,510.7 666.4,524.7 669.8,514.0 673.3,527.8 676.7,378.9 680.2,524.4 683.6,520.4 687.1,529.5 690.5,513.5 693.9,509.2 697.4,503.0 700.8,526.8 704.3,526.9 707.7,533.0 711.2,518.7 714.6,528.6 718.0,522.9 721.5,521.9 724.9,538.6 728.4,527.3 731.8,528.6 735.3,535.2 738.7,509.7 742.1,519.9 745.6,526.9 749.0,520.2 752.5,525.9 755.9,518.9 759.3,511.7 762.8,518.9 766.2,524.9 769.7,517.0 773.1,495.1 776.6,525.9 780.0,523.4"/>
<circle cx="95.0" cy="490.8" r="3" fill="#1f77b4"/>
<circle cx="98.4" cy="118.2" r="3" fill="#1f77b4"/>
<circle cx="101.9" cy="74.4" r="3" fill="#1f77b4"/>
<circle cx="105.3" cy="215.7" r="3" fill="#1f77b4"/>
<circle cx="108.8" cy="314.2" r="3" fill="#1f77b4"/>
<circle cx="112.2" cy="346.1" r="3" fill="#1f77b4"/>
<circle cx="115.7" cy="326.1" r="3" fill="#1f77b4"/>
<circle cx="119.1" cy="354.0" r="3" fill="#1f77b4"/>
<circle cx="122.5" cy="361.0" r="3" fill="#1f77b4"/>
<circle cx="126.0" cy="297.3" r="3" fill="#1f77b4"/>
<circle cx="129.4" cy="257.5" r="3" fill="#1f77b4"/>
<circle cx="132.9" cy="358.0" r="3" fill="#1f77b4"/>
<circle cx="136.3" cy="316.2" r="3" fill="#1f77b4"/>
<circle cx="139.7" cy="287.3" r="3" fill="#1f77b4"/>
<circle cx="143.2" cy="360.0" r="3" fill="#1f77b4"/>
<circle cx="146.6" cy="245.5" r="3" fill="#1f77b4"/>
<circle cx="150.1" cy="350.0" r="3" fill="#1f77b4"/>
<circle cx="153.5" cy="301.3" r="3" fill="#1f77b4"/>
<circle cx="157.0" cy="388.8" r="3" fill="#1f77b4"/>
<circle cx="160.4" cy="439.1" r="3" fill="#1f77b4"/>
<circle cx="163.8" cy="404.8" r="3" fill="#1f77b4"/>
<circle cx="167.3" cy="439.1" r="3" fill="#1f77b4"/>
<circle cx="170.7" cy="464.0" r="3" fill="#1f77b4"/>
<circle cx="174.2" cy="444.1" r="3" fill="#1f77b4"/>
<circle cx="177.6" cy="476.9" r="3" fill="#1f77b4"/>
<circle cx="181.1" cy="496.6" r="3" fill="#1f77b4"/>
<circle cx="184.5" cy="486.9" r="3" fill="#1f77b4"/>
<circle cx="187.9" cy="466.0" r="3" fill="#1f77b4"/>
<circle cx="191.4" cy="450.0" r="3" fill="#1f77b4"/>
<circle cx="194.8" cy="497.5" r="3" fill="#1f77b4"/>
<circle cx="198.3" cy="494.3" r="3" fill="#1f77b4"/>
<circle cx="201.7" cy="502.3" r="3" fill="#1f77b4"/>
<circle cx="205.2" cy="463.5" r="3" fill="#1f77b4"/>
<circle cx="208.6" cy="505.8" r="3" fill="#1f77b4"/>
<circle cx="212.0" cy="492.3" r="3" fill="#1f77b4"/>
<circle cx="215.5" cy="505.0" r="3" fill="#1f77b4"/>
<circle cx="218.9" cy="490.8" r="3" fill="#1f77b4"/>
<circle cx="222.4" cy="494.3" r="3" fill="#1f77b4"/>
<circle cx="225.8" cy="506.8" r="3" fill="#1f77b4"/>
<circle cx="229.2" cy="414.7" r="3" fill="#1f77b4"/>
<circle cx="232.7" cy="449.5" r="3" fill="#1f77b4"/>
<circle cx="236.1" cy="506.5" r="3" fill="#1f77b4"/>
<circle cx="239.6" cy="509.7" r="3" fill="#1f77b4"/>
<circle cx="243.0" cy="507.7" r="3" fill="#1f77b4"/>
<circle cx="246.5" cy="479.4" r="3" fill="#1f77b4"/>
<circle cx="249.9" cy="501.0" r="3" fill="#1f77b4"/>
<circle cx="253.3" cy="505.8" r="3" fill="#1f77b4"/>
<circle cx="256.8" cy="495.1" r="3" fill="#1f77b4"/>
<circle cx="260.2" cy="487.8" r="3" fill="#1f77b4"/>
<circle cx="263.7" cy="504.8" r="3" fill="#1f77b4"/>
<circle cx="267.1" cy="517.5" r="3" fill="#1f77b4"/>
<circle cx="270.6" cy="500.3" r="3" fill="#1f77b4"/>
<circle cx="274.0" cy="490.8" r="3" fill="#1f77b4"/>
<circle cx="277.4" cy="434.1" r="3" fill="#1f77b4"/>
<circle cx="280.9" cy="471.9" r="3" fill="#1f77b4"/>
<circle cx="284.3" cy="487.4" r="3" fill="#1f77b4"/>
<circle cx="287.8" cy="452.5" r="3" fill="#1f77b4"/>
<circle cx="291.2" cy="495.1" r="3" fill="#1f77b4"/>
<circle cx="294.6" cy="492.8" r="3" fill="#1f77b4"/>
<circle cx="298.1" cy="510.2" r="3" fill="#1f77b4"/>
<circle cx="301.5" cy="512.7" r="3" fill="#1f77b4"/>
<circle cx="305.0" cy="474.9" r="3" fill="#1f77b4"/>
<circle cx="308.4" cy="467.4" r="3" fill="#1f77b4"/>
<circle cx="311.9" cy="502.3" r="3" fill="#1f77b4"/>
<circle cx="315.3" cy="488.8" r="3" fill="#1f77b4"/>
<circle cx="318.7" cy="523.2" r="3" fill="#1f77b4"/>
<circle cx="322.2" cy="511.0" r="3" fill="#1f77b4"/>
<circle cx="325.6" cy="481.4" r="3" fill="#1f77b4"/>
<circle cx="329.1" cy="503.3" r="3" fill="#1f77b4"/>
<circle cx="332.5" cy="511.7" r="3" fill="#1f77b4"/>
<circle cx="336.0" cy="517.2" r="3" fill="#1f77b4"/>
<circle cx="339.4" cy="522.4" r="3" fill="#1f77b4"/>
<circle cx="342.8" cy="499.8" r="3" fill="#1f77b4"/>
<circle cx="346.3" cy="510.7" r="3" fill="#1f77b4"/>
<circle cx="349.7" cy="507.3" r="3" fill="#1f77b4"/>
<circle cx="353.2" cy="516.5" r="3" fill="#1f77b4"/>
<circle cx="356.6" cy="525.9" r="3" fill="#1f77b4"/>
<circle cx="360.1" cy="505.3" r="3" fill="#1f77b4"/>
<circle cx="363.5" cy="510.0" r="3" fill="#1f77b4"/>
<circle cx="366.9" cy="504.5" r="3" fill="#1f77b4"/>
<circle cx="370.4" cy="513.2" r="3" fill="#1f77b4"/>
<circle cx="373.8" cy="513.0" r="3" fill="#1f77b4"/>
<circle cx="377.3" cy="523.7" r="3" fill="#1f77b4"/>
<circle cx="380.7" cy="505.5" r="3" fill="#1f77b4"/>
<circle cx="384.1" cy="515.7" r="3" fill="#1f77b4"/>
<circle cx="387.6" cy="518.2" r="3" fill="#1f77b4"/>
<circle cx="391.0" cy="516.0" r="3" fill="#1f77b4"/>
<circle cx="394.5" cy="500.0" r="3" fill="#1f77b4"/>
<circle cx="397.9" cy="519.2" r="3" fill="#1f77b4"/>
<circle cx="401.4" cy="525.2" r="3" fill="#1f77b4"/>
<circle cx="404.8" cy="513.2" r="3" fill="#1f77b4"/>
<circle cx="408.2" cy="500.0" r="3" fill="#1f77b4"/>
<circle cx="411.7" cy="530.8" r="3" fill="#1f77b4"/>
<circle cx="415.1" cy="495.6" r="3" fill="#1f77b4"/>
<circle cx="418.6" cy="510.5" r="3" fill="#1f77b4"/>
<circle cx="422.0" cy="503.8" r="3" fill="#1f77b4"/>
<circle cx="425.5" cy="497.8" r="3" fill="#1f77b4"/>
<circle cx="428.9" cy="519.9" r="3" fill="#1f77b4"/>
<circle cx="432.3" cy="444.6" r="3" fill="#1f77b4"/>
<circle cx="435.8" cy="509.7" r="3" fill="#1f77b4"/>
<circle cx="439.2" cy="519.7" r="3" fill="#1f77b4"/>
<circle cx="442.7" cy="502.8" r="3" fill="#1f77b4"/>
<circle cx="446.1" cy="514.2" r="3" fill="#1f77b4"/>
<circle cx="449.5" cy="504.0" r="3" fill="#1f77b4"/>
<circle cx="453.0" cy="493.8" r="3" fill="#1f77b4"/>
<circle cx="456.4" cy="506.3" r="3" fill="#1f77b4"/>
<circle cx="459.9" cy="517.0" r="3" fill="#1f77b4"/>
<circle cx="463.3" cy="500.3" r="3" fill="#1f77b4"/>
<circle cx="466.8" cy="505.8" r="3" fill="#1f77b4"/>
<circle cx="470.2" cy="488.3" r="3" fill="#1f77b4"/>
<circle cx="473.6" cy="495.3" r="3" fill="#1f77b4"/>
<circle cx="477.1" cy="518.7" r="3" fill="#1f77b4"/>
<circle cx="480.5" cy="506.0" r="3" fill="#1f77b4"/>
<circle cx="484.0" cy="521.7" r="3" fill="#1f77b4"/>
<circle cx="487.4" cy="499.5" r="3" fill="#1f77b4"/>
<circle cx="490.9" cy="497.5" r="3" fill="#1f77b4"/>
<circle cx="494.3" cy="519.4" r="3" fill="#1f77b4"/>
<circle cx="497.7" cy="500.8" r="3" fill="#1f77b4"/>
<circle cx="501.2" cy="514.2" r="3" fill="#1f77b4"/>
<circle cx="504.6" cy="515.7" r="3" fill="#1f77b4"/>
<circle cx="508.1" cy="517.5" r="3" fill="#1f77b4"/>
<circle cx="511.5" cy="512.2" r="3" fill="#1f77b4"/>
<circle cx="514.9" cy="522.4" r="3" fill="#1f77b4"/>
<circle cx="518.4" cy="522.9" r="3" fill="#1f77b4"/>
<circle cx="521.8" cy="515.7" r="3" fill="#1f77b4"/>
<circle cx="525.3" cy="512.0" r="3" fill="#1f77b4"/>
<circle cx="528.7" cy="531.8" r="3" fill="#1f77b4"/>
<circle cx="532.2" cy="501.5" r="3" fill="#1f77b4"/>
<circle cx="535.6" cy="496.8" r="3" fill="#1f77b4"/>
<circle cx="539.0" cy="512.0" r="3" fill="#1f77b4"/>
<circle cx="542.5" cy="519.4" r="3" fill="#1f77b4"/>
<circle cx="545.9" cy="493.3" r="3" fill="#1f77b4"/>
<circle cx="549.4" cy="519.9" r="3" fill="#1f77b4"/>
<circle cx="552.8" cy="512.5" r="3" fill="#1f77b4"/>
<circle cx="556.3" cy="509.7" r="3" fill="#1f77b4"/>
<circle cx="559.7" cy="522.7" r="3" fill="#1f77b4"/>
<circle cx="563.1" cy="505.8" r="3" fill="#1f77b4"/>
<circle cx="566.6" cy="523.7" r="3" fill="#1f77b4"/>
<circle cx="570.0" cy="523.9" r="3" fill="#1f77b4"/>
<circle cx="573.5" cy="522.9" r="3" fill="#1f77b4"/>
<circle cx="576.9" cy="523.2" r="3" fill="#1f77b4"/>
<circle cx="580.4" cy="530.5" r="3" fill="#1f77b4"/>
<circle cx="583.8" cy="505.8" r="3" fill="#1f77b4"/>
<circle cx="587.2" cy="522.7" r="3" fill="#1f77b4"/>
<circle cx="590.7" cy="519.4" r="3" fill="#1f77b4"/>
<circle cx="594.1" cy="533.9" r="3" fill="#1f77b4"/>
<circle cx="597.6" cy="505.8" r="3" fill="#1f77b4"/>
<circle cx="601.0" cy="526.9" r="3" fill="#1f77b4"/>
<circle cx="604.4" cy="521.2" r="3" fill="#1f77b4"/>
<circle cx="607.9" cy="516.5" r="3" fill="#1f77b4"/>
<circle cx="611.3" cy="504.3" r="3" fill="#1f77b4"/>
<circle cx="614.8" cy="507.0" r="3" fill="#1f77b4"/>
<circle cx="618.2" cy="529.5" r="3" fill="#1f77b4"/>
<circle cx="621.7" cy="514.7" r="3" fill="#1f77b4"/>
<circle cx="625.1" cy="508.5" r="3" fill="#1f77b4"/>
<circle cx="628.5" cy="480.9" r="3" fill="#1f77b4"/>
<circle cx="632.0" cy="507.0" r="3" fill="#1f77b4"/>
<circle cx="635.4" cy="515.2" r="3" fill="#1f77b4"/>
<circle cx="638.9" cy="522.4" r="3" fill="#1f77b4"/>
<circle cx="642.3" cy="533.9" r="3" fill="#1f77b4"/>
<circle cx="645.8" cy="524.7" r="3" fill="#1f77b4"/>
<circle cx="649.2" cy="515.5" r="3" fill="#1f77b4"/>
<circle cx="652.6" cy="528.3" r="3" fill="#1f77b4"/>
<circle cx="656.1" cy="519.7" r="3" fill="#1f77b4"/>
<circle cx="659.5" cy="510.7" r="3" fill="#1f77b4"/>
<circle cx="663.0" cy="510.7" r="3" fill="#1f77b4"/>
<circle cx="666.4" cy="524.7" r="3" fill="#1f77b4"/>
<circle cx="669.8" cy="514.0" r="3" fill="#1f77b4"/>
<circle cx="673.3" cy="527.8" r="3" fill="#1f77b4"/>
<circle cx="676.7" cy="378.9" r="3" fill="#1f77b4"/>
<circle cx="680.2" cy="524.4" r="3" fill="#1f77b4"/>
<circle cx="683.6" cy="520.4" r="3" fill="#1f77b4"/>
<circle cx="687.1" cy="529.5" r="3" fill="#1f77b4"/>
<circle cx="690.5" cy="513.5" r="3" fill="#1f77b4"/>
<circle cx="693.9" cy="509.2" r="3" fill="#1f77b4"/>
<circle cx="697.4" cy="503.0" r="3" fill="#1f77b4"/>
<circle cx="700.8" cy="526.8" r="3" fill="#1f77b4"/>
<circle cx="704.3" cy="526.9" r="3" fill="#1f77b4"/>
<circle cx="707.7" cy="533.0" r="3" fill="#1f77b4"/>
<circle cx="711.2" cy="518.7" r="3" fill="#1f77b4"/>
<circle cx="714.6" cy="528.6" r="3" fill="#1f77b4"/>
<circle cx="718.0" cy="522.9" r="3" fill="#1f77b4"/>
<circle cx="721.5" cy="521.9" r="3" fill="#1f77b4"/>
<circle cx="724.9" cy="538.6" r="3" fill="#1f77b4"/>
<circle cx="728.4" cy="527.3" r="3" fill="#1f77b4"/>
<circle cx="731.8" cy="528.6" r="3" fill="#1f77b4"/>
<circle cx="735.3" cy="535.2" r="3" fill="#1f77b4"/>
<circle cx="738.7" cy="509.7" r="3" fill="#1f77b4"/>
<circle cx="742.1" cy="519.9" r="3" fill="#1f77b4"/>
<circle cx="745.6" cy="526.9" r="3" fill="#1f77b4"/>
<circle cx="749.0" cy="520.2" r="3" fill="#1f77b4"/>
<circle cx="752.5" cy="525.9" r="3" fill="#1f77b4"/>
<circle cx="755.9" cy="518.9" r="3" fill="#1f77b4"/>
<circle cx="759.3" cy="511.7" r="3" fill="#1f77b4"/>
<circle cx="762.8" cy="518.9" r="3" fill="#1f77b4"/>
<circle cx="766.2" cy="524.9" r="3" fill="#1f77b4"/>
<circle cx="769.7" cy="517.0" r="3" fill="#1f77b4"/>
<circle cx="773.1" cy="495.1" r="3" fill="#1f77b4"/>
<circle cx="776.6" cy="525.9" r="3" fill="#1f77b4"/>
<circle cx="780.0" cy="523.4" r="3" fill="#1f77b4"/>
<line x1="808" y1="96" x2="830" y2="96" stroke="#1f77b4" stroke-width="2.5"/>
<text x="838" y="100" font-family="Arial" font-size="13">masked_mean</text>
<polyline fill="none" stroke="#d62728" stroke-width="2.3" points="95.0,553.3 98.4,535.5 101.9,538.0 105.3,546.9 108.8,543.3 112.2,547.1 115.7,538.0 119.1,542.7 122.5,537.7 126.0,531.8 129.4,542.8 132.9,542.5 136.3,538.8 139.7,538.5 143.2,542.2 146.6,538.3 150.1,532.9 153.5,531.6 157.0,528.0 160.4,529.9 163.8,530.8 167.3,529.1 170.7,532.5 174.2,533.2 177.6,536.6 181.1,533.6 184.5,535.1 187.9,534.6 191.4,532.6 194.8,534.9 198.3,539.5 201.7,537.5 205.2,538.1 208.6,539.3 212.0,536.1 215.5,539.5 218.9,541.3 222.4,541.1 225.8,534.2 229.2,540.7 232.7,542.9 236.1,540.5 239.6,535.9 243.0,532.0 246.5,537.8 249.9,538.3 253.3,532.1 256.8,531.5 260.2,529.1 263.7,531.5 267.1,527.4 270.6,526.5 274.0,518.2 277.4,524.9 280.9,523.7 284.3,537.7 287.8,536.9 291.2,541.7 294.6,543.9 298.1,544.8 301.5,547.9 305.0,546.3 308.4,546.9 311.9,545.9 315.3,545.6 318.7,546.7 322.2,547.8 325.6,547.6 329.1,545.3 332.5,547.1 336.0,546.7 339.4,550.6 342.8,549.5 346.3,547.7 349.7,548.6 353.2,548.7 356.6,548.4 360.1,548.4 363.5,548.4 366.9,549.9 370.4,548.5 373.8,547.5 377.3,549.1 380.7,547.1 384.1,549.6 387.6,549.0 391.0,546.7 394.5,547.6 397.9,547.8 401.4,547.2 404.8,543.9 408.2,544.3 411.7,548.5 415.1,543.6 418.6,540.7 422.0,544.3 425.5,541.2 428.9,542.7 432.3,542.2 435.8,543.8 439.2,545.1 442.7,544.5 446.1,546.2 449.5,542.0 453.0,546.7 456.4,543.1 459.9,540.8 463.3,540.5 466.8,542.5 470.2,542.9 473.6,535.0 477.1,538.5 480.5,544.9 484.0,543.5 487.4,545.7 490.9,540.8 494.3,539.1 497.7,543.3 501.2,543.6 504.6,542.8 508.1,541.6 511.5,539.7 514.9,542.3 518.4,542.4 521.8,540.5 525.3,541.6 528.7,543.8 532.2,538.7 535.6,542.3 539.0,544.8 542.5,541.7 545.9,544.8 549.4,541.3 552.8,536.7 556.3,544.4 559.7,547.4 563.1,545.0 566.6,544.0 570.0,545.1 573.5,544.8 576.9,545.3 580.4,541.6 583.8,548.9 587.2,544.5 590.7,542.9 594.1,546.1 597.6,541.5 601.0,543.9 604.4,546.5 607.9,539.2 611.3,542.8 614.8,535.2 618.2,540.6 621.7,536.0 625.1,516.5 628.5,539.8 632.0,532.6 635.4,539.5 638.9,538.1 642.3,538.8 645.8,537.5 649.2,537.7 652.6,541.3 656.1,538.2 659.5,540.3 663.0,537.2 666.4,537.8 669.8,539.6 673.3,538.7 676.7,543.9 680.2,536.7 683.6,540.8 687.1,538.6 690.5,537.6 693.9,541.5 697.4,538.6 700.8,542.7 704.3,542.0 707.7,541.2 711.2,541.5 714.6,538.2 718.0,537.6 721.5,541.5 724.9,544.4 728.4,541.2 731.8,543.8 735.3,546.6 738.7,547.6 742.1,540.8 745.6,542.3 749.0,543.4 752.5,545.4 755.9,544.3 759.3,543.8 762.8,542.3 766.2,539.2 769.7,541.0 773.1,544.7 776.6,541.0 780.0,541.5"/>
<circle cx="95.0" cy="553.3" r="3" fill="#d62728"/>
<circle cx="98.4" cy="535.5" r="3" fill="#d62728"/>
<circle cx="101.9" cy="538.0" r="3" fill="#d62728"/>
<circle cx="105.3" cy="546.9" r="3" fill="#d62728"/>
<circle cx="108.8" cy="543.3" r="3" fill="#d62728"/>
<circle cx="112.2" cy="547.1" r="3" fill="#d62728"/>
<circle cx="115.7" cy="538.0" r="3" fill="#d62728"/>
<circle cx="119.1" cy="542.7" r="3" fill="#d62728"/>
<circle cx="122.5" cy="537.7" r="3" fill="#d62728"/>
<circle cx="126.0" cy="531.8" r="3" fill="#d62728"/>
<circle cx="129.4" cy="542.8" r="3" fill="#d62728"/>
<circle cx="132.9" cy="542.5" r="3" fill="#d62728"/>
<circle cx="136.3" cy="538.8" r="3" fill="#d62728"/>
<circle cx="139.7" cy="538.5" r="3" fill="#d62728"/>
<circle cx="143.2" cy="542.2" r="3" fill="#d62728"/>
<circle cx="146.6" cy="538.3" r="3" fill="#d62728"/>
<circle cx="150.1" cy="532.9" r="3" fill="#d62728"/>
<circle cx="153.5" cy="531.6" r="3" fill="#d62728"/>
<circle cx="157.0" cy="528.0" r="3" fill="#d62728"/>
<circle cx="160.4" cy="529.9" r="3" fill="#d62728"/>
<circle cx="163.8" cy="530.8" r="3" fill="#d62728"/>
<circle cx="167.3" cy="529.1" r="3" fill="#d62728"/>
<circle cx="170.7" cy="532.5" r="3" fill="#d62728"/>
<circle cx="174.2" cy="533.2" r="3" fill="#d62728"/>
<circle cx="177.6" cy="536.6" r="3" fill="#d62728"/>
<circle cx="181.1" cy="533.6" r="3" fill="#d62728"/>
<circle cx="184.5" cy="535.1" r="3" fill="#d62728"/>
<circle cx="187.9" cy="534.6" r="3" fill="#d62728"/>
<circle cx="191.4" cy="532.6" r="3" fill="#d62728"/>
<circle cx="194.8" cy="534.9" r="3" fill="#d62728"/>
<circle cx="198.3" cy="539.5" r="3" fill="#d62728"/>
<circle cx="201.7" cy="537.5" r="3" fill="#d62728"/>
<circle cx="205.2" cy="538.1" r="3" fill="#d62728"/>
<circle cx="208.6" cy="539.3" r="3" fill="#d62728"/>
<circle cx="212.0" cy="536.1" r="3" fill="#d62728"/>
<circle cx="215.5" cy="539.5" r="3" fill="#d62728"/>
<circle cx="218.9" cy="541.3" r="3" fill="#d62728"/>
<circle cx="222.4" cy="541.1" r="3" fill="#d62728"/>
<circle cx="225.8" cy="534.2" r="3" fill="#d62728"/>
<circle cx="229.2" cy="540.7" r="3" fill="#d62728"/>
<circle cx="232.7" cy="542.9" r="3" fill="#d62728"/>
<circle cx="236.1" cy="540.5" r="3" fill="#d62728"/>
<circle cx="239.6" cy="535.9" r="3" fill="#d62728"/>
<circle cx="243.0" cy="532.0" r="3" fill="#d62728"/>
<circle cx="246.5" cy="537.8" r="3" fill="#d62728"/>
<circle cx="249.9" cy="538.3" r="3" fill="#d62728"/>
<circle cx="253.3" cy="532.1" r="3" fill="#d62728"/>
<circle cx="256.8" cy="531.5" r="3" fill="#d62728"/>
<circle cx="260.2" cy="529.1" r="3" fill="#d62728"/>
<circle cx="263.7" cy="531.5" r="3" fill="#d62728"/>
<circle cx="267.1" cy="527.4" r="3" fill="#d62728"/>
<circle cx="270.6" cy="526.5" r="3" fill="#d62728"/>
<circle cx="274.0" cy="518.2" r="3" fill="#d62728"/>
<circle cx="277.4" cy="524.9" r="3" fill="#d62728"/>
<circle cx="280.9" cy="523.7" r="3" fill="#d62728"/>
<circle cx="284.3" cy="537.7" r="3" fill="#d62728"/>
<circle cx="287.8" cy="536.9" r="3" fill="#d62728"/>
<circle cx="291.2" cy="541.7" r="3" fill="#d62728"/>
<circle cx="294.6" cy="543.9" r="3" fill="#d62728"/>
<circle cx="298.1" cy="544.8" r="3" fill="#d62728"/>
<circle cx="301.5" cy="547.9" r="3" fill="#d62728"/>
<circle cx="305.0" cy="546.3" r="3" fill="#d62728"/>
<circle cx="308.4" cy="546.9" r="3" fill="#d62728"/>
<circle cx="311.9" cy="545.9" r="3" fill="#d62728"/>
<circle cx="315.3" cy="545.6" r="3" fill="#d62728"/>
<circle cx="318.7" cy="546.7" r="3" fill="#d62728"/>
<circle cx="322.2" cy="547.8" r="3" fill="#d62728"/>
<circle cx="325.6" cy="547.6" r="3" fill="#d62728"/>
<circle cx="329.1" cy="545.3" r="3" fill="#d62728"/>
<circle cx="332.5" cy="547.1" r="3" fill="#d62728"/>
<circle cx="336.0" cy="546.7" r="3" fill="#d62728"/>
<circle cx="339.4" cy="550.6" r="3" fill="#d62728"/>
<circle cx="342.8" cy="549.5" r="3" fill="#d62728"/>
<circle cx="346.3" cy="547.7" r="3" fill="#d62728"/>
<circle cx="349.7" cy="548.6" r="3" fill="#d62728"/>
<circle cx="353.2" cy="548.7" r="3" fill="#d62728"/>
<circle cx="356.6" cy="548.4" r="3" fill="#d62728"/>
<circle cx="360.1" cy="548.4" r="3" fill="#d62728"/>
<circle cx="363.5" cy="548.4" r="3" fill="#d62728"/>
<circle cx="366.9" cy="549.9" r="3" fill="#d62728"/>
<circle cx="370.4" cy="548.5" r="3" fill="#d62728"/>
<circle cx="373.8" cy="547.5" r="3" fill="#d62728"/>
<circle cx="377.3" cy="549.1" r="3" fill="#d62728"/>
<circle cx="380.7" cy="547.1" r="3" fill="#d62728"/>
<circle cx="384.1" cy="549.6" r="3" fill="#d62728"/>
<circle cx="387.6" cy="549.0" r="3" fill="#d62728"/>
<circle cx="391.0" cy="546.7" r="3" fill="#d62728"/>
<circle cx="394.5" cy="547.6" r="3" fill="#d62728"/>
<circle cx="397.9" cy="547.8" r="3" fill="#d62728"/>
<circle cx="401.4" cy="547.2" r="3" fill="#d62728"/>
<circle cx="404.8" cy="543.9" r="3" fill="#d62728"/>
<circle cx="408.2" cy="544.3" r="3" fill="#d62728"/>
<circle cx="411.7" cy="548.5" r="3" fill="#d62728"/>
<circle cx="415.1" cy="543.6" r="3" fill="#d62728"/>
<circle cx="418.6" cy="540.7" r="3" fill="#d62728"/>
<circle cx="422.0" cy="544.3" r="3" fill="#d62728"/>
<circle cx="425.5" cy="541.2" r="3" fill="#d62728"/>
<circle cx="428.9" cy="542.7" r="3" fill="#d62728"/>
<circle cx="432.3" cy="542.2" r="3" fill="#d62728"/>
<circle cx="435.8" cy="543.8" r="3" fill="#d62728"/>
<circle cx="439.2" cy="545.1" r="3" fill="#d62728"/>
<circle cx="442.7" cy="544.5" r="3" fill="#d62728"/>
<circle cx="446.1" cy="546.2" r="3" fill="#d62728"/>
<circle cx="449.5" cy="542.0" r="3" fill="#d62728"/>
<circle cx="453.0" cy="546.7" r="3" fill="#d62728"/>
<circle cx="456.4" cy="543.1" r="3" fill="#d62728"/>
<circle cx="459.9" cy="540.8" r="3" fill="#d62728"/>
<circle cx="463.3" cy="540.5" r="3" fill="#d62728"/>
<circle cx="466.8" cy="542.5" r="3" fill="#d62728"/>
<circle cx="470.2" cy="542.9" r="3" fill="#d62728"/>
<circle cx="473.6" cy="535.0" r="3" fill="#d62728"/>
<circle cx="477.1" cy="538.5" r="3" fill="#d62728"/>
<circle cx="480.5" cy="544.9" r="3" fill="#d62728"/>
<circle cx="484.0" cy="543.5" r="3" fill="#d62728"/>
<circle cx="487.4" cy="545.7" r="3" fill="#d62728"/>
<circle cx="490.9" cy="540.8" r="3" fill="#d62728"/>
<circle cx="494.3" cy="539.1" r="3" fill="#d62728"/>
<circle cx="497.7" cy="543.3" r="3" fill="#d62728"/>
<circle cx="501.2" cy="543.6" r="3" fill="#d62728"/>
<circle cx="504.6" cy="542.8" r="3" fill="#d62728"/>
<circle cx="508.1" cy="541.6" r="3" fill="#d62728"/>
<circle cx="511.5" cy="539.7" r="3" fill="#d62728"/>
<circle cx="514.9" cy="542.3" r="3" fill="#d62728"/>
<circle cx="518.4" cy="542.4" r="3" fill="#d62728"/>
<circle cx="521.8" cy="540.5" r="3" fill="#d62728"/>
<circle cx="525.3" cy="541.6" r="3" fill="#d62728"/>
<circle cx="528.7" cy="543.8" r="3" fill="#d62728"/>
<circle cx="532.2" cy="538.7" r="3" fill="#d62728"/>
<circle cx="535.6" cy="542.3" r="3" fill="#d62728"/>
<circle cx="539.0" cy="544.8" r="3" fill="#d62728"/>
<circle cx="542.5" cy="541.7" r="3" fill="#d62728"/>
<circle cx="545.9" cy="544.8" r="3" fill="#d62728"/>
<circle cx="549.4" cy="541.3" r="3" fill="#d62728"/>
<circle cx="552.8" cy="536.7" r="3" fill="#d62728"/>
<circle cx="556.3" cy="544.4" r="3" fill="#d62728"/>
<circle cx="559.7" cy="547.4" r="3" fill="#d62728"/>
<circle cx="563.1" cy="545.0" r="3" fill="#d62728"/>
<circle cx="566.6" cy="544.0" r="3" fill="#d62728"/>
<circle cx="570.0" cy="545.1" r="3" fill="#d62728"/>
<circle cx="573.5" cy="544.8" r="3" fill="#d62728"/>
<circle cx="576.9" cy="545.3" r="3" fill="#d62728"/>
<circle cx="580.4" cy="541.6" r="3" fill="#d62728"/>
<circle cx="583.8" cy="548.9" r="3" fill="#d62728"/>
<circle cx="587.2" cy="544.5" r="3" fill="#d62728"/>
<circle cx="590.7" cy="542.9" r="3" fill="#d62728"/>
<circle cx="594.1" cy="546.1" r="3" fill="#d62728"/>
<circle cx="597.6" cy="541.5" r="3" fill="#d62728"/>
<circle cx="601.0" cy="543.9" r="3" fill="#d62728"/>
<circle cx="604.4" cy="546.5" r="3" fill="#d62728"/>
<circle cx="607.9" cy="539.2" r="3" fill="#d62728"/>
<circle cx="611.3" cy="542.8" r="3" fill="#d62728"/>
<circle cx="614.8" cy="535.2" r="3" fill="#d62728"/>
<circle cx="618.2" cy="540.6" r="3" fill="#d62728"/>
<circle cx="621.7" cy="536.0" r="3" fill="#d62728"/>
<circle cx="625.1" cy="516.5" r="3" fill="#d62728"/>
<circle cx="628.5" cy="539.8" r="3" fill="#d62728"/>
<circle cx="632.0" cy="532.6" r="3" fill="#d62728"/>
<circle cx="635.4" cy="539.5" r="3" fill="#d62728"/>
<circle cx="638.9" cy="538.1" r="3" fill="#d62728"/>
<circle cx="642.3" cy="538.8" r="3" fill="#d62728"/>
<circle cx="645.8" cy="537.5" r="3" fill="#d62728"/>
<circle cx="649.2" cy="537.7" r="3" fill="#d62728"/>
<circle cx="652.6" cy="541.3" r="3" fill="#d62728"/>
<circle cx="656.1" cy="538.2" r="3" fill="#d62728"/>
<circle cx="659.5" cy="540.3" r="3" fill="#d62728"/>
<circle cx="663.0" cy="537.2" r="3" fill="#d62728"/>
<circle cx="666.4" cy="537.8" r="3" fill="#d62728"/>
<circle cx="669.8" cy="539.6" r="3" fill="#d62728"/>
<circle cx="673.3" cy="538.7" r="3" fill="#d62728"/>
<circle cx="676.7" cy="543.9" r="3" fill="#d62728"/>
<circle cx="680.2" cy="536.7" r="3" fill="#d62728"/>
<circle cx="683.6" cy="540.8" r="3" fill="#d62728"/>
<circle cx="687.1" cy="538.6" r="3" fill="#d62728"/>
<circle cx="690.5" cy="537.6" r="3" fill="#d62728"/>
<circle cx="693.9" cy="541.5" r="3" fill="#d62728"/>
<circle cx="697.4" cy="538.6" r="3" fill="#d62728"/>
<circle cx="700.8" cy="542.7" r="3" fill="#d62728"/>
<circle cx="704.3" cy="542.0" r="3" fill="#d62728"/>
<circle cx="707.7" cy="541.2" r="3" fill="#d62728"/>
<circle cx="711.2" cy="541.5" r="3" fill="#d62728"/>
<circle cx="714.6" cy="538.2" r="3" fill="#d62728"/>
<circle cx="718.0" cy="537.6" r="3" fill="#d62728"/>
<circle cx="721.5" cy="541.5" r="3" fill="#d62728"/>
<circle cx="724.9" cy="544.4" r="3" fill="#d62728"/>
<circle cx="728.4" cy="541.2" r="3" fill="#d62728"/>
<circle cx="731.8" cy="543.8" r="3" fill="#d62728"/>
<circle cx="735.3" cy="546.6" r="3" fill="#d62728"/>
<circle cx="738.7" cy="547.6" r="3" fill="#d62728"/>
<circle cx="742.1" cy="540.8" r="3" fill="#d62728"/>
<circle cx="745.6" cy="542.3" r="3" fill="#d62728"/>
<circle cx="749.0" cy="543.4" r="3" fill="#d62728"/>
<circle cx="752.5" cy="545.4" r="3" fill="#d62728"/>
<circle cx="755.9" cy="544.3" r="3" fill="#d62728"/>
<circle cx="759.3" cy="543.8" r="3" fill="#d62728"/>
<circle cx="762.8" cy="542.3" r="3" fill="#d62728"/>
<circle cx="766.2" cy="539.2" r="3" fill="#d62728"/>
<circle cx="769.7" cy="541.0" r="3" fill="#d62728"/>
<circle cx="773.1" cy="544.7" r="3" fill="#d62728"/>
<circle cx="776.6" cy="541.0" r="3" fill="#d62728"/>
<circle cx="780.0" cy="541.5" r="3" fill="#d62728"/>
<line x1="808" y1="121" x2="830" y2="121" stroke="#d62728" stroke-width="2.5"/>
<text x="838" y="125" font-family="Arial" font-size="13">masked_normalize</text>
<polyline fill="none" stroke="#2ca02c" stroke-width="2.3" points="95.0,542.4 98.4,446.6 101.9,453.0 105.3,392.8 108.8,375.9 112.2,418.7 115.7,331.1 119.1,372.9 122.5,362.0 126.0,285.4 129.4,364.0 132.9,325.2 136.3,411.7 139.7,388.8 143.2,399.8 146.6,401.8 150.1,381.9 153.5,400.8 157.0,345.1 160.4,392.8 163.8,392.8 167.3,440.1 170.7,448.5 174.2,427.6 177.6,440.1 181.1,434.6 184.5,476.9 187.9,464.5 191.4,502.3 194.8,511.0 198.3,497.8 201.7,493.8 205.2,510.0 208.6,504.8 212.0,509.5 215.5,510.7 218.9,506.0 222.4,508.5 225.8,503.8 229.2,517.7 232.7,507.3 236.1,517.0 239.6,514.0 243.0,524.4 246.5,527.3 249.9,521.7 253.3,513.2 256.8,532.4 260.2,517.7 263.7,527.2 267.1,516.2 270.6,517.7 274.0,515.0 277.4,520.9 280.9,522.9 284.3,520.9 287.8,512.2 291.2,523.4 294.6,516.0 298.1,518.9 301.5,523.7 305.0,517.5 308.4,520.7 311.9,517.9 315.3,510.0 318.7,525.4 322.2,521.9 325.6,507.5 329.1,515.2 332.5,514.0 336.0,527.8 339.4,519.4 342.8,522.9 346.3,508.5 349.7,520.4 353.2,509.7 356.6,506.8 360.1,503.5 363.5,486.4 366.9,456.0 370.4,517.7 373.8,505.0 377.3,511.2 380.7,515.5 384.1,493.8 387.6,497.8 391.0,511.7 394.5,509.2 397.9,519.7 401.4,517.7 404.8,516.5 408.2,497.1 411.7,509.0 415.1,503.8 418.6,505.0 422.0,512.7 425.5,507.7 428.9,506.8 432.3,506.0 435.8,490.3 439.2,517.5 442.7,502.0 446.1,512.7 449.5,509.7 453.0,492.8 456.4,505.3 459.9,514.0 463.3,514.5 466.8,503.5 470.2,507.0 473.6,512.0 477.1,504.5 480.5,510.7 484.0,512.7 487.4,511.5 490.9,499.5 494.3,508.5 497.7,509.5 501.2,503.5 504.6,488.3 508.1,491.8 511.5,497.3 514.9,500.0 518.4,499.0 521.8,492.8 525.3,502.8 528.7,507.7 532.2,484.4 535.6,491.3 539.0,498.8 542.5,497.3 545.9,505.5 549.4,486.4 552.8,494.8 556.3,511.7 559.7,496.1 563.1,495.8 566.6,497.5 570.0,513.0 573.5,508.5 576.9,493.8 580.4,498.0 583.8,496.8 587.2,509.2 590.7,499.5 594.1,497.1 597.6,507.7 601.0,484.4 604.4,502.3 607.9,482.4 611.3,502.3 614.8,487.4 618.2,485.9 621.7,490.3 625.1,505.3 628.5,489.8 632.0,491.3 635.4,480.4 638.9,517.2 642.3,509.5 645.8,498.5 649.2,484.9 652.6,510.5 656.1,498.0 659.5,487.4 663.0,484.9 666.4,497.5 669.8,494.8 673.3,480.9 676.7,488.8 680.2,485.4 683.6,496.6 687.1,505.0 690.5,488.8 693.9,502.8 697.4,477.9 700.8,507.0 704.3,528.3 707.7,513.0 711.2,512.5 714.6,518.4 718.0,507.5 721.5,507.5 724.9,514.0 728.4,515.0 731.8,515.2 735.3,520.2 738.7,520.4 742.1,513.5 745.6,512.0 749.0,513.5 752.5,530.1 755.9,505.8 759.3,493.8 762.8,516.7 766.2,509.7 769.7,505.3 773.1,504.8 776.6,501.5 780.0,508.7"/>
<circle cx="95.0" cy="542.4" r="3" fill="#2ca02c"/>
<circle cx="98.4" cy="446.6" r="3" fill="#2ca02c"/>
<circle cx="101.9" cy="453.0" r="3" fill="#2ca02c"/>
<circle cx="105.3" cy="392.8" r="3" fill="#2ca02c"/>
<circle cx="108.8" cy="375.9" r="3" fill="#2ca02c"/>
<circle cx="112.2" cy="418.7" r="3" fill="#2ca02c"/>
<circle cx="115.7" cy="331.1" r="3" fill="#2ca02c"/>
<circle cx="119.1" cy="372.9" r="3" fill="#2ca02c"/>
<circle cx="122.5" cy="362.0" r="3" fill="#2ca02c"/>
<circle cx="126.0" cy="285.4" r="3" fill="#2ca02c"/>
<circle cx="129.4" cy="364.0" r="3" fill="#2ca02c"/>
<circle cx="132.9" cy="325.2" r="3" fill="#2ca02c"/>
<circle cx="136.3" cy="411.7" r="3" fill="#2ca02c"/>
<circle cx="139.7" cy="388.8" r="3" fill="#2ca02c"/>
<circle cx="143.2" cy="399.8" r="3" fill="#2ca02c"/>
<circle cx="146.6" cy="401.8" r="3" fill="#2ca02c"/>
<circle cx="150.1" cy="381.9" r="3" fill="#2ca02c"/>
<circle cx="153.5" cy="400.8" r="3" fill="#2ca02c"/>
<circle cx="157.0" cy="345.1" r="3" fill="#2ca02c"/>
<circle cx="160.4" cy="392.8" r="3" fill="#2ca02c"/>
<circle cx="163.8" cy="392.8" r="3" fill="#2ca02c"/>
<circle cx="167.3" cy="440.1" r="3" fill="#2ca02c"/>
<circle cx="170.7" cy="448.5" r="3" fill="#2ca02c"/>
<circle cx="174.2" cy="427.6" r="3" fill="#2ca02c"/>
<circle cx="177.6" cy="440.1" r="3" fill="#2ca02c"/>
<circle cx="181.1" cy="434.6" r="3" fill="#2ca02c"/>
<circle cx="184.5" cy="476.9" r="3" fill="#2ca02c"/>
<circle cx="187.9" cy="464.5" r="3" fill="#2ca02c"/>
<circle cx="191.4" cy="502.3" r="3" fill="#2ca02c"/>
<circle cx="194.8" cy="511.0" r="3" fill="#2ca02c"/>
<circle cx="198.3" cy="497.8" r="3" fill="#2ca02c"/>
<circle cx="201.7" cy="493.8" r="3" fill="#2ca02c"/>
<circle cx="205.2" cy="510.0" r="3" fill="#2ca02c"/>
<circle cx="208.6" cy="504.8" r="3" fill="#2ca02c"/>
<circle cx="212.0" cy="509.5" r="3" fill="#2ca02c"/>
<circle cx="215.5" cy="510.7" r="3" fill="#2ca02c"/>
<circle cx="218.9" cy="506.0" r="3" fill="#2ca02c"/>
<circle cx="222.4" cy="508.5" r="3" fill="#2ca02c"/>
<circle cx="225.8" cy="503.8" r="3" fill="#2ca02c"/>
<circle cx="229.2" cy="517.7" r="3" fill="#2ca02c"/>
<circle cx="232.7" cy="507.3" r="3" fill="#2ca02c"/>
<circle cx="236.1" cy="517.0" r="3" fill="#2ca02c"/>
<circle cx="239.6" cy="514.0" r="3" fill="#2ca02c"/>
<circle cx="243.0" cy="524.4" r="3" fill="#2ca02c"/>
<circle cx="246.5" cy="527.3" r="3" fill="#2ca02c"/>
<circle cx="249.9" cy="521.7" r="3" fill="#2ca02c"/>
<circle cx="253.3" cy="513.2" r="3" fill="#2ca02c"/>
<circle cx="256.8" cy="532.4" r="3" fill="#2ca02c"/>
<circle cx="260.2" cy="517.7" r="3" fill="#2ca02c"/>
<circle cx="263.7" cy="527.2" r="3" fill="#2ca02c"/>
<circle cx="267.1" cy="516.2" r="3" fill="#2ca02c"/>
<circle cx="270.6" cy="517.7" r="3" fill="#2ca02c"/>
<circle cx="274.0" cy="515.0" r="3" fill="#2ca02c"/>
<circle cx="277.4" cy="520.9" r="3" fill="#2ca02c"/>
<circle cx="280.9" cy="522.9" r="3" fill="#2ca02c"/>
<circle cx="284.3" cy="520.9" r="3" fill="#2ca02c"/>
<circle cx="287.8" cy="512.2" r="3" fill="#2ca02c"/>
<circle cx="291.2" cy="523.4" r="3" fill="#2ca02c"/>
<circle cx="294.6" cy="516.0" r="3" fill="#2ca02c"/>
<circle cx="298.1" cy="518.9" r="3" fill="#2ca02c"/>
<circle cx="301.5" cy="523.7" r="3" fill="#2ca02c"/>
<circle cx="305.0" cy="517.5" r="3" fill="#2ca02c"/>
<circle cx="308.4" cy="520.7" r="3" fill="#2ca02c"/>
<circle cx="311.9" cy="517.9" r="3" fill="#2ca02c"/>
<circle cx="315.3" cy="510.0" r="3" fill="#2ca02c"/>
<circle cx="318.7" cy="525.4" r="3" fill="#2ca02c"/>
<circle cx="322.2" cy="521.9" r="3" fill="#2ca02c"/>
<circle cx="325.6" cy="507.5" r="3" fill="#2ca02c"/>
<circle cx="329.1" cy="515.2" r="3" fill="#2ca02c"/>
<circle cx="332.5" cy="514.0" r="3" fill="#2ca02c"/>
<circle cx="336.0" cy="527.8" r="3" fill="#2ca02c"/>
<circle cx="339.4" cy="519.4" r="3" fill="#2ca02c"/>
<circle cx="342.8" cy="522.9" r="3" fill="#2ca02c"/>
<circle cx="346.3" cy="508.5" r="3" fill="#2ca02c"/>
<circle cx="349.7" cy="520.4" r="3" fill="#2ca02c"/>
<circle cx="353.2" cy="509.7" r="3" fill="#2ca02c"/>
<circle cx="356.6" cy="506.8" r="3" fill="#2ca02c"/>
<circle cx="360.1" cy="503.5" r="3" fill="#2ca02c"/>
<circle cx="363.5" cy="486.4" r="3" fill="#2ca02c"/>
<circle cx="366.9" cy="456.0" r="3" fill="#2ca02c"/>
<circle cx="370.4" cy="517.7" r="3" fill="#2ca02c"/>
<circle cx="373.8" cy="505.0" r="3" fill="#2ca02c"/>
<circle cx="377.3" cy="511.2" r="3" fill="#2ca02c"/>
<circle cx="380.7" cy="515.5" r="3" fill="#2ca02c"/>
<circle cx="384.1" cy="493.8" r="3" fill="#2ca02c"/>
<circle cx="387.6" cy="497.8" r="3" fill="#2ca02c"/>
<circle cx="391.0" cy="511.7" r="3" fill="#2ca02c"/>
<circle cx="394.5" cy="509.2" r="3" fill="#2ca02c"/>
<circle cx="397.9" cy="519.7" r="3" fill="#2ca02c"/>
<circle cx="401.4" cy="517.7" r="3" fill="#2ca02c"/>
<circle cx="404.8" cy="516.5" r="3" fill="#2ca02c"/>
<circle cx="408.2" cy="497.1" r="3" fill="#2ca02c"/>
<circle cx="411.7" cy="509.0" r="3" fill="#2ca02c"/>
<circle cx="415.1" cy="503.8" r="3" fill="#2ca02c"/>
<circle cx="418.6" cy="505.0" r="3" fill="#2ca02c"/>
<circle cx="422.0" cy="512.7" r="3" fill="#2ca02c"/>
<circle cx="425.5" cy="507.7" r="3" fill="#2ca02c"/>
<circle cx="428.9" cy="506.8" r="3" fill="#2ca02c"/>
<circle cx="432.3" cy="506.0" r="3" fill="#2ca02c"/>
<circle cx="435.8" cy="490.3" r="3" fill="#2ca02c"/>
<circle cx="439.2" cy="517.5" r="3" fill="#2ca02c"/>
<circle cx="442.7" cy="502.0" r="3" fill="#2ca02c"/>
<circle cx="446.1" cy="512.7" r="3" fill="#2ca02c"/>
<circle cx="449.5" cy="509.7" r="3" fill="#2ca02c"/>
<circle cx="453.0" cy="492.8" r="3" fill="#2ca02c"/>
<circle cx="456.4" cy="505.3" r="3" fill="#2ca02c"/>
<circle cx="459.9" cy="514.0" r="3" fill="#2ca02c"/>
<circle cx="463.3" cy="514.5" r="3" fill="#2ca02c"/>
<circle cx="466.8" cy="503.5" r="3" fill="#2ca02c"/>
<circle cx="470.2" cy="507.0" r="3" fill="#2ca02c"/>
<circle cx="473.6" cy="512.0" r="3" fill="#2ca02c"/>
<circle cx="477.1" cy="504.5" r="3" fill="#2ca02c"/>
<circle cx="480.5" cy="510.7" r="3" fill="#2ca02c"/>
<circle cx="484.0" cy="512.7" r="3" fill="#2ca02c"/>
<circle cx="487.4" cy="511.5" r="3" fill="#2ca02c"/>
<circle cx="490.9" cy="499.5" r="3" fill="#2ca02c"/>
<circle cx="494.3" cy="508.5" r="3" fill="#2ca02c"/>
<circle cx="497.7" cy="509.5" r="3" fill="#2ca02c"/>
<circle cx="501.2" cy="503.5" r="3" fill="#2ca02c"/>
<circle cx="504.6" cy="488.3" r="3" fill="#2ca02c"/>
<circle cx="508.1" cy="491.8" r="3" fill="#2ca02c"/>
<circle cx="511.5" cy="497.3" r="3" fill="#2ca02c"/>
<circle cx="514.9" cy="500.0" r="3" fill="#2ca02c"/>
<circle cx="518.4" cy="499.0" r="3" fill="#2ca02c"/>
<circle cx="521.8" cy="492.8" r="3" fill="#2ca02c"/>
<circle cx="525.3" cy="502.8" r="3" fill="#2ca02c"/>
<circle cx="528.7" cy="507.7" r="3" fill="#2ca02c"/>
<circle cx="532.2" cy="484.4" r="3" fill="#2ca02c"/>
<circle cx="535.6" cy="491.3" r="3" fill="#2ca02c"/>
<circle cx="539.0" cy="498.8" r="3" fill="#2ca02c"/>
<circle cx="542.5" cy="497.3" r="3" fill="#2ca02c"/>
<circle cx="545.9" cy="505.5" r="3" fill="#2ca02c"/>
<circle cx="549.4" cy="486.4" r="3" fill="#2ca02c"/>
<circle cx="552.8" cy="494.8" r="3" fill="#2ca02c"/>
<circle cx="556.3" cy="511.7" r="3" fill="#2ca02c"/>
<circle cx="559.7" cy="496.1" r="3" fill="#2ca02c"/>
<circle cx="563.1" cy="495.8" r="3" fill="#2ca02c"/>
<circle cx="566.6" cy="497.5" r="3" fill="#2ca02c"/>
<circle cx="570.0" cy="513.0" r="3" fill="#2ca02c"/>
<circle cx="573.5" cy="508.5" r="3" fill="#2ca02c"/>
<circle cx="576.9" cy="493.8" r="3" fill="#2ca02c"/>
<circle cx="580.4" cy="498.0" r="3" fill="#2ca02c"/>
<circle cx="583.8" cy="496.8" r="3" fill="#2ca02c"/>
<circle cx="587.2" cy="509.2" r="3" fill="#2ca02c"/>
<circle cx="590.7" cy="499.5" r="3" fill="#2ca02c"/>
<circle cx="594.1" cy="497.1" r="3" fill="#2ca02c"/>
<circle cx="597.6" cy="507.7" r="3" fill="#2ca02c"/>
<circle cx="601.0" cy="484.4" r="3" fill="#2ca02c"/>
<circle cx="604.4" cy="502.3" r="3" fill="#2ca02c"/>
<circle cx="607.9" cy="482.4" r="3" fill="#2ca02c"/>
<circle cx="611.3" cy="502.3" r="3" fill="#2ca02c"/>
<circle cx="614.8" cy="487.4" r="3" fill="#2ca02c"/>
<circle cx="618.2" cy="485.9" r="3" fill="#2ca02c"/>
<circle cx="621.7" cy="490.3" r="3" fill="#2ca02c"/>
<circle cx="625.1" cy="505.3" r="3" fill="#2ca02c"/>
<circle cx="628.5" cy="489.8" r="3" fill="#2ca02c"/>
<circle cx="632.0" cy="491.3" r="3" fill="#2ca02c"/>
<circle cx="635.4" cy="480.4" r="3" fill="#2ca02c"/>
<circle cx="638.9" cy="517.2" r="3" fill="#2ca02c"/>
<circle cx="642.3" cy="509.5" r="3" fill="#2ca02c"/>
<circle cx="645.8" cy="498.5" r="3" fill="#2ca02c"/>
<circle cx="649.2" cy="484.9" r="3" fill="#2ca02c"/>
<circle cx="652.6" cy="510.5" r="3" fill="#2ca02c"/>
<circle cx="656.1" cy="498.0" r="3" fill="#2ca02c"/>
<circle cx="659.5" cy="487.4" r="3" fill="#2ca02c"/>
<circle cx="663.0" cy="484.9" r="3" fill="#2ca02c"/>
<circle cx="666.4" cy="497.5" r="3" fill="#2ca02c"/>
<circle cx="669.8" cy="494.8" r="3" fill="#2ca02c"/>
<circle cx="673.3" cy="480.9" r="3" fill="#2ca02c"/>
<circle cx="676.7" cy="488.8" r="3" fill="#2ca02c"/>
<circle cx="680.2" cy="485.4" r="3" fill="#2ca02c"/>
<circle cx="683.6" cy="496.6" r="3" fill="#2ca02c"/>
<circle cx="687.1" cy="505.0" r="3" fill="#2ca02c"/>
<circle cx="690.5" cy="488.8" r="3" fill="#2ca02c"/>
<circle cx="693.9" cy="502.8" r="3" fill="#2ca02c"/>
<circle cx="697.4" cy="477.9" r="3" fill="#2ca02c"/>
<circle cx="700.8" cy="507.0" r="3" fill="#2ca02c"/>
<circle cx="704.3" cy="528.3" r="3" fill="#2ca02c"/>
<circle cx="707.7" cy="513.0" r="3" fill="#2ca02c"/>
<circle cx="711.2" cy="512.5" r="3" fill="#2ca02c"/>
<circle cx="714.6" cy="518.4" r="3" fill="#2ca02c"/>
<circle cx="718.0" cy="507.5" r="3" fill="#2ca02c"/>
<circle cx="721.5" cy="507.5" r="3" fill="#2ca02c"/>
<circle cx="724.9" cy="514.0" r="3" fill="#2ca02c"/>
<circle cx="728.4" cy="515.0" r="3" fill="#2ca02c"/>
<circle cx="731.8" cy="515.2" r="3" fill="#2ca02c"/>
<circle cx="735.3" cy="520.2" r="3" fill="#2ca02c"/>
<circle cx="738.7" cy="520.4" r="3" fill="#2ca02c"/>
<circle cx="742.1" cy="513.5" r="3" fill="#2ca02c"/>
<circle cx="745.6" cy="512.0" r="3" fill="#2ca02c"/>
<circle cx="749.0" cy="513.5" r="3" fill="#2ca02c"/>
<circle cx="752.5" cy="530.1" r="3" fill="#2ca02c"/>
<circle cx="755.9" cy="505.8" r="3" fill="#2ca02c"/>
<circle cx="759.3" cy="493.8" r="3" fill="#2ca02c"/>
<circle cx="762.8" cy="516.7" r="3" fill="#2ca02c"/>
<circle cx="766.2" cy="509.7" r="3" fill="#2ca02c"/>
<circle cx="769.7" cy="505.3" r="3" fill="#2ca02c"/>
<circle cx="773.1" cy="504.8" r="3" fill="#2ca02c"/>
<circle cx="776.6" cy="501.5" r="3" fill="#2ca02c"/>
<circle cx="780.0" cy="508.7" r="3" fill="#2ca02c"/>
<line x1="808" y1="146" x2="830" y2="146" stroke="#2ca02c" stroke-width="2.5"/>
<text x="838" y="150" font-family="Arial" font-size="13">batch_token_mean</text>
<text x="437.5" y="618" text-anchor="middle" font-family="Arial" font-size="15">GRPO step</text>
<text x="24" y="316.0" text-anchor="middle" font-family="Arial" font-size="15" transform="rotate(-90 24 316.0)">pre-clip gradient norm</text>
</svg>
