<svg xmlns="http://www.w3.org/2000/svg" width="1040" height="640" viewBox="0 0 1040 640">
<rect width="100%" height="100%" fill="white"/>
<text x="520.0" y="36" text-anchor="middle" font-family="Arial" font-size="22" font-weight="700">GRPO token entropy by length normalization</text>
<line x1="95" y1="558" x2="780" y2="558" stroke="#222" stroke-width="1.5"/>
<line x1="95" y1="74" x2="95" y2="558" stroke="#222" stroke-width="1.5"/>
<line x1="90" y1="558.0" x2="780" y2="558.0" stroke="#ddd" stroke-width="1"/>
<text x="83" y="562.0" text-anchor="end" font-family="Arial" font-size="12">0.00</text>
<line x1="90" y1="461.2" x2="780" y2="461.2" stroke="#ddd" stroke-width="1"/>
<text x="83" y="465.2" text-anchor="end" font-family="Arial" font-size="12">0.20</text>
<line x1="90" y1="364.4" x2="780" y2="364.4" stroke="#ddd" stroke-width="1"/>
<text x="83" y="368.4" text-anchor="end" font-family="Arial" font-size="12">0.40</text>
<line x1="90" y1="267.6" x2="780" y2="267.6" stroke="#ddd" stroke-width="1"/>
<text x="83" y="271.6" text-anchor="end" font-family="Arial" font-size="12">0.60</text>
<line x1="90" y1="170.8" x2="780" y2="170.8" stroke="#ddd" stroke-width="1"/>
<text x="83" y="174.8" text-anchor="end" font-family="Arial" font-size="12">0.80</text>
<line x1="90" y1="74.0" x2="780" y2="74.0" stroke="#ddd" stroke-width="1"/>
<text x="83" y="78.0" text-anchor="end" font-family="Arial" font-size="12">1.00</text>
<line x1="95.0" y1="558" x2="95.0" y2="563" stroke="#222" stroke-width="1"/>
<text x="95.0" y="582" text-anchor="middle" font-family="Arial" font-size="12">1</text>
<line x1="232.0" y1="558" x2="232.0" y2="563" stroke="#222" stroke-width="1"/>
<text x="232.0" y="582" text-anchor="middle" font-family="Arial" font-size="12">41</text>
<line x1="369.0" y1="558" x2="369.0" y2="563" stroke="#222" stroke-width="1"/>
<text x="369.0" y="582" text-anchor="middle" font-family="Arial" font-size="12">81</text>
<line x1="506.0" y1="558" x2="506.0" y2="563" stroke="#222" stroke-width="1"/>
<text x="506.0" y="582" text-anchor="middle" font-family="Arial" font-size="12">120</text>
<line x1="643.0" y1="558" x2="643.0" y2="563" stroke="#222" stroke-width="1"/>
<text x="643.0" y="582" text-anchor="middle" font-family="Arial" font-size="12">160</text>
<line x1="780.0" y1="558" x2="780.0" y2="563" stroke="#222" stroke-width="1"/>
<text x="780.0" y="582" text-anchor="middle" font-family="Arial" font-size="12">200</text>
<polyline fill="none" stroke="#1f77b4" stroke-width="2.3" points="95.0,110.9 98.4,366.4 101.9,441.0 105.3,430.6 108.8,436.5 112.2,413.4 115.7,409.6 119.1,411.8 122.5,426.0 126.0,418.0 129.4,456.4 132.9,471.0 136.3,491.0 139.7,479.9 143.2,478.6 146.6,491.7 150.1,491.6 153.5,477.8 157.0,490.7 160.4,496.1 163.8,489.1 167.3,489.9 170.7,496.2 174.2,499.8 177.6,497.5 181.1,490.6 184.5,502.8 187.9,498.3 191.4,501.9 194.8,504.6 198.3,499.9 201.7,498.6 205.2,497.3 208.6,487.3 212.0,489.8 215.5,487.3 218.9,492.2 222.4,484.1 225.8,503.3 229.2,486.2 232.7,502.9 236.1,501.4 239.6,515.4 243.0,509.2 246.5,514.5 249.9,516.7 253.3,523.9 256.8,529.9 260.2,533.8 263.7,531.0 267.1,535.1 270.6,536.0 274.0,537.2 277.4,537.8 280.9,539.7 284.3,535.7 287.8,541.2 291.2,535.9 294.6,542.7 298.1,538.6 301.5,542.5 305.0,540.5 308.4,540.8 311.9,542.4 315.3,540.4 318.7,541.2 322.2,539.8 325.6,538.6 329.1,542.8 332.5,540.6 336.0,531.8 339.4,538.1 342.8,540.5 346.3,540.8 349.7,546.5 353.2,545.3 356.6,543.0 360.1,541.7 363.5,544.8 366.9,541.7 370.4,541.8 373.8,543.2 377.3,543.2 380.7,542.4 384.1,546.9 387.6,547.5 391.0,548.3 394.5,542.9 397.9,542.8 401.4,548.0 404.8,544.3 408.2,542.9 411.7,547.1 415.1,545.2 418.6,546.2 422.0,545.6 425.5,544.7 428.9,546.4 432.3,545.6 435.8,543.5 439.2,543.3 442.7,541.5 446.1,542.4 449.5,542.7 453.0,541.4 456.4,541.9 459.9,542.9 463.3,540.8 466.8,541.5 470.2,543.0 473.6,542.4 477.1,544.9 480.5,545.5 484.0,546.0 487.4,543.5 490.9,544.6 494.3,544.8 497.7,545.3 501.2,545.3 504.6,540.9 508.1,544.1 511.5,544.9 514.9,545.4 518.4,547.4 521.8,545.2 525.3,545.6 528.7,543.0 532.2,544.0 535.6,544.6 539.0,544.3 542.5,542.4 545.9,544.2 549.4,544.3 552.8,543.2 556.3,545.5 559.7,546.6 563.1,542.7 566.6,546.0 570.0,543.8 573.5,538.0 576.9,543.2 580.4,540.2 583.8,542.8 587.2,538.4 590.7,536.6 594.1,540.7 597.6,535.1 601.0,543.3 604.4,536.7 607.9,539.0 611.3,545.0 614.8,540.1 618.2,543.7 621.7,543.7 625.1,544.0 628.5,542.0 632.0,544.6 635.4,546.0 638.9,544.7 642.3,542.3 645.8,545.1 649.2,541.5 652.6,543.9 656.1,539.9 659.5,537.8 663.0,541.4 666.4,546.2 669.8,543.0 673.3,544.6 676.7,542.8 680.2,541.3 683.6,542.6 687.1,544.0 690.5,544.0 693.9,541.8 697.4,539.0 700.8,537.6 704.3,539.8 707.7,539.4 711.2,540.5 714.6,540.5 718.0,541.0 721.5,545.2 724.9,543.1 728.4,543.5 731.8,544.6 735.3,545.6 738.7,544.3 742.1,546.0 745.6,543.8 749.0,546.6 752.5,548.8 755.9,544.0 759.3,546.2 762.8,545.5 766.2,544.6 769.7,545.4 773.1,545.4 776.6,546.7 780.0,546.7"/>
<circle cx="95.0" cy="110.9" r="3" fill="#1f77b4"/>
<circle cx="98.4" cy="366.4" r="3" fill="#1f77b4"/>
<circle cx="101.9" cy="441.0" r="3" fill="#1f77b4"/>
<circle cx="105.3" cy="430.6" r="3" fill="#1f77b4"/>
<circle cx="108.8" cy="436.5" r="3" fill="#1f77b4"/>
<circle cx="112.2" cy="413.4" r="3" fill="#1f77b4"/>
<circle cx="115.7" cy="409.6" r="3" fill="#1f77b4"/>
<circle cx="119.1" cy="411.8" r="3" fill="#1f77b4"/>
<circle cx="122.5" cy="426.0" r="3" fill="#1f77b4"/>
<circle cx="126.0" cy="418.0" r="3" fill="#1f77b4"/>
<circle cx="129.4" cy="456.4" r="3" fill="#1f77b4"/>
<circle cx="132.9" cy="471.0" r="3" fill="#1f77b4"/>
<circle cx="136.3" cy="491.0" r="3" fill="#1f77b4"/>
<circle cx="139.7" cy="479.9" r="3" fill="#1f77b4"/>
<circle cx="143.2" cy="478.6" r="3" fill="#1f77b4"/>
<circle cx="146.6" cy="491.7" r="3" fill="#1f77b4"/>
<circle cx="150.1" cy="491.6" r="3" fill="#1f77b4"/>
<circle cx="153.5" cy="477.8" r="3" fill="#1f77b4"/>
<circle cx="157.0" cy="490.7" r="3" fill="#1f77b4"/>
<circle cx="160.4" cy="496.1" r="3" fill="#1f77b4"/>
<circle cx="163.8" cy="489.1" r="3" fill="#1f77b4"/>
<circle cx="167.3" cy="489.9" r="3" fill="#1f77b4"/>
<circle cx="170.7" cy="496.2" r="3" fill="#1f77b4"/>
<circle cx="174.2" cy="499.8" r="3" fill="#1f77b4"/>
<circle cx="177.6" cy="497.5" r="3" fill="#1f77b4"/>
<circle cx="181.1" cy="490.6" r="3" fill="#1f77b4"/>
<circle cx="184.5" cy="502.8" r="3" fill="#1f77b4"/>
<circle cx="187.9" cy="498.3" r="3" fill="#1f77b4"/>
<circle cx="191.4" cy="501.9" r="3" fill="#1f77b4"/>
<circle cx="194.8" cy="504.6" r="3" fill="#1f77b4"/>
<circle cx="198.3" cy="499.9" r="3" fill="#1f77b4"/>
<circle cx="201.7" cy="498.6" r="3" fill="#1f77b4"/>
<circle cx="205.2" cy="497.3" r="3" fill="#1f77b4"/>
<circle cx="208.6" cy="487.3" r="3" fill="#1f77b4"/>
<circle cx="212.0" cy="489.8" r="3" fill="#1f77b4"/>
<circle cx="215.5" cy="487.3" r="3" fill="#1f77b4"/>
<circle cx="218.9" cy="492.2" r="3" fill="#1f77b4"/>
<circle cx="222.4" cy="484.1" r="3" fill="#1f77b4"/>
<circle cx="225.8" cy="503.3" r="3" fill="#1f77b4"/>
<circle cx="229.2" cy="486.2" r="3" fill="#1f77b4"/>
<circle cx="232.7" cy="502.9" r="3" fill="#1f77b4"/>
<circle cx="236.1" cy="501.4" r="3" fill="#1f77b4"/>
<circle cx="239.6" cy="515.4" r="3" fill="#1f77b4"/>
<circle cx="243.0" cy="509.2" r="3" fill="#1f77b4"/>
<circle cx="246.5" cy="514.5" r="3" fill="#1f77b4"/>
<circle cx="249.9" cy="516.7" r="3" fill="#1f77b4"/>
<circle cx="253.3" cy="523.9" r="3" fill="#1f77b4"/>
<circle cx="256.8" cy="529.9" r="3" fill="#1f77b4"/>
<circle cx="260.2" cy="533.8" r="3" fill="#1f77b4"/>
<circle cx="263.7" cy="531.0" r="3" fill="#1f77b4"/>
<circle cx="267.1" cy="535.1" r="3" fill="#1f77b4"/>
<circle cx="270.6" cy="536.0" r="3" fill="#1f77b4"/>
<circle cx="274.0" cy="537.2" r="3" fill="#1f77b4"/>
<circle cx="277.4" cy="537.8" r="3" fill="#1f77b4"/>
<circle cx="280.9" cy="539.7" r="3" fill="#1f77b4"/>
<circle cx="284.3" cy="535.7" r="3" fill="#1f77b4"/>
<circle cx="287.8" cy="541.2" r="3" fill="#1f77b4"/>
<circle cx="291.2" cy="535.9" r="3" fill="#1f77b4"/>
<circle cx="294.6" cy="542.7" r="3" fill="#1f77b4"/>
<circle cx="298.1" cy="538.6" r="3" fill="#1f77b4"/>
<circle cx="301.5" cy="542.5" r="3" fill="#1f77b4"/>
<circle cx="305.0" cy="540.5" r="3" fill="#1f77b4"/>
<circle cx="308.4" cy="540.8" r="3" fill="#1f77b4"/>
<circle cx="311.9" cy="542.4" r="3" fill="#1f77b4"/>
<circle cx="315.3" cy="540.4" r="3" fill="#1f77b4"/>
<circle cx="318.7" cy="541.2" r="3" fill="#1f77b4"/>
<circle cx="322.2" cy="539.8" r="3" fill="#1f77b4"/>
<circle cx="325.6" cy="538.6" r="3" fill="#1f77b4"/>
<circle cx="329.1" cy="542.8" r="3" fill="#1f77b4"/>
<circle cx="332.5" cy="540.6" r="3" fill="#1f77b4"/>
<circle cx="336.0" cy="531.8" r="3" fill="#1f77b4"/>
<circle cx="339.4" cy="538.1" r="3" fill="#1f77b4"/>
<circle cx="342.8" cy="540.5" r="3" fill="#1f77b4"/>
<circle cx="346.3" cy="540.8" r="3" fill="#1f77b4"/>
<circle cx="349.7" cy="546.5" r="3" fill="#1f77b4"/>
<circle cx="353.2" cy="545.3" r="3" fill="#1f77b4"/>
<circle cx="356.6" cy="543.0" r="3" fill="#1f77b4"/>
<circle cx="360.1" cy="541.7" r="3" fill="#1f77b4"/>
<circle cx="363.5" cy="544.8" r="3" fill="#1f77b4"/>
<circle cx="366.9" cy="541.7" r="3" fill="#1f77b4"/>
<circle cx="370.4" cy="541.8" r="3" fill="#1f77b4"/>
<circle cx="373.8" cy="543.2" r="3" fill="#1f77b4"/>
<circle cx="377.3" cy="543.2" r="3" fill="#1f77b4"/>
<circle cx="380.7" cy="542.4" r="3" fill="#1f77b4"/>
<circle cx="384.1" cy="546.9" r="3" fill="#1f77b4"/>
<circle cx="387.6" cy="547.5" r="3" fill="#1f77b4"/>
<circle cx="391.0" cy="548.3" r="3" fill="#1f77b4"/>
<circle cx="394.5" cy="542.9" r="3" fill="#1f77b4"/>
<circle cx="397.9" cy="542.8" r="3" fill="#1f77b4"/>
<circle cx="401.4" cy="548.0" r="3" fill="#1f77b4"/>
<circle cx="404.8" cy="544.3" r="3" fill="#1f77b4"/>
<circle cx="408.2" cy="542.9" r="3" fill="#1f77b4"/>
<circle cx="411.7" cy="547.1" r="3" fill="#1f77b4"/>
<circle cx="415.1" cy="545.2" r="3" fill="#1f77b4"/>
<circle cx="418.6" cy="546.2" r="3" fill="#1f77b4"/>
<circle cx="422.0" cy="545.6" r="3" fill="#1f77b4"/>
<circle cx="425.5" cy="544.7" r="3" fill="#1f77b4"/>
<circle cx="428.9" cy="546.4" r="3" fill="#1f77b4"/>
<circle cx="432.3" cy="545.6" r="3" fill="#1f77b4"/>
<circle cx="435.8" cy="543.5" r="3" fill="#1f77b4"/>
<circle cx="439.2" cy="543.3" r="3" fill="#1f77b4"/>
<circle cx="442.7" cy="541.5" r="3" fill="#1f77b4"/>
<circle cx="446.1" cy="542.4" r="3" fill="#1f77b4"/>
<circle cx="449.5" cy="542.7" r="3" fill="#1f77b4"/>
<circle cx="453.0" cy="541.4" r="3" fill="#1f77b4"/>
<circle cx="456.4" cy="541.9" r="3" fill="#1f77b4"/>
<circle cx="459.9" cy="542.9" r="3" fill="#1f77b4"/>
<circle cx="463.3" cy="540.8" r="3" fill="#1f77b4"/>
<circle cx="466.8" cy="541.5" r="3" fill="#1f77b4"/>
<circle cx="470.2" cy="543.0" r="3" fill="#1f77b4"/>
<circle cx="473.6" cy="542.4" r="3" fill="#1f77b4"/>
<circle cx="477.1" cy="544.9" r="3" fill="#1f77b4"/>
<circle cx="480.5" cy="545.5" r="3" fill="#1f77b4"/>
<circle cx="484.0" cy="546.0" r="3" fill="#1f77b4"/>
<circle cx="487.4" cy="543.5" r="3" fill="#1f77b4"/>
<circle cx="490.9" cy="544.6" r="3" fill="#1f77b4"/>
<circle cx="494.3" cy="544.8" r="3" fill="#1f77b4"/>
<circle cx="497.7" cy="545.3" r="3" fill="#1f77b4"/>
<circle cx="501.2" cy="545.3" r="3" fill="#1f77b4"/>
<circle cx="504.6" cy="540.9" r="3" fill="#1f77b4"/>
<circle cx="508.1" cy="544.1" r="3" fill="#1f77b4"/>
<circle cx="511.5" cy="544.9" r="3" fill="#1f77b4"/>
<circle cx="514.9" cy="545.4" r="3" fill="#1f77b4"/>
<circle cx="518.4" cy="547.4" r="3" fill="#1f77b4"/>
<circle cx="521.8" cy="545.2" r="3" fill="#1f77b4"/>
<circle cx="525.3" cy="545.6" r="3" fill="#1f77b4"/>
<circle cx="528.7" cy="543.0" r="3" fill="#1f77b4"/>
<circle cx="532.2" cy="544.0" r="3" fill="#1f77b4"/>
<circle cx="535.6" cy="544.6" r="3" fill="#1f77b4"/>
<circle cx="539.0" cy="544.3" r="3" fill="#1f77b4"/>
<circle cx="542.5" cy="542.4" r="3" fill="#1f77b4"/>
<circle cx="545.9" cy="544.2" r="3" fill="#1f77b4"/>
<circle cx="549.4" cy="544.3" r="3" fill="#1f77b4"/>
<circle cx="552.8" cy="543.2" r="3" fill="#1f77b4"/>
<circle cx="556.3" cy="545.5" r="3" fill="#1f77b4"/>
<circle cx="559.7" cy="546.6" r="3" fill="#1f77b4"/>
<circle cx="563.1" cy="542.7" r="3" fill="#1f77b4"/>
<circle cx="566.6" cy="546.0" r="3" fill="#1f77b4"/>
<circle cx="570.0" cy="543.8" r="3" fill="#1f77b4"/>
<circle cx="573.5" cy="538.0" r="3" fill="#1f77b4"/>
<circle cx="576.9" cy="543.2" r="3" fill="#1f77b4"/>
<circle cx="580.4" cy="540.2" r="3" fill="#1f77b4"/>
<circle cx="583.8" cy="542.8" r="3" fill="#1f77b4"/>
<circle cx="587.2" cy="538.4" r="3" fill="#1f77b4"/>
<circle cx="590.7" cy="536.6" r="3" fill="#1f77b4"/>
<circle cx="594.1" cy="540.7" r="3" fill="#1f77b4"/>
<circle cx="597.6" cy="535.1" r="3" fill="#1f77b4"/>
<circle cx="601.0" cy="543.3" r="3" fill="#1f77b4"/>
<circle cx="604.4" cy="536.7" r="3" fill="#1f77b4"/>
<circle cx="607.9" cy="539.0" r="3" fill="#1f77b4"/>
<circle cx="611.3" cy="545.0" r="3" fill="#1f77b4"/>
<circle cx="614.8" cy="540.1" r="3" fill="#1f77b4"/>
<circle cx="618.2" cy="543.7" r="3" fill="#1f77b4"/>
<circle cx="621.7" cy="543.7" r="3" fill="#1f77b4"/>
<circle cx="625.1" cy="544.0" r="3" fill="#1f77b4"/>
<circle cx="628.5" cy="542.0" r="3" fill="#1f77b4"/>
<circle cx="632.0" cy="544.6" r="3" fill="#1f77b4"/>
<circle cx="635.4" cy="546.0" r="3" fill="#1f77b4"/>
<circle cx="638.9" cy="544.7" r="3" fill="#1f77b4"/>
<circle cx="642.3" cy="542.3" r="3" fill="#1f77b4"/>
<circle cx="645.8" cy="545.1" r="3" fill="#1f77b4"/>
<circle cx="649.2" cy="541.5" r="3" fill="#1f77b4"/>
<circle cx="652.6" cy="543.9" r="3" fill="#1f77b4"/>
<circle cx="656.1" cy="539.9" r="3" fill="#1f77b4"/>
<circle cx="659.5" cy="537.8" r="3" fill="#1f77b4"/>
<circle cx="663.0" cy="541.4" r="3" fill="#1f77b4"/>
<circle cx="666.4" cy="546.2" r="3" fill="#1f77b4"/>
<circle cx="669.8" cy="543.0" r="3" fill="#1f77b4"/>
<circle cx="673.3" cy="544.6" r="3" fill="#1f77b4"/>
<circle cx="676.7" cy="542.8" r="3" fill="#1f77b4"/>
<circle cx="680.2" cy="541.3" r="3" fill="#1f77b4"/>
<circle cx="683.6" cy="542.6" r="3" fill="#1f77b4"/>
<circle cx="687.1" cy="544.0" r="3" fill="#1f77b4"/>
<circle cx="690.5" cy="544.0" r="3" fill="#1f77b4"/>
<circle cx="693.9" cy="541.8" r="3" fill="#1f77b4"/>
<circle cx="697.4" cy="539.0" r="3" fill="#1f77b4"/>
<circle cx="700.8" cy="537.6" r="3" fill="#1f77b4"/>
<circle cx="704.3" cy="539.8" r="3" fill="#1f77b4"/>
<circle cx="707.7" cy="539.4" r="3" fill="#1f77b4"/>
<circle cx="711.2" cy="540.5" r="3" fill="#1f77b4"/>
<circle cx="714.6" cy="540.5" r="3" fill="#1f77b4"/>
<circle cx="718.0" cy="541.0" r="3" fill="#1f77b4"/>
<circle cx="721.5" cy="545.2" r="3" fill="#1f77b4"/>
<circle cx="724.9" cy="543.1" r="3" fill="#1f77b4"/>
<circle cx="728.4" cy="543.5" r="3" fill="#1f77b4"/>
<circle cx="731.8" cy="544.6" r="3" fill="#1f77b4"/>
<circle cx="735.3" cy="545.6" r="3" fill="#1f77b4"/>
<circle cx="738.7" cy="544.3" r="3" fill="#1f77b4"/>
<circle cx="742.1" cy="546.0" r="3" fill="#1f77b4"/>
<circle cx="745.6" cy="543.8" r="3" fill="#1f77b4"/>
<circle cx="749.0" cy="546.6" r="3" fill="#1f77b4"/>
<circle cx="752.5" cy="548.8" r="3" fill="#1f77b4"/>
<circle cx="755.9" cy="544.0" r="3" fill="#1f77b4"/>
<circle cx="759.3" cy="546.2" r="3" fill="#1f77b4"/>
<circle cx="762.8" cy="545.5" r="3" fill="#1f77b4"/>
<circle cx="766.2" cy="544.6" r="3" fill="#1f77b4"/>
<circle cx="769.7" cy="545.4" r="3" fill="#1f77b4"/>
<circle cx="773.1" cy="545.4" r="3" fill="#1f77b4"/>
<circle cx="776.6" cy="546.7" r="3" fill="#1f77b4"/>
<circle cx="780.0" cy="546.7" r="3" fill="#1f77b4"/>
<line x1="808" y1="96" x2="830" y2="96" stroke="#1f77b4" stroke-width="2.5"/>
<text x="838" y="100" font-family="Arial" font-size="13">masked_mean</text>
<polyline fill="none" stroke="#d62728" stroke-width="2.3" points="95.0,110.9 98.4,366.5 101.9,363.3 105.3,300.8 108.8,302.2 112.2,320.8 115.7,409.8 119.1,363.1 122.5,326.6 126.0,267.6 129.4,297.5 132.9,296.1 136.3,294.3 139.7,327.9 143.2,287.2 146.6,322.4 150.1,376.4 153.5,382.9 157.0,425.7 160.4,418.3 163.8,430.0 167.3,419.2 170.7,405.6 174.2,422.5 177.6,436.7 181.1,431.9 184.5,446.2 187.9,460.3 191.4,446.2 194.8,462.2 198.3,464.3 201.7,468.1 205.2,448.7 208.6,464.2 212.0,438.8 215.5,432.9 218.9,460.2 222.4,433.8 225.8,455.8 229.2,452.2 232.7,459.2 236.1,445.9 239.6,482.3 243.0,467.4 246.5,463.6 249.9,473.2 253.3,488.1 256.8,498.5 260.2,500.2 263.7,501.0 267.1,514.5 270.6,515.8 274.0,517.6 277.4,509.2 280.9,517.5 284.3,512.3 287.8,518.6 291.2,500.0 294.6,496.2 298.1,482.5 301.5,488.1 305.0,478.1 308.4,471.3 311.9,472.6 315.3,457.2 318.7,472.5 322.2,467.0 325.6,454.5 329.1,474.4 332.5,472.5 336.0,454.6 339.4,483.5 342.8,478.8 346.3,469.1 349.7,485.0 353.2,487.3 356.6,485.9 360.1,478.9 363.5,488.5 366.9,489.7 370.4,481.8 373.8,493.2 377.3,500.6 380.7,498.5 384.1,514.2 387.6,514.6 391.0,519.6 394.5,512.8 397.9,517.9 401.4,530.1 404.8,523.6 408.2,520.5 411.7,528.0 415.1,528.1 418.6,529.5 422.0,532.0 425.5,526.7 428.9,533.3 432.3,534.1 435.8,534.3 439.2,536.3 442.7,530.3 446.1,534.3 449.5,536.4 453.0,536.6 456.4,537.0 459.9,538.7 463.3,536.0 466.8,538.6 470.2,540.6 473.6,539.4 477.1,543.4 480.5,544.0 484.0,542.1 487.4,541.8 490.9,541.1 494.3,543.2 497.7,543.1 501.2,542.8 504.6,537.2 508.1,542.3 511.5,541.8 514.9,542.6 518.4,544.2 521.8,539.7 525.3,541.0 528.7,538.4 532.2,540.0 535.6,540.3 539.0,536.8 542.5,535.5 545.9,538.8 549.4,537.0 552.8,535.9 556.3,541.1 559.7,542.4 563.1,534.3 566.6,540.8 570.0,541.5 573.5,534.6 576.9,537.4 580.4,535.8 583.8,539.3 587.2,533.8 590.7,532.4 594.1,532.4 597.6,526.9 601.0,535.2 604.4,531.3 607.9,531.5 611.3,538.6 614.8,536.9 618.2,541.8 621.7,542.4 625.1,540.1 628.5,540.5 632.0,542.2 635.4,544.5 638.9,542.7 642.3,544.3 645.8,546.2 649.2,545.2 652.6,547.9 656.1,544.8 659.5,544.9 663.0,545.2 666.4,546.7 669.8,545.8 673.3,546.5 676.7,546.4 680.2,544.6 683.6,544.7 687.1,546.7 690.5,547.0 693.9,547.1 697.4,545.1 700.8,542.2 704.3,544.0 707.7,544.6 711.2,546.2 714.6,543.3 718.0,542.7 721.5,545.1 724.9,542.4 728.4,541.4 731.8,542.5 735.3,542.4 738.7,540.0 742.1,541.4 745.6,538.9 749.0,541.4 752.5,543.5 755.9,539.9 759.3,540.5 762.8,540.7 766.2,540.5 769.7,540.9 773.1,542.6 776.6,542.6 780.0,544.4"/>
<circle cx="95.0" cy="110.9" r="3" fill="#d62728"/>
<circle cx="98.4" cy="366.5" r="3" fill="#d62728"/>
<circle cx="101.9" cy="363.3" r="3" fill="#d62728"/>
<circle cx="105.3" cy="300.8" r="3" fill="#d62728"/>
<circle cx="108.8" cy="302.2" r="3" fill="#d62728"/>
<circle cx="112.2" cy="320.8" r="3" fill="#d62728"/>
<circle cx="115.7" cy="409.8" r="3" fill="#d62728"/>
<circle cx="119.1" cy="363.1" r="3" fill="#d62728"/>
<circle cx="122.5" cy="326.6" r="3" fill="#d62728"/>
<circle cx="126.0" cy="267.6" r="3" fill="#d62728"/>
<circle cx="129.4" cy="297.5" r="3" fill="#d62728"/>
<circle cx="132.9" cy="296.1" r="3" fill="#d62728"/>
<circle cx="136.3" cy="294.3" r="3" fill="#d62728"/>
<circle cx="139.7" cy="327.9" r="3" fill="#d62728"/>
<circle cx="143.2" cy="287.2" r="3" fill="#d62728"/>
<circle cx="146.6" cy="322.4" r="3" fill="#d62728"/>
<circle cx="150.1" cy="376.4" r="3" fill="#d62728"/>
<circle cx="153.5" cy="382.9" r="3" fill="#d62728"/>
<circle cx="157.0" cy="425.7" r="3" fill="#d62728"/>
<circle cx="160.4" cy="418.3" r="3" fill="#d62728"/>
<circle cx="163.8" cy="430.0" r="3" fill="#d62728"/>
<circle cx="167.3" cy="419.2" r="3" fill="#d62728"/>
<circle cx="170.7" cy="405.6" r="3" fill="#d62728"/>
<circle cx="174.2" cy="422.5" r="3" fill="#d62728"/>
<circle cx="177.6" cy="436.7" r="3" fill="#d62728"/>
<circle cx="181.1" cy="431.9" r="3" fill="#d62728"/>
<circle cx="184.5" cy="446.2" r="3" fill="#d62728"/>
<circle cx="187.9" cy="460.3" r="3" fill="#d62728"/>
<circle cx="191.4" cy="446.2" r="3" fill="#d62728"/>
<circle cx="194.8" cy="462.2" r="3" fill="#d62728"/>
<circle cx="198.3" cy="464.3" r="3" fill="#d62728"/>
<circle cx="201.7" cy="468.1" r="3" fill="#d62728"/>
<circle cx="205.2" cy="448.7" r="3" fill="#d62728"/>
<circle cx="208.6" cy="464.2" r="3" fill="#d62728"/>
<circle cx="212.0" cy="438.8" r="3" fill="#d62728"/>
<circle cx="215.5" cy="432.9" r="3" fill="#d62728"/>
<circle cx="218.9" cy="460.2" r="3" fill="#d62728"/>
<circle cx="222.4" cy="433.8" r="3" fill="#d62728"/>
<circle cx="225.8" cy="455.8" r="3" fill="#d62728"/>
<circle cx="229.2" cy="452.2" r="3" fill="#d62728"/>
<circle cx="232.7" cy="459.2" r="3" fill="#d62728"/>
<circle cx="236.1" cy="445.9" r="3" fill="#d62728"/>
<circle cx="239.6" cy="482.3" r="3" fill="#d62728"/>
<circle cx="243.0" cy="467.4" r="3" fill="#d62728"/>
<circle cx="246.5" cy="463.6" r="3" fill="#d62728"/>
<circle cx="249.9" cy="473.2" r="3" fill="#d62728"/>
<circle cx="253.3" cy="488.1" r="3" fill="#d62728"/>
<circle cx="256.8" cy="498.5" r="3" fill="#d62728"/>
<circle cx="260.2" cy="500.2" r="3" fill="#d62728"/>
<circle cx="263.7" cy="501.0" r="3" fill="#d62728"/>
<circle cx="267.1" cy="514.5" r="3" fill="#d62728"/>
<circle cx="270.6" cy="515.8" r="3" fill="#d62728"/>
<circle cx="274.0" cy="517.6" r="3" fill="#d62728"/>
<circle cx="277.4" cy="509.2" r="3" fill="#d62728"/>
<circle cx="280.9" cy="517.5" r="3" fill="#d62728"/>
<circle cx="284.3" cy="512.3" r="3" fill="#d62728"/>
<circle cx="287.8" cy="518.6" r="3" fill="#d62728"/>
<circle cx="291.2" cy="500.0" r="3" fill="#d62728"/>
<circle cx="294.6" cy="496.2" r="3" fill="#d62728"/>
<circle cx="298.1" cy="482.5" r="3" fill="#d62728"/>
<circle cx="301.5" cy="488.1" r="3" fill="#d62728"/>
<circle cx="305.0" cy="478.1" r="3" fill="#d62728"/>
<circle cx="308.4" cy="471.3" r="3" fill="#d62728"/>
<circle cx="311.9" cy="472.6" r="3" fill="#d62728"/>
<circle cx="315.3" cy="457.2" r="3" fill="#d62728"/>
<circle cx="318.7" cy="472.5" r="3" fill="#d62728"/>
<circle cx="322.2" cy="467.0" r="3" fill="#d62728"/>
<circle cx="325.6" cy="454.5" r="3" fill="#d62728"/>
<circle cx="329.1" cy="474.4" r="3" fill="#d62728"/>
<circle cx="332.5" cy="472.5" r="3" fill="#d62728"/>
<circle cx="336.0" cy="454.6" r="3" fill="#d62728"/>
<circle cx="339.4" cy="483.5" r="3" fill="#d62728"/>
<circle cx="342.8" cy="478.8" r="3" fill="#d62728"/>
<circle cx="346.3" cy="469.1" r="3" fill="#d62728"/>
<circle cx="349.7" cy="485.0" r="3" fill="#d62728"/>
<circle cx="353.2" cy="487.3" r="3" fill="#d62728"/>
<circle cx="356.6" cy="485.9" r="3" fill="#d62728"/>
<circle cx="360.1" cy="478.9" r="3" fill="#d62728"/>
<circle cx="363.5" cy="488.5" r="3" fill="#d62728"/>
<circle cx="366.9" cy="489.7" r="3" fill="#d62728"/>
<circle cx="370.4" cy="481.8" r="3" fill="#d62728"/>
<circle cx="373.8" cy="493.2" r="3" fill="#d62728"/>
<circle cx="377.3" cy="500.6" r="3" fill="#d62728"/>
<circle cx="380.7" cy="498.5" r="3" fill="#d62728"/>
<circle cx="384.1" cy="514.2" r="3" fill="#d62728"/>
<circle cx="387.6" cy="514.6" r="3" fill="#d62728"/>
<circle cx="391.0" cy="519.6" r="3" fill="#d62728"/>
<circle cx="394.5" cy="512.8" r="3" fill="#d62728"/>
<circle cx="397.9" cy="517.9" r="3" fill="#d62728"/>
<circle cx="401.4" cy="530.1" r="3" fill="#d62728"/>
<circle cx="404.8" cy="523.6" r="3" fill="#d62728"/>
<circle cx="408.2" cy="520.5" r="3" fill="#d62728"/>
<circle cx="411.7" cy="528.0" r="3" fill="#d62728"/>
<circle cx="415.1" cy="528.1" r="3" fill="#d62728"/>
<circle cx="418.6" cy="529.5" r="3" fill="#d62728"/>
<circle cx="422.0" cy="532.0" r="3" fill="#d62728"/>
<circle cx="425.5" cy="526.7" r="3" fill="#d62728"/>
<circle cx="428.9" cy="533.3" r="3" fill="#d62728"/>
<circle cx="432.3" cy="534.1" r="3" fill="#d62728"/>
<circle cx="435.8" cy="534.3" r="3" fill="#d62728"/>
<circle cx="439.2" cy="536.3" r="3" fill="#d62728"/>
<circle cx="442.7" cy="530.3" r="3" fill="#d62728"/>
<circle cx="446.1" cy="534.3" r="3" fill="#d62728"/>
<circle cx="449.5" cy="536.4" r="3" fill="#d62728"/>
<circle cx="453.0" cy="536.6" r="3" fill="#d62728"/>
<circle cx="456.4" cy="537.0" r="3" fill="#d62728"/>
<circle cx="459.9" cy="538.7" r="3" fill="#d62728"/>
<circle cx="463.3" cy="536.0" r="3" fill="#d62728"/>
<circle cx="466.8" cy="538.6" r="3" fill="#d62728"/>
<circle cx="470.2" cy="540.6" r="3" fill="#d62728"/>
<circle cx="473.6" cy="539.4" r="3" fill="#d62728"/>
<circle cx="477.1" cy="543.4" r="3" fill="#d62728"/>
<circle cx="480.5" cy="544.0" r="3" fill="#d62728"/>
<circle cx="484.0" cy="542.1" r="3" fill="#d62728"/>
<circle cx="487.4" cy="541.8" r="3" fill="#d62728"/>
<circle cx="490.9" cy="541.1" r="3" fill="#d62728"/>
<circle cx="494.3" cy="543.2" r="3" fill="#d62728"/>
<circle cx="497.7" cy="543.1" r="3" fill="#d62728"/>
<circle cx="501.2" cy="542.8" r="3" fill="#d62728"/>
<circle cx="504.6" cy="537.2" r="3" fill="#d62728"/>
<circle cx="508.1" cy="542.3" r="3" fill="#d62728"/>
<circle cx="511.5" cy="541.8" r="3" fill="#d62728"/>
<circle cx="514.9" cy="542.6" r="3" fill="#d62728"/>
<circle cx="518.4" cy="544.2" r="3" fill="#d62728"/>
<circle cx="521.8" cy="539.7" r="3" fill="#d62728"/>
<circle cx="525.3" cy="541.0" r="3" fill="#d62728"/>
<circle cx="528.7" cy="538.4" r="3" fill="#d62728"/>
<circle cx="532.2" cy="540.0" r="3" fill="#d62728"/>
<circle cx="535.6" cy="540.3" r="3" fill="#d62728"/>
<circle cx="539.0" cy="536.8" r="3" fill="#d62728"/>
<circle cx="542.5" cy="535.5" r="3" fill="#d62728"/>
<circle cx="545.9" cy="538.8" r="3" fill="#d62728"/>
<circle cx="549.4" cy="537.0" r="3" fill="#d62728"/>
<circle cx="552.8" cy="535.9" r="3" fill="#d62728"/>
<circle cx="556.3" cy="541.1" r="3" fill="#d62728"/>
<circle cx="559.7" cy="542.4" r="3" fill="#d62728"/>
<circle cx="563.1" cy="534.3" r="3" fill="#d62728"/>
<circle cx="566.6" cy="540.8" r="3" fill="#d62728"/>
<circle cx="570.0" cy="541.5" r="3" fill="#d62728"/>
<circle cx="573.5" cy="534.6" r="3" fill="#d62728"/>
<circle cx="576.9" cy="537.4" r="3" fill="#d62728"/>
<circle cx="580.4" cy="535.8" r="3" fill="#d62728"/>
<circle cx="583.8" cy="539.3" r="3" fill="#d62728"/>
<circle cx="587.2" cy="533.8" r="3" fill="#d62728"/>
<circle cx="590.7" cy="532.4" r="3" fill="#d62728"/>
<circle cx="594.1" cy="532.4" r="3" fill="#d62728"/>
<circle cx="597.6" cy="526.9" r="3" fill="#d62728"/>
<circle cx="601.0" cy="535.2" r="3" fill="#d62728"/>
<circle cx="604.4" cy="531.3" r="3" fill="#d62728"/>
<circle cx="607.9" cy="531.5" r="3" fill="#d62728"/>
<circle cx="611.3" cy="538.6" r="3" fill="#d62728"/>
<circle cx="614.8" cy="536.9" r="3" fill="#d62728"/>
<circle cx="618.2" cy="541.8" r="3" fill="#d62728"/>
<circle cx="621.7" cy="542.4" r="3" fill="#d62728"/>
<circle cx="625.1" cy="540.1" r="3" fill="#d62728"/>
<circle cx="628.5" cy="540.5" r="3" fill="#d62728"/>
<circle cx="632.0" cy="542.2" r="3" fill="#d62728"/>
<circle cx="635.4" cy="544.5" r="3" fill="#d62728"/>
<circle cx="638.9" cy="542.7" r="3" fill="#d62728"/>
<circle cx="642.3" cy="544.3" r="3" fill="#d62728"/>
<circle cx="645.8" cy="546.2" r="3" fill="#d62728"/>
<circle cx="649.2" cy="545.2" r="3" fill="#d62728"/>
<circle cx="652.6" cy="547.9" r="3" fill="#d62728"/>
<circle cx="656.1" cy="544.8" r="3" fill="#d62728"/>
<circle cx="659.5" cy="544.9" r="3" fill="#d62728"/>
<circle cx="663.0" cy="545.2" r="3" fill="#d62728"/>
<circle cx="666.4" cy="546.7" r="3" fill="#d62728"/>
<circle cx="669.8" cy="545.8" r="3" fill="#d62728"/>
<circle cx="673.3" cy="546.5" r="3" fill="#d62728"/>
<circle cx="676.7" cy="546.4" r="3" fill="#d62728"/>
<circle cx="680.2" cy="544.6" r="3" fill="#d62728"/>
<circle cx="683.6" cy="544.7" r="3" fill="#d62728"/>
<circle cx="687.1" cy="546.7" r="3" fill="#d62728"/>
<circle cx="690.5" cy="547.0" r="3" fill="#d62728"/>
<circle cx="693.9" cy="547.1" r="3" fill="#d62728"/>
<circle cx="697.4" cy="545.1" r="3" fill="#d62728"/>
<circle cx="700.8" cy="542.2" r="3" fill="#d62728"/>
<circle cx="704.3" cy="544.0" r="3" fill="#d62728"/>
<circle cx="707.7" cy="544.6" r="3" fill="#d62728"/>
<circle cx="711.2" cy="546.2" r="3" fill="#d62728"/>
<circle cx="714.6" cy="543.3" r="3" fill="#d62728"/>
<circle cx="718.0" cy="542.7" r="3" fill="#d62728"/>
<circle cx="721.5" cy="545.1" r="3" fill="#d62728"/>
<circle cx="724.9" cy="542.4" r="3" fill="#d62728"/>
<circle cx="728.4" cy="541.4" r="3" fill="#d62728"/>
<circle cx="731.8" cy="542.5" r="3" fill="#d62728"/>
<circle cx="735.3" cy="542.4" r="3" fill="#d62728"/>
<circle cx="738.7" cy="540.0" r="3" fill="#d62728"/>
<circle cx="742.1" cy="541.4" r="3" fill="#d62728"/>
<circle cx="745.6" cy="538.9" r="3" fill="#d62728"/>
<circle cx="749.0" cy="541.4" r="3" fill="#d62728"/>
<circle cx="752.5" cy="543.5" r="3" fill="#d62728"/>
<circle cx="755.9" cy="539.9" r="3" fill="#d62728"/>
<circle cx="759.3" cy="540.5" r="3" fill="#d62728"/>
<circle cx="762.8" cy="540.7" r="3" fill="#d62728"/>
<circle cx="766.2" cy="540.5" r="3" fill="#d62728"/>
<circle cx="769.7" cy="540.9" r="3" fill="#d62728"/>
<circle cx="773.1" cy="542.6" r="3" fill="#d62728"/>
<circle cx="776.6" cy="542.6" r="3" fill="#d62728"/>
<circle cx="780.0" cy="544.4" r="3" fill="#d62728"/>
<line x1="808" y1="121" x2="830" y2="121" stroke="#d62728" stroke-width="2.5"/>
<text x="838" y="125" font-family="Arial" font-size="13">masked_normalize</text>
<polyline fill="none" stroke="#2ca02c" stroke-width="2.3" points="95.0,110.9 98.4,366.0 101.9,398.1 105.3,326.9 108.8,364.9 112.2,353.0 115.7,431.9 119.1,458.4 122.5,478.4 126.0,470.7 129.4,492.3 132.9,493.9 136.3,501.1 139.7,487.5 143.2,497.9 146.6,492.1 150.1,499.1 153.5,492.3 157.0,507.5 160.4,489.1 163.8,489.6 167.3,488.6 170.7,486.8 174.2,487.4 177.6,499.7 181.1,489.0 184.5,489.6 187.9,493.8 191.4,479.7 194.8,486.3 198.3,477.8 201.7,477.6 205.2,478.7 208.6,481.8 212.0,467.4 215.5,462.2 218.9,480.1 222.4,472.4 225.8,481.3 229.2,473.2 232.7,475.5 236.1,470.8 239.6,494.0 243.0,481.4 246.5,482.7 249.9,479.9 253.3,481.5 256.8,494.6 260.2,491.4 263.7,492.1 267.1,497.5 270.6,499.5 274.0,506.0 277.4,498.8 280.9,503.8 284.3,502.0 287.8,510.2 291.2,500.0 294.6,507.4 298.1,501.9 301.5,510.9 305.0,505.4 308.4,506.6 311.9,506.4 315.3,505.7 318.7,513.7 322.2,507.2 325.6,499.2 329.1,512.1 332.5,513.8 336.0,504.5 339.4,515.1 342.8,518.9 346.3,521.9 349.7,529.9 353.2,530.2 356.6,533.5 360.1,530.4 363.5,537.8 366.9,532.0 370.4,535.3 373.8,537.7 377.3,537.8 380.7,536.5 384.1,538.7 387.6,540.4 391.0,541.1 394.5,537.2 397.9,535.8 401.4,540.9 404.8,539.6 408.2,539.0 411.7,542.7 415.1,542.3 418.6,541.3 422.0,542.8 425.5,542.0 428.9,544.6 432.3,544.6 435.8,544.0 439.2,544.7 442.7,541.6 446.1,542.6 449.5,545.9 453.0,544.7 456.4,545.6 459.9,544.6 463.3,543.4 466.8,544.6 470.2,544.2 473.6,545.8 477.1,546.8 480.5,546.4 484.0,546.6 487.4,544.4 490.9,545.0 494.3,544.2 497.7,543.2 501.2,544.9 504.6,538.1 508.1,542.1 511.5,542.0 514.9,543.1 518.4,545.0 521.8,541.7 525.3,541.2 528.7,542.4 532.2,542.6 535.6,544.3 539.0,544.8 542.5,543.9 545.9,546.5 549.4,545.3 552.8,546.9 556.3,547.9 559.7,548.2 563.1,545.1 566.6,547.2 570.0,547.4 573.5,545.4 576.9,546.4 580.4,545.4 583.8,545.4 587.2,546.4 590.7,545.2 594.1,546.9 597.6,546.1 601.0,547.1 604.4,546.2 607.9,545.7 611.3,546.9 614.8,545.5 618.2,545.9 621.7,546.6 625.1,546.4 628.5,545.9 632.0,547.6 635.4,546.4 638.9,547.9 642.3,547.6 645.8,547.0 649.2,545.6 652.6,548.0 656.1,545.2 659.5,544.9 663.0,544.5 666.4,545.2 669.8,543.9 673.3,545.3 676.7,545.6 680.2,546.2 683.6,544.8 687.1,546.1 690.5,546.9 693.9,546.1 697.4,545.5 700.8,546.5 704.3,547.5 707.7,547.3 711.2,548.2 714.6,547.3 718.0,546.8 721.5,548.2 724.9,546.7 728.4,547.2 731.8,548.8 735.3,548.4 738.7,545.3 742.1,547.6 745.6,545.2 749.0,547.8 752.5,549.1 755.9,547.5 759.3,546.5 762.8,547.8 766.2,545.9 769.7,546.5 773.1,546.8 776.6,547.2 780.0,548.5"/>
<circle cx="95.0" cy="110.9" r="3" fill="#2ca02c"/>
<circle cx="98.4" cy="366.0" r="3" fill="#2ca02c"/>
<circle cx="101.9" cy="398.1" r="3" fill="#2ca02c"/>
<circle cx="105.3" cy="326.9" r="3" fill="#2ca02c"/>
<circle cx="108.8" cy="364.9" r="3" fill="#2ca02c"/>
<circle cx="112.2" cy="353.0" r="3" fill="#2ca02c"/>
<circle cx="115.7" cy="431.9" r="3" fill="#2ca02c"/>
<circle cx="119.1" cy="458.4" r="3" fill="#2ca02c"/>
<circle cx="122.5" cy="478.4" r="3" fill="#2ca02c"/>
<circle cx="126.0" cy="470.7" r="3" fill="#2ca02c"/>
<circle cx="129.4" cy="492.3" r="3" fill="#2ca02c"/>
<circle cx="132.9" cy="493.9" r="3" fill="#2ca02c"/>
<circle cx="136.3" cy="501.1" r="3" fill="#2ca02c"/>
<circle cx="139.7" cy="487.5" r="3" fill="#2ca02c"/>
<circle cx="143.2" cy="497.9" r="3" fill="#2ca02c"/>
<circle cx="146.6" cy="492.1" r="3" fill="#2ca02c"/>
<circle cx="150.1" cy="499.1" r="3" fill="#2ca02c"/>
<circle cx="153.5" cy="492.3" r="3" fill="#2ca02c"/>
<circle cx="157.0" cy="507.5" r="3" fill="#2ca02c"/>
<circle cx="160.4" cy="489.1" r="3" fill="#2ca02c"/>
<circle cx="163.8" cy="489.6" r="3" fill="#2ca02c"/>
<circle cx="167.3" cy="488.6" r="3" fill="#2ca02c"/>
<circle cx="170.7" cy="486.8" r="3" fill="#2ca02c"/>
<circle cx="174.2" cy="487.4" r="3" fill="#2ca02c"/>
<circle cx="177.6" cy="499.7" r="3" fill="#2ca02c"/>
<circle cx="181.1" cy="489.0" r="3" fill="#2ca02c"/>
<circle cx="184.5" cy="489.6" r="3" fill="#2ca02c"/>
<circle cx="187.9" cy="493.8" r="3" fill="#2ca02c"/>
<circle cx="191.4" cy="479.7" r="3" fill="#2ca02c"/>
<circle cx="194.8" cy="486.3" r="3" fill="#2ca02c"/>
<circle cx="198.3" cy="477.8" r="3" fill="#2ca02c"/>
<circle cx="201.7" cy="477.6" r="3" fill="#2ca02c"/>
<circle cx="205.2" cy="478.7" r="3" fill="#2ca02c"/>
<circle cx="208.6" cy="481.8" r="3" fill="#2ca02c"/>
<circle cx="212.0" cy="467.4" r="3" fill="#2ca02c"/>
<circle cx="215.5" cy="462.2" r="3" fill="#2ca02c"/>
<circle cx="218.9" cy="480.1" r="3" fill="#2ca02c"/>
<circle cx="222.4" cy="472.4" r="3" fill="#2ca02c"/>
<circle cx="225.8" cy="481.3" r="3" fill="#2ca02c"/>
<circle cx="229.2" cy="473.2" r="3" fill="#2ca02c"/>
<circle cx="232.7" cy="475.5" r="3" fill="#2ca02c"/>
<circle cx="236.1" cy="470.8" r="3" fill="#2ca02c"/>
<circle cx="239.6" cy="494.0" r="3" fill="#2ca02c"/>
<circle cx="243.0" cy="481.4" r="3" fill="#2ca02c"/>
<circle cx="246.5" cy="482.7" r="3" fill="#2ca02c"/>
<circle cx="249.9" cy="479.9" r="3" fill="#2ca02c"/>
<circle cx="253.3" cy="481.5" r="3" fill="#2ca02c"/>
<circle cx="256.8" cy="494.6" r="3" fill="#2ca02c"/>
<circle cx="260.2" cy="491.4" r="3" fill="#2ca02c"/>
<circle cx="263.7" cy="492.1" r="3" fill="#2ca02c"/>
<circle cx="267.1" cy="497.5" r="3" fill="#2ca02c"/>
<circle cx="270.6" cy="499.5" r="3" fill="#2ca02c"/>
<circle cx="274.0" cy="506.0" r="3" fill="#2ca02c"/>
<circle cx="277.4" cy="498.8" r="3" fill="#2ca02c"/>
<circle cx="280.9" cy="503.8" r="3" fill="#2ca02c"/>
<circle cx="284.3" cy="502.0" r="3" fill="#2ca02c"/>
<circle cx="287.8" cy="510.2" r="3" fill="#2ca02c"/>
<circle cx="291.2" cy="500.0" r="3" fill="#2ca02c"/>
<circle cx="294.6" cy="507.4" r="3" fill="#2ca02c"/>
<circle cx="298.1" cy="501.9" r="3" fill="#2ca02c"/>
<circle cx="301.5" cy="510.9" r="3" fill="#2ca02c"/>
<circle cx="305.0" cy="505.4" r="3" fill="#2ca02c"/>
<circle cx="308.4" cy="506.6" r="3" fill="#2ca02c"/>
<circle cx="311.9" cy="506.4" r="3" fill="#2ca02c"/>
<circle cx="315.3" cy="505.7" r="3" fill="#2ca02c"/>
<circle cx="318.7" cy="513.7" r="3" fill="#2ca02c"/>
<circle cx="322.2" cy="507.2" r="3" fill="#2ca02c"/>
<circle cx="325.6" cy="499.2" r="3" fill="#2ca02c"/>
<circle cx="329.1" cy="512.1" r="3" fill="#2ca02c"/>
<circle cx="332.5" cy="513.8" r="3" fill="#2ca02c"/>
<circle cx="336.0" cy="504.5" r="3" fill="#2ca02c"/>
<circle cx="339.4" cy="515.1" r="3" fill="#2ca02c"/>
<circle cx="342.8" cy="518.9" r="3" fill="#2ca02c"/>
<circle cx="346.3" cy="521.9" r="3" fill="#2ca02c"/>
<circle cx="349.7" cy="529.9" r="3" fill="#2ca02c"/>
<circle cx="353.2" cy="530.2" r="3" fill="#2ca02c"/>
<circle cx="356.6" cy="533.5" r="3" fill="#2ca02c"/>
<circle cx="360.1" cy="530.4" r="3" fill="#2ca02c"/>
<circle cx="363.5" cy="537.8" r="3" fill="#2ca02c"/>
<circle cx="366.9" cy="532.0" r="3" fill="#2ca02c"/>
<circle cx="370.4" cy="535.3" r="3" fill="#2ca02c"/>
<circle cx="373.8" cy="537.7" r="3" fill="#2ca02c"/>
<circle cx="377.3" cy="537.8" r="3" fill="#2ca02c"/>
<circle cx="380.7" cy="536.5" r="3" fill="#2ca02c"/>
<circle cx="384.1" cy="538.7" r="3" fill="#2ca02c"/>
<circle cx="387.6" cy="540.4" r="3" fill="#2ca02c"/>
<circle cx="391.0" cy="541.1" r="3" fill="#2ca02c"/>
<circle cx="394.5" cy="537.2" r="3" fill="#2ca02c"/>
<circle cx="397.9" cy="535.8" r="3" fill="#2ca02c"/>
<circle cx="401.4" cy="540.9" r="3" fill="#2ca02c"/>
<circle cx="404.8" cy="539.6" r="3" fill="#2ca02c"/>
<circle cx="408.2" cy="539.0" r="3" fill="#2ca02c"/>
<circle cx="411.7" cy="542.7" r="3" fill="#2ca02c"/>
<circle cx="415.1" cy="542.3" r="3" fill="#2ca02c"/>
<circle cx="418.6" cy="541.3" r="3" fill="#2ca02c"/>
<circle cx="422.0" cy="542.8" r="3" fill="#2ca02c"/>
<circle cx="425.5" cy="542.0" r="3" fill="#2ca02c"/>
<circle cx="428.9" cy="544.6" r="3" fill="#2ca02c"/>
<circle cx="432.3" cy="544.6" r="3" fill="#2ca02c"/>
<circle cx="435.8" cy="544.0" r="3" fill="#2ca02c"/>
<circle cx="439.2" cy="544.7" r="3" fill="#2ca02c"/>
<circle cx="442.7" cy="541.6" r="3" fill="#2ca02c"/>
<circle cx="446.1" cy="542.6" r="3" fill="#2ca02c"/>
<circle cx="449.5" cy="545.9" r="3" fill="#2ca02c"/>
<circle cx="453.0" cy="544.7" r="3" fill="#2ca02c"/>
<circle cx="456.4" cy="545.6" r="3" fill="#2ca02c"/>
<circle cx="459.9" cy="544.6" r="3" fill="#2ca02c"/>
<circle cx="463.3" cy="543.4" r="3" fill="#2ca02c"/>
<circle cx="466.8" cy="544.6" r="3" fill="#2ca02c"/>
<circle cx="470.2" cy="544.2" r="3" fill="#2ca02c"/>
<circle cx="473.6" cy="545.8" r="3" fill="#2ca02c"/>
<circle cx="477.1" cy="546.8" r="3" fill="#2ca02c"/>
<circle cx="480.5" cy="546.4" r="3" fill="#2ca02c"/>
<circle cx="484.0" cy="546.6" r="3" fill="#2ca02c"/>
<circle cx="487.4" cy="544.4" r="3" fill="#2ca02c"/>
<circle cx="490.9" cy="545.0" r="3" fill="#2ca02c"/>
<circle cx="494.3" cy="544.2" r="3" fill="#2ca02c"/>
<circle cx="497.7" cy="543.2" r="3" fill="#2ca02c"/>
<circle cx="501.2" cy="544.9" r="3" fill="#2ca02c"/>
<circle cx="504.6" cy="538.1" r="3" fill="#2ca02c"/>
<circle cx="508.1" cy="542.1" r="3" fill="#2ca02c"/>
<circle cx="511.5" cy="542.0" r="3" fill="#2ca02c"/>
<circle cx="514.9" cy="543.1" r="3" fill="#2ca02c"/>
<circle cx="518.4" cy="545.0" r="3" fill="#2ca02c"/>
<circle cx="521.8" cy="541.7" r="3" fill="#2ca02c"/>
<circle cx="525.3" cy="541.2" r="3" fill="#2ca02c"/>
<circle cx="528.7" cy="542.4" r="3" fill="#2ca02c"/>
<circle cx="532.2" cy="542.6" r="3" fill="#2ca02c"/>
<circle cx="535.6" cy="544.3" r="3" fill="#2ca02c"/>
<circle cx="539.0" cy="544.8" r="3" fill="#2ca02c"/>
<circle cx="542.5" cy="543.9" r="3" fill="#2ca02c"/>
<circle cx="545.9" cy="546.5" r="3" fill="#2ca02c"/>
<circle cx="549.4" cy="545.3" r="3" fill="#2ca02c"/>
<circle cx="552.8" cy="546.9" r="3" fill="#2ca02c"/>
<circle cx="556.3" cy="547.9" r="3" fill="#2ca02c"/>
<circle cx="559.7" cy="548.2" r="3" fill="#2ca02c"/>
<circle cx="563.1" cy="545.1" r="3" fill="#2ca02c"/>
<circle cx="566.6" cy="547.2" r="3" fill="#2ca02c"/>
<circle cx="570.0" cy="547.4" r="3" fill="#2ca02c"/>
<circle cx="573.5" cy="545.4" r="3" fill="#2ca02c"/>
<circle cx="576.9" cy="546.4" r="3" fill="#2ca02c"/>
<circle cx="580.4" cy="545.4" r="3" fill="#2ca02c"/>
<circle cx="583.8" cy="545.4" r="3" fill="#2ca02c"/>
<circle cx="587.2" cy="546.4" r="3" fill="#2ca02c"/>
<circle cx="590.7" cy="545.2" r="3" fill="#2ca02c"/>
<circle cx="594.1" cy="546.9" r="3" fill="#2ca02c"/>
<circle cx="597.6" cy="546.1" r="3" fill="#2ca02c"/>
<circle cx="601.0" cy="547.1" r="3" fill="#2ca02c"/>
<circle cx="604.4" cy="546.2" r="3" fill="#2ca02c"/>
<circle cx="607.9" cy="545.7" r="3" fill="#2ca02c"/>
<circle cx="611.3" cy="546.9" r="3" fill="#2ca02c"/>
<circle cx="614.8" cy="545.5" r="3" fill="#2ca02c"/>
<circle cx="618.2" cy="545.9" r="3" fill="#2ca02c"/>
<circle cx="621.7" cy="546.6" r="3" fill="#2ca02c"/>
<circle cx="625.1" cy="546.4" r="3" fill="#2ca02c"/>
<circle cx="628.5" cy="545.9" r="3" fill="#2ca02c"/>
<circle cx="632.0" cy="547.6" r="3" fill="#2ca02c"/>
<circle cx="635.4" cy="546.4" r="3" fill="#2ca02c"/>
<circle cx="638.9" cy="547.9" r="3" fill="#2ca02c"/>
<circle cx="642.3" cy="547.6" r="3" fill="#2ca02c"/>
<circle cx="645.8" cy="547.0" r="3" fill="#2ca02c"/>
<circle cx="649.2" cy="545.6" r="3" fill="#2ca02c"/>
<circle cx="652.6" cy="548.0" r="3" fill="#2ca02c"/>
<circle cx="656.1" cy="545.2" r="3" fill="#2ca02c"/>
<circle cx="659.5" cy="544.9" r="3" fill="#2ca02c"/>
<circle cx="663.0" cy="544.5" r="3" fill="#2ca02c"/>
<circle cx="666.4" cy="545.2" r="3" fill="#2ca02c"/>
<circle cx="669.8" cy="543.9" r="3" fill="#2ca02c"/>
<circle cx="673.3" cy="545.3" r="3" fill="#2ca02c"/>
<circle cx="676.7" cy="545.6" r="3" fill="#2ca02c"/>
<circle cx="680.2" cy="546.2" r="3" fill="#2ca02c"/>
<circle cx="683.6" cy="544.8" r="3" fill="#2ca02c"/>
<circle cx="687.1" cy="546.1" r="3" fill="#2ca02c"/>
<circle cx="690.5" cy="546.9" r="3" fill="#2ca02c"/>
<circle cx="693.9" cy="546.1" r="3" fill="#2ca02c"/>
<circle cx="697.4" cy="545.5" r="3" fill="#2ca02c"/>
<circle cx="700.8" cy="546.5" r="3" fill="#2ca02c"/>
<circle cx="704.3" cy="547.5" r="3" fill="#2ca02c"/>
<circle cx="707.7" cy="547.3" r="3" fill="#2ca02c"/>
<circle cx="711.2" cy="548.2" r="3" fill="#2ca02c"/>
<circle cx="714.6" cy="547.3" r="3" fill="#2ca02c"/>
<circle cx="718.0" cy="546.8" r="3" fill="#2ca02c"/>
<circle cx="721.5" cy="548.2" r="3" fill="#2ca02c"/>
<circle cx="724.9" cy="546.7" r="3" fill="#2ca02c"/>
<circle cx="728.4" cy="547.2" r="3" fill="#2ca02c"/>
<circle cx="731.8" cy="548.8" r="3" fill="#2ca02c"/>
<circle cx="735.3" cy="548.4" r="3" fill="#2ca02c"/>
<circle cx="738.7" cy="545.3" r="3" fill="#2ca02c"/>
<circle cx="742.1" cy="547.6" r="3" fill="#2ca02c"/>
<circle cx="745.6" cy="545.2" r="3" fill="#2ca02c"/>
<circle cx="749.0" cy="547.8" r="3" fill="#2ca02c"/>
<circle cx="752.5" cy="549.1" r="3" fill="#2ca02c"/>
<circle cx="755.9" cy="547.5" r="3" fill="#2ca02c"/>
<circle cx="759.3" cy="546.5" r="3" fill="#2ca02c"/>
<circle cx="762.8" cy="547.8" r="3" fill="#2ca02c"/>
<circle cx="766.2" cy="545.9" r="3" fill="#2ca02c"/>
<circle cx="769.7" cy="546.5" r="3" fill="#2ca02c"/>
<circle cx="773.1" cy="546.8" r="3" fill="#2ca02c"/>
<circle cx="776.6" cy="547.2" r="3" fill="#2ca02c"/>
<circle cx="780.0" cy="548.5" r="3" fill="#2ca02c"/>
<line x1="808" y1="146" x2="830" y2="146" stroke="#2ca02c" stroke-width="2.5"/>
<text x="838" y="150" font-family="Arial" font-size="13">batch_token_mean</text>
<text x="437.5" y="618" text-anchor="middle" font-family="Arial" font-size="15">GRPO step</text>
<text x="24" y="316.0" text-anchor="middle" font-family="Arial" font-size="15" transform="rotate(-90 24 316.0)">mean token entropy</text>
</svg>
