<svg xmlns="http://www.w3.org/2000/svg" width="1040" height="640" viewBox="0 0 1040 640">
<rect width="100%" height="100%" fill="white"/>
<text x="520.0" y="36" text-anchor="middle" font-family="Arial" font-size="22" font-weight="700">GRPO prompt ablation: validation answer reward</text>
<line x1="95" y1="558" x2="780" y2="558" stroke="#222" stroke-width="1.5"/>
<line x1="95" y1="74" x2="95" y2="558" stroke="#222" stroke-width="1.5"/>
<line x1="90" y1="558.0" x2="780" y2="558.0" stroke="#ddd" stroke-width="1"/>
<text x="83" y="562.0" text-anchor="end" font-family="Arial" font-size="12">0.00</text>
<line x1="90" y1="461.2" x2="780" y2="461.2" stroke="#ddd" stroke-width="1"/>
<text x="83" y="465.2" text-anchor="end" font-family="Arial" font-size="12">0.18</text>
<line x1="90" y1="364.4" x2="780" y2="364.4" stroke="#ddd" stroke-width="1"/>
<text x="83" y="368.4" text-anchor="end" font-family="Arial" font-size="12">0.36</text>
<line x1="90" y1="267.6" x2="780" y2="267.6" stroke="#ddd" stroke-width="1"/>
<text x="83" y="271.6" text-anchor="end" font-family="Arial" font-size="12">0.54</text>
<line x1="90" y1="170.8" x2="780" y2="170.8" stroke="#ddd" stroke-width="1"/>
<text x="83" y="174.8" text-anchor="end" font-family="Arial" font-size="12">0.72</text>
<line x1="90" y1="74.0" x2="780" y2="74.0" stroke="#ddd" stroke-width="1"/>
<text x="83" y="78.0" text-anchor="end" font-family="Arial" font-size="12">0.90</text>
<line x1="95.0" y1="558" x2="95.0" y2="563" stroke="#222" stroke-width="1"/>
<text x="95.0" y="582" text-anchor="middle" font-family="Arial" font-size="12">0</text>
<line x1="232.0" y1="558" x2="232.0" y2="563" stroke="#222" stroke-width="1"/>
<text x="232.0" y="582" text-anchor="middle" font-family="Arial" font-size="12">40</text>
<line x1="369.0" y1="558" x2="369.0" y2="563" stroke="#222" stroke-width="1"/>
<text x="369.0" y="582" text-anchor="middle" font-family="Arial" font-size="12">80</text>
<line x1="506.0" y1="558" x2="506.0" y2="563" stroke="#222" stroke-width="1"/>
<text x="506.0" y="582" text-anchor="middle" font-family="Arial" font-size="12">120</text>
<line x1="643.0" y1="558" x2="643.0" y2="563" stroke="#222" stroke-width="1"/>
<text x="643.0" y="582" text-anchor="middle" font-family="Arial" font-size="12">160</text>
<line x1="780.0" y1="558" x2="780.0" y2="563" stroke="#222" stroke-width="1"/>
<text x="780.0" y="582" text-anchor="middle" font-family="Arial" font-size="12">200</text>
<polyline fill="none" stroke="#1f77b4" stroke-width="2.3" points="95.0,537.5 112.1,397.3 129.2,324.8 146.4,255.0 163.5,186.2 180.6,167.3 197.8,156.2 214.9,144.7 232.0,135.2 249.1,116.3 266.2,113.2 283.4,119.0 300.5,104.8 317.6,101.6 334.8,107.9 351.9,102.7 369.0,90.1 386.1,93.7 403.2,95.8 420.4,87.4 437.5,95.3 454.6,100.6 471.8,104.3 488.9,105.8 506.0,105.8 523.1,94.3 540.2,95.8 557.4,100.6 574.5,89.5 591.6,101.1 608.8,84.3 625.9,89.0 643.0,90.1 660.1,87.4 677.2,90.1 694.4,90.1 711.5,92.7 728.6,89.0 745.8,83.8 762.9,90.1 780.0,83.8"/>
<circle cx="95.0" cy="537.5" r="3" fill="#1f77b4"/>
<circle cx="112.1" cy="397.3" r="3" fill="#1f77b4"/>
<circle cx="129.2" cy="324.8" r="3" fill="#1f77b4"/>
<circle cx="146.4" cy="255.0" r="3" fill="#1f77b4"/>
<circle cx="163.5" cy="186.2" r="3" fill="#1f77b4"/>
<circle cx="180.6" cy="167.3" r="3" fill="#1f77b4"/>
<circle cx="197.8" cy="156.2" r="3" fill="#1f77b4"/>
<circle cx="214.9" cy="144.7" r="3" fill="#1f77b4"/>
<circle cx="232.0" cy="135.2" r="3" fill="#1f77b4"/>
<circle cx="249.1" cy="116.3" r="3" fill="#1f77b4"/>
<circle cx="266.2" cy="113.2" r="3" fill="#1f77b4"/>
<circle cx="283.4" cy="119.0" r="3" fill="#1f77b4"/>
<circle cx="300.5" cy="104.8" r="3" fill="#1f77b4"/>
<circle cx="317.6" cy="101.6" r="3" fill="#1f77b4"/>
<circle cx="334.8" cy="107.9" r="3" fill="#1f77b4"/>
<circle cx="351.9" cy="102.7" r="3" fill="#1f77b4"/>
<circle cx="369.0" cy="90.1" r="3" fill="#1f77b4"/>
<circle cx="386.1" cy="93.7" r="3" fill="#1f77b4"/>
<circle cx="403.2" cy="95.8" r="3" fill="#1f77b4"/>
<circle cx="420.4" cy="87.4" r="3" fill="#1f77b4"/>
<circle cx="437.5" cy="95.3" r="3" fill="#1f77b4"/>
<circle cx="454.6" cy="100.6" r="3" fill="#1f77b4"/>
<circle cx="471.8" cy="104.3" r="3" fill="#1f77b4"/>
<circle cx="488.9" cy="105.8" r="3" fill="#1f77b4"/>
<circle cx="506.0" cy="105.8" r="3" fill="#1f77b4"/>
<circle cx="523.1" cy="94.3" r="3" fill="#1f77b4"/>
<circle cx="540.2" cy="95.8" r="3" fill="#1f77b4"/>
<circle cx="557.4" cy="100.6" r="3" fill="#1f77b4"/>
<circle cx="574.5" cy="89.5" r="3" fill="#1f77b4"/>
<circle cx="591.6" cy="101.1" r="3" fill="#1f77b4"/>
<circle cx="608.8" cy="84.3" r="3" fill="#1f77b4"/>
<circle cx="625.9" cy="89.0" r="3" fill="#1f77b4"/>
<circle cx="643.0" cy="90.1" r="3" fill="#1f77b4"/>
<circle cx="660.1" cy="87.4" r="3" fill="#1f77b4"/>
<circle cx="677.2" cy="90.1" r="3" fill="#1f77b4"/>
<circle cx="694.4" cy="90.1" r="3" fill="#1f77b4"/>
<circle cx="711.5" cy="92.7" r="3" fill="#1f77b4"/>
<circle cx="728.6" cy="89.0" r="3" fill="#1f77b4"/>
<circle cx="745.8" cy="83.8" r="3" fill="#1f77b4"/>
<circle cx="762.9" cy="90.1" r="3" fill="#1f77b4"/>
<circle cx="780.0" cy="83.8" r="3" fill="#1f77b4"/>
<line x1="808" y1="96" x2="830" y2="96" stroke="#1f77b4" stroke-width="2.5"/>
<text x="838" y="100" font-family="Arial" font-size="13">r1_zero_reference</text>
<polyline fill="none" stroke="#d62728" stroke-width="2.3" points="95.0,252.9 112.1,170.4 129.2,157.8 146.4,155.7 163.5,139.4 180.6,143.6 197.8,128.4 214.9,137.3 232.0,125.3 249.1,133.7 266.2,127.4 283.4,126.8 300.5,129.5 317.6,114.8 334.8,122.6 351.9,114.8 369.0,124.2 386.1,115.8 403.2,119.0 420.4,122.1 437.5,130.0 454.6,118.4 471.8,120.0 488.9,119.0 506.0,110.0 523.1,119.5 540.2,111.1 557.4,114.8 574.5,107.9 591.6,108.5 608.8,106.4 625.9,108.5 643.0,109.5 660.1,107.9 677.2,119.0 694.4,111.6 711.5,111.6 728.6,103.7 745.8,105.8 762.9,106.4 780.0,100.0"/>
<circle cx="95.0" cy="252.9" r="3" fill="#d62728"/>
<circle cx="112.1" cy="170.4" r="3" fill="#d62728"/>
<circle cx="129.2" cy="157.8" r="3" fill="#d62728"/>
<circle cx="146.4" cy="155.7" r="3" fill="#d62728"/>
<circle cx="163.5" cy="139.4" r="3" fill="#d62728"/>
<circle cx="180.6" cy="143.6" r="3" fill="#d62728"/>
<circle cx="197.8" cy="128.4" r="3" fill="#d62728"/>
<circle cx="214.9" cy="137.3" r="3" fill="#d62728"/>
<circle cx="232.0" cy="125.3" r="3" fill="#d62728"/>
<circle cx="249.1" cy="133.7" r="3" fill="#d62728"/>
<circle cx="266.2" cy="127.4" r="3" fill="#d62728"/>
<circle cx="283.4" cy="126.8" r="3" fill="#d62728"/>
<circle cx="300.5" cy="129.5" r="3" fill="#d62728"/>
<circle cx="317.6" cy="114.8" r="3" fill="#d62728"/>
<circle cx="334.8" cy="122.6" r="3" fill="#d62728"/>
<circle cx="351.9" cy="114.8" r="3" fill="#d62728"/>
<circle cx="369.0" cy="124.2" r="3" fill="#d62728"/>
<circle cx="386.1" cy="115.8" r="3" fill="#d62728"/>
<circle cx="403.2" cy="119.0" r="3" fill="#d62728"/>
<circle cx="420.4" cy="122.1" r="3" fill="#d62728"/>
<circle cx="437.5" cy="130.0" r="3" fill="#d62728"/>
<circle cx="454.6" cy="118.4" r="3" fill="#d62728"/>
<circle cx="471.8" cy="120.0" r="3" fill="#d62728"/>
<circle cx="488.9" cy="119.0" r="3" fill="#d62728"/>
<circle cx="506.0" cy="110.0" r="3" fill="#d62728"/>
<circle cx="523.1" cy="119.5" r="3" fill="#d62728"/>
<circle cx="540.2" cy="111.1" r="3" fill="#d62728"/>
<circle cx="557.4" cy="114.8" r="3" fill="#d62728"/>
<circle cx="574.5" cy="107.9" r="3" fill="#d62728"/>
<circle cx="591.6" cy="108.5" r="3" fill="#d62728"/>
<circle cx="608.8" cy="106.4" r="3" fill="#d62728"/>
<circle cx="625.9" cy="108.5" r="3" fill="#d62728"/>
<circle cx="643.0" cy="109.5" r="3" fill="#d62728"/>
<circle cx="660.1" cy="107.9" r="3" fill="#d62728"/>
<circle cx="677.2" cy="119.0" r="3" fill="#d62728"/>
<circle cx="694.4" cy="111.6" r="3" fill="#d62728"/>
<circle cx="711.5" cy="111.6" r="3" fill="#d62728"/>
<circle cx="728.6" cy="103.7" r="3" fill="#d62728"/>
<circle cx="745.8" cy="105.8" r="3" fill="#d62728"/>
<circle cx="762.9" cy="106.4" r="3" fill="#d62728"/>
<circle cx="780.0" cy="100.0" r="3" fill="#d62728"/>
<line x1="808" y1="121" x2="830" y2="121" stroke="#d62728" stroke-width="2.5"/>
<text x="838" y="125" font-family="Arial" font-size="13">question_only</text>
<text x="437.5" y="618" text-anchor="middle" font-family="Arial" font-size="15">GRPO step</text>
<text x="24" y="316.0" text-anchor="middle" font-family="Arial" font-size="15" transform="rotate(-90 24 316.0)">Validation answer reward</text>
</svg>
