<svg xmlns="http://www.w3.org/2000/svg" width="1040" height="640" viewBox="0 0 1040 640">
<rect width="100%" height="100%" fill="white"/>
<text x="520.0" y="36" text-anchor="middle" font-family="Arial" font-size="22" font-weight="700">GRPO prompt ablation: validation format accuracy</text>
<line x1="95" y1="558" x2="780" y2="558" stroke="#222" stroke-width="1.5"/>
<line x1="95" y1="74" x2="95" y2="558" stroke="#222" stroke-width="1.5"/>
<line x1="90" y1="558.0" x2="780" y2="558.0" stroke="#ddd" stroke-width="1"/>
<text x="83" y="562.0" text-anchor="end" font-family="Arial" font-size="12">0.00</text>
<line x1="90" y1="461.2" x2="780" y2="461.2" stroke="#ddd" stroke-width="1"/>
<text x="83" y="465.2" text-anchor="end" font-family="Arial" font-size="12">0.20</text>
<line x1="90" y1="364.4" x2="780" y2="364.4" stroke="#ddd" stroke-width="1"/>
<text x="83" y="368.4" text-anchor="end" font-family="Arial" font-size="12">0.40</text>
<line x1="90" y1="267.6" x2="780" y2="267.6" stroke="#ddd" stroke-width="1"/>
<text x="83" y="271.6" text-anchor="end" font-family="Arial" font-size="12">0.60</text>
<line x1="90" y1="170.8" x2="780" y2="170.8" stroke="#ddd" stroke-width="1"/>
<text x="83" y="174.8" text-anchor="end" font-family="Arial" font-size="12">0.80</text>
<line x1="90" y1="74.0" x2="780" y2="74.0" stroke="#ddd" stroke-width="1"/>
<text x="83" y="78.0" text-anchor="end" font-family="Arial" font-size="12">1.00</text>
<line x1="95.0" y1="558" x2="95.0" y2="563" stroke="#222" stroke-width="1"/>
<text x="95.0" y="582" text-anchor="middle" font-family="Arial" font-size="12">0</text>
<line x1="232.0" y1="558" x2="232.0" y2="563" stroke="#222" stroke-width="1"/>
<text x="232.0" y="582" text-anchor="middle" font-family="Arial" font-size="12">40</text>
<line x1="369.0" y1="558" x2="369.0" y2="563" stroke="#222" stroke-width="1"/>
<text x="369.0" y="582" text-anchor="middle" font-family="Arial" font-size="12">80</text>
<line x1="506.0" y1="558" x2="506.0" y2="563" stroke="#222" stroke-width="1"/>
<text x="506.0" y="582" text-anchor="middle" font-family="Arial" font-size="12">120</text>
<line x1="643.0" y1="558" x2="643.0" y2="563" stroke="#222" stroke-width="1"/>
<text x="643.0" y="582" text-anchor="middle" font-family="Arial" font-size="12">160</text>
<line x1="780.0" y1="558" x2="780.0" y2="563" stroke="#222" stroke-width="1"/>
<text x="780.0" y="582" text-anchor="middle" font-family="Arial" font-size="12">200</text>
<polyline fill="none" stroke="#1f77b4" stroke-width="2.3" points="95.0,470.6 112.1,152.0 129.2,105.7 146.4,93.9 163.5,98.6 180.6,107.1 197.8,109.0 214.9,96.2 232.0,95.3 249.1,89.6 266.2,87.7 283.4,87.7 300.5,89.1 317.6,97.6 334.8,109.0 351.9,100.9 369.0,95.7 386.1,97.2 403.2,96.7 420.4,85.8 437.5,83.9 454.6,83.9 471.8,81.6 488.9,90.5 506.0,91.5 523.1,91.5 540.2,89.1 557.4,88.2 574.5,88.2 591.6,98.1 608.8,87.7 625.9,86.8 643.0,85.8 660.1,86.3 677.2,84.4 694.4,86.8 711.5,82.5 728.6,83.0 745.8,85.3 762.9,84.9 780.0,83.5"/>
<circle cx="95.0" cy="470.6" r="3" fill="#1f77b4"/>
<circle cx="112.1" cy="152.0" r="3" fill="#1f77b4"/>
<circle cx="129.2" cy="105.7" r="3" fill="#1f77b4"/>
<circle cx="146.4" cy="93.9" r="3" fill="#1f77b4"/>
<circle cx="163.5" cy="98.6" r="3" fill="#1f77b4"/>
<circle cx="180.6" cy="107.1" r="3" fill="#1f77b4"/>
<circle cx="197.8" cy="109.0" r="3" fill="#1f77b4"/>
<circle cx="214.9" cy="96.2" r="3" fill="#1f77b4"/>
<circle cx="232.0" cy="95.3" r="3" fill="#1f77b4"/>
<circle cx="249.1" cy="89.6" r="3" fill="#1f77b4"/>
<circle cx="266.2" cy="87.7" r="3" fill="#1f77b4"/>
<circle cx="283.4" cy="87.7" r="3" fill="#1f77b4"/>
<circle cx="300.5" cy="89.1" r="3" fill="#1f77b4"/>
<circle cx="317.6" cy="97.6" r="3" fill="#1f77b4"/>
<circle cx="334.8" cy="109.0" r="3" fill="#1f77b4"/>
<circle cx="351.9" cy="100.9" r="3" fill="#1f77b4"/>
<circle cx="369.0" cy="95.7" r="3" fill="#1f77b4"/>
<circle cx="386.1" cy="97.2" r="3" fill="#1f77b4"/>
<circle cx="403.2" cy="96.7" r="3" fill="#1f77b4"/>
<circle cx="420.4" cy="85.8" r="3" fill="#1f77b4"/>
<circle cx="437.5" cy="83.9" r="3" fill="#1f77b4"/>
<circle cx="454.6" cy="83.9" r="3" fill="#1f77b4"/>
<circle cx="471.8" cy="81.6" r="3" fill="#1f77b4"/>
<circle cx="488.9" cy="90.5" r="3" fill="#1f77b4"/>
<circle cx="506.0" cy="91.5" r="3" fill="#1f77b4"/>
<circle cx="523.1" cy="91.5" r="3" fill="#1f77b4"/>
<circle cx="540.2" cy="89.1" r="3" fill="#1f77b4"/>
<circle cx="557.4" cy="88.2" r="3" fill="#1f77b4"/>
<circle cx="574.5" cy="88.2" r="3" fill="#1f77b4"/>
<circle cx="591.6" cy="98.1" r="3" fill="#1f77b4"/>
<circle cx="608.8" cy="87.7" r="3" fill="#1f77b4"/>
<circle cx="625.9" cy="86.8" r="3" fill="#1f77b4"/>
<circle cx="643.0" cy="85.8" r="3" fill="#1f77b4"/>
<circle cx="660.1" cy="86.3" r="3" fill="#1f77b4"/>
<circle cx="677.2" cy="84.4" r="3" fill="#1f77b4"/>
<circle cx="694.4" cy="86.8" r="3" fill="#1f77b4"/>
<circle cx="711.5" cy="82.5" r="3" fill="#1f77b4"/>
<circle cx="728.6" cy="83.0" r="3" fill="#1f77b4"/>
<circle cx="745.8" cy="85.3" r="3" fill="#1f77b4"/>
<circle cx="762.9" cy="84.9" r="3" fill="#1f77b4"/>
<circle cx="780.0" cy="83.5" r="3" fill="#1f77b4"/>
<line x1="808" y1="96" x2="830" y2="96" stroke="#1f77b4" stroke-width="2.5"/>
<text x="838" y="100" font-family="Arial" font-size="13">r1_zero_reference</text>
<polyline fill="none" stroke="#d62728" stroke-width="2.3" points="95.0,174.2 112.1,104.7 129.2,99.5 146.4,98.1 163.5,96.7 180.6,86.8 197.8,88.7 214.9,86.8 232.0,87.2 249.1,87.7 266.2,83.9 283.4,84.9 300.5,85.8 317.6,86.8 334.8,86.8 351.9,88.7 369.0,88.2 386.1,85.8 403.2,83.5 420.4,84.9 437.5,84.9 454.6,87.2 471.8,80.1 488.9,82.5 506.0,79.7 523.1,80.1 540.2,83.9 557.4,83.0 574.5,80.6 591.6,81.1 608.8,81.1 625.9,82.0 643.0,78.3 660.1,81.1 677.2,83.0 694.4,78.3 711.5,81.1 728.6,82.0 745.8,80.6 762.9,80.1 780.0,85.3"/>
<circle cx="95.0" cy="174.2" r="3" fill="#d62728"/>
<circle cx="112.1" cy="104.7" r="3" fill="#d62728"/>
<circle cx="129.2" cy="99.5" r="3" fill="#d62728"/>
<circle cx="146.4" cy="98.1" r="3" fill="#d62728"/>
<circle cx="163.5" cy="96.7" r="3" fill="#d62728"/>
<circle cx="180.6" cy="86.8" r="3" fill="#d62728"/>
<circle cx="197.8" cy="88.7" r="3" fill="#d62728"/>
<circle cx="214.9" cy="86.8" r="3" fill="#d62728"/>
<circle cx="232.0" cy="87.2" r="3" fill="#d62728"/>
<circle cx="249.1" cy="87.7" r="3" fill="#d62728"/>
<circle cx="266.2" cy="83.9" r="3" fill="#d62728"/>
<circle cx="283.4" cy="84.9" r="3" fill="#d62728"/>
<circle cx="300.5" cy="85.8" r="3" fill="#d62728"/>
<circle cx="317.6" cy="86.8" r="3" fill="#d62728"/>
<circle cx="334.8" cy="86.8" r="3" fill="#d62728"/>
<circle cx="351.9" cy="88.7" r="3" fill="#d62728"/>
<circle cx="369.0" cy="88.2" r="3" fill="#d62728"/>
<circle cx="386.1" cy="85.8" r="3" fill="#d62728"/>
<circle cx="403.2" cy="83.5" r="3" fill="#d62728"/>
<circle cx="420.4" cy="84.9" r="3" fill="#d62728"/>
<circle cx="437.5" cy="84.9" r="3" fill="#d62728"/>
<circle cx="454.6" cy="87.2" r="3" fill="#d62728"/>
<circle cx="471.8" cy="80.1" r="3" fill="#d62728"/>
<circle cx="488.9" cy="82.5" r="3" fill="#d62728"/>
<circle cx="506.0" cy="79.7" r="3" fill="#d62728"/>
<circle cx="523.1" cy="80.1" r="3" fill="#d62728"/>
<circle cx="540.2" cy="83.9" r="3" fill="#d62728"/>
<circle cx="557.4" cy="83.0" r="3" fill="#d62728"/>
<circle cx="574.5" cy="80.6" r="3" fill="#d62728"/>
<circle cx="591.6" cy="81.1" r="3" fill="#d62728"/>
<circle cx="608.8" cy="81.1" r="3" fill="#d62728"/>
<circle cx="625.9" cy="82.0" r="3" fill="#d62728"/>
<circle cx="643.0" cy="78.3" r="3" fill="#d62728"/>
<circle cx="660.1" cy="81.1" r="3" fill="#d62728"/>
<circle cx="677.2" cy="83.0" r="3" fill="#d62728"/>
<circle cx="694.4" cy="78.3" r="3" fill="#d62728"/>
<circle cx="711.5" cy="81.1" r="3" fill="#d62728"/>
<circle cx="728.6" cy="82.0" r="3" fill="#d62728"/>
<circle cx="745.8" cy="80.6" r="3" fill="#d62728"/>
<circle cx="762.9" cy="80.1" r="3" fill="#d62728"/>
<circle cx="780.0" cy="85.3" r="3" fill="#d62728"/>
<line x1="808" y1="121" x2="830" y2="121" stroke="#d62728" stroke-width="2.5"/>
<text x="838" y="125" font-family="Arial" font-size="13">question_only</text>
<text x="437.5" y="618" text-anchor="middle" font-family="Arial" font-size="15">GRPO step</text>
<text x="24" y="316.0" text-anchor="middle" font-family="Arial" font-size="15" transform="rotate(-90 24 316.0)">Validation format accuracy</text>
</svg>
