<svg xmlns="http://www.w3.org/2000/svg" width="1040" height="640" viewBox="0 0 1040 640">
<rect width="100%" height="100%" fill="white"/>
<text x="520.0" y="36" text-anchor="middle" font-family="Arial" font-size="22" font-weight="700">GRPO prompt ablation: rollout response length</text>
<line x1="95" y1="558" x2="780" y2="558" stroke="#222" stroke-width="1.5"/>
<line x1="95" y1="74" x2="95" y2="558" stroke="#222" stroke-width="1.5"/>
<line x1="90" y1="558.0" x2="780" y2="558.0" stroke="#ddd" stroke-width="1"/>
<text x="83" y="562.0" text-anchor="end" font-family="Arial" font-size="12">0.00</text>
<line x1="90" y1="461.2" x2="780" y2="461.2" stroke="#ddd" stroke-width="1"/>
<text x="83" y="465.2" text-anchor="end" font-family="Arial" font-size="12">138.52</text>
<line x1="90" y1="364.4" x2="780" y2="364.4" stroke="#ddd" stroke-width="1"/>
<text x="83" y="368.4" text-anchor="end" font-family="Arial" font-size="12">277.04</text>
<line x1="90" y1="267.6" x2="780" y2="267.6" stroke="#ddd" stroke-width="1"/>
<text x="83" y="271.6" text-anchor="end" font-family="Arial" font-size="12">415.56</text>
<line x1="90" y1="170.8" x2="780" y2="170.8" stroke="#ddd" stroke-width="1"/>
<text x="83" y="174.8" text-anchor="end" font-family="Arial" font-size="12">554.08</text>
<line x1="90" y1="74.0" x2="780" y2="74.0" stroke="#ddd" stroke-width="1"/>
<text x="83" y="78.0" text-anchor="end" font-family="Arial" font-size="12">692.60</text>
<line x1="95.0" y1="558" x2="95.0" y2="563" stroke="#222" stroke-width="1"/>
<text x="95.0" y="582" text-anchor="middle" font-family="Arial" font-size="12">1</text>
<line x1="232.0" y1="558" x2="232.0" y2="563" stroke="#222" stroke-width="1"/>
<text x="232.0" y="582" text-anchor="middle" font-family="Arial" font-size="12">41</text>
<line x1="369.0" y1="558" x2="369.0" y2="563" stroke="#222" stroke-width="1"/>
<text x="369.0" y="582" text-anchor="middle" font-family="Arial" font-size="12">81</text>
<line x1="506.0" y1="558" x2="506.0" y2="563" stroke="#222" stroke-width="1"/>
<text x="506.0" y="582" text-anchor="middle" font-family="Arial" font-size="12">120</text>
<line x1="643.0" y1="558" x2="643.0" y2="563" stroke="#222" stroke-width="1"/>
<text x="643.0" y="582" text-anchor="middle" font-family="Arial" font-size="12">160</text>
<line x1="780.0" y1="558" x2="780.0" y2="563" stroke="#222" stroke-width="1"/>
<text x="780.0" y="582" text-anchor="middle" font-family="Arial" font-size="12">200</text>
<polyline fill="none" stroke="#1f77b4" stroke-width="2.3" points="95.0,345.1 98.4,475.4 101.9,441.5 105.3,407.4 108.8,377.8 112.2,372.6 115.7,379.8 119.1,410.6 122.5,392.8 126.0,417.2 129.4,397.0 132.9,409.1 136.3,389.0 139.7,399.3 143.2,385.5 146.6,379.5 150.1,380.2 153.5,376.2 157.0,375.6 160.4,368.4 163.8,356.9 167.3,335.7 170.7,345.6 174.2,364.0 177.6,366.6 181.1,345.9 184.5,364.3 187.9,335.9 191.4,332.1 194.8,311.8 198.3,350.7 201.7,365.8 205.2,384.7 208.6,342.2 212.0,330.0 215.5,338.5 218.9,352.3 222.4,344.9 225.8,356.8 229.2,318.1 232.7,354.9 236.1,318.0 239.6,328.1 243.0,330.4 246.5,319.3 249.9,285.4 253.3,366.7 256.8,284.6 260.2,322.8 263.7,349.3 267.1,329.0 270.6,339.4 274.0,322.2 277.4,358.5 280.9,337.6 284.3,294.6 287.8,357.1 291.2,312.8 294.6,300.6 298.1,268.6 301.5,322.2 305.0,312.1 308.4,329.2 311.9,234.6 315.3,288.7 318.7,297.7 322.2,240.6 325.6,288.4 329.1,282.4 332.5,261.2 336.0,212.5 339.4,257.7 342.8,252.5 346.3,239.1 349.7,217.1 353.2,256.0 356.6,182.6 360.1,226.3 363.5,228.3 366.9,279.4 370.4,237.4 373.8,244.3 377.3,230.2 380.7,176.3 384.1,227.2 387.6,219.4 391.0,274.9 394.5,243.5 397.9,275.8 401.4,267.8 404.8,206.9 408.2,161.8 411.7,228.8 415.1,210.3 418.6,223.8 422.0,200.2 425.5,208.4 428.9,202.6 432.3,237.9 435.8,244.9 439.2,219.9 442.7,300.0 446.1,313.9 449.5,304.9 453.0,299.0 456.4,305.1 459.9,303.6 463.3,281.4 466.8,304.8 470.2,294.4 473.6,239.1 477.1,284.3 480.5,305.6 484.0,263.1 487.4,281.9 490.9,219.6 494.3,292.2 497.7,277.1 501.2,255.3 504.6,241.7 508.1,229.8 511.5,143.4 514.9,186.7 518.4,271.9 521.8,209.2 525.3,220.4 528.7,212.2 532.2,181.5 535.6,203.6 539.0,243.2 542.5,221.1 545.9,229.2 549.4,217.2 552.8,200.5 556.3,225.6 559.7,218.3 563.1,239.2 566.6,234.5 570.0,246.4 573.5,159.8 576.9,211.7 580.4,204.0 583.8,229.7 587.2,181.5 590.7,216.1 594.1,222.6 597.6,222.5 601.0,194.5 604.4,186.8 607.9,202.1 611.3,196.1 614.8,193.0 618.2,241.3 621.7,212.5 625.1,232.8 628.5,247.5 632.0,144.4 635.4,233.7 638.9,161.7 642.3,150.3 645.8,176.3 649.2,257.8 652.6,239.3 656.1,195.7 659.5,247.3 663.0,241.3 666.4,224.8 669.8,270.9 673.3,253.7 676.7,251.4 680.2,263.4 683.6,280.3 687.1,241.9 690.5,227.7 693.9,238.0 697.4,255.6 700.8,227.5 704.3,228.5 707.7,276.0 711.2,235.0 714.6,222.6 718.0,261.9 721.5,261.9 724.9,254.8 728.4,281.5 731.8,229.3 735.3,275.2 738.7,236.1 742.1,213.9 745.6,204.3 749.0,228.5 752.5,281.0 755.9,268.4 759.3,236.5 762.8,187.1 766.2,156.1 769.7,245.0 773.1,216.5 776.6,188.2 780.0,231.7"/>
<circle cx="95.0" cy="345.1" r="3" fill="#1f77b4"/>
<circle cx="98.4" cy="475.4" r="3" fill="#1f77b4"/>
<circle cx="101.9" cy="441.5" r="3" fill="#1f77b4"/>
<circle cx="105.3" cy="407.4" r="3" fill="#1f77b4"/>
<circle cx="108.8" cy="377.8" r="3" fill="#1f77b4"/>
<circle cx="112.2" cy="372.6" r="3" fill="#1f77b4"/>
<circle cx="115.7" cy="379.8" r="3" fill="#1f77b4"/>
<circle cx="119.1" cy="410.6" r="3" fill="#1f77b4"/>
<circle cx="122.5" cy="392.8" r="3" fill="#1f77b4"/>
<circle cx="126.0" cy="417.2" r="3" fill="#1f77b4"/>
<circle cx="129.4" cy="397.0" r="3" fill="#1f77b4"/>
<circle cx="132.9" cy="409.1" r="3" fill="#1f77b4"/>
<circle cx="136.3" cy="389.0" r="3" fill="#1f77b4"/>
<circle cx="139.7" cy="399.3" r="3" fill="#1f77b4"/>
<circle cx="143.2" cy="385.5" r="3" fill="#1f77b4"/>
<circle cx="146.6" cy="379.5" r="3" fill="#1f77b4"/>
<circle cx="150.1" cy="380.2" r="3" fill="#1f77b4"/>
<circle cx="153.5" cy="376.2" r="3" fill="#1f77b4"/>
<circle cx="157.0" cy="375.6" r="3" fill="#1f77b4"/>
<circle cx="160.4" cy="368.4" r="3" fill="#1f77b4"/>
<circle cx="163.8" cy="356.9" r="3" fill="#1f77b4"/>
<circle cx="167.3" cy="335.7" r="3" fill="#1f77b4"/>
<circle cx="170.7" cy="345.6" r="3" fill="#1f77b4"/>
<circle cx="174.2" cy="364.0" r="3" fill="#1f77b4"/>
<circle cx="177.6" cy="366.6" r="3" fill="#1f77b4"/>
<circle cx="181.1" cy="345.9" r="3" fill="#1f77b4"/>
<circle cx="184.5" cy="364.3" r="3" fill="#1f77b4"/>
<circle cx="187.9" cy="335.9" r="3" fill="#1f77b4"/>
<circle cx="191.4" cy="332.1" r="3" fill="#1f77b4"/>
<circle cx="194.8" cy="311.8" r="3" fill="#1f77b4"/>
<circle cx="198.3" cy="350.7" r="3" fill="#1f77b4"/>
<circle cx="201.7" cy="365.8" r="3" fill="#1f77b4"/>
<circle cx="205.2" cy="384.7" r="3" fill="#1f77b4"/>
<circle cx="208.6" cy="342.2" r="3" fill="#1f77b4"/>
<circle cx="212.0" cy="330.0" r="3" fill="#1f77b4"/>
<circle cx="215.5" cy="338.5" r="3" fill="#1f77b4"/>
<circle cx="218.9" cy="352.3" r="3" fill="#1f77b4"/>
<circle cx="222.4" cy="344.9" r="3" fill="#1f77b4"/>
<circle cx="225.8" cy="356.8" r="3" fill="#1f77b4"/>
<circle cx="229.2" cy="318.1" r="3" fill="#1f77b4"/>
<circle cx="232.7" cy="354.9" r="3" fill="#1f77b4"/>
<circle cx="236.1" cy="318.0" r="3" fill="#1f77b4"/>
<circle cx="239.6" cy="328.1" r="3" fill="#1f77b4"/>
<circle cx="243.0" cy="330.4" r="3" fill="#1f77b4"/>
<circle cx="246.5" cy="319.3" r="3" fill="#1f77b4"/>
<circle cx="249.9" cy="285.4" r="3" fill="#1f77b4"/>
<circle cx="253.3" cy="366.7" r="3" fill="#1f77b4"/>
<circle cx="256.8" cy="284.6" r="3" fill="#1f77b4"/>
<circle cx="260.2" cy="322.8" r="3" fill="#1f77b4"/>
<circle cx="263.7" cy="349.3" r="3" fill="#1f77b4"/>
<circle cx="267.1" cy="329.0" r="3" fill="#1f77b4"/>
<circle cx="270.6" cy="339.4" r="3" fill="#1f77b4"/>
<circle cx="274.0" cy="322.2" r="3" fill="#1f77b4"/>
<circle cx="277.4" cy="358.5" r="3" fill="#1f77b4"/>
<circle cx="280.9" cy="337.6" r="3" fill="#1f77b4"/>
<circle cx="284.3" cy="294.6" r="3" fill="#1f77b4"/>
<circle cx="287.8" cy="357.1" r="3" fill="#1f77b4"/>
<circle cx="291.2" cy="312.8" r="3" fill="#1f77b4"/>
<circle cx="294.6" cy="300.6" r="3" fill="#1f77b4"/>
<circle cx="298.1" cy="268.6" r="3" fill="#1f77b4"/>
<circle cx="301.5" cy="322.2" r="3" fill="#1f77b4"/>
<circle cx="305.0" cy="312.1" r="3" fill="#1f77b4"/>
<circle cx="308.4" cy="329.2" r="3" fill="#1f77b4"/>
<circle cx="311.9" cy="234.6" r="3" fill="#1f77b4"/>
<circle cx="315.3" cy="288.7" r="3" fill="#1f77b4"/>
<circle cx="318.7" cy="297.7" r="3" fill="#1f77b4"/>
<circle cx="322.2" cy="240.6" r="3" fill="#1f77b4"/>
<circle cx="325.6" cy="288.4" r="3" fill="#1f77b4"/>
<circle cx="329.1" cy="282.4" r="3" fill="#1f77b4"/>
<circle cx="332.5" cy="261.2" r="3" fill="#1f77b4"/>
<circle cx="336.0" cy="212.5" r="3" fill="#1f77b4"/>
<circle cx="339.4" cy="257.7" r="3" fill="#1f77b4"/>
<circle cx="342.8" cy="252.5" r="3" fill="#1f77b4"/>
<circle cx="346.3" cy="239.1" r="3" fill="#1f77b4"/>
<circle cx="349.7" cy="217.1" r="3" fill="#1f77b4"/>
<circle cx="353.2" cy="256.0" r="3" fill="#1f77b4"/>
<circle cx="356.6" cy="182.6" r="3" fill="#1f77b4"/>
<circle cx="360.1" cy="226.3" r="3" fill="#1f77b4"/>
<circle cx="363.5" cy="228.3" r="3" fill="#1f77b4"/>
<circle cx="366.9" cy="279.4" r="3" fill="#1f77b4"/>
<circle cx="370.4" cy="237.4" r="3" fill="#1f77b4"/>
<circle cx="373.8" cy="244.3" r="3" fill="#1f77b4"/>
<circle cx="377.3" cy="230.2" r="3" fill="#1f77b4"/>
<circle cx="380.7" cy="176.3" r="3" fill="#1f77b4"/>
<circle cx="384.1" cy="227.2" r="3" fill="#1f77b4"/>
<circle cx="387.6" cy="219.4" r="3" fill="#1f77b4"/>
<circle cx="391.0" cy="274.9" r="3" fill="#1f77b4"/>
<circle cx="394.5" cy="243.5" r="3" fill="#1f77b4"/>
<circle cx="397.9" cy="275.8" r="3" fill="#1f77b4"/>
<circle cx="401.4" cy="267.8" r="3" fill="#1f77b4"/>
<circle cx="404.8" cy="206.9" r="3" fill="#1f77b4"/>
<circle cx="408.2" cy="161.8" r="3" fill="#1f77b4"/>
<circle cx="411.7" cy="228.8" r="3" fill="#1f77b4"/>
<circle cx="415.1" cy="210.3" r="3" fill="#1f77b4"/>
<circle cx="418.6" cy="223.8" r="3" fill="#1f77b4"/>
<circle cx="422.0" cy="200.2" r="3" fill="#1f77b4"/>
<circle cx="425.5" cy="208.4" r="3" fill="#1f77b4"/>
<circle cx="428.9" cy="202.6" r="3" fill="#1f77b4"/>
<circle cx="432.3" cy="237.9" r="3" fill="#1f77b4"/>
<circle cx="435.8" cy="244.9" r="3" fill="#1f77b4"/>
<circle cx="439.2" cy="219.9" r="3" fill="#1f77b4"/>
<circle cx="442.7" cy="300.0" r="3" fill="#1f77b4"/>
<circle cx="446.1" cy="313.9" r="3" fill="#1f77b4"/>
<circle cx="449.5" cy="304.9" r="3" fill="#1f77b4"/>
<circle cx="453.0" cy="299.0" r="3" fill="#1f77b4"/>
<circle cx="456.4" cy="305.1" r="3" fill="#1f77b4"/>
<circle cx="459.9" cy="303.6" r="3" fill="#1f77b4"/>
<circle cx="463.3" cy="281.4" r="3" fill="#1f77b4"/>
<circle cx="466.8" cy="304.8" r="3" fill="#1f77b4"/>
<circle cx="470.2" cy="294.4" r="3" fill="#1f77b4"/>
<circle cx="473.6" cy="239.1" r="3" fill="#1f77b4"/>
<circle cx="477.1" cy="284.3" r="3" fill="#1f77b4"/>
<circle cx="480.5" cy="305.6" r="3" fill="#1f77b4"/>
<circle cx="484.0" cy="263.1" r="3" fill="#1f77b4"/>
<circle cx="487.4" cy="281.9" r="3" fill="#1f77b4"/>
<circle cx="490.9" cy="219.6" r="3" fill="#1f77b4"/>
<circle cx="494.3" cy="292.2" r="3" fill="#1f77b4"/>
<circle cx="497.7" cy="277.1" r="3" fill="#1f77b4"/>
<circle cx="501.2" cy="255.3" r="3" fill="#1f77b4"/>
<circle cx="504.6" cy="241.7" r="3" fill="#1f77b4"/>
<circle cx="508.1" cy="229.8" r="3" fill="#1f77b4"/>
<circle cx="511.5" cy="143.4" r="3" fill="#1f77b4"/>
<circle cx="514.9" cy="186.7" r="3" fill="#1f77b4"/>
<circle cx="518.4" cy="271.9" r="3" fill="#1f77b4"/>
<circle cx="521.8" cy="209.2" r="3" fill="#1f77b4"/>
<circle cx="525.3" cy="220.4" r="3" fill="#1f77b4"/>
<circle cx="528.7" cy="212.2" r="3" fill="#1f77b4"/>
<circle cx="532.2" cy="181.5" r="3" fill="#1f77b4"/>
<circle cx="535.6" cy="203.6" r="3" fill="#1f77b4"/>
<circle cx="539.0" cy="243.2" r="3" fill="#1f77b4"/>
<circle cx="542.5" cy="221.1" r="3" fill="#1f77b4"/>
<circle cx="545.9" cy="229.2" r="3" fill="#1f77b4"/>
<circle cx="549.4" cy="217.2" r="3" fill="#1f77b4"/>
<circle cx="552.8" cy="200.5" r="3" fill="#1f77b4"/>
<circle cx="556.3" cy="225.6" r="3" fill="#1f77b4"/>
<circle cx="559.7" cy="218.3" r="3" fill="#1f77b4"/>
<circle cx="563.1" cy="239.2" r="3" fill="#1f77b4"/>
<circle cx="566.6" cy="234.5" r="3" fill="#1f77b4"/>
<circle cx="570.0" cy="246.4" r="3" fill="#1f77b4"/>
<circle cx="573.5" cy="159.8" r="3" fill="#1f77b4"/>
<circle cx="576.9" cy="211.7" r="3" fill="#1f77b4"/>
<circle cx="580.4" cy="204.0" r="3" fill="#1f77b4"/>
<circle cx="583.8" cy="229.7" r="3" fill="#1f77b4"/>
<circle cx="587.2" cy="181.5" r="3" fill="#1f77b4"/>
<circle cx="590.7" cy="216.1" r="3" fill="#1f77b4"/>
<circle cx="594.1" cy="222.6" r="3" fill="#1f77b4"/>
<circle cx="597.6" cy="222.5" r="3" fill="#1f77b4"/>
<circle cx="601.0" cy="194.5" r="3" fill="#1f77b4"/>
<circle cx="604.4" cy="186.8" r="3" fill="#1f77b4"/>
<circle cx="607.9" cy="202.1" r="3" fill="#1f77b4"/>
<circle cx="611.3" cy="196.1" r="3" fill="#1f77b4"/>
<circle cx="614.8" cy="193.0" r="3" fill="#1f77b4"/>
<circle cx="618.2" cy="241.3" r="3" fill="#1f77b4"/>
<circle cx="621.7" cy="212.5" r="3" fill="#1f77b4"/>
<circle cx="625.1" cy="232.8" r="3" fill="#1f77b4"/>
<circle cx="628.5" cy="247.5" r="3" fill="#1f77b4"/>
<circle cx="632.0" cy="144.4" r="3" fill="#1f77b4"/>
<circle cx="635.4" cy="233.7" r="3" fill="#1f77b4"/>
<circle cx="638.9" cy="161.7" r="3" fill="#1f77b4"/>
<circle cx="642.3" cy="150.3" r="3" fill="#1f77b4"/>
<circle cx="645.8" cy="176.3" r="3" fill="#1f77b4"/>
<circle cx="649.2" cy="257.8" r="3" fill="#1f77b4"/>
<circle cx="652.6" cy="239.3" r="3" fill="#1f77b4"/>
<circle cx="656.1" cy="195.7" r="3" fill="#1f77b4"/>
<circle cx="659.5" cy="247.3" r="3" fill="#1f77b4"/>
<circle cx="663.0" cy="241.3" r="3" fill="#1f77b4"/>
<circle cx="666.4" cy="224.8" r="3" fill="#1f77b4"/>
<circle cx="669.8" cy="270.9" r="3" fill="#1f77b4"/>
<circle cx="673.3" cy="253.7" r="3" fill="#1f77b4"/>
<circle cx="676.7" cy="251.4" r="3" fill="#1f77b4"/>
<circle cx="680.2" cy="263.4" r="3" fill="#1f77b4"/>
<circle cx="683.6" cy="280.3" r="3" fill="#1f77b4"/>
<circle cx="687.1" cy="241.9" r="3" fill="#1f77b4"/>
<circle cx="690.5" cy="227.7" r="3" fill="#1f77b4"/>
<circle cx="693.9" cy="238.0" r="3" fill="#1f77b4"/>
<circle cx="697.4" cy="255.6" r="3" fill="#1f77b4"/>
<circle cx="700.8" cy="227.5" r="3" fill="#1f77b4"/>
<circle cx="704.3" cy="228.5" r="3" fill="#1f77b4"/>
<circle cx="707.7" cy="276.0" r="3" fill="#1f77b4"/>
<circle cx="711.2" cy="235.0" r="3" fill="#1f77b4"/>
<circle cx="714.6" cy="222.6" r="3" fill="#1f77b4"/>
<circle cx="718.0" cy="261.9" r="3" fill="#1f77b4"/>
<circle cx="721.5" cy="261.9" r="3" fill="#1f77b4"/>
<circle cx="724.9" cy="254.8" r="3" fill="#1f77b4"/>
<circle cx="728.4" cy="281.5" r="3" fill="#1f77b4"/>
<circle cx="731.8" cy="229.3" r="3" fill="#1f77b4"/>
<circle cx="735.3" cy="275.2" r="3" fill="#1f77b4"/>
<circle cx="738.7" cy="236.1" r="3" fill="#1f77b4"/>
<circle cx="742.1" cy="213.9" r="3" fill="#1f77b4"/>
<circle cx="745.6" cy="204.3" r="3" fill="#1f77b4"/>
<circle cx="749.0" cy="228.5" r="3" fill="#1f77b4"/>
<circle cx="752.5" cy="281.0" r="3" fill="#1f77b4"/>
<circle cx="755.9" cy="268.4" r="3" fill="#1f77b4"/>
<circle cx="759.3" cy="236.5" r="3" fill="#1f77b4"/>
<circle cx="762.8" cy="187.1" r="3" fill="#1f77b4"/>
<circle cx="766.2" cy="156.1" r="3" fill="#1f77b4"/>
<circle cx="769.7" cy="245.0" r="3" fill="#1f77b4"/>
<circle cx="773.1" cy="216.5" r="3" fill="#1f77b4"/>
<circle cx="776.6" cy="188.2" r="3" fill="#1f77b4"/>
<circle cx="780.0" cy="231.7" r="3" fill="#1f77b4"/>
<line x1="808" y1="96" x2="830" y2="96" stroke="#1f77b4" stroke-width="2.5"/>
<text x="838" y="100" font-family="Arial" font-size="13">r1_zero_reference</text>
<polyline fill="none" stroke="#d62728" stroke-width="2.3" points="95.0,124.1 98.4,202.2 101.9,198.8 105.3,157.2 108.8,143.2 112.2,74.1 115.7,171.2 119.1,151.8 122.5,166.2 126.0,166.4 129.4,138.2 132.9,180.5 136.3,160.3 139.7,187.1 143.2,180.8 146.6,145.7 150.1,143.3 153.5,157.1 157.0,168.3 160.4,169.5 163.8,165.5 167.3,145.1 170.7,162.7 174.2,179.8 177.6,212.0 181.1,177.9 184.5,191.3 187.9,205.7 191.4,147.6 194.8,150.8 198.3,193.6 201.7,187.0 205.2,215.0 208.6,168.1 212.0,150.7 215.5,163.9 218.9,184.8 222.4,146.3 225.8,221.7 229.2,165.9 232.7,190.4 236.1,179.3 239.6,165.7 243.0,187.6 246.5,155.7 249.9,169.7 253.3,228.1 256.8,148.2 260.2,168.8 263.7,212.2 267.1,183.0 270.6,200.2 274.0,187.7 277.4,227.7 280.9,211.1 284.3,172.8 287.8,245.4 291.2,204.7 294.6,191.2 298.1,169.3 301.5,210.8 305.0,199.1 308.4,236.5 311.9,175.5 315.3,214.6 318.7,189.4 322.2,160.6 325.6,178.6 329.1,234.0 332.5,200.6 336.0,141.2 339.4,217.0 342.8,180.6 346.3,198.9 349.7,193.8 353.2,192.1 356.6,157.3 360.1,196.9 363.5,208.2 366.9,204.3 370.4,220.1 373.8,230.4 377.3,201.2 380.7,152.0 384.1,218.6 387.6,229.7 391.0,244.5 394.5,207.1 397.9,222.7 401.4,256.9 404.8,174.1 408.2,176.2 411.7,213.1 415.1,217.7 418.6,216.8 422.0,198.6 425.5,194.3 428.9,209.8 432.3,208.8 435.8,202.8 439.2,164.3 442.7,242.4 446.1,235.2 449.5,200.6 453.0,221.5 456.4,215.9 459.9,222.4 463.3,173.9 466.8,210.4 470.2,207.4 473.6,129.5 477.1,200.7 480.5,226.6 484.0,204.2 487.4,225.5 490.9,186.8 494.3,234.8 497.7,237.3 501.2,190.4 504.6,214.6 508.1,238.3 511.5,142.1 514.9,185.5 518.4,235.3 521.8,213.7 525.3,212.5 528.7,186.9 532.2,194.6 535.6,251.0 539.0,231.4 542.5,232.9 545.9,209.9 549.4,202.4 552.8,237.2 556.3,240.0 559.7,230.0 563.1,252.2 566.6,233.7 570.0,259.0 573.5,195.7 576.9,231.0 580.4,210.9 583.8,243.9 587.2,175.5 590.7,220.2 594.1,247.1 597.6,226.1 601.0,201.3 604.4,190.3 607.9,236.6 611.3,198.2 614.8,231.1 618.2,252.8 621.7,223.8 625.1,246.3 628.5,251.0 632.0,191.0 635.4,236.4 638.9,205.5 642.3,185.4 645.8,210.2 649.2,235.6 652.6,214.8 656.1,212.9 659.5,216.5 663.0,226.5 666.4,233.2 669.8,239.0 673.3,231.3 676.7,220.7 680.2,223.5 683.6,233.4 687.1,220.6 690.5,209.9 693.9,212.9 697.4,228.8 700.8,210.6 704.3,204.4 707.7,248.7 711.2,214.2 714.6,188.7 718.0,223.6 721.5,270.0 724.9,239.3 728.4,264.5 731.8,224.4 735.3,237.1 738.7,212.0 742.1,207.6 745.6,207.6 749.0,216.8 752.5,253.6 755.9,238.4 759.3,251.8 762.8,187.3 766.2,157.1 769.7,244.4 773.1,200.2 776.6,200.0 780.0,236.2"/>
<circle cx="95.0" cy="124.1" r="3" fill="#d62728"/>
<circle cx="98.4" cy="202.2" r="3" fill="#d62728"/>
<circle cx="101.9" cy="198.8" r="3" fill="#d62728"/>
<circle cx="105.3" cy="157.2" r="3" fill="#d62728"/>
<circle cx="108.8" cy="143.2" r="3" fill="#d62728"/>
<circle cx="112.2" cy="74.1" r="3" fill="#d62728"/>
<circle cx="115.7" cy="171.2" r="3" fill="#d62728"/>
<circle cx="119.1" cy="151.8" r="3" fill="#d62728"/>
<circle cx="122.5" cy="166.2" r="3" fill="#d62728"/>
<circle cx="126.0" cy="166.4" r="3" fill="#d62728"/>
<circle cx="129.4" cy="138.2" r="3" fill="#d62728"/>
<circle cx="132.9" cy="180.5" r="3" fill="#d62728"/>
<circle cx="136.3" cy="160.3" r="3" fill="#d62728"/>
<circle cx="139.7" cy="187.1" r="3" fill="#d62728"/>
<circle cx="143.2" cy="180.8" r="3" fill="#d62728"/>
<circle cx="146.6" cy="145.7" r="3" fill="#d62728"/>
<circle cx="150.1" cy="143.3" r="3" fill="#d62728"/>
<circle cx="153.5" cy="157.1" r="3" fill="#d62728"/>
<circle cx="157.0" cy="168.3" r="3" fill="#d62728"/>
<circle cx="160.4" cy="169.5" r="3" fill="#d62728"/>
<circle cx="163.8" cy="165.5" r="3" fill="#d62728"/>
<circle cx="167.3" cy="145.1" r="3" fill="#d62728"/>
<circle cx="170.7" cy="162.7" r="3" fill="#d62728"/>
<circle cx="174.2" cy="179.8" r="3" fill="#d62728"/>
<circle cx="177.6" cy="212.0" r="3" fill="#d62728"/>
<circle cx="181.1" cy="177.9" r="3" fill="#d62728"/>
<circle cx="184.5" cy="191.3" r="3" fill="#d62728"/>
<circle cx="187.9" cy="205.7" r="3" fill="#d62728"/>
<circle cx="191.4" cy="147.6" r="3" fill="#d62728"/>
<circle cx="194.8" cy="150.8" r="3" fill="#d62728"/>
<circle cx="198.3" cy="193.6" r="3" fill="#d62728"/>
<circle cx="201.7" cy="187.0" r="3" fill="#d62728"/>
<circle cx="205.2" cy="215.0" r="3" fill="#d62728"/>
<circle cx="208.6" cy="168.1" r="3" fill="#d62728"/>
<circle cx="212.0" cy="150.7" r="3" fill="#d62728"/>
<circle cx="215.5" cy="163.9" r="3" fill="#d62728"/>
<circle cx="218.9" cy="184.8" r="3" fill="#d62728"/>
<circle cx="222.4" cy="146.3" r="3" fill="#d62728"/>
<circle cx="225.8" cy="221.7" r="3" fill="#d62728"/>
<circle cx="229.2" cy="165.9" r="3" fill="#d62728"/>
<circle cx="232.7" cy="190.4" r="3" fill="#d62728"/>
<circle cx="236.1" cy="179.3" r="3" fill="#d62728"/>
<circle cx="239.6" cy="165.7" r="3" fill="#d62728"/>
<circle cx="243.0" cy="187.6" r="3" fill="#d62728"/>
<circle cx="246.5" cy="155.7" r="3" fill="#d62728"/>
<circle cx="249.9" cy="169.7" r="3" fill="#d62728"/>
<circle cx="253.3" cy="228.1" r="3" fill="#d62728"/>
<circle cx="256.8" cy="148.2" r="3" fill="#d62728"/>
<circle cx="260.2" cy="168.8" r="3" fill="#d62728"/>
<circle cx="263.7" cy="212.2" r="3" fill="#d62728"/>
<circle cx="267.1" cy="183.0" r="3" fill="#d62728"/>
<circle cx="270.6" cy="200.2" r="3" fill="#d62728"/>
<circle cx="274.0" cy="187.7" r="3" fill="#d62728"/>
<circle cx="277.4" cy="227.7" r="3" fill="#d62728"/>
<circle cx="280.9" cy="211.1" r="3" fill="#d62728"/>
<circle cx="284.3" cy="172.8" r="3" fill="#d62728"/>
<circle cx="287.8" cy="245.4" r="3" fill="#d62728"/>
<circle cx="291.2" cy="204.7" r="3" fill="#d62728"/>
<circle cx="294.6" cy="191.2" r="3" fill="#d62728"/>
<circle cx="298.1" cy="169.3" r="3" fill="#d62728"/>
<circle cx="301.5" cy="210.8" r="3" fill="#d62728"/>
<circle cx="305.0" cy="199.1" r="3" fill="#d62728"/>
<circle cx="308.4" cy="236.5" r="3" fill="#d62728"/>
<circle cx="311.9" cy="175.5" r="3" fill="#d62728"/>
<circle cx="315.3" cy="214.6" r="3" fill="#d62728"/>
<circle cx="318.7" cy="189.4" r="3" fill="#d62728"/>
<circle cx="322.2" cy="160.6" r="3" fill="#d62728"/>
<circle cx="325.6" cy="178.6" r="3" fill="#d62728"/>
<circle cx="329.1" cy="234.0" r="3" fill="#d62728"/>
<circle cx="332.5" cy="200.6" r="3" fill="#d62728"/>
<circle cx="336.0" cy="141.2" r="3" fill="#d62728"/>
<circle cx="339.4" cy="217.0" r="3" fill="#d62728"/>
<circle cx="342.8" cy="180.6" r="3" fill="#d62728"/>
<circle cx="346.3" cy="198.9" r="3" fill="#d62728"/>
<circle cx="349.7" cy="193.8" r="3" fill="#d62728"/>
<circle cx="353.2" cy="192.1" r="3" fill="#d62728"/>
<circle cx="356.6" cy="157.3" r="3" fill="#d62728"/>
<circle cx="360.1" cy="196.9" r="3" fill="#d62728"/>
<circle cx="363.5" cy="208.2" r="3" fill="#d62728"/>
<circle cx="366.9" cy="204.3" r="3" fill="#d62728"/>
<circle cx="370.4" cy="220.1" r="3" fill="#d62728"/>
<circle cx="373.8" cy="230.4" r="3" fill="#d62728"/>
<circle cx="377.3" cy="201.2" r="3" fill="#d62728"/>
<circle cx="380.7" cy="152.0" r="3" fill="#d62728"/>
<circle cx="384.1" cy="218.6" r="3" fill="#d62728"/>
<circle cx="387.6" cy="229.7" r="3" fill="#d62728"/>
<circle cx="391.0" cy="244.5" r="3" fill="#d62728"/>
<circle cx="394.5" cy="207.1" r="3" fill="#d62728"/>
<circle cx="397.9" cy="222.7" r="3" fill="#d62728"/>
<circle cx="401.4" cy="256.9" r="3" fill="#d62728"/>
<circle cx="404.8" cy="174.1" r="3" fill="#d62728"/>
<circle cx="408.2" cy="176.2" r="3" fill="#d62728"/>
<circle cx="411.7" cy="213.1" r="3" fill="#d62728"/>
<circle cx="415.1" cy="217.7" r="3" fill="#d62728"/>
<circle cx="418.6" cy="216.8" r="3" fill="#d62728"/>
<circle cx="422.0" cy="198.6" r="3" fill="#d62728"/>
<circle cx="425.5" cy="194.3" r="3" fill="#d62728"/>
<circle cx="428.9" cy="209.8" r="3" fill="#d62728"/>
<circle cx="432.3" cy="208.8" r="3" fill="#d62728"/>
<circle cx="435.8" cy="202.8" r="3" fill="#d62728"/>
<circle cx="439.2" cy="164.3" r="3" fill="#d62728"/>
<circle cx="442.7" cy="242.4" r="3" fill="#d62728"/>
<circle cx="446.1" cy="235.2" r="3" fill="#d62728"/>
<circle cx="449.5" cy="200.6" r="3" fill="#d62728"/>
<circle cx="453.0" cy="221.5" r="3" fill="#d62728"/>
<circle cx="456.4" cy="215.9" r="3" fill="#d62728"/>
<circle cx="459.9" cy="222.4" r="3" fill="#d62728"/>
<circle cx="463.3" cy="173.9" r="3" fill="#d62728"/>
<circle cx="466.8" cy="210.4" r="3" fill="#d62728"/>
<circle cx="470.2" cy="207.4" r="3" fill="#d62728"/>
<circle cx="473.6" cy="129.5" r="3" fill="#d62728"/>
<circle cx="477.1" cy="200.7" r="3" fill="#d62728"/>
<circle cx="480.5" cy="226.6" r="3" fill="#d62728"/>
<circle cx="484.0" cy="204.2" r="3" fill="#d62728"/>
<circle cx="487.4" cy="225.5" r="3" fill="#d62728"/>
<circle cx="490.9" cy="186.8" r="3" fill="#d62728"/>
<circle cx="494.3" cy="234.8" r="3" fill="#d62728"/>
<circle cx="497.7" cy="237.3" r="3" fill="#d62728"/>
<circle cx="501.2" cy="190.4" r="3" fill="#d62728"/>
<circle cx="504.6" cy="214.6" r="3" fill="#d62728"/>
<circle cx="508.1" cy="238.3" r="3" fill="#d62728"/>
<circle cx="511.5" cy="142.1" r="3" fill="#d62728"/>
<circle cx="514.9" cy="185.5" r="3" fill="#d62728"/>
<circle cx="518.4" cy="235.3" r="3" fill="#d62728"/>
<circle cx="521.8" cy="213.7" r="3" fill="#d62728"/>
<circle cx="525.3" cy="212.5" r="3" fill="#d62728"/>
<circle cx="528.7" cy="186.9" r="3" fill="#d62728"/>
<circle cx="532.2" cy="194.6" r="3" fill="#d62728"/>
<circle cx="535.6" cy="251.0" r="3" fill="#d62728"/>
<circle cx="539.0" cy="231.4" r="3" fill="#d62728"/>
<circle cx="542.5" cy="232.9" r="3" fill="#d62728"/>
<circle cx="545.9" cy="209.9" r="3" fill="#d62728"/>
<circle cx="549.4" cy="202.4" r="3" fill="#d62728"/>
<circle cx="552.8" cy="237.2" r="3" fill="#d62728"/>
<circle cx="556.3" cy="240.0" r="3" fill="#d62728"/>
<circle cx="559.7" cy="230.0" r="3" fill="#d62728"/>
<circle cx="563.1" cy="252.2" r="3" fill="#d62728"/>
<circle cx="566.6" cy="233.7" r="3" fill="#d62728"/>
<circle cx="570.0" cy="259.0" r="3" fill="#d62728"/>
<circle cx="573.5" cy="195.7" r="3" fill="#d62728"/>
<circle cx="576.9" cy="231.0" r="3" fill="#d62728"/>
<circle cx="580.4" cy="210.9" r="3" fill="#d62728"/>
<circle cx="583.8" cy="243.9" r="3" fill="#d62728"/>
<circle cx="587.2" cy="175.5" r="3" fill="#d62728"/>
<circle cx="590.7" cy="220.2" r="3" fill="#d62728"/>
<circle cx="594.1" cy="247.1" r="3" fill="#d62728"/>
<circle cx="597.6" cy="226.1" r="3" fill="#d62728"/>
<circle cx="601.0" cy="201.3" r="3" fill="#d62728"/>
<circle cx="604.4" cy="190.3" r="3" fill="#d62728"/>
<circle cx="607.9" cy="236.6" r="3" fill="#d62728"/>
<circle cx="611.3" cy="198.2" r="3" fill="#d62728"/>
<circle cx="614.8" cy="231.1" r="3" fill="#d62728"/>
<circle cx="618.2" cy="252.8" r="3" fill="#d62728"/>
<circle cx="621.7" cy="223.8" r="3" fill="#d62728"/>
<circle cx="625.1" cy="246.3" r="3" fill="#d62728"/>
<circle cx="628.5" cy="251.0" r="3" fill="#d62728"/>
<circle cx="632.0" cy="191.0" r="3" fill="#d62728"/>
<circle cx="635.4" cy="236.4" r="3" fill="#d62728"/>
<circle cx="638.9" cy="205.5" r="3" fill="#d62728"/>
<circle cx="642.3" cy="185.4" r="3" fill="#d62728"/>
<circle cx="645.8" cy="210.2" r="3" fill="#d62728"/>
<circle cx="649.2" cy="235.6" r="3" fill="#d62728"/>
<circle cx="652.6" cy="214.8" r="3" fill="#d62728"/>
<circle cx="656.1" cy="212.9" r="3" fill="#d62728"/>
<circle cx="659.5" cy="216.5" r="3" fill="#d62728"/>
<circle cx="663.0" cy="226.5" r="3" fill="#d62728"/>
<circle cx="666.4" cy="233.2" r="3" fill="#d62728"/>
<circle cx="669.8" cy="239.0" r="3" fill="#d62728"/>
<circle cx="673.3" cy="231.3" r="3" fill="#d62728"/>
<circle cx="676.7" cy="220.7" r="3" fill="#d62728"/>
<circle cx="680.2" cy="223.5" r="3" fill="#d62728"/>
<circle cx="683.6" cy="233.4" r="3" fill="#d62728"/>
<circle cx="687.1" cy="220.6" r="3" fill="#d62728"/>
<circle cx="690.5" cy="209.9" r="3" fill="#d62728"/>
<circle cx="693.9" cy="212.9" r="3" fill="#d62728"/>
<circle cx="697.4" cy="228.8" r="3" fill="#d62728"/>
<circle cx="700.8" cy="210.6" r="3" fill="#d62728"/>
<circle cx="704.3" cy="204.4" r="3" fill="#d62728"/>
<circle cx="707.7" cy="248.7" r="3" fill="#d62728"/>
<circle cx="711.2" cy="214.2" r="3" fill="#d62728"/>
<circle cx="714.6" cy="188.7" r="3" fill="#d62728"/>
<circle cx="718.0" cy="223.6" r="3" fill="#d62728"/>
<circle cx="721.5" cy="270.0" r="3" fill="#d62728"/>
<circle cx="724.9" cy="239.3" r="3" fill="#d62728"/>
<circle cx="728.4" cy="264.5" r="3" fill="#d62728"/>
<circle cx="731.8" cy="224.4" r="3" fill="#d62728"/>
<circle cx="735.3" cy="237.1" r="3" fill="#d62728"/>
<circle cx="738.7" cy="212.0" r="3" fill="#d62728"/>
<circle cx="742.1" cy="207.6" r="3" fill="#d62728"/>
<circle cx="745.6" cy="207.6" r="3" fill="#d62728"/>
<circle cx="749.0" cy="216.8" r="3" fill="#d62728"/>
<circle cx="752.5" cy="253.6" r="3" fill="#d62728"/>
<circle cx="755.9" cy="238.4" r="3" fill="#d62728"/>
<circle cx="759.3" cy="251.8" r="3" fill="#d62728"/>
<circle cx="762.8" cy="187.3" r="3" fill="#d62728"/>
<circle cx="766.2" cy="157.1" r="3" fill="#d62728"/>
<circle cx="769.7" cy="244.4" r="3" fill="#d62728"/>
<circle cx="773.1" cy="200.2" r="3" fill="#d62728"/>
<circle cx="776.6" cy="200.0" r="3" fill="#d62728"/>
<circle cx="780.0" cy="236.2" r="3" fill="#d62728"/>
<line x1="808" y1="121" x2="830" y2="121" stroke="#d62728" stroke-width="2.5"/>
<text x="838" y="125" font-family="Arial" font-size="13">question_only</text>
<text x="437.5" y="618" text-anchor="middle" font-family="Arial" font-size="15">GRPO step</text>
<text x="24" y="316.0" text-anchor="middle" font-family="Arial" font-size="15" transform="rotate(-90 24 316.0)">Average rollout response tokens</text>
</svg>
