<svg xmlns="http://www.w3.org/2000/svg" width="1040" height="640" viewBox="0 0 1040 640">
<rect width="100%" height="100%" fill="white"/>
<text x="520.0" y="36" text-anchor="middle" font-family="Arial" font-size="22" font-weight="700">GRPO prompt ablation: token entropy</text>
<line x1="95" y1="558" x2="780" y2="558" stroke="#222" stroke-width="1.5"/>
<line x1="95" y1="74" x2="95" y2="558" stroke="#222" stroke-width="1.5"/>
<line x1="90" y1="558.0" x2="780" y2="558.0" stroke="#ddd" stroke-width="1"/>
<text x="83" y="562.0" text-anchor="end" font-family="Arial" font-size="12">0.00</text>
<line x1="90" y1="461.2" x2="780" y2="461.2" stroke="#ddd" stroke-width="1"/>
<text x="83" y="465.2" text-anchor="end" font-family="Arial" font-size="12">0.20</text>
<line x1="90" y1="364.4" x2="780" y2="364.4" stroke="#ddd" stroke-width="1"/>
<text x="83" y="368.4" text-anchor="end" font-family="Arial" font-size="12">0.40</text>
<line x1="90" y1="267.6" x2="780" y2="267.6" stroke="#ddd" stroke-width="1"/>
<text x="83" y="271.6" text-anchor="end" font-family="Arial" font-size="12">0.60</text>
<line x1="90" y1="170.8" x2="780" y2="170.8" stroke="#ddd" stroke-width="1"/>
<text x="83" y="174.8" text-anchor="end" font-family="Arial" font-size="12">0.80</text>
<line x1="90" y1="74.0" x2="780" y2="74.0" stroke="#ddd" stroke-width="1"/>
<text x="83" y="78.0" text-anchor="end" font-family="Arial" font-size="12">1.00</text>
<line x1="95.0" y1="558" x2="95.0" y2="563" stroke="#222" stroke-width="1"/>
<text x="95.0" y="582" text-anchor="middle" font-family="Arial" font-size="12">1</text>
<line x1="232.0" y1="558" x2="232.0" y2="563" stroke="#222" stroke-width="1"/>
<text x="232.0" y="582" text-anchor="middle" font-family="Arial" font-size="12">41</text>
<line x1="369.0" y1="558" x2="369.0" y2="563" stroke="#222" stroke-width="1"/>
<text x="369.0" y="582" text-anchor="middle" font-family="Arial" font-size="12">81</text>
<line x1="506.0" y1="558" x2="506.0" y2="563" stroke="#222" stroke-width="1"/>
<text x="506.0" y="582" text-anchor="middle" font-family="Arial" font-size="12">120</text>
<line x1="643.0" y1="558" x2="643.0" y2="563" stroke="#222" stroke-width="1"/>
<text x="643.0" y="582" text-anchor="middle" font-family="Arial" font-size="12">160</text>
<line x1="780.0" y1="558" x2="780.0" y2="563" stroke="#222" stroke-width="1"/>
<text x="780.0" y="582" text-anchor="middle" font-family="Arial" font-size="12">200</text>
<polyline fill="none" stroke="#1f77b4" stroke-width="2.3" points="95.0,110.9 98.4,366.4 101.9,441.0 105.3,430.6 108.8,436.5 112.2,413.4 115.7,409.6 119.1,411.8 122.5,426.0 126.0,418.0 129.4,456.4 132.9,471.0 136.3,491.0 139.7,479.9 143.2,478.6 146.6,491.7 150.1,491.6 153.5,477.8 157.0,490.7 160.4,496.1 163.8,489.1 167.3,489.9 170.7,496.2 174.2,499.8 177.6,497.5 181.1,490.6 184.5,502.8 187.9,498.3 191.4,501.9 194.8,504.6 198.3,499.9 201.7,498.6 205.2,497.3 208.6,487.3 212.0,489.8 215.5,487.3 218.9,492.2 222.4,484.1 225.8,503.3 229.2,486.2 232.7,502.9 236.1,501.4 239.6,515.4 243.0,509.2 246.5,514.5 249.9,516.7 253.3,523.9 256.8,529.9 260.2,533.8 263.7,531.0 267.1,535.1 270.6,536.0 274.0,537.2 277.4,537.8 280.9,539.7 284.3,535.7 287.8,541.2 291.2,535.9 294.6,542.7 298.1,538.6 301.5,542.5 305.0,540.5 308.4,540.8 311.9,542.4 315.3,540.4 318.7,541.2 322.2,539.8 325.6,538.6 329.1,542.8 332.5,540.6 336.0,531.8 339.4,538.1 342.8,540.5 346.3,540.8 349.7,546.5 353.2,545.3 356.6,543.0 360.1,541.7 363.5,544.8 366.9,541.7 370.4,541.8 373.8,543.2 377.3,543.2 380.7,542.4 384.1,546.9 387.6,547.5 391.0,548.3 394.5,542.9 397.9,542.8 401.4,548.0 404.8,544.3 408.2,542.9 411.7,547.1 415.1,545.2 418.6,546.2 422.0,545.6 425.5,544.7 428.9,546.4 432.3,545.6 435.8,543.5 439.2,543.3 442.7,541.5 446.1,542.4 449.5,542.7 453.0,541.4 456.4,541.9 459.9,542.9 463.3,540.8 466.8,541.5 470.2,543.0 473.6,542.4 477.1,544.9 480.5,545.5 484.0,546.0 487.4,543.5 490.9,544.6 494.3,544.8 497.7,545.3 501.2,545.3 504.6,540.9 508.1,544.1 511.5,544.9 514.9,545.4 518.4,547.4 521.8,545.2 525.3,545.6 528.7,543.0 532.2,544.0 535.6,544.6 539.0,544.3 542.5,542.4 545.9,544.2 549.4,544.3 552.8,543.2 556.3,545.5 559.7,546.6 563.1,542.7 566.6,546.0 570.0,543.8 573.5,538.0 576.9,543.2 580.4,540.2 583.8,542.8 587.2,538.4 590.7,536.6 594.1,540.7 597.6,535.1 601.0,543.3 604.4,536.7 607.9,539.0 611.3,545.0 614.8,540.1 618.2,543.7 621.7,543.7 625.1,544.0 628.5,542.0 632.0,544.6 635.4,546.0 638.9,544.7 642.3,542.3 645.8,545.1 649.2,541.5 652.6,543.9 656.1,539.9 659.5,537.8 663.0,541.4 666.4,546.2 669.8,543.0 673.3,544.6 676.7,542.8 680.2,541.3 683.6,542.6 687.1,544.0 690.5,544.0 693.9,541.8 697.4,539.0 700.8,537.6 704.3,539.8 707.7,539.4 711.2,540.5 714.6,540.5 718.0,541.0 721.5,545.2 724.9,543.1 728.4,543.5 731.8,544.6 735.3,545.6 738.7,544.3 742.1,546.0 745.6,543.8 749.0,546.6 752.5,548.8 755.9,544.0 759.3,546.2 762.8,545.5 766.2,544.6 769.7,545.4 773.1,545.4 776.6,546.7 780.0,546.7"/>
<circle cx="95.0" cy="110.9" r="3" fill="#1f77b4"/>
<circle cx="98.4" cy="366.4" r="3" fill="#1f77b4"/>
<circle cx="101.9" cy="441.0" r="3" fill="#1f77b4"/>
<circle cx="105.3" cy="430.6" r="3" fill="#1f77b4"/>
<circle cx="108.8" cy="436.5" r="3" fill="#1f77b4"/>
<circle cx="112.2" cy="413.4" r="3" fill="#1f77b4"/>
<circle cx="115.7" cy="409.6" r="3" fill="#1f77b4"/>
<circle cx="119.1" cy="411.8" r="3" fill="#1f77b4"/>
<circle cx="122.5" cy="426.0" r="3" fill="#1f77b4"/>
<circle cx="126.0" cy="418.0" r="3" fill="#1f77b4"/>
<circle cx="129.4" cy="456.4" r="3" fill="#1f77b4"/>
<circle cx="132.9" cy="471.0" r="3" fill="#1f77b4"/>
<circle cx="136.3" cy="491.0" r="3" fill="#1f77b4"/>
<circle cx="139.7" cy="479.9" r="3" fill="#1f77b4"/>
<circle cx="143.2" cy="478.6" r="3" fill="#1f77b4"/>
<circle cx="146.6" cy="491.7" r="3" fill="#1f77b4"/>
<circle cx="150.1" cy="491.6" r="3" fill="#1f77b4"/>
<circle cx="153.5" cy="477.8" r="3" fill="#1f77b4"/>
<circle cx="157.0" cy="490.7" r="3" fill="#1f77b4"/>
<circle cx="160.4" cy="496.1" r="3" fill="#1f77b4"/>
<circle cx="163.8" cy="489.1" r="3" fill="#1f77b4"/>
<circle cx="167.3" cy="489.9" r="3" fill="#1f77b4"/>
<circle cx="170.7" cy="496.2" r="3" fill="#1f77b4"/>
<circle cx="174.2" cy="499.8" r="3" fill="#1f77b4"/>
<circle cx="177.6" cy="497.5" r="3" fill="#1f77b4"/>
<circle cx="181.1" cy="490.6" r="3" fill="#1f77b4"/>
<circle cx="184.5" cy="502.8" r="3" fill="#1f77b4"/>
<circle cx="187.9" cy="498.3" r="3" fill="#1f77b4"/>
<circle cx="191.4" cy="501.9" r="3" fill="#1f77b4"/>
<circle cx="194.8" cy="504.6" r="3" fill="#1f77b4"/>
<circle cx="198.3" cy="499.9" r="3" fill="#1f77b4"/>
<circle cx="201.7" cy="498.6" r="3" fill="#1f77b4"/>
<circle cx="205.2" cy="497.3" r="3" fill="#1f77b4"/>
<circle cx="208.6" cy="487.3" r="3" fill="#1f77b4"/>
<circle cx="212.0" cy="489.8" r="3" fill="#1f77b4"/>
<circle cx="215.5" cy="487.3" r="3" fill="#1f77b4"/>
<circle cx="218.9" cy="492.2" r="3" fill="#1f77b4"/>
<circle cx="222.4" cy="484.1" r="3" fill="#1f77b4"/>
<circle cx="225.8" cy="503.3" r="3" fill="#1f77b4"/>
<circle cx="229.2" cy="486.2" r="3" fill="#1f77b4"/>
<circle cx="232.7" cy="502.9" r="3" fill="#1f77b4"/>
<circle cx="236.1" cy="501.4" r="3" fill="#1f77b4"/>
<circle cx="239.6" cy="515.4" r="3" fill="#1f77b4"/>
<circle cx="243.0" cy="509.2" r="3" fill="#1f77b4"/>
<circle cx="246.5" cy="514.5" r="3" fill="#1f77b4"/>
<circle cx="249.9" cy="516.7" r="3" fill="#1f77b4"/>
<circle cx="253.3" cy="523.9" r="3" fill="#1f77b4"/>
<circle cx="256.8" cy="529.9" r="3" fill="#1f77b4"/>
<circle cx="260.2" cy="533.8" r="3" fill="#1f77b4"/>
<circle cx="263.7" cy="531.0" r="3" fill="#1f77b4"/>
<circle cx="267.1" cy="535.1" r="3" fill="#1f77b4"/>
<circle cx="270.6" cy="536.0" r="3" fill="#1f77b4"/>
<circle cx="274.0" cy="537.2" r="3" fill="#1f77b4"/>
<circle cx="277.4" cy="537.8" r="3" fill="#1f77b4"/>
<circle cx="280.9" cy="539.7" r="3" fill="#1f77b4"/>
<circle cx="284.3" cy="535.7" r="3" fill="#1f77b4"/>
<circle cx="287.8" cy="541.2" r="3" fill="#1f77b4"/>
<circle cx="291.2" cy="535.9" r="3" fill="#1f77b4"/>
<circle cx="294.6" cy="542.7" r="3" fill="#1f77b4"/>
<circle cx="298.1" cy="538.6" r="3" fill="#1f77b4"/>
<circle cx="301.5" cy="542.5" r="3" fill="#1f77b4"/>
<circle cx="305.0" cy="540.5" r="3" fill="#1f77b4"/>
<circle cx="308.4" cy="540.8" r="3" fill="#1f77b4"/>
<circle cx="311.9" cy="542.4" r="3" fill="#1f77b4"/>
<circle cx="315.3" cy="540.4" r="3" fill="#1f77b4"/>
<circle cx="318.7" cy="541.2" r="3" fill="#1f77b4"/>
<circle cx="322.2" cy="539.8" r="3" fill="#1f77b4"/>
<circle cx="325.6" cy="538.6" r="3" fill="#1f77b4"/>
<circle cx="329.1" cy="542.8" r="3" fill="#1f77b4"/>
<circle cx="332.5" cy="540.6" r="3" fill="#1f77b4"/>
<circle cx="336.0" cy="531.8" r="3" fill="#1f77b4"/>
<circle cx="339.4" cy="538.1" r="3" fill="#1f77b4"/>
<circle cx="342.8" cy="540.5" r="3" fill="#1f77b4"/>
<circle cx="346.3" cy="540.8" r="3" fill="#1f77b4"/>
<circle cx="349.7" cy="546.5" r="3" fill="#1f77b4"/>
<circle cx="353.2" cy="545.3" r="3" fill="#1f77b4"/>
<circle cx="356.6" cy="543.0" r="3" fill="#1f77b4"/>
<circle cx="360.1" cy="541.7" r="3" fill="#1f77b4"/>
<circle cx="363.5" cy="544.8" r="3" fill="#1f77b4"/>
<circle cx="366.9" cy="541.7" r="3" fill="#1f77b4"/>
<circle cx="370.4" cy="541.8" r="3" fill="#1f77b4"/>
<circle cx="373.8" cy="543.2" r="3" fill="#1f77b4"/>
<circle cx="377.3" cy="543.2" r="3" fill="#1f77b4"/>
<circle cx="380.7" cy="542.4" r="3" fill="#1f77b4"/>
<circle cx="384.1" cy="546.9" r="3" fill="#1f77b4"/>
<circle cx="387.6" cy="547.5" r="3" fill="#1f77b4"/>
<circle cx="391.0" cy="548.3" r="3" fill="#1f77b4"/>
<circle cx="394.5" cy="542.9" r="3" fill="#1f77b4"/>
<circle cx="397.9" cy="542.8" r="3" fill="#1f77b4"/>
<circle cx="401.4" cy="548.0" r="3" fill="#1f77b4"/>
<circle cx="404.8" cy="544.3" r="3" fill="#1f77b4"/>
<circle cx="408.2" cy="542.9" r="3" fill="#1f77b4"/>
<circle cx="411.7" cy="547.1" r="3" fill="#1f77b4"/>
<circle cx="415.1" cy="545.2" r="3" fill="#1f77b4"/>
<circle cx="418.6" cy="546.2" r="3" fill="#1f77b4"/>
<circle cx="422.0" cy="545.6" r="3" fill="#1f77b4"/>
<circle cx="425.5" cy="544.7" r="3" fill="#1f77b4"/>
<circle cx="428.9" cy="546.4" r="3" fill="#1f77b4"/>
<circle cx="432.3" cy="545.6" r="3" fill="#1f77b4"/>
<circle cx="435.8" cy="543.5" r="3" fill="#1f77b4"/>
<circle cx="439.2" cy="543.3" r="3" fill="#1f77b4"/>
<circle cx="442.7" cy="541.5" r="3" fill="#1f77b4"/>
<circle cx="446.1" cy="542.4" r="3" fill="#1f77b4"/>
<circle cx="449.5" cy="542.7" r="3" fill="#1f77b4"/>
<circle cx="453.0" cy="541.4" r="3" fill="#1f77b4"/>
<circle cx="456.4" cy="541.9" r="3" fill="#1f77b4"/>
<circle cx="459.9" cy="542.9" r="3" fill="#1f77b4"/>
<circle cx="463.3" cy="540.8" r="3" fill="#1f77b4"/>
<circle cx="466.8" cy="541.5" r="3" fill="#1f77b4"/>
<circle cx="470.2" cy="543.0" r="3" fill="#1f77b4"/>
<circle cx="473.6" cy="542.4" r="3" fill="#1f77b4"/>
<circle cx="477.1" cy="544.9" r="3" fill="#1f77b4"/>
<circle cx="480.5" cy="545.5" r="3" fill="#1f77b4"/>
<circle cx="484.0" cy="546.0" r="3" fill="#1f77b4"/>
<circle cx="487.4" cy="543.5" r="3" fill="#1f77b4"/>
<circle cx="490.9" cy="544.6" r="3" fill="#1f77b4"/>
<circle cx="494.3" cy="544.8" r="3" fill="#1f77b4"/>
<circle cx="497.7" cy="545.3" r="3" fill="#1f77b4"/>
<circle cx="501.2" cy="545.3" r="3" fill="#1f77b4"/>
<circle cx="504.6" cy="540.9" r="3" fill="#1f77b4"/>
<circle cx="508.1" cy="544.1" r="3" fill="#1f77b4"/>
<circle cx="511.5" cy="544.9" r="3" fill="#1f77b4"/>
<circle cx="514.9" cy="545.4" r="3" fill="#1f77b4"/>
<circle cx="518.4" cy="547.4" r="3" fill="#1f77b4"/>
<circle cx="521.8" cy="545.2" r="3" fill="#1f77b4"/>
<circle cx="525.3" cy="545.6" r="3" fill="#1f77b4"/>
<circle cx="528.7" cy="543.0" r="3" fill="#1f77b4"/>
<circle cx="532.2" cy="544.0" r="3" fill="#1f77b4"/>
<circle cx="535.6" cy="544.6" r="3" fill="#1f77b4"/>
<circle cx="539.0" cy="544.3" r="3" fill="#1f77b4"/>
<circle cx="542.5" cy="542.4" r="3" fill="#1f77b4"/>
<circle cx="545.9" cy="544.2" r="3" fill="#1f77b4"/>
<circle cx="549.4" cy="544.3" r="3" fill="#1f77b4"/>
<circle cx="552.8" cy="543.2" r="3" fill="#1f77b4"/>
<circle cx="556.3" cy="545.5" r="3" fill="#1f77b4"/>
<circle cx="559.7" cy="546.6" r="3" fill="#1f77b4"/>
<circle cx="563.1" cy="542.7" r="3" fill="#1f77b4"/>
<circle cx="566.6" cy="546.0" r="3" fill="#1f77b4"/>
<circle cx="570.0" cy="543.8" r="3" fill="#1f77b4"/>
<circle cx="573.5" cy="538.0" r="3" fill="#1f77b4"/>
<circle cx="576.9" cy="543.2" r="3" fill="#1f77b4"/>
<circle cx="580.4" cy="540.2" r="3" fill="#1f77b4"/>
<circle cx="583.8" cy="542.8" r="3" fill="#1f77b4"/>
<circle cx="587.2" cy="538.4" r="3" fill="#1f77b4"/>
<circle cx="590.7" cy="536.6" r="3" fill="#1f77b4"/>
<circle cx="594.1" cy="540.7" r="3" fill="#1f77b4"/>
<circle cx="597.6" cy="535.1" r="3" fill="#1f77b4"/>
<circle cx="601.0" cy="543.3" r="3" fill="#1f77b4"/>
<circle cx="604.4" cy="536.7" r="3" fill="#1f77b4"/>
<circle cx="607.9" cy="539.0" r="3" fill="#1f77b4"/>
<circle cx="611.3" cy="545.0" r="3" fill="#1f77b4"/>
<circle cx="614.8" cy="540.1" r="3" fill="#1f77b4"/>
<circle cx="618.2" cy="543.7" r="3" fill="#1f77b4"/>
<circle cx="621.7" cy="543.7" r="3" fill="#1f77b4"/>
<circle cx="625.1" cy="544.0" r="3" fill="#1f77b4"/>
<circle cx="628.5" cy="542.0" r="3" fill="#1f77b4"/>
<circle cx="632.0" cy="544.6" r="3" fill="#1f77b4"/>
<circle cx="635.4" cy="546.0" r="3" fill="#1f77b4"/>
<circle cx="638.9" cy="544.7" r="3" fill="#1f77b4"/>
<circle cx="642.3" cy="542.3" r="3" fill="#1f77b4"/>
<circle cx="645.8" cy="545.1" r="3" fill="#1f77b4"/>
<circle cx="649.2" cy="541.5" r="3" fill="#1f77b4"/>
<circle cx="652.6" cy="543.9" r="3" fill="#1f77b4"/>
<circle cx="656.1" cy="539.9" r="3" fill="#1f77b4"/>
<circle cx="659.5" cy="537.8" r="3" fill="#1f77b4"/>
<circle cx="663.0" cy="541.4" r="3" fill="#1f77b4"/>
<circle cx="666.4" cy="546.2" r="3" fill="#1f77b4"/>
<circle cx="669.8" cy="543.0" r="3" fill="#1f77b4"/>
<circle cx="673.3" cy="544.6" r="3" fill="#1f77b4"/>
<circle cx="676.7" cy="542.8" r="3" fill="#1f77b4"/>
<circle cx="680.2" cy="541.3" r="3" fill="#1f77b4"/>
<circle cx="683.6" cy="542.6" r="3" fill="#1f77b4"/>
<circle cx="687.1" cy="544.0" r="3" fill="#1f77b4"/>
<circle cx="690.5" cy="544.0" r="3" fill="#1f77b4"/>
<circle cx="693.9" cy="541.8" r="3" fill="#1f77b4"/>
<circle cx="697.4" cy="539.0" r="3" fill="#1f77b4"/>
<circle cx="700.8" cy="537.6" r="3" fill="#1f77b4"/>
<circle cx="704.3" cy="539.8" r="3" fill="#1f77b4"/>
<circle cx="707.7" cy="539.4" r="3" fill="#1f77b4"/>
<circle cx="711.2" cy="540.5" r="3" fill="#1f77b4"/>
<circle cx="714.6" cy="540.5" r="3" fill="#1f77b4"/>
<circle cx="718.0" cy="541.0" r="3" fill="#1f77b4"/>
<circle cx="721.5" cy="545.2" r="3" fill="#1f77b4"/>
<circle cx="724.9" cy="543.1" r="3" fill="#1f77b4"/>
<circle cx="728.4" cy="543.5" r="3" fill="#1f77b4"/>
<circle cx="731.8" cy="544.6" r="3" fill="#1f77b4"/>
<circle cx="735.3" cy="545.6" r="3" fill="#1f77b4"/>
<circle cx="738.7" cy="544.3" r="3" fill="#1f77b4"/>
<circle cx="742.1" cy="546.0" r="3" fill="#1f77b4"/>
<circle cx="745.6" cy="543.8" r="3" fill="#1f77b4"/>
<circle cx="749.0" cy="546.6" r="3" fill="#1f77b4"/>
<circle cx="752.5" cy="548.8" r="3" fill="#1f77b4"/>
<circle cx="755.9" cy="544.0" r="3" fill="#1f77b4"/>
<circle cx="759.3" cy="546.2" r="3" fill="#1f77b4"/>
<circle cx="762.8" cy="545.5" r="3" fill="#1f77b4"/>
<circle cx="766.2" cy="544.6" r="3" fill="#1f77b4"/>
<circle cx="769.7" cy="545.4" r="3" fill="#1f77b4"/>
<circle cx="773.1" cy="545.4" r="3" fill="#1f77b4"/>
<circle cx="776.6" cy="546.7" r="3" fill="#1f77b4"/>
<circle cx="780.0" cy="546.7" r="3" fill="#1f77b4"/>
<line x1="808" y1="96" x2="830" y2="96" stroke="#1f77b4" stroke-width="2.5"/>
<text x="838" y="100" font-family="Arial" font-size="13">r1_zero_reference</text>
<polyline fill="none" stroke="#d62728" stroke-width="2.3" points="95.0,422.2 98.4,449.4 101.9,464.7 105.3,459.9 108.8,458.9 112.2,457.3 115.7,462.4 119.1,462.6 122.5,460.2 126.0,461.3 129.4,477.5 132.9,470.6 136.3,472.9 139.7,472.6 143.2,470.4 146.6,474.4 150.1,465.2 153.5,469.9 157.0,481.2 160.4,466.8 163.8,467.0 167.3,475.8 170.7,473.9 174.2,488.7 177.6,479.9 181.1,474.7 184.5,484.0 187.9,475.4 191.4,474.9 194.8,484.6 198.3,488.8 201.7,482.0 205.2,480.5 208.6,479.7 212.0,479.3 215.5,474.0 218.9,476.2 222.4,476.8 225.8,484.1 229.2,477.0 232.7,484.7 236.1,477.3 239.6,489.0 243.0,476.5 246.5,477.2 249.9,471.5 253.3,467.8 256.8,486.2 260.2,481.9 263.7,475.6 267.1,484.6 270.6,483.9 274.0,491.0 277.4,476.3 280.9,482.4 284.3,476.7 287.8,480.5 291.2,478.7 294.6,483.6 298.1,475.3 301.5,477.3 305.0,480.3 308.4,480.6 311.9,473.1 315.3,474.7 318.7,471.5 322.2,477.2 325.6,469.3 329.1,480.1 332.5,482.3 336.0,466.5 339.4,483.5 342.8,480.9 346.3,477.7 349.7,488.7 353.2,486.3 356.6,489.1 360.1,477.6 363.5,479.9 366.9,475.6 370.4,468.0 373.8,474.0 377.3,479.7 380.7,476.2 384.1,487.5 387.6,480.2 391.0,485.7 394.5,475.0 397.9,476.6 401.4,487.2 404.8,481.8 408.2,475.4 411.7,483.2 415.1,474.2 418.6,478.2 422.0,482.0 425.5,461.5 428.9,473.8 432.3,480.6 435.8,474.0 439.2,478.6 442.7,469.9 446.1,476.5 449.5,483.0 453.0,474.9 456.4,476.0 459.9,479.7 463.3,474.1 466.8,480.1 470.2,476.9 473.6,478.5 477.1,482.3 480.5,479.1 484.0,478.0 487.4,470.0 490.9,473.6 494.3,472.4 497.7,479.4 501.2,478.9 504.6,465.7 508.1,476.7 511.5,479.6 514.9,481.4 518.4,486.6 521.8,473.3 525.3,474.5 528.7,470.7 532.2,479.1 535.6,483.4 539.0,479.6 542.5,465.5 545.9,482.3 549.4,468.7 552.8,476.6 556.3,486.8 559.7,490.2 563.1,473.5 566.6,485.4 570.0,484.8 573.5,475.6 576.9,489.2 580.4,487.4 583.8,493.4 587.2,487.9 590.7,478.8 594.1,484.0 597.6,479.8 601.0,490.5 604.4,478.0 607.9,475.9 611.3,485.7 614.8,475.4 618.2,482.9 621.7,485.8 625.1,483.0 628.5,482.4 632.0,490.3 635.4,485.9 638.9,492.6 642.3,486.4 645.8,489.5 649.2,490.8 652.6,498.9 656.1,479.2 659.5,479.9 663.0,488.4 666.4,492.3 669.8,482.9 673.3,486.1 676.7,491.6 680.2,487.4 683.6,480.4 687.1,489.9 690.5,495.0 693.9,481.5 697.4,486.6 700.8,490.4 704.3,487.1 707.7,487.5 711.2,498.7 714.6,488.7 718.0,486.3 721.5,492.9 724.9,493.4 728.4,492.0 731.8,496.0 735.3,491.3 738.7,485.0 742.1,492.7 745.6,490.8 749.0,493.7 752.5,500.4 755.9,485.0 759.3,488.0 762.8,484.8 766.2,486.9 769.7,485.3 773.1,486.4 776.6,490.2 780.0,495.0"/>
<circle cx="95.0" cy="422.2" r="3" fill="#d62728"/>
<circle cx="98.4" cy="449.4" r="3" fill="#d62728"/>
<circle cx="101.9" cy="464.7" r="3" fill="#d62728"/>
<circle cx="105.3" cy="459.9" r="3" fill="#d62728"/>
<circle cx="108.8" cy="458.9" r="3" fill="#d62728"/>
<circle cx="112.2" cy="457.3" r="3" fill="#d62728"/>
<circle cx="115.7" cy="462.4" r="3" fill="#d62728"/>
<circle cx="119.1" cy="462.6" r="3" fill="#d62728"/>
<circle cx="122.5" cy="460.2" r="3" fill="#d62728"/>
<circle cx="126.0" cy="461.3" r="3" fill="#d62728"/>
<circle cx="129.4" cy="477.5" r="3" fill="#d62728"/>
<circle cx="132.9" cy="470.6" r="3" fill="#d62728"/>
<circle cx="136.3" cy="472.9" r="3" fill="#d62728"/>
<circle cx="139.7" cy="472.6" r="3" fill="#d62728"/>
<circle cx="143.2" cy="470.4" r="3" fill="#d62728"/>
<circle cx="146.6" cy="474.4" r="3" fill="#d62728"/>
<circle cx="150.1" cy="465.2" r="3" fill="#d62728"/>
<circle cx="153.5" cy="469.9" r="3" fill="#d62728"/>
<circle cx="157.0" cy="481.2" r="3" fill="#d62728"/>
<circle cx="160.4" cy="466.8" r="3" fill="#d62728"/>
<circle cx="163.8" cy="467.0" r="3" fill="#d62728"/>
<circle cx="167.3" cy="475.8" r="3" fill="#d62728"/>
<circle cx="170.7" cy="473.9" r="3" fill="#d62728"/>
<circle cx="174.2" cy="488.7" r="3" fill="#d62728"/>
<circle cx="177.6" cy="479.9" r="3" fill="#d62728"/>
<circle cx="181.1" cy="474.7" r="3" fill="#d62728"/>
<circle cx="184.5" cy="484.0" r="3" fill="#d62728"/>
<circle cx="187.9" cy="475.4" r="3" fill="#d62728"/>
<circle cx="191.4" cy="474.9" r="3" fill="#d62728"/>
<circle cx="194.8" cy="484.6" r="3" fill="#d62728"/>
<circle cx="198.3" cy="488.8" r="3" fill="#d62728"/>
<circle cx="201.7" cy="482.0" r="3" fill="#d62728"/>
<circle cx="205.2" cy="480.5" r="3" fill="#d62728"/>
<circle cx="208.6" cy="479.7" r="3" fill="#d62728"/>
<circle cx="212.0" cy="479.3" r="3" fill="#d62728"/>
<circle cx="215.5" cy="474.0" r="3" fill="#d62728"/>
<circle cx="218.9" cy="476.2" r="3" fill="#d62728"/>
<circle cx="222.4" cy="476.8" r="3" fill="#d62728"/>
<circle cx="225.8" cy="484.1" r="3" fill="#d62728"/>
<circle cx="229.2" cy="477.0" r="3" fill="#d62728"/>
<circle cx="232.7" cy="484.7" r="3" fill="#d62728"/>
<circle cx="236.1" cy="477.3" r="3" fill="#d62728"/>
<circle cx="239.6" cy="489.0" r="3" fill="#d62728"/>
<circle cx="243.0" cy="476.5" r="3" fill="#d62728"/>
<circle cx="246.5" cy="477.2" r="3" fill="#d62728"/>
<circle cx="249.9" cy="471.5" r="3" fill="#d62728"/>
<circle cx="253.3" cy="467.8" r="3" fill="#d62728"/>
<circle cx="256.8" cy="486.2" r="3" fill="#d62728"/>
<circle cx="260.2" cy="481.9" r="3" fill="#d62728"/>
<circle cx="263.7" cy="475.6" r="3" fill="#d62728"/>
<circle cx="267.1" cy="484.6" r="3" fill="#d62728"/>
<circle cx="270.6" cy="483.9" r="3" fill="#d62728"/>
<circle cx="274.0" cy="491.0" r="3" fill="#d62728"/>
<circle cx="277.4" cy="476.3" r="3" fill="#d62728"/>
<circle cx="280.9" cy="482.4" r="3" fill="#d62728"/>
<circle cx="284.3" cy="476.7" r="3" fill="#d62728"/>
<circle cx="287.8" cy="480.5" r="3" fill="#d62728"/>
<circle cx="291.2" cy="478.7" r="3" fill="#d62728"/>
<circle cx="294.6" cy="483.6" r="3" fill="#d62728"/>
<circle cx="298.1" cy="475.3" r="3" fill="#d62728"/>
<circle cx="301.5" cy="477.3" r="3" fill="#d62728"/>
<circle cx="305.0" cy="480.3" r="3" fill="#d62728"/>
<circle cx="308.4" cy="480.6" r="3" fill="#d62728"/>
<circle cx="311.9" cy="473.1" r="3" fill="#d62728"/>
<circle cx="315.3" cy="474.7" r="3" fill="#d62728"/>
<circle cx="318.7" cy="471.5" r="3" fill="#d62728"/>
<circle cx="322.2" cy="477.2" r="3" fill="#d62728"/>
<circle cx="325.6" cy="469.3" r="3" fill="#d62728"/>
<circle cx="329.1" cy="480.1" r="3" fill="#d62728"/>
<circle cx="332.5" cy="482.3" r="3" fill="#d62728"/>
<circle cx="336.0" cy="466.5" r="3" fill="#d62728"/>
<circle cx="339.4" cy="483.5" r="3" fill="#d62728"/>
<circle cx="342.8" cy="480.9" r="3" fill="#d62728"/>
<circle cx="346.3" cy="477.7" r="3" fill="#d62728"/>
<circle cx="349.7" cy="488.7" r="3" fill="#d62728"/>
<circle cx="353.2" cy="486.3" r="3" fill="#d62728"/>
<circle cx="356.6" cy="489.1" r="3" fill="#d62728"/>
<circle cx="360.1" cy="477.6" r="3" fill="#d62728"/>
<circle cx="363.5" cy="479.9" r="3" fill="#d62728"/>
<circle cx="366.9" cy="475.6" r="3" fill="#d62728"/>
<circle cx="370.4" cy="468.0" r="3" fill="#d62728"/>
<circle cx="373.8" cy="474.0" r="3" fill="#d62728"/>
<circle cx="377.3" cy="479.7" r="3" fill="#d62728"/>
<circle cx="380.7" cy="476.2" r="3" fill="#d62728"/>
<circle cx="384.1" cy="487.5" r="3" fill="#d62728"/>
<circle cx="387.6" cy="480.2" r="3" fill="#d62728"/>
<circle cx="391.0" cy="485.7" r="3" fill="#d62728"/>
<circle cx="394.5" cy="475.0" r="3" fill="#d62728"/>
<circle cx="397.9" cy="476.6" r="3" fill="#d62728"/>
<circle cx="401.4" cy="487.2" r="3" fill="#d62728"/>
<circle cx="404.8" cy="481.8" r="3" fill="#d62728"/>
<circle cx="408.2" cy="475.4" r="3" fill="#d62728"/>
<circle cx="411.7" cy="483.2" r="3" fill="#d62728"/>
<circle cx="415.1" cy="474.2" r="3" fill="#d62728"/>
<circle cx="418.6" cy="478.2" r="3" fill="#d62728"/>
<circle cx="422.0" cy="482.0" r="3" fill="#d62728"/>
<circle cx="425.5" cy="461.5" r="3" fill="#d62728"/>
<circle cx="428.9" cy="473.8" r="3" fill="#d62728"/>
<circle cx="432.3" cy="480.6" r="3" fill="#d62728"/>
<circle cx="435.8" cy="474.0" r="3" fill="#d62728"/>
<circle cx="439.2" cy="478.6" r="3" fill="#d62728"/>
<circle cx="442.7" cy="469.9" r="3" fill="#d62728"/>
<circle cx="446.1" cy="476.5" r="3" fill="#d62728"/>
<circle cx="449.5" cy="483.0" r="3" fill="#d62728"/>
<circle cx="453.0" cy="474.9" r="3" fill="#d62728"/>
<circle cx="456.4" cy="476.0" r="3" fill="#d62728"/>
<circle cx="459.9" cy="479.7" r="3" fill="#d62728"/>
<circle cx="463.3" cy="474.1" r="3" fill="#d62728"/>
<circle cx="466.8" cy="480.1" r="3" fill="#d62728"/>
<circle cx="470.2" cy="476.9" r="3" fill="#d62728"/>
<circle cx="473.6" cy="478.5" r="3" fill="#d62728"/>
<circle cx="477.1" cy="482.3" r="3" fill="#d62728"/>
<circle cx="480.5" cy="479.1" r="3" fill="#d62728"/>
<circle cx="484.0" cy="478.0" r="3" fill="#d62728"/>
<circle cx="487.4" cy="470.0" r="3" fill="#d62728"/>
<circle cx="490.9" cy="473.6" r="3" fill="#d62728"/>
<circle cx="494.3" cy="472.4" r="3" fill="#d62728"/>
<circle cx="497.7" cy="479.4" r="3" fill="#d62728"/>
<circle cx="501.2" cy="478.9" r="3" fill="#d62728"/>
<circle cx="504.6" cy="465.7" r="3" fill="#d62728"/>
<circle cx="508.1" cy="476.7" r="3" fill="#d62728"/>
<circle cx="511.5" cy="479.6" r="3" fill="#d62728"/>
<circle cx="514.9" cy="481.4" r="3" fill="#d62728"/>
<circle cx="518.4" cy="486.6" r="3" fill="#d62728"/>
<circle cx="521.8" cy="473.3" r="3" fill="#d62728"/>
<circle cx="525.3" cy="474.5" r="3" fill="#d62728"/>
<circle cx="528.7" cy="470.7" r="3" fill="#d62728"/>
<circle cx="532.2" cy="479.1" r="3" fill="#d62728"/>
<circle cx="535.6" cy="483.4" r="3" fill="#d62728"/>
<circle cx="539.0" cy="479.6" r="3" fill="#d62728"/>
<circle cx="542.5" cy="465.5" r="3" fill="#d62728"/>
<circle cx="545.9" cy="482.3" r="3" fill="#d62728"/>
<circle cx="549.4" cy="468.7" r="3" fill="#d62728"/>
<circle cx="552.8" cy="476.6" r="3" fill="#d62728"/>
<circle cx="556.3" cy="486.8" r="3" fill="#d62728"/>
<circle cx="559.7" cy="490.2" r="3" fill="#d62728"/>
<circle cx="563.1" cy="473.5" r="3" fill="#d62728"/>
<circle cx="566.6" cy="485.4" r="3" fill="#d62728"/>
<circle cx="570.0" cy="484.8" r="3" fill="#d62728"/>
<circle cx="573.5" cy="475.6" r="3" fill="#d62728"/>
<circle cx="576.9" cy="489.2" r="3" fill="#d62728"/>
<circle cx="580.4" cy="487.4" r="3" fill="#d62728"/>
<circle cx="583.8" cy="493.4" r="3" fill="#d62728"/>
<circle cx="587.2" cy="487.9" r="3" fill="#d62728"/>
<circle cx="590.7" cy="478.8" r="3" fill="#d62728"/>
<circle cx="594.1" cy="484.0" r="3" fill="#d62728"/>
<circle cx="597.6" cy="479.8" r="3" fill="#d62728"/>
<circle cx="601.0" cy="490.5" r="3" fill="#d62728"/>
<circle cx="604.4" cy="478.0" r="3" fill="#d62728"/>
<circle cx="607.9" cy="475.9" r="3" fill="#d62728"/>
<circle cx="611.3" cy="485.7" r="3" fill="#d62728"/>
<circle cx="614.8" cy="475.4" r="3" fill="#d62728"/>
<circle cx="618.2" cy="482.9" r="3" fill="#d62728"/>
<circle cx="621.7" cy="485.8" r="3" fill="#d62728"/>
<circle cx="625.1" cy="483.0" r="3" fill="#d62728"/>
<circle cx="628.5" cy="482.4" r="3" fill="#d62728"/>
<circle cx="632.0" cy="490.3" r="3" fill="#d62728"/>
<circle cx="635.4" cy="485.9" r="3" fill="#d62728"/>
<circle cx="638.9" cy="492.6" r="3" fill="#d62728"/>
<circle cx="642.3" cy="486.4" r="3" fill="#d62728"/>
<circle cx="645.8" cy="489.5" r="3" fill="#d62728"/>
<circle cx="649.2" cy="490.8" r="3" fill="#d62728"/>
<circle cx="652.6" cy="498.9" r="3" fill="#d62728"/>
<circle cx="656.1" cy="479.2" r="3" fill="#d62728"/>
<circle cx="659.5" cy="479.9" r="3" fill="#d62728"/>
<circle cx="663.0" cy="488.4" r="3" fill="#d62728"/>
<circle cx="666.4" cy="492.3" r="3" fill="#d62728"/>
<circle cx="669.8" cy="482.9" r="3" fill="#d62728"/>
<circle cx="673.3" cy="486.1" r="3" fill="#d62728"/>
<circle cx="676.7" cy="491.6" r="3" fill="#d62728"/>
<circle cx="680.2" cy="487.4" r="3" fill="#d62728"/>
<circle cx="683.6" cy="480.4" r="3" fill="#d62728"/>
<circle cx="687.1" cy="489.9" r="3" fill="#d62728"/>
<circle cx="690.5" cy="495.0" r="3" fill="#d62728"/>
<circle cx="693.9" cy="481.5" r="3" fill="#d62728"/>
<circle cx="697.4" cy="486.6" r="3" fill="#d62728"/>
<circle cx="700.8" cy="490.4" r="3" fill="#d62728"/>
<circle cx="704.3" cy="487.1" r="3" fill="#d62728"/>
<circle cx="707.7" cy="487.5" r="3" fill="#d62728"/>
<circle cx="711.2" cy="498.7" r="3" fill="#d62728"/>
<circle cx="714.6" cy="488.7" r="3" fill="#d62728"/>
<circle cx="718.0" cy="486.3" r="3" fill="#d62728"/>
<circle cx="721.5" cy="492.9" r="3" fill="#d62728"/>
<circle cx="724.9" cy="493.4" r="3" fill="#d62728"/>
<circle cx="728.4" cy="492.0" r="3" fill="#d62728"/>
<circle cx="731.8" cy="496.0" r="3" fill="#d62728"/>
<circle cx="735.3" cy="491.3" r="3" fill="#d62728"/>
<circle cx="738.7" cy="485.0" r="3" fill="#d62728"/>
<circle cx="742.1" cy="492.7" r="3" fill="#d62728"/>
<circle cx="745.6" cy="490.8" r="3" fill="#d62728"/>
<circle cx="749.0" cy="493.7" r="3" fill="#d62728"/>
<circle cx="752.5" cy="500.4" r="3" fill="#d62728"/>
<circle cx="755.9" cy="485.0" r="3" fill="#d62728"/>
<circle cx="759.3" cy="488.0" r="3" fill="#d62728"/>
<circle cx="762.8" cy="484.8" r="3" fill="#d62728"/>
<circle cx="766.2" cy="486.9" r="3" fill="#d62728"/>
<circle cx="769.7" cy="485.3" r="3" fill="#d62728"/>
<circle cx="773.1" cy="486.4" r="3" fill="#d62728"/>
<circle cx="776.6" cy="490.2" r="3" fill="#d62728"/>
<circle cx="780.0" cy="495.0" r="3" fill="#d62728"/>
<line x1="808" y1="121" x2="830" y2="121" stroke="#d62728" stroke-width="2.5"/>
<text x="838" y="125" font-family="Arial" font-size="13">question_only</text>
<text x="437.5" y="618" text-anchor="middle" font-family="Arial" font-size="15">GRPO step</text>
<text x="24" y="316.0" text-anchor="middle" font-family="Arial" font-size="15" transform="rotate(-90 24 316.0)">Token entropy (nats)</text>
</svg>
