<svg xmlns="http://www.w3.org/2000/svg" width="1040" height="640" viewBox="0 0 1040 640">
<rect width="100%" height="100%" fill="white"/>
<text x="520.0" y="36" text-anchor="middle" font-family="Arial" font-size="22" font-weight="700">GRPO Learning-Rate Sweep: Validation Format Accuracy</text>
<line x1="95" y1="558" x2="780" y2="558" stroke="#222" stroke-width="1.5"/>
<line x1="95" y1="74" x2="95" y2="558" stroke="#222" stroke-width="1.5"/>
<line x1="90" y1="558.0" x2="780" y2="558.0" stroke="#ddd" stroke-width="1"/>
<text x="83" y="562.0" text-anchor="end" font-family="Arial" font-size="12">0.00</text>
<line x1="90" y1="461.2" x2="780" y2="461.2" stroke="#ddd" stroke-width="1"/>
<text x="83" y="465.2" text-anchor="end" font-family="Arial" font-size="12">0.20</text>
<line x1="90" y1="364.4" x2="780" y2="364.4" stroke="#ddd" stroke-width="1"/>
<text x="83" y="368.4" text-anchor="end" font-family="Arial" font-size="12">0.40</text>
<line x1="90" y1="267.6" x2="780" y2="267.6" stroke="#ddd" stroke-width="1"/>
<text x="83" y="271.6" text-anchor="end" font-family="Arial" font-size="12">0.60</text>
<line x1="90" y1="170.8" x2="780" y2="170.8" stroke="#ddd" stroke-width="1"/>
<text x="83" y="174.8" text-anchor="end" font-family="Arial" font-size="12">0.80</text>
<line x1="90" y1="74.0" x2="780" y2="74.0" stroke="#ddd" stroke-width="1"/>
<text x="83" y="78.0" text-anchor="end" font-family="Arial" font-size="12">1.00</text>
<line x1="95.0" y1="558" x2="95.0" y2="563" stroke="#222" stroke-width="1"/>
<text x="95.0" y="582" text-anchor="middle" font-family="Arial" font-size="12">0</text>
<line x1="232.0" y1="558" x2="232.0" y2="563" stroke="#222" stroke-width="1"/>
<text x="232.0" y="582" text-anchor="middle" font-family="Arial" font-size="12">40</text>
<line x1="369.0" y1="558" x2="369.0" y2="563" stroke="#222" stroke-width="1"/>
<text x="369.0" y="582" text-anchor="middle" font-family="Arial" font-size="12">80</text>
<line x1="506.0" y1="558" x2="506.0" y2="563" stroke="#222" stroke-width="1"/>
<text x="506.0" y="582" text-anchor="middle" font-family="Arial" font-size="12">120</text>
<line x1="643.0" y1="558" x2="643.0" y2="563" stroke="#222" stroke-width="1"/>
<text x="643.0" y="582" text-anchor="middle" font-family="Arial" font-size="12">160</text>
<line x1="780.0" y1="558" x2="780.0" y2="563" stroke="#222" stroke-width="1"/>
<text x="780.0" y="582" text-anchor="middle" font-family="Arial" font-size="12">200</text>
<polyline fill="none" stroke="#1f77b4" stroke-width="2.3" points="95.0,470.6 112.1,453.1 129.2,447.9 146.4,446.0 163.5,433.7 180.6,422.3 197.8,420.0 214.9,410.5 232.0,406.8 249.1,384.5 266.2,382.2"/>
<circle cx="95.0" cy="470.6" r="3" fill="#1f77b4"/>
<circle cx="112.1" cy="453.1" r="3" fill="#1f77b4"/>
<circle cx="129.2" cy="447.9" r="3" fill="#1f77b4"/>
<circle cx="146.4" cy="446.0" r="3" fill="#1f77b4"/>
<circle cx="163.5" cy="433.7" r="3" fill="#1f77b4"/>
<circle cx="180.6" cy="422.3" r="3" fill="#1f77b4"/>
<circle cx="197.8" cy="420.0" r="3" fill="#1f77b4"/>
<circle cx="214.9" cy="410.5" r="3" fill="#1f77b4"/>
<circle cx="232.0" cy="406.8" r="3" fill="#1f77b4"/>
<circle cx="249.1" cy="384.5" r="3" fill="#1f77b4"/>
<circle cx="266.2" cy="382.2" r="3" fill="#1f77b4"/>
<line x1="808" y1="96" x2="830" y2="96" stroke="#1f77b4" stroke-width="2.5"/>
<text x="838" y="100" font-family="Arial" font-size="13">lr=3e-6 (stopped)</text>
<polyline fill="none" stroke="#d62728" stroke-width="2.3" points="95.0,470.6 112.1,448.3 129.2,392.6 146.4,385.5 163.5,357.6 180.6,334.4 197.8,328.3 214.9,300.9 232.0,295.7 249.1,291.9 266.2,275.4 283.4,266.8 300.5,254.6 317.6,261.2 334.8,253.6 351.9,250.3 369.0,254.1 386.1,247.9 403.2,235.6 420.4,243.7 437.5,243.2 454.6,237.5 471.8,224.8 488.9,221.9 506.0,221.9 523.1,206.8 540.2,213.9 557.4,201.1 574.5,201.1 591.6,193.1 608.8,199.3 625.9,186.5 643.0,187.9 660.1,193.1 677.2,185.5 694.4,176.1 711.5,188.9 728.6,182.7 745.8,181.8 762.9,175.6 780.0,161.4"/>
<circle cx="95.0" cy="470.6" r="3" fill="#d62728"/>
<circle cx="112.1" cy="448.3" r="3" fill="#d62728"/>
<circle cx="129.2" cy="392.6" r="3" fill="#d62728"/>
<circle cx="146.4" cy="385.5" r="3" fill="#d62728"/>
<circle cx="163.5" cy="357.6" r="3" fill="#d62728"/>
<circle cx="180.6" cy="334.4" r="3" fill="#d62728"/>
<circle cx="197.8" cy="328.3" r="3" fill="#d62728"/>
<circle cx="214.9" cy="300.9" r="3" fill="#d62728"/>
<circle cx="232.0" cy="295.7" r="3" fill="#d62728"/>
<circle cx="249.1" cy="291.9" r="3" fill="#d62728"/>
<circle cx="266.2" cy="275.4" r="3" fill="#d62728"/>
<circle cx="283.4" cy="266.8" r="3" fill="#d62728"/>
<circle cx="300.5" cy="254.6" r="3" fill="#d62728"/>
<circle cx="317.6" cy="261.2" r="3" fill="#d62728"/>
<circle cx="334.8" cy="253.6" r="3" fill="#d62728"/>
<circle cx="351.9" cy="250.3" r="3" fill="#d62728"/>
<circle cx="369.0" cy="254.1" r="3" fill="#d62728"/>
<circle cx="386.1" cy="247.9" r="3" fill="#d62728"/>
<circle cx="403.2" cy="235.6" r="3" fill="#d62728"/>
<circle cx="420.4" cy="243.7" r="3" fill="#d62728"/>
<circle cx="437.5" cy="243.2" r="3" fill="#d62728"/>
<circle cx="454.6" cy="237.5" r="3" fill="#d62728"/>
<circle cx="471.8" cy="224.8" r="3" fill="#d62728"/>
<circle cx="488.9" cy="221.9" r="3" fill="#d62728"/>
<circle cx="506.0" cy="221.9" r="3" fill="#d62728"/>
<circle cx="523.1" cy="206.8" r="3" fill="#d62728"/>
<circle cx="540.2" cy="213.9" r="3" fill="#d62728"/>
<circle cx="557.4" cy="201.1" r="3" fill="#d62728"/>
<circle cx="574.5" cy="201.1" r="3" fill="#d62728"/>
<circle cx="591.6" cy="193.1" r="3" fill="#d62728"/>
<circle cx="608.8" cy="199.3" r="3" fill="#d62728"/>
<circle cx="625.9" cy="186.5" r="3" fill="#d62728"/>
<circle cx="643.0" cy="187.9" r="3" fill="#d62728"/>
<circle cx="660.1" cy="193.1" r="3" fill="#d62728"/>
<circle cx="677.2" cy="185.5" r="3" fill="#d62728"/>
<circle cx="694.4" cy="176.1" r="3" fill="#d62728"/>
<circle cx="711.5" cy="188.9" r="3" fill="#d62728"/>
<circle cx="728.6" cy="182.7" r="3" fill="#d62728"/>
<circle cx="745.8" cy="181.8" r="3" fill="#d62728"/>
<circle cx="762.9" cy="175.6" r="3" fill="#d62728"/>
<circle cx="780.0" cy="161.4" r="3" fill="#d62728"/>
<line x1="808" y1="121" x2="830" y2="121" stroke="#d62728" stroke-width="2.5"/>
<text x="838" y="125" font-family="Arial" font-size="13">lr=5e-6</text>
<polyline fill="none" stroke="#2ca02c" stroke-width="2.3" points="95.0,470.6 112.1,316.5 129.2,248.9 146.4,231.9 163.5,199.3 180.6,190.3 197.8,172.3 214.9,170.9 232.0,161.9 249.1,153.9 266.2,152.5 283.4,150.6 300.5,144.9 317.6,152.5 334.8,149.2 351.9,144.9 369.0,138.3 386.1,142.1 403.2,129.8 420.4,119.4 437.5,109.4 454.6,110.9 471.8,104.2 488.9,112.8 506.0,110.9 523.1,106.1 540.2,112.3 557.4,104.2 574.5,109.0 591.6,112.8 608.8,114.6 625.9,108.0 643.0,108.5 660.1,108.5 677.2,106.1 694.4,94.8 711.5,93.4 728.6,92.9 745.8,92.9 762.9,91.0 780.0,95.3"/>
<circle cx="95.0" cy="470.6" r="3" fill="#2ca02c"/>
<circle cx="112.1" cy="316.5" r="3" fill="#2ca02c"/>
<circle cx="129.2" cy="248.9" r="3" fill="#2ca02c"/>
<circle cx="146.4" cy="231.9" r="3" fill="#2ca02c"/>
<circle cx="163.5" cy="199.3" r="3" fill="#2ca02c"/>
<circle cx="180.6" cy="190.3" r="3" fill="#2ca02c"/>
<circle cx="197.8" cy="172.3" r="3" fill="#2ca02c"/>
<circle cx="214.9" cy="170.9" r="3" fill="#2ca02c"/>
<circle cx="232.0" cy="161.9" r="3" fill="#2ca02c"/>
<circle cx="249.1" cy="153.9" r="3" fill="#2ca02c"/>
<circle cx="266.2" cy="152.5" r="3" fill="#2ca02c"/>
<circle cx="283.4" cy="150.6" r="3" fill="#2ca02c"/>
<circle cx="300.5" cy="144.9" r="3" fill="#2ca02c"/>
<circle cx="317.6" cy="152.5" r="3" fill="#2ca02c"/>
<circle cx="334.8" cy="149.2" r="3" fill="#2ca02c"/>
<circle cx="351.9" cy="144.9" r="3" fill="#2ca02c"/>
<circle cx="369.0" cy="138.3" r="3" fill="#2ca02c"/>
<circle cx="386.1" cy="142.1" r="3" fill="#2ca02c"/>
<circle cx="403.2" cy="129.8" r="3" fill="#2ca02c"/>
<circle cx="420.4" cy="119.4" r="3" fill="#2ca02c"/>
<circle cx="437.5" cy="109.4" r="3" fill="#2ca02c"/>
<circle cx="454.6" cy="110.9" r="3" fill="#2ca02c"/>
<circle cx="471.8" cy="104.2" r="3" fill="#2ca02c"/>
<circle cx="488.9" cy="112.8" r="3" fill="#2ca02c"/>
<circle cx="506.0" cy="110.9" r="3" fill="#2ca02c"/>
<circle cx="523.1" cy="106.1" r="3" fill="#2ca02c"/>
<circle cx="540.2" cy="112.3" r="3" fill="#2ca02c"/>
<circle cx="557.4" cy="104.2" r="3" fill="#2ca02c"/>
<circle cx="574.5" cy="109.0" r="3" fill="#2ca02c"/>
<circle cx="591.6" cy="112.8" r="3" fill="#2ca02c"/>
<circle cx="608.8" cy="114.6" r="3" fill="#2ca02c"/>
<circle cx="625.9" cy="108.0" r="3" fill="#2ca02c"/>
<circle cx="643.0" cy="108.5" r="3" fill="#2ca02c"/>
<circle cx="660.1" cy="108.5" r="3" fill="#2ca02c"/>
<circle cx="677.2" cy="106.1" r="3" fill="#2ca02c"/>
<circle cx="694.4" cy="94.8" r="3" fill="#2ca02c"/>
<circle cx="711.5" cy="93.4" r="3" fill="#2ca02c"/>
<circle cx="728.6" cy="92.9" r="3" fill="#2ca02c"/>
<circle cx="745.8" cy="92.9" r="3" fill="#2ca02c"/>
<circle cx="762.9" cy="91.0" r="3" fill="#2ca02c"/>
<circle cx="780.0" cy="95.3" r="3" fill="#2ca02c"/>
<line x1="808" y1="146" x2="830" y2="146" stroke="#2ca02c" stroke-width="2.5"/>
<text x="838" y="150" font-family="Arial" font-size="13">lr=1e-5</text>
<polyline fill="none" stroke="#9467bd" stroke-width="2.3" points="95.0,470.6 112.1,223.8 129.2,140.2 146.4,167.1 163.5,179.9 180.6,166.2 197.8,146.3 214.9,119.8 232.0,112.8 249.1,109.4 266.2,118.4 283.4,120.3 300.5,96.2 317.6,100.5 334.8,99.5 351.9,110.4 369.0,113.2 386.1,109.4 403.2,102.8 420.4,95.7 437.5,92.4 454.6,86.3 471.8,88.7 488.9,86.8 506.0,83.9 523.1,87.7 540.2,85.3 557.4,83.9 574.5,85.8 591.6,84.4 608.8,86.3 625.9,95.3 643.0,90.5 660.1,92.0 677.2,92.4 694.4,89.6 711.5,93.9 728.6,90.5 745.8,88.2 762.9,82.0 780.0,82.0"/>
<circle cx="95.0" cy="470.6" r="3" fill="#9467bd"/>
<circle cx="112.1" cy="223.8" r="3" fill="#9467bd"/>
<circle cx="129.2" cy="140.2" r="3" fill="#9467bd"/>
<circle cx="146.4" cy="167.1" r="3" fill="#9467bd"/>
<circle cx="163.5" cy="179.9" r="3" fill="#9467bd"/>
<circle cx="180.6" cy="166.2" r="3" fill="#9467bd"/>
<circle cx="197.8" cy="146.3" r="3" fill="#9467bd"/>
<circle cx="214.9" cy="119.8" r="3" fill="#9467bd"/>
<circle cx="232.0" cy="112.8" r="3" fill="#9467bd"/>
<circle cx="249.1" cy="109.4" r="3" fill="#9467bd"/>
<circle cx="266.2" cy="118.4" r="3" fill="#9467bd"/>
<circle cx="283.4" cy="120.3" r="3" fill="#9467bd"/>
<circle cx="300.5" cy="96.2" r="3" fill="#9467bd"/>
<circle cx="317.6" cy="100.5" r="3" fill="#9467bd"/>
<circle cx="334.8" cy="99.5" r="3" fill="#9467bd"/>
<circle cx="351.9" cy="110.4" r="3" fill="#9467bd"/>
<circle cx="369.0" cy="113.2" r="3" fill="#9467bd"/>
<circle cx="386.1" cy="109.4" r="3" fill="#9467bd"/>
<circle cx="403.2" cy="102.8" r="3" fill="#9467bd"/>
<circle cx="420.4" cy="95.7" r="3" fill="#9467bd"/>
<circle cx="437.5" cy="92.4" r="3" fill="#9467bd"/>
<circle cx="454.6" cy="86.3" r="3" fill="#9467bd"/>
<circle cx="471.8" cy="88.7" r="3" fill="#9467bd"/>
<circle cx="488.9" cy="86.8" r="3" fill="#9467bd"/>
<circle cx="506.0" cy="83.9" r="3" fill="#9467bd"/>
<circle cx="523.1" cy="87.7" r="3" fill="#9467bd"/>
<circle cx="540.2" cy="85.3" r="3" fill="#9467bd"/>
<circle cx="557.4" cy="83.9" r="3" fill="#9467bd"/>
<circle cx="574.5" cy="85.8" r="3" fill="#9467bd"/>
<circle cx="591.6" cy="84.4" r="3" fill="#9467bd"/>
<circle cx="608.8" cy="86.3" r="3" fill="#9467bd"/>
<circle cx="625.9" cy="95.3" r="3" fill="#9467bd"/>
<circle cx="643.0" cy="90.5" r="3" fill="#9467bd"/>
<circle cx="660.1" cy="92.0" r="3" fill="#9467bd"/>
<circle cx="677.2" cy="92.4" r="3" fill="#9467bd"/>
<circle cx="694.4" cy="89.6" r="3" fill="#9467bd"/>
<circle cx="711.5" cy="93.9" r="3" fill="#9467bd"/>
<circle cx="728.6" cy="90.5" r="3" fill="#9467bd"/>
<circle cx="745.8" cy="88.2" r="3" fill="#9467bd"/>
<circle cx="762.9" cy="82.0" r="3" fill="#9467bd"/>
<circle cx="780.0" cy="82.0" r="3" fill="#9467bd"/>
<line x1="808" y1="171" x2="830" y2="171" stroke="#9467bd" stroke-width="2.5"/>
<text x="838" y="175" font-family="Arial" font-size="13">lr=2e-5</text>
<polyline fill="none" stroke="#ff7f0e" stroke-width="2.3" points="95.0,470.6 112.1,234.7 129.2,143.5 146.4,126.9 163.5,122.7 180.6,116.5 197.8,107.1 214.9,98.6 232.0,90.1 249.1,94.8 266.2,89.6 283.4,89.1 300.5,84.4 317.6,86.3 334.8,90.1 351.9,86.8 369.0,92.0 386.1,107.1 403.2,100.5 420.4,88.7 437.5,87.2 454.6,85.8 471.8,88.7 488.9,89.1 506.0,88.7 523.1,89.6 540.2,83.9 557.4,86.3 574.5,80.6 591.6,86.3 608.8,88.2 625.9,90.1 643.0,85.3 660.1,82.0 677.2,81.6 694.4,82.0 711.5,81.1 728.6,77.8 745.8,78.3 762.9,85.3 780.0,84.9"/>
<circle cx="95.0" cy="470.6" r="3" fill="#ff7f0e"/>
<circle cx="112.1" cy="234.7" r="3" fill="#ff7f0e"/>
<circle cx="129.2" cy="143.5" r="3" fill="#ff7f0e"/>
<circle cx="146.4" cy="126.9" r="3" fill="#ff7f0e"/>
<circle cx="163.5" cy="122.7" r="3" fill="#ff7f0e"/>
<circle cx="180.6" cy="116.5" r="3" fill="#ff7f0e"/>
<circle cx="197.8" cy="107.1" r="3" fill="#ff7f0e"/>
<circle cx="214.9" cy="98.6" r="3" fill="#ff7f0e"/>
<circle cx="232.0" cy="90.1" r="3" fill="#ff7f0e"/>
<circle cx="249.1" cy="94.8" r="3" fill="#ff7f0e"/>
<circle cx="266.2" cy="89.6" r="3" fill="#ff7f0e"/>
<circle cx="283.4" cy="89.1" r="3" fill="#ff7f0e"/>
<circle cx="300.5" cy="84.4" r="3" fill="#ff7f0e"/>
<circle cx="317.6" cy="86.3" r="3" fill="#ff7f0e"/>
<circle cx="334.8" cy="90.1" r="3" fill="#ff7f0e"/>
<circle cx="351.9" cy="86.8" r="3" fill="#ff7f0e"/>
<circle cx="369.0" cy="92.0" r="3" fill="#ff7f0e"/>
<circle cx="386.1" cy="107.1" r="3" fill="#ff7f0e"/>
<circle cx="403.2" cy="100.5" r="3" fill="#ff7f0e"/>
<circle cx="420.4" cy="88.7" r="3" fill="#ff7f0e"/>
<circle cx="437.5" cy="87.2" r="3" fill="#ff7f0e"/>
<circle cx="454.6" cy="85.8" r="3" fill="#ff7f0e"/>
<circle cx="471.8" cy="88.7" r="3" fill="#ff7f0e"/>
<circle cx="488.9" cy="89.1" r="3" fill="#ff7f0e"/>
<circle cx="506.0" cy="88.7" r="3" fill="#ff7f0e"/>
<circle cx="523.1" cy="89.6" r="3" fill="#ff7f0e"/>
<circle cx="540.2" cy="83.9" r="3" fill="#ff7f0e"/>
<circle cx="557.4" cy="86.3" r="3" fill="#ff7f0e"/>
<circle cx="574.5" cy="80.6" r="3" fill="#ff7f0e"/>
<circle cx="591.6" cy="86.3" r="3" fill="#ff7f0e"/>
<circle cx="608.8" cy="88.2" r="3" fill="#ff7f0e"/>
<circle cx="625.9" cy="90.1" r="3" fill="#ff7f0e"/>
<circle cx="643.0" cy="85.3" r="3" fill="#ff7f0e"/>
<circle cx="660.1" cy="82.0" r="3" fill="#ff7f0e"/>
<circle cx="677.2" cy="81.6" r="3" fill="#ff7f0e"/>
<circle cx="694.4" cy="82.0" r="3" fill="#ff7f0e"/>
<circle cx="711.5" cy="81.1" r="3" fill="#ff7f0e"/>
<circle cx="728.6" cy="77.8" r="3" fill="#ff7f0e"/>
<circle cx="745.8" cy="78.3" r="3" fill="#ff7f0e"/>
<circle cx="762.9" cy="85.3" r="3" fill="#ff7f0e"/>
<circle cx="780.0" cy="84.9" r="3" fill="#ff7f0e"/>
<line x1="808" y1="196" x2="830" y2="196" stroke="#ff7f0e" stroke-width="2.5"/>
<text x="838" y="200" font-family="Arial" font-size="13">lr=3e-5</text>
<polyline fill="none" stroke="#17becf" stroke-width="2.3" points="95.0,470.6 112.1,152.0 129.2,105.7 146.4,93.9 163.5,98.6 180.6,107.1 197.8,109.0 214.9,96.2 232.0,95.3 249.1,89.6 266.2,87.7 283.4,87.7 300.5,89.1 317.6,97.6 334.8,109.0 351.9,100.9 369.0,95.7 386.1,97.2 403.2,96.7 420.4,85.8 437.5,83.9 454.6,83.9 471.8,81.6 488.9,90.5 506.0,91.5 523.1,91.5 540.2,89.1 557.4,88.2 574.5,88.2 591.6,98.1 608.8,87.7 625.9,86.8 643.0,85.8 660.1,86.3 677.2,84.4 694.4,86.8 711.5,82.5 728.6,83.0 745.8,85.3 762.9,84.9 780.0,83.5"/>
<circle cx="95.0" cy="470.6" r="3" fill="#17becf"/>
<circle cx="112.1" cy="152.0" r="3" fill="#17becf"/>
<circle cx="129.2" cy="105.7" r="3" fill="#17becf"/>
<circle cx="146.4" cy="93.9" r="3" fill="#17becf"/>
<circle cx="163.5" cy="98.6" r="3" fill="#17becf"/>
<circle cx="180.6" cy="107.1" r="3" fill="#17becf"/>
<circle cx="197.8" cy="109.0" r="3" fill="#17becf"/>
<circle cx="214.9" cy="96.2" r="3" fill="#17becf"/>
<circle cx="232.0" cy="95.3" r="3" fill="#17becf"/>
<circle cx="249.1" cy="89.6" r="3" fill="#17becf"/>
<circle cx="266.2" cy="87.7" r="3" fill="#17becf"/>
<circle cx="283.4" cy="87.7" r="3" fill="#17becf"/>
<circle cx="300.5" cy="89.1" r="3" fill="#17becf"/>
<circle cx="317.6" cy="97.6" r="3" fill="#17becf"/>
<circle cx="334.8" cy="109.0" r="3" fill="#17becf"/>
<circle cx="351.9" cy="100.9" r="3" fill="#17becf"/>
<circle cx="369.0" cy="95.7" r="3" fill="#17becf"/>
<circle cx="386.1" cy="97.2" r="3" fill="#17becf"/>
<circle cx="403.2" cy="96.7" r="3" fill="#17becf"/>
<circle cx="420.4" cy="85.8" r="3" fill="#17becf"/>
<circle cx="437.5" cy="83.9" r="3" fill="#17becf"/>
<circle cx="454.6" cy="83.9" r="3" fill="#17becf"/>
<circle cx="471.8" cy="81.6" r="3" fill="#17becf"/>
<circle cx="488.9" cy="90.5" r="3" fill="#17becf"/>
<circle cx="506.0" cy="91.5" r="3" fill="#17becf"/>
<circle cx="523.1" cy="91.5" r="3" fill="#17becf"/>
<circle cx="540.2" cy="89.1" r="3" fill="#17becf"/>
<circle cx="557.4" cy="88.2" r="3" fill="#17becf"/>
<circle cx="574.5" cy="88.2" r="3" fill="#17becf"/>
<circle cx="591.6" cy="98.1" r="3" fill="#17becf"/>
<circle cx="608.8" cy="87.7" r="3" fill="#17becf"/>
<circle cx="625.9" cy="86.8" r="3" fill="#17becf"/>
<circle cx="643.0" cy="85.8" r="3" fill="#17becf"/>
<circle cx="660.1" cy="86.3" r="3" fill="#17becf"/>
<circle cx="677.2" cy="84.4" r="3" fill="#17becf"/>
<circle cx="694.4" cy="86.8" r="3" fill="#17becf"/>
<circle cx="711.5" cy="82.5" r="3" fill="#17becf"/>
<circle cx="728.6" cy="83.0" r="3" fill="#17becf"/>
<circle cx="745.8" cy="85.3" r="3" fill="#17becf"/>
<circle cx="762.9" cy="84.9" r="3" fill="#17becf"/>
<circle cx="780.0" cy="83.5" r="3" fill="#17becf"/>
<line x1="808" y1="221" x2="830" y2="221" stroke="#17becf" stroke-width="2.5"/>
<text x="838" y="225" font-family="Arial" font-size="13">lr=4e-5</text>
<polyline fill="none" stroke="#8c564b" stroke-width="2.3" points="95.0,470.6 112.1,136.9 129.2,92.4 146.4,83.9 163.5,77.3 180.6,83.9 197.8,82.0 214.9,83.9 232.0,93.9 249.1,106.6 266.2,102.8 283.4,94.3 300.5,92.9 317.6,96.2 334.8,90.1 351.9,87.7 369.0,88.7 386.1,85.3 403.2,94.8 420.4,86.8 437.5,89.6 454.6,90.5 471.8,89.1 488.9,93.9 506.0,97.6 523.1,89.6 540.2,88.2 557.4,86.8 574.5,89.1 591.6,90.1 608.8,89.1 625.9,92.9 643.0,94.8 660.1,96.2 677.2,97.2 694.4,101.9 711.5,103.3 728.6,108.5 745.8,109.9 762.9,107.1 780.0,100.0"/>
<circle cx="95.0" cy="470.6" r="3" fill="#8c564b"/>
<circle cx="112.1" cy="136.9" r="3" fill="#8c564b"/>
<circle cx="129.2" cy="92.4" r="3" fill="#8c564b"/>
<circle cx="146.4" cy="83.9" r="3" fill="#8c564b"/>
<circle cx="163.5" cy="77.3" r="3" fill="#8c564b"/>
<circle cx="180.6" cy="83.9" r="3" fill="#8c564b"/>
<circle cx="197.8" cy="82.0" r="3" fill="#8c564b"/>
<circle cx="214.9" cy="83.9" r="3" fill="#8c564b"/>
<circle cx="232.0" cy="93.9" r="3" fill="#8c564b"/>
<circle cx="249.1" cy="106.6" r="3" fill="#8c564b"/>
<circle cx="266.2" cy="102.8" r="3" fill="#8c564b"/>
<circle cx="283.4" cy="94.3" r="3" fill="#8c564b"/>
<circle cx="300.5" cy="92.9" r="3" fill="#8c564b"/>
<circle cx="317.6" cy="96.2" r="3" fill="#8c564b"/>
<circle cx="334.8" cy="90.1" r="3" fill="#8c564b"/>
<circle cx="351.9" cy="87.7" r="3" fill="#8c564b"/>
<circle cx="369.0" cy="88.7" r="3" fill="#8c564b"/>
<circle cx="386.1" cy="85.3" r="3" fill="#8c564b"/>
<circle cx="403.2" cy="94.8" r="3" fill="#8c564b"/>
<circle cx="420.4" cy="86.8" r="3" fill="#8c564b"/>
<circle cx="437.5" cy="89.6" r="3" fill="#8c564b"/>
<circle cx="454.6" cy="90.5" r="3" fill="#8c564b"/>
<circle cx="471.8" cy="89.1" r="3" fill="#8c564b"/>
<circle cx="488.9" cy="93.9" r="3" fill="#8c564b"/>
<circle cx="506.0" cy="97.6" r="3" fill="#8c564b"/>
<circle cx="523.1" cy="89.6" r="3" fill="#8c564b"/>
<circle cx="540.2" cy="88.2" r="3" fill="#8c564b"/>
<circle cx="557.4" cy="86.8" r="3" fill="#8c564b"/>
<circle cx="574.5" cy="89.1" r="3" fill="#8c564b"/>
<circle cx="591.6" cy="90.1" r="3" fill="#8c564b"/>
<circle cx="608.8" cy="89.1" r="3" fill="#8c564b"/>
<circle cx="625.9" cy="92.9" r="3" fill="#8c564b"/>
<circle cx="643.0" cy="94.8" r="3" fill="#8c564b"/>
<circle cx="660.1" cy="96.2" r="3" fill="#8c564b"/>
<circle cx="677.2" cy="97.2" r="3" fill="#8c564b"/>
<circle cx="694.4" cy="101.9" r="3" fill="#8c564b"/>
<circle cx="711.5" cy="103.3" r="3" fill="#8c564b"/>
<circle cx="728.6" cy="108.5" r="3" fill="#8c564b"/>
<circle cx="745.8" cy="109.9" r="3" fill="#8c564b"/>
<circle cx="762.9" cy="107.1" r="3" fill="#8c564b"/>
<circle cx="780.0" cy="100.0" r="3" fill="#8c564b"/>
<line x1="808" y1="246" x2="830" y2="246" stroke="#8c564b" stroke-width="2.5"/>
<text x="838" y="250" font-family="Arial" font-size="13">lr=5e-5</text>
<polyline fill="none" stroke="#e377c2" stroke-width="2.3" points="95.0,470.6 112.1,107.1 129.2,91.0 146.4,91.5 163.5,135.9 180.6,177.5 197.8,83.0 214.9,116.5 232.0,74.9 249.1,76.4 266.2,74.0"/>
<circle cx="95.0" cy="470.6" r="3" fill="#e377c2"/>
<circle cx="112.1" cy="107.1" r="3" fill="#e377c2"/>
<circle cx="129.2" cy="91.0" r="3" fill="#e377c2"/>
<circle cx="146.4" cy="91.5" r="3" fill="#e377c2"/>
<circle cx="163.5" cy="135.9" r="3" fill="#e377c2"/>
<circle cx="180.6" cy="177.5" r="3" fill="#e377c2"/>
<circle cx="197.8" cy="83.0" r="3" fill="#e377c2"/>
<circle cx="214.9" cy="116.5" r="3" fill="#e377c2"/>
<circle cx="232.0" cy="74.9" r="3" fill="#e377c2"/>
<circle cx="249.1" cy="76.4" r="3" fill="#e377c2"/>
<circle cx="266.2" cy="74.0" r="3" fill="#e377c2"/>
<line x1="808" y1="271" x2="830" y2="271" stroke="#e377c2" stroke-width="2.5"/>
<text x="838" y="275" font-family="Arial" font-size="13">lr=7e-5 (stopped)</text>
<polyline fill="none" stroke="#7f7f7f" stroke-width="2.3" points="95.0,470.6 112.1,558.0 129.2,558.0 146.4,558.0 163.5,558.0 180.6,558.0 197.8,558.0 214.9,558.0 232.0,558.0 249.1,558.0 266.2,558.0"/>
<circle cx="95.0" cy="470.6" r="3" fill="#7f7f7f"/>
<circle cx="112.1" cy="558.0" r="3" fill="#7f7f7f"/>
<circle cx="129.2" cy="558.0" r="3" fill="#7f7f7f"/>
<circle cx="146.4" cy="558.0" r="3" fill="#7f7f7f"/>
<circle cx="163.5" cy="558.0" r="3" fill="#7f7f7f"/>
<circle cx="180.6" cy="558.0" r="3" fill="#7f7f7f"/>
<circle cx="197.8" cy="558.0" r="3" fill="#7f7f7f"/>
<circle cx="214.9" cy="558.0" r="3" fill="#7f7f7f"/>
<circle cx="232.0" cy="558.0" r="3" fill="#7f7f7f"/>
<circle cx="249.1" cy="558.0" r="3" fill="#7f7f7f"/>
<circle cx="266.2" cy="558.0" r="3" fill="#7f7f7f"/>
<line x1="808" y1="296" x2="830" y2="296" stroke="#7f7f7f" stroke-width="2.5"/>
<text x="838" y="300" font-family="Arial" font-size="13">lr=2e-4 (stopped)</text>
<text x="437.5" y="618" text-anchor="middle" font-family="Arial" font-size="15">GRPO step</text>
<text x="24" y="316.0" text-anchor="middle" font-family="Arial" font-size="15" transform="rotate(-90 24 316.0)">Validation format accuracy</text>
</svg>
