<svg xmlns="http://www.w3.org/2000/svg" width="1040" height="640" viewBox="0 0 1040 640">
<rect width="100%" height="100%" fill="white"/>
<text x="520.0" y="36" text-anchor="middle" font-family="Arial" font-size="22" font-weight="700">GRPO Learning-Rate Sweep: Validation Answer Reward</text>
<line x1="95" y1="558" x2="780" y2="558" stroke="#222" stroke-width="1.5"/>
<line x1="95" y1="74" x2="95" y2="558" stroke="#222" stroke-width="1.5"/>
<line x1="90" y1="558.0" x2="780" y2="558.0" stroke="#ddd" stroke-width="1"/>
<text x="83" y="562.0" text-anchor="end" font-family="Arial" font-size="12">0.00</text>
<line x1="90" y1="461.2" x2="780" y2="461.2" stroke="#ddd" stroke-width="1"/>
<text x="83" y="465.2" text-anchor="end" font-family="Arial" font-size="12">0.18</text>
<line x1="90" y1="364.4" x2="780" y2="364.4" stroke="#ddd" stroke-width="1"/>
<text x="83" y="368.4" text-anchor="end" font-family="Arial" font-size="12">0.36</text>
<line x1="90" y1="267.6" x2="780" y2="267.6" stroke="#ddd" stroke-width="1"/>
<text x="83" y="271.6" text-anchor="end" font-family="Arial" font-size="12">0.54</text>
<line x1="90" y1="170.8" x2="780" y2="170.8" stroke="#ddd" stroke-width="1"/>
<text x="83" y="174.8" text-anchor="end" font-family="Arial" font-size="12">0.72</text>
<line x1="90" y1="74.0" x2="780" y2="74.0" stroke="#ddd" stroke-width="1"/>
<text x="83" y="78.0" text-anchor="end" font-family="Arial" font-size="12">0.90</text>
<line x1="95.0" y1="558" x2="95.0" y2="563" stroke="#222" stroke-width="1"/>
<text x="95.0" y="582" text-anchor="middle" font-family="Arial" font-size="12">0</text>
<line x1="232.0" y1="558" x2="232.0" y2="563" stroke="#222" stroke-width="1"/>
<text x="232.0" y="582" text-anchor="middle" font-family="Arial" font-size="12">40</text>
<line x1="369.0" y1="558" x2="369.0" y2="563" stroke="#222" stroke-width="1"/>
<text x="369.0" y="582" text-anchor="middle" font-family="Arial" font-size="12">80</text>
<line x1="506.0" y1="558" x2="506.0" y2="563" stroke="#222" stroke-width="1"/>
<text x="506.0" y="582" text-anchor="middle" font-family="Arial" font-size="12">120</text>
<line x1="643.0" y1="558" x2="643.0" y2="563" stroke="#222" stroke-width="1"/>
<text x="643.0" y="582" text-anchor="middle" font-family="Arial" font-size="12">160</text>
<line x1="780.0" y1="558" x2="780.0" y2="563" stroke="#222" stroke-width="1"/>
<text x="780.0" y="582" text-anchor="middle" font-family="Arial" font-size="12">200</text>
<polyline fill="none" stroke="#1f77b4" stroke-width="2.3" points="95.0,537.5 112.1,530.7 129.2,535.4 146.4,536.5 163.5,523.9 180.6,529.1 197.8,521.8 214.9,524.9 232.0,513.4 249.1,510.2 266.2,503.9"/>
<circle cx="95.0" cy="537.5" r="3" fill="#1f77b4"/>
<circle cx="112.1" cy="530.7" r="3" fill="#1f77b4"/>
<circle cx="129.2" cy="535.4" r="3" fill="#1f77b4"/>
<circle cx="146.4" cy="536.5" r="3" fill="#1f77b4"/>
<circle cx="163.5" cy="523.9" r="3" fill="#1f77b4"/>
<circle cx="180.6" cy="529.1" r="3" fill="#1f77b4"/>
<circle cx="197.8" cy="521.8" r="3" fill="#1f77b4"/>
<circle cx="214.9" cy="524.9" r="3" fill="#1f77b4"/>
<circle cx="232.0" cy="513.4" r="3" fill="#1f77b4"/>
<circle cx="249.1" cy="510.2" r="3" fill="#1f77b4"/>
<circle cx="266.2" cy="503.9" r="3" fill="#1f77b4"/>
<line x1="808" y1="96" x2="830" y2="96" stroke="#1f77b4" stroke-width="2.5"/>
<text x="838" y="100" font-family="Arial" font-size="13">lr=3e-6 (stopped)</text>
<polyline fill="none" stroke="#d62728" stroke-width="2.3" points="95.0,537.5 112.1,530.2 129.2,509.7 146.4,511.8 163.5,495.5 180.6,490.3 197.8,489.7 214.9,478.2 232.0,474.0 249.1,468.7 266.2,461.4 283.4,447.2 300.5,439.8 317.6,432.0 334.8,429.3 351.9,409.4 369.0,415.7 386.1,400.4 403.2,398.3 420.4,392.6 437.5,386.3 454.6,379.4 471.8,375.2 488.9,382.1 506.0,382.6 523.1,347.4 540.2,361.1 557.4,352.1 574.5,359.5 591.6,347.4 608.8,333.8 625.9,335.3 643.0,340.6 660.1,344.8 677.2,333.2 694.4,332.2 711.5,332.2 728.6,332.7 745.8,314.3 762.9,317.5 780.0,304.9"/>
<circle cx="95.0" cy="537.5" r="3" fill="#d62728"/>
<circle cx="112.1" cy="530.2" r="3" fill="#d62728"/>
<circle cx="129.2" cy="509.7" r="3" fill="#d62728"/>
<circle cx="146.4" cy="511.8" r="3" fill="#d62728"/>
<circle cx="163.5" cy="495.5" r="3" fill="#d62728"/>
<circle cx="180.6" cy="490.3" r="3" fill="#d62728"/>
<circle cx="197.8" cy="489.7" r="3" fill="#d62728"/>
<circle cx="214.9" cy="478.2" r="3" fill="#d62728"/>
<circle cx="232.0" cy="474.0" r="3" fill="#d62728"/>
<circle cx="249.1" cy="468.7" r="3" fill="#d62728"/>
<circle cx="266.2" cy="461.4" r="3" fill="#d62728"/>
<circle cx="283.4" cy="447.2" r="3" fill="#d62728"/>
<circle cx="300.5" cy="439.8" r="3" fill="#d62728"/>
<circle cx="317.6" cy="432.0" r="3" fill="#d62728"/>
<circle cx="334.8" cy="429.3" r="3" fill="#d62728"/>
<circle cx="351.9" cy="409.4" r="3" fill="#d62728"/>
<circle cx="369.0" cy="415.7" r="3" fill="#d62728"/>
<circle cx="386.1" cy="400.4" r="3" fill="#d62728"/>
<circle cx="403.2" cy="398.3" r="3" fill="#d62728"/>
<circle cx="420.4" cy="392.6" r="3" fill="#d62728"/>
<circle cx="437.5" cy="386.3" r="3" fill="#d62728"/>
<circle cx="454.6" cy="379.4" r="3" fill="#d62728"/>
<circle cx="471.8" cy="375.2" r="3" fill="#d62728"/>
<circle cx="488.9" cy="382.1" r="3" fill="#d62728"/>
<circle cx="506.0" cy="382.6" r="3" fill="#d62728"/>
<circle cx="523.1" cy="347.4" r="3" fill="#d62728"/>
<circle cx="540.2" cy="361.1" r="3" fill="#d62728"/>
<circle cx="557.4" cy="352.1" r="3" fill="#d62728"/>
<circle cx="574.5" cy="359.5" r="3" fill="#d62728"/>
<circle cx="591.6" cy="347.4" r="3" fill="#d62728"/>
<circle cx="608.8" cy="333.8" r="3" fill="#d62728"/>
<circle cx="625.9" cy="335.3" r="3" fill="#d62728"/>
<circle cx="643.0" cy="340.6" r="3" fill="#d62728"/>
<circle cx="660.1" cy="344.8" r="3" fill="#d62728"/>
<circle cx="677.2" cy="333.2" r="3" fill="#d62728"/>
<circle cx="694.4" cy="332.2" r="3" fill="#d62728"/>
<circle cx="711.5" cy="332.2" r="3" fill="#d62728"/>
<circle cx="728.6" cy="332.7" r="3" fill="#d62728"/>
<circle cx="745.8" cy="314.3" r="3" fill="#d62728"/>
<circle cx="762.9" cy="317.5" r="3" fill="#d62728"/>
<circle cx="780.0" cy="304.9" r="3" fill="#d62728"/>
<line x1="808" y1="121" x2="830" y2="121" stroke="#d62728" stroke-width="2.5"/>
<text x="838" y="125" font-family="Arial" font-size="13">lr=5e-6</text>
<polyline fill="none" stroke="#2ca02c" stroke-width="2.3" points="95.0,537.5 112.1,472.9 129.2,424.6 146.4,396.2 163.5,377.9 180.6,349.5 197.8,345.8 214.9,340.1 232.0,314.8 249.1,324.3 266.2,303.3 283.4,310.6 300.5,293.8 317.6,291.7 334.8,293.3 351.9,284.4 369.0,270.2 386.1,265.0 403.2,264.4 420.4,250.2 437.5,246.0 454.6,240.3 471.8,233.4 488.9,229.8 506.0,237.1 523.1,235.5 540.2,229.2 557.4,217.7 574.5,218.2 591.6,219.3 608.8,207.2 625.9,221.4 643.0,222.4 660.1,221.4 677.2,216.1 694.4,195.1 711.5,198.8 728.6,201.4 745.8,197.7 762.9,193.5 780.0,196.2"/>
<circle cx="95.0" cy="537.5" r="3" fill="#2ca02c"/>
<circle cx="112.1" cy="472.9" r="3" fill="#2ca02c"/>
<circle cx="129.2" cy="424.6" r="3" fill="#2ca02c"/>
<circle cx="146.4" cy="396.2" r="3" fill="#2ca02c"/>
<circle cx="163.5" cy="377.9" r="3" fill="#2ca02c"/>
<circle cx="180.6" cy="349.5" r="3" fill="#2ca02c"/>
<circle cx="197.8" cy="345.8" r="3" fill="#2ca02c"/>
<circle cx="214.9" cy="340.1" r="3" fill="#2ca02c"/>
<circle cx="232.0" cy="314.8" r="3" fill="#2ca02c"/>
<circle cx="249.1" cy="324.3" r="3" fill="#2ca02c"/>
<circle cx="266.2" cy="303.3" r="3" fill="#2ca02c"/>
<circle cx="283.4" cy="310.6" r="3" fill="#2ca02c"/>
<circle cx="300.5" cy="293.8" r="3" fill="#2ca02c"/>
<circle cx="317.6" cy="291.7" r="3" fill="#2ca02c"/>
<circle cx="334.8" cy="293.3" r="3" fill="#2ca02c"/>
<circle cx="351.9" cy="284.4" r="3" fill="#2ca02c"/>
<circle cx="369.0" cy="270.2" r="3" fill="#2ca02c"/>
<circle cx="386.1" cy="265.0" r="3" fill="#2ca02c"/>
<circle cx="403.2" cy="264.4" r="3" fill="#2ca02c"/>
<circle cx="420.4" cy="250.2" r="3" fill="#2ca02c"/>
<circle cx="437.5" cy="246.0" r="3" fill="#2ca02c"/>
<circle cx="454.6" cy="240.3" r="3" fill="#2ca02c"/>
<circle cx="471.8" cy="233.4" r="3" fill="#2ca02c"/>
<circle cx="488.9" cy="229.8" r="3" fill="#2ca02c"/>
<circle cx="506.0" cy="237.1" r="3" fill="#2ca02c"/>
<circle cx="523.1" cy="235.5" r="3" fill="#2ca02c"/>
<circle cx="540.2" cy="229.2" r="3" fill="#2ca02c"/>
<circle cx="557.4" cy="217.7" r="3" fill="#2ca02c"/>
<circle cx="574.5" cy="218.2" r="3" fill="#2ca02c"/>
<circle cx="591.6" cy="219.3" r="3" fill="#2ca02c"/>
<circle cx="608.8" cy="207.2" r="3" fill="#2ca02c"/>
<circle cx="625.9" cy="221.4" r="3" fill="#2ca02c"/>
<circle cx="643.0" cy="222.4" r="3" fill="#2ca02c"/>
<circle cx="660.1" cy="221.4" r="3" fill="#2ca02c"/>
<circle cx="677.2" cy="216.1" r="3" fill="#2ca02c"/>
<circle cx="694.4" cy="195.1" r="3" fill="#2ca02c"/>
<circle cx="711.5" cy="198.8" r="3" fill="#2ca02c"/>
<circle cx="728.6" cy="201.4" r="3" fill="#2ca02c"/>
<circle cx="745.8" cy="197.7" r="3" fill="#2ca02c"/>
<circle cx="762.9" cy="193.5" r="3" fill="#2ca02c"/>
<circle cx="780.0" cy="196.2" r="3" fill="#2ca02c"/>
<line x1="808" y1="146" x2="830" y2="146" stroke="#2ca02c" stroke-width="2.5"/>
<text x="838" y="150" font-family="Arial" font-size="13">lr=1e-5</text>
<polyline fill="none" stroke="#9467bd" stroke-width="2.3" points="95.0,537.5 112.1,386.3 129.2,335.3 146.4,306.4 163.5,293.8 180.6,272.8 197.8,261.3 214.9,253.4 232.0,236.1 249.1,221.9 266.2,228.7 283.4,230.8 300.5,216.6 317.6,211.9 334.8,187.2 351.9,172.0 369.0,159.9 386.1,163.6 403.2,143.1 420.4,141.5 437.5,142.1 454.6,127.9 471.8,132.1 488.9,131.0 506.0,124.2 523.1,127.9 540.2,122.6 557.4,123.7 574.5,119.5 591.6,110.6 608.8,121.1 625.9,126.3 643.0,121.1 660.1,111.6 677.2,108.5 694.4,103.7 711.5,104.8 728.6,102.1 745.8,101.6 762.9,100.6 780.0,96.4"/>
<circle cx="95.0" cy="537.5" r="3" fill="#9467bd"/>
<circle cx="112.1" cy="386.3" r="3" fill="#9467bd"/>
<circle cx="129.2" cy="335.3" r="3" fill="#9467bd"/>
<circle cx="146.4" cy="306.4" r="3" fill="#9467bd"/>
<circle cx="163.5" cy="293.8" r="3" fill="#9467bd"/>
<circle cx="180.6" cy="272.8" r="3" fill="#9467bd"/>
<circle cx="197.8" cy="261.3" r="3" fill="#9467bd"/>
<circle cx="214.9" cy="253.4" r="3" fill="#9467bd"/>
<circle cx="232.0" cy="236.1" r="3" fill="#9467bd"/>
<circle cx="249.1" cy="221.9" r="3" fill="#9467bd"/>
<circle cx="266.2" cy="228.7" r="3" fill="#9467bd"/>
<circle cx="283.4" cy="230.8" r="3" fill="#9467bd"/>
<circle cx="300.5" cy="216.6" r="3" fill="#9467bd"/>
<circle cx="317.6" cy="211.9" r="3" fill="#9467bd"/>
<circle cx="334.8" cy="187.2" r="3" fill="#9467bd"/>
<circle cx="351.9" cy="172.0" r="3" fill="#9467bd"/>
<circle cx="369.0" cy="159.9" r="3" fill="#9467bd"/>
<circle cx="386.1" cy="163.6" r="3" fill="#9467bd"/>
<circle cx="403.2" cy="143.1" r="3" fill="#9467bd"/>
<circle cx="420.4" cy="141.5" r="3" fill="#9467bd"/>
<circle cx="437.5" cy="142.1" r="3" fill="#9467bd"/>
<circle cx="454.6" cy="127.9" r="3" fill="#9467bd"/>
<circle cx="471.8" cy="132.1" r="3" fill="#9467bd"/>
<circle cx="488.9" cy="131.0" r="3" fill="#9467bd"/>
<circle cx="506.0" cy="124.2" r="3" fill="#9467bd"/>
<circle cx="523.1" cy="127.9" r="3" fill="#9467bd"/>
<circle cx="540.2" cy="122.6" r="3" fill="#9467bd"/>
<circle cx="557.4" cy="123.7" r="3" fill="#9467bd"/>
<circle cx="574.5" cy="119.5" r="3" fill="#9467bd"/>
<circle cx="591.6" cy="110.6" r="3" fill="#9467bd"/>
<circle cx="608.8" cy="121.1" r="3" fill="#9467bd"/>
<circle cx="625.9" cy="126.3" r="3" fill="#9467bd"/>
<circle cx="643.0" cy="121.1" r="3" fill="#9467bd"/>
<circle cx="660.1" cy="111.6" r="3" fill="#9467bd"/>
<circle cx="677.2" cy="108.5" r="3" fill="#9467bd"/>
<circle cx="694.4" cy="103.7" r="3" fill="#9467bd"/>
<circle cx="711.5" cy="104.8" r="3" fill="#9467bd"/>
<circle cx="728.6" cy="102.1" r="3" fill="#9467bd"/>
<circle cx="745.8" cy="101.6" r="3" fill="#9467bd"/>
<circle cx="762.9" cy="100.6" r="3" fill="#9467bd"/>
<circle cx="780.0" cy="96.4" r="3" fill="#9467bd"/>
<line x1="808" y1="171" x2="830" y2="171" stroke="#9467bd" stroke-width="2.5"/>
<text x="838" y="175" font-family="Arial" font-size="13">lr=2e-5</text>
<polyline fill="none" stroke="#ff7f0e" stroke-width="2.3" points="95.0,537.5 112.1,392.6 129.2,273.4 146.4,222.9 163.5,175.1 180.6,158.3 197.8,149.4 214.9,142.1 232.0,133.7 249.1,135.8 266.2,125.8 283.4,127.4 300.5,114.8 317.6,113.2 334.8,105.8 351.9,104.8 369.0,103.2 386.1,109.0 403.2,115.3 420.4,118.4 437.5,107.9 454.6,113.2 471.8,118.4 488.9,110.6 506.0,112.7 523.1,116.3 540.2,111.6 557.4,105.3 574.5,106.4 591.6,104.8 608.8,108.5 625.9,107.9 643.0,102.1 660.1,101.6 677.2,101.1 694.4,103.2 711.5,102.7 728.6,106.9 745.8,106.9 762.9,101.1 780.0,93.2"/>
<circle cx="95.0" cy="537.5" r="3" fill="#ff7f0e"/>
<circle cx="112.1" cy="392.6" r="3" fill="#ff7f0e"/>
<circle cx="129.2" cy="273.4" r="3" fill="#ff7f0e"/>
<circle cx="146.4" cy="222.9" r="3" fill="#ff7f0e"/>
<circle cx="163.5" cy="175.1" r="3" fill="#ff7f0e"/>
<circle cx="180.6" cy="158.3" r="3" fill="#ff7f0e"/>
<circle cx="197.8" cy="149.4" r="3" fill="#ff7f0e"/>
<circle cx="214.9" cy="142.1" r="3" fill="#ff7f0e"/>
<circle cx="232.0" cy="133.7" r="3" fill="#ff7f0e"/>
<circle cx="249.1" cy="135.8" r="3" fill="#ff7f0e"/>
<circle cx="266.2" cy="125.8" r="3" fill="#ff7f0e"/>
<circle cx="283.4" cy="127.4" r="3" fill="#ff7f0e"/>
<circle cx="300.5" cy="114.8" r="3" fill="#ff7f0e"/>
<circle cx="317.6" cy="113.2" r="3" fill="#ff7f0e"/>
<circle cx="334.8" cy="105.8" r="3" fill="#ff7f0e"/>
<circle cx="351.9" cy="104.8" r="3" fill="#ff7f0e"/>
<circle cx="369.0" cy="103.2" r="3" fill="#ff7f0e"/>
<circle cx="386.1" cy="109.0" r="3" fill="#ff7f0e"/>
<circle cx="403.2" cy="115.3" r="3" fill="#ff7f0e"/>
<circle cx="420.4" cy="118.4" r="3" fill="#ff7f0e"/>
<circle cx="437.5" cy="107.9" r="3" fill="#ff7f0e"/>
<circle cx="454.6" cy="113.2" r="3" fill="#ff7f0e"/>
<circle cx="471.8" cy="118.4" r="3" fill="#ff7f0e"/>
<circle cx="488.9" cy="110.6" r="3" fill="#ff7f0e"/>
<circle cx="506.0" cy="112.7" r="3" fill="#ff7f0e"/>
<circle cx="523.1" cy="116.3" r="3" fill="#ff7f0e"/>
<circle cx="540.2" cy="111.6" r="3" fill="#ff7f0e"/>
<circle cx="557.4" cy="105.3" r="3" fill="#ff7f0e"/>
<circle cx="574.5" cy="106.4" r="3" fill="#ff7f0e"/>
<circle cx="591.6" cy="104.8" r="3" fill="#ff7f0e"/>
<circle cx="608.8" cy="108.5" r="3" fill="#ff7f0e"/>
<circle cx="625.9" cy="107.9" r="3" fill="#ff7f0e"/>
<circle cx="643.0" cy="102.1" r="3" fill="#ff7f0e"/>
<circle cx="660.1" cy="101.6" r="3" fill="#ff7f0e"/>
<circle cx="677.2" cy="101.1" r="3" fill="#ff7f0e"/>
<circle cx="694.4" cy="103.2" r="3" fill="#ff7f0e"/>
<circle cx="711.5" cy="102.7" r="3" fill="#ff7f0e"/>
<circle cx="728.6" cy="106.9" r="3" fill="#ff7f0e"/>
<circle cx="745.8" cy="106.9" r="3" fill="#ff7f0e"/>
<circle cx="762.9" cy="101.1" r="3" fill="#ff7f0e"/>
<circle cx="780.0" cy="93.2" r="3" fill="#ff7f0e"/>
<line x1="808" y1="196" x2="830" y2="196" stroke="#ff7f0e" stroke-width="2.5"/>
<text x="838" y="200" font-family="Arial" font-size="13">lr=3e-5</text>
<polyline fill="none" stroke="#17becf" stroke-width="2.3" points="95.0,537.5 112.1,397.3 129.2,324.8 146.4,255.0 163.5,186.2 180.6,167.3 197.8,156.2 214.9,144.7 232.0,135.2 249.1,116.3 266.2,113.2 283.4,119.0 300.5,104.8 317.6,101.6 334.8,107.9 351.9,102.7 369.0,90.1 386.1,93.7 403.2,95.8 420.4,87.4 437.5,95.3 454.6,100.6 471.8,104.3 488.9,105.8 506.0,105.8 523.1,94.3 540.2,95.8 557.4,100.6 574.5,89.5 591.6,101.1 608.8,84.3 625.9,89.0 643.0,90.1 660.1,87.4 677.2,90.1 694.4,90.1 711.5,92.7 728.6,89.0 745.8,83.8 762.9,90.1 780.0,83.8"/>
<circle cx="95.0" cy="537.5" r="3" fill="#17becf"/>
<circle cx="112.1" cy="397.3" r="3" fill="#17becf"/>
<circle cx="129.2" cy="324.8" r="3" fill="#17becf"/>
<circle cx="146.4" cy="255.0" r="3" fill="#17becf"/>
<circle cx="163.5" cy="186.2" r="3" fill="#17becf"/>
<circle cx="180.6" cy="167.3" r="3" fill="#17becf"/>
<circle cx="197.8" cy="156.2" r="3" fill="#17becf"/>
<circle cx="214.9" cy="144.7" r="3" fill="#17becf"/>
<circle cx="232.0" cy="135.2" r="3" fill="#17becf"/>
<circle cx="249.1" cy="116.3" r="3" fill="#17becf"/>
<circle cx="266.2" cy="113.2" r="3" fill="#17becf"/>
<circle cx="283.4" cy="119.0" r="3" fill="#17becf"/>
<circle cx="300.5" cy="104.8" r="3" fill="#17becf"/>
<circle cx="317.6" cy="101.6" r="3" fill="#17becf"/>
<circle cx="334.8" cy="107.9" r="3" fill="#17becf"/>
<circle cx="351.9" cy="102.7" r="3" fill="#17becf"/>
<circle cx="369.0" cy="90.1" r="3" fill="#17becf"/>
<circle cx="386.1" cy="93.7" r="3" fill="#17becf"/>
<circle cx="403.2" cy="95.8" r="3" fill="#17becf"/>
<circle cx="420.4" cy="87.4" r="3" fill="#17becf"/>
<circle cx="437.5" cy="95.3" r="3" fill="#17becf"/>
<circle cx="454.6" cy="100.6" r="3" fill="#17becf"/>
<circle cx="471.8" cy="104.3" r="3" fill="#17becf"/>
<circle cx="488.9" cy="105.8" r="3" fill="#17becf"/>
<circle cx="506.0" cy="105.8" r="3" fill="#17becf"/>
<circle cx="523.1" cy="94.3" r="3" fill="#17becf"/>
<circle cx="540.2" cy="95.8" r="3" fill="#17becf"/>
<circle cx="557.4" cy="100.6" r="3" fill="#17becf"/>
<circle cx="574.5" cy="89.5" r="3" fill="#17becf"/>
<circle cx="591.6" cy="101.1" r="3" fill="#17becf"/>
<circle cx="608.8" cy="84.3" r="3" fill="#17becf"/>
<circle cx="625.9" cy="89.0" r="3" fill="#17becf"/>
<circle cx="643.0" cy="90.1" r="3" fill="#17becf"/>
<circle cx="660.1" cy="87.4" r="3" fill="#17becf"/>
<circle cx="677.2" cy="90.1" r="3" fill="#17becf"/>
<circle cx="694.4" cy="90.1" r="3" fill="#17becf"/>
<circle cx="711.5" cy="92.7" r="3" fill="#17becf"/>
<circle cx="728.6" cy="89.0" r="3" fill="#17becf"/>
<circle cx="745.8" cy="83.8" r="3" fill="#17becf"/>
<circle cx="762.9" cy="90.1" r="3" fill="#17becf"/>
<circle cx="780.0" cy="83.8" r="3" fill="#17becf"/>
<line x1="808" y1="221" x2="830" y2="221" stroke="#17becf" stroke-width="2.5"/>
<text x="838" y="225" font-family="Arial" font-size="13">lr=4e-5</text>
<polyline fill="none" stroke="#8c564b" stroke-width="2.3" points="95.0,537.5 112.1,237.1 129.2,145.2 146.4,138.9 163.5,133.7 180.6,130.5 197.8,120.0 214.9,116.3 232.0,110.0 249.1,113.7 266.2,105.3 283.4,99.0 300.5,100.0 317.6,103.7 334.8,90.6 351.9,95.8 369.0,96.9 386.1,92.2 403.2,99.5 420.4,91.1 437.5,91.1 454.6,94.8 471.8,91.6 488.9,90.1 506.0,89.5 523.1,89.5 540.2,93.7 557.4,96.4 574.5,92.2 591.6,91.6 608.8,97.4 625.9,101.6 643.0,98.5 660.1,98.5 677.2,105.3 694.4,107.9 711.5,112.1 728.6,114.2 745.8,109.5 762.9,100.6 780.0,104.8"/>
<circle cx="95.0" cy="537.5" r="3" fill="#8c564b"/>
<circle cx="112.1" cy="237.1" r="3" fill="#8c564b"/>
<circle cx="129.2" cy="145.2" r="3" fill="#8c564b"/>
<circle cx="146.4" cy="138.9" r="3" fill="#8c564b"/>
<circle cx="163.5" cy="133.7" r="3" fill="#8c564b"/>
<circle cx="180.6" cy="130.5" r="3" fill="#8c564b"/>
<circle cx="197.8" cy="120.0" r="3" fill="#8c564b"/>
<circle cx="214.9" cy="116.3" r="3" fill="#8c564b"/>
<circle cx="232.0" cy="110.0" r="3" fill="#8c564b"/>
<circle cx="249.1" cy="113.7" r="3" fill="#8c564b"/>
<circle cx="266.2" cy="105.3" r="3" fill="#8c564b"/>
<circle cx="283.4" cy="99.0" r="3" fill="#8c564b"/>
<circle cx="300.5" cy="100.0" r="3" fill="#8c564b"/>
<circle cx="317.6" cy="103.7" r="3" fill="#8c564b"/>
<circle cx="334.8" cy="90.6" r="3" fill="#8c564b"/>
<circle cx="351.9" cy="95.8" r="3" fill="#8c564b"/>
<circle cx="369.0" cy="96.9" r="3" fill="#8c564b"/>
<circle cx="386.1" cy="92.2" r="3" fill="#8c564b"/>
<circle cx="403.2" cy="99.5" r="3" fill="#8c564b"/>
<circle cx="420.4" cy="91.1" r="3" fill="#8c564b"/>
<circle cx="437.5" cy="91.1" r="3" fill="#8c564b"/>
<circle cx="454.6" cy="94.8" r="3" fill="#8c564b"/>
<circle cx="471.8" cy="91.6" r="3" fill="#8c564b"/>
<circle cx="488.9" cy="90.1" r="3" fill="#8c564b"/>
<circle cx="506.0" cy="89.5" r="3" fill="#8c564b"/>
<circle cx="523.1" cy="89.5" r="3" fill="#8c564b"/>
<circle cx="540.2" cy="93.7" r="3" fill="#8c564b"/>
<circle cx="557.4" cy="96.4" r="3" fill="#8c564b"/>
<circle cx="574.5" cy="92.2" r="3" fill="#8c564b"/>
<circle cx="591.6" cy="91.6" r="3" fill="#8c564b"/>
<circle cx="608.8" cy="97.4" r="3" fill="#8c564b"/>
<circle cx="625.9" cy="101.6" r="3" fill="#8c564b"/>
<circle cx="643.0" cy="98.5" r="3" fill="#8c564b"/>
<circle cx="660.1" cy="98.5" r="3" fill="#8c564b"/>
<circle cx="677.2" cy="105.3" r="3" fill="#8c564b"/>
<circle cx="694.4" cy="107.9" r="3" fill="#8c564b"/>
<circle cx="711.5" cy="112.1" r="3" fill="#8c564b"/>
<circle cx="728.6" cy="114.2" r="3" fill="#8c564b"/>
<circle cx="745.8" cy="109.5" r="3" fill="#8c564b"/>
<circle cx="762.9" cy="100.6" r="3" fill="#8c564b"/>
<circle cx="780.0" cy="104.8" r="3" fill="#8c564b"/>
<line x1="808" y1="246" x2="830" y2="246" stroke="#8c564b" stroke-width="2.5"/>
<text x="838" y="250" font-family="Arial" font-size="13">lr=5e-5</text>
<polyline fill="none" stroke="#e377c2" stroke-width="2.3" points="95.0,537.5 112.1,475.0 129.2,472.4 146.4,455.1 163.5,461.9 180.6,481.8 197.8,452.4 214.9,449.8 232.0,446.7 249.1,446.1 266.2,443.5"/>
<circle cx="95.0" cy="537.5" r="3" fill="#e377c2"/>
<circle cx="112.1" cy="475.0" r="3" fill="#e377c2"/>
<circle cx="129.2" cy="472.4" r="3" fill="#e377c2"/>
<circle cx="146.4" cy="455.1" r="3" fill="#e377c2"/>
<circle cx="163.5" cy="461.9" r="3" fill="#e377c2"/>
<circle cx="180.6" cy="481.8" r="3" fill="#e377c2"/>
<circle cx="197.8" cy="452.4" r="3" fill="#e377c2"/>
<circle cx="214.9" cy="449.8" r="3" fill="#e377c2"/>
<circle cx="232.0" cy="446.7" r="3" fill="#e377c2"/>
<circle cx="249.1" cy="446.1" r="3" fill="#e377c2"/>
<circle cx="266.2" cy="443.5" r="3" fill="#e377c2"/>
<line x1="808" y1="271" x2="830" y2="271" stroke="#e377c2" stroke-width="2.5"/>
<text x="838" y="275" font-family="Arial" font-size="13">lr=7e-5 (stopped)</text>
<polyline fill="none" stroke="#7f7f7f" stroke-width="2.3" points="95.0,537.5 112.1,558.0 129.2,558.0 146.4,558.0 163.5,558.0 180.6,558.0 197.8,558.0 214.9,558.0 232.0,558.0 249.1,558.0 266.2,558.0"/>
<circle cx="95.0" cy="537.5" r="3" fill="#7f7f7f"/>
<circle cx="112.1" cy="558.0" r="3" fill="#7f7f7f"/>
<circle cx="129.2" cy="558.0" r="3" fill="#7f7f7f"/>
<circle cx="146.4" cy="558.0" r="3" fill="#7f7f7f"/>
<circle cx="163.5" cy="558.0" r="3" fill="#7f7f7f"/>
<circle cx="180.6" cy="558.0" r="3" fill="#7f7f7f"/>
<circle cx="197.8" cy="558.0" r="3" fill="#7f7f7f"/>
<circle cx="214.9" cy="558.0" r="3" fill="#7f7f7f"/>
<circle cx="232.0" cy="558.0" r="3" fill="#7f7f7f"/>
<circle cx="249.1" cy="558.0" r="3" fill="#7f7f7f"/>
<circle cx="266.2" cy="558.0" r="3" fill="#7f7f7f"/>
<line x1="808" y1="296" x2="830" y2="296" stroke="#7f7f7f" stroke-width="2.5"/>
<text x="838" y="300" font-family="Arial" font-size="13">lr=2e-4 (stopped)</text>
<text x="437.5" y="618" text-anchor="middle" font-family="Arial" font-size="15">GRPO step</text>
<text x="24" y="316.0" text-anchor="middle" font-family="Arial" font-size="15" transform="rotate(-90 24 316.0)">Validation answer reward</text>
</svg>
