<svg xmlns="http://www.w3.org/2000/svg" width="1040" height="620" viewBox="0 0 1040 620">
<rect width="100%" height="100%" fill="white"/>
<text x="520.0" y="34" text-anchor="middle" font-family="Arial" font-size="22" font-weight="700">Expert Iteration Response Entropy</text>
<line x1="90" y1="540" x2="760" y2="540" stroke="#222" stroke-width="1.5"/>
<line x1="90" y1="70" x2="90" y2="540" stroke="#222" stroke-width="1.5"/>
<line x1="85" y1="540.0" x2="760" y2="540.0" stroke="#ddd" stroke-width="1"/>
<text x="78" y="544.0" text-anchor="end" font-family="Arial" font-size="12">0.00</text>
<line x1="85" y1="446.0" x2="760" y2="446.0" stroke="#ddd" stroke-width="1"/>
<text x="78" y="450.0" text-anchor="end" font-family="Arial" font-size="12">0.28</text>
<line x1="85" y1="352.0" x2="760" y2="352.0" stroke="#ddd" stroke-width="1"/>
<text x="78" y="356.0" text-anchor="end" font-family="Arial" font-size="12">0.56</text>
<line x1="85" y1="258.0" x2="760" y2="258.0" stroke="#ddd" stroke-width="1"/>
<text x="78" y="262.0" text-anchor="end" font-family="Arial" font-size="12">0.84</text>
<line x1="85" y1="164.0" x2="760" y2="164.0" stroke="#ddd" stroke-width="1"/>
<text x="78" y="168.0" text-anchor="end" font-family="Arial" font-size="12">1.12</text>
<line x1="85" y1="70.0" x2="760" y2="70.0" stroke="#ddd" stroke-width="1"/>
<text x="78" y="74.0" text-anchor="end" font-family="Arial" font-size="12">1.40</text>
<line x1="90.0" y1="540" x2="90.0" y2="545" stroke="#222" stroke-width="1"/>
<text x="90.0" y="564" text-anchor="middle" font-family="Arial" font-size="12">1</text>
<line x1="224.0" y1="540" x2="224.0" y2="545" stroke="#222" stroke-width="1"/>
<text x="224.0" y="564" text-anchor="middle" font-family="Arial" font-size="12">2</text>
<line x1="358.0" y1="540" x2="358.0" y2="545" stroke="#222" stroke-width="1"/>
<text x="358.0" y="564" text-anchor="middle" font-family="Arial" font-size="12">3</text>
<line x1="492.0" y1="540" x2="492.0" y2="545" stroke="#222" stroke-width="1"/>
<text x="492.0" y="564" text-anchor="middle" font-family="Arial" font-size="12">3</text>
<line x1="626.0" y1="540" x2="626.0" y2="545" stroke="#222" stroke-width="1"/>
<text x="626.0" y="564" text-anchor="middle" font-family="Arial" font-size="12">4</text>
<line x1="760.0" y1="540" x2="760.0" y2="545" stroke="#222" stroke-width="1"/>
<text x="760.0" y="564" text-anchor="middle" font-family="Arial" font-size="12">5</text>
<polyline points="90.0,233.1 257.5,147.5 425.0,157.8 592.5,160.5 760.0,119.9" fill="none" stroke="#1f77b4" stroke-width="2.5" stroke-linejoin="round" stroke-linecap="round"/>
<circle cx="90.0" cy="233.1" r="3" fill="#1f77b4"/>
<circle cx="257.5" cy="147.5" r="3" fill="#1f77b4"/>
<circle cx="425.0" cy="157.8" r="3" fill="#1f77b4"/>
<circle cx="592.5" cy="160.5" r="3" fill="#1f77b4"/>
<circle cx="760.0" cy="119.9" r="3" fill="#1f77b4"/>
<line x1="790" y1="70" x2="814" y2="70" stroke="#1f77b4" stroke-width="3"/>
<text x="824" y="74" font-family="Arial" font-size="13">D_b=512, G=2, epochs=1</text>
<polyline points="90.0,233.1 257.5,214.3 425.0,314.3 592.5,319.6 760.0,313.6" fill="none" stroke="#d62728" stroke-width="2.5" stroke-linejoin="round" stroke-linecap="round"/>
<circle cx="90.0" cy="233.1" r="3" fill="#d62728"/>
<circle cx="257.5" cy="214.3" r="3" fill="#d62728"/>
<circle cx="425.0" cy="314.3" r="3" fill="#d62728"/>
<circle cx="592.5" cy="319.6" r="3" fill="#d62728"/>
<circle cx="760.0" cy="313.6" r="3" fill="#d62728"/>
<line x1="790" y1="95" x2="814" y2="95" stroke="#d62728" stroke-width="3"/>
<text x="824" y="99" font-family="Arial" font-size="13">D_b=512, G=2, epochs=2</text>
<polyline points="90.0,214.5 257.5,215.4 425.0,146.2 592.5,164.3 760.0,80.5" fill="none" stroke="#2ca02c" stroke-width="2.5" stroke-linejoin="round" stroke-linecap="round"/>
<circle cx="90.0" cy="214.5" r="3" fill="#2ca02c"/>
<circle cx="257.5" cy="215.4" r="3" fill="#2ca02c"/>
<circle cx="425.0" cy="146.2" r="3" fill="#2ca02c"/>
<circle cx="592.5" cy="164.3" r="3" fill="#2ca02c"/>
<circle cx="760.0" cy="80.5" r="3" fill="#2ca02c"/>
<line x1="790" y1="120" x2="814" y2="120" stroke="#2ca02c" stroke-width="3"/>
<text x="824" y="124" font-family="Arial" font-size="13">D_b=512, G=4, epochs=1</text>
<polyline points="90.0,214.5 257.5,262.5 425.0,237.6 592.5,275.3 760.0,272.6" fill="none" stroke="#9467bd" stroke-width="2.5" stroke-linejoin="round" stroke-linecap="round"/>
<circle cx="90.0" cy="214.5" r="3" fill="#9467bd"/>
<circle cx="257.5" cy="262.5" r="3" fill="#9467bd"/>
<circle cx="425.0" cy="237.6" r="3" fill="#9467bd"/>
<circle cx="592.5" cy="275.3" r="3" fill="#9467bd"/>
<circle cx="760.0" cy="272.6" r="3" fill="#9467bd"/>
<line x1="790" y1="145" x2="814" y2="145" stroke="#9467bd" stroke-width="3"/>
<text x="824" y="149" font-family="Arial" font-size="13">D_b=512, G=4, epochs=2</text>
<polyline points="90.0,208.7 257.5,202.4 425.0,265.8 592.5,302.6 760.0,311.9" fill="none" stroke="#ff7f0e" stroke-width="2.5" stroke-linejoin="round" stroke-linecap="round"/>
<circle cx="90.0" cy="208.7" r="3" fill="#ff7f0e"/>
<circle cx="257.5" cy="202.4" r="3" fill="#ff7f0e"/>
<circle cx="425.0" cy="265.8" r="3" fill="#ff7f0e"/>
<circle cx="592.5" cy="302.6" r="3" fill="#ff7f0e"/>
<circle cx="760.0" cy="311.9" r="3" fill="#ff7f0e"/>
<line x1="790" y1="170" x2="814" y2="170" stroke="#ff7f0e" stroke-width="3"/>
<text x="824" y="174" font-family="Arial" font-size="13">D_b=1024, G=4, epochs=2</text>
<polyline points="90.0,197.5 257.5,210.9 425.0,262.4 592.5,231.8 760.0,213.3" fill="none" stroke="#17becf" stroke-width="2.5" stroke-linejoin="round" stroke-linecap="round"/>
<circle cx="90.0" cy="197.5" r="3" fill="#17becf"/>
<circle cx="257.5" cy="210.9" r="3" fill="#17becf"/>
<circle cx="425.0" cy="262.4" r="3" fill="#17becf"/>
<circle cx="592.5" cy="231.8" r="3" fill="#17becf"/>
<circle cx="760.0" cy="213.3" r="3" fill="#17becf"/>
<line x1="790" y1="195" x2="814" y2="195" stroke="#17becf" stroke-width="3"/>
<text x="824" y="199" font-family="Arial" font-size="13">D_b=1024, G=8, epochs=2</text>
<polyline points="90.0,211.6 257.5,255.4 425.0,312.4 592.5,320.5 760.0,314.4" fill="none" stroke="#8c564b" stroke-width="2.5" stroke-linejoin="round" stroke-linecap="round"/>
<circle cx="90.0" cy="211.6" r="3" fill="#8c564b"/>
<circle cx="257.5" cy="255.4" r="3" fill="#8c564b"/>
<circle cx="425.0" cy="312.4" r="3" fill="#8c564b"/>
<circle cx="592.5" cy="320.5" r="3" fill="#8c564b"/>
<circle cx="760.0" cy="314.4" r="3" fill="#8c564b"/>
<line x1="790" y1="220" x2="814" y2="220" stroke="#8c564b" stroke-width="3"/>
<text x="824" y="224" font-family="Arial" font-size="13">D_b=2048, G=4, epochs=2</text>
<polyline points="90.0,211.6 257.5,297.4 425.0,383.4 592.5,403.8 760.0,417.5" fill="none" stroke="#e377c2" stroke-width="2.5" stroke-linejoin="round" stroke-linecap="round"/>
<circle cx="90.0" cy="211.6" r="3" fill="#e377c2"/>
<circle cx="257.5" cy="297.4" r="3" fill="#e377c2"/>
<circle cx="425.0" cy="383.4" r="3" fill="#e377c2"/>
<circle cx="592.5" cy="403.8" r="3" fill="#e377c2"/>
<circle cx="760.0" cy="417.5" r="3" fill="#e377c2"/>
<line x1="790" y1="245" x2="814" y2="245" stroke="#e377c2" stroke-width="3"/>
<text x="824" y="249" font-family="Arial" font-size="13">D_b=2048, G=4, epochs=3</text>
<text x="425.0" y="596" text-anchor="middle" font-family="Arial" font-size="15">EI step</text>
<text transform="translate(24 305.0) rotate(-90)" text-anchor="middle" font-family="Arial" font-size="15">Average rollout token entropy</text>
</svg>
