<svg xmlns="http://www.w3.org/2000/svg" width="1100" height="660" viewBox="0 0 1100 660">
<rect width="100%" height="100%" fill="white"/>
<text x="550.0" y="36" text-anchor="middle" font-family="Arial" font-size="22" font-weight="700">Off-policy GRPO broad sweep: token entropy</text>
<line x1="95" y1="578" x2="800" y2="578" stroke="#222" stroke-width="1.5"/>
<line x1="95" y1="74" x2="95" y2="578" stroke="#222" stroke-width="1.5"/>
<line x1="90" y1="578.0" x2="800" y2="578.0" stroke="#ddd" stroke-width="1"/>
<text x="83" y="582.0" text-anchor="end" font-family="Arial" font-size="12">0.00</text>
<line x1="90" y1="477.2" x2="800" y2="477.2" stroke="#ddd" stroke-width="1"/>
<text x="83" y="481.2" text-anchor="end" font-family="Arial" font-size="12">1.40</text>
<line x1="90" y1="376.4" x2="800" y2="376.4" stroke="#ddd" stroke-width="1"/>
<text x="83" y="380.4" text-anchor="end" font-family="Arial" font-size="12">2.80</text>
<line x1="90" y1="275.6" x2="800" y2="275.6" stroke="#ddd" stroke-width="1"/>
<text x="83" y="279.6" text-anchor="end" font-family="Arial" font-size="12">4.20</text>
<line x1="90" y1="174.8" x2="800" y2="174.8" stroke="#ddd" stroke-width="1"/>
<text x="83" y="178.8" text-anchor="end" font-family="Arial" font-size="12">5.60</text>
<line x1="90" y1="74.0" x2="800" y2="74.0" stroke="#ddd" stroke-width="1"/>
<text x="83" y="78.0" text-anchor="end" font-family="Arial" font-size="12">7.00</text>
<line x1="95.0" y1="578" x2="95.0" y2="583" stroke="#222" stroke-width="1"/>
<text x="95.0" y="602" text-anchor="middle" font-family="Arial" font-size="12">1</text>
<line x1="236.0" y1="578" x2="236.0" y2="583" stroke="#222" stroke-width="1"/>
<text x="236.0" y="602" text-anchor="middle" font-family="Arial" font-size="12">9</text>
<line x1="377.0" y1="578" x2="377.0" y2="583" stroke="#222" stroke-width="1"/>
<text x="377.0" y="602" text-anchor="middle" font-family="Arial" font-size="12">17</text>
<line x1="518.0" y1="578" x2="518.0" y2="583" stroke="#222" stroke-width="1"/>
<text x="518.0" y="602" text-anchor="middle" font-family="Arial" font-size="12">24</text>
<line x1="659.0" y1="578" x2="659.0" y2="583" stroke="#222" stroke-width="1"/>
<text x="659.0" y="602" text-anchor="middle" font-family="Arial" font-size="12">32</text>
<line x1="800.0" y1="578" x2="800.0" y2="583" stroke="#222" stroke-width="1"/>
<text x="800.0" y="602" text-anchor="middle" font-family="Arial" font-size="12">40</text>
<polyline fill="none" stroke="#1f77b4" stroke-width="2.3" points="95.0,528.6 113.1,537.6 131.2,531.2 149.2,541.3 167.3,542.6 185.4,547.6 203.5,548.4 221.5,550.5 239.6,550.4 257.7,555.8 275.8,551.8 293.8,553.3 311.9,552.4 330.0,555.8 348.1,556.8 366.2,555.9 384.2,555.0 402.3,556.3 420.4,556.2 438.5,560.8 456.5,558.9 474.6,558.5 492.7,558.8 510.8,561.2 528.8,562.7 546.9,563.0 565.0,563.3 583.1,563.6 601.2,562.6 619.2,563.3 637.3,564.2 655.4,564.3 673.5,564.0 691.5,563.3 709.6,563.3 727.7,564.6 745.8,565.2 763.8,564.3 781.9,565.5 800.0,565.2"/>
<circle cx="95.0" cy="528.6" r="3" fill="#1f77b4"/>
<circle cx="113.1" cy="537.6" r="3" fill="#1f77b4"/>
<circle cx="131.2" cy="531.2" r="3" fill="#1f77b4"/>
<circle cx="149.2" cy="541.3" r="3" fill="#1f77b4"/>
<circle cx="167.3" cy="542.6" r="3" fill="#1f77b4"/>
<circle cx="185.4" cy="547.6" r="3" fill="#1f77b4"/>
<circle cx="203.5" cy="548.4" r="3" fill="#1f77b4"/>
<circle cx="221.5" cy="550.5" r="3" fill="#1f77b4"/>
<circle cx="239.6" cy="550.4" r="3" fill="#1f77b4"/>
<circle cx="257.7" cy="555.8" r="3" fill="#1f77b4"/>
<circle cx="275.8" cy="551.8" r="3" fill="#1f77b4"/>
<circle cx="293.8" cy="553.3" r="3" fill="#1f77b4"/>
<circle cx="311.9" cy="552.4" r="3" fill="#1f77b4"/>
<circle cx="330.0" cy="555.8" r="3" fill="#1f77b4"/>
<circle cx="348.1" cy="556.8" r="3" fill="#1f77b4"/>
<circle cx="366.2" cy="555.9" r="3" fill="#1f77b4"/>
<circle cx="384.2" cy="555.0" r="3" fill="#1f77b4"/>
<circle cx="402.3" cy="556.3" r="3" fill="#1f77b4"/>
<circle cx="420.4" cy="556.2" r="3" fill="#1f77b4"/>
<circle cx="438.5" cy="560.8" r="3" fill="#1f77b4"/>
<circle cx="456.5" cy="558.9" r="3" fill="#1f77b4"/>
<circle cx="474.6" cy="558.5" r="3" fill="#1f77b4"/>
<circle cx="492.7" cy="558.8" r="3" fill="#1f77b4"/>
<circle cx="510.8" cy="561.2" r="3" fill="#1f77b4"/>
<circle cx="528.8" cy="562.7" r="3" fill="#1f77b4"/>
<circle cx="546.9" cy="563.0" r="3" fill="#1f77b4"/>
<circle cx="565.0" cy="563.3" r="3" fill="#1f77b4"/>
<circle cx="583.1" cy="563.6" r="3" fill="#1f77b4"/>
<circle cx="601.2" cy="562.6" r="3" fill="#1f77b4"/>
<circle cx="619.2" cy="563.3" r="3" fill="#1f77b4"/>
<circle cx="637.3" cy="564.2" r="3" fill="#1f77b4"/>
<circle cx="655.4" cy="564.3" r="3" fill="#1f77b4"/>
<circle cx="673.5" cy="564.0" r="3" fill="#1f77b4"/>
<circle cx="691.5" cy="563.3" r="3" fill="#1f77b4"/>
<circle cx="709.6" cy="563.3" r="3" fill="#1f77b4"/>
<circle cx="727.7" cy="564.6" r="3" fill="#1f77b4"/>
<circle cx="745.8" cy="565.2" r="3" fill="#1f77b4"/>
<circle cx="763.8" cy="564.3" r="3" fill="#1f77b4"/>
<circle cx="781.9" cy="565.5" r="3" fill="#1f77b4"/>
<circle cx="800.0" cy="565.2" r="3" fill="#1f77b4"/>
<line x1="828" y1="96" x2="850" y2="96" stroke="#1f77b4" stroke-width="2.5"/>
<text x="858" y="100" font-family="Arial" font-size="13">broad_e2_tb256</text>
<polyline fill="none" stroke="#d62728" stroke-width="2.3" points="95.0,522.5 113.1,558.6 131.2,555.0 149.2,561.0 167.3,559.0 185.4,560.9 203.5,561.0 221.5,560.7 239.6,560.3 257.7,563.2 275.8,561.9 293.8,560.4 311.9,556.7 330.0,561.1 348.1,562.7 366.2,564.5 384.2,563.9 402.3,563.2 420.4,564.8 438.5,565.9 456.5,566.1 474.6,564.9 492.7,565.5 510.8,565.0 528.8,564.5 546.9,564.2 565.0,565.4 583.1,566.3 601.2,564.0 619.2,565.6 637.3,566.2 655.4,564.0 673.5,566.7 691.5,567.5 709.6,566.5 727.7,568.2 745.8,566.1 763.8,566.7 781.9,566.6 800.0,566.2"/>
<circle cx="95.0" cy="522.5" r="3" fill="#d62728"/>
<circle cx="113.1" cy="558.6" r="3" fill="#d62728"/>
<circle cx="131.2" cy="555.0" r="3" fill="#d62728"/>
<circle cx="149.2" cy="561.0" r="3" fill="#d62728"/>
<circle cx="167.3" cy="559.0" r="3" fill="#d62728"/>
<circle cx="185.4" cy="560.9" r="3" fill="#d62728"/>
<circle cx="203.5" cy="561.0" r="3" fill="#d62728"/>
<circle cx="221.5" cy="560.7" r="3" fill="#d62728"/>
<circle cx="239.6" cy="560.3" r="3" fill="#d62728"/>
<circle cx="257.7" cy="563.2" r="3" fill="#d62728"/>
<circle cx="275.8" cy="561.9" r="3" fill="#d62728"/>
<circle cx="293.8" cy="560.4" r="3" fill="#d62728"/>
<circle cx="311.9" cy="556.7" r="3" fill="#d62728"/>
<circle cx="330.0" cy="561.1" r="3" fill="#d62728"/>
<circle cx="348.1" cy="562.7" r="3" fill="#d62728"/>
<circle cx="366.2" cy="564.5" r="3" fill="#d62728"/>
<circle cx="384.2" cy="563.9" r="3" fill="#d62728"/>
<circle cx="402.3" cy="563.2" r="3" fill="#d62728"/>
<circle cx="420.4" cy="564.8" r="3" fill="#d62728"/>
<circle cx="438.5" cy="565.9" r="3" fill="#d62728"/>
<circle cx="456.5" cy="566.1" r="3" fill="#d62728"/>
<circle cx="474.6" cy="564.9" r="3" fill="#d62728"/>
<circle cx="492.7" cy="565.5" r="3" fill="#d62728"/>
<circle cx="510.8" cy="565.0" r="3" fill="#d62728"/>
<circle cx="528.8" cy="564.5" r="3" fill="#d62728"/>
<circle cx="546.9" cy="564.2" r="3" fill="#d62728"/>
<circle cx="565.0" cy="565.4" r="3" fill="#d62728"/>
<circle cx="583.1" cy="566.3" r="3" fill="#d62728"/>
<circle cx="601.2" cy="564.0" r="3" fill="#d62728"/>
<circle cx="619.2" cy="565.6" r="3" fill="#d62728"/>
<circle cx="637.3" cy="566.2" r="3" fill="#d62728"/>
<circle cx="655.4" cy="564.0" r="3" fill="#d62728"/>
<circle cx="673.5" cy="566.7" r="3" fill="#d62728"/>
<circle cx="691.5" cy="567.5" r="3" fill="#d62728"/>
<circle cx="709.6" cy="566.5" r="3" fill="#d62728"/>
<circle cx="727.7" cy="568.2" r="3" fill="#d62728"/>
<circle cx="745.8" cy="566.1" r="3" fill="#d62728"/>
<circle cx="763.8" cy="566.7" r="3" fill="#d62728"/>
<circle cx="781.9" cy="566.6" r="3" fill="#d62728"/>
<circle cx="800.0" cy="566.2" r="3" fill="#d62728"/>
<line x1="828" y1="120" x2="850" y2="120" stroke="#d62728" stroke-width="2.5"/>
<text x="858" y="124" font-family="Arial" font-size="13">broad_e2_tb128</text>
<polyline fill="none" stroke="#2ca02c" stroke-width="2.3" points="95.0,517.0 113.1,533.0 131.2,540.8 149.2,538.7 167.3,540.2 185.4,547.9 203.5,550.9 221.5,549.3 239.6,550.3 257.7,553.5 275.8,551.9 293.8,552.2 311.9,550.7 330.0,554.0 348.1,548.9 366.2,555.1 384.2,556.4 402.3,556.3 420.4,556.5 438.5,560.5 456.5,560.5 474.6,561.4 492.7,559.9 510.8,561.8 528.8,560.7 546.9,561.8 565.0,562.3 583.1,559.4 601.2,562.0 619.2,565.0 637.3,562.4 655.4,562.2 673.5,560.2 691.5,561.7 709.6,563.8 727.7,564.1 745.8,562.5 763.8,559.8 781.9,563.1 800.0,560.6"/>
<circle cx="95.0" cy="517.0" r="3" fill="#2ca02c"/>
<circle cx="113.1" cy="533.0" r="3" fill="#2ca02c"/>
<circle cx="131.2" cy="540.8" r="3" fill="#2ca02c"/>
<circle cx="149.2" cy="538.7" r="3" fill="#2ca02c"/>
<circle cx="167.3" cy="540.2" r="3" fill="#2ca02c"/>
<circle cx="185.4" cy="547.9" r="3" fill="#2ca02c"/>
<circle cx="203.5" cy="550.9" r="3" fill="#2ca02c"/>
<circle cx="221.5" cy="549.3" r="3" fill="#2ca02c"/>
<circle cx="239.6" cy="550.3" r="3" fill="#2ca02c"/>
<circle cx="257.7" cy="553.5" r="3" fill="#2ca02c"/>
<circle cx="275.8" cy="551.9" r="3" fill="#2ca02c"/>
<circle cx="293.8" cy="552.2" r="3" fill="#2ca02c"/>
<circle cx="311.9" cy="550.7" r="3" fill="#2ca02c"/>
<circle cx="330.0" cy="554.0" r="3" fill="#2ca02c"/>
<circle cx="348.1" cy="548.9" r="3" fill="#2ca02c"/>
<circle cx="366.2" cy="555.1" r="3" fill="#2ca02c"/>
<circle cx="384.2" cy="556.4" r="3" fill="#2ca02c"/>
<circle cx="402.3" cy="556.3" r="3" fill="#2ca02c"/>
<circle cx="420.4" cy="556.5" r="3" fill="#2ca02c"/>
<circle cx="438.5" cy="560.5" r="3" fill="#2ca02c"/>
<circle cx="456.5" cy="560.5" r="3" fill="#2ca02c"/>
<circle cx="474.6" cy="561.4" r="3" fill="#2ca02c"/>
<circle cx="492.7" cy="559.9" r="3" fill="#2ca02c"/>
<circle cx="510.8" cy="561.8" r="3" fill="#2ca02c"/>
<circle cx="528.8" cy="560.7" r="3" fill="#2ca02c"/>
<circle cx="546.9" cy="561.8" r="3" fill="#2ca02c"/>
<circle cx="565.0" cy="562.3" r="3" fill="#2ca02c"/>
<circle cx="583.1" cy="559.4" r="3" fill="#2ca02c"/>
<circle cx="601.2" cy="562.0" r="3" fill="#2ca02c"/>
<circle cx="619.2" cy="565.0" r="3" fill="#2ca02c"/>
<circle cx="637.3" cy="562.4" r="3" fill="#2ca02c"/>
<circle cx="655.4" cy="562.2" r="3" fill="#2ca02c"/>
<circle cx="673.5" cy="560.2" r="3" fill="#2ca02c"/>
<circle cx="691.5" cy="561.7" r="3" fill="#2ca02c"/>
<circle cx="709.6" cy="563.8" r="3" fill="#2ca02c"/>
<circle cx="727.7" cy="564.1" r="3" fill="#2ca02c"/>
<circle cx="745.8" cy="562.5" r="3" fill="#2ca02c"/>
<circle cx="763.8" cy="559.8" r="3" fill="#2ca02c"/>
<circle cx="781.9" cy="563.1" r="3" fill="#2ca02c"/>
<circle cx="800.0" cy="560.6" r="3" fill="#2ca02c"/>
<line x1="828" y1="144" x2="850" y2="144" stroke="#2ca02c" stroke-width="2.5"/>
<text x="858" y="148" font-family="Arial" font-size="13">broad_e4_tb256</text>
<polyline fill="none" stroke="#9467bd" stroke-width="2.3" points="95.0,512.0 113.1,545.4 131.2,552.3 149.2,553.2 167.3,551.2 185.4,554.7 203.5,558.4 221.5,556.0 239.6,558.3 257.7,555.7 275.8,560.1 293.8,559.8 311.9,557.8 330.0,556.1 348.1,559.9 366.2,564.9 384.2,557.4 402.3,566.9 420.4,563.6 438.5,558.2 456.5,567.8 474.6,567.5 492.7,565.6 510.8,565.5 528.8,569.9 546.9,560.4 565.0,571.9 583.1,567.4 601.2,565.2 619.2,563.9 637.3,568.9 655.4,553.7 673.5,564.1 691.5,551.7 709.6,566.1 727.7,564.7 745.8,564.7 763.8,558.0 781.9,544.8 800.0,561.7"/>
<circle cx="95.0" cy="512.0" r="3" fill="#9467bd"/>
<circle cx="113.1" cy="545.4" r="3" fill="#9467bd"/>
<circle cx="131.2" cy="552.3" r="3" fill="#9467bd"/>
<circle cx="149.2" cy="553.2" r="3" fill="#9467bd"/>
<circle cx="167.3" cy="551.2" r="3" fill="#9467bd"/>
<circle cx="185.4" cy="554.7" r="3" fill="#9467bd"/>
<circle cx="203.5" cy="558.4" r="3" fill="#9467bd"/>
<circle cx="221.5" cy="556.0" r="3" fill="#9467bd"/>
<circle cx="239.6" cy="558.3" r="3" fill="#9467bd"/>
<circle cx="257.7" cy="555.7" r="3" fill="#9467bd"/>
<circle cx="275.8" cy="560.1" r="3" fill="#9467bd"/>
<circle cx="293.8" cy="559.8" r="3" fill="#9467bd"/>
<circle cx="311.9" cy="557.8" r="3" fill="#9467bd"/>
<circle cx="330.0" cy="556.1" r="3" fill="#9467bd"/>
<circle cx="348.1" cy="559.9" r="3" fill="#9467bd"/>
<circle cx="366.2" cy="564.9" r="3" fill="#9467bd"/>
<circle cx="384.2" cy="557.4" r="3" fill="#9467bd"/>
<circle cx="402.3" cy="566.9" r="3" fill="#9467bd"/>
<circle cx="420.4" cy="563.6" r="3" fill="#9467bd"/>
<circle cx="438.5" cy="558.2" r="3" fill="#9467bd"/>
<circle cx="456.5" cy="567.8" r="3" fill="#9467bd"/>
<circle cx="474.6" cy="567.5" r="3" fill="#9467bd"/>
<circle cx="492.7" cy="565.6" r="3" fill="#9467bd"/>
<circle cx="510.8" cy="565.5" r="3" fill="#9467bd"/>
<circle cx="528.8" cy="569.9" r="3" fill="#9467bd"/>
<circle cx="546.9" cy="560.4" r="3" fill="#9467bd"/>
<circle cx="565.0" cy="571.9" r="3" fill="#9467bd"/>
<circle cx="583.1" cy="567.4" r="3" fill="#9467bd"/>
<circle cx="601.2" cy="565.2" r="3" fill="#9467bd"/>
<circle cx="619.2" cy="563.9" r="3" fill="#9467bd"/>
<circle cx="637.3" cy="568.9" r="3" fill="#9467bd"/>
<circle cx="655.4" cy="553.7" r="3" fill="#9467bd"/>
<circle cx="673.5" cy="564.1" r="3" fill="#9467bd"/>
<circle cx="691.5" cy="551.7" r="3" fill="#9467bd"/>
<circle cx="709.6" cy="566.1" r="3" fill="#9467bd"/>
<circle cx="727.7" cy="564.7" r="3" fill="#9467bd"/>
<circle cx="745.8" cy="564.7" r="3" fill="#9467bd"/>
<circle cx="763.8" cy="558.0" r="3" fill="#9467bd"/>
<circle cx="781.9" cy="544.8" r="3" fill="#9467bd"/>
<circle cx="800.0" cy="561.7" r="3" fill="#9467bd"/>
<line x1="828" y1="168" x2="850" y2="168" stroke="#9467bd" stroke-width="2.5"/>
<text x="858" y="172" font-family="Arial" font-size="13">broad_e4_tb128</text>
<polyline fill="none" stroke="#ff7f0e" stroke-width="2.3" points="95.0,522.0 113.1,536.0 131.2,546.3 149.2,554.5 167.3,555.3 185.4,544.9 203.5,556.7 221.5,556.3 239.6,560.1 257.7,561.8 275.8,563.1 293.8,563.0 311.9,562.3 330.0,561.0 348.1,565.0 366.2,565.1 384.2,564.5 402.3,566.9 420.4,566.3 438.5,567.4 456.5,567.4 474.6,567.6 492.7,566.9 510.8,567.2 528.8,567.4 546.9,568.1 565.0,569.5 583.1,568.0 601.2,567.2 619.2,569.3 637.3,569.0 655.4,569.8 673.5,570.2 691.5,571.1 709.6,572.1 727.7,572.2 745.8,571.0 763.8,571.1 781.9,571.7 800.0,572.5"/>
<circle cx="95.0" cy="522.0" r="3" fill="#ff7f0e"/>
<circle cx="113.1" cy="536.0" r="3" fill="#ff7f0e"/>
<circle cx="131.2" cy="546.3" r="3" fill="#ff7f0e"/>
<circle cx="149.2" cy="554.5" r="3" fill="#ff7f0e"/>
<circle cx="167.3" cy="555.3" r="3" fill="#ff7f0e"/>
<circle cx="185.4" cy="544.9" r="3" fill="#ff7f0e"/>
<circle cx="203.5" cy="556.7" r="3" fill="#ff7f0e"/>
<circle cx="221.5" cy="556.3" r="3" fill="#ff7f0e"/>
<circle cx="239.6" cy="560.1" r="3" fill="#ff7f0e"/>
<circle cx="257.7" cy="561.8" r="3" fill="#ff7f0e"/>
<circle cx="275.8" cy="563.1" r="3" fill="#ff7f0e"/>
<circle cx="293.8" cy="563.0" r="3" fill="#ff7f0e"/>
<circle cx="311.9" cy="562.3" r="3" fill="#ff7f0e"/>
<circle cx="330.0" cy="561.0" r="3" fill="#ff7f0e"/>
<circle cx="348.1" cy="565.0" r="3" fill="#ff7f0e"/>
<circle cx="366.2" cy="565.1" r="3" fill="#ff7f0e"/>
<circle cx="384.2" cy="564.5" r="3" fill="#ff7f0e"/>
<circle cx="402.3" cy="566.9" r="3" fill="#ff7f0e"/>
<circle cx="420.4" cy="566.3" r="3" fill="#ff7f0e"/>
<circle cx="438.5" cy="567.4" r="3" fill="#ff7f0e"/>
<circle cx="456.5" cy="567.4" r="3" fill="#ff7f0e"/>
<circle cx="474.6" cy="567.6" r="3" fill="#ff7f0e"/>
<circle cx="492.7" cy="566.9" r="3" fill="#ff7f0e"/>
<circle cx="510.8" cy="567.2" r="3" fill="#ff7f0e"/>
<circle cx="528.8" cy="567.4" r="3" fill="#ff7f0e"/>
<circle cx="546.9" cy="568.1" r="3" fill="#ff7f0e"/>
<circle cx="565.0" cy="569.5" r="3" fill="#ff7f0e"/>
<circle cx="583.1" cy="568.0" r="3" fill="#ff7f0e"/>
<circle cx="601.2" cy="567.2" r="3" fill="#ff7f0e"/>
<circle cx="619.2" cy="569.3" r="3" fill="#ff7f0e"/>
<circle cx="637.3" cy="569.0" r="3" fill="#ff7f0e"/>
<circle cx="655.4" cy="569.8" r="3" fill="#ff7f0e"/>
<circle cx="673.5" cy="570.2" r="3" fill="#ff7f0e"/>
<circle cx="691.5" cy="571.1" r="3" fill="#ff7f0e"/>
<circle cx="709.6" cy="572.1" r="3" fill="#ff7f0e"/>
<circle cx="727.7" cy="572.2" r="3" fill="#ff7f0e"/>
<circle cx="745.8" cy="571.0" r="3" fill="#ff7f0e"/>
<circle cx="763.8" cy="571.1" r="3" fill="#ff7f0e"/>
<circle cx="781.9" cy="571.7" r="3" fill="#ff7f0e"/>
<circle cx="800.0" cy="572.5" r="3" fill="#ff7f0e"/>
<line x1="828" y1="192" x2="850" y2="192" stroke="#ff7f0e" stroke-width="2.5"/>
<text x="858" y="196" font-family="Arial" font-size="13">broad_e2_tb64</text>
<polyline fill="none" stroke="#17becf" stroke-width="2.3" points="95.0,520.6 113.1,556.1 131.2,546.2 149.2,554.5 167.3,552.2 185.4,552.7 203.5,553.4 221.5,554.0 239.6,560.6 257.7,557.1 275.8,560.4 293.8,561.9 311.9,563.1 330.0,564.6 348.1,563.7 366.2,565.5 384.2,566.9 402.3,565.5 420.4,569.0 438.5,569.6 456.5,568.2 474.6,568.0 492.7,569.4 510.8,568.6 528.8,570.0 546.9,570.1 565.0,571.8 583.1,571.2 601.2,570.9 619.2,570.9 637.3,571.7 655.4,572.8 673.5,573.1 691.5,573.8 709.6,572.2 727.7,573.2 745.8,572.9 763.8,572.4 781.9,572.6 800.0,573.7"/>
<circle cx="95.0" cy="520.6" r="3" fill="#17becf"/>
<circle cx="113.1" cy="556.1" r="3" fill="#17becf"/>
<circle cx="131.2" cy="546.2" r="3" fill="#17becf"/>
<circle cx="149.2" cy="554.5" r="3" fill="#17becf"/>
<circle cx="167.3" cy="552.2" r="3" fill="#17becf"/>
<circle cx="185.4" cy="552.7" r="3" fill="#17becf"/>
<circle cx="203.5" cy="553.4" r="3" fill="#17becf"/>
<circle cx="221.5" cy="554.0" r="3" fill="#17becf"/>
<circle cx="239.6" cy="560.6" r="3" fill="#17becf"/>
<circle cx="257.7" cy="557.1" r="3" fill="#17becf"/>
<circle cx="275.8" cy="560.4" r="3" fill="#17becf"/>
<circle cx="293.8" cy="561.9" r="3" fill="#17becf"/>
<circle cx="311.9" cy="563.1" r="3" fill="#17becf"/>
<circle cx="330.0" cy="564.6" r="3" fill="#17becf"/>
<circle cx="348.1" cy="563.7" r="3" fill="#17becf"/>
<circle cx="366.2" cy="565.5" r="3" fill="#17becf"/>
<circle cx="384.2" cy="566.9" r="3" fill="#17becf"/>
<circle cx="402.3" cy="565.5" r="3" fill="#17becf"/>
<circle cx="420.4" cy="569.0" r="3" fill="#17becf"/>
<circle cx="438.5" cy="569.6" r="3" fill="#17becf"/>
<circle cx="456.5" cy="568.2" r="3" fill="#17becf"/>
<circle cx="474.6" cy="568.0" r="3" fill="#17becf"/>
<circle cx="492.7" cy="569.4" r="3" fill="#17becf"/>
<circle cx="510.8" cy="568.6" r="3" fill="#17becf"/>
<circle cx="528.8" cy="570.0" r="3" fill="#17becf"/>
<circle cx="546.9" cy="570.1" r="3" fill="#17becf"/>
<circle cx="565.0" cy="571.8" r="3" fill="#17becf"/>
<circle cx="583.1" cy="571.2" r="3" fill="#17becf"/>
<circle cx="601.2" cy="570.9" r="3" fill="#17becf"/>
<circle cx="619.2" cy="570.9" r="3" fill="#17becf"/>
<circle cx="637.3" cy="571.7" r="3" fill="#17becf"/>
<circle cx="655.4" cy="572.8" r="3" fill="#17becf"/>
<circle cx="673.5" cy="573.1" r="3" fill="#17becf"/>
<circle cx="691.5" cy="573.8" r="3" fill="#17becf"/>
<circle cx="709.6" cy="572.2" r="3" fill="#17becf"/>
<circle cx="727.7" cy="573.2" r="3" fill="#17becf"/>
<circle cx="745.8" cy="572.9" r="3" fill="#17becf"/>
<circle cx="763.8" cy="572.4" r="3" fill="#17becf"/>
<circle cx="781.9" cy="572.6" r="3" fill="#17becf"/>
<circle cx="800.0" cy="573.7" r="3" fill="#17becf"/>
<line x1="828" y1="216" x2="850" y2="216" stroke="#17becf" stroke-width="2.5"/>
<text x="858" y="220" font-family="Arial" font-size="13">broad_e2_tb32</text>
<polyline fill="none" stroke="#8c564b" stroke-width="2.3" points="95.0,514.2 113.1,531.8 131.2,526.6 149.2,530.0 167.3,518.9 185.4,533.4 203.5,534.0 221.5,518.0 239.6,505.5 257.7,511.2 275.8,493.4 293.8,490.5 311.9,481.1 330.0,500.5 348.1,495.8 366.2,500.6 384.2,502.5 402.3,462.2 420.4,471.0 438.5,505.8 456.5,506.7 474.6,526.3 492.7,556.6 510.8,569.1 528.8,572.7 546.9,572.5 565.0,572.3 583.1,575.7 601.2,573.2 619.2,569.4 637.3,570.1 655.4,570.4 673.5,572.5 691.5,571.0 709.6,567.5 727.7,573.8 745.8,569.5 763.8,569.5 781.9,570.3 800.0,571.4"/>
<circle cx="95.0" cy="514.2" r="3" fill="#8c564b"/>
<circle cx="113.1" cy="531.8" r="3" fill="#8c564b"/>
<circle cx="131.2" cy="526.6" r="3" fill="#8c564b"/>
<circle cx="149.2" cy="530.0" r="3" fill="#8c564b"/>
<circle cx="167.3" cy="518.9" r="3" fill="#8c564b"/>
<circle cx="185.4" cy="533.4" r="3" fill="#8c564b"/>
<circle cx="203.5" cy="534.0" r="3" fill="#8c564b"/>
<circle cx="221.5" cy="518.0" r="3" fill="#8c564b"/>
<circle cx="239.6" cy="505.5" r="3" fill="#8c564b"/>
<circle cx="257.7" cy="511.2" r="3" fill="#8c564b"/>
<circle cx="275.8" cy="493.4" r="3" fill="#8c564b"/>
<circle cx="293.8" cy="490.5" r="3" fill="#8c564b"/>
<circle cx="311.9" cy="481.1" r="3" fill="#8c564b"/>
<circle cx="330.0" cy="500.5" r="3" fill="#8c564b"/>
<circle cx="348.1" cy="495.8" r="3" fill="#8c564b"/>
<circle cx="366.2" cy="500.6" r="3" fill="#8c564b"/>
<circle cx="384.2" cy="502.5" r="3" fill="#8c564b"/>
<circle cx="402.3" cy="462.2" r="3" fill="#8c564b"/>
<circle cx="420.4" cy="471.0" r="3" fill="#8c564b"/>
<circle cx="438.5" cy="505.8" r="3" fill="#8c564b"/>
<circle cx="456.5" cy="506.7" r="3" fill="#8c564b"/>
<circle cx="474.6" cy="526.3" r="3" fill="#8c564b"/>
<circle cx="492.7" cy="556.6" r="3" fill="#8c564b"/>
<circle cx="510.8" cy="569.1" r="3" fill="#8c564b"/>
<circle cx="528.8" cy="572.7" r="3" fill="#8c564b"/>
<circle cx="546.9" cy="572.5" r="3" fill="#8c564b"/>
<circle cx="565.0" cy="572.3" r="3" fill="#8c564b"/>
<circle cx="583.1" cy="575.7" r="3" fill="#8c564b"/>
<circle cx="601.2" cy="573.2" r="3" fill="#8c564b"/>
<circle cx="619.2" cy="569.4" r="3" fill="#8c564b"/>
<circle cx="637.3" cy="570.1" r="3" fill="#8c564b"/>
<circle cx="655.4" cy="570.4" r="3" fill="#8c564b"/>
<circle cx="673.5" cy="572.5" r="3" fill="#8c564b"/>
<circle cx="691.5" cy="571.0" r="3" fill="#8c564b"/>
<circle cx="709.6" cy="567.5" r="3" fill="#8c564b"/>
<circle cx="727.7" cy="573.8" r="3" fill="#8c564b"/>
<circle cx="745.8" cy="569.5" r="3" fill="#8c564b"/>
<circle cx="763.8" cy="569.5" r="3" fill="#8c564b"/>
<circle cx="781.9" cy="570.3" r="3" fill="#8c564b"/>
<circle cx="800.0" cy="571.4" r="3" fill="#8c564b"/>
<line x1="828" y1="240" x2="850" y2="240" stroke="#8c564b" stroke-width="2.5"/>
<text x="858" y="244" font-family="Arial" font-size="13">broad_e8_tb256</text>
<polyline fill="none" stroke="#e377c2" stroke-width="2.3" points="95.0,513.0 113.1,511.3 131.2,490.8 149.2,393.0 167.3,259.1 185.4,242.8 203.5,189.6 221.5,153.9 239.6,156.9 257.7,151.3 275.8,116.0 293.8,112.6 311.9,119.3 330.0,77.1 348.1,101.7 366.2,126.4 384.2,235.8 402.3,185.6 420.4,197.2 438.5,206.1 456.5,199.0 474.6,223.8 492.7,196.9 510.8,194.7 528.8,181.0 546.9,185.4 565.0,189.8 583.1,189.4 601.2,209.5 619.2,204.1 637.3,196.8 655.4,214.4 673.5,203.9 691.5,228.3 709.6,204.3 727.7,184.6 745.8,182.6 763.8,207.6 781.9,204.8 800.0,213.8"/>
<circle cx="95.0" cy="513.0" r="3" fill="#e377c2"/>
<circle cx="113.1" cy="511.3" r="3" fill="#e377c2"/>
<circle cx="131.2" cy="490.8" r="3" fill="#e377c2"/>
<circle cx="149.2" cy="393.0" r="3" fill="#e377c2"/>
<circle cx="167.3" cy="259.1" r="3" fill="#e377c2"/>
<circle cx="185.4" cy="242.8" r="3" fill="#e377c2"/>
<circle cx="203.5" cy="189.6" r="3" fill="#e377c2"/>
<circle cx="221.5" cy="153.9" r="3" fill="#e377c2"/>
<circle cx="239.6" cy="156.9" r="3" fill="#e377c2"/>
<circle cx="257.7" cy="151.3" r="3" fill="#e377c2"/>
<circle cx="275.8" cy="116.0" r="3" fill="#e377c2"/>
<circle cx="293.8" cy="112.6" r="3" fill="#e377c2"/>
<circle cx="311.9" cy="119.3" r="3" fill="#e377c2"/>
<circle cx="330.0" cy="77.1" r="3" fill="#e377c2"/>
<circle cx="348.1" cy="101.7" r="3" fill="#e377c2"/>
<circle cx="366.2" cy="126.4" r="3" fill="#e377c2"/>
<circle cx="384.2" cy="235.8" r="3" fill="#e377c2"/>
<circle cx="402.3" cy="185.6" r="3" fill="#e377c2"/>
<circle cx="420.4" cy="197.2" r="3" fill="#e377c2"/>
<circle cx="438.5" cy="206.1" r="3" fill="#e377c2"/>
<circle cx="456.5" cy="199.0" r="3" fill="#e377c2"/>
<circle cx="474.6" cy="223.8" r="3" fill="#e377c2"/>
<circle cx="492.7" cy="196.9" r="3" fill="#e377c2"/>
<circle cx="510.8" cy="194.7" r="3" fill="#e377c2"/>
<circle cx="528.8" cy="181.0" r="3" fill="#e377c2"/>
<circle cx="546.9" cy="185.4" r="3" fill="#e377c2"/>
<circle cx="565.0" cy="189.8" r="3" fill="#e377c2"/>
<circle cx="583.1" cy="189.4" r="3" fill="#e377c2"/>
<circle cx="601.2" cy="209.5" r="3" fill="#e377c2"/>
<circle cx="619.2" cy="204.1" r="3" fill="#e377c2"/>
<circle cx="637.3" cy="196.8" r="3" fill="#e377c2"/>
<circle cx="655.4" cy="214.4" r="3" fill="#e377c2"/>
<circle cx="673.5" cy="203.9" r="3" fill="#e377c2"/>
<circle cx="691.5" cy="228.3" r="3" fill="#e377c2"/>
<circle cx="709.6" cy="204.3" r="3" fill="#e377c2"/>
<circle cx="727.7" cy="184.6" r="3" fill="#e377c2"/>
<circle cx="745.8" cy="182.6" r="3" fill="#e377c2"/>
<circle cx="763.8" cy="207.6" r="3" fill="#e377c2"/>
<circle cx="781.9" cy="204.8" r="3" fill="#e377c2"/>
<circle cx="800.0" cy="213.8" r="3" fill="#e377c2"/>
<line x1="828" y1="264" x2="850" y2="264" stroke="#e377c2" stroke-width="2.5"/>
<text x="858" y="268" font-family="Arial" font-size="13">broad_e16_tb256</text>
<text x="447.5" y="638" text-anchor="middle" font-family="Arial" font-size="15">GRPO step</text>
<text x="24" y="326.0" text-anchor="middle" font-family="Arial" font-size="15" transform="rotate(-90 24 326.0)">Token entropy (nats)</text>
</svg>
