<svg xmlns="http://www.w3.org/2000/svg" width="1100" height="660" viewBox="0 0 1100 660">
<rect width="100%" height="100%" fill="white"/>
<text x="550.0" y="36" text-anchor="middle" font-family="Arial" font-size="22" font-weight="700">Off-policy GRPO broad sweep: validation answer reward</text>
<line x1="95" y1="578" x2="800" y2="578" stroke="#222" stroke-width="1.5"/>
<line x1="95" y1="74" x2="95" y2="578" stroke="#222" stroke-width="1.5"/>
<line x1="90" y1="578.0" x2="800" y2="578.0" stroke="#ddd" stroke-width="1"/>
<text x="83" y="582.0" text-anchor="end" font-family="Arial" font-size="12">0.00%</text>
<line x1="90" y1="477.2" x2="800" y2="477.2" stroke="#ddd" stroke-width="1"/>
<text x="83" y="481.2" text-anchor="end" font-family="Arial" font-size="12">18.00%</text>
<line x1="90" y1="376.4" x2="800" y2="376.4" stroke="#ddd" stroke-width="1"/>
<text x="83" y="380.4" text-anchor="end" font-family="Arial" font-size="12">36.00%</text>
<line x1="90" y1="275.6" x2="800" y2="275.6" stroke="#ddd" stroke-width="1"/>
<text x="83" y="279.6" text-anchor="end" font-family="Arial" font-size="12">54.00%</text>
<line x1="90" y1="174.8" x2="800" y2="174.8" stroke="#ddd" stroke-width="1"/>
<text x="83" y="178.8" text-anchor="end" font-family="Arial" font-size="12">72.00%</text>
<line x1="90" y1="74.0" x2="800" y2="74.0" stroke="#ddd" stroke-width="1"/>
<text x="83" y="78.0" text-anchor="end" font-family="Arial" font-size="12">90.00%</text>
<line x1="95.0" y1="578" x2="95.0" y2="583" stroke="#222" stroke-width="1"/>
<text x="95.0" y="602" text-anchor="middle" font-family="Arial" font-size="12">0</text>
<line x1="236.0" y1="578" x2="236.0" y2="583" stroke="#222" stroke-width="1"/>
<text x="236.0" y="602" text-anchor="middle" font-family="Arial" font-size="12">8</text>
<line x1="377.0" y1="578" x2="377.0" y2="583" stroke="#222" stroke-width="1"/>
<text x="377.0" y="602" text-anchor="middle" font-family="Arial" font-size="12">16</text>
<line x1="518.0" y1="578" x2="518.0" y2="583" stroke="#222" stroke-width="1"/>
<text x="518.0" y="602" text-anchor="middle" font-family="Arial" font-size="12">24</text>
<line x1="659.0" y1="578" x2="659.0" y2="583" stroke="#222" stroke-width="1"/>
<text x="659.0" y="602" text-anchor="middle" font-family="Arial" font-size="12">32</text>
<line x1="800.0" y1="578" x2="800.0" y2="583" stroke="#222" stroke-width="1"/>
<text x="800.0" y="602" text-anchor="middle" font-family="Arial" font-size="12">40</text>
<polyline fill="none" stroke="#1f77b4" stroke-width="2.3" points="95.0,556.7 183.1,465.9 271.2,417.2 359.4,372.9 447.5,306.2 535.6,245.5 623.8,220.9 711.9,187.0 800.0,162.4"/>
<circle cx="95.0" cy="556.7" r="3" fill="#1f77b4"/>
<circle cx="183.1" cy="465.9" r="3" fill="#1f77b4"/>
<circle cx="271.2" cy="417.2" r="3" fill="#1f77b4"/>
<circle cx="359.4" cy="372.9" r="3" fill="#1f77b4"/>
<circle cx="447.5" cy="306.2" r="3" fill="#1f77b4"/>
<circle cx="535.6" cy="245.5" r="3" fill="#1f77b4"/>
<circle cx="623.8" cy="220.9" r="3" fill="#1f77b4"/>
<circle cx="711.9" cy="187.0" r="3" fill="#1f77b4"/>
<circle cx="800.0" cy="162.4" r="3" fill="#1f77b4"/>
<line x1="828" y1="96" x2="850" y2="96" stroke="#1f77b4" stroke-width="2.5"/>
<text x="858" y="100" font-family="Arial" font-size="13">broad_e2_tb256</text>
<polyline fill="none" stroke="#d62728" stroke-width="2.3" points="95.0,556.7 183.1,290.9 271.2,177.7 359.4,151.4 447.5,148.7 535.6,139.4 623.8,121.9 711.9,112.1 800.0,121.4"/>
<circle cx="95.0" cy="556.7" r="3" fill="#d62728"/>
<circle cx="183.1" cy="290.9" r="3" fill="#d62728"/>
<circle cx="271.2" cy="177.7" r="3" fill="#d62728"/>
<circle cx="359.4" cy="151.4" r="3" fill="#d62728"/>
<circle cx="447.5" cy="148.7" r="3" fill="#d62728"/>
<circle cx="535.6" cy="139.4" r="3" fill="#d62728"/>
<circle cx="623.8" cy="121.9" r="3" fill="#d62728"/>
<circle cx="711.9" cy="112.1" r="3" fill="#d62728"/>
<circle cx="800.0" cy="121.4" r="3" fill="#d62728"/>
<line x1="828" y1="120" x2="850" y2="120" stroke="#d62728" stroke-width="2.5"/>
<text x="858" y="124" font-family="Arial" font-size="13">broad_e2_tb128</text>
<polyline fill="none" stroke="#2ca02c" stroke-width="2.3" points="95.0,556.7 183.1,413.4 271.2,330.8 359.4,290.3 447.5,255.9 535.6,235.1 623.8,180.4 711.9,165.1 800.0,179.3"/>
<circle cx="95.0" cy="556.7" r="3" fill="#2ca02c"/>
<circle cx="183.1" cy="413.4" r="3" fill="#2ca02c"/>
<circle cx="271.2" cy="330.8" r="3" fill="#2ca02c"/>
<circle cx="359.4" cy="290.3" r="3" fill="#2ca02c"/>
<circle cx="447.5" cy="255.9" r="3" fill="#2ca02c"/>
<circle cx="535.6" cy="235.1" r="3" fill="#2ca02c"/>
<circle cx="623.8" cy="180.4" r="3" fill="#2ca02c"/>
<circle cx="711.9" cy="165.1" r="3" fill="#2ca02c"/>
<circle cx="800.0" cy="179.3" r="3" fill="#2ca02c"/>
<line x1="828" y1="144" x2="850" y2="144" stroke="#2ca02c" stroke-width="2.5"/>
<text x="858" y="148" font-family="Arial" font-size="13">broad_e4_tb256</text>
<polyline fill="none" stroke="#9467bd" stroke-width="2.3" points="95.0,556.7 183.1,369.1 271.2,288.7 359.4,237.8 447.5,214.9 535.6,179.9 623.8,161.3 711.9,160.2 800.0,158.0"/>
<circle cx="95.0" cy="556.7" r="3" fill="#9467bd"/>
<circle cx="183.1" cy="369.1" r="3" fill="#9467bd"/>
<circle cx="271.2" cy="288.7" r="3" fill="#9467bd"/>
<circle cx="359.4" cy="237.8" r="3" fill="#9467bd"/>
<circle cx="447.5" cy="214.9" r="3" fill="#9467bd"/>
<circle cx="535.6" cy="179.9" r="3" fill="#9467bd"/>
<circle cx="623.8" cy="161.3" r="3" fill="#9467bd"/>
<circle cx="711.9" cy="160.2" r="3" fill="#9467bd"/>
<circle cx="800.0" cy="158.0" r="3" fill="#9467bd"/>
<line x1="828" y1="168" x2="850" y2="168" stroke="#9467bd" stroke-width="2.5"/>
<text x="858" y="172" font-family="Arial" font-size="13">broad_e4_tb128</text>
<polyline fill="none" stroke="#ff7f0e" stroke-width="2.3" points="95.0,556.7 183.1,334.1 271.2,236.8 359.4,201.8 447.5,179.9 535.6,165.1 623.8,158.5 711.9,147.1 800.0,144.3"/>
<circle cx="95.0" cy="556.7" r="3" fill="#ff7f0e"/>
<circle cx="183.1" cy="334.1" r="3" fill="#ff7f0e"/>
<circle cx="271.2" cy="236.8" r="3" fill="#ff7f0e"/>
<circle cx="359.4" cy="201.8" r="3" fill="#ff7f0e"/>
<circle cx="447.5" cy="179.9" r="3" fill="#ff7f0e"/>
<circle cx="535.6" cy="165.1" r="3" fill="#ff7f0e"/>
<circle cx="623.8" cy="158.5" r="3" fill="#ff7f0e"/>
<circle cx="711.9" cy="147.1" r="3" fill="#ff7f0e"/>
<circle cx="800.0" cy="144.3" r="3" fill="#ff7f0e"/>
<line x1="828" y1="192" x2="850" y2="192" stroke="#ff7f0e" stroke-width="2.5"/>
<text x="858" y="196" font-family="Arial" font-size="13">broad_e2_tb64</text>
<polyline fill="none" stroke="#17becf" stroke-width="2.3" points="95.0,556.7 183.1,310.0 271.2,250.4 359.4,223.1 447.5,199.0 535.6,185.9 623.8,191.9 711.9,177.7 800.0,159.6"/>
<circle cx="95.0" cy="556.7" r="3" fill="#17becf"/>
<circle cx="183.1" cy="310.0" r="3" fill="#17becf"/>
<circle cx="271.2" cy="250.4" r="3" fill="#17becf"/>
<circle cx="359.4" cy="223.1" r="3" fill="#17becf"/>
<circle cx="447.5" cy="199.0" r="3" fill="#17becf"/>
<circle cx="535.6" cy="185.9" r="3" fill="#17becf"/>
<circle cx="623.8" cy="191.9" r="3" fill="#17becf"/>
<circle cx="711.9" cy="177.7" r="3" fill="#17becf"/>
<circle cx="800.0" cy="159.6" r="3" fill="#17becf"/>
<line x1="828" y1="216" x2="850" y2="216" stroke="#17becf" stroke-width="2.5"/>
<text x="858" y="220" font-family="Arial" font-size="13">broad_e2_tb32</text>
<polyline fill="none" stroke="#8c564b" stroke-width="2.3" points="95.0,556.7 183.1,452.8 271.2,370.2 359.4,306.8 447.5,541.4 535.6,578.0 623.8,578.0 711.9,578.0 800.0,578.0"/>
<circle cx="95.0" cy="556.7" r="3" fill="#8c564b"/>
<circle cx="183.1" cy="452.8" r="3" fill="#8c564b"/>
<circle cx="271.2" cy="370.2" r="3" fill="#8c564b"/>
<circle cx="359.4" cy="306.8" r="3" fill="#8c564b"/>
<circle cx="447.5" cy="541.4" r="3" fill="#8c564b"/>
<circle cx="535.6" cy="578.0" r="3" fill="#8c564b"/>
<circle cx="623.8" cy="578.0" r="3" fill="#8c564b"/>
<circle cx="711.9" cy="578.0" r="3" fill="#8c564b"/>
<circle cx="800.0" cy="578.0" r="3" fill="#8c564b"/>
<line x1="828" y1="240" x2="850" y2="240" stroke="#8c564b" stroke-width="2.5"/>
<text x="858" y="244" font-family="Arial" font-size="13">broad_e8_tb256</text>
<polyline fill="none" stroke="#e377c2" stroke-width="2.3" points="95.0,556.7 183.1,573.6 271.2,578.0 359.4,578.0 447.5,578.0 535.6,578.0 623.8,578.0 711.9,578.0 800.0,578.0"/>
<circle cx="95.0" cy="556.7" r="3" fill="#e377c2"/>
<circle cx="183.1" cy="573.6" r="3" fill="#e377c2"/>
<circle cx="271.2" cy="578.0" r="3" fill="#e377c2"/>
<circle cx="359.4" cy="578.0" r="3" fill="#e377c2"/>
<circle cx="447.5" cy="578.0" r="3" fill="#e377c2"/>
<circle cx="535.6" cy="578.0" r="3" fill="#e377c2"/>
<circle cx="623.8" cy="578.0" r="3" fill="#e377c2"/>
<circle cx="711.9" cy="578.0" r="3" fill="#e377c2"/>
<circle cx="800.0" cy="578.0" r="3" fill="#e377c2"/>
<line x1="828" y1="264" x2="850" y2="264" stroke="#e377c2" stroke-width="2.5"/>
<text x="858" y="268" font-family="Arial" font-size="13">broad_e16_tb256</text>
<text x="447.5" y="638" text-anchor="middle" font-family="Arial" font-size="15">GRPO step</text>
<text x="24" y="326.0" text-anchor="middle" font-family="Arial" font-size="15" transform="rotate(-90 24 326.0)">Validation answer reward</text>
</svg>
