<svg xmlns="http://www.w3.org/2000/svg" width="1100" height="660" viewBox="0 0 1100 660">
<rect width="100%" height="100%" fill="white"/>
<text x="550.0" y="36" text-anchor="middle" font-family="Arial" font-size="22" font-weight="700">Off-policy GRPO broad sweep: rollout response length</text>
<line x1="95" y1="578" x2="800" y2="578" stroke="#222" stroke-width="1.5"/>
<line x1="95" y1="74" x2="95" y2="578" stroke="#222" stroke-width="1.5"/>
<line x1="90" y1="578.0" x2="800" y2="578.0" stroke="#ddd" stroke-width="1"/>
<text x="83" y="582.0" text-anchor="end" font-family="Arial" font-size="12">0.00</text>
<line x1="90" y1="477.2" x2="800" y2="477.2" stroke="#ddd" stroke-width="1"/>
<text x="83" y="481.2" text-anchor="end" font-family="Arial" font-size="12">186.56</text>
<line x1="90" y1="376.4" x2="800" y2="376.4" stroke="#ddd" stroke-width="1"/>
<text x="83" y="380.4" text-anchor="end" font-family="Arial" font-size="12">373.12</text>
<line x1="90" y1="275.6" x2="800" y2="275.6" stroke="#ddd" stroke-width="1"/>
<text x="83" y="279.6" text-anchor="end" font-family="Arial" font-size="12">559.68</text>
<line x1="90" y1="174.8" x2="800" y2="174.8" stroke="#ddd" stroke-width="1"/>
<text x="83" y="178.8" text-anchor="end" font-family="Arial" font-size="12">746.24</text>
<line x1="90" y1="74.0" x2="800" y2="74.0" stroke="#ddd" stroke-width="1"/>
<text x="83" y="78.0" text-anchor="end" font-family="Arial" font-size="12">932.80</text>
<line x1="95.0" y1="578" x2="95.0" y2="583" stroke="#222" stroke-width="1"/>
<text x="95.0" y="602" text-anchor="middle" font-family="Arial" font-size="12">1</text>
<line x1="236.0" y1="578" x2="236.0" y2="583" stroke="#222" stroke-width="1"/>
<text x="236.0" y="602" text-anchor="middle" font-family="Arial" font-size="12">9</text>
<line x1="377.0" y1="578" x2="377.0" y2="583" stroke="#222" stroke-width="1"/>
<text x="377.0" y="602" text-anchor="middle" font-family="Arial" font-size="12">17</text>
<line x1="518.0" y1="578" x2="518.0" y2="583" stroke="#222" stroke-width="1"/>
<text x="518.0" y="602" text-anchor="middle" font-family="Arial" font-size="12">24</text>
<line x1="659.0" y1="578" x2="659.0" y2="583" stroke="#222" stroke-width="1"/>
<text x="659.0" y="602" text-anchor="middle" font-family="Arial" font-size="12">32</text>
<line x1="800.0" y1="578" x2="800.0" y2="583" stroke="#222" stroke-width="1"/>
<text x="800.0" y="602" text-anchor="middle" font-family="Arial" font-size="12">40</text>
<polyline fill="none" stroke="#1f77b4" stroke-width="2.3" points="95.0,413.4 113.1,511.0 131.2,482.3 149.2,477.3 167.3,483.6 185.4,477.8 203.5,482.2 221.5,479.6 239.6,486.6 257.7,466.7 275.8,464.8 293.8,463.2 311.9,460.1 330.0,452.6 348.1,452.5 366.2,464.3 384.2,453.1 402.3,455.8 420.4,448.7 438.5,447.1 456.5,451.4 474.6,459.6 492.7,441.0 510.8,467.1 528.8,465.0 546.9,458.4 565.0,421.3 583.1,434.3 601.2,447.2 619.2,424.0 637.3,405.5 655.4,415.9 673.5,426.1 691.5,445.4 709.6,431.2 727.7,390.6 745.8,416.1 763.8,412.2 781.9,404.5 800.0,418.4"/>
<circle cx="95.0" cy="413.4" r="3" fill="#1f77b4"/>
<circle cx="113.1" cy="511.0" r="3" fill="#1f77b4"/>
<circle cx="131.2" cy="482.3" r="3" fill="#1f77b4"/>
<circle cx="149.2" cy="477.3" r="3" fill="#1f77b4"/>
<circle cx="167.3" cy="483.6" r="3" fill="#1f77b4"/>
<circle cx="185.4" cy="477.8" r="3" fill="#1f77b4"/>
<circle cx="203.5" cy="482.2" r="3" fill="#1f77b4"/>
<circle cx="221.5" cy="479.6" r="3" fill="#1f77b4"/>
<circle cx="239.6" cy="486.6" r="3" fill="#1f77b4"/>
<circle cx="257.7" cy="466.7" r="3" fill="#1f77b4"/>
<circle cx="275.8" cy="464.8" r="3" fill="#1f77b4"/>
<circle cx="293.8" cy="463.2" r="3" fill="#1f77b4"/>
<circle cx="311.9" cy="460.1" r="3" fill="#1f77b4"/>
<circle cx="330.0" cy="452.6" r="3" fill="#1f77b4"/>
<circle cx="348.1" cy="452.5" r="3" fill="#1f77b4"/>
<circle cx="366.2" cy="464.3" r="3" fill="#1f77b4"/>
<circle cx="384.2" cy="453.1" r="3" fill="#1f77b4"/>
<circle cx="402.3" cy="455.8" r="3" fill="#1f77b4"/>
<circle cx="420.4" cy="448.7" r="3" fill="#1f77b4"/>
<circle cx="438.5" cy="447.1" r="3" fill="#1f77b4"/>
<circle cx="456.5" cy="451.4" r="3" fill="#1f77b4"/>
<circle cx="474.6" cy="459.6" r="3" fill="#1f77b4"/>
<circle cx="492.7" cy="441.0" r="3" fill="#1f77b4"/>
<circle cx="510.8" cy="467.1" r="3" fill="#1f77b4"/>
<circle cx="528.8" cy="465.0" r="3" fill="#1f77b4"/>
<circle cx="546.9" cy="458.4" r="3" fill="#1f77b4"/>
<circle cx="565.0" cy="421.3" r="3" fill="#1f77b4"/>
<circle cx="583.1" cy="434.3" r="3" fill="#1f77b4"/>
<circle cx="601.2" cy="447.2" r="3" fill="#1f77b4"/>
<circle cx="619.2" cy="424.0" r="3" fill="#1f77b4"/>
<circle cx="637.3" cy="405.5" r="3" fill="#1f77b4"/>
<circle cx="655.4" cy="415.9" r="3" fill="#1f77b4"/>
<circle cx="673.5" cy="426.1" r="3" fill="#1f77b4"/>
<circle cx="691.5" cy="445.4" r="3" fill="#1f77b4"/>
<circle cx="709.6" cy="431.2" r="3" fill="#1f77b4"/>
<circle cx="727.7" cy="390.6" r="3" fill="#1f77b4"/>
<circle cx="745.8" cy="416.1" r="3" fill="#1f77b4"/>
<circle cx="763.8" cy="412.2" r="3" fill="#1f77b4"/>
<circle cx="781.9" cy="404.5" r="3" fill="#1f77b4"/>
<circle cx="800.0" cy="418.4" r="3" fill="#1f77b4"/>
<line x1="828" y1="96" x2="850" y2="96" stroke="#1f77b4" stroke-width="2.5"/>
<text x="858" y="100" font-family="Arial" font-size="13">broad_e2_tb256</text>
<polyline fill="none" stroke="#d62728" stroke-width="2.3" points="95.0,413.4 113.1,338.3 131.2,335.7 149.2,320.7 167.3,394.5 185.4,420.7 203.5,408.4 221.5,405.7 239.6,433.7 257.7,451.6 275.8,447.4 293.8,420.9 311.9,421.8 330.0,436.6 348.1,416.6 366.2,404.9 384.2,398.4 402.3,414.0 420.4,400.4 438.5,400.2 456.5,378.9 474.6,405.5 492.7,376.1 510.8,396.7 528.8,413.5 546.9,427.8 565.0,371.9 583.1,385.3 601.2,409.5 619.2,398.8 637.3,366.3 655.4,380.8 673.5,391.3 691.5,388.5 709.6,374.3 727.7,357.3 745.8,370.9 763.8,373.5 781.9,382.1 800.0,398.1"/>
<circle cx="95.0" cy="413.4" r="3" fill="#d62728"/>
<circle cx="113.1" cy="338.3" r="3" fill="#d62728"/>
<circle cx="131.2" cy="335.7" r="3" fill="#d62728"/>
<circle cx="149.2" cy="320.7" r="3" fill="#d62728"/>
<circle cx="167.3" cy="394.5" r="3" fill="#d62728"/>
<circle cx="185.4" cy="420.7" r="3" fill="#d62728"/>
<circle cx="203.5" cy="408.4" r="3" fill="#d62728"/>
<circle cx="221.5" cy="405.7" r="3" fill="#d62728"/>
<circle cx="239.6" cy="433.7" r="3" fill="#d62728"/>
<circle cx="257.7" cy="451.6" r="3" fill="#d62728"/>
<circle cx="275.8" cy="447.4" r="3" fill="#d62728"/>
<circle cx="293.8" cy="420.9" r="3" fill="#d62728"/>
<circle cx="311.9" cy="421.8" r="3" fill="#d62728"/>
<circle cx="330.0" cy="436.6" r="3" fill="#d62728"/>
<circle cx="348.1" cy="416.6" r="3" fill="#d62728"/>
<circle cx="366.2" cy="404.9" r="3" fill="#d62728"/>
<circle cx="384.2" cy="398.4" r="3" fill="#d62728"/>
<circle cx="402.3" cy="414.0" r="3" fill="#d62728"/>
<circle cx="420.4" cy="400.4" r="3" fill="#d62728"/>
<circle cx="438.5" cy="400.2" r="3" fill="#d62728"/>
<circle cx="456.5" cy="378.9" r="3" fill="#d62728"/>
<circle cx="474.6" cy="405.5" r="3" fill="#d62728"/>
<circle cx="492.7" cy="376.1" r="3" fill="#d62728"/>
<circle cx="510.8" cy="396.7" r="3" fill="#d62728"/>
<circle cx="528.8" cy="413.5" r="3" fill="#d62728"/>
<circle cx="546.9" cy="427.8" r="3" fill="#d62728"/>
<circle cx="565.0" cy="371.9" r="3" fill="#d62728"/>
<circle cx="583.1" cy="385.3" r="3" fill="#d62728"/>
<circle cx="601.2" cy="409.5" r="3" fill="#d62728"/>
<circle cx="619.2" cy="398.8" r="3" fill="#d62728"/>
<circle cx="637.3" cy="366.3" r="3" fill="#d62728"/>
<circle cx="655.4" cy="380.8" r="3" fill="#d62728"/>
<circle cx="673.5" cy="391.3" r="3" fill="#d62728"/>
<circle cx="691.5" cy="388.5" r="3" fill="#d62728"/>
<circle cx="709.6" cy="374.3" r="3" fill="#d62728"/>
<circle cx="727.7" cy="357.3" r="3" fill="#d62728"/>
<circle cx="745.8" cy="370.9" r="3" fill="#d62728"/>
<circle cx="763.8" cy="373.5" r="3" fill="#d62728"/>
<circle cx="781.9" cy="382.1" r="3" fill="#d62728"/>
<circle cx="800.0" cy="398.1" r="3" fill="#d62728"/>
<line x1="828" y1="120" x2="850" y2="120" stroke="#d62728" stroke-width="2.5"/>
<text x="858" y="124" font-family="Arial" font-size="13">broad_e2_tb128</text>
<polyline fill="none" stroke="#2ca02c" stroke-width="2.3" points="95.0,413.4 113.1,494.5 131.2,491.1 149.2,480.1 167.3,497.3 185.4,443.9 203.5,446.8 221.5,473.5 239.6,460.7 257.7,456.8 275.8,481.4 293.8,488.7 311.9,497.6 330.0,473.9 348.1,483.0 366.2,452.4 384.2,464.6 402.3,469.0 420.4,422.1 438.5,428.0 456.5,420.7 474.6,422.5 492.7,444.1 510.8,446.4 528.8,402.4 546.9,426.0 565.0,434.3 583.1,421.0 601.2,391.9 619.2,422.6 637.3,428.2 655.4,401.4 673.5,416.8 691.5,411.4 709.6,409.0 727.7,409.1 745.8,404.7 763.8,397.1 781.9,414.5 800.0,418.3"/>
<circle cx="95.0" cy="413.4" r="3" fill="#2ca02c"/>
<circle cx="113.1" cy="494.5" r="3" fill="#2ca02c"/>
<circle cx="131.2" cy="491.1" r="3" fill="#2ca02c"/>
<circle cx="149.2" cy="480.1" r="3" fill="#2ca02c"/>
<circle cx="167.3" cy="497.3" r="3" fill="#2ca02c"/>
<circle cx="185.4" cy="443.9" r="3" fill="#2ca02c"/>
<circle cx="203.5" cy="446.8" r="3" fill="#2ca02c"/>
<circle cx="221.5" cy="473.5" r="3" fill="#2ca02c"/>
<circle cx="239.6" cy="460.7" r="3" fill="#2ca02c"/>
<circle cx="257.7" cy="456.8" r="3" fill="#2ca02c"/>
<circle cx="275.8" cy="481.4" r="3" fill="#2ca02c"/>
<circle cx="293.8" cy="488.7" r="3" fill="#2ca02c"/>
<circle cx="311.9" cy="497.6" r="3" fill="#2ca02c"/>
<circle cx="330.0" cy="473.9" r="3" fill="#2ca02c"/>
<circle cx="348.1" cy="483.0" r="3" fill="#2ca02c"/>
<circle cx="366.2" cy="452.4" r="3" fill="#2ca02c"/>
<circle cx="384.2" cy="464.6" r="3" fill="#2ca02c"/>
<circle cx="402.3" cy="469.0" r="3" fill="#2ca02c"/>
<circle cx="420.4" cy="422.1" r="3" fill="#2ca02c"/>
<circle cx="438.5" cy="428.0" r="3" fill="#2ca02c"/>
<circle cx="456.5" cy="420.7" r="3" fill="#2ca02c"/>
<circle cx="474.6" cy="422.5" r="3" fill="#2ca02c"/>
<circle cx="492.7" cy="444.1" r="3" fill="#2ca02c"/>
<circle cx="510.8" cy="446.4" r="3" fill="#2ca02c"/>
<circle cx="528.8" cy="402.4" r="3" fill="#2ca02c"/>
<circle cx="546.9" cy="426.0" r="3" fill="#2ca02c"/>
<circle cx="565.0" cy="434.3" r="3" fill="#2ca02c"/>
<circle cx="583.1" cy="421.0" r="3" fill="#2ca02c"/>
<circle cx="601.2" cy="391.9" r="3" fill="#2ca02c"/>
<circle cx="619.2" cy="422.6" r="3" fill="#2ca02c"/>
<circle cx="637.3" cy="428.2" r="3" fill="#2ca02c"/>
<circle cx="655.4" cy="401.4" r="3" fill="#2ca02c"/>
<circle cx="673.5" cy="416.8" r="3" fill="#2ca02c"/>
<circle cx="691.5" cy="411.4" r="3" fill="#2ca02c"/>
<circle cx="709.6" cy="409.0" r="3" fill="#2ca02c"/>
<circle cx="727.7" cy="409.1" r="3" fill="#2ca02c"/>
<circle cx="745.8" cy="404.7" r="3" fill="#2ca02c"/>
<circle cx="763.8" cy="397.1" r="3" fill="#2ca02c"/>
<circle cx="781.9" cy="414.5" r="3" fill="#2ca02c"/>
<circle cx="800.0" cy="418.3" r="3" fill="#2ca02c"/>
<line x1="828" y1="144" x2="850" y2="144" stroke="#2ca02c" stroke-width="2.5"/>
<text x="858" y="148" font-family="Arial" font-size="13">broad_e4_tb256</text>
<polyline fill="none" stroke="#9467bd" stroke-width="2.3" points="95.0,413.4 113.1,419.2 131.2,427.2 149.2,442.1 167.3,447.5 185.4,413.3 203.5,429.6 221.5,417.9 239.6,400.9 257.7,406.9 275.8,453.0 293.8,411.4 311.9,426.7 330.0,425.7 348.1,412.5 366.2,382.9 384.2,388.1 402.3,415.6 420.4,388.8 438.5,335.0 456.5,333.8 474.6,374.8 492.7,375.4 510.8,401.1 528.8,376.7 546.9,397.4 565.0,416.5 583.1,389.9 601.2,353.6 619.2,363.8 637.3,409.1 655.4,379.7 673.5,414.5 691.5,385.3 709.6,400.5 727.7,379.5 745.8,408.0 763.8,371.4 781.9,394.3 800.0,411.5"/>
<circle cx="95.0" cy="413.4" r="3" fill="#9467bd"/>
<circle cx="113.1" cy="419.2" r="3" fill="#9467bd"/>
<circle cx="131.2" cy="427.2" r="3" fill="#9467bd"/>
<circle cx="149.2" cy="442.1" r="3" fill="#9467bd"/>
<circle cx="167.3" cy="447.5" r="3" fill="#9467bd"/>
<circle cx="185.4" cy="413.3" r="3" fill="#9467bd"/>
<circle cx="203.5" cy="429.6" r="3" fill="#9467bd"/>
<circle cx="221.5" cy="417.9" r="3" fill="#9467bd"/>
<circle cx="239.6" cy="400.9" r="3" fill="#9467bd"/>
<circle cx="257.7" cy="406.9" r="3" fill="#9467bd"/>
<circle cx="275.8" cy="453.0" r="3" fill="#9467bd"/>
<circle cx="293.8" cy="411.4" r="3" fill="#9467bd"/>
<circle cx="311.9" cy="426.7" r="3" fill="#9467bd"/>
<circle cx="330.0" cy="425.7" r="3" fill="#9467bd"/>
<circle cx="348.1" cy="412.5" r="3" fill="#9467bd"/>
<circle cx="366.2" cy="382.9" r="3" fill="#9467bd"/>
<circle cx="384.2" cy="388.1" r="3" fill="#9467bd"/>
<circle cx="402.3" cy="415.6" r="3" fill="#9467bd"/>
<circle cx="420.4" cy="388.8" r="3" fill="#9467bd"/>
<circle cx="438.5" cy="335.0" r="3" fill="#9467bd"/>
<circle cx="456.5" cy="333.8" r="3" fill="#9467bd"/>
<circle cx="474.6" cy="374.8" r="3" fill="#9467bd"/>
<circle cx="492.7" cy="375.4" r="3" fill="#9467bd"/>
<circle cx="510.8" cy="401.1" r="3" fill="#9467bd"/>
<circle cx="528.8" cy="376.7" r="3" fill="#9467bd"/>
<circle cx="546.9" cy="397.4" r="3" fill="#9467bd"/>
<circle cx="565.0" cy="416.5" r="3" fill="#9467bd"/>
<circle cx="583.1" cy="389.9" r="3" fill="#9467bd"/>
<circle cx="601.2" cy="353.6" r="3" fill="#9467bd"/>
<circle cx="619.2" cy="363.8" r="3" fill="#9467bd"/>
<circle cx="637.3" cy="409.1" r="3" fill="#9467bd"/>
<circle cx="655.4" cy="379.7" r="3" fill="#9467bd"/>
<circle cx="673.5" cy="414.5" r="3" fill="#9467bd"/>
<circle cx="691.5" cy="385.3" r="3" fill="#9467bd"/>
<circle cx="709.6" cy="400.5" r="3" fill="#9467bd"/>
<circle cx="727.7" cy="379.5" r="3" fill="#9467bd"/>
<circle cx="745.8" cy="408.0" r="3" fill="#9467bd"/>
<circle cx="763.8" cy="371.4" r="3" fill="#9467bd"/>
<circle cx="781.9" cy="394.3" r="3" fill="#9467bd"/>
<circle cx="800.0" cy="411.5" r="3" fill="#9467bd"/>
<line x1="828" y1="168" x2="850" y2="168" stroke="#9467bd" stroke-width="2.5"/>
<text x="858" y="172" font-family="Arial" font-size="13">broad_e4_tb128</text>
<polyline fill="none" stroke="#ff7f0e" stroke-width="2.3" points="95.0,413.4 113.1,425.0 131.2,398.2 149.2,405.0 167.3,453.2 185.4,421.9 203.5,423.0 221.5,411.3 239.6,431.4 257.7,449.9 275.8,437.4 293.8,432.8 311.9,425.7 330.0,427.9 348.1,431.4 366.2,420.1 384.2,394.4 402.3,405.5 420.4,417.8 438.5,412.1 456.5,419.9 474.6,422.9 492.7,400.1 510.8,434.2 528.8,452.5 546.9,438.5 565.0,400.8 583.1,419.2 601.2,430.2 619.2,422.2 637.3,386.0 655.4,422.0 673.5,433.4 691.5,430.3 709.6,419.3 727.7,415.9 745.8,421.2 763.8,435.8 781.9,424.5 800.0,437.2"/>
<circle cx="95.0" cy="413.4" r="3" fill="#ff7f0e"/>
<circle cx="113.1" cy="425.0" r="3" fill="#ff7f0e"/>
<circle cx="131.2" cy="398.2" r="3" fill="#ff7f0e"/>
<circle cx="149.2" cy="405.0" r="3" fill="#ff7f0e"/>
<circle cx="167.3" cy="453.2" r="3" fill="#ff7f0e"/>
<circle cx="185.4" cy="421.9" r="3" fill="#ff7f0e"/>
<circle cx="203.5" cy="423.0" r="3" fill="#ff7f0e"/>
<circle cx="221.5" cy="411.3" r="3" fill="#ff7f0e"/>
<circle cx="239.6" cy="431.4" r="3" fill="#ff7f0e"/>
<circle cx="257.7" cy="449.9" r="3" fill="#ff7f0e"/>
<circle cx="275.8" cy="437.4" r="3" fill="#ff7f0e"/>
<circle cx="293.8" cy="432.8" r="3" fill="#ff7f0e"/>
<circle cx="311.9" cy="425.7" r="3" fill="#ff7f0e"/>
<circle cx="330.0" cy="427.9" r="3" fill="#ff7f0e"/>
<circle cx="348.1" cy="431.4" r="3" fill="#ff7f0e"/>
<circle cx="366.2" cy="420.1" r="3" fill="#ff7f0e"/>
<circle cx="384.2" cy="394.4" r="3" fill="#ff7f0e"/>
<circle cx="402.3" cy="405.5" r="3" fill="#ff7f0e"/>
<circle cx="420.4" cy="417.8" r="3" fill="#ff7f0e"/>
<circle cx="438.5" cy="412.1" r="3" fill="#ff7f0e"/>
<circle cx="456.5" cy="419.9" r="3" fill="#ff7f0e"/>
<circle cx="474.6" cy="422.9" r="3" fill="#ff7f0e"/>
<circle cx="492.7" cy="400.1" r="3" fill="#ff7f0e"/>
<circle cx="510.8" cy="434.2" r="3" fill="#ff7f0e"/>
<circle cx="528.8" cy="452.5" r="3" fill="#ff7f0e"/>
<circle cx="546.9" cy="438.5" r="3" fill="#ff7f0e"/>
<circle cx="565.0" cy="400.8" r="3" fill="#ff7f0e"/>
<circle cx="583.1" cy="419.2" r="3" fill="#ff7f0e"/>
<circle cx="601.2" cy="430.2" r="3" fill="#ff7f0e"/>
<circle cx="619.2" cy="422.2" r="3" fill="#ff7f0e"/>
<circle cx="637.3" cy="386.0" r="3" fill="#ff7f0e"/>
<circle cx="655.4" cy="422.0" r="3" fill="#ff7f0e"/>
<circle cx="673.5" cy="433.4" r="3" fill="#ff7f0e"/>
<circle cx="691.5" cy="430.3" r="3" fill="#ff7f0e"/>
<circle cx="709.6" cy="419.3" r="3" fill="#ff7f0e"/>
<circle cx="727.7" cy="415.9" r="3" fill="#ff7f0e"/>
<circle cx="745.8" cy="421.2" r="3" fill="#ff7f0e"/>
<circle cx="763.8" cy="435.8" r="3" fill="#ff7f0e"/>
<circle cx="781.9" cy="424.5" r="3" fill="#ff7f0e"/>
<circle cx="800.0" cy="437.2" r="3" fill="#ff7f0e"/>
<line x1="828" y1="192" x2="850" y2="192" stroke="#ff7f0e" stroke-width="2.5"/>
<text x="858" y="196" font-family="Arial" font-size="13">broad_e2_tb64</text>
<polyline fill="none" stroke="#17becf" stroke-width="2.3" points="95.0,413.4 113.1,306.4 131.2,396.7 149.2,384.7 167.3,439.7 185.4,422.2 203.5,431.9 221.5,426.7 239.6,456.3 257.7,463.0 275.8,454.4 293.8,419.1 311.9,444.0 330.0,428.5 348.1,424.2 366.2,411.6 384.2,384.9 402.3,410.4 420.4,393.2 438.5,406.9 456.5,392.1 474.6,413.6 492.7,395.5 510.8,418.6 528.8,419.6 546.9,429.1 565.0,391.8 583.1,404.3 601.2,413.8 619.2,421.5 637.3,398.7 655.4,422.6 673.5,423.7 691.5,409.8 709.6,411.8 727.7,370.8 745.8,399.1 763.8,407.7 781.9,401.6 800.0,423.8"/>
<circle cx="95.0" cy="413.4" r="3" fill="#17becf"/>
<circle cx="113.1" cy="306.4" r="3" fill="#17becf"/>
<circle cx="131.2" cy="396.7" r="3" fill="#17becf"/>
<circle cx="149.2" cy="384.7" r="3" fill="#17becf"/>
<circle cx="167.3" cy="439.7" r="3" fill="#17becf"/>
<circle cx="185.4" cy="422.2" r="3" fill="#17becf"/>
<circle cx="203.5" cy="431.9" r="3" fill="#17becf"/>
<circle cx="221.5" cy="426.7" r="3" fill="#17becf"/>
<circle cx="239.6" cy="456.3" r="3" fill="#17becf"/>
<circle cx="257.7" cy="463.0" r="3" fill="#17becf"/>
<circle cx="275.8" cy="454.4" r="3" fill="#17becf"/>
<circle cx="293.8" cy="419.1" r="3" fill="#17becf"/>
<circle cx="311.9" cy="444.0" r="3" fill="#17becf"/>
<circle cx="330.0" cy="428.5" r="3" fill="#17becf"/>
<circle cx="348.1" cy="424.2" r="3" fill="#17becf"/>
<circle cx="366.2" cy="411.6" r="3" fill="#17becf"/>
<circle cx="384.2" cy="384.9" r="3" fill="#17becf"/>
<circle cx="402.3" cy="410.4" r="3" fill="#17becf"/>
<circle cx="420.4" cy="393.2" r="3" fill="#17becf"/>
<circle cx="438.5" cy="406.9" r="3" fill="#17becf"/>
<circle cx="456.5" cy="392.1" r="3" fill="#17becf"/>
<circle cx="474.6" cy="413.6" r="3" fill="#17becf"/>
<circle cx="492.7" cy="395.5" r="3" fill="#17becf"/>
<circle cx="510.8" cy="418.6" r="3" fill="#17becf"/>
<circle cx="528.8" cy="419.6" r="3" fill="#17becf"/>
<circle cx="546.9" cy="429.1" r="3" fill="#17becf"/>
<circle cx="565.0" cy="391.8" r="3" fill="#17becf"/>
<circle cx="583.1" cy="404.3" r="3" fill="#17becf"/>
<circle cx="601.2" cy="413.8" r="3" fill="#17becf"/>
<circle cx="619.2" cy="421.5" r="3" fill="#17becf"/>
<circle cx="637.3" cy="398.7" r="3" fill="#17becf"/>
<circle cx="655.4" cy="422.6" r="3" fill="#17becf"/>
<circle cx="673.5" cy="423.7" r="3" fill="#17becf"/>
<circle cx="691.5" cy="409.8" r="3" fill="#17becf"/>
<circle cx="709.6" cy="411.8" r="3" fill="#17becf"/>
<circle cx="727.7" cy="370.8" r="3" fill="#17becf"/>
<circle cx="745.8" cy="399.1" r="3" fill="#17becf"/>
<circle cx="763.8" cy="407.7" r="3" fill="#17becf"/>
<circle cx="781.9" cy="401.6" r="3" fill="#17becf"/>
<circle cx="800.0" cy="423.8" r="3" fill="#17becf"/>
<line x1="828" y1="216" x2="850" y2="216" stroke="#17becf" stroke-width="2.5"/>
<text x="858" y="220" font-family="Arial" font-size="13">broad_e2_tb32</text>
<polyline fill="none" stroke="#8c564b" stroke-width="2.3" points="95.0,413.4 113.1,439.0 131.2,448.9 149.2,412.5 167.3,366.6 185.4,363.3 203.5,376.5 221.5,358.9 239.6,392.3 257.7,365.2 275.8,355.6 293.8,348.6 311.9,351.0 330.0,380.3 348.1,329.3 366.2,353.7 384.2,388.0 402.3,365.6 420.4,451.6 438.5,501.0 456.5,545.4 474.6,564.0 492.7,569.4 510.8,574.5 528.8,572.2 546.9,571.7 565.0,553.5 583.1,574.5 601.2,575.3 619.2,575.3 637.3,575.3 655.4,575.3 673.5,575.3 691.5,575.3 709.6,575.3 727.7,575.3 745.8,575.3 763.8,575.3 781.9,575.3 800.0,575.3"/>
<circle cx="95.0" cy="413.4" r="3" fill="#8c564b"/>
<circle cx="113.1" cy="439.0" r="3" fill="#8c564b"/>
<circle cx="131.2" cy="448.9" r="3" fill="#8c564b"/>
<circle cx="149.2" cy="412.5" r="3" fill="#8c564b"/>
<circle cx="167.3" cy="366.6" r="3" fill="#8c564b"/>
<circle cx="185.4" cy="363.3" r="3" fill="#8c564b"/>
<circle cx="203.5" cy="376.5" r="3" fill="#8c564b"/>
<circle cx="221.5" cy="358.9" r="3" fill="#8c564b"/>
<circle cx="239.6" cy="392.3" r="3" fill="#8c564b"/>
<circle cx="257.7" cy="365.2" r="3" fill="#8c564b"/>
<circle cx="275.8" cy="355.6" r="3" fill="#8c564b"/>
<circle cx="293.8" cy="348.6" r="3" fill="#8c564b"/>
<circle cx="311.9" cy="351.0" r="3" fill="#8c564b"/>
<circle cx="330.0" cy="380.3" r="3" fill="#8c564b"/>
<circle cx="348.1" cy="329.3" r="3" fill="#8c564b"/>
<circle cx="366.2" cy="353.7" r="3" fill="#8c564b"/>
<circle cx="384.2" cy="388.0" r="3" fill="#8c564b"/>
<circle cx="402.3" cy="365.6" r="3" fill="#8c564b"/>
<circle cx="420.4" cy="451.6" r="3" fill="#8c564b"/>
<circle cx="438.5" cy="501.0" r="3" fill="#8c564b"/>
<circle cx="456.5" cy="545.4" r="3" fill="#8c564b"/>
<circle cx="474.6" cy="564.0" r="3" fill="#8c564b"/>
<circle cx="492.7" cy="569.4" r="3" fill="#8c564b"/>
<circle cx="510.8" cy="574.5" r="3" fill="#8c564b"/>
<circle cx="528.8" cy="572.2" r="3" fill="#8c564b"/>
<circle cx="546.9" cy="571.7" r="3" fill="#8c564b"/>
<circle cx="565.0" cy="553.5" r="3" fill="#8c564b"/>
<circle cx="583.1" cy="574.5" r="3" fill="#8c564b"/>
<circle cx="601.2" cy="575.3" r="3" fill="#8c564b"/>
<circle cx="619.2" cy="575.3" r="3" fill="#8c564b"/>
<circle cx="637.3" cy="575.3" r="3" fill="#8c564b"/>
<circle cx="655.4" cy="575.3" r="3" fill="#8c564b"/>
<circle cx="673.5" cy="575.3" r="3" fill="#8c564b"/>
<circle cx="691.5" cy="575.3" r="3" fill="#8c564b"/>
<circle cx="709.6" cy="575.3" r="3" fill="#8c564b"/>
<circle cx="727.7" cy="575.3" r="3" fill="#8c564b"/>
<circle cx="745.8" cy="575.3" r="3" fill="#8c564b"/>
<circle cx="763.8" cy="575.3" r="3" fill="#8c564b"/>
<circle cx="781.9" cy="575.3" r="3" fill="#8c564b"/>
<circle cx="800.0" cy="575.3" r="3" fill="#8c564b"/>
<line x1="828" y1="240" x2="850" y2="240" stroke="#8c564b" stroke-width="2.5"/>
<text x="858" y="244" font-family="Arial" font-size="13">broad_e8_tb256</text>
<polyline fill="none" stroke="#e377c2" stroke-width="2.3" points="95.0,413.4 113.1,388.0 131.2,324.3 149.2,259.6 167.3,212.8 185.4,169.8 203.5,138.1 221.5,155.1 239.6,113.4 257.7,102.1 275.8,94.5 293.8,74.3 311.9,84.3 330.0,85.0 348.1,74.1 366.2,100.1 384.2,174.7 402.3,132.9 420.4,117.9 438.5,123.8 456.5,120.1 474.6,123.2 492.7,127.3 510.8,135.3 528.8,108.8 546.9,106.8 565.0,137.2 583.1,104.2 601.2,101.1 619.2,92.8 637.3,107.6 655.4,108.8 673.5,125.1 691.5,102.5 709.6,111.8 727.7,119.8 745.8,160.4 763.8,145.1 781.9,162.9 800.0,146.4"/>
<circle cx="95.0" cy="413.4" r="3" fill="#e377c2"/>
<circle cx="113.1" cy="388.0" r="3" fill="#e377c2"/>
<circle cx="131.2" cy="324.3" r="3" fill="#e377c2"/>
<circle cx="149.2" cy="259.6" r="3" fill="#e377c2"/>
<circle cx="167.3" cy="212.8" r="3" fill="#e377c2"/>
<circle cx="185.4" cy="169.8" r="3" fill="#e377c2"/>
<circle cx="203.5" cy="138.1" r="3" fill="#e377c2"/>
<circle cx="221.5" cy="155.1" r="3" fill="#e377c2"/>
<circle cx="239.6" cy="113.4" r="3" fill="#e377c2"/>
<circle cx="257.7" cy="102.1" r="3" fill="#e377c2"/>
<circle cx="275.8" cy="94.5" r="3" fill="#e377c2"/>
<circle cx="293.8" cy="74.3" r="3" fill="#e377c2"/>
<circle cx="311.9" cy="84.3" r="3" fill="#e377c2"/>
<circle cx="330.0" cy="85.0" r="3" fill="#e377c2"/>
<circle cx="348.1" cy="74.1" r="3" fill="#e377c2"/>
<circle cx="366.2" cy="100.1" r="3" fill="#e377c2"/>
<circle cx="384.2" cy="174.7" r="3" fill="#e377c2"/>
<circle cx="402.3" cy="132.9" r="3" fill="#e377c2"/>
<circle cx="420.4" cy="117.9" r="3" fill="#e377c2"/>
<circle cx="438.5" cy="123.8" r="3" fill="#e377c2"/>
<circle cx="456.5" cy="120.1" r="3" fill="#e377c2"/>
<circle cx="474.6" cy="123.2" r="3" fill="#e377c2"/>
<circle cx="492.7" cy="127.3" r="3" fill="#e377c2"/>
<circle cx="510.8" cy="135.3" r="3" fill="#e377c2"/>
<circle cx="528.8" cy="108.8" r="3" fill="#e377c2"/>
<circle cx="546.9" cy="106.8" r="3" fill="#e377c2"/>
<circle cx="565.0" cy="137.2" r="3" fill="#e377c2"/>
<circle cx="583.1" cy="104.2" r="3" fill="#e377c2"/>
<circle cx="601.2" cy="101.1" r="3" fill="#e377c2"/>
<circle cx="619.2" cy="92.8" r="3" fill="#e377c2"/>
<circle cx="637.3" cy="107.6" r="3" fill="#e377c2"/>
<circle cx="655.4" cy="108.8" r="3" fill="#e377c2"/>
<circle cx="673.5" cy="125.1" r="3" fill="#e377c2"/>
<circle cx="691.5" cy="102.5" r="3" fill="#e377c2"/>
<circle cx="709.6" cy="111.8" r="3" fill="#e377c2"/>
<circle cx="727.7" cy="119.8" r="3" fill="#e377c2"/>
<circle cx="745.8" cy="160.4" r="3" fill="#e377c2"/>
<circle cx="763.8" cy="145.1" r="3" fill="#e377c2"/>
<circle cx="781.9" cy="162.9" r="3" fill="#e377c2"/>
<circle cx="800.0" cy="146.4" r="3" fill="#e377c2"/>
<line x1="828" y1="264" x2="850" y2="264" stroke="#e377c2" stroke-width="2.5"/>
<text x="858" y="268" font-family="Arial" font-size="13">broad_e16_tb256</text>
<text x="447.5" y="638" text-anchor="middle" font-family="Arial" font-size="15">GRPO step</text>
<text x="24" y="326.0" text-anchor="middle" font-family="Arial" font-size="15" transform="rotate(-90 24 326.0)">Average rollout response tokens</text>
</svg>
