<svg xmlns="http://www.w3.org/2000/svg" width="1040" height="640" viewBox="0 0 1040 640">
<rect width="100%" height="100%" fill="white"/>
<text x="520.0" y="36" text-anchor="middle" font-family="Arial" font-size="22" font-weight="700">GRPO Learning-Rate Sweep: Validation Answer Reward</text>
<line x1="95" y1="558" x2="780" y2="558" stroke="#222" stroke-width="1.5"/>
<line x1="95" y1="74" x2="95" y2="558" stroke="#222" stroke-width="1.5"/>
<line x1="90" y1="558.0" x2="780" y2="558.0" stroke="#ddd" stroke-width="1"/>
<text x="83" y="562.0" text-anchor="end" font-family="Arial" font-size="12">0.00</text>
<line x1="90" y1="461.2" x2="780" y2="461.2" stroke="#ddd" stroke-width="1"/>
<text x="83" y="465.2" text-anchor="end" font-family="Arial" font-size="12">0.16</text>
<line x1="90" y1="364.4" x2="780" y2="364.4" stroke="#ddd" stroke-width="1"/>
<text x="83" y="368.4" text-anchor="end" font-family="Arial" font-size="12">0.32</text>
<line x1="90" y1="267.6" x2="780" y2="267.6" stroke="#ddd" stroke-width="1"/>
<text x="83" y="271.6" text-anchor="end" font-family="Arial" font-size="12">0.48</text>
<line x1="90" y1="170.8" x2="780" y2="170.8" stroke="#ddd" stroke-width="1"/>
<text x="83" y="174.8" text-anchor="end" font-family="Arial" font-size="12">0.64</text>
<line x1="90" y1="74.0" x2="780" y2="74.0" stroke="#ddd" stroke-width="1"/>
<text x="83" y="78.0" text-anchor="end" font-family="Arial" font-size="12">0.80</text>
<line x1="95.0" y1="558" x2="95.0" y2="563" stroke="#222" stroke-width="1"/>
<text x="95.0" y="582" text-anchor="middle" font-family="Arial" font-size="12">0</text>
<line x1="232.0" y1="558" x2="232.0" y2="563" stroke="#222" stroke-width="1"/>
<text x="232.0" y="582" text-anchor="middle" font-family="Arial" font-size="12">40</text>
<line x1="369.0" y1="558" x2="369.0" y2="563" stroke="#222" stroke-width="1"/>
<text x="369.0" y="582" text-anchor="middle" font-family="Arial" font-size="12">80</text>
<line x1="506.0" y1="558" x2="506.0" y2="563" stroke="#222" stroke-width="1"/>
<text x="506.0" y="582" text-anchor="middle" font-family="Arial" font-size="12">120</text>
<line x1="643.0" y1="558" x2="643.0" y2="563" stroke="#222" stroke-width="1"/>
<text x="643.0" y="582" text-anchor="middle" font-family="Arial" font-size="12">160</text>
<line x1="780.0" y1="558" x2="780.0" y2="563" stroke="#222" stroke-width="1"/>
<text x="780.0" y="582" text-anchor="middle" font-family="Arial" font-size="12">200</text>
<polyline fill="none" stroke="#1f77b4" stroke-width="2.3" points="95.0,535.0 112.1,531.4 129.2,533.8 146.4,540.9 163.5,537.9 180.6,534.4 197.8,532.6 214.9,530.8"/>
<circle cx="95.0" cy="535.0" r="3" fill="#1f77b4"/>
<circle cx="112.1" cy="531.4" r="3" fill="#1f77b4"/>
<circle cx="129.2" cy="533.8" r="3" fill="#1f77b4"/>
<circle cx="146.4" cy="540.9" r="3" fill="#1f77b4"/>
<circle cx="163.5" cy="537.9" r="3" fill="#1f77b4"/>
<circle cx="180.6" cy="534.4" r="3" fill="#1f77b4"/>
<circle cx="197.8" cy="532.6" r="3" fill="#1f77b4"/>
<circle cx="214.9" cy="530.8" r="3" fill="#1f77b4"/>
<line x1="808" y1="96" x2="830" y2="96" stroke="#1f77b4" stroke-width="2.5"/>
<text x="838" y="100" font-family="Arial" font-size="13">lr=3e-6 (stopped)</text>
<polyline fill="none" stroke="#d62728" stroke-width="2.3" points="95.0,535.0 112.1,533.8 129.2,524.9 146.4,526.7 163.5,519.6 180.6,524.9 197.8,523.1 214.9,522.6 232.0,520.2 249.1,513.1 266.2,513.1 283.4,513.7 300.5,507.2 317.6,504.2 334.8,502.5 351.9,513.1 369.0,501.3 386.1,496.0 403.2,511.3 420.4,498.9 437.5,500.7 454.6,491.8 471.8,493.6 488.9,485.3 506.0,496.0 523.1,483.6 540.2,486.5 557.4,479.4 574.5,494.8 591.6,485.9 608.8,477.1 625.9,485.9 643.0,481.2 660.1,487.7 677.2,474.1 694.4,493.6 711.5,481.2 728.6,485.9 745.8,486.5 762.9,485.3 780.0,469.4"/>
<circle cx="95.0" cy="535.0" r="3" fill="#d62728"/>
<circle cx="112.1" cy="533.8" r="3" fill="#d62728"/>
<circle cx="129.2" cy="524.9" r="3" fill="#d62728"/>
<circle cx="146.4" cy="526.7" r="3" fill="#d62728"/>
<circle cx="163.5" cy="519.6" r="3" fill="#d62728"/>
<circle cx="180.6" cy="524.9" r="3" fill="#d62728"/>
<circle cx="197.8" cy="523.1" r="3" fill="#d62728"/>
<circle cx="214.9" cy="522.6" r="3" fill="#d62728"/>
<circle cx="232.0" cy="520.2" r="3" fill="#d62728"/>
<circle cx="249.1" cy="513.1" r="3" fill="#d62728"/>
<circle cx="266.2" cy="513.1" r="3" fill="#d62728"/>
<circle cx="283.4" cy="513.7" r="3" fill="#d62728"/>
<circle cx="300.5" cy="507.2" r="3" fill="#d62728"/>
<circle cx="317.6" cy="504.2" r="3" fill="#d62728"/>
<circle cx="334.8" cy="502.5" r="3" fill="#d62728"/>
<circle cx="351.9" cy="513.1" r="3" fill="#d62728"/>
<circle cx="369.0" cy="501.3" r="3" fill="#d62728"/>
<circle cx="386.1" cy="496.0" r="3" fill="#d62728"/>
<circle cx="403.2" cy="511.3" r="3" fill="#d62728"/>
<circle cx="420.4" cy="498.9" r="3" fill="#d62728"/>
<circle cx="437.5" cy="500.7" r="3" fill="#d62728"/>
<circle cx="454.6" cy="491.8" r="3" fill="#d62728"/>
<circle cx="471.8" cy="493.6" r="3" fill="#d62728"/>
<circle cx="488.9" cy="485.3" r="3" fill="#d62728"/>
<circle cx="506.0" cy="496.0" r="3" fill="#d62728"/>
<circle cx="523.1" cy="483.6" r="3" fill="#d62728"/>
<circle cx="540.2" cy="486.5" r="3" fill="#d62728"/>
<circle cx="557.4" cy="479.4" r="3" fill="#d62728"/>
<circle cx="574.5" cy="494.8" r="3" fill="#d62728"/>
<circle cx="591.6" cy="485.9" r="3" fill="#d62728"/>
<circle cx="608.8" cy="477.1" r="3" fill="#d62728"/>
<circle cx="625.9" cy="485.9" r="3" fill="#d62728"/>
<circle cx="643.0" cy="481.2" r="3" fill="#d62728"/>
<circle cx="660.1" cy="487.7" r="3" fill="#d62728"/>
<circle cx="677.2" cy="474.1" r="3" fill="#d62728"/>
<circle cx="694.4" cy="493.6" r="3" fill="#d62728"/>
<circle cx="711.5" cy="481.2" r="3" fill="#d62728"/>
<circle cx="728.6" cy="485.9" r="3" fill="#d62728"/>
<circle cx="745.8" cy="486.5" r="3" fill="#d62728"/>
<circle cx="762.9" cy="485.3" r="3" fill="#d62728"/>
<circle cx="780.0" cy="469.4" r="3" fill="#d62728"/>
<line x1="808" y1="121" x2="830" y2="121" stroke="#d62728" stroke-width="2.5"/>
<text x="838" y="125" font-family="Arial" font-size="13">lr=5e-6</text>
<polyline fill="none" stroke="#2ca02c" stroke-width="2.3" points="95.0,535.0 112.1,520.8 129.2,520.8 146.4,496.6 163.5,502.5 180.6,490.1 197.8,478.8 214.9,477.1 232.0,461.7 249.1,464.7 266.2,452.2 283.4,436.3 300.5,442.8 317.6,438.7 334.8,442.2 351.9,419.7 369.0,425.1 386.1,429.2 403.2,421.5 420.4,422.1 437.5,410.3 454.6,413.8 471.8,428.6 488.9,399.1 506.0,416.2 523.1,413.2 540.2,416.8 557.4,416.2 574.5,394.9 591.6,406.8 608.8,399.1 625.9,402.6 643.0,409.1 660.1,384.9 677.2,407.9 694.4,395.5 711.5,380.8 728.6,403.2 745.8,398.5 762.9,381.9 780.0,393.8"/>
<circle cx="95.0" cy="535.0" r="3" fill="#2ca02c"/>
<circle cx="112.1" cy="520.8" r="3" fill="#2ca02c"/>
<circle cx="129.2" cy="520.8" r="3" fill="#2ca02c"/>
<circle cx="146.4" cy="496.6" r="3" fill="#2ca02c"/>
<circle cx="163.5" cy="502.5" r="3" fill="#2ca02c"/>
<circle cx="180.6" cy="490.1" r="3" fill="#2ca02c"/>
<circle cx="197.8" cy="478.8" r="3" fill="#2ca02c"/>
<circle cx="214.9" cy="477.1" r="3" fill="#2ca02c"/>
<circle cx="232.0" cy="461.7" r="3" fill="#2ca02c"/>
<circle cx="249.1" cy="464.7" r="3" fill="#2ca02c"/>
<circle cx="266.2" cy="452.2" r="3" fill="#2ca02c"/>
<circle cx="283.4" cy="436.3" r="3" fill="#2ca02c"/>
<circle cx="300.5" cy="442.8" r="3" fill="#2ca02c"/>
<circle cx="317.6" cy="438.7" r="3" fill="#2ca02c"/>
<circle cx="334.8" cy="442.2" r="3" fill="#2ca02c"/>
<circle cx="351.9" cy="419.7" r="3" fill="#2ca02c"/>
<circle cx="369.0" cy="425.1" r="3" fill="#2ca02c"/>
<circle cx="386.1" cy="429.2" r="3" fill="#2ca02c"/>
<circle cx="403.2" cy="421.5" r="3" fill="#2ca02c"/>
<circle cx="420.4" cy="422.1" r="3" fill="#2ca02c"/>
<circle cx="437.5" cy="410.3" r="3" fill="#2ca02c"/>
<circle cx="454.6" cy="413.8" r="3" fill="#2ca02c"/>
<circle cx="471.8" cy="428.6" r="3" fill="#2ca02c"/>
<circle cx="488.9" cy="399.1" r="3" fill="#2ca02c"/>
<circle cx="506.0" cy="416.2" r="3" fill="#2ca02c"/>
<circle cx="523.1" cy="413.2" r="3" fill="#2ca02c"/>
<circle cx="540.2" cy="416.8" r="3" fill="#2ca02c"/>
<circle cx="557.4" cy="416.2" r="3" fill="#2ca02c"/>
<circle cx="574.5" cy="394.9" r="3" fill="#2ca02c"/>
<circle cx="591.6" cy="406.8" r="3" fill="#2ca02c"/>
<circle cx="608.8" cy="399.1" r="3" fill="#2ca02c"/>
<circle cx="625.9" cy="402.6" r="3" fill="#2ca02c"/>
<circle cx="643.0" cy="409.1" r="3" fill="#2ca02c"/>
<circle cx="660.1" cy="384.9" r="3" fill="#2ca02c"/>
<circle cx="677.2" cy="407.9" r="3" fill="#2ca02c"/>
<circle cx="694.4" cy="395.5" r="3" fill="#2ca02c"/>
<circle cx="711.5" cy="380.8" r="3" fill="#2ca02c"/>
<circle cx="728.6" cy="403.2" r="3" fill="#2ca02c"/>
<circle cx="745.8" cy="398.5" r="3" fill="#2ca02c"/>
<circle cx="762.9" cy="381.9" r="3" fill="#2ca02c"/>
<circle cx="780.0" cy="393.8" r="3" fill="#2ca02c"/>
<line x1="808" y1="146" x2="830" y2="146" stroke="#2ca02c" stroke-width="2.5"/>
<text x="838" y="150" font-family="Arial" font-size="13">lr=1e-5</text>
<polyline fill="none" stroke="#9467bd" stroke-width="2.3" points="95.0,535.0 112.1,498.3 129.2,457.6 146.4,452.8 163.5,431.6 180.6,422.1 197.8,392.6 214.9,389.0 232.0,392.6 249.1,392.6 266.2,377.2 283.4,392.0 300.5,381.9 317.6,380.8 334.8,373.1 351.9,376.0 369.0,355.3 386.1,363.6 403.2,360.1 420.4,356.5 437.5,359.5 454.6,363.6 471.8,349.4 488.9,356.5 506.0,361.3 523.1,352.4 540.2,345.9 557.4,344.7 574.5,341.2 591.6,344.1 608.8,340.0 625.9,332.9 643.0,357.1 660.1,348.8 677.2,360.1 694.4,344.1 711.5,342.4 728.6,370.1 745.8,364.8 762.9,350.0 780.0,351.2"/>
<circle cx="95.0" cy="535.0" r="3" fill="#9467bd"/>
<circle cx="112.1" cy="498.3" r="3" fill="#9467bd"/>
<circle cx="129.2" cy="457.6" r="3" fill="#9467bd"/>
<circle cx="146.4" cy="452.8" r="3" fill="#9467bd"/>
<circle cx="163.5" cy="431.6" r="3" fill="#9467bd"/>
<circle cx="180.6" cy="422.1" r="3" fill="#9467bd"/>
<circle cx="197.8" cy="392.6" r="3" fill="#9467bd"/>
<circle cx="214.9" cy="389.0" r="3" fill="#9467bd"/>
<circle cx="232.0" cy="392.6" r="3" fill="#9467bd"/>
<circle cx="249.1" cy="392.6" r="3" fill="#9467bd"/>
<circle cx="266.2" cy="377.2" r="3" fill="#9467bd"/>
<circle cx="283.4" cy="392.0" r="3" fill="#9467bd"/>
<circle cx="300.5" cy="381.9" r="3" fill="#9467bd"/>
<circle cx="317.6" cy="380.8" r="3" fill="#9467bd"/>
<circle cx="334.8" cy="373.1" r="3" fill="#9467bd"/>
<circle cx="351.9" cy="376.0" r="3" fill="#9467bd"/>
<circle cx="369.0" cy="355.3" r="3" fill="#9467bd"/>
<circle cx="386.1" cy="363.6" r="3" fill="#9467bd"/>
<circle cx="403.2" cy="360.1" r="3" fill="#9467bd"/>
<circle cx="420.4" cy="356.5" r="3" fill="#9467bd"/>
<circle cx="437.5" cy="359.5" r="3" fill="#9467bd"/>
<circle cx="454.6" cy="363.6" r="3" fill="#9467bd"/>
<circle cx="471.8" cy="349.4" r="3" fill="#9467bd"/>
<circle cx="488.9" cy="356.5" r="3" fill="#9467bd"/>
<circle cx="506.0" cy="361.3" r="3" fill="#9467bd"/>
<circle cx="523.1" cy="352.4" r="3" fill="#9467bd"/>
<circle cx="540.2" cy="345.9" r="3" fill="#9467bd"/>
<circle cx="557.4" cy="344.7" r="3" fill="#9467bd"/>
<circle cx="574.5" cy="341.2" r="3" fill="#9467bd"/>
<circle cx="591.6" cy="344.1" r="3" fill="#9467bd"/>
<circle cx="608.8" cy="340.0" r="3" fill="#9467bd"/>
<circle cx="625.9" cy="332.9" r="3" fill="#9467bd"/>
<circle cx="643.0" cy="357.1" r="3" fill="#9467bd"/>
<circle cx="660.1" cy="348.8" r="3" fill="#9467bd"/>
<circle cx="677.2" cy="360.1" r="3" fill="#9467bd"/>
<circle cx="694.4" cy="344.1" r="3" fill="#9467bd"/>
<circle cx="711.5" cy="342.4" r="3" fill="#9467bd"/>
<circle cx="728.6" cy="370.1" r="3" fill="#9467bd"/>
<circle cx="745.8" cy="364.8" r="3" fill="#9467bd"/>
<circle cx="762.9" cy="350.0" r="3" fill="#9467bd"/>
<circle cx="780.0" cy="351.2" r="3" fill="#9467bd"/>
<line x1="808" y1="171" x2="830" y2="171" stroke="#9467bd" stroke-width="2.5"/>
<text x="838" y="175" font-family="Arial" font-size="13">lr=2e-5</text>
<polyline fill="none" stroke="#ff7f0e" stroke-width="2.3" points="95.0,535.0 112.1,474.7 129.2,442.8 146.4,410.9 163.5,391.4 180.6,378.4 197.8,386.1 214.9,363.0 232.0,379.6 249.1,355.9 266.2,364.2 283.4,355.3 300.5,335.9 317.6,338.8 334.8,334.1 351.9,337.6 369.0,309.3 386.1,299.2 403.2,298.0 420.4,308.1 437.5,302.8 454.6,307.5 471.8,299.8 488.9,301.0 506.0,309.3 523.1,300.4 540.2,307.5 557.4,287.4 574.5,284.5 591.6,267.9 608.8,267.9 625.9,257.9 643.0,252.0 660.1,227.7 677.2,241.9 694.4,250.8 711.5,243.1 728.6,244.9 745.8,220.6 762.9,228.9 780.0,225.4"/>
<circle cx="95.0" cy="535.0" r="3" fill="#ff7f0e"/>
<circle cx="112.1" cy="474.7" r="3" fill="#ff7f0e"/>
<circle cx="129.2" cy="442.8" r="3" fill="#ff7f0e"/>
<circle cx="146.4" cy="410.9" r="3" fill="#ff7f0e"/>
<circle cx="163.5" cy="391.4" r="3" fill="#ff7f0e"/>
<circle cx="180.6" cy="378.4" r="3" fill="#ff7f0e"/>
<circle cx="197.8" cy="386.1" r="3" fill="#ff7f0e"/>
<circle cx="214.9" cy="363.0" r="3" fill="#ff7f0e"/>
<circle cx="232.0" cy="379.6" r="3" fill="#ff7f0e"/>
<circle cx="249.1" cy="355.9" r="3" fill="#ff7f0e"/>
<circle cx="266.2" cy="364.2" r="3" fill="#ff7f0e"/>
<circle cx="283.4" cy="355.3" r="3" fill="#ff7f0e"/>
<circle cx="300.5" cy="335.9" r="3" fill="#ff7f0e"/>
<circle cx="317.6" cy="338.8" r="3" fill="#ff7f0e"/>
<circle cx="334.8" cy="334.1" r="3" fill="#ff7f0e"/>
<circle cx="351.9" cy="337.6" r="3" fill="#ff7f0e"/>
<circle cx="369.0" cy="309.3" r="3" fill="#ff7f0e"/>
<circle cx="386.1" cy="299.2" r="3" fill="#ff7f0e"/>
<circle cx="403.2" cy="298.0" r="3" fill="#ff7f0e"/>
<circle cx="420.4" cy="308.1" r="3" fill="#ff7f0e"/>
<circle cx="437.5" cy="302.8" r="3" fill="#ff7f0e"/>
<circle cx="454.6" cy="307.5" r="3" fill="#ff7f0e"/>
<circle cx="471.8" cy="299.8" r="3" fill="#ff7f0e"/>
<circle cx="488.9" cy="301.0" r="3" fill="#ff7f0e"/>
<circle cx="506.0" cy="309.3" r="3" fill="#ff7f0e"/>
<circle cx="523.1" cy="300.4" r="3" fill="#ff7f0e"/>
<circle cx="540.2" cy="307.5" r="3" fill="#ff7f0e"/>
<circle cx="557.4" cy="287.4" r="3" fill="#ff7f0e"/>
<circle cx="574.5" cy="284.5" r="3" fill="#ff7f0e"/>
<circle cx="591.6" cy="267.9" r="3" fill="#ff7f0e"/>
<circle cx="608.8" cy="267.9" r="3" fill="#ff7f0e"/>
<circle cx="625.9" cy="257.9" r="3" fill="#ff7f0e"/>
<circle cx="643.0" cy="252.0" r="3" fill="#ff7f0e"/>
<circle cx="660.1" cy="227.7" r="3" fill="#ff7f0e"/>
<circle cx="677.2" cy="241.9" r="3" fill="#ff7f0e"/>
<circle cx="694.4" cy="250.8" r="3" fill="#ff7f0e"/>
<circle cx="711.5" cy="243.1" r="3" fill="#ff7f0e"/>
<circle cx="728.6" cy="244.9" r="3" fill="#ff7f0e"/>
<circle cx="745.8" cy="220.6" r="3" fill="#ff7f0e"/>
<circle cx="762.9" cy="228.9" r="3" fill="#ff7f0e"/>
<circle cx="780.0" cy="225.4" r="3" fill="#ff7f0e"/>
<line x1="808" y1="196" x2="830" y2="196" stroke="#ff7f0e" stroke-width="2.5"/>
<text x="838" y="200" font-family="Arial" font-size="13">lr=3e-5</text>
<polyline fill="none" stroke="#17becf" stroke-width="2.3" points="95.0,535.0 112.1,401.4 129.2,341.8 146.4,281.5 163.5,208.8 180.6,209.4 197.8,180.5 214.9,183.4 232.0,179.9 249.1,169.8 266.2,149.7 283.4,135.6 300.5,146.2 317.6,132.6 334.8,114.9 351.9,107.8 369.0,115.5 386.1,125.5 403.2,126.1 420.4,132.6 437.5,120.2 454.6,125.5 471.8,127.9 488.9,128.5 506.0,116.1 523.1,110.2 540.2,123.7 557.4,126.1 574.5,129.1 591.6,123.2 608.8,120.8 625.9,126.7 643.0,114.3 660.1,119.0 677.2,109.6 694.4,117.8 711.5,132.6 728.6,148.0 745.8,127.3 762.9,122.0 780.0,134.4"/>
<circle cx="95.0" cy="535.0" r="3" fill="#17becf"/>
<circle cx="112.1" cy="401.4" r="3" fill="#17becf"/>
<circle cx="129.2" cy="341.8" r="3" fill="#17becf"/>
<circle cx="146.4" cy="281.5" r="3" fill="#17becf"/>
<circle cx="163.5" cy="208.8" r="3" fill="#17becf"/>
<circle cx="180.6" cy="209.4" r="3" fill="#17becf"/>
<circle cx="197.8" cy="180.5" r="3" fill="#17becf"/>
<circle cx="214.9" cy="183.4" r="3" fill="#17becf"/>
<circle cx="232.0" cy="179.9" r="3" fill="#17becf"/>
<circle cx="249.1" cy="169.8" r="3" fill="#17becf"/>
<circle cx="266.2" cy="149.7" r="3" fill="#17becf"/>
<circle cx="283.4" cy="135.6" r="3" fill="#17becf"/>
<circle cx="300.5" cy="146.2" r="3" fill="#17becf"/>
<circle cx="317.6" cy="132.6" r="3" fill="#17becf"/>
<circle cx="334.8" cy="114.9" r="3" fill="#17becf"/>
<circle cx="351.9" cy="107.8" r="3" fill="#17becf"/>
<circle cx="369.0" cy="115.5" r="3" fill="#17becf"/>
<circle cx="386.1" cy="125.5" r="3" fill="#17becf"/>
<circle cx="403.2" cy="126.1" r="3" fill="#17becf"/>
<circle cx="420.4" cy="132.6" r="3" fill="#17becf"/>
<circle cx="437.5" cy="120.2" r="3" fill="#17becf"/>
<circle cx="454.6" cy="125.5" r="3" fill="#17becf"/>
<circle cx="471.8" cy="127.9" r="3" fill="#17becf"/>
<circle cx="488.9" cy="128.5" r="3" fill="#17becf"/>
<circle cx="506.0" cy="116.1" r="3" fill="#17becf"/>
<circle cx="523.1" cy="110.2" r="3" fill="#17becf"/>
<circle cx="540.2" cy="123.7" r="3" fill="#17becf"/>
<circle cx="557.4" cy="126.1" r="3" fill="#17becf"/>
<circle cx="574.5" cy="129.1" r="3" fill="#17becf"/>
<circle cx="591.6" cy="123.2" r="3" fill="#17becf"/>
<circle cx="608.8" cy="120.8" r="3" fill="#17becf"/>
<circle cx="625.9" cy="126.7" r="3" fill="#17becf"/>
<circle cx="643.0" cy="114.3" r="3" fill="#17becf"/>
<circle cx="660.1" cy="119.0" r="3" fill="#17becf"/>
<circle cx="677.2" cy="109.6" r="3" fill="#17becf"/>
<circle cx="694.4" cy="117.8" r="3" fill="#17becf"/>
<circle cx="711.5" cy="132.6" r="3" fill="#17becf"/>
<circle cx="728.6" cy="148.0" r="3" fill="#17becf"/>
<circle cx="745.8" cy="127.3" r="3" fill="#17becf"/>
<circle cx="762.9" cy="122.0" r="3" fill="#17becf"/>
<circle cx="780.0" cy="134.4" r="3" fill="#17becf"/>
<line x1="808" y1="221" x2="830" y2="221" stroke="#17becf" stroke-width="2.5"/>
<text x="838" y="225" font-family="Arial" font-size="13">lr=4e-5</text>
<polyline fill="none" stroke="#8c564b" stroke-width="2.3" points="95.0,535.0 112.1,353.0 129.2,315.2 146.4,267.3 163.5,245.5 180.6,229.5 197.8,229.5 214.9,213.6 232.0,183.4 249.1,198.2 266.2,200.6 283.4,233.0 300.5,248.4 317.6,263.8 334.8,260.2 351.9,284.5 369.0,275.6 386.1,262.0 403.2,267.9 420.4,241.3 437.5,208.2 454.6,189.9 471.8,204.1 488.9,218.9 506.0,225.4 523.1,239.0 540.2,224.2 557.4,227.7 574.5,215.9 591.6,178.1 608.8,178.1 625.9,181.6 643.0,165.1 660.1,191.7 677.2,194.1 694.4,178.1 711.5,180.5 728.6,170.4 745.8,165.7 762.9,181.1 780.0,180.5"/>
<circle cx="95.0" cy="535.0" r="3" fill="#8c564b"/>
<circle cx="112.1" cy="353.0" r="3" fill="#8c564b"/>
<circle cx="129.2" cy="315.2" r="3" fill="#8c564b"/>
<circle cx="146.4" cy="267.3" r="3" fill="#8c564b"/>
<circle cx="163.5" cy="245.5" r="3" fill="#8c564b"/>
<circle cx="180.6" cy="229.5" r="3" fill="#8c564b"/>
<circle cx="197.8" cy="229.5" r="3" fill="#8c564b"/>
<circle cx="214.9" cy="213.6" r="3" fill="#8c564b"/>
<circle cx="232.0" cy="183.4" r="3" fill="#8c564b"/>
<circle cx="249.1" cy="198.2" r="3" fill="#8c564b"/>
<circle cx="266.2" cy="200.6" r="3" fill="#8c564b"/>
<circle cx="283.4" cy="233.0" r="3" fill="#8c564b"/>
<circle cx="300.5" cy="248.4" r="3" fill="#8c564b"/>
<circle cx="317.6" cy="263.8" r="3" fill="#8c564b"/>
<circle cx="334.8" cy="260.2" r="3" fill="#8c564b"/>
<circle cx="351.9" cy="284.5" r="3" fill="#8c564b"/>
<circle cx="369.0" cy="275.6" r="3" fill="#8c564b"/>
<circle cx="386.1" cy="262.0" r="3" fill="#8c564b"/>
<circle cx="403.2" cy="267.9" r="3" fill="#8c564b"/>
<circle cx="420.4" cy="241.3" r="3" fill="#8c564b"/>
<circle cx="437.5" cy="208.2" r="3" fill="#8c564b"/>
<circle cx="454.6" cy="189.9" r="3" fill="#8c564b"/>
<circle cx="471.8" cy="204.1" r="3" fill="#8c564b"/>
<circle cx="488.9" cy="218.9" r="3" fill="#8c564b"/>
<circle cx="506.0" cy="225.4" r="3" fill="#8c564b"/>
<circle cx="523.1" cy="239.0" r="3" fill="#8c564b"/>
<circle cx="540.2" cy="224.2" r="3" fill="#8c564b"/>
<circle cx="557.4" cy="227.7" r="3" fill="#8c564b"/>
<circle cx="574.5" cy="215.9" r="3" fill="#8c564b"/>
<circle cx="591.6" cy="178.1" r="3" fill="#8c564b"/>
<circle cx="608.8" cy="178.1" r="3" fill="#8c564b"/>
<circle cx="625.9" cy="181.6" r="3" fill="#8c564b"/>
<circle cx="643.0" cy="165.1" r="3" fill="#8c564b"/>
<circle cx="660.1" cy="191.7" r="3" fill="#8c564b"/>
<circle cx="677.2" cy="194.1" r="3" fill="#8c564b"/>
<circle cx="694.4" cy="178.1" r="3" fill="#8c564b"/>
<circle cx="711.5" cy="180.5" r="3" fill="#8c564b"/>
<circle cx="728.6" cy="170.4" r="3" fill="#8c564b"/>
<circle cx="745.8" cy="165.7" r="3" fill="#8c564b"/>
<circle cx="762.9" cy="181.1" r="3" fill="#8c564b"/>
<circle cx="780.0" cy="180.5" r="3" fill="#8c564b"/>
<line x1="808" y1="246" x2="830" y2="246" stroke="#8c564b" stroke-width="2.5"/>
<text x="838" y="250" font-family="Arial" font-size="13">lr=5e-5</text>
<polyline fill="none" stroke="#e377c2" stroke-width="2.3" points="95.0,535.0 112.1,478.8 129.2,517.8 146.4,491.2 163.5,512.5"/>
<circle cx="95.0" cy="535.0" r="3" fill="#e377c2"/>
<circle cx="112.1" cy="478.8" r="3" fill="#e377c2"/>
<circle cx="129.2" cy="517.8" r="3" fill="#e377c2"/>
<circle cx="146.4" cy="491.2" r="3" fill="#e377c2"/>
<circle cx="163.5" cy="512.5" r="3" fill="#e377c2"/>
<line x1="808" y1="271" x2="830" y2="271" stroke="#e377c2" stroke-width="2.5"/>
<text x="838" y="275" font-family="Arial" font-size="13">lr=7e-5 (stopped)</text>
<polyline fill="none" stroke="#7f7f7f" stroke-width="2.3" points="95.0,535.0 112.1,558.0"/>
<circle cx="95.0" cy="535.0" r="3" fill="#7f7f7f"/>
<circle cx="112.1" cy="558.0" r="3" fill="#7f7f7f"/>
<line x1="808" y1="296" x2="830" y2="296" stroke="#7f7f7f" stroke-width="2.5"/>
<text x="838" y="300" font-family="Arial" font-size="13">lr=2e-4 (stopped)</text>
<text x="437.5" y="618" text-anchor="middle" font-family="Arial" font-size="15">GRPO step</text>
<text x="24" y="316.0" text-anchor="middle" font-family="Arial" font-size="15" transform="rotate(-90 24 316.0)">Validation answer reward</text>
</svg>
