<svg xmlns="http://www.w3.org/2000/svg" width="960" height="600" viewBox="0 0 960 600">
<rect width="100%" height="100%" fill="white"/>
<text x="480.0" y="34" text-anchor="middle" font-family="Arial" font-size="22" font-weight="700">Filtered SFT vs Noisy Full SFT</text>
<line x1="90" y1="520" x2="730" y2="520" stroke="#222" stroke-width="1.5"/>
<line x1="90" y1="70" x2="90" y2="520" stroke="#222" stroke-width="1.5"/>
<line x1="85" y1="520.0" x2="730" y2="520.0" stroke="#ddd" stroke-width="1"/>
<text x="78" y="524.0" text-anchor="end" font-family="Arial" font-size="12">0.00</text>
<line x1="85" y1="430.0" x2="730" y2="430.0" stroke="#ddd" stroke-width="1"/>
<text x="78" y="434.0" text-anchor="end" font-family="Arial" font-size="12">0.08</text>
<line x1="85" y1="340.0" x2="730" y2="340.0" stroke="#ddd" stroke-width="1"/>
<text x="78" y="344.0" text-anchor="end" font-family="Arial" font-size="12">0.16</text>
<line x1="85" y1="250.0" x2="730" y2="250.0" stroke="#ddd" stroke-width="1"/>
<text x="78" y="254.0" text-anchor="end" font-family="Arial" font-size="12">0.24</text>
<line x1="85" y1="160.0" x2="730" y2="160.0" stroke="#ddd" stroke-width="1"/>
<text x="78" y="164.0" text-anchor="end" font-family="Arial" font-size="12">0.32</text>
<line x1="85" y1="70.0" x2="730" y2="70.0" stroke="#ddd" stroke-width="1"/>
<text x="78" y="74.0" text-anchor="end" font-family="Arial" font-size="12">0.40</text>
<line x1="90.0" y1="520" x2="90.0" y2="525" stroke="#222" stroke-width="1"/>
<text x="90.0" y="544" text-anchor="middle" font-family="Arial" font-size="12">0</text>
<line x1="218.0" y1="520" x2="218.0" y2="525" stroke="#222" stroke-width="1"/>
<text x="218.0" y="544" text-anchor="middle" font-family="Arial" font-size="12">180</text>
<line x1="346.0" y1="520" x2="346.0" y2="525" stroke="#222" stroke-width="1"/>
<text x="346.0" y="544" text-anchor="middle" font-family="Arial" font-size="12">360</text>
<line x1="474.0" y1="520" x2="474.0" y2="525" stroke="#222" stroke-width="1"/>
<text x="474.0" y="544" text-anchor="middle" font-family="Arial" font-size="12">540</text>
<line x1="602.0" y1="520" x2="602.0" y2="525" stroke="#222" stroke-width="1"/>
<text x="602.0" y="544" text-anchor="middle" font-family="Arial" font-size="12">720</text>
<line x1="730.0" y1="520" x2="730.0" y2="525" stroke="#222" stroke-width="1"/>
<text x="730.0" y="544" text-anchor="middle" font-family="Arial" font-size="12">900</text>
<polyline points="90.0,484.5 161.1,326.2 232.2,300.6 303.3,324.1 374.4,243.2 445.6,268.9 516.7,276.3 587.8,226.7 658.9,267.9 730.0,272.4" fill="none" stroke="#1f77b4" stroke-width="2.5" stroke-linejoin="round" stroke-linecap="round"/>
<circle cx="90.0" cy="484.5" r="3" fill="#1f77b4"/>
<circle cx="161.1" cy="326.2" r="3" fill="#1f77b4"/>
<circle cx="232.2" cy="300.6" r="3" fill="#1f77b4"/>
<circle cx="303.3" cy="324.1" r="3" fill="#1f77b4"/>
<circle cx="374.4" cy="243.2" r="3" fill="#1f77b4"/>
<circle cx="445.6" cy="268.9" r="3" fill="#1f77b4"/>
<circle cx="516.7" cy="276.3" r="3" fill="#1f77b4"/>
<circle cx="587.8" cy="226.7" r="3" fill="#1f77b4"/>
<circle cx="658.9" cy="267.9" r="3" fill="#1f77b4"/>
<circle cx="730.0" cy="272.4" r="3" fill="#1f77b4"/>
<line x1="760" y1="70" x2="784" y2="70" stroke="#1f77b4" stroke-width="3"/>
<text x="794" y="74" font-family="Arial" font-size="13">Noisy full</text>
<polyline points="90.0,477.4 161.1,276.3 232.2,254.8 303.3,181.7 374.4,202.8 445.6,177.1 516.7,144.8 587.8,131.1 658.9,117.3 730.0,125.1" fill="none" stroke="#d62728" stroke-width="2.5" stroke-linejoin="round" stroke-linecap="round"/>
<circle cx="90.0" cy="477.4" r="3" fill="#d62728"/>
<circle cx="161.1" cy="276.3" r="3" fill="#d62728"/>
<circle cx="232.2" cy="254.8" r="3" fill="#d62728"/>
<circle cx="303.3" cy="181.7" r="3" fill="#d62728"/>
<circle cx="374.4" cy="202.8" r="3" fill="#d62728"/>
<circle cx="445.6" cy="177.1" r="3" fill="#d62728"/>
<circle cx="516.7" cy="144.8" r="3" fill="#d62728"/>
<circle cx="587.8" cy="131.1" r="3" fill="#d62728"/>
<circle cx="658.9" cy="117.3" r="3" fill="#d62728"/>
<circle cx="730.0" cy="125.1" r="3" fill="#d62728"/>
<line x1="760" y1="96" x2="784" y2="96" stroke="#d62728" stroke-width="3"/>
<text x="794" y="100" font-family="Arial" font-size="13">Filtered full</text>
<text x="410.0" y="576" text-anchor="middle" font-family="Arial" font-size="15">Optimizer step</text>
<text transform="translate(24 295.0) rotate(-90)" text-anchor="middle" font-family="Arial" font-size="15">Validation answer accuracy</text>
</svg>
