<svg xmlns="http://www.w3.org/2000/svg" width="1100" height="660" viewBox="0 0 1100 660">
<rect width="100%" height="100%" fill="white"/>
<text x="550.0" y="36" text-anchor="middle" font-family="Arial" font-size="22" font-weight="700">Leaderboard token entropy</text>
<line x1="95" y1="578" x2="800" y2="578" stroke="#222" stroke-width="1.5"/>
<line x1="95" y1="74" x2="95" y2="578" stroke="#222" stroke-width="1.5"/>
<line x1="90" y1="578.0" x2="800" y2="578.0" stroke="#ddd" stroke-width="1"/>
<text x="83" y="582.0" text-anchor="end" font-family="Arial" font-size="12">0.00</text>
<line x1="90" y1="477.2" x2="800" y2="477.2" stroke="#ddd" stroke-width="1"/>
<text x="83" y="481.2" text-anchor="end" font-family="Arial" font-size="12">0.20</text>
<line x1="90" y1="376.4" x2="800" y2="376.4" stroke="#ddd" stroke-width="1"/>
<text x="83" y="380.4" text-anchor="end" font-family="Arial" font-size="12">0.40</text>
<line x1="90" y1="275.6" x2="800" y2="275.6" stroke="#ddd" stroke-width="1"/>
<text x="83" y="279.6" text-anchor="end" font-family="Arial" font-size="12">0.60</text>
<line x1="90" y1="174.8" x2="800" y2="174.8" stroke="#ddd" stroke-width="1"/>
<text x="83" y="178.8" text-anchor="end" font-family="Arial" font-size="12">0.80</text>
<line x1="90" y1="74.0" x2="800" y2="74.0" stroke="#ddd" stroke-width="1"/>
<text x="83" y="78.0" text-anchor="end" font-family="Arial" font-size="12">1.00</text>
<line x1="95.0" y1="578" x2="95.0" y2="583" stroke="#222" stroke-width="1"/>
<text x="95.0" y="602" text-anchor="middle" font-family="Arial" font-size="12">1</text>
<line x1="236.0" y1="578" x2="236.0" y2="583" stroke="#222" stroke-width="1"/>
<text x="236.0" y="602" text-anchor="middle" font-family="Arial" font-size="12">74</text>
<line x1="377.0" y1="578" x2="377.0" y2="583" stroke="#222" stroke-width="1"/>
<text x="377.0" y="602" text-anchor="middle" font-family="Arial" font-size="12">148</text>
<line x1="518.0" y1="578" x2="518.0" y2="583" stroke="#222" stroke-width="1"/>
<text x="518.0" y="602" text-anchor="middle" font-family="Arial" font-size="12">221</text>
<line x1="659.0" y1="578" x2="659.0" y2="583" stroke="#222" stroke-width="1"/>
<text x="659.0" y="602" text-anchor="middle" font-family="Arial" font-size="12">295</text>
<line x1="800.0" y1="578" x2="800.0" y2="583" stroke="#222" stroke-width="1"/>
<text x="800.0" y="602" text-anchor="middle" font-family="Arial" font-size="12">368</text>
<polyline fill="none" stroke="#1f77b4" stroke-width="2.3" points="95.0,97.6 96.9,395.7 98.8,452.7 100.8,455.0 102.7,460.9 104.6,448.5 106.5,480.5 108.4,464.1 110.4,479.5 112.3,461.3 114.2,471.3 116.1,464.9 118.1,482.5 120.0,466.7 121.9,467.4 123.8,473.2 125.7,477.7 127.7,477.8 129.6,496.5 131.5,493.9 133.4,486.9 135.3,486.7 137.3,493.7 139.2,501.2 141.1,502.5 143.0,487.7 144.9,507.7 146.9,498.1 148.8,485.1 150.7,510.6 152.6,505.9 154.6,508.6 156.5,505.0 158.4,505.0 160.3,501.0 162.2,498.6 164.2,499.0 166.1,500.8 168.0,517.3 169.9,501.3 171.8,511.7 173.8,500.3 175.7,515.3 177.6,504.3 179.5,505.0 181.4,505.4 183.4,511.0 185.3,518.9 187.2,512.1 189.1,502.6 191.0,515.2 193.0,511.8 194.9,524.4 196.8,499.6 198.7,510.5 200.7,507.2 202.6,513.2 204.5,504.8 206.4,509.3 208.3,499.5 210.3,514.4 212.2,510.0 214.1,520.7 216.0,509.1 217.9,516.2 219.9,522.2 221.8,513.8 223.7,515.9 225.6,531.4 227.5,530.3 229.5,508.7 231.4,531.9 233.3,530.4 235.2,527.6 237.2,541.3 239.1,535.2 241.0,541.1 242.9,519.8 244.8,537.4 246.8,529.9 248.7,523.9 250.6,523.8 252.5,519.2 254.4,517.8 256.4,520.5 258.3,526.7 260.2,514.9 262.1,499.0 264.0,493.5 266.0,505.1 267.9,486.9 269.8,484.7 271.7,497.4 273.7,493.5 275.6,493.5 277.5,494.5 279.4,479.2 281.3,496.6 283.3,498.1 285.2,491.7 287.1,500.7 289.0,479.1 290.9,499.7 292.9,512.4 294.8,506.3 296.7,502.8 298.6,505.9 300.5,491.7 302.5,499.5 304.4,490.4 306.3,496.8 308.2,511.1 310.1,511.6 312.1,505.5 314.0,496.8 315.9,501.6 317.8,510.1 319.8,509.5 321.7,517.0 323.6,494.2 325.5,507.4 327.4,509.5 329.4,519.5 331.3,521.4 333.2,506.3 335.1,511.5 337.0,508.4 339.0,516.5 340.9,519.9 342.8,512.9 344.7,501.8 346.6,522.8 348.6,514.4 350.5,517.9 352.4,529.1 354.3,539.1 356.3,521.9 358.2,536.8 360.1,538.5 362.0,522.4 363.9,540.1 365.9,534.7 367.8,546.5 369.7,542.5 371.6,536.1 373.5,550.8 375.5,540.5 377.4,551.8 379.3,538.6 381.2,538.4 383.1,549.7 385.1,530.6 387.0,536.1 388.9,537.5 390.8,541.0 392.8,536.1 394.7,541.2 396.6,545.4 398.5,544.3 400.4,542.9 402.4,547.3 404.3,545.3 406.2,552.2 408.1,544.1 410.0,544.4 412.0,547.4 413.9,554.8 415.8,548.2 417.7,552.2 419.6,551.4 421.6,549.5 423.5,552.0 425.4,556.1 427.3,556.6 429.3,551.3 431.2,549.3 433.1,548.7 435.0,550.3 436.9,549.4 438.9,552.5 440.8,552.7 442.7,554.3 444.6,556.7 446.5,551.9 448.5,554.2 450.4,552.4 452.3,556.1 454.2,550.2 456.1,556.7 458.1,554.2 460.0,558.1 461.9,561.3 463.8,554.6 465.7,555.3 467.7,555.7 469.6,553.8 471.5,558.4 473.4,556.7 475.4,556.0 477.3,558.7 479.2,557.2 481.1,558.9 483.0,557.4 485.0,560.6 486.9,555.2 488.8,557.9 490.7,556.3 492.6,557.7 494.6,556.7 496.5,559.4 498.4,557.5 500.3,559.7 502.2,560.1 504.2,554.8 506.1,559.2 508.0,560.3 509.9,560.6 511.9,560.0 513.8,563.1 515.7,562.1 517.6,560.2 519.5,563.5 521.5,561.9 523.4,558.5 525.3,563.2 527.2,563.7 529.1,559.6 531.1,558.9 533.0,563.2 534.9,563.5 536.8,561.0 538.7,564.0 540.7,563.7 542.6,564.0 544.5,560.9 546.4,565.6 548.4,560.6 550.3,561.0 552.2,559.3 554.1,559.7 556.0,562.1 558.0,559.6 559.9,561.1 561.8,559.3 563.7,560.9 565.6,558.6 567.6,560.2 569.5,562.8 571.4,564.1 573.3,561.6 575.2,561.7 577.2,563.2 579.1,558.6 581.0,558.9 582.9,558.6 584.9,563.2 586.8,557.5 588.7,562.4 590.6,559.4 592.5,556.9 594.5,561.1 596.4,562.0 598.3,561.6 600.2,560.2 602.1,553.5 604.1,556.5 606.0,554.0 607.9,555.2 609.8,557.7 611.7,550.8 613.7,552.7 615.6,555.8 617.5,560.4 619.4,560.2 621.3,557.1 623.3,555.4 625.2,558.3 627.1,553.7 629.0,557.7 631.0,555.2 632.9,557.4 634.8,556.5 636.7,556.6 638.6,557.2 640.6,557.0 642.5,561.2 644.4,558.2 646.3,560.7 648.2,559.4 650.2,556.6 652.1,559.4 654.0,558.6 655.9,559.7 657.8,559.1 659.8,559.7 661.7,559.2 663.6,560.5 665.5,559.9 667.5,555.9 669.4,559.8 671.3,558.3 673.2,558.4 675.1,553.5 677.1,549.2 679.0,554.2 680.9,554.1 682.8,555.3 684.7,553.9 686.7,554.8 688.6,548.4 690.5,554.4 692.4,552.8 694.3,552.6 696.3,551.6 698.2,552.5 700.1,552.7 702.0,554.2 704.0,554.3 705.9,551.7 707.8,558.1 709.7,554.9 711.6,555.3 713.6,558.3 715.5,557.3 717.4,559.9 719.3,558.8 721.2,559.5 723.2,555.6 725.1,558.8 727.0,554.2 728.9,554.6 730.8,558.3 732.8,552.9 734.7,555.9 736.6,554.4 738.5,550.7 740.4,551.4 742.4,555.5 744.3,559.3 746.2,554.6 748.1,557.3 750.1,557.4 752.0,555.4 753.9,555.0 755.8,559.3 757.7,553.5 759.7,554.0 761.6,553.5 763.5,552.1 765.4,551.4 767.3,557.8 769.3,556.8 771.2,556.9 773.1,553.4 775.0,550.4 776.9,551.2 778.9,553.0 780.8,548.9 782.7,552.7 784.6,552.1 786.6,551.4 788.5,547.9 790.4,554.1 792.3,548.9 794.2,550.8 796.2,551.2 798.1,547.6 800.0,551.1"/>
<circle cx="95.0" cy="97.6" r="3" fill="#1f77b4"/>
<circle cx="96.9" cy="395.7" r="3" fill="#1f77b4"/>
<circle cx="98.8" cy="452.7" r="3" fill="#1f77b4"/>
<circle cx="100.8" cy="455.0" r="3" fill="#1f77b4"/>
<circle cx="102.7" cy="460.9" r="3" fill="#1f77b4"/>
<circle cx="104.6" cy="448.5" r="3" fill="#1f77b4"/>
<circle cx="106.5" cy="480.5" r="3" fill="#1f77b4"/>
<circle cx="108.4" cy="464.1" r="3" fill="#1f77b4"/>
<circle cx="110.4" cy="479.5" r="3" fill="#1f77b4"/>
<circle cx="112.3" cy="461.3" r="3" fill="#1f77b4"/>
<circle cx="114.2" cy="471.3" r="3" fill="#1f77b4"/>
<circle cx="116.1" cy="464.9" r="3" fill="#1f77b4"/>
<circle cx="118.1" cy="482.5" r="3" fill="#1f77b4"/>
<circle cx="120.0" cy="466.7" r="3" fill="#1f77b4"/>
<circle cx="121.9" cy="467.4" r="3" fill="#1f77b4"/>
<circle cx="123.8" cy="473.2" r="3" fill="#1f77b4"/>
<circle cx="125.7" cy="477.7" r="3" fill="#1f77b4"/>
<circle cx="127.7" cy="477.8" r="3" fill="#1f77b4"/>
<circle cx="129.6" cy="496.5" r="3" fill="#1f77b4"/>
<circle cx="131.5" cy="493.9" r="3" fill="#1f77b4"/>
<circle cx="133.4" cy="486.9" r="3" fill="#1f77b4"/>
<circle cx="135.3" cy="486.7" r="3" fill="#1f77b4"/>
<circle cx="137.3" cy="493.7" r="3" fill="#1f77b4"/>
<circle cx="139.2" cy="501.2" r="3" fill="#1f77b4"/>
<circle cx="141.1" cy="502.5" r="3" fill="#1f77b4"/>
<circle cx="143.0" cy="487.7" r="3" fill="#1f77b4"/>
<circle cx="144.9" cy="507.7" r="3" fill="#1f77b4"/>
<circle cx="146.9" cy="498.1" r="3" fill="#1f77b4"/>
<circle cx="148.8" cy="485.1" r="3" fill="#1f77b4"/>
<circle cx="150.7" cy="510.6" r="3" fill="#1f77b4"/>
<circle cx="152.6" cy="505.9" r="3" fill="#1f77b4"/>
<circle cx="154.6" cy="508.6" r="3" fill="#1f77b4"/>
<circle cx="156.5" cy="505.0" r="3" fill="#1f77b4"/>
<circle cx="158.4" cy="505.0" r="3" fill="#1f77b4"/>
<circle cx="160.3" cy="501.0" r="3" fill="#1f77b4"/>
<circle cx="162.2" cy="498.6" r="3" fill="#1f77b4"/>
<circle cx="164.2" cy="499.0" r="3" fill="#1f77b4"/>
<circle cx="166.1" cy="500.8" r="3" fill="#1f77b4"/>
<circle cx="168.0" cy="517.3" r="3" fill="#1f77b4"/>
<circle cx="169.9" cy="501.3" r="3" fill="#1f77b4"/>
<circle cx="171.8" cy="511.7" r="3" fill="#1f77b4"/>
<circle cx="173.8" cy="500.3" r="3" fill="#1f77b4"/>
<circle cx="175.7" cy="515.3" r="3" fill="#1f77b4"/>
<circle cx="177.6" cy="504.3" r="3" fill="#1f77b4"/>
<circle cx="179.5" cy="505.0" r="3" fill="#1f77b4"/>
<circle cx="181.4" cy="505.4" r="3" fill="#1f77b4"/>
<circle cx="183.4" cy="511.0" r="3" fill="#1f77b4"/>
<circle cx="185.3" cy="518.9" r="3" fill="#1f77b4"/>
<circle cx="187.2" cy="512.1" r="3" fill="#1f77b4"/>
<circle cx="189.1" cy="502.6" r="3" fill="#1f77b4"/>
<circle cx="191.0" cy="515.2" r="3" fill="#1f77b4"/>
<circle cx="193.0" cy="511.8" r="3" fill="#1f77b4"/>
<circle cx="194.9" cy="524.4" r="3" fill="#1f77b4"/>
<circle cx="196.8" cy="499.6" r="3" fill="#1f77b4"/>
<circle cx="198.7" cy="510.5" r="3" fill="#1f77b4"/>
<circle cx="200.7" cy="507.2" r="3" fill="#1f77b4"/>
<circle cx="202.6" cy="513.2" r="3" fill="#1f77b4"/>
<circle cx="204.5" cy="504.8" r="3" fill="#1f77b4"/>
<circle cx="206.4" cy="509.3" r="3" fill="#1f77b4"/>
<circle cx="208.3" cy="499.5" r="3" fill="#1f77b4"/>
<circle cx="210.3" cy="514.4" r="3" fill="#1f77b4"/>
<circle cx="212.2" cy="510.0" r="3" fill="#1f77b4"/>
<circle cx="214.1" cy="520.7" r="3" fill="#1f77b4"/>
<circle cx="216.0" cy="509.1" r="3" fill="#1f77b4"/>
<circle cx="217.9" cy="516.2" r="3" fill="#1f77b4"/>
<circle cx="219.9" cy="522.2" r="3" fill="#1f77b4"/>
<circle cx="221.8" cy="513.8" r="3" fill="#1f77b4"/>
<circle cx="223.7" cy="515.9" r="3" fill="#1f77b4"/>
<circle cx="225.6" cy="531.4" r="3" fill="#1f77b4"/>
<circle cx="227.5" cy="530.3" r="3" fill="#1f77b4"/>
<circle cx="229.5" cy="508.7" r="3" fill="#1f77b4"/>
<circle cx="231.4" cy="531.9" r="3" fill="#1f77b4"/>
<circle cx="233.3" cy="530.4" r="3" fill="#1f77b4"/>
<circle cx="235.2" cy="527.6" r="3" fill="#1f77b4"/>
<circle cx="237.2" cy="541.3" r="3" fill="#1f77b4"/>
<circle cx="239.1" cy="535.2" r="3" fill="#1f77b4"/>
<circle cx="241.0" cy="541.1" r="3" fill="#1f77b4"/>
<circle cx="242.9" cy="519.8" r="3" fill="#1f77b4"/>
<circle cx="244.8" cy="537.4" r="3" fill="#1f77b4"/>
<circle cx="246.8" cy="529.9" r="3" fill="#1f77b4"/>
<circle cx="248.7" cy="523.9" r="3" fill="#1f77b4"/>
<circle cx="250.6" cy="523.8" r="3" fill="#1f77b4"/>
<circle cx="252.5" cy="519.2" r="3" fill="#1f77b4"/>
<circle cx="254.4" cy="517.8" r="3" fill="#1f77b4"/>
<circle cx="256.4" cy="520.5" r="3" fill="#1f77b4"/>
<circle cx="258.3" cy="526.7" r="3" fill="#1f77b4"/>
<circle cx="260.2" cy="514.9" r="3" fill="#1f77b4"/>
<circle cx="262.1" cy="499.0" r="3" fill="#1f77b4"/>
<circle cx="264.0" cy="493.5" r="3" fill="#1f77b4"/>
<circle cx="266.0" cy="505.1" r="3" fill="#1f77b4"/>
<circle cx="267.9" cy="486.9" r="3" fill="#1f77b4"/>
<circle cx="269.8" cy="484.7" r="3" fill="#1f77b4"/>
<circle cx="271.7" cy="497.4" r="3" fill="#1f77b4"/>
<circle cx="273.7" cy="493.5" r="3" fill="#1f77b4"/>
<circle cx="275.6" cy="493.5" r="3" fill="#1f77b4"/>
<circle cx="277.5" cy="494.5" r="3" fill="#1f77b4"/>
<circle cx="279.4" cy="479.2" r="3" fill="#1f77b4"/>
<circle cx="281.3" cy="496.6" r="3" fill="#1f77b4"/>
<circle cx="283.3" cy="498.1" r="3" fill="#1f77b4"/>
<circle cx="285.2" cy="491.7" r="3" fill="#1f77b4"/>
<circle cx="287.1" cy="500.7" r="3" fill="#1f77b4"/>
<circle cx="289.0" cy="479.1" r="3" fill="#1f77b4"/>
<circle cx="290.9" cy="499.7" r="3" fill="#1f77b4"/>
<circle cx="292.9" cy="512.4" r="3" fill="#1f77b4"/>
<circle cx="294.8" cy="506.3" r="3" fill="#1f77b4"/>
<circle cx="296.7" cy="502.8" r="3" fill="#1f77b4"/>
<circle cx="298.6" cy="505.9" r="3" fill="#1f77b4"/>
<circle cx="300.5" cy="491.7" r="3" fill="#1f77b4"/>
<circle cx="302.5" cy="499.5" r="3" fill="#1f77b4"/>
<circle cx="304.4" cy="490.4" r="3" fill="#1f77b4"/>
<circle cx="306.3" cy="496.8" r="3" fill="#1f77b4"/>
<circle cx="308.2" cy="511.1" r="3" fill="#1f77b4"/>
<circle cx="310.1" cy="511.6" r="3" fill="#1f77b4"/>
<circle cx="312.1" cy="505.5" r="3" fill="#1f77b4"/>
<circle cx="314.0" cy="496.8" r="3" fill="#1f77b4"/>
<circle cx="315.9" cy="501.6" r="3" fill="#1f77b4"/>
<circle cx="317.8" cy="510.1" r="3" fill="#1f77b4"/>
<circle cx="319.8" cy="509.5" r="3" fill="#1f77b4"/>
<circle cx="321.7" cy="517.0" r="3" fill="#1f77b4"/>
<circle cx="323.6" cy="494.2" r="3" fill="#1f77b4"/>
<circle cx="325.5" cy="507.4" r="3" fill="#1f77b4"/>
<circle cx="327.4" cy="509.5" r="3" fill="#1f77b4"/>
<circle cx="329.4" cy="519.5" r="3" fill="#1f77b4"/>
<circle cx="331.3" cy="521.4" r="3" fill="#1f77b4"/>
<circle cx="333.2" cy="506.3" r="3" fill="#1f77b4"/>
<circle cx="335.1" cy="511.5" r="3" fill="#1f77b4"/>
<circle cx="337.0" cy="508.4" r="3" fill="#1f77b4"/>
<circle cx="339.0" cy="516.5" r="3" fill="#1f77b4"/>
<circle cx="340.9" cy="519.9" r="3" fill="#1f77b4"/>
<circle cx="342.8" cy="512.9" r="3" fill="#1f77b4"/>
<circle cx="344.7" cy="501.8" r="3" fill="#1f77b4"/>
<circle cx="346.6" cy="522.8" r="3" fill="#1f77b4"/>
<circle cx="348.6" cy="514.4" r="3" fill="#1f77b4"/>
<circle cx="350.5" cy="517.9" r="3" fill="#1f77b4"/>
<circle cx="352.4" cy="529.1" r="3" fill="#1f77b4"/>
<circle cx="354.3" cy="539.1" r="3" fill="#1f77b4"/>
<circle cx="356.3" cy="521.9" r="3" fill="#1f77b4"/>
<circle cx="358.2" cy="536.8" r="3" fill="#1f77b4"/>
<circle cx="360.1" cy="538.5" r="3" fill="#1f77b4"/>
<circle cx="362.0" cy="522.4" r="3" fill="#1f77b4"/>
<circle cx="363.9" cy="540.1" r="3" fill="#1f77b4"/>
<circle cx="365.9" cy="534.7" r="3" fill="#1f77b4"/>
<circle cx="367.8" cy="546.5" r="3" fill="#1f77b4"/>
<circle cx="369.7" cy="542.5" r="3" fill="#1f77b4"/>
<circle cx="371.6" cy="536.1" r="3" fill="#1f77b4"/>
<circle cx="373.5" cy="550.8" r="3" fill="#1f77b4"/>
<circle cx="375.5" cy="540.5" r="3" fill="#1f77b4"/>
<circle cx="377.4" cy="551.8" r="3" fill="#1f77b4"/>
<circle cx="379.3" cy="538.6" r="3" fill="#1f77b4"/>
<circle cx="381.2" cy="538.4" r="3" fill="#1f77b4"/>
<circle cx="383.1" cy="549.7" r="3" fill="#1f77b4"/>
<circle cx="385.1" cy="530.6" r="3" fill="#1f77b4"/>
<circle cx="387.0" cy="536.1" r="3" fill="#1f77b4"/>
<circle cx="388.9" cy="537.5" r="3" fill="#1f77b4"/>
<circle cx="390.8" cy="541.0" r="3" fill="#1f77b4"/>
<circle cx="392.8" cy="536.1" r="3" fill="#1f77b4"/>
<circle cx="394.7" cy="541.2" r="3" fill="#1f77b4"/>
<circle cx="396.6" cy="545.4" r="3" fill="#1f77b4"/>
<circle cx="398.5" cy="544.3" r="3" fill="#1f77b4"/>
<circle cx="400.4" cy="542.9" r="3" fill="#1f77b4"/>
<circle cx="402.4" cy="547.3" r="3" fill="#1f77b4"/>
<circle cx="404.3" cy="545.3" r="3" fill="#1f77b4"/>
<circle cx="406.2" cy="552.2" r="3" fill="#1f77b4"/>
<circle cx="408.1" cy="544.1" r="3" fill="#1f77b4"/>
<circle cx="410.0" cy="544.4" r="3" fill="#1f77b4"/>
<circle cx="412.0" cy="547.4" r="3" fill="#1f77b4"/>
<circle cx="413.9" cy="554.8" r="3" fill="#1f77b4"/>
<circle cx="415.8" cy="548.2" r="3" fill="#1f77b4"/>
<circle cx="417.7" cy="552.2" r="3" fill="#1f77b4"/>
<circle cx="419.6" cy="551.4" r="3" fill="#1f77b4"/>
<circle cx="421.6" cy="549.5" r="3" fill="#1f77b4"/>
<circle cx="423.5" cy="552.0" r="3" fill="#1f77b4"/>
<circle cx="425.4" cy="556.1" r="3" fill="#1f77b4"/>
<circle cx="427.3" cy="556.6" r="3" fill="#1f77b4"/>
<circle cx="429.3" cy="551.3" r="3" fill="#1f77b4"/>
<circle cx="431.2" cy="549.3" r="3" fill="#1f77b4"/>
<circle cx="433.1" cy="548.7" r="3" fill="#1f77b4"/>
<circle cx="435.0" cy="550.3" r="3" fill="#1f77b4"/>
<circle cx="436.9" cy="549.4" r="3" fill="#1f77b4"/>
<circle cx="438.9" cy="552.5" r="3" fill="#1f77b4"/>
<circle cx="440.8" cy="552.7" r="3" fill="#1f77b4"/>
<circle cx="442.7" cy="554.3" r="3" fill="#1f77b4"/>
<circle cx="444.6" cy="556.7" r="3" fill="#1f77b4"/>
<circle cx="446.5" cy="551.9" r="3" fill="#1f77b4"/>
<circle cx="448.5" cy="554.2" r="3" fill="#1f77b4"/>
<circle cx="450.4" cy="552.4" r="3" fill="#1f77b4"/>
<circle cx="452.3" cy="556.1" r="3" fill="#1f77b4"/>
<circle cx="454.2" cy="550.2" r="3" fill="#1f77b4"/>
<circle cx="456.1" cy="556.7" r="3" fill="#1f77b4"/>
<circle cx="458.1" cy="554.2" r="3" fill="#1f77b4"/>
<circle cx="460.0" cy="558.1" r="3" fill="#1f77b4"/>
<circle cx="461.9" cy="561.3" r="3" fill="#1f77b4"/>
<circle cx="463.8" cy="554.6" r="3" fill="#1f77b4"/>
<circle cx="465.7" cy="555.3" r="3" fill="#1f77b4"/>
<circle cx="467.7" cy="555.7" r="3" fill="#1f77b4"/>
<circle cx="469.6" cy="553.8" r="3" fill="#1f77b4"/>
<circle cx="471.5" cy="558.4" r="3" fill="#1f77b4"/>
<circle cx="473.4" cy="556.7" r="3" fill="#1f77b4"/>
<circle cx="475.4" cy="556.0" r="3" fill="#1f77b4"/>
<circle cx="477.3" cy="558.7" r="3" fill="#1f77b4"/>
<circle cx="479.2" cy="557.2" r="3" fill="#1f77b4"/>
<circle cx="481.1" cy="558.9" r="3" fill="#1f77b4"/>
<circle cx="483.0" cy="557.4" r="3" fill="#1f77b4"/>
<circle cx="485.0" cy="560.6" r="3" fill="#1f77b4"/>
<circle cx="486.9" cy="555.2" r="3" fill="#1f77b4"/>
<circle cx="488.8" cy="557.9" r="3" fill="#1f77b4"/>
<circle cx="490.7" cy="556.3" r="3" fill="#1f77b4"/>
<circle cx="492.6" cy="557.7" r="3" fill="#1f77b4"/>
<circle cx="494.6" cy="556.7" r="3" fill="#1f77b4"/>
<circle cx="496.5" cy="559.4" r="3" fill="#1f77b4"/>
<circle cx="498.4" cy="557.5" r="3" fill="#1f77b4"/>
<circle cx="500.3" cy="559.7" r="3" fill="#1f77b4"/>
<circle cx="502.2" cy="560.1" r="3" fill="#1f77b4"/>
<circle cx="504.2" cy="554.8" r="3" fill="#1f77b4"/>
<circle cx="506.1" cy="559.2" r="3" fill="#1f77b4"/>
<circle cx="508.0" cy="560.3" r="3" fill="#1f77b4"/>
<circle cx="509.9" cy="560.6" r="3" fill="#1f77b4"/>
<circle cx="511.9" cy="560.0" r="3" fill="#1f77b4"/>
<circle cx="513.8" cy="563.1" r="3" fill="#1f77b4"/>
<circle cx="515.7" cy="562.1" r="3" fill="#1f77b4"/>
<circle cx="517.6" cy="560.2" r="3" fill="#1f77b4"/>
<circle cx="519.5" cy="563.5" r="3" fill="#1f77b4"/>
<circle cx="521.5" cy="561.9" r="3" fill="#1f77b4"/>
<circle cx="523.4" cy="558.5" r="3" fill="#1f77b4"/>
<circle cx="525.3" cy="563.2" r="3" fill="#1f77b4"/>
<circle cx="527.2" cy="563.7" r="3" fill="#1f77b4"/>
<circle cx="529.1" cy="559.6" r="3" fill="#1f77b4"/>
<circle cx="531.1" cy="558.9" r="3" fill="#1f77b4"/>
<circle cx="533.0" cy="563.2" r="3" fill="#1f77b4"/>
<circle cx="534.9" cy="563.5" r="3" fill="#1f77b4"/>
<circle cx="536.8" cy="561.0" r="3" fill="#1f77b4"/>
<circle cx="538.7" cy="564.0" r="3" fill="#1f77b4"/>
<circle cx="540.7" cy="563.7" r="3" fill="#1f77b4"/>
<circle cx="542.6" cy="564.0" r="3" fill="#1f77b4"/>
<circle cx="544.5" cy="560.9" r="3" fill="#1f77b4"/>
<circle cx="546.4" cy="565.6" r="3" fill="#1f77b4"/>
<circle cx="548.4" cy="560.6" r="3" fill="#1f77b4"/>
<circle cx="550.3" cy="561.0" r="3" fill="#1f77b4"/>
<circle cx="552.2" cy="559.3" r="3" fill="#1f77b4"/>
<circle cx="554.1" cy="559.7" r="3" fill="#1f77b4"/>
<circle cx="556.0" cy="562.1" r="3" fill="#1f77b4"/>
<circle cx="558.0" cy="559.6" r="3" fill="#1f77b4"/>
<circle cx="559.9" cy="561.1" r="3" fill="#1f77b4"/>
<circle cx="561.8" cy="559.3" r="3" fill="#1f77b4"/>
<circle cx="563.7" cy="560.9" r="3" fill="#1f77b4"/>
<circle cx="565.6" cy="558.6" r="3" fill="#1f77b4"/>
<circle cx="567.6" cy="560.2" r="3" fill="#1f77b4"/>
<circle cx="569.5" cy="562.8" r="3" fill="#1f77b4"/>
<circle cx="571.4" cy="564.1" r="3" fill="#1f77b4"/>
<circle cx="573.3" cy="561.6" r="3" fill="#1f77b4"/>
<circle cx="575.2" cy="561.7" r="3" fill="#1f77b4"/>
<circle cx="577.2" cy="563.2" r="3" fill="#1f77b4"/>
<circle cx="579.1" cy="558.6" r="3" fill="#1f77b4"/>
<circle cx="581.0" cy="558.9" r="3" fill="#1f77b4"/>
<circle cx="582.9" cy="558.6" r="3" fill="#1f77b4"/>
<circle cx="584.9" cy="563.2" r="3" fill="#1f77b4"/>
<circle cx="586.8" cy="557.5" r="3" fill="#1f77b4"/>
<circle cx="588.7" cy="562.4" r="3" fill="#1f77b4"/>
<circle cx="590.6" cy="559.4" r="3" fill="#1f77b4"/>
<circle cx="592.5" cy="556.9" r="3" fill="#1f77b4"/>
<circle cx="594.5" cy="561.1" r="3" fill="#1f77b4"/>
<circle cx="596.4" cy="562.0" r="3" fill="#1f77b4"/>
<circle cx="598.3" cy="561.6" r="3" fill="#1f77b4"/>
<circle cx="600.2" cy="560.2" r="3" fill="#1f77b4"/>
<circle cx="602.1" cy="553.5" r="3" fill="#1f77b4"/>
<circle cx="604.1" cy="556.5" r="3" fill="#1f77b4"/>
<circle cx="606.0" cy="554.0" r="3" fill="#1f77b4"/>
<circle cx="607.9" cy="555.2" r="3" fill="#1f77b4"/>
<circle cx="609.8" cy="557.7" r="3" fill="#1f77b4"/>
<circle cx="611.7" cy="550.8" r="3" fill="#1f77b4"/>
<circle cx="613.7" cy="552.7" r="3" fill="#1f77b4"/>
<circle cx="615.6" cy="555.8" r="3" fill="#1f77b4"/>
<circle cx="617.5" cy="560.4" r="3" fill="#1f77b4"/>
<circle cx="619.4" cy="560.2" r="3" fill="#1f77b4"/>
<circle cx="621.3" cy="557.1" r="3" fill="#1f77b4"/>
<circle cx="623.3" cy="555.4" r="3" fill="#1f77b4"/>
<circle cx="625.2" cy="558.3" r="3" fill="#1f77b4"/>
<circle cx="627.1" cy="553.7" r="3" fill="#1f77b4"/>
<circle cx="629.0" cy="557.7" r="3" fill="#1f77b4"/>
<circle cx="631.0" cy="555.2" r="3" fill="#1f77b4"/>
<circle cx="632.9" cy="557.4" r="3" fill="#1f77b4"/>
<circle cx="634.8" cy="556.5" r="3" fill="#1f77b4"/>
<circle cx="636.7" cy="556.6" r="3" fill="#1f77b4"/>
<circle cx="638.6" cy="557.2" r="3" fill="#1f77b4"/>
<circle cx="640.6" cy="557.0" r="3" fill="#1f77b4"/>
<circle cx="642.5" cy="561.2" r="3" fill="#1f77b4"/>
<circle cx="644.4" cy="558.2" r="3" fill="#1f77b4"/>
<circle cx="646.3" cy="560.7" r="3" fill="#1f77b4"/>
<circle cx="648.2" cy="559.4" r="3" fill="#1f77b4"/>
<circle cx="650.2" cy="556.6" r="3" fill="#1f77b4"/>
<circle cx="652.1" cy="559.4" r="3" fill="#1f77b4"/>
<circle cx="654.0" cy="558.6" r="3" fill="#1f77b4"/>
<circle cx="655.9" cy="559.7" r="3" fill="#1f77b4"/>
<circle cx="657.8" cy="559.1" r="3" fill="#1f77b4"/>
<circle cx="659.8" cy="559.7" r="3" fill="#1f77b4"/>
<circle cx="661.7" cy="559.2" r="3" fill="#1f77b4"/>
<circle cx="663.6" cy="560.5" r="3" fill="#1f77b4"/>
<circle cx="665.5" cy="559.9" r="3" fill="#1f77b4"/>
<circle cx="667.5" cy="555.9" r="3" fill="#1f77b4"/>
<circle cx="669.4" cy="559.8" r="3" fill="#1f77b4"/>
<circle cx="671.3" cy="558.3" r="3" fill="#1f77b4"/>
<circle cx="673.2" cy="558.4" r="3" fill="#1f77b4"/>
<circle cx="675.1" cy="553.5" r="3" fill="#1f77b4"/>
<circle cx="677.1" cy="549.2" r="3" fill="#1f77b4"/>
<circle cx="679.0" cy="554.2" r="3" fill="#1f77b4"/>
<circle cx="680.9" cy="554.1" r="3" fill="#1f77b4"/>
<circle cx="682.8" cy="555.3" r="3" fill="#1f77b4"/>
<circle cx="684.7" cy="553.9" r="3" fill="#1f77b4"/>
<circle cx="686.7" cy="554.8" r="3" fill="#1f77b4"/>
<circle cx="688.6" cy="548.4" r="3" fill="#1f77b4"/>
<circle cx="690.5" cy="554.4" r="3" fill="#1f77b4"/>
<circle cx="692.4" cy="552.8" r="3" fill="#1f77b4"/>
<circle cx="694.3" cy="552.6" r="3" fill="#1f77b4"/>
<circle cx="696.3" cy="551.6" r="3" fill="#1f77b4"/>
<circle cx="698.2" cy="552.5" r="3" fill="#1f77b4"/>
<circle cx="700.1" cy="552.7" r="3" fill="#1f77b4"/>
<circle cx="702.0" cy="554.2" r="3" fill="#1f77b4"/>
<circle cx="704.0" cy="554.3" r="3" fill="#1f77b4"/>
<circle cx="705.9" cy="551.7" r="3" fill="#1f77b4"/>
<circle cx="707.8" cy="558.1" r="3" fill="#1f77b4"/>
<circle cx="709.7" cy="554.9" r="3" fill="#1f77b4"/>
<circle cx="711.6" cy="555.3" r="3" fill="#1f77b4"/>
<circle cx="713.6" cy="558.3" r="3" fill="#1f77b4"/>
<circle cx="715.5" cy="557.3" r="3" fill="#1f77b4"/>
<circle cx="717.4" cy="559.9" r="3" fill="#1f77b4"/>
<circle cx="719.3" cy="558.8" r="3" fill="#1f77b4"/>
<circle cx="721.2" cy="559.5" r="3" fill="#1f77b4"/>
<circle cx="723.2" cy="555.6" r="3" fill="#1f77b4"/>
<circle cx="725.1" cy="558.8" r="3" fill="#1f77b4"/>
<circle cx="727.0" cy="554.2" r="3" fill="#1f77b4"/>
<circle cx="728.9" cy="554.6" r="3" fill="#1f77b4"/>
<circle cx="730.8" cy="558.3" r="3" fill="#1f77b4"/>
<circle cx="732.8" cy="552.9" r="3" fill="#1f77b4"/>
<circle cx="734.7" cy="555.9" r="3" fill="#1f77b4"/>
<circle cx="736.6" cy="554.4" r="3" fill="#1f77b4"/>
<circle cx="738.5" cy="550.7" r="3" fill="#1f77b4"/>
<circle cx="740.4" cy="551.4" r="3" fill="#1f77b4"/>
<circle cx="742.4" cy="555.5" r="3" fill="#1f77b4"/>
<circle cx="744.3" cy="559.3" r="3" fill="#1f77b4"/>
<circle cx="746.2" cy="554.6" r="3" fill="#1f77b4"/>
<circle cx="748.1" cy="557.3" r="3" fill="#1f77b4"/>
<circle cx="750.1" cy="557.4" r="3" fill="#1f77b4"/>
<circle cx="752.0" cy="555.4" r="3" fill="#1f77b4"/>
<circle cx="753.9" cy="555.0" r="3" fill="#1f77b4"/>
<circle cx="755.8" cy="559.3" r="3" fill="#1f77b4"/>
<circle cx="757.7" cy="553.5" r="3" fill="#1f77b4"/>
<circle cx="759.7" cy="554.0" r="3" fill="#1f77b4"/>
<circle cx="761.6" cy="553.5" r="3" fill="#1f77b4"/>
<circle cx="763.5" cy="552.1" r="3" fill="#1f77b4"/>
<circle cx="765.4" cy="551.4" r="3" fill="#1f77b4"/>
<circle cx="767.3" cy="557.8" r="3" fill="#1f77b4"/>
<circle cx="769.3" cy="556.8" r="3" fill="#1f77b4"/>
<circle cx="771.2" cy="556.9" r="3" fill="#1f77b4"/>
<circle cx="773.1" cy="553.4" r="3" fill="#1f77b4"/>
<circle cx="775.0" cy="550.4" r="3" fill="#1f77b4"/>
<circle cx="776.9" cy="551.2" r="3" fill="#1f77b4"/>
<circle cx="778.9" cy="553.0" r="3" fill="#1f77b4"/>
<circle cx="780.8" cy="548.9" r="3" fill="#1f77b4"/>
<circle cx="782.7" cy="552.7" r="3" fill="#1f77b4"/>
<circle cx="784.6" cy="552.1" r="3" fill="#1f77b4"/>
<circle cx="786.6" cy="551.4" r="3" fill="#1f77b4"/>
<circle cx="788.5" cy="547.9" r="3" fill="#1f77b4"/>
<circle cx="790.4" cy="554.1" r="3" fill="#1f77b4"/>
<circle cx="792.3" cy="548.9" r="3" fill="#1f77b4"/>
<circle cx="794.2" cy="550.8" r="3" fill="#1f77b4"/>
<circle cx="796.2" cy="551.2" r="3" fill="#1f77b4"/>
<circle cx="798.1" cy="547.6" r="3" fill="#1f77b4"/>
<circle cx="800.0" cy="551.1" r="3" fill="#1f77b4"/>
<line x1="828" y1="96" x2="850" y2="96" stroke="#1f77b4" stroke-width="2.5"/>
<text x="858" y="100" font-family="Arial" font-size="13">final_on_policy_lr4e-5_400_full_eval</text>
<text x="447.5" y="638" text-anchor="middle" font-family="Arial" font-size="15">GRPO step</text>
<text x="24" y="326.0" text-anchor="middle" font-family="Arial" font-size="15" transform="rotate(-90 24 326.0)">Mean token entropy</text>
</svg>
