<svg xmlns="http://www.w3.org/2000/svg" width="1100" height="660" viewBox="0 0 1100 660">
<rect width="100%" height="100%" fill="white"/>
<text x="550.0" y="36" text-anchor="middle" font-family="Arial" font-size="22" font-weight="700">Leaderboard token entropy</text>
<line x1="95" y1="578" x2="800" y2="578" stroke="#222" stroke-width="1.5"/>
<line x1="95" y1="74" x2="95" y2="578" stroke="#222" stroke-width="1.5"/>
<line x1="90" y1="578.0" x2="800" y2="578.0" stroke="#ddd" stroke-width="1"/>
<text x="83" y="582.0" text-anchor="end" font-family="Arial" font-size="12">0.00</text>
<line x1="90" y1="477.2" x2="800" y2="477.2" stroke="#ddd" stroke-width="1"/>
<text x="83" y="481.2" text-anchor="end" font-family="Arial" font-size="12">0.20</text>
<line x1="90" y1="376.4" x2="800" y2="376.4" stroke="#ddd" stroke-width="1"/>
<text x="83" y="380.4" text-anchor="end" font-family="Arial" font-size="12">0.40</text>
<line x1="90" y1="275.6" x2="800" y2="275.6" stroke="#ddd" stroke-width="1"/>
<text x="83" y="279.6" text-anchor="end" font-family="Arial" font-size="12">0.60</text>
<line x1="90" y1="174.8" x2="800" y2="174.8" stroke="#ddd" stroke-width="1"/>
<text x="83" y="178.8" text-anchor="end" font-family="Arial" font-size="12">0.80</text>
<line x1="90" y1="74.0" x2="800" y2="74.0" stroke="#ddd" stroke-width="1"/>
<text x="83" y="78.0" text-anchor="end" font-family="Arial" font-size="12">1.00</text>
<line x1="95.0" y1="578" x2="95.0" y2="583" stroke="#222" stroke-width="1"/>
<text x="95.0" y="602" text-anchor="middle" font-family="Arial" font-size="12">1</text>
<line x1="236.0" y1="578" x2="236.0" y2="583" stroke="#222" stroke-width="1"/>
<text x="236.0" y="602" text-anchor="middle" font-family="Arial" font-size="12">81</text>
<line x1="377.0" y1="578" x2="377.0" y2="583" stroke="#222" stroke-width="1"/>
<text x="377.0" y="602" text-anchor="middle" font-family="Arial" font-size="12">161</text>
<line x1="518.0" y1="578" x2="518.0" y2="583" stroke="#222" stroke-width="1"/>
<text x="518.0" y="602" text-anchor="middle" font-family="Arial" font-size="12">240</text>
<line x1="659.0" y1="578" x2="659.0" y2="583" stroke="#222" stroke-width="1"/>
<text x="659.0" y="602" text-anchor="middle" font-family="Arial" font-size="12">320</text>
<line x1="800.0" y1="578" x2="800.0" y2="583" stroke="#222" stroke-width="1"/>
<text x="800.0" y="602" text-anchor="middle" font-family="Arial" font-size="12">400</text>
<polyline fill="none" stroke="#1f77b4" stroke-width="2.3" points="95.0,112.5 96.8,379.0 98.5,447.4 100.3,441.0 102.1,460.9 103.8,451.8 105.6,476.1 107.4,473.7 109.1,468.3 110.9,478.1 112.7,489.6 114.4,488.1 116.2,497.9 118.0,509.6 119.7,481.7 121.5,470.6 123.3,478.5 125.0,455.9 126.8,474.9 128.6,467.6 130.3,464.0 132.1,443.2 133.9,448.2 135.6,442.6 137.4,455.2 139.2,431.7 140.9,418.9 142.7,427.1 144.5,429.7 146.2,456.9 148.0,475.4 149.8,464.2 151.5,489.7 153.3,486.5 155.1,488.6 156.8,493.0 158.6,507.4 160.4,488.0 162.1,512.1 163.9,509.9 165.7,515.8 167.4,507.9 169.2,519.1 171.0,501.3 172.7,490.7 174.5,495.3 176.3,506.4 178.0,502.2 179.8,504.6 181.6,498.1 183.3,505.8 185.1,505.4 186.9,502.3 188.6,481.3 190.4,490.5 192.2,477.1 193.9,485.4 195.7,477.3 197.5,474.2 199.2,459.9 201.0,478.8 202.8,477.2 204.5,470.0 206.3,461.4 208.1,456.2 209.8,478.1 211.6,472.6 213.4,457.2 215.2,483.8 216.9,485.7 218.7,450.0 220.5,487.8 222.2,481.1 224.0,478.2 225.8,491.4 227.5,489.9 229.3,487.5 231.1,482.6 232.8,490.1 234.6,489.2 236.4,476.0 238.1,481.9 239.9,497.1 241.7,484.0 243.4,497.3 245.2,502.2 247.0,505.7 248.7,491.7 250.5,502.2 252.3,512.1 254.0,500.0 255.8,490.0 257.6,503.4 259.3,500.1 261.1,499.1 262.9,511.1 264.6,496.6 266.4,504.3 268.2,504.6 269.9,496.7 271.7,508.0 273.5,494.8 275.2,512.3 277.0,516.8 278.8,515.0 280.5,519.4 282.3,514.6 284.1,502.5 285.8,516.9 287.6,517.8 289.4,515.9 291.1,522.6 292.9,527.7 294.7,524.7 296.4,518.0 298.2,520.1 300.0,520.1 301.7,522.0 303.5,524.2 305.3,512.8 307.0,526.7 308.8,527.7 310.6,534.3 312.3,543.4 314.1,523.6 315.9,533.9 317.6,523.6 319.4,526.2 321.2,534.0 322.9,529.8 324.7,518.0 326.5,528.3 328.2,524.3 330.0,513.5 331.8,525.2 333.5,529.4 335.3,504.3 337.1,526.4 338.8,519.9 340.6,505.0 342.4,519.3 344.1,520.2 345.9,526.9 347.7,516.3 349.4,510.7 351.2,524.1 353.0,511.4 354.7,525.9 356.5,509.1 358.3,514.5 360.0,522.1 361.8,514.4 363.6,524.6 365.3,522.2 367.1,522.3 368.9,516.9 370.6,517.3 372.4,522.5 374.2,519.6 375.9,519.0 377.7,521.8 379.5,522.7 381.2,531.9 383.0,515.4 384.8,509.9 386.5,528.5 388.3,543.8 390.1,540.4 391.8,544.9 393.6,545.7 395.4,545.6 397.1,548.0 398.9,550.8 400.7,554.4 402.4,552.1 404.2,552.0 406.0,549.6 407.7,551.4 409.5,551.7 411.3,555.8 413.0,553.1 414.8,551.2 416.6,555.5 418.3,550.0 420.1,552.8 421.9,551.2 423.6,547.6 425.4,545.3 427.2,544.6 428.9,541.9 430.7,542.9 432.5,548.5 434.2,529.2 436.0,530.7 437.8,529.6 439.5,528.4 441.3,531.1 443.1,537.9 444.8,539.7 446.6,545.5 448.4,539.9 450.2,547.2 451.9,543.6 453.7,546.3 455.5,544.1 457.2,548.7 459.0,545.3 460.8,554.3 462.5,552.2 464.3,553.5 466.1,556.5 467.8,558.8 469.6,559.4 471.4,554.8 473.1,556.6 474.9,559.6 476.7,561.7 478.4,560.9 480.2,562.3 482.0,560.1 483.7,558.1 485.5,563.4 487.3,560.0 489.0,556.2 490.8,560.0 492.6,560.5 494.3,557.1 496.1,556.1 497.9,560.3 499.6,562.3 501.4,558.6 503.2,561.1 504.9,559.8 506.7,558.2 508.5,556.5 510.2,558.6 512.0,551.0 513.8,547.9 515.5,546.6 517.3,544.3 519.1,545.2 520.8,543.6 522.6,542.8 524.4,538.0 526.1,536.8 527.9,535.2 529.7,534.9 531.4,537.3 533.2,539.8 535.0,528.4 536.7,530.9 538.5,528.3 540.3,523.2 542.0,520.1 543.8,520.3 545.6,530.4 547.3,510.2 549.1,519.7 550.9,516.7 552.6,506.0 554.4,519.1 556.2,520.2 557.9,517.2 559.7,512.1 561.5,509.9 563.2,516.8 565.0,509.8 566.8,520.7 568.5,522.7 570.3,518.1 572.1,518.7 573.8,523.2 575.6,535.3 577.4,532.9 579.1,529.3 580.9,530.5 582.7,530.6 584.4,522.8 586.2,529.5 588.0,522.2 589.7,524.3 591.5,529.3 593.3,529.8 595.0,524.4 596.8,522.2 598.6,530.4 600.3,518.1 602.1,521.3 603.9,518.9 605.6,518.1 607.4,520.5 609.2,515.0 610.9,512.0 612.7,509.8 614.5,514.5 616.2,517.2 618.0,517.8 619.8,520.7 621.5,511.9 623.3,516.0 625.1,516.3 626.8,512.9 628.6,507.5 630.4,496.4 632.1,516.4 633.9,512.7 635.7,518.7 637.4,509.2 639.2,509.8 641.0,503.9 642.7,504.8 644.5,505.9 646.3,504.8 648.0,512.5 649.8,513.0 651.6,515.6 653.3,519.2 655.1,518.0 656.9,512.6 658.6,528.5 660.4,524.9 662.2,528.4 663.9,527.9 665.7,529.8 667.5,537.2 669.2,520.4 671.0,529.1 672.8,521.4 674.5,526.2 676.3,523.2 678.1,525.8 679.8,535.2 681.6,526.3 683.4,532.2 685.2,531.5 686.9,524.6 688.7,524.0 690.5,528.9 692.2,531.7 694.0,525.6 695.8,524.5 697.5,519.1 699.3,517.0 701.1,517.8 702.8,525.6 704.6,506.0 706.4,503.8 708.1,510.4 709.9,500.5 711.7,507.3 713.4,518.8 715.2,520.3 717.0,511.0 718.7,505.9 720.5,506.9 722.3,512.3 724.0,513.4 725.8,505.6 727.6,513.3 729.3,511.4 731.1,515.5 732.9,516.9 734.6,521.2 736.4,516.7 738.2,517.5 739.9,520.9 741.7,510.8 743.5,522.3 745.2,525.3 747.0,531.1 748.8,526.6 750.5,526.1 752.3,522.8 754.1,527.0 755.8,509.0 757.6,524.6 759.4,524.2 761.1,523.6 762.9,521.7 764.7,517.1 766.4,520.3 768.2,526.5 770.0,509.2 771.7,504.7 773.5,524.6 775.3,514.8 777.0,516.8 778.8,515.7 780.6,516.3 782.3,508.9 784.1,506.8 785.9,516.3 787.6,514.1 789.4,520.9 791.2,514.5 792.9,521.3 794.7,516.6 796.5,511.0 798.2,524.4 800.0,516.0"/>
<circle cx="95.0" cy="112.5" r="3" fill="#1f77b4"/>
<circle cx="96.8" cy="379.0" r="3" fill="#1f77b4"/>
<circle cx="98.5" cy="447.4" r="3" fill="#1f77b4"/>
<circle cx="100.3" cy="441.0" r="3" fill="#1f77b4"/>
<circle cx="102.1" cy="460.9" r="3" fill="#1f77b4"/>
<circle cx="103.8" cy="451.8" r="3" fill="#1f77b4"/>
<circle cx="105.6" cy="476.1" r="3" fill="#1f77b4"/>
<circle cx="107.4" cy="473.7" r="3" fill="#1f77b4"/>
<circle cx="109.1" cy="468.3" r="3" fill="#1f77b4"/>
<circle cx="110.9" cy="478.1" r="3" fill="#1f77b4"/>
<circle cx="112.7" cy="489.6" r="3" fill="#1f77b4"/>
<circle cx="114.4" cy="488.1" r="3" fill="#1f77b4"/>
<circle cx="116.2" cy="497.9" r="3" fill="#1f77b4"/>
<circle cx="118.0" cy="509.6" r="3" fill="#1f77b4"/>
<circle cx="119.7" cy="481.7" r="3" fill="#1f77b4"/>
<circle cx="121.5" cy="470.6" r="3" fill="#1f77b4"/>
<circle cx="123.3" cy="478.5" r="3" fill="#1f77b4"/>
<circle cx="125.0" cy="455.9" r="3" fill="#1f77b4"/>
<circle cx="126.8" cy="474.9" r="3" fill="#1f77b4"/>
<circle cx="128.6" cy="467.6" r="3" fill="#1f77b4"/>
<circle cx="130.3" cy="464.0" r="3" fill="#1f77b4"/>
<circle cx="132.1" cy="443.2" r="3" fill="#1f77b4"/>
<circle cx="133.9" cy="448.2" r="3" fill="#1f77b4"/>
<circle cx="135.6" cy="442.6" r="3" fill="#1f77b4"/>
<circle cx="137.4" cy="455.2" r="3" fill="#1f77b4"/>
<circle cx="139.2" cy="431.7" r="3" fill="#1f77b4"/>
<circle cx="140.9" cy="418.9" r="3" fill="#1f77b4"/>
<circle cx="142.7" cy="427.1" r="3" fill="#1f77b4"/>
<circle cx="144.5" cy="429.7" r="3" fill="#1f77b4"/>
<circle cx="146.2" cy="456.9" r="3" fill="#1f77b4"/>
<circle cx="148.0" cy="475.4" r="3" fill="#1f77b4"/>
<circle cx="149.8" cy="464.2" r="3" fill="#1f77b4"/>
<circle cx="151.5" cy="489.7" r="3" fill="#1f77b4"/>
<circle cx="153.3" cy="486.5" r="3" fill="#1f77b4"/>
<circle cx="155.1" cy="488.6" r="3" fill="#1f77b4"/>
<circle cx="156.8" cy="493.0" r="3" fill="#1f77b4"/>
<circle cx="158.6" cy="507.4" r="3" fill="#1f77b4"/>
<circle cx="160.4" cy="488.0" r="3" fill="#1f77b4"/>
<circle cx="162.1" cy="512.1" r="3" fill="#1f77b4"/>
<circle cx="163.9" cy="509.9" r="3" fill="#1f77b4"/>
<circle cx="165.7" cy="515.8" r="3" fill="#1f77b4"/>
<circle cx="167.4" cy="507.9" r="3" fill="#1f77b4"/>
<circle cx="169.2" cy="519.1" r="3" fill="#1f77b4"/>
<circle cx="171.0" cy="501.3" r="3" fill="#1f77b4"/>
<circle cx="172.7" cy="490.7" r="3" fill="#1f77b4"/>
<circle cx="174.5" cy="495.3" r="3" fill="#1f77b4"/>
<circle cx="176.3" cy="506.4" r="3" fill="#1f77b4"/>
<circle cx="178.0" cy="502.2" r="3" fill="#1f77b4"/>
<circle cx="179.8" cy="504.6" r="3" fill="#1f77b4"/>
<circle cx="181.6" cy="498.1" r="3" fill="#1f77b4"/>
<circle cx="183.3" cy="505.8" r="3" fill="#1f77b4"/>
<circle cx="185.1" cy="505.4" r="3" fill="#1f77b4"/>
<circle cx="186.9" cy="502.3" r="3" fill="#1f77b4"/>
<circle cx="188.6" cy="481.3" r="3" fill="#1f77b4"/>
<circle cx="190.4" cy="490.5" r="3" fill="#1f77b4"/>
<circle cx="192.2" cy="477.1" r="3" fill="#1f77b4"/>
<circle cx="193.9" cy="485.4" r="3" fill="#1f77b4"/>
<circle cx="195.7" cy="477.3" r="3" fill="#1f77b4"/>
<circle cx="197.5" cy="474.2" r="3" fill="#1f77b4"/>
<circle cx="199.2" cy="459.9" r="3" fill="#1f77b4"/>
<circle cx="201.0" cy="478.8" r="3" fill="#1f77b4"/>
<circle cx="202.8" cy="477.2" r="3" fill="#1f77b4"/>
<circle cx="204.5" cy="470.0" r="3" fill="#1f77b4"/>
<circle cx="206.3" cy="461.4" r="3" fill="#1f77b4"/>
<circle cx="208.1" cy="456.2" r="3" fill="#1f77b4"/>
<circle cx="209.8" cy="478.1" r="3" fill="#1f77b4"/>
<circle cx="211.6" cy="472.6" r="3" fill="#1f77b4"/>
<circle cx="213.4" cy="457.2" r="3" fill="#1f77b4"/>
<circle cx="215.2" cy="483.8" r="3" fill="#1f77b4"/>
<circle cx="216.9" cy="485.7" r="3" fill="#1f77b4"/>
<circle cx="218.7" cy="450.0" r="3" fill="#1f77b4"/>
<circle cx="220.5" cy="487.8" r="3" fill="#1f77b4"/>
<circle cx="222.2" cy="481.1" r="3" fill="#1f77b4"/>
<circle cx="224.0" cy="478.2" r="3" fill="#1f77b4"/>
<circle cx="225.8" cy="491.4" r="3" fill="#1f77b4"/>
<circle cx="227.5" cy="489.9" r="3" fill="#1f77b4"/>
<circle cx="229.3" cy="487.5" r="3" fill="#1f77b4"/>
<circle cx="231.1" cy="482.6" r="3" fill="#1f77b4"/>
<circle cx="232.8" cy="490.1" r="3" fill="#1f77b4"/>
<circle cx="234.6" cy="489.2" r="3" fill="#1f77b4"/>
<circle cx="236.4" cy="476.0" r="3" fill="#1f77b4"/>
<circle cx="238.1" cy="481.9" r="3" fill="#1f77b4"/>
<circle cx="239.9" cy="497.1" r="3" fill="#1f77b4"/>
<circle cx="241.7" cy="484.0" r="3" fill="#1f77b4"/>
<circle cx="243.4" cy="497.3" r="3" fill="#1f77b4"/>
<circle cx="245.2" cy="502.2" r="3" fill="#1f77b4"/>
<circle cx="247.0" cy="505.7" r="3" fill="#1f77b4"/>
<circle cx="248.7" cy="491.7" r="3" fill="#1f77b4"/>
<circle cx="250.5" cy="502.2" r="3" fill="#1f77b4"/>
<circle cx="252.3" cy="512.1" r="3" fill="#1f77b4"/>
<circle cx="254.0" cy="500.0" r="3" fill="#1f77b4"/>
<circle cx="255.8" cy="490.0" r="3" fill="#1f77b4"/>
<circle cx="257.6" cy="503.4" r="3" fill="#1f77b4"/>
<circle cx="259.3" cy="500.1" r="3" fill="#1f77b4"/>
<circle cx="261.1" cy="499.1" r="3" fill="#1f77b4"/>
<circle cx="262.9" cy="511.1" r="3" fill="#1f77b4"/>
<circle cx="264.6" cy="496.6" r="3" fill="#1f77b4"/>
<circle cx="266.4" cy="504.3" r="3" fill="#1f77b4"/>
<circle cx="268.2" cy="504.6" r="3" fill="#1f77b4"/>
<circle cx="269.9" cy="496.7" r="3" fill="#1f77b4"/>
<circle cx="271.7" cy="508.0" r="3" fill="#1f77b4"/>
<circle cx="273.5" cy="494.8" r="3" fill="#1f77b4"/>
<circle cx="275.2" cy="512.3" r="3" fill="#1f77b4"/>
<circle cx="277.0" cy="516.8" r="3" fill="#1f77b4"/>
<circle cx="278.8" cy="515.0" r="3" fill="#1f77b4"/>
<circle cx="280.5" cy="519.4" r="3" fill="#1f77b4"/>
<circle cx="282.3" cy="514.6" r="3" fill="#1f77b4"/>
<circle cx="284.1" cy="502.5" r="3" fill="#1f77b4"/>
<circle cx="285.8" cy="516.9" r="3" fill="#1f77b4"/>
<circle cx="287.6" cy="517.8" r="3" fill="#1f77b4"/>
<circle cx="289.4" cy="515.9" r="3" fill="#1f77b4"/>
<circle cx="291.1" cy="522.6" r="3" fill="#1f77b4"/>
<circle cx="292.9" cy="527.7" r="3" fill="#1f77b4"/>
<circle cx="294.7" cy="524.7" r="3" fill="#1f77b4"/>
<circle cx="296.4" cy="518.0" r="3" fill="#1f77b4"/>
<circle cx="298.2" cy="520.1" r="3" fill="#1f77b4"/>
<circle cx="300.0" cy="520.1" r="3" fill="#1f77b4"/>
<circle cx="301.7" cy="522.0" r="3" fill="#1f77b4"/>
<circle cx="303.5" cy="524.2" r="3" fill="#1f77b4"/>
<circle cx="305.3" cy="512.8" r="3" fill="#1f77b4"/>
<circle cx="307.0" cy="526.7" r="3" fill="#1f77b4"/>
<circle cx="308.8" cy="527.7" r="3" fill="#1f77b4"/>
<circle cx="310.6" cy="534.3" r="3" fill="#1f77b4"/>
<circle cx="312.3" cy="543.4" r="3" fill="#1f77b4"/>
<circle cx="314.1" cy="523.6" r="3" fill="#1f77b4"/>
<circle cx="315.9" cy="533.9" r="3" fill="#1f77b4"/>
<circle cx="317.6" cy="523.6" r="3" fill="#1f77b4"/>
<circle cx="319.4" cy="526.2" r="3" fill="#1f77b4"/>
<circle cx="321.2" cy="534.0" r="3" fill="#1f77b4"/>
<circle cx="322.9" cy="529.8" r="3" fill="#1f77b4"/>
<circle cx="324.7" cy="518.0" r="3" fill="#1f77b4"/>
<circle cx="326.5" cy="528.3" r="3" fill="#1f77b4"/>
<circle cx="328.2" cy="524.3" r="3" fill="#1f77b4"/>
<circle cx="330.0" cy="513.5" r="3" fill="#1f77b4"/>
<circle cx="331.8" cy="525.2" r="3" fill="#1f77b4"/>
<circle cx="333.5" cy="529.4" r="3" fill="#1f77b4"/>
<circle cx="335.3" cy="504.3" r="3" fill="#1f77b4"/>
<circle cx="337.1" cy="526.4" r="3" fill="#1f77b4"/>
<circle cx="338.8" cy="519.9" r="3" fill="#1f77b4"/>
<circle cx="340.6" cy="505.0" r="3" fill="#1f77b4"/>
<circle cx="342.4" cy="519.3" r="3" fill="#1f77b4"/>
<circle cx="344.1" cy="520.2" r="3" fill="#1f77b4"/>
<circle cx="345.9" cy="526.9" r="3" fill="#1f77b4"/>
<circle cx="347.7" cy="516.3" r="3" fill="#1f77b4"/>
<circle cx="349.4" cy="510.7" r="3" fill="#1f77b4"/>
<circle cx="351.2" cy="524.1" r="3" fill="#1f77b4"/>
<circle cx="353.0" cy="511.4" r="3" fill="#1f77b4"/>
<circle cx="354.7" cy="525.9" r="3" fill="#1f77b4"/>
<circle cx="356.5" cy="509.1" r="3" fill="#1f77b4"/>
<circle cx="358.3" cy="514.5" r="3" fill="#1f77b4"/>
<circle cx="360.0" cy="522.1" r="3" fill="#1f77b4"/>
<circle cx="361.8" cy="514.4" r="3" fill="#1f77b4"/>
<circle cx="363.6" cy="524.6" r="3" fill="#1f77b4"/>
<circle cx="365.3" cy="522.2" r="3" fill="#1f77b4"/>
<circle cx="367.1" cy="522.3" r="3" fill="#1f77b4"/>
<circle cx="368.9" cy="516.9" r="3" fill="#1f77b4"/>
<circle cx="370.6" cy="517.3" r="3" fill="#1f77b4"/>
<circle cx="372.4" cy="522.5" r="3" fill="#1f77b4"/>
<circle cx="374.2" cy="519.6" r="3" fill="#1f77b4"/>
<circle cx="375.9" cy="519.0" r="3" fill="#1f77b4"/>
<circle cx="377.7" cy="521.8" r="3" fill="#1f77b4"/>
<circle cx="379.5" cy="522.7" r="3" fill="#1f77b4"/>
<circle cx="381.2" cy="531.9" r="3" fill="#1f77b4"/>
<circle cx="383.0" cy="515.4" r="3" fill="#1f77b4"/>
<circle cx="384.8" cy="509.9" r="3" fill="#1f77b4"/>
<circle cx="386.5" cy="528.5" r="3" fill="#1f77b4"/>
<circle cx="388.3" cy="543.8" r="3" fill="#1f77b4"/>
<circle cx="390.1" cy="540.4" r="3" fill="#1f77b4"/>
<circle cx="391.8" cy="544.9" r="3" fill="#1f77b4"/>
<circle cx="393.6" cy="545.7" r="3" fill="#1f77b4"/>
<circle cx="395.4" cy="545.6" r="3" fill="#1f77b4"/>
<circle cx="397.1" cy="548.0" r="3" fill="#1f77b4"/>
<circle cx="398.9" cy="550.8" r="3" fill="#1f77b4"/>
<circle cx="400.7" cy="554.4" r="3" fill="#1f77b4"/>
<circle cx="402.4" cy="552.1" r="3" fill="#1f77b4"/>
<circle cx="404.2" cy="552.0" r="3" fill="#1f77b4"/>
<circle cx="406.0" cy="549.6" r="3" fill="#1f77b4"/>
<circle cx="407.7" cy="551.4" r="3" fill="#1f77b4"/>
<circle cx="409.5" cy="551.7" r="3" fill="#1f77b4"/>
<circle cx="411.3" cy="555.8" r="3" fill="#1f77b4"/>
<circle cx="413.0" cy="553.1" r="3" fill="#1f77b4"/>
<circle cx="414.8" cy="551.2" r="3" fill="#1f77b4"/>
<circle cx="416.6" cy="555.5" r="3" fill="#1f77b4"/>
<circle cx="418.3" cy="550.0" r="3" fill="#1f77b4"/>
<circle cx="420.1" cy="552.8" r="3" fill="#1f77b4"/>
<circle cx="421.9" cy="551.2" r="3" fill="#1f77b4"/>
<circle cx="423.6" cy="547.6" r="3" fill="#1f77b4"/>
<circle cx="425.4" cy="545.3" r="3" fill="#1f77b4"/>
<circle cx="427.2" cy="544.6" r="3" fill="#1f77b4"/>
<circle cx="428.9" cy="541.9" r="3" fill="#1f77b4"/>
<circle cx="430.7" cy="542.9" r="3" fill="#1f77b4"/>
<circle cx="432.5" cy="548.5" r="3" fill="#1f77b4"/>
<circle cx="434.2" cy="529.2" r="3" fill="#1f77b4"/>
<circle cx="436.0" cy="530.7" r="3" fill="#1f77b4"/>
<circle cx="437.8" cy="529.6" r="3" fill="#1f77b4"/>
<circle cx="439.5" cy="528.4" r="3" fill="#1f77b4"/>
<circle cx="441.3" cy="531.1" r="3" fill="#1f77b4"/>
<circle cx="443.1" cy="537.9" r="3" fill="#1f77b4"/>
<circle cx="444.8" cy="539.7" r="3" fill="#1f77b4"/>
<circle cx="446.6" cy="545.5" r="3" fill="#1f77b4"/>
<circle cx="448.4" cy="539.9" r="3" fill="#1f77b4"/>
<circle cx="450.2" cy="547.2" r="3" fill="#1f77b4"/>
<circle cx="451.9" cy="543.6" r="3" fill="#1f77b4"/>
<circle cx="453.7" cy="546.3" r="3" fill="#1f77b4"/>
<circle cx="455.5" cy="544.1" r="3" fill="#1f77b4"/>
<circle cx="457.2" cy="548.7" r="3" fill="#1f77b4"/>
<circle cx="459.0" cy="545.3" r="3" fill="#1f77b4"/>
<circle cx="460.8" cy="554.3" r="3" fill="#1f77b4"/>
<circle cx="462.5" cy="552.2" r="3" fill="#1f77b4"/>
<circle cx="464.3" cy="553.5" r="3" fill="#1f77b4"/>
<circle cx="466.1" cy="556.5" r="3" fill="#1f77b4"/>
<circle cx="467.8" cy="558.8" r="3" fill="#1f77b4"/>
<circle cx="469.6" cy="559.4" r="3" fill="#1f77b4"/>
<circle cx="471.4" cy="554.8" r="3" fill="#1f77b4"/>
<circle cx="473.1" cy="556.6" r="3" fill="#1f77b4"/>
<circle cx="474.9" cy="559.6" r="3" fill="#1f77b4"/>
<circle cx="476.7" cy="561.7" r="3" fill="#1f77b4"/>
<circle cx="478.4" cy="560.9" r="3" fill="#1f77b4"/>
<circle cx="480.2" cy="562.3" r="3" fill="#1f77b4"/>
<circle cx="482.0" cy="560.1" r="3" fill="#1f77b4"/>
<circle cx="483.7" cy="558.1" r="3" fill="#1f77b4"/>
<circle cx="485.5" cy="563.4" r="3" fill="#1f77b4"/>
<circle cx="487.3" cy="560.0" r="3" fill="#1f77b4"/>
<circle cx="489.0" cy="556.2" r="3" fill="#1f77b4"/>
<circle cx="490.8" cy="560.0" r="3" fill="#1f77b4"/>
<circle cx="492.6" cy="560.5" r="3" fill="#1f77b4"/>
<circle cx="494.3" cy="557.1" r="3" fill="#1f77b4"/>
<circle cx="496.1" cy="556.1" r="3" fill="#1f77b4"/>
<circle cx="497.9" cy="560.3" r="3" fill="#1f77b4"/>
<circle cx="499.6" cy="562.3" r="3" fill="#1f77b4"/>
<circle cx="501.4" cy="558.6" r="3" fill="#1f77b4"/>
<circle cx="503.2" cy="561.1" r="3" fill="#1f77b4"/>
<circle cx="504.9" cy="559.8" r="3" fill="#1f77b4"/>
<circle cx="506.7" cy="558.2" r="3" fill="#1f77b4"/>
<circle cx="508.5" cy="556.5" r="3" fill="#1f77b4"/>
<circle cx="510.2" cy="558.6" r="3" fill="#1f77b4"/>
<circle cx="512.0" cy="551.0" r="3" fill="#1f77b4"/>
<circle cx="513.8" cy="547.9" r="3" fill="#1f77b4"/>
<circle cx="515.5" cy="546.6" r="3" fill="#1f77b4"/>
<circle cx="517.3" cy="544.3" r="3" fill="#1f77b4"/>
<circle cx="519.1" cy="545.2" r="3" fill="#1f77b4"/>
<circle cx="520.8" cy="543.6" r="3" fill="#1f77b4"/>
<circle cx="522.6" cy="542.8" r="3" fill="#1f77b4"/>
<circle cx="524.4" cy="538.0" r="3" fill="#1f77b4"/>
<circle cx="526.1" cy="536.8" r="3" fill="#1f77b4"/>
<circle cx="527.9" cy="535.2" r="3" fill="#1f77b4"/>
<circle cx="529.7" cy="534.9" r="3" fill="#1f77b4"/>
<circle cx="531.4" cy="537.3" r="3" fill="#1f77b4"/>
<circle cx="533.2" cy="539.8" r="3" fill="#1f77b4"/>
<circle cx="535.0" cy="528.4" r="3" fill="#1f77b4"/>
<circle cx="536.7" cy="530.9" r="3" fill="#1f77b4"/>
<circle cx="538.5" cy="528.3" r="3" fill="#1f77b4"/>
<circle cx="540.3" cy="523.2" r="3" fill="#1f77b4"/>
<circle cx="542.0" cy="520.1" r="3" fill="#1f77b4"/>
<circle cx="543.8" cy="520.3" r="3" fill="#1f77b4"/>
<circle cx="545.6" cy="530.4" r="3" fill="#1f77b4"/>
<circle cx="547.3" cy="510.2" r="3" fill="#1f77b4"/>
<circle cx="549.1" cy="519.7" r="3" fill="#1f77b4"/>
<circle cx="550.9" cy="516.7" r="3" fill="#1f77b4"/>
<circle cx="552.6" cy="506.0" r="3" fill="#1f77b4"/>
<circle cx="554.4" cy="519.1" r="3" fill="#1f77b4"/>
<circle cx="556.2" cy="520.2" r="3" fill="#1f77b4"/>
<circle cx="557.9" cy="517.2" r="3" fill="#1f77b4"/>
<circle cx="559.7" cy="512.1" r="3" fill="#1f77b4"/>
<circle cx="561.5" cy="509.9" r="3" fill="#1f77b4"/>
<circle cx="563.2" cy="516.8" r="3" fill="#1f77b4"/>
<circle cx="565.0" cy="509.8" r="3" fill="#1f77b4"/>
<circle cx="566.8" cy="520.7" r="3" fill="#1f77b4"/>
<circle cx="568.5" cy="522.7" r="3" fill="#1f77b4"/>
<circle cx="570.3" cy="518.1" r="3" fill="#1f77b4"/>
<circle cx="572.1" cy="518.7" r="3" fill="#1f77b4"/>
<circle cx="573.8" cy="523.2" r="3" fill="#1f77b4"/>
<circle cx="575.6" cy="535.3" r="3" fill="#1f77b4"/>
<circle cx="577.4" cy="532.9" r="3" fill="#1f77b4"/>
<circle cx="579.1" cy="529.3" r="3" fill="#1f77b4"/>
<circle cx="580.9" cy="530.5" r="3" fill="#1f77b4"/>
<circle cx="582.7" cy="530.6" r="3" fill="#1f77b4"/>
<circle cx="584.4" cy="522.8" r="3" fill="#1f77b4"/>
<circle cx="586.2" cy="529.5" r="3" fill="#1f77b4"/>
<circle cx="588.0" cy="522.2" r="3" fill="#1f77b4"/>
<circle cx="589.7" cy="524.3" r="3" fill="#1f77b4"/>
<circle cx="591.5" cy="529.3" r="3" fill="#1f77b4"/>
<circle cx="593.3" cy="529.8" r="3" fill="#1f77b4"/>
<circle cx="595.0" cy="524.4" r="3" fill="#1f77b4"/>
<circle cx="596.8" cy="522.2" r="3" fill="#1f77b4"/>
<circle cx="598.6" cy="530.4" r="3" fill="#1f77b4"/>
<circle cx="600.3" cy="518.1" r="3" fill="#1f77b4"/>
<circle cx="602.1" cy="521.3" r="3" fill="#1f77b4"/>
<circle cx="603.9" cy="518.9" r="3" fill="#1f77b4"/>
<circle cx="605.6" cy="518.1" r="3" fill="#1f77b4"/>
<circle cx="607.4" cy="520.5" r="3" fill="#1f77b4"/>
<circle cx="609.2" cy="515.0" r="3" fill="#1f77b4"/>
<circle cx="610.9" cy="512.0" r="3" fill="#1f77b4"/>
<circle cx="612.7" cy="509.8" r="3" fill="#1f77b4"/>
<circle cx="614.5" cy="514.5" r="3" fill="#1f77b4"/>
<circle cx="616.2" cy="517.2" r="3" fill="#1f77b4"/>
<circle cx="618.0" cy="517.8" r="3" fill="#1f77b4"/>
<circle cx="619.8" cy="520.7" r="3" fill="#1f77b4"/>
<circle cx="621.5" cy="511.9" r="3" fill="#1f77b4"/>
<circle cx="623.3" cy="516.0" r="3" fill="#1f77b4"/>
<circle cx="625.1" cy="516.3" r="3" fill="#1f77b4"/>
<circle cx="626.8" cy="512.9" r="3" fill="#1f77b4"/>
<circle cx="628.6" cy="507.5" r="3" fill="#1f77b4"/>
<circle cx="630.4" cy="496.4" r="3" fill="#1f77b4"/>
<circle cx="632.1" cy="516.4" r="3" fill="#1f77b4"/>
<circle cx="633.9" cy="512.7" r="3" fill="#1f77b4"/>
<circle cx="635.7" cy="518.7" r="3" fill="#1f77b4"/>
<circle cx="637.4" cy="509.2" r="3" fill="#1f77b4"/>
<circle cx="639.2" cy="509.8" r="3" fill="#1f77b4"/>
<circle cx="641.0" cy="503.9" r="3" fill="#1f77b4"/>
<circle cx="642.7" cy="504.8" r="3" fill="#1f77b4"/>
<circle cx="644.5" cy="505.9" r="3" fill="#1f77b4"/>
<circle cx="646.3" cy="504.8" r="3" fill="#1f77b4"/>
<circle cx="648.0" cy="512.5" r="3" fill="#1f77b4"/>
<circle cx="649.8" cy="513.0" r="3" fill="#1f77b4"/>
<circle cx="651.6" cy="515.6" r="3" fill="#1f77b4"/>
<circle cx="653.3" cy="519.2" r="3" fill="#1f77b4"/>
<circle cx="655.1" cy="518.0" r="3" fill="#1f77b4"/>
<circle cx="656.9" cy="512.6" r="3" fill="#1f77b4"/>
<circle cx="658.6" cy="528.5" r="3" fill="#1f77b4"/>
<circle cx="660.4" cy="524.9" r="3" fill="#1f77b4"/>
<circle cx="662.2" cy="528.4" r="3" fill="#1f77b4"/>
<circle cx="663.9" cy="527.9" r="3" fill="#1f77b4"/>
<circle cx="665.7" cy="529.8" r="3" fill="#1f77b4"/>
<circle cx="667.5" cy="537.2" r="3" fill="#1f77b4"/>
<circle cx="669.2" cy="520.4" r="3" fill="#1f77b4"/>
<circle cx="671.0" cy="529.1" r="3" fill="#1f77b4"/>
<circle cx="672.8" cy="521.4" r="3" fill="#1f77b4"/>
<circle cx="674.5" cy="526.2" r="3" fill="#1f77b4"/>
<circle cx="676.3" cy="523.2" r="3" fill="#1f77b4"/>
<circle cx="678.1" cy="525.8" r="3" fill="#1f77b4"/>
<circle cx="679.8" cy="535.2" r="3" fill="#1f77b4"/>
<circle cx="681.6" cy="526.3" r="3" fill="#1f77b4"/>
<circle cx="683.4" cy="532.2" r="3" fill="#1f77b4"/>
<circle cx="685.2" cy="531.5" r="3" fill="#1f77b4"/>
<circle cx="686.9" cy="524.6" r="3" fill="#1f77b4"/>
<circle cx="688.7" cy="524.0" r="3" fill="#1f77b4"/>
<circle cx="690.5" cy="528.9" r="3" fill="#1f77b4"/>
<circle cx="692.2" cy="531.7" r="3" fill="#1f77b4"/>
<circle cx="694.0" cy="525.6" r="3" fill="#1f77b4"/>
<circle cx="695.8" cy="524.5" r="3" fill="#1f77b4"/>
<circle cx="697.5" cy="519.1" r="3" fill="#1f77b4"/>
<circle cx="699.3" cy="517.0" r="3" fill="#1f77b4"/>
<circle cx="701.1" cy="517.8" r="3" fill="#1f77b4"/>
<circle cx="702.8" cy="525.6" r="3" fill="#1f77b4"/>
<circle cx="704.6" cy="506.0" r="3" fill="#1f77b4"/>
<circle cx="706.4" cy="503.8" r="3" fill="#1f77b4"/>
<circle cx="708.1" cy="510.4" r="3" fill="#1f77b4"/>
<circle cx="709.9" cy="500.5" r="3" fill="#1f77b4"/>
<circle cx="711.7" cy="507.3" r="3" fill="#1f77b4"/>
<circle cx="713.4" cy="518.8" r="3" fill="#1f77b4"/>
<circle cx="715.2" cy="520.3" r="3" fill="#1f77b4"/>
<circle cx="717.0" cy="511.0" r="3" fill="#1f77b4"/>
<circle cx="718.7" cy="505.9" r="3" fill="#1f77b4"/>
<circle cx="720.5" cy="506.9" r="3" fill="#1f77b4"/>
<circle cx="722.3" cy="512.3" r="3" fill="#1f77b4"/>
<circle cx="724.0" cy="513.4" r="3" fill="#1f77b4"/>
<circle cx="725.8" cy="505.6" r="3" fill="#1f77b4"/>
<circle cx="727.6" cy="513.3" r="3" fill="#1f77b4"/>
<circle cx="729.3" cy="511.4" r="3" fill="#1f77b4"/>
<circle cx="731.1" cy="515.5" r="3" fill="#1f77b4"/>
<circle cx="732.9" cy="516.9" r="3" fill="#1f77b4"/>
<circle cx="734.6" cy="521.2" r="3" fill="#1f77b4"/>
<circle cx="736.4" cy="516.7" r="3" fill="#1f77b4"/>
<circle cx="738.2" cy="517.5" r="3" fill="#1f77b4"/>
<circle cx="739.9" cy="520.9" r="3" fill="#1f77b4"/>
<circle cx="741.7" cy="510.8" r="3" fill="#1f77b4"/>
<circle cx="743.5" cy="522.3" r="3" fill="#1f77b4"/>
<circle cx="745.2" cy="525.3" r="3" fill="#1f77b4"/>
<circle cx="747.0" cy="531.1" r="3" fill="#1f77b4"/>
<circle cx="748.8" cy="526.6" r="3" fill="#1f77b4"/>
<circle cx="750.5" cy="526.1" r="3" fill="#1f77b4"/>
<circle cx="752.3" cy="522.8" r="3" fill="#1f77b4"/>
<circle cx="754.1" cy="527.0" r="3" fill="#1f77b4"/>
<circle cx="755.8" cy="509.0" r="3" fill="#1f77b4"/>
<circle cx="757.6" cy="524.6" r="3" fill="#1f77b4"/>
<circle cx="759.4" cy="524.2" r="3" fill="#1f77b4"/>
<circle cx="761.1" cy="523.6" r="3" fill="#1f77b4"/>
<circle cx="762.9" cy="521.7" r="3" fill="#1f77b4"/>
<circle cx="764.7" cy="517.1" r="3" fill="#1f77b4"/>
<circle cx="766.4" cy="520.3" r="3" fill="#1f77b4"/>
<circle cx="768.2" cy="526.5" r="3" fill="#1f77b4"/>
<circle cx="770.0" cy="509.2" r="3" fill="#1f77b4"/>
<circle cx="771.7" cy="504.7" r="3" fill="#1f77b4"/>
<circle cx="773.5" cy="524.6" r="3" fill="#1f77b4"/>
<circle cx="775.3" cy="514.8" r="3" fill="#1f77b4"/>
<circle cx="777.0" cy="516.8" r="3" fill="#1f77b4"/>
<circle cx="778.8" cy="515.7" r="3" fill="#1f77b4"/>
<circle cx="780.6" cy="516.3" r="3" fill="#1f77b4"/>
<circle cx="782.3" cy="508.9" r="3" fill="#1f77b4"/>
<circle cx="784.1" cy="506.8" r="3" fill="#1f77b4"/>
<circle cx="785.9" cy="516.3" r="3" fill="#1f77b4"/>
<circle cx="787.6" cy="514.1" r="3" fill="#1f77b4"/>
<circle cx="789.4" cy="520.9" r="3" fill="#1f77b4"/>
<circle cx="791.2" cy="514.5" r="3" fill="#1f77b4"/>
<circle cx="792.9" cy="521.3" r="3" fill="#1f77b4"/>
<circle cx="794.7" cy="516.6" r="3" fill="#1f77b4"/>
<circle cx="796.5" cy="511.0" r="3" fill="#1f77b4"/>
<circle cx="798.2" cy="524.4" r="3" fill="#1f77b4"/>
<circle cx="800.0" cy="516.0" r="3" fill="#1f77b4"/>
<line x1="828" y1="96" x2="850" y2="96" stroke="#1f77b4" stroke-width="2.5"/>
<text x="858" y="100" font-family="Arial" font-size="13">final_on_policy_lr4e-5_400_full_eval</text>
<text x="447.5" y="638" text-anchor="middle" font-family="Arial" font-size="15">GRPO step</text>
<text x="24" y="326.0" text-anchor="middle" font-family="Arial" font-size="15" transform="rotate(-90 24 326.0)">Mean token entropy</text>
</svg>
