<svg xmlns="http://www.w3.org/2000/svg" width="1100" height="660" viewBox="0 0 1100 660">
<rect width="100%" height="100%" fill="white"/>
<text x="550.0" y="36" text-anchor="middle" font-family="Arial" font-size="22" font-weight="700">Leaderboard rollout answer reward</text>
<line x1="95" y1="578" x2="800" y2="578" stroke="#222" stroke-width="1.5"/>
<line x1="95" y1="74" x2="95" y2="578" stroke="#222" stroke-width="1.5"/>
<line x1="90" y1="578.0" x2="800" y2="578.0" stroke="#ddd" stroke-width="1"/>
<text x="83" y="582.0" text-anchor="end" font-family="Arial" font-size="12">0.00%</text>
<line x1="90" y1="477.2" x2="800" y2="477.2" stroke="#ddd" stroke-width="1"/>
<text x="83" y="481.2" text-anchor="end" font-family="Arial" font-size="12">20.00%</text>
<line x1="90" y1="376.4" x2="800" y2="376.4" stroke="#ddd" stroke-width="1"/>
<text x="83" y="380.4" text-anchor="end" font-family="Arial" font-size="12">40.00%</text>
<line x1="90" y1="275.6" x2="800" y2="275.6" stroke="#ddd" stroke-width="1"/>
<text x="83" y="279.6" text-anchor="end" font-family="Arial" font-size="12">60.00%</text>
<line x1="90" y1="174.8" x2="800" y2="174.8" stroke="#ddd" stroke-width="1"/>
<text x="83" y="178.8" text-anchor="end" font-family="Arial" font-size="12">80.00%</text>
<line x1="90" y1="74.0" x2="800" y2="74.0" stroke="#ddd" stroke-width="1"/>
<text x="83" y="78.0" text-anchor="end" font-family="Arial" font-size="12">100.00%</text>
<line x1="95.0" y1="578" x2="95.0" y2="583" stroke="#222" stroke-width="1"/>
<text x="95.0" y="602" text-anchor="middle" font-family="Arial" font-size="12">1</text>
<line x1="236.0" y1="578" x2="236.0" y2="583" stroke="#222" stroke-width="1"/>
<text x="236.0" y="602" text-anchor="middle" font-family="Arial" font-size="12">81</text>
<line x1="377.0" y1="578" x2="377.0" y2="583" stroke="#222" stroke-width="1"/>
<text x="377.0" y="602" text-anchor="middle" font-family="Arial" font-size="12">161</text>
<line x1="518.0" y1="578" x2="518.0" y2="583" stroke="#222" stroke-width="1"/>
<text x="518.0" y="602" text-anchor="middle" font-family="Arial" font-size="12">240</text>
<line x1="659.0" y1="578" x2="659.0" y2="583" stroke="#222" stroke-width="1"/>
<text x="659.0" y="602" text-anchor="middle" font-family="Arial" font-size="12">320</text>
<line x1="800.0" y1="578" x2="800.0" y2="583" stroke="#222" stroke-width="1"/>
<text x="800.0" y="602" text-anchor="middle" font-family="Arial" font-size="12">400</text>
<polyline fill="none" stroke="#1f77b4" stroke-width="2.3" points="95.0,570.1 96.8,473.7 98.5,398.8 100.3,428.4 102.1,444.1 103.8,461.8 105.6,402.8 107.4,414.6 109.1,412.6 110.9,434.3 112.7,461.8 114.4,402.8 116.2,408.7 118.0,363.4 119.7,452.0 121.5,446.1 123.3,416.6 125.0,455.9 126.8,375.2 128.6,412.6 130.3,392.9 132.1,436.2 133.9,404.8 135.6,404.8 137.4,420.5 139.2,381.1 140.9,383.1 142.7,377.2 144.5,375.2 146.2,377.2 148.0,333.9 149.8,322.1 151.5,339.8 153.3,345.7 155.1,404.8 156.8,394.9 158.6,355.5 160.4,391.0 162.1,355.5 163.9,389.0 165.7,318.1 167.4,375.2 169.2,308.3 171.0,383.1 172.7,389.0 174.5,369.3 176.3,308.3 178.0,373.2 179.8,375.2 181.6,288.6 183.3,306.3 185.1,316.2 186.9,312.2 188.6,320.1 190.4,268.9 192.2,302.4 193.9,268.9 195.7,300.4 197.5,272.8 199.2,377.2 201.0,243.3 202.8,282.7 204.5,272.8 206.3,333.9 208.1,263.0 209.8,253.2 211.6,294.5 213.4,280.7 215.2,237.4 216.9,237.4 218.7,349.6 220.5,217.7 222.2,247.2 224.0,245.3 225.8,223.6 227.5,239.4 229.3,308.3 231.1,233.5 232.8,247.2 234.6,209.8 236.4,235.4 238.1,227.6 239.9,209.8 241.7,318.1 243.4,245.3 245.2,233.5 247.0,209.8 248.7,249.2 250.5,190.2 252.3,160.6 254.0,272.8 255.8,290.6 257.6,202.0 259.3,203.9 261.1,194.1 262.9,202.0 264.6,239.4 266.4,243.3 268.2,217.7 269.9,221.7 271.7,255.1 273.5,229.5 275.2,215.8 277.0,174.4 278.8,209.8 280.5,211.8 282.3,217.7 284.1,223.6 285.8,253.2 287.6,188.2 289.4,335.8 291.1,225.6 292.9,192.1 294.7,225.6 296.4,211.8 298.2,255.1 300.0,182.3 301.7,215.8 303.5,192.1 305.3,304.3 307.0,198.0 308.8,314.2 310.6,203.9 312.3,150.8 314.1,192.1 315.9,184.2 317.6,225.6 319.4,202.0 321.2,205.9 322.9,188.2 324.7,253.2 326.5,205.9 328.2,207.9 330.0,223.6 331.8,188.2 333.5,168.5 335.3,217.7 337.1,174.4 338.8,188.2 340.6,270.9 342.4,209.8 344.1,192.1 345.9,182.3 347.7,255.1 349.4,255.1 351.2,229.5 353.0,233.5 354.7,219.7 356.5,255.1 358.3,237.4 360.0,237.4 361.8,225.6 363.6,186.2 365.3,200.0 367.1,221.7 368.9,154.7 370.6,243.3 372.4,196.1 374.2,263.0 375.9,274.8 377.7,192.1 379.5,166.5 381.2,184.2 383.0,253.2 384.8,241.3 386.5,200.0 388.3,184.2 390.1,227.6 391.8,170.5 393.6,207.9 395.4,178.3 397.1,164.6 398.9,229.5 400.7,245.3 402.4,251.2 404.2,213.8 406.0,239.4 407.7,221.7 409.5,188.2 411.3,148.8 413.0,265.0 414.8,205.9 416.6,142.9 418.3,178.3 420.1,113.4 421.9,198.0 423.6,144.9 425.4,190.2 427.2,184.2 428.9,215.8 430.7,198.0 432.5,168.5 434.2,164.6 436.0,205.9 437.8,247.2 439.5,266.9 441.3,190.2 443.1,219.7 444.8,292.5 446.6,164.6 448.4,209.8 450.2,184.2 451.9,196.1 453.7,221.7 455.5,263.0 457.2,213.8 459.0,168.5 460.8,194.1 462.5,178.3 464.3,186.2 466.1,211.8 467.8,205.9 469.6,164.6 471.4,270.9 473.1,176.4 474.9,190.2 476.7,200.0 478.4,263.0 480.2,174.4 482.0,150.8 483.7,198.0 485.5,198.0 487.3,164.6 489.0,241.3 490.8,146.8 492.6,188.2 494.3,239.4 496.1,231.5 497.9,184.2 499.6,146.8 501.4,215.8 503.2,150.8 504.9,194.1 506.7,180.3 508.5,205.9 510.2,146.8 512.0,203.9 513.8,209.8 515.5,219.7 517.3,180.3 519.1,184.2 520.8,237.4 522.6,237.4 524.4,200.0 526.1,154.7 527.9,200.0 529.7,186.2 531.4,174.4 533.2,162.6 535.0,196.1 536.7,211.8 538.5,109.4 540.3,251.2 542.0,245.3 543.8,200.0 545.6,213.8 547.3,203.9 549.1,202.0 550.9,235.4 552.6,219.7 554.4,202.0 556.2,217.7 557.9,203.9 559.7,225.6 561.5,237.4 563.2,215.8 565.0,227.6 566.8,172.4 568.5,241.3 570.3,235.4 572.1,196.1 573.8,172.4 575.6,140.9 577.4,166.5 579.1,164.6 580.9,176.4 582.7,160.6 584.4,237.4 586.2,237.4 588.0,286.6 589.7,200.0 591.5,168.5 593.3,221.7 595.0,190.2 596.8,217.7 598.6,125.2 600.3,227.6 602.1,194.1 603.9,233.5 605.6,255.1 607.4,196.1 609.2,203.9 610.9,213.8 612.7,243.3 614.5,225.6 616.2,180.3 618.0,160.6 619.8,176.4 621.5,156.7 623.3,176.4 625.1,166.5 626.8,186.2 628.6,194.1 630.4,249.2 632.1,202.0 633.9,200.0 635.7,180.3 637.4,231.5 639.2,160.6 641.0,225.6 642.7,186.2 644.5,188.2 646.3,178.3 648.0,198.0 649.8,217.7 651.6,186.2 653.3,162.6 655.1,213.8 656.9,243.3 658.6,115.3 660.4,162.6 662.2,168.5 663.9,223.6 665.7,160.6 667.5,164.6 669.2,160.6 671.0,227.6 672.8,215.8 674.5,170.5 676.3,178.3 678.1,219.7 679.8,144.9 681.6,180.3 683.4,139.0 685.2,198.0 686.9,172.4 688.7,196.1 690.5,180.3 692.2,125.2 694.0,160.6 695.8,172.4 697.5,186.2 699.3,166.5 701.1,209.8 702.8,172.4 704.6,219.7 706.4,237.4 708.1,170.5 709.9,203.9 711.7,172.4 713.4,156.7 715.2,219.7 717.0,190.2 718.7,243.3 720.5,239.4 722.3,194.1 724.0,172.4 725.8,162.6 727.6,215.8 729.3,211.8 731.1,186.2 732.9,203.9 734.6,209.8 736.4,196.1 738.2,205.9 739.9,203.9 741.7,231.5 743.5,192.1 745.2,203.9 747.0,168.5 748.8,188.2 750.5,207.9 752.3,202.0 754.1,150.8 755.8,247.2 757.6,182.3 759.4,205.9 761.1,142.9 762.9,198.0 764.7,176.4 766.4,180.3 768.2,148.8 770.0,263.0 771.7,217.7 773.5,158.7 775.3,172.4 777.0,176.4 778.8,190.2 780.6,205.9 782.3,184.2 784.1,241.3 785.9,253.2 787.6,166.5 789.4,176.4 791.2,194.1 792.9,261.0 794.7,178.3 796.5,205.9 798.2,150.8 800.0,158.7"/>
<circle cx="95.0" cy="570.1" r="3" fill="#1f77b4"/>
<circle cx="96.8" cy="473.7" r="3" fill="#1f77b4"/>
<circle cx="98.5" cy="398.8" r="3" fill="#1f77b4"/>
<circle cx="100.3" cy="428.4" r="3" fill="#1f77b4"/>
<circle cx="102.1" cy="444.1" r="3" fill="#1f77b4"/>
<circle cx="103.8" cy="461.8" r="3" fill="#1f77b4"/>
<circle cx="105.6" cy="402.8" r="3" fill="#1f77b4"/>
<circle cx="107.4" cy="414.6" r="3" fill="#1f77b4"/>
<circle cx="109.1" cy="412.6" r="3" fill="#1f77b4"/>
<circle cx="110.9" cy="434.3" r="3" fill="#1f77b4"/>
<circle cx="112.7" cy="461.8" r="3" fill="#1f77b4"/>
<circle cx="114.4" cy="402.8" r="3" fill="#1f77b4"/>
<circle cx="116.2" cy="408.7" r="3" fill="#1f77b4"/>
<circle cx="118.0" cy="363.4" r="3" fill="#1f77b4"/>
<circle cx="119.7" cy="452.0" r="3" fill="#1f77b4"/>
<circle cx="121.5" cy="446.1" r="3" fill="#1f77b4"/>
<circle cx="123.3" cy="416.6" r="3" fill="#1f77b4"/>
<circle cx="125.0" cy="455.9" r="3" fill="#1f77b4"/>
<circle cx="126.8" cy="375.2" r="3" fill="#1f77b4"/>
<circle cx="128.6" cy="412.6" r="3" fill="#1f77b4"/>
<circle cx="130.3" cy="392.9" r="3" fill="#1f77b4"/>
<circle cx="132.1" cy="436.2" r="3" fill="#1f77b4"/>
<circle cx="133.9" cy="404.8" r="3" fill="#1f77b4"/>
<circle cx="135.6" cy="404.8" r="3" fill="#1f77b4"/>
<circle cx="137.4" cy="420.5" r="3" fill="#1f77b4"/>
<circle cx="139.2" cy="381.1" r="3" fill="#1f77b4"/>
<circle cx="140.9" cy="383.1" r="3" fill="#1f77b4"/>
<circle cx="142.7" cy="377.2" r="3" fill="#1f77b4"/>
<circle cx="144.5" cy="375.2" r="3" fill="#1f77b4"/>
<circle cx="146.2" cy="377.2" r="3" fill="#1f77b4"/>
<circle cx="148.0" cy="333.9" r="3" fill="#1f77b4"/>
<circle cx="149.8" cy="322.1" r="3" fill="#1f77b4"/>
<circle cx="151.5" cy="339.8" r="3" fill="#1f77b4"/>
<circle cx="153.3" cy="345.7" r="3" fill="#1f77b4"/>
<circle cx="155.1" cy="404.8" r="3" fill="#1f77b4"/>
<circle cx="156.8" cy="394.9" r="3" fill="#1f77b4"/>
<circle cx="158.6" cy="355.5" r="3" fill="#1f77b4"/>
<circle cx="160.4" cy="391.0" r="3" fill="#1f77b4"/>
<circle cx="162.1" cy="355.5" r="3" fill="#1f77b4"/>
<circle cx="163.9" cy="389.0" r="3" fill="#1f77b4"/>
<circle cx="165.7" cy="318.1" r="3" fill="#1f77b4"/>
<circle cx="167.4" cy="375.2" r="3" fill="#1f77b4"/>
<circle cx="169.2" cy="308.3" r="3" fill="#1f77b4"/>
<circle cx="171.0" cy="383.1" r="3" fill="#1f77b4"/>
<circle cx="172.7" cy="389.0" r="3" fill="#1f77b4"/>
<circle cx="174.5" cy="369.3" r="3" fill="#1f77b4"/>
<circle cx="176.3" cy="308.3" r="3" fill="#1f77b4"/>
<circle cx="178.0" cy="373.2" r="3" fill="#1f77b4"/>
<circle cx="179.8" cy="375.2" r="3" fill="#1f77b4"/>
<circle cx="181.6" cy="288.6" r="3" fill="#1f77b4"/>
<circle cx="183.3" cy="306.3" r="3" fill="#1f77b4"/>
<circle cx="185.1" cy="316.2" r="3" fill="#1f77b4"/>
<circle cx="186.9" cy="312.2" r="3" fill="#1f77b4"/>
<circle cx="188.6" cy="320.1" r="3" fill="#1f77b4"/>
<circle cx="190.4" cy="268.9" r="3" fill="#1f77b4"/>
<circle cx="192.2" cy="302.4" r="3" fill="#1f77b4"/>
<circle cx="193.9" cy="268.9" r="3" fill="#1f77b4"/>
<circle cx="195.7" cy="300.4" r="3" fill="#1f77b4"/>
<circle cx="197.5" cy="272.8" r="3" fill="#1f77b4"/>
<circle cx="199.2" cy="377.2" r="3" fill="#1f77b4"/>
<circle cx="201.0" cy="243.3" r="3" fill="#1f77b4"/>
<circle cx="202.8" cy="282.7" r="3" fill="#1f77b4"/>
<circle cx="204.5" cy="272.8" r="3" fill="#1f77b4"/>
<circle cx="206.3" cy="333.9" r="3" fill="#1f77b4"/>
<circle cx="208.1" cy="263.0" r="3" fill="#1f77b4"/>
<circle cx="209.8" cy="253.2" r="3" fill="#1f77b4"/>
<circle cx="211.6" cy="294.5" r="3" fill="#1f77b4"/>
<circle cx="213.4" cy="280.7" r="3" fill="#1f77b4"/>
<circle cx="215.2" cy="237.4" r="3" fill="#1f77b4"/>
<circle cx="216.9" cy="237.4" r="3" fill="#1f77b4"/>
<circle cx="218.7" cy="349.6" r="3" fill="#1f77b4"/>
<circle cx="220.5" cy="217.7" r="3" fill="#1f77b4"/>
<circle cx="222.2" cy="247.2" r="3" fill="#1f77b4"/>
<circle cx="224.0" cy="245.3" r="3" fill="#1f77b4"/>
<circle cx="225.8" cy="223.6" r="3" fill="#1f77b4"/>
<circle cx="227.5" cy="239.4" r="3" fill="#1f77b4"/>
<circle cx="229.3" cy="308.3" r="3" fill="#1f77b4"/>
<circle cx="231.1" cy="233.5" r="3" fill="#1f77b4"/>
<circle cx="232.8" cy="247.2" r="3" fill="#1f77b4"/>
<circle cx="234.6" cy="209.8" r="3" fill="#1f77b4"/>
<circle cx="236.4" cy="235.4" r="3" fill="#1f77b4"/>
<circle cx="238.1" cy="227.6" r="3" fill="#1f77b4"/>
<circle cx="239.9" cy="209.8" r="3" fill="#1f77b4"/>
<circle cx="241.7" cy="318.1" r="3" fill="#1f77b4"/>
<circle cx="243.4" cy="245.3" r="3" fill="#1f77b4"/>
<circle cx="245.2" cy="233.5" r="3" fill="#1f77b4"/>
<circle cx="247.0" cy="209.8" r="3" fill="#1f77b4"/>
<circle cx="248.7" cy="249.2" r="3" fill="#1f77b4"/>
<circle cx="250.5" cy="190.2" r="3" fill="#1f77b4"/>
<circle cx="252.3" cy="160.6" r="3" fill="#1f77b4"/>
<circle cx="254.0" cy="272.8" r="3" fill="#1f77b4"/>
<circle cx="255.8" cy="290.6" r="3" fill="#1f77b4"/>
<circle cx="257.6" cy="202.0" r="3" fill="#1f77b4"/>
<circle cx="259.3" cy="203.9" r="3" fill="#1f77b4"/>
<circle cx="261.1" cy="194.1" r="3" fill="#1f77b4"/>
<circle cx="262.9" cy="202.0" r="3" fill="#1f77b4"/>
<circle cx="264.6" cy="239.4" r="3" fill="#1f77b4"/>
<circle cx="266.4" cy="243.3" r="3" fill="#1f77b4"/>
<circle cx="268.2" cy="217.7" r="3" fill="#1f77b4"/>
<circle cx="269.9" cy="221.7" r="3" fill="#1f77b4"/>
<circle cx="271.7" cy="255.1" r="3" fill="#1f77b4"/>
<circle cx="273.5" cy="229.5" r="3" fill="#1f77b4"/>
<circle cx="275.2" cy="215.8" r="3" fill="#1f77b4"/>
<circle cx="277.0" cy="174.4" r="3" fill="#1f77b4"/>
<circle cx="278.8" cy="209.8" r="3" fill="#1f77b4"/>
<circle cx="280.5" cy="211.8" r="3" fill="#1f77b4"/>
<circle cx="282.3" cy="217.7" r="3" fill="#1f77b4"/>
<circle cx="284.1" cy="223.6" r="3" fill="#1f77b4"/>
<circle cx="285.8" cy="253.2" r="3" fill="#1f77b4"/>
<circle cx="287.6" cy="188.2" r="3" fill="#1f77b4"/>
<circle cx="289.4" cy="335.8" r="3" fill="#1f77b4"/>
<circle cx="291.1" cy="225.6" r="3" fill="#1f77b4"/>
<circle cx="292.9" cy="192.1" r="3" fill="#1f77b4"/>
<circle cx="294.7" cy="225.6" r="3" fill="#1f77b4"/>
<circle cx="296.4" cy="211.8" r="3" fill="#1f77b4"/>
<circle cx="298.2" cy="255.1" r="3" fill="#1f77b4"/>
<circle cx="300.0" cy="182.3" r="3" fill="#1f77b4"/>
<circle cx="301.7" cy="215.8" r="3" fill="#1f77b4"/>
<circle cx="303.5" cy="192.1" r="3" fill="#1f77b4"/>
<circle cx="305.3" cy="304.3" r="3" fill="#1f77b4"/>
<circle cx="307.0" cy="198.0" r="3" fill="#1f77b4"/>
<circle cx="308.8" cy="314.2" r="3" fill="#1f77b4"/>
<circle cx="310.6" cy="203.9" r="3" fill="#1f77b4"/>
<circle cx="312.3" cy="150.8" r="3" fill="#1f77b4"/>
<circle cx="314.1" cy="192.1" r="3" fill="#1f77b4"/>
<circle cx="315.9" cy="184.2" r="3" fill="#1f77b4"/>
<circle cx="317.6" cy="225.6" r="3" fill="#1f77b4"/>
<circle cx="319.4" cy="202.0" r="3" fill="#1f77b4"/>
<circle cx="321.2" cy="205.9" r="3" fill="#1f77b4"/>
<circle cx="322.9" cy="188.2" r="3" fill="#1f77b4"/>
<circle cx="324.7" cy="253.2" r="3" fill="#1f77b4"/>
<circle cx="326.5" cy="205.9" r="3" fill="#1f77b4"/>
<circle cx="328.2" cy="207.9" r="3" fill="#1f77b4"/>
<circle cx="330.0" cy="223.6" r="3" fill="#1f77b4"/>
<circle cx="331.8" cy="188.2" r="3" fill="#1f77b4"/>
<circle cx="333.5" cy="168.5" r="3" fill="#1f77b4"/>
<circle cx="335.3" cy="217.7" r="3" fill="#1f77b4"/>
<circle cx="337.1" cy="174.4" r="3" fill="#1f77b4"/>
<circle cx="338.8" cy="188.2" r="3" fill="#1f77b4"/>
<circle cx="340.6" cy="270.9" r="3" fill="#1f77b4"/>
<circle cx="342.4" cy="209.8" r="3" fill="#1f77b4"/>
<circle cx="344.1" cy="192.1" r="3" fill="#1f77b4"/>
<circle cx="345.9" cy="182.3" r="3" fill="#1f77b4"/>
<circle cx="347.7" cy="255.1" r="3" fill="#1f77b4"/>
<circle cx="349.4" cy="255.1" r="3" fill="#1f77b4"/>
<circle cx="351.2" cy="229.5" r="3" fill="#1f77b4"/>
<circle cx="353.0" cy="233.5" r="3" fill="#1f77b4"/>
<circle cx="354.7" cy="219.7" r="3" fill="#1f77b4"/>
<circle cx="356.5" cy="255.1" r="3" fill="#1f77b4"/>
<circle cx="358.3" cy="237.4" r="3" fill="#1f77b4"/>
<circle cx="360.0" cy="237.4" r="3" fill="#1f77b4"/>
<circle cx="361.8" cy="225.6" r="3" fill="#1f77b4"/>
<circle cx="363.6" cy="186.2" r="3" fill="#1f77b4"/>
<circle cx="365.3" cy="200.0" r="3" fill="#1f77b4"/>
<circle cx="367.1" cy="221.7" r="3" fill="#1f77b4"/>
<circle cx="368.9" cy="154.7" r="3" fill="#1f77b4"/>
<circle cx="370.6" cy="243.3" r="3" fill="#1f77b4"/>
<circle cx="372.4" cy="196.1" r="3" fill="#1f77b4"/>
<circle cx="374.2" cy="263.0" r="3" fill="#1f77b4"/>
<circle cx="375.9" cy="274.8" r="3" fill="#1f77b4"/>
<circle cx="377.7" cy="192.1" r="3" fill="#1f77b4"/>
<circle cx="379.5" cy="166.5" r="3" fill="#1f77b4"/>
<circle cx="381.2" cy="184.2" r="3" fill="#1f77b4"/>
<circle cx="383.0" cy="253.2" r="3" fill="#1f77b4"/>
<circle cx="384.8" cy="241.3" r="3" fill="#1f77b4"/>
<circle cx="386.5" cy="200.0" r="3" fill="#1f77b4"/>
<circle cx="388.3" cy="184.2" r="3" fill="#1f77b4"/>
<circle cx="390.1" cy="227.6" r="3" fill="#1f77b4"/>
<circle cx="391.8" cy="170.5" r="3" fill="#1f77b4"/>
<circle cx="393.6" cy="207.9" r="3" fill="#1f77b4"/>
<circle cx="395.4" cy="178.3" r="3" fill="#1f77b4"/>
<circle cx="397.1" cy="164.6" r="3" fill="#1f77b4"/>
<circle cx="398.9" cy="229.5" r="3" fill="#1f77b4"/>
<circle cx="400.7" cy="245.3" r="3" fill="#1f77b4"/>
<circle cx="402.4" cy="251.2" r="3" fill="#1f77b4"/>
<circle cx="404.2" cy="213.8" r="3" fill="#1f77b4"/>
<circle cx="406.0" cy="239.4" r="3" fill="#1f77b4"/>
<circle cx="407.7" cy="221.7" r="3" fill="#1f77b4"/>
<circle cx="409.5" cy="188.2" r="3" fill="#1f77b4"/>
<circle cx="411.3" cy="148.8" r="3" fill="#1f77b4"/>
<circle cx="413.0" cy="265.0" r="3" fill="#1f77b4"/>
<circle cx="414.8" cy="205.9" r="3" fill="#1f77b4"/>
<circle cx="416.6" cy="142.9" r="3" fill="#1f77b4"/>
<circle cx="418.3" cy="178.3" r="3" fill="#1f77b4"/>
<circle cx="420.1" cy="113.4" r="3" fill="#1f77b4"/>
<circle cx="421.9" cy="198.0" r="3" fill="#1f77b4"/>
<circle cx="423.6" cy="144.9" r="3" fill="#1f77b4"/>
<circle cx="425.4" cy="190.2" r="3" fill="#1f77b4"/>
<circle cx="427.2" cy="184.2" r="3" fill="#1f77b4"/>
<circle cx="428.9" cy="215.8" r="3" fill="#1f77b4"/>
<circle cx="430.7" cy="198.0" r="3" fill="#1f77b4"/>
<circle cx="432.5" cy="168.5" r="3" fill="#1f77b4"/>
<circle cx="434.2" cy="164.6" r="3" fill="#1f77b4"/>
<circle cx="436.0" cy="205.9" r="3" fill="#1f77b4"/>
<circle cx="437.8" cy="247.2" r="3" fill="#1f77b4"/>
<circle cx="439.5" cy="266.9" r="3" fill="#1f77b4"/>
<circle cx="441.3" cy="190.2" r="3" fill="#1f77b4"/>
<circle cx="443.1" cy="219.7" r="3" fill="#1f77b4"/>
<circle cx="444.8" cy="292.5" r="3" fill="#1f77b4"/>
<circle cx="446.6" cy="164.6" r="3" fill="#1f77b4"/>
<circle cx="448.4" cy="209.8" r="3" fill="#1f77b4"/>
<circle cx="450.2" cy="184.2" r="3" fill="#1f77b4"/>
<circle cx="451.9" cy="196.1" r="3" fill="#1f77b4"/>
<circle cx="453.7" cy="221.7" r="3" fill="#1f77b4"/>
<circle cx="455.5" cy="263.0" r="3" fill="#1f77b4"/>
<circle cx="457.2" cy="213.8" r="3" fill="#1f77b4"/>
<circle cx="459.0" cy="168.5" r="3" fill="#1f77b4"/>
<circle cx="460.8" cy="194.1" r="3" fill="#1f77b4"/>
<circle cx="462.5" cy="178.3" r="3" fill="#1f77b4"/>
<circle cx="464.3" cy="186.2" r="3" fill="#1f77b4"/>
<circle cx="466.1" cy="211.8" r="3" fill="#1f77b4"/>
<circle cx="467.8" cy="205.9" r="3" fill="#1f77b4"/>
<circle cx="469.6" cy="164.6" r="3" fill="#1f77b4"/>
<circle cx="471.4" cy="270.9" r="3" fill="#1f77b4"/>
<circle cx="473.1" cy="176.4" r="3" fill="#1f77b4"/>
<circle cx="474.9" cy="190.2" r="3" fill="#1f77b4"/>
<circle cx="476.7" cy="200.0" r="3" fill="#1f77b4"/>
<circle cx="478.4" cy="263.0" r="3" fill="#1f77b4"/>
<circle cx="480.2" cy="174.4" r="3" fill="#1f77b4"/>
<circle cx="482.0" cy="150.8" r="3" fill="#1f77b4"/>
<circle cx="483.7" cy="198.0" r="3" fill="#1f77b4"/>
<circle cx="485.5" cy="198.0" r="3" fill="#1f77b4"/>
<circle cx="487.3" cy="164.6" r="3" fill="#1f77b4"/>
<circle cx="489.0" cy="241.3" r="3" fill="#1f77b4"/>
<circle cx="490.8" cy="146.8" r="3" fill="#1f77b4"/>
<circle cx="492.6" cy="188.2" r="3" fill="#1f77b4"/>
<circle cx="494.3" cy="239.4" r="3" fill="#1f77b4"/>
<circle cx="496.1" cy="231.5" r="3" fill="#1f77b4"/>
<circle cx="497.9" cy="184.2" r="3" fill="#1f77b4"/>
<circle cx="499.6" cy="146.8" r="3" fill="#1f77b4"/>
<circle cx="501.4" cy="215.8" r="3" fill="#1f77b4"/>
<circle cx="503.2" cy="150.8" r="3" fill="#1f77b4"/>
<circle cx="504.9" cy="194.1" r="3" fill="#1f77b4"/>
<circle cx="506.7" cy="180.3" r="3" fill="#1f77b4"/>
<circle cx="508.5" cy="205.9" r="3" fill="#1f77b4"/>
<circle cx="510.2" cy="146.8" r="3" fill="#1f77b4"/>
<circle cx="512.0" cy="203.9" r="3" fill="#1f77b4"/>
<circle cx="513.8" cy="209.8" r="3" fill="#1f77b4"/>
<circle cx="515.5" cy="219.7" r="3" fill="#1f77b4"/>
<circle cx="517.3" cy="180.3" r="3" fill="#1f77b4"/>
<circle cx="519.1" cy="184.2" r="3" fill="#1f77b4"/>
<circle cx="520.8" cy="237.4" r="3" fill="#1f77b4"/>
<circle cx="522.6" cy="237.4" r="3" fill="#1f77b4"/>
<circle cx="524.4" cy="200.0" r="3" fill="#1f77b4"/>
<circle cx="526.1" cy="154.7" r="3" fill="#1f77b4"/>
<circle cx="527.9" cy="200.0" r="3" fill="#1f77b4"/>
<circle cx="529.7" cy="186.2" r="3" fill="#1f77b4"/>
<circle cx="531.4" cy="174.4" r="3" fill="#1f77b4"/>
<circle cx="533.2" cy="162.6" r="3" fill="#1f77b4"/>
<circle cx="535.0" cy="196.1" r="3" fill="#1f77b4"/>
<circle cx="536.7" cy="211.8" r="3" fill="#1f77b4"/>
<circle cx="538.5" cy="109.4" r="3" fill="#1f77b4"/>
<circle cx="540.3" cy="251.2" r="3" fill="#1f77b4"/>
<circle cx="542.0" cy="245.3" r="3" fill="#1f77b4"/>
<circle cx="543.8" cy="200.0" r="3" fill="#1f77b4"/>
<circle cx="545.6" cy="213.8" r="3" fill="#1f77b4"/>
<circle cx="547.3" cy="203.9" r="3" fill="#1f77b4"/>
<circle cx="549.1" cy="202.0" r="3" fill="#1f77b4"/>
<circle cx="550.9" cy="235.4" r="3" fill="#1f77b4"/>
<circle cx="552.6" cy="219.7" r="3" fill="#1f77b4"/>
<circle cx="554.4" cy="202.0" r="3" fill="#1f77b4"/>
<circle cx="556.2" cy="217.7" r="3" fill="#1f77b4"/>
<circle cx="557.9" cy="203.9" r="3" fill="#1f77b4"/>
<circle cx="559.7" cy="225.6" r="3" fill="#1f77b4"/>
<circle cx="561.5" cy="237.4" r="3" fill="#1f77b4"/>
<circle cx="563.2" cy="215.8" r="3" fill="#1f77b4"/>
<circle cx="565.0" cy="227.6" r="3" fill="#1f77b4"/>
<circle cx="566.8" cy="172.4" r="3" fill="#1f77b4"/>
<circle cx="568.5" cy="241.3" r="3" fill="#1f77b4"/>
<circle cx="570.3" cy="235.4" r="3" fill="#1f77b4"/>
<circle cx="572.1" cy="196.1" r="3" fill="#1f77b4"/>
<circle cx="573.8" cy="172.4" r="3" fill="#1f77b4"/>
<circle cx="575.6" cy="140.9" r="3" fill="#1f77b4"/>
<circle cx="577.4" cy="166.5" r="3" fill="#1f77b4"/>
<circle cx="579.1" cy="164.6" r="3" fill="#1f77b4"/>
<circle cx="580.9" cy="176.4" r="3" fill="#1f77b4"/>
<circle cx="582.7" cy="160.6" r="3" fill="#1f77b4"/>
<circle cx="584.4" cy="237.4" r="3" fill="#1f77b4"/>
<circle cx="586.2" cy="237.4" r="3" fill="#1f77b4"/>
<circle cx="588.0" cy="286.6" r="3" fill="#1f77b4"/>
<circle cx="589.7" cy="200.0" r="3" fill="#1f77b4"/>
<circle cx="591.5" cy="168.5" r="3" fill="#1f77b4"/>
<circle cx="593.3" cy="221.7" r="3" fill="#1f77b4"/>
<circle cx="595.0" cy="190.2" r="3" fill="#1f77b4"/>
<circle cx="596.8" cy="217.7" r="3" fill="#1f77b4"/>
<circle cx="598.6" cy="125.2" r="3" fill="#1f77b4"/>
<circle cx="600.3" cy="227.6" r="3" fill="#1f77b4"/>
<circle cx="602.1" cy="194.1" r="3" fill="#1f77b4"/>
<circle cx="603.9" cy="233.5" r="3" fill="#1f77b4"/>
<circle cx="605.6" cy="255.1" r="3" fill="#1f77b4"/>
<circle cx="607.4" cy="196.1" r="3" fill="#1f77b4"/>
<circle cx="609.2" cy="203.9" r="3" fill="#1f77b4"/>
<circle cx="610.9" cy="213.8" r="3" fill="#1f77b4"/>
<circle cx="612.7" cy="243.3" r="3" fill="#1f77b4"/>
<circle cx="614.5" cy="225.6" r="3" fill="#1f77b4"/>
<circle cx="616.2" cy="180.3" r="3" fill="#1f77b4"/>
<circle cx="618.0" cy="160.6" r="3" fill="#1f77b4"/>
<circle cx="619.8" cy="176.4" r="3" fill="#1f77b4"/>
<circle cx="621.5" cy="156.7" r="3" fill="#1f77b4"/>
<circle cx="623.3" cy="176.4" r="3" fill="#1f77b4"/>
<circle cx="625.1" cy="166.5" r="3" fill="#1f77b4"/>
<circle cx="626.8" cy="186.2" r="3" fill="#1f77b4"/>
<circle cx="628.6" cy="194.1" r="3" fill="#1f77b4"/>
<circle cx="630.4" cy="249.2" r="3" fill="#1f77b4"/>
<circle cx="632.1" cy="202.0" r="3" fill="#1f77b4"/>
<circle cx="633.9" cy="200.0" r="3" fill="#1f77b4"/>
<circle cx="635.7" cy="180.3" r="3" fill="#1f77b4"/>
<circle cx="637.4" cy="231.5" r="3" fill="#1f77b4"/>
<circle cx="639.2" cy="160.6" r="3" fill="#1f77b4"/>
<circle cx="641.0" cy="225.6" r="3" fill="#1f77b4"/>
<circle cx="642.7" cy="186.2" r="3" fill="#1f77b4"/>
<circle cx="644.5" cy="188.2" r="3" fill="#1f77b4"/>
<circle cx="646.3" cy="178.3" r="3" fill="#1f77b4"/>
<circle cx="648.0" cy="198.0" r="3" fill="#1f77b4"/>
<circle cx="649.8" cy="217.7" r="3" fill="#1f77b4"/>
<circle cx="651.6" cy="186.2" r="3" fill="#1f77b4"/>
<circle cx="653.3" cy="162.6" r="3" fill="#1f77b4"/>
<circle cx="655.1" cy="213.8" r="3" fill="#1f77b4"/>
<circle cx="656.9" cy="243.3" r="3" fill="#1f77b4"/>
<circle cx="658.6" cy="115.3" r="3" fill="#1f77b4"/>
<circle cx="660.4" cy="162.6" r="3" fill="#1f77b4"/>
<circle cx="662.2" cy="168.5" r="3" fill="#1f77b4"/>
<circle cx="663.9" cy="223.6" r="3" fill="#1f77b4"/>
<circle cx="665.7" cy="160.6" r="3" fill="#1f77b4"/>
<circle cx="667.5" cy="164.6" r="3" fill="#1f77b4"/>
<circle cx="669.2" cy="160.6" r="3" fill="#1f77b4"/>
<circle cx="671.0" cy="227.6" r="3" fill="#1f77b4"/>
<circle cx="672.8" cy="215.8" r="3" fill="#1f77b4"/>
<circle cx="674.5" cy="170.5" r="3" fill="#1f77b4"/>
<circle cx="676.3" cy="178.3" r="3" fill="#1f77b4"/>
<circle cx="678.1" cy="219.7" r="3" fill="#1f77b4"/>
<circle cx="679.8" cy="144.9" r="3" fill="#1f77b4"/>
<circle cx="681.6" cy="180.3" r="3" fill="#1f77b4"/>
<circle cx="683.4" cy="139.0" r="3" fill="#1f77b4"/>
<circle cx="685.2" cy="198.0" r="3" fill="#1f77b4"/>
<circle cx="686.9" cy="172.4" r="3" fill="#1f77b4"/>
<circle cx="688.7" cy="196.1" r="3" fill="#1f77b4"/>
<circle cx="690.5" cy="180.3" r="3" fill="#1f77b4"/>
<circle cx="692.2" cy="125.2" r="3" fill="#1f77b4"/>
<circle cx="694.0" cy="160.6" r="3" fill="#1f77b4"/>
<circle cx="695.8" cy="172.4" r="3" fill="#1f77b4"/>
<circle cx="697.5" cy="186.2" r="3" fill="#1f77b4"/>
<circle cx="699.3" cy="166.5" r="3" fill="#1f77b4"/>
<circle cx="701.1" cy="209.8" r="3" fill="#1f77b4"/>
<circle cx="702.8" cy="172.4" r="3" fill="#1f77b4"/>
<circle cx="704.6" cy="219.7" r="3" fill="#1f77b4"/>
<circle cx="706.4" cy="237.4" r="3" fill="#1f77b4"/>
<circle cx="708.1" cy="170.5" r="3" fill="#1f77b4"/>
<circle cx="709.9" cy="203.9" r="3" fill="#1f77b4"/>
<circle cx="711.7" cy="172.4" r="3" fill="#1f77b4"/>
<circle cx="713.4" cy="156.7" r="3" fill="#1f77b4"/>
<circle cx="715.2" cy="219.7" r="3" fill="#1f77b4"/>
<circle cx="717.0" cy="190.2" r="3" fill="#1f77b4"/>
<circle cx="718.7" cy="243.3" r="3" fill="#1f77b4"/>
<circle cx="720.5" cy="239.4" r="3" fill="#1f77b4"/>
<circle cx="722.3" cy="194.1" r="3" fill="#1f77b4"/>
<circle cx="724.0" cy="172.4" r="3" fill="#1f77b4"/>
<circle cx="725.8" cy="162.6" r="3" fill="#1f77b4"/>
<circle cx="727.6" cy="215.8" r="3" fill="#1f77b4"/>
<circle cx="729.3" cy="211.8" r="3" fill="#1f77b4"/>
<circle cx="731.1" cy="186.2" r="3" fill="#1f77b4"/>
<circle cx="732.9" cy="203.9" r="3" fill="#1f77b4"/>
<circle cx="734.6" cy="209.8" r="3" fill="#1f77b4"/>
<circle cx="736.4" cy="196.1" r="3" fill="#1f77b4"/>
<circle cx="738.2" cy="205.9" r="3" fill="#1f77b4"/>
<circle cx="739.9" cy="203.9" r="3" fill="#1f77b4"/>
<circle cx="741.7" cy="231.5" r="3" fill="#1f77b4"/>
<circle cx="743.5" cy="192.1" r="3" fill="#1f77b4"/>
<circle cx="745.2" cy="203.9" r="3" fill="#1f77b4"/>
<circle cx="747.0" cy="168.5" r="3" fill="#1f77b4"/>
<circle cx="748.8" cy="188.2" r="3" fill="#1f77b4"/>
<circle cx="750.5" cy="207.9" r="3" fill="#1f77b4"/>
<circle cx="752.3" cy="202.0" r="3" fill="#1f77b4"/>
<circle cx="754.1" cy="150.8" r="3" fill="#1f77b4"/>
<circle cx="755.8" cy="247.2" r="3" fill="#1f77b4"/>
<circle cx="757.6" cy="182.3" r="3" fill="#1f77b4"/>
<circle cx="759.4" cy="205.9" r="3" fill="#1f77b4"/>
<circle cx="761.1" cy="142.9" r="3" fill="#1f77b4"/>
<circle cx="762.9" cy="198.0" r="3" fill="#1f77b4"/>
<circle cx="764.7" cy="176.4" r="3" fill="#1f77b4"/>
<circle cx="766.4" cy="180.3" r="3" fill="#1f77b4"/>
<circle cx="768.2" cy="148.8" r="3" fill="#1f77b4"/>
<circle cx="770.0" cy="263.0" r="3" fill="#1f77b4"/>
<circle cx="771.7" cy="217.7" r="3" fill="#1f77b4"/>
<circle cx="773.5" cy="158.7" r="3" fill="#1f77b4"/>
<circle cx="775.3" cy="172.4" r="3" fill="#1f77b4"/>
<circle cx="777.0" cy="176.4" r="3" fill="#1f77b4"/>
<circle cx="778.8" cy="190.2" r="3" fill="#1f77b4"/>
<circle cx="780.6" cy="205.9" r="3" fill="#1f77b4"/>
<circle cx="782.3" cy="184.2" r="3" fill="#1f77b4"/>
<circle cx="784.1" cy="241.3" r="3" fill="#1f77b4"/>
<circle cx="785.9" cy="253.2" r="3" fill="#1f77b4"/>
<circle cx="787.6" cy="166.5" r="3" fill="#1f77b4"/>
<circle cx="789.4" cy="176.4" r="3" fill="#1f77b4"/>
<circle cx="791.2" cy="194.1" r="3" fill="#1f77b4"/>
<circle cx="792.9" cy="261.0" r="3" fill="#1f77b4"/>
<circle cx="794.7" cy="178.3" r="3" fill="#1f77b4"/>
<circle cx="796.5" cy="205.9" r="3" fill="#1f77b4"/>
<circle cx="798.2" cy="150.8" r="3" fill="#1f77b4"/>
<circle cx="800.0" cy="158.7" r="3" fill="#1f77b4"/>
<line x1="828" y1="96" x2="850" y2="96" stroke="#1f77b4" stroke-width="2.5"/>
<text x="858" y="100" font-family="Arial" font-size="13">final_on_policy_lr4e-5_400_full_eval</text>
<text x="447.5" y="638" text-anchor="middle" font-family="Arial" font-size="15">GRPO step</text>
<text x="24" y="326.0" text-anchor="middle" font-family="Arial" font-size="15" transform="rotate(-90 24 326.0)">Rollout answer reward</text>
</svg>
