<svg xmlns="http://www.w3.org/2000/svg" width="1100" height="660" viewBox="0 0 1100 660">
<rect width="100%" height="100%" fill="white"/>
<text x="550.0" y="36" text-anchor="middle" font-family="Arial" font-size="22" font-weight="700">Leaderboard rollout response length</text>
<line x1="95" y1="578" x2="800" y2="578" stroke="#222" stroke-width="1.5"/>
<line x1="95" y1="74" x2="95" y2="578" stroke="#222" stroke-width="1.5"/>
<line x1="90" y1="578.0" x2="800" y2="578.0" stroke="#ddd" stroke-width="1"/>
<text x="83" y="582.0" text-anchor="end" font-family="Arial" font-size="12">0.00</text>
<line x1="90" y1="477.2" x2="800" y2="477.2" stroke="#ddd" stroke-width="1"/>
<text x="83" y="481.2" text-anchor="end" font-family="Arial" font-size="12">108.18</text>
<line x1="90" y1="376.4" x2="800" y2="376.4" stroke="#ddd" stroke-width="1"/>
<text x="83" y="380.4" text-anchor="end" font-family="Arial" font-size="12">216.36</text>
<line x1="90" y1="275.6" x2="800" y2="275.6" stroke="#ddd" stroke-width="1"/>
<text x="83" y="279.6" text-anchor="end" font-family="Arial" font-size="12">324.54</text>
<line x1="90" y1="174.8" x2="800" y2="174.8" stroke="#ddd" stroke-width="1"/>
<text x="83" y="178.8" text-anchor="end" font-family="Arial" font-size="12">432.72</text>
<line x1="90" y1="74.0" x2="800" y2="74.0" stroke="#ddd" stroke-width="1"/>
<text x="83" y="78.0" text-anchor="end" font-family="Arial" font-size="12">540.90</text>
<line x1="95.0" y1="578" x2="95.0" y2="583" stroke="#222" stroke-width="1"/>
<text x="95.0" y="602" text-anchor="middle" font-family="Arial" font-size="12">1</text>
<line x1="236.0" y1="578" x2="236.0" y2="583" stroke="#222" stroke-width="1"/>
<text x="236.0" y="602" text-anchor="middle" font-family="Arial" font-size="12">74</text>
<line x1="377.0" y1="578" x2="377.0" y2="583" stroke="#222" stroke-width="1"/>
<text x="377.0" y="602" text-anchor="middle" font-family="Arial" font-size="12">148</text>
<line x1="518.0" y1="578" x2="518.0" y2="583" stroke="#222" stroke-width="1"/>
<text x="518.0" y="602" text-anchor="middle" font-family="Arial" font-size="12">221</text>
<line x1="659.0" y1="578" x2="659.0" y2="583" stroke="#222" stroke-width="1"/>
<text x="659.0" y="602" text-anchor="middle" font-family="Arial" font-size="12">295</text>
<line x1="800.0" y1="578" x2="800.0" y2="583" stroke="#222" stroke-width="1"/>
<text x="800.0" y="602" text-anchor="middle" font-family="Arial" font-size="12">368</text>
<polyline fill="none" stroke="#1f77b4" stroke-width="2.3" points="95.0,292.6 96.9,414.2 98.8,276.6 100.8,330.1 102.7,333.9 104.6,321.5 106.5,344.7 108.4,326.0 110.4,325.5 112.3,312.1 114.2,254.7 116.1,314.4 118.1,274.9 120.0,306.8 121.9,285.1 123.8,263.2 125.7,316.5 127.7,266.5 129.6,308.6 131.5,338.7 133.4,300.9 135.3,271.5 137.3,318.5 139.2,297.1 141.1,328.0 143.0,301.9 144.9,301.4 146.9,315.6 148.8,252.6 150.7,263.5 152.6,280.5 154.6,295.9 156.5,313.3 158.4,264.9 160.3,239.2 162.2,254.2 164.2,276.8 166.1,264.6 168.0,281.1 169.9,220.1 171.8,266.8 173.8,236.8 175.7,257.2 177.6,248.4 179.5,225.1 181.4,214.4 183.4,304.1 185.3,176.6 187.2,240.7 189.1,260.5 191.0,253.8 193.0,265.8 194.9,233.2 196.8,294.4 198.7,246.5 200.7,206.3 202.6,298.1 204.5,221.0 206.4,248.9 208.3,218.1 210.3,253.3 212.2,246.7 214.1,274.3 216.0,218.1 217.9,247.8 219.9,253.5 221.8,179.5 223.7,231.2 225.6,268.1 227.5,250.4 229.5,159.5 231.4,262.4 233.3,240.4 235.2,230.0 237.2,212.8 239.1,234.6 241.0,143.9 242.9,225.7 244.8,247.9 246.8,259.6 248.7,243.5 250.6,232.6 252.5,216.9 254.4,143.8 256.4,202.1 258.3,196.7 260.2,268.3 262.1,178.4 264.0,223.3 266.0,247.7 267.9,142.8 269.8,125.3 271.7,185.8 273.7,205.0 275.6,226.3 277.5,188.6 279.4,166.6 281.3,163.0 283.3,163.2 285.2,182.8 287.1,124.9 289.0,252.8 290.9,254.8 292.9,219.1 294.8,211.5 296.7,228.2 298.6,215.4 300.5,155.4 302.5,199.8 304.4,228.9 306.3,110.4 308.2,177.1 310.1,248.2 312.1,216.8 314.0,237.2 315.9,186.4 317.8,260.0 319.8,244.5 321.7,196.0 323.6,220.7 325.5,201.5 327.4,109.4 329.4,172.5 331.3,284.9 333.2,217.4 335.1,215.2 337.0,224.5 339.0,188.4 340.9,230.6 342.8,238.5 344.7,227.0 346.6,225.1 348.6,236.2 350.5,235.5 352.4,254.7 354.3,233.2 356.3,267.4 358.2,238.4 360.1,286.6 362.0,178.1 363.9,244.7 365.9,235.6 367.8,266.2 369.7,176.9 371.6,229.5 373.5,223.9 375.5,200.8 377.4,178.0 379.3,166.0 381.2,170.1 383.1,170.7 385.1,176.8 387.0,240.9 388.9,188.7 390.8,220.3 392.8,262.2 394.7,103.3 396.6,200.1 398.5,85.4 400.4,74.0 402.4,123.8 404.3,209.9 406.2,185.7 408.1,119.1 410.0,164.1 412.0,193.6 413.9,157.5 415.8,212.2 417.7,184.3 419.6,154.6 421.6,170.0 423.5,189.3 425.4,147.9 427.3,135.4 429.3,153.1 431.2,151.4 433.1,148.5 435.0,129.6 436.9,199.7 438.9,152.0 440.8,104.5 442.7,185.3 444.6,230.3 446.5,184.6 448.5,232.7 450.4,154.0 452.3,200.8 454.2,151.0 456.1,143.2 458.1,137.3 460.0,148.6 461.9,226.7 463.8,207.9 465.7,178.6 467.7,133.0 469.6,74.7 471.5,164.5 473.4,127.8 475.4,129.9 477.3,152.9 479.2,186.9 481.1,186.9 483.0,188.1 485.0,81.2 486.9,134.7 488.8,140.7 490.7,207.2 492.6,176.8 494.6,210.5 496.5,156.6 498.4,143.8 500.3,180.7 502.2,233.6 504.2,175.7 506.1,226.1 508.0,249.5 509.9,235.3 511.9,128.4 513.8,189.4 515.7,280.6 517.6,187.6 519.5,178.7 521.5,225.9 523.4,120.3 525.3,250.6 527.2,184.7 529.1,177.4 531.1,148.2 533.0,193.2 534.9,206.9 536.8,153.1 538.7,169.5 540.7,182.4 542.6,181.7 544.5,141.3 546.4,155.9 548.4,105.3 550.3,151.1 552.2,151.3 554.1,132.1 556.0,169.0 558.0,125.8 559.9,89.2 561.8,196.6 563.7,192.1 565.6,149.5 567.6,193.4 569.5,132.1 571.4,177.8 573.3,173.3 575.2,134.2 577.2,207.9 579.1,133.7 581.0,127.3 582.9,210.6 584.9,155.2 586.8,134.5 588.7,151.9 590.6,146.1 592.5,197.8 594.5,140.6 596.4,181.8 598.3,216.3 600.2,147.1 602.1,149.4 604.1,154.7 606.0,192.9 607.9,225.9 609.8,158.3 611.7,145.7 613.7,172.0 615.6,204.6 617.5,192.9 619.4,184.1 621.3,243.9 623.3,189.3 625.2,290.3 627.1,197.6 629.0,147.5 631.0,147.3 632.9,222.9 634.8,208.7 636.7,182.3 638.6,206.4 640.6,250.8 642.5,305.6 644.4,281.6 646.3,333.9 648.2,257.6 650.2,248.3 652.1,268.2 654.0,225.4 655.9,245.2 657.8,253.9 659.8,251.9 661.7,286.6 663.6,298.3 665.5,298.5 667.5,250.4 669.4,267.3 671.3,256.5 673.2,246.3 675.1,252.4 677.1,211.8 679.0,248.2 680.9,262.3 682.8,237.9 684.7,209.8 686.7,274.3 688.6,170.2 690.5,268.9 692.4,231.6 694.3,233.2 696.3,205.7 698.2,249.4 700.1,263.4 702.0,263.1 704.0,243.6 705.9,178.6 707.8,247.4 709.7,224.4 711.6,254.1 713.6,165.1 715.5,241.1 717.4,171.7 719.3,254.6 721.2,110.2 723.2,161.9 725.1,235.3 727.0,244.1 728.9,108.4 730.8,233.2 732.8,169.7 734.7,218.0 736.6,125.5 738.5,198.4 740.4,184.6 742.4,188.1 744.3,232.3 746.2,194.0 748.1,175.2 750.1,182.0 752.0,188.7 753.9,163.5 755.8,92.1 757.7,168.7 759.7,130.3 761.6,173.0 763.5,177.5 765.4,162.3 767.3,233.0 769.3,106.2 771.2,126.1 773.1,127.5 775.0,108.2 776.9,149.9 778.9,127.9 780.8,222.3 782.7,114.8 784.6,136.7 786.6,135.7 788.5,123.5 790.4,93.1 792.3,92.3 794.2,132.2 796.2,132.1 798.1,89.2 800.0,96.8"/>
<circle cx="95.0" cy="292.6" r="3" fill="#1f77b4"/>
<circle cx="96.9" cy="414.2" r="3" fill="#1f77b4"/>
<circle cx="98.8" cy="276.6" r="3" fill="#1f77b4"/>
<circle cx="100.8" cy="330.1" r="3" fill="#1f77b4"/>
<circle cx="102.7" cy="333.9" r="3" fill="#1f77b4"/>
<circle cx="104.6" cy="321.5" r="3" fill="#1f77b4"/>
<circle cx="106.5" cy="344.7" r="3" fill="#1f77b4"/>
<circle cx="108.4" cy="326.0" r="3" fill="#1f77b4"/>
<circle cx="110.4" cy="325.5" r="3" fill="#1f77b4"/>
<circle cx="112.3" cy="312.1" r="3" fill="#1f77b4"/>
<circle cx="114.2" cy="254.7" r="3" fill="#1f77b4"/>
<circle cx="116.1" cy="314.4" r="3" fill="#1f77b4"/>
<circle cx="118.1" cy="274.9" r="3" fill="#1f77b4"/>
<circle cx="120.0" cy="306.8" r="3" fill="#1f77b4"/>
<circle cx="121.9" cy="285.1" r="3" fill="#1f77b4"/>
<circle cx="123.8" cy="263.2" r="3" fill="#1f77b4"/>
<circle cx="125.7" cy="316.5" r="3" fill="#1f77b4"/>
<circle cx="127.7" cy="266.5" r="3" fill="#1f77b4"/>
<circle cx="129.6" cy="308.6" r="3" fill="#1f77b4"/>
<circle cx="131.5" cy="338.7" r="3" fill="#1f77b4"/>
<circle cx="133.4" cy="300.9" r="3" fill="#1f77b4"/>
<circle cx="135.3" cy="271.5" r="3" fill="#1f77b4"/>
<circle cx="137.3" cy="318.5" r="3" fill="#1f77b4"/>
<circle cx="139.2" cy="297.1" r="3" fill="#1f77b4"/>
<circle cx="141.1" cy="328.0" r="3" fill="#1f77b4"/>
<circle cx="143.0" cy="301.9" r="3" fill="#1f77b4"/>
<circle cx="144.9" cy="301.4" r="3" fill="#1f77b4"/>
<circle cx="146.9" cy="315.6" r="3" fill="#1f77b4"/>
<circle cx="148.8" cy="252.6" r="3" fill="#1f77b4"/>
<circle cx="150.7" cy="263.5" r="3" fill="#1f77b4"/>
<circle cx="152.6" cy="280.5" r="3" fill="#1f77b4"/>
<circle cx="154.6" cy="295.9" r="3" fill="#1f77b4"/>
<circle cx="156.5" cy="313.3" r="3" fill="#1f77b4"/>
<circle cx="158.4" cy="264.9" r="3" fill="#1f77b4"/>
<circle cx="160.3" cy="239.2" r="3" fill="#1f77b4"/>
<circle cx="162.2" cy="254.2" r="3" fill="#1f77b4"/>
<circle cx="164.2" cy="276.8" r="3" fill="#1f77b4"/>
<circle cx="166.1" cy="264.6" r="3" fill="#1f77b4"/>
<circle cx="168.0" cy="281.1" r="3" fill="#1f77b4"/>
<circle cx="169.9" cy="220.1" r="3" fill="#1f77b4"/>
<circle cx="171.8" cy="266.8" r="3" fill="#1f77b4"/>
<circle cx="173.8" cy="236.8" r="3" fill="#1f77b4"/>
<circle cx="175.7" cy="257.2" r="3" fill="#1f77b4"/>
<circle cx="177.6" cy="248.4" r="3" fill="#1f77b4"/>
<circle cx="179.5" cy="225.1" r="3" fill="#1f77b4"/>
<circle cx="181.4" cy="214.4" r="3" fill="#1f77b4"/>
<circle cx="183.4" cy="304.1" r="3" fill="#1f77b4"/>
<circle cx="185.3" cy="176.6" r="3" fill="#1f77b4"/>
<circle cx="187.2" cy="240.7" r="3" fill="#1f77b4"/>
<circle cx="189.1" cy="260.5" r="3" fill="#1f77b4"/>
<circle cx="191.0" cy="253.8" r="3" fill="#1f77b4"/>
<circle cx="193.0" cy="265.8" r="3" fill="#1f77b4"/>
<circle cx="194.9" cy="233.2" r="3" fill="#1f77b4"/>
<circle cx="196.8" cy="294.4" r="3" fill="#1f77b4"/>
<circle cx="198.7" cy="246.5" r="3" fill="#1f77b4"/>
<circle cx="200.7" cy="206.3" r="3" fill="#1f77b4"/>
<circle cx="202.6" cy="298.1" r="3" fill="#1f77b4"/>
<circle cx="204.5" cy="221.0" r="3" fill="#1f77b4"/>
<circle cx="206.4" cy="248.9" r="3" fill="#1f77b4"/>
<circle cx="208.3" cy="218.1" r="3" fill="#1f77b4"/>
<circle cx="210.3" cy="253.3" r="3" fill="#1f77b4"/>
<circle cx="212.2" cy="246.7" r="3" fill="#1f77b4"/>
<circle cx="214.1" cy="274.3" r="3" fill="#1f77b4"/>
<circle cx="216.0" cy="218.1" r="3" fill="#1f77b4"/>
<circle cx="217.9" cy="247.8" r="3" fill="#1f77b4"/>
<circle cx="219.9" cy="253.5" r="3" fill="#1f77b4"/>
<circle cx="221.8" cy="179.5" r="3" fill="#1f77b4"/>
<circle cx="223.7" cy="231.2" r="3" fill="#1f77b4"/>
<circle cx="225.6" cy="268.1" r="3" fill="#1f77b4"/>
<circle cx="227.5" cy="250.4" r="3" fill="#1f77b4"/>
<circle cx="229.5" cy="159.5" r="3" fill="#1f77b4"/>
<circle cx="231.4" cy="262.4" r="3" fill="#1f77b4"/>
<circle cx="233.3" cy="240.4" r="3" fill="#1f77b4"/>
<circle cx="235.2" cy="230.0" r="3" fill="#1f77b4"/>
<circle cx="237.2" cy="212.8" r="3" fill="#1f77b4"/>
<circle cx="239.1" cy="234.6" r="3" fill="#1f77b4"/>
<circle cx="241.0" cy="143.9" r="3" fill="#1f77b4"/>
<circle cx="242.9" cy="225.7" r="3" fill="#1f77b4"/>
<circle cx="244.8" cy="247.9" r="3" fill="#1f77b4"/>
<circle cx="246.8" cy="259.6" r="3" fill="#1f77b4"/>
<circle cx="248.7" cy="243.5" r="3" fill="#1f77b4"/>
<circle cx="250.6" cy="232.6" r="3" fill="#1f77b4"/>
<circle cx="252.5" cy="216.9" r="3" fill="#1f77b4"/>
<circle cx="254.4" cy="143.8" r="3" fill="#1f77b4"/>
<circle cx="256.4" cy="202.1" r="3" fill="#1f77b4"/>
<circle cx="258.3" cy="196.7" r="3" fill="#1f77b4"/>
<circle cx="260.2" cy="268.3" r="3" fill="#1f77b4"/>
<circle cx="262.1" cy="178.4" r="3" fill="#1f77b4"/>
<circle cx="264.0" cy="223.3" r="3" fill="#1f77b4"/>
<circle cx="266.0" cy="247.7" r="3" fill="#1f77b4"/>
<circle cx="267.9" cy="142.8" r="3" fill="#1f77b4"/>
<circle cx="269.8" cy="125.3" r="3" fill="#1f77b4"/>
<circle cx="271.7" cy="185.8" r="3" fill="#1f77b4"/>
<circle cx="273.7" cy="205.0" r="3" fill="#1f77b4"/>
<circle cx="275.6" cy="226.3" r="3" fill="#1f77b4"/>
<circle cx="277.5" cy="188.6" r="3" fill="#1f77b4"/>
<circle cx="279.4" cy="166.6" r="3" fill="#1f77b4"/>
<circle cx="281.3" cy="163.0" r="3" fill="#1f77b4"/>
<circle cx="283.3" cy="163.2" r="3" fill="#1f77b4"/>
<circle cx="285.2" cy="182.8" r="3" fill="#1f77b4"/>
<circle cx="287.1" cy="124.9" r="3" fill="#1f77b4"/>
<circle cx="289.0" cy="252.8" r="3" fill="#1f77b4"/>
<circle cx="290.9" cy="254.8" r="3" fill="#1f77b4"/>
<circle cx="292.9" cy="219.1" r="3" fill="#1f77b4"/>
<circle cx="294.8" cy="211.5" r="3" fill="#1f77b4"/>
<circle cx="296.7" cy="228.2" r="3" fill="#1f77b4"/>
<circle cx="298.6" cy="215.4" r="3" fill="#1f77b4"/>
<circle cx="300.5" cy="155.4" r="3" fill="#1f77b4"/>
<circle cx="302.5" cy="199.8" r="3" fill="#1f77b4"/>
<circle cx="304.4" cy="228.9" r="3" fill="#1f77b4"/>
<circle cx="306.3" cy="110.4" r="3" fill="#1f77b4"/>
<circle cx="308.2" cy="177.1" r="3" fill="#1f77b4"/>
<circle cx="310.1" cy="248.2" r="3" fill="#1f77b4"/>
<circle cx="312.1" cy="216.8" r="3" fill="#1f77b4"/>
<circle cx="314.0" cy="237.2" r="3" fill="#1f77b4"/>
<circle cx="315.9" cy="186.4" r="3" fill="#1f77b4"/>
<circle cx="317.8" cy="260.0" r="3" fill="#1f77b4"/>
<circle cx="319.8" cy="244.5" r="3" fill="#1f77b4"/>
<circle cx="321.7" cy="196.0" r="3" fill="#1f77b4"/>
<circle cx="323.6" cy="220.7" r="3" fill="#1f77b4"/>
<circle cx="325.5" cy="201.5" r="3" fill="#1f77b4"/>
<circle cx="327.4" cy="109.4" r="3" fill="#1f77b4"/>
<circle cx="329.4" cy="172.5" r="3" fill="#1f77b4"/>
<circle cx="331.3" cy="284.9" r="3" fill="#1f77b4"/>
<circle cx="333.2" cy="217.4" r="3" fill="#1f77b4"/>
<circle cx="335.1" cy="215.2" r="3" fill="#1f77b4"/>
<circle cx="337.0" cy="224.5" r="3" fill="#1f77b4"/>
<circle cx="339.0" cy="188.4" r="3" fill="#1f77b4"/>
<circle cx="340.9" cy="230.6" r="3" fill="#1f77b4"/>
<circle cx="342.8" cy="238.5" r="3" fill="#1f77b4"/>
<circle cx="344.7" cy="227.0" r="3" fill="#1f77b4"/>
<circle cx="346.6" cy="225.1" r="3" fill="#1f77b4"/>
<circle cx="348.6" cy="236.2" r="3" fill="#1f77b4"/>
<circle cx="350.5" cy="235.5" r="3" fill="#1f77b4"/>
<circle cx="352.4" cy="254.7" r="3" fill="#1f77b4"/>
<circle cx="354.3" cy="233.2" r="3" fill="#1f77b4"/>
<circle cx="356.3" cy="267.4" r="3" fill="#1f77b4"/>
<circle cx="358.2" cy="238.4" r="3" fill="#1f77b4"/>
<circle cx="360.1" cy="286.6" r="3" fill="#1f77b4"/>
<circle cx="362.0" cy="178.1" r="3" fill="#1f77b4"/>
<circle cx="363.9" cy="244.7" r="3" fill="#1f77b4"/>
<circle cx="365.9" cy="235.6" r="3" fill="#1f77b4"/>
<circle cx="367.8" cy="266.2" r="3" fill="#1f77b4"/>
<circle cx="369.7" cy="176.9" r="3" fill="#1f77b4"/>
<circle cx="371.6" cy="229.5" r="3" fill="#1f77b4"/>
<circle cx="373.5" cy="223.9" r="3" fill="#1f77b4"/>
<circle cx="375.5" cy="200.8" r="3" fill="#1f77b4"/>
<circle cx="377.4" cy="178.0" r="3" fill="#1f77b4"/>
<circle cx="379.3" cy="166.0" r="3" fill="#1f77b4"/>
<circle cx="381.2" cy="170.1" r="3" fill="#1f77b4"/>
<circle cx="383.1" cy="170.7" r="3" fill="#1f77b4"/>
<circle cx="385.1" cy="176.8" r="3" fill="#1f77b4"/>
<circle cx="387.0" cy="240.9" r="3" fill="#1f77b4"/>
<circle cx="388.9" cy="188.7" r="3" fill="#1f77b4"/>
<circle cx="390.8" cy="220.3" r="3" fill="#1f77b4"/>
<circle cx="392.8" cy="262.2" r="3" fill="#1f77b4"/>
<circle cx="394.7" cy="103.3" r="3" fill="#1f77b4"/>
<circle cx="396.6" cy="200.1" r="3" fill="#1f77b4"/>
<circle cx="398.5" cy="85.4" r="3" fill="#1f77b4"/>
<circle cx="400.4" cy="74.0" r="3" fill="#1f77b4"/>
<circle cx="402.4" cy="123.8" r="3" fill="#1f77b4"/>
<circle cx="404.3" cy="209.9" r="3" fill="#1f77b4"/>
<circle cx="406.2" cy="185.7" r="3" fill="#1f77b4"/>
<circle cx="408.1" cy="119.1" r="3" fill="#1f77b4"/>
<circle cx="410.0" cy="164.1" r="3" fill="#1f77b4"/>
<circle cx="412.0" cy="193.6" r="3" fill="#1f77b4"/>
<circle cx="413.9" cy="157.5" r="3" fill="#1f77b4"/>
<circle cx="415.8" cy="212.2" r="3" fill="#1f77b4"/>
<circle cx="417.7" cy="184.3" r="3" fill="#1f77b4"/>
<circle cx="419.6" cy="154.6" r="3" fill="#1f77b4"/>
<circle cx="421.6" cy="170.0" r="3" fill="#1f77b4"/>
<circle cx="423.5" cy="189.3" r="3" fill="#1f77b4"/>
<circle cx="425.4" cy="147.9" r="3" fill="#1f77b4"/>
<circle cx="427.3" cy="135.4" r="3" fill="#1f77b4"/>
<circle cx="429.3" cy="153.1" r="3" fill="#1f77b4"/>
<circle cx="431.2" cy="151.4" r="3" fill="#1f77b4"/>
<circle cx="433.1" cy="148.5" r="3" fill="#1f77b4"/>
<circle cx="435.0" cy="129.6" r="3" fill="#1f77b4"/>
<circle cx="436.9" cy="199.7" r="3" fill="#1f77b4"/>
<circle cx="438.9" cy="152.0" r="3" fill="#1f77b4"/>
<circle cx="440.8" cy="104.5" r="3" fill="#1f77b4"/>
<circle cx="442.7" cy="185.3" r="3" fill="#1f77b4"/>
<circle cx="444.6" cy="230.3" r="3" fill="#1f77b4"/>
<circle cx="446.5" cy="184.6" r="3" fill="#1f77b4"/>
<circle cx="448.5" cy="232.7" r="3" fill="#1f77b4"/>
<circle cx="450.4" cy="154.0" r="3" fill="#1f77b4"/>
<circle cx="452.3" cy="200.8" r="3" fill="#1f77b4"/>
<circle cx="454.2" cy="151.0" r="3" fill="#1f77b4"/>
<circle cx="456.1" cy="143.2" r="3" fill="#1f77b4"/>
<circle cx="458.1" cy="137.3" r="3" fill="#1f77b4"/>
<circle cx="460.0" cy="148.6" r="3" fill="#1f77b4"/>
<circle cx="461.9" cy="226.7" r="3" fill="#1f77b4"/>
<circle cx="463.8" cy="207.9" r="3" fill="#1f77b4"/>
<circle cx="465.7" cy="178.6" r="3" fill="#1f77b4"/>
<circle cx="467.7" cy="133.0" r="3" fill="#1f77b4"/>
<circle cx="469.6" cy="74.7" r="3" fill="#1f77b4"/>
<circle cx="471.5" cy="164.5" r="3" fill="#1f77b4"/>
<circle cx="473.4" cy="127.8" r="3" fill="#1f77b4"/>
<circle cx="475.4" cy="129.9" r="3" fill="#1f77b4"/>
<circle cx="477.3" cy="152.9" r="3" fill="#1f77b4"/>
<circle cx="479.2" cy="186.9" r="3" fill="#1f77b4"/>
<circle cx="481.1" cy="186.9" r="3" fill="#1f77b4"/>
<circle cx="483.0" cy="188.1" r="3" fill="#1f77b4"/>
<circle cx="485.0" cy="81.2" r="3" fill="#1f77b4"/>
<circle cx="486.9" cy="134.7" r="3" fill="#1f77b4"/>
<circle cx="488.8" cy="140.7" r="3" fill="#1f77b4"/>
<circle cx="490.7" cy="207.2" r="3" fill="#1f77b4"/>
<circle cx="492.6" cy="176.8" r="3" fill="#1f77b4"/>
<circle cx="494.6" cy="210.5" r="3" fill="#1f77b4"/>
<circle cx="496.5" cy="156.6" r="3" fill="#1f77b4"/>
<circle cx="498.4" cy="143.8" r="3" fill="#1f77b4"/>
<circle cx="500.3" cy="180.7" r="3" fill="#1f77b4"/>
<circle cx="502.2" cy="233.6" r="3" fill="#1f77b4"/>
<circle cx="504.2" cy="175.7" r="3" fill="#1f77b4"/>
<circle cx="506.1" cy="226.1" r="3" fill="#1f77b4"/>
<circle cx="508.0" cy="249.5" r="3" fill="#1f77b4"/>
<circle cx="509.9" cy="235.3" r="3" fill="#1f77b4"/>
<circle cx="511.9" cy="128.4" r="3" fill="#1f77b4"/>
<circle cx="513.8" cy="189.4" r="3" fill="#1f77b4"/>
<circle cx="515.7" cy="280.6" r="3" fill="#1f77b4"/>
<circle cx="517.6" cy="187.6" r="3" fill="#1f77b4"/>
<circle cx="519.5" cy="178.7" r="3" fill="#1f77b4"/>
<circle cx="521.5" cy="225.9" r="3" fill="#1f77b4"/>
<circle cx="523.4" cy="120.3" r="3" fill="#1f77b4"/>
<circle cx="525.3" cy="250.6" r="3" fill="#1f77b4"/>
<circle cx="527.2" cy="184.7" r="3" fill="#1f77b4"/>
<circle cx="529.1" cy="177.4" r="3" fill="#1f77b4"/>
<circle cx="531.1" cy="148.2" r="3" fill="#1f77b4"/>
<circle cx="533.0" cy="193.2" r="3" fill="#1f77b4"/>
<circle cx="534.9" cy="206.9" r="3" fill="#1f77b4"/>
<circle cx="536.8" cy="153.1" r="3" fill="#1f77b4"/>
<circle cx="538.7" cy="169.5" r="3" fill="#1f77b4"/>
<circle cx="540.7" cy="182.4" r="3" fill="#1f77b4"/>
<circle cx="542.6" cy="181.7" r="3" fill="#1f77b4"/>
<circle cx="544.5" cy="141.3" r="3" fill="#1f77b4"/>
<circle cx="546.4" cy="155.9" r="3" fill="#1f77b4"/>
<circle cx="548.4" cy="105.3" r="3" fill="#1f77b4"/>
<circle cx="550.3" cy="151.1" r="3" fill="#1f77b4"/>
<circle cx="552.2" cy="151.3" r="3" fill="#1f77b4"/>
<circle cx="554.1" cy="132.1" r="3" fill="#1f77b4"/>
<circle cx="556.0" cy="169.0" r="3" fill="#1f77b4"/>
<circle cx="558.0" cy="125.8" r="3" fill="#1f77b4"/>
<circle cx="559.9" cy="89.2" r="3" fill="#1f77b4"/>
<circle cx="561.8" cy="196.6" r="3" fill="#1f77b4"/>
<circle cx="563.7" cy="192.1" r="3" fill="#1f77b4"/>
<circle cx="565.6" cy="149.5" r="3" fill="#1f77b4"/>
<circle cx="567.6" cy="193.4" r="3" fill="#1f77b4"/>
<circle cx="569.5" cy="132.1" r="3" fill="#1f77b4"/>
<circle cx="571.4" cy="177.8" r="3" fill="#1f77b4"/>
<circle cx="573.3" cy="173.3" r="3" fill="#1f77b4"/>
<circle cx="575.2" cy="134.2" r="3" fill="#1f77b4"/>
<circle cx="577.2" cy="207.9" r="3" fill="#1f77b4"/>
<circle cx="579.1" cy="133.7" r="3" fill="#1f77b4"/>
<circle cx="581.0" cy="127.3" r="3" fill="#1f77b4"/>
<circle cx="582.9" cy="210.6" r="3" fill="#1f77b4"/>
<circle cx="584.9" cy="155.2" r="3" fill="#1f77b4"/>
<circle cx="586.8" cy="134.5" r="3" fill="#1f77b4"/>
<circle cx="588.7" cy="151.9" r="3" fill="#1f77b4"/>
<circle cx="590.6" cy="146.1" r="3" fill="#1f77b4"/>
<circle cx="592.5" cy="197.8" r="3" fill="#1f77b4"/>
<circle cx="594.5" cy="140.6" r="3" fill="#1f77b4"/>
<circle cx="596.4" cy="181.8" r="3" fill="#1f77b4"/>
<circle cx="598.3" cy="216.3" r="3" fill="#1f77b4"/>
<circle cx="600.2" cy="147.1" r="3" fill="#1f77b4"/>
<circle cx="602.1" cy="149.4" r="3" fill="#1f77b4"/>
<circle cx="604.1" cy="154.7" r="3" fill="#1f77b4"/>
<circle cx="606.0" cy="192.9" r="3" fill="#1f77b4"/>
<circle cx="607.9" cy="225.9" r="3" fill="#1f77b4"/>
<circle cx="609.8" cy="158.3" r="3" fill="#1f77b4"/>
<circle cx="611.7" cy="145.7" r="3" fill="#1f77b4"/>
<circle cx="613.7" cy="172.0" r="3" fill="#1f77b4"/>
<circle cx="615.6" cy="204.6" r="3" fill="#1f77b4"/>
<circle cx="617.5" cy="192.9" r="3" fill="#1f77b4"/>
<circle cx="619.4" cy="184.1" r="3" fill="#1f77b4"/>
<circle cx="621.3" cy="243.9" r="3" fill="#1f77b4"/>
<circle cx="623.3" cy="189.3" r="3" fill="#1f77b4"/>
<circle cx="625.2" cy="290.3" r="3" fill="#1f77b4"/>
<circle cx="627.1" cy="197.6" r="3" fill="#1f77b4"/>
<circle cx="629.0" cy="147.5" r="3" fill="#1f77b4"/>
<circle cx="631.0" cy="147.3" r="3" fill="#1f77b4"/>
<circle cx="632.9" cy="222.9" r="3" fill="#1f77b4"/>
<circle cx="634.8" cy="208.7" r="3" fill="#1f77b4"/>
<circle cx="636.7" cy="182.3" r="3" fill="#1f77b4"/>
<circle cx="638.6" cy="206.4" r="3" fill="#1f77b4"/>
<circle cx="640.6" cy="250.8" r="3" fill="#1f77b4"/>
<circle cx="642.5" cy="305.6" r="3" fill="#1f77b4"/>
<circle cx="644.4" cy="281.6" r="3" fill="#1f77b4"/>
<circle cx="646.3" cy="333.9" r="3" fill="#1f77b4"/>
<circle cx="648.2" cy="257.6" r="3" fill="#1f77b4"/>
<circle cx="650.2" cy="248.3" r="3" fill="#1f77b4"/>
<circle cx="652.1" cy="268.2" r="3" fill="#1f77b4"/>
<circle cx="654.0" cy="225.4" r="3" fill="#1f77b4"/>
<circle cx="655.9" cy="245.2" r="3" fill="#1f77b4"/>
<circle cx="657.8" cy="253.9" r="3" fill="#1f77b4"/>
<circle cx="659.8" cy="251.9" r="3" fill="#1f77b4"/>
<circle cx="661.7" cy="286.6" r="3" fill="#1f77b4"/>
<circle cx="663.6" cy="298.3" r="3" fill="#1f77b4"/>
<circle cx="665.5" cy="298.5" r="3" fill="#1f77b4"/>
<circle cx="667.5" cy="250.4" r="3" fill="#1f77b4"/>
<circle cx="669.4" cy="267.3" r="3" fill="#1f77b4"/>
<circle cx="671.3" cy="256.5" r="3" fill="#1f77b4"/>
<circle cx="673.2" cy="246.3" r="3" fill="#1f77b4"/>
<circle cx="675.1" cy="252.4" r="3" fill="#1f77b4"/>
<circle cx="677.1" cy="211.8" r="3" fill="#1f77b4"/>
<circle cx="679.0" cy="248.2" r="3" fill="#1f77b4"/>
<circle cx="680.9" cy="262.3" r="3" fill="#1f77b4"/>
<circle cx="682.8" cy="237.9" r="3" fill="#1f77b4"/>
<circle cx="684.7" cy="209.8" r="3" fill="#1f77b4"/>
<circle cx="686.7" cy="274.3" r="3" fill="#1f77b4"/>
<circle cx="688.6" cy="170.2" r="3" fill="#1f77b4"/>
<circle cx="690.5" cy="268.9" r="3" fill="#1f77b4"/>
<circle cx="692.4" cy="231.6" r="3" fill="#1f77b4"/>
<circle cx="694.3" cy="233.2" r="3" fill="#1f77b4"/>
<circle cx="696.3" cy="205.7" r="3" fill="#1f77b4"/>
<circle cx="698.2" cy="249.4" r="3" fill="#1f77b4"/>
<circle cx="700.1" cy="263.4" r="3" fill="#1f77b4"/>
<circle cx="702.0" cy="263.1" r="3" fill="#1f77b4"/>
<circle cx="704.0" cy="243.6" r="3" fill="#1f77b4"/>
<circle cx="705.9" cy="178.6" r="3" fill="#1f77b4"/>
<circle cx="707.8" cy="247.4" r="3" fill="#1f77b4"/>
<circle cx="709.7" cy="224.4" r="3" fill="#1f77b4"/>
<circle cx="711.6" cy="254.1" r="3" fill="#1f77b4"/>
<circle cx="713.6" cy="165.1" r="3" fill="#1f77b4"/>
<circle cx="715.5" cy="241.1" r="3" fill="#1f77b4"/>
<circle cx="717.4" cy="171.7" r="3" fill="#1f77b4"/>
<circle cx="719.3" cy="254.6" r="3" fill="#1f77b4"/>
<circle cx="721.2" cy="110.2" r="3" fill="#1f77b4"/>
<circle cx="723.2" cy="161.9" r="3" fill="#1f77b4"/>
<circle cx="725.1" cy="235.3" r="3" fill="#1f77b4"/>
<circle cx="727.0" cy="244.1" r="3" fill="#1f77b4"/>
<circle cx="728.9" cy="108.4" r="3" fill="#1f77b4"/>
<circle cx="730.8" cy="233.2" r="3" fill="#1f77b4"/>
<circle cx="732.8" cy="169.7" r="3" fill="#1f77b4"/>
<circle cx="734.7" cy="218.0" r="3" fill="#1f77b4"/>
<circle cx="736.6" cy="125.5" r="3" fill="#1f77b4"/>
<circle cx="738.5" cy="198.4" r="3" fill="#1f77b4"/>
<circle cx="740.4" cy="184.6" r="3" fill="#1f77b4"/>
<circle cx="742.4" cy="188.1" r="3" fill="#1f77b4"/>
<circle cx="744.3" cy="232.3" r="3" fill="#1f77b4"/>
<circle cx="746.2" cy="194.0" r="3" fill="#1f77b4"/>
<circle cx="748.1" cy="175.2" r="3" fill="#1f77b4"/>
<circle cx="750.1" cy="182.0" r="3" fill="#1f77b4"/>
<circle cx="752.0" cy="188.7" r="3" fill="#1f77b4"/>
<circle cx="753.9" cy="163.5" r="3" fill="#1f77b4"/>
<circle cx="755.8" cy="92.1" r="3" fill="#1f77b4"/>
<circle cx="757.7" cy="168.7" r="3" fill="#1f77b4"/>
<circle cx="759.7" cy="130.3" r="3" fill="#1f77b4"/>
<circle cx="761.6" cy="173.0" r="3" fill="#1f77b4"/>
<circle cx="763.5" cy="177.5" r="3" fill="#1f77b4"/>
<circle cx="765.4" cy="162.3" r="3" fill="#1f77b4"/>
<circle cx="767.3" cy="233.0" r="3" fill="#1f77b4"/>
<circle cx="769.3" cy="106.2" r="3" fill="#1f77b4"/>
<circle cx="771.2" cy="126.1" r="3" fill="#1f77b4"/>
<circle cx="773.1" cy="127.5" r="3" fill="#1f77b4"/>
<circle cx="775.0" cy="108.2" r="3" fill="#1f77b4"/>
<circle cx="776.9" cy="149.9" r="3" fill="#1f77b4"/>
<circle cx="778.9" cy="127.9" r="3" fill="#1f77b4"/>
<circle cx="780.8" cy="222.3" r="3" fill="#1f77b4"/>
<circle cx="782.7" cy="114.8" r="3" fill="#1f77b4"/>
<circle cx="784.6" cy="136.7" r="3" fill="#1f77b4"/>
<circle cx="786.6" cy="135.7" r="3" fill="#1f77b4"/>
<circle cx="788.5" cy="123.5" r="3" fill="#1f77b4"/>
<circle cx="790.4" cy="93.1" r="3" fill="#1f77b4"/>
<circle cx="792.3" cy="92.3" r="3" fill="#1f77b4"/>
<circle cx="794.2" cy="132.2" r="3" fill="#1f77b4"/>
<circle cx="796.2" cy="132.1" r="3" fill="#1f77b4"/>
<circle cx="798.1" cy="89.2" r="3" fill="#1f77b4"/>
<circle cx="800.0" cy="96.8" r="3" fill="#1f77b4"/>
<line x1="828" y1="96" x2="850" y2="96" stroke="#1f77b4" stroke-width="2.5"/>
<text x="858" y="100" font-family="Arial" font-size="13">final_on_policy_lr4e-5_400_full_eval</text>
<text x="447.5" y="638" text-anchor="middle" font-family="Arial" font-size="15">GRPO step</text>
<text x="24" y="326.0" text-anchor="middle" font-family="Arial" font-size="15" transform="rotate(-90 24 326.0)">Average response tokens</text>
</svg>
