<svg xmlns="http://www.w3.org/2000/svg" width="1100" height="660" viewBox="0 0 1100 660">
<rect width="100%" height="100%" fill="white"/>
<text x="550.0" y="36" text-anchor="middle" font-family="Arial" font-size="22" font-weight="700">Leaderboard rollout response length</text>
<line x1="95" y1="578" x2="800" y2="578" stroke="#222" stroke-width="1.5"/>
<line x1="95" y1="74" x2="95" y2="578" stroke="#222" stroke-width="1.5"/>
<line x1="90" y1="578.0" x2="800" y2="578.0" stroke="#ddd" stroke-width="1"/>
<text x="83" y="582.0" text-anchor="end" font-family="Arial" font-size="12">0.00</text>
<line x1="90" y1="477.2" x2="800" y2="477.2" stroke="#ddd" stroke-width="1"/>
<text x="83" y="481.2" text-anchor="end" font-family="Arial" font-size="12">100.22</text>
<line x1="90" y1="376.4" x2="800" y2="376.4" stroke="#ddd" stroke-width="1"/>
<text x="83" y="380.4" text-anchor="end" font-family="Arial" font-size="12">200.44</text>
<line x1="90" y1="275.6" x2="800" y2="275.6" stroke="#ddd" stroke-width="1"/>
<text x="83" y="279.6" text-anchor="end" font-family="Arial" font-size="12">300.66</text>
<line x1="90" y1="174.8" x2="800" y2="174.8" stroke="#ddd" stroke-width="1"/>
<text x="83" y="178.8" text-anchor="end" font-family="Arial" font-size="12">400.88</text>
<line x1="90" y1="74.0" x2="800" y2="74.0" stroke="#ddd" stroke-width="1"/>
<text x="83" y="78.0" text-anchor="end" font-family="Arial" font-size="12">501.10</text>
<line x1="95.0" y1="578" x2="95.0" y2="583" stroke="#222" stroke-width="1"/>
<text x="95.0" y="602" text-anchor="middle" font-family="Arial" font-size="12">1</text>
<line x1="236.0" y1="578" x2="236.0" y2="583" stroke="#222" stroke-width="1"/>
<text x="236.0" y="602" text-anchor="middle" font-family="Arial" font-size="12">81</text>
<line x1="377.0" y1="578" x2="377.0" y2="583" stroke="#222" stroke-width="1"/>
<text x="377.0" y="602" text-anchor="middle" font-family="Arial" font-size="12">161</text>
<line x1="518.0" y1="578" x2="518.0" y2="583" stroke="#222" stroke-width="1"/>
<text x="518.0" y="602" text-anchor="middle" font-family="Arial" font-size="12">240</text>
<line x1="659.0" y1="578" x2="659.0" y2="583" stroke="#222" stroke-width="1"/>
<text x="659.0" y="602" text-anchor="middle" font-family="Arial" font-size="12">320</text>
<line x1="800.0" y1="578" x2="800.0" y2="583" stroke="#222" stroke-width="1"/>
<text x="800.0" y="602" text-anchor="middle" font-family="Arial" font-size="12">400</text>
<polyline fill="none" stroke="#1f77b4" stroke-width="2.3" points="95.0,271.6 96.8,457.9 98.5,397.5 100.3,416.9 102.1,392.4 103.8,420.0 105.6,477.4 107.4,486.0 109.1,513.2 110.9,495.6 112.7,481.4 114.4,476.6 116.2,478.1 118.0,475.8 119.7,465.4 121.5,461.1 123.3,466.2 125.0,465.6 126.8,477.1 128.6,464.8 130.3,454.7 132.1,456.7 133.9,487.0 135.6,487.6 137.4,482.0 139.2,470.8 140.9,480.1 142.7,461.7 144.5,456.7 146.2,431.7 148.0,462.4 149.8,435.7 151.5,461.6 153.3,434.5 155.1,419.3 156.8,403.7 158.6,426.1 160.4,410.0 162.1,436.9 163.9,393.9 165.7,426.1 167.4,432.4 169.2,408.1 171.0,431.7 172.7,374.0 174.5,392.2 176.3,436.5 178.0,368.2 179.8,383.3 181.6,407.8 183.3,354.7 185.1,394.4 186.9,357.5 188.6,382.6 190.4,322.0 192.2,300.8 193.9,355.4 195.7,276.9 197.5,306.2 199.2,293.1 201.0,315.6 202.8,299.8 204.5,335.7 206.3,296.9 208.1,306.1 209.8,291.6 211.6,281.4 213.4,284.8 215.2,316.4 216.9,290.6 218.7,206.6 220.5,299.8 222.2,297.6 224.0,280.3 225.8,288.1 227.5,287.6 229.3,239.9 231.1,301.3 232.8,300.0 234.6,315.9 236.4,338.2 238.1,331.5 239.9,310.2 241.7,271.9 243.4,279.5 245.2,315.8 247.0,320.8 248.7,273.1 250.5,342.1 252.3,327.8 254.0,291.6 255.8,258.2 257.6,305.6 259.3,281.4 261.1,318.5 262.9,274.9 264.6,278.1 266.4,266.1 268.2,258.7 269.9,260.5 271.7,220.4 273.5,312.2 275.2,303.0 277.0,256.9 278.8,266.4 280.5,229.2 282.3,236.3 284.1,206.0 285.8,212.3 287.6,251.1 289.4,135.1 291.1,198.0 292.9,271.8 294.7,206.1 296.4,247.2 298.2,183.8 300.0,263.8 301.7,279.9 303.5,198.8 305.3,233.2 307.0,211.4 308.8,101.8 310.6,201.2 312.3,265.7 314.1,240.9 315.9,246.8 317.6,209.0 319.4,202.6 321.2,222.9 322.9,262.5 324.7,267.2 326.5,225.1 328.2,248.6 330.0,234.0 331.8,270.6 333.5,229.9 335.3,255.5 337.1,237.1 338.8,287.4 340.6,204.2 342.4,222.9 344.1,239.1 345.9,273.8 347.7,188.7 349.4,236.5 351.2,241.5 353.0,264.0 354.7,221.2 356.5,198.1 358.3,224.6 360.0,201.1 361.8,239.5 363.6,262.6 365.3,247.6 367.1,295.3 368.9,283.4 370.6,174.3 372.4,238.3 374.2,128.2 375.9,122.2 377.7,147.0 379.5,253.6 381.2,199.9 383.0,188.9 384.8,215.8 386.5,232.2 388.3,199.7 390.1,243.6 391.8,219.2 393.6,222.6 395.4,242.7 397.1,246.6 398.9,221.6 400.7,194.8 402.4,219.5 404.2,219.2 406.0,202.0 407.7,196.0 409.5,296.6 411.3,238.3 413.0,183.0 414.8,256.8 416.6,312.9 418.3,257.6 420.1,313.8 421.9,217.5 423.6,278.3 425.4,219.1 427.2,219.0 428.9,215.3 430.7,213.3 432.5,267.2 434.2,251.6 436.0,258.0 437.8,187.5 439.5,120.0 441.3,223.0 443.1,176.8 444.8,162.6 446.6,233.3 448.4,235.0 450.2,214.3 451.9,236.4 453.7,131.8 455.5,154.5 457.2,178.7 459.0,218.6 460.8,213.6 462.5,208.3 464.3,184.2 466.1,132.9 467.8,211.7 469.6,259.6 471.4,197.6 473.1,258.0 474.9,250.2 476.7,235.4 478.4,115.3 480.2,184.8 482.0,284.0 483.7,195.0 485.5,163.7 487.3,237.0 489.0,113.2 490.8,275.7 492.6,186.0 494.3,175.1 496.1,150.6 497.9,231.8 499.6,217.8 501.4,162.0 503.2,188.2 504.9,187.2 506.7,210.9 508.5,164.5 510.2,174.5 512.0,114.1 513.8,140.9 515.5,156.0 517.3,158.1 519.1,171.6 520.8,132.9 522.6,84.5 524.4,224.3 526.1,226.0 527.9,191.7 529.7,196.7 531.4,156.0 533.2,173.8 535.0,172.7 536.7,142.1 538.5,228.7 540.3,90.3 542.0,125.4 543.8,178.2 545.6,118.1 547.3,143.8 549.1,110.0 550.9,106.4 552.6,153.4 554.4,129.5 556.2,121.3 557.9,152.3 559.7,110.4 561.5,113.0 563.2,119.0 565.0,139.6 566.8,175.7 568.5,121.6 570.3,103.4 572.1,92.6 573.8,150.4 575.6,162.2 577.4,123.3 579.1,214.4 580.9,128.2 582.7,222.8 584.4,139.0 586.2,94.2 588.0,90.2 589.7,128.0 591.5,167.8 593.3,97.1 595.0,137.1 596.8,144.7 598.6,225.3 600.3,171.9 602.1,221.4 603.9,126.0 605.6,125.2 607.4,166.5 609.2,109.4 610.9,136.3 612.7,143.7 614.5,167.2 616.2,189.0 618.0,242.9 619.8,227.0 621.5,193.1 623.3,228.8 625.1,175.6 626.8,198.7 628.6,188.8 630.4,159.2 632.1,176.1 633.9,195.6 635.7,146.1 637.4,123.5 639.2,222.6 641.0,106.2 642.7,202.4 644.5,168.2 646.3,168.6 648.0,129.5 649.8,174.7 651.6,198.5 653.3,192.8 655.1,174.8 656.9,126.7 658.6,200.8 660.4,164.6 662.2,186.4 663.9,95.0 665.7,198.5 667.5,136.6 669.2,221.9 671.0,74.2 672.8,137.2 674.5,218.2 676.3,226.3 678.1,90.7 679.8,230.9 681.6,135.8 683.4,225.6 685.2,121.1 686.9,203.6 688.7,139.5 690.5,159.1 692.2,210.5 694.0,177.9 695.8,161.5 697.5,162.5 699.3,172.6 701.1,148.4 702.8,81.5 704.6,184.1 706.4,129.1 708.1,170.1 709.9,172.1 711.7,163.8 713.4,211.4 715.2,101.5 717.0,135.7 718.7,139.9 720.5,81.4 722.3,161.7 724.0,154.3 725.8,255.4 727.6,145.6 729.3,157.5 731.1,171.6 732.9,166.1 734.6,122.6 736.4,112.2 738.2,165.9 739.9,137.4 741.7,135.3 743.5,139.6 745.2,174.1 747.0,185.8 748.8,201.9 750.5,170.0 752.3,136.4 754.1,217.2 755.8,128.9 757.6,170.6 759.4,208.4 761.1,228.8 762.9,183.1 764.7,208.9 766.4,202.4 768.2,198.7 770.0,131.5 771.7,217.0 773.5,225.4 775.3,191.4 777.0,225.1 778.8,185.7 780.6,134.2 782.3,170.5 784.1,156.5 785.9,102.1 787.6,206.5 789.4,172.3 791.2,180.5 792.9,74.0 794.7,159.0 796.5,124.0 798.2,167.1 800.0,196.6"/>
<circle cx="95.0" cy="271.6" r="3" fill="#1f77b4"/>
<circle cx="96.8" cy="457.9" r="3" fill="#1f77b4"/>
<circle cx="98.5" cy="397.5" r="3" fill="#1f77b4"/>
<circle cx="100.3" cy="416.9" r="3" fill="#1f77b4"/>
<circle cx="102.1" cy="392.4" r="3" fill="#1f77b4"/>
<circle cx="103.8" cy="420.0" r="3" fill="#1f77b4"/>
<circle cx="105.6" cy="477.4" r="3" fill="#1f77b4"/>
<circle cx="107.4" cy="486.0" r="3" fill="#1f77b4"/>
<circle cx="109.1" cy="513.2" r="3" fill="#1f77b4"/>
<circle cx="110.9" cy="495.6" r="3" fill="#1f77b4"/>
<circle cx="112.7" cy="481.4" r="3" fill="#1f77b4"/>
<circle cx="114.4" cy="476.6" r="3" fill="#1f77b4"/>
<circle cx="116.2" cy="478.1" r="3" fill="#1f77b4"/>
<circle cx="118.0" cy="475.8" r="3" fill="#1f77b4"/>
<circle cx="119.7" cy="465.4" r="3" fill="#1f77b4"/>
<circle cx="121.5" cy="461.1" r="3" fill="#1f77b4"/>
<circle cx="123.3" cy="466.2" r="3" fill="#1f77b4"/>
<circle cx="125.0" cy="465.6" r="3" fill="#1f77b4"/>
<circle cx="126.8" cy="477.1" r="3" fill="#1f77b4"/>
<circle cx="128.6" cy="464.8" r="3" fill="#1f77b4"/>
<circle cx="130.3" cy="454.7" r="3" fill="#1f77b4"/>
<circle cx="132.1" cy="456.7" r="3" fill="#1f77b4"/>
<circle cx="133.9" cy="487.0" r="3" fill="#1f77b4"/>
<circle cx="135.6" cy="487.6" r="3" fill="#1f77b4"/>
<circle cx="137.4" cy="482.0" r="3" fill="#1f77b4"/>
<circle cx="139.2" cy="470.8" r="3" fill="#1f77b4"/>
<circle cx="140.9" cy="480.1" r="3" fill="#1f77b4"/>
<circle cx="142.7" cy="461.7" r="3" fill="#1f77b4"/>
<circle cx="144.5" cy="456.7" r="3" fill="#1f77b4"/>
<circle cx="146.2" cy="431.7" r="3" fill="#1f77b4"/>
<circle cx="148.0" cy="462.4" r="3" fill="#1f77b4"/>
<circle cx="149.8" cy="435.7" r="3" fill="#1f77b4"/>
<circle cx="151.5" cy="461.6" r="3" fill="#1f77b4"/>
<circle cx="153.3" cy="434.5" r="3" fill="#1f77b4"/>
<circle cx="155.1" cy="419.3" r="3" fill="#1f77b4"/>
<circle cx="156.8" cy="403.7" r="3" fill="#1f77b4"/>
<circle cx="158.6" cy="426.1" r="3" fill="#1f77b4"/>
<circle cx="160.4" cy="410.0" r="3" fill="#1f77b4"/>
<circle cx="162.1" cy="436.9" r="3" fill="#1f77b4"/>
<circle cx="163.9" cy="393.9" r="3" fill="#1f77b4"/>
<circle cx="165.7" cy="426.1" r="3" fill="#1f77b4"/>
<circle cx="167.4" cy="432.4" r="3" fill="#1f77b4"/>
<circle cx="169.2" cy="408.1" r="3" fill="#1f77b4"/>
<circle cx="171.0" cy="431.7" r="3" fill="#1f77b4"/>
<circle cx="172.7" cy="374.0" r="3" fill="#1f77b4"/>
<circle cx="174.5" cy="392.2" r="3" fill="#1f77b4"/>
<circle cx="176.3" cy="436.5" r="3" fill="#1f77b4"/>
<circle cx="178.0" cy="368.2" r="3" fill="#1f77b4"/>
<circle cx="179.8" cy="383.3" r="3" fill="#1f77b4"/>
<circle cx="181.6" cy="407.8" r="3" fill="#1f77b4"/>
<circle cx="183.3" cy="354.7" r="3" fill="#1f77b4"/>
<circle cx="185.1" cy="394.4" r="3" fill="#1f77b4"/>
<circle cx="186.9" cy="357.5" r="3" fill="#1f77b4"/>
<circle cx="188.6" cy="382.6" r="3" fill="#1f77b4"/>
<circle cx="190.4" cy="322.0" r="3" fill="#1f77b4"/>
<circle cx="192.2" cy="300.8" r="3" fill="#1f77b4"/>
<circle cx="193.9" cy="355.4" r="3" fill="#1f77b4"/>
<circle cx="195.7" cy="276.9" r="3" fill="#1f77b4"/>
<circle cx="197.5" cy="306.2" r="3" fill="#1f77b4"/>
<circle cx="199.2" cy="293.1" r="3" fill="#1f77b4"/>
<circle cx="201.0" cy="315.6" r="3" fill="#1f77b4"/>
<circle cx="202.8" cy="299.8" r="3" fill="#1f77b4"/>
<circle cx="204.5" cy="335.7" r="3" fill="#1f77b4"/>
<circle cx="206.3" cy="296.9" r="3" fill="#1f77b4"/>
<circle cx="208.1" cy="306.1" r="3" fill="#1f77b4"/>
<circle cx="209.8" cy="291.6" r="3" fill="#1f77b4"/>
<circle cx="211.6" cy="281.4" r="3" fill="#1f77b4"/>
<circle cx="213.4" cy="284.8" r="3" fill="#1f77b4"/>
<circle cx="215.2" cy="316.4" r="3" fill="#1f77b4"/>
<circle cx="216.9" cy="290.6" r="3" fill="#1f77b4"/>
<circle cx="218.7" cy="206.6" r="3" fill="#1f77b4"/>
<circle cx="220.5" cy="299.8" r="3" fill="#1f77b4"/>
<circle cx="222.2" cy="297.6" r="3" fill="#1f77b4"/>
<circle cx="224.0" cy="280.3" r="3" fill="#1f77b4"/>
<circle cx="225.8" cy="288.1" r="3" fill="#1f77b4"/>
<circle cx="227.5" cy="287.6" r="3" fill="#1f77b4"/>
<circle cx="229.3" cy="239.9" r="3" fill="#1f77b4"/>
<circle cx="231.1" cy="301.3" r="3" fill="#1f77b4"/>
<circle cx="232.8" cy="300.0" r="3" fill="#1f77b4"/>
<circle cx="234.6" cy="315.9" r="3" fill="#1f77b4"/>
<circle cx="236.4" cy="338.2" r="3" fill="#1f77b4"/>
<circle cx="238.1" cy="331.5" r="3" fill="#1f77b4"/>
<circle cx="239.9" cy="310.2" r="3" fill="#1f77b4"/>
<circle cx="241.7" cy="271.9" r="3" fill="#1f77b4"/>
<circle cx="243.4" cy="279.5" r="3" fill="#1f77b4"/>
<circle cx="245.2" cy="315.8" r="3" fill="#1f77b4"/>
<circle cx="247.0" cy="320.8" r="3" fill="#1f77b4"/>
<circle cx="248.7" cy="273.1" r="3" fill="#1f77b4"/>
<circle cx="250.5" cy="342.1" r="3" fill="#1f77b4"/>
<circle cx="252.3" cy="327.8" r="3" fill="#1f77b4"/>
<circle cx="254.0" cy="291.6" r="3" fill="#1f77b4"/>
<circle cx="255.8" cy="258.2" r="3" fill="#1f77b4"/>
<circle cx="257.6" cy="305.6" r="3" fill="#1f77b4"/>
<circle cx="259.3" cy="281.4" r="3" fill="#1f77b4"/>
<circle cx="261.1" cy="318.5" r="3" fill="#1f77b4"/>
<circle cx="262.9" cy="274.9" r="3" fill="#1f77b4"/>
<circle cx="264.6" cy="278.1" r="3" fill="#1f77b4"/>
<circle cx="266.4" cy="266.1" r="3" fill="#1f77b4"/>
<circle cx="268.2" cy="258.7" r="3" fill="#1f77b4"/>
<circle cx="269.9" cy="260.5" r="3" fill="#1f77b4"/>
<circle cx="271.7" cy="220.4" r="3" fill="#1f77b4"/>
<circle cx="273.5" cy="312.2" r="3" fill="#1f77b4"/>
<circle cx="275.2" cy="303.0" r="3" fill="#1f77b4"/>
<circle cx="277.0" cy="256.9" r="3" fill="#1f77b4"/>
<circle cx="278.8" cy="266.4" r="3" fill="#1f77b4"/>
<circle cx="280.5" cy="229.2" r="3" fill="#1f77b4"/>
<circle cx="282.3" cy="236.3" r="3" fill="#1f77b4"/>
<circle cx="284.1" cy="206.0" r="3" fill="#1f77b4"/>
<circle cx="285.8" cy="212.3" r="3" fill="#1f77b4"/>
<circle cx="287.6" cy="251.1" r="3" fill="#1f77b4"/>
<circle cx="289.4" cy="135.1" r="3" fill="#1f77b4"/>
<circle cx="291.1" cy="198.0" r="3" fill="#1f77b4"/>
<circle cx="292.9" cy="271.8" r="3" fill="#1f77b4"/>
<circle cx="294.7" cy="206.1" r="3" fill="#1f77b4"/>
<circle cx="296.4" cy="247.2" r="3" fill="#1f77b4"/>
<circle cx="298.2" cy="183.8" r="3" fill="#1f77b4"/>
<circle cx="300.0" cy="263.8" r="3" fill="#1f77b4"/>
<circle cx="301.7" cy="279.9" r="3" fill="#1f77b4"/>
<circle cx="303.5" cy="198.8" r="3" fill="#1f77b4"/>
<circle cx="305.3" cy="233.2" r="3" fill="#1f77b4"/>
<circle cx="307.0" cy="211.4" r="3" fill="#1f77b4"/>
<circle cx="308.8" cy="101.8" r="3" fill="#1f77b4"/>
<circle cx="310.6" cy="201.2" r="3" fill="#1f77b4"/>
<circle cx="312.3" cy="265.7" r="3" fill="#1f77b4"/>
<circle cx="314.1" cy="240.9" r="3" fill="#1f77b4"/>
<circle cx="315.9" cy="246.8" r="3" fill="#1f77b4"/>
<circle cx="317.6" cy="209.0" r="3" fill="#1f77b4"/>
<circle cx="319.4" cy="202.6" r="3" fill="#1f77b4"/>
<circle cx="321.2" cy="222.9" r="3" fill="#1f77b4"/>
<circle cx="322.9" cy="262.5" r="3" fill="#1f77b4"/>
<circle cx="324.7" cy="267.2" r="3" fill="#1f77b4"/>
<circle cx="326.5" cy="225.1" r="3" fill="#1f77b4"/>
<circle cx="328.2" cy="248.6" r="3" fill="#1f77b4"/>
<circle cx="330.0" cy="234.0" r="3" fill="#1f77b4"/>
<circle cx="331.8" cy="270.6" r="3" fill="#1f77b4"/>
<circle cx="333.5" cy="229.9" r="3" fill="#1f77b4"/>
<circle cx="335.3" cy="255.5" r="3" fill="#1f77b4"/>
<circle cx="337.1" cy="237.1" r="3" fill="#1f77b4"/>
<circle cx="338.8" cy="287.4" r="3" fill="#1f77b4"/>
<circle cx="340.6" cy="204.2" r="3" fill="#1f77b4"/>
<circle cx="342.4" cy="222.9" r="3" fill="#1f77b4"/>
<circle cx="344.1" cy="239.1" r="3" fill="#1f77b4"/>
<circle cx="345.9" cy="273.8" r="3" fill="#1f77b4"/>
<circle cx="347.7" cy="188.7" r="3" fill="#1f77b4"/>
<circle cx="349.4" cy="236.5" r="3" fill="#1f77b4"/>
<circle cx="351.2" cy="241.5" r="3" fill="#1f77b4"/>
<circle cx="353.0" cy="264.0" r="3" fill="#1f77b4"/>
<circle cx="354.7" cy="221.2" r="3" fill="#1f77b4"/>
<circle cx="356.5" cy="198.1" r="3" fill="#1f77b4"/>
<circle cx="358.3" cy="224.6" r="3" fill="#1f77b4"/>
<circle cx="360.0" cy="201.1" r="3" fill="#1f77b4"/>
<circle cx="361.8" cy="239.5" r="3" fill="#1f77b4"/>
<circle cx="363.6" cy="262.6" r="3" fill="#1f77b4"/>
<circle cx="365.3" cy="247.6" r="3" fill="#1f77b4"/>
<circle cx="367.1" cy="295.3" r="3" fill="#1f77b4"/>
<circle cx="368.9" cy="283.4" r="3" fill="#1f77b4"/>
<circle cx="370.6" cy="174.3" r="3" fill="#1f77b4"/>
<circle cx="372.4" cy="238.3" r="3" fill="#1f77b4"/>
<circle cx="374.2" cy="128.2" r="3" fill="#1f77b4"/>
<circle cx="375.9" cy="122.2" r="3" fill="#1f77b4"/>
<circle cx="377.7" cy="147.0" r="3" fill="#1f77b4"/>
<circle cx="379.5" cy="253.6" r="3" fill="#1f77b4"/>
<circle cx="381.2" cy="199.9" r="3" fill="#1f77b4"/>
<circle cx="383.0" cy="188.9" r="3" fill="#1f77b4"/>
<circle cx="384.8" cy="215.8" r="3" fill="#1f77b4"/>
<circle cx="386.5" cy="232.2" r="3" fill="#1f77b4"/>
<circle cx="388.3" cy="199.7" r="3" fill="#1f77b4"/>
<circle cx="390.1" cy="243.6" r="3" fill="#1f77b4"/>
<circle cx="391.8" cy="219.2" r="3" fill="#1f77b4"/>
<circle cx="393.6" cy="222.6" r="3" fill="#1f77b4"/>
<circle cx="395.4" cy="242.7" r="3" fill="#1f77b4"/>
<circle cx="397.1" cy="246.6" r="3" fill="#1f77b4"/>
<circle cx="398.9" cy="221.6" r="3" fill="#1f77b4"/>
<circle cx="400.7" cy="194.8" r="3" fill="#1f77b4"/>
<circle cx="402.4" cy="219.5" r="3" fill="#1f77b4"/>
<circle cx="404.2" cy="219.2" r="3" fill="#1f77b4"/>
<circle cx="406.0" cy="202.0" r="3" fill="#1f77b4"/>
<circle cx="407.7" cy="196.0" r="3" fill="#1f77b4"/>
<circle cx="409.5" cy="296.6" r="3" fill="#1f77b4"/>
<circle cx="411.3" cy="238.3" r="3" fill="#1f77b4"/>
<circle cx="413.0" cy="183.0" r="3" fill="#1f77b4"/>
<circle cx="414.8" cy="256.8" r="3" fill="#1f77b4"/>
<circle cx="416.6" cy="312.9" r="3" fill="#1f77b4"/>
<circle cx="418.3" cy="257.6" r="3" fill="#1f77b4"/>
<circle cx="420.1" cy="313.8" r="3" fill="#1f77b4"/>
<circle cx="421.9" cy="217.5" r="3" fill="#1f77b4"/>
<circle cx="423.6" cy="278.3" r="3" fill="#1f77b4"/>
<circle cx="425.4" cy="219.1" r="3" fill="#1f77b4"/>
<circle cx="427.2" cy="219.0" r="3" fill="#1f77b4"/>
<circle cx="428.9" cy="215.3" r="3" fill="#1f77b4"/>
<circle cx="430.7" cy="213.3" r="3" fill="#1f77b4"/>
<circle cx="432.5" cy="267.2" r="3" fill="#1f77b4"/>
<circle cx="434.2" cy="251.6" r="3" fill="#1f77b4"/>
<circle cx="436.0" cy="258.0" r="3" fill="#1f77b4"/>
<circle cx="437.8" cy="187.5" r="3" fill="#1f77b4"/>
<circle cx="439.5" cy="120.0" r="3" fill="#1f77b4"/>
<circle cx="441.3" cy="223.0" r="3" fill="#1f77b4"/>
<circle cx="443.1" cy="176.8" r="3" fill="#1f77b4"/>
<circle cx="444.8" cy="162.6" r="3" fill="#1f77b4"/>
<circle cx="446.6" cy="233.3" r="3" fill="#1f77b4"/>
<circle cx="448.4" cy="235.0" r="3" fill="#1f77b4"/>
<circle cx="450.2" cy="214.3" r="3" fill="#1f77b4"/>
<circle cx="451.9" cy="236.4" r="3" fill="#1f77b4"/>
<circle cx="453.7" cy="131.8" r="3" fill="#1f77b4"/>
<circle cx="455.5" cy="154.5" r="3" fill="#1f77b4"/>
<circle cx="457.2" cy="178.7" r="3" fill="#1f77b4"/>
<circle cx="459.0" cy="218.6" r="3" fill="#1f77b4"/>
<circle cx="460.8" cy="213.6" r="3" fill="#1f77b4"/>
<circle cx="462.5" cy="208.3" r="3" fill="#1f77b4"/>
<circle cx="464.3" cy="184.2" r="3" fill="#1f77b4"/>
<circle cx="466.1" cy="132.9" r="3" fill="#1f77b4"/>
<circle cx="467.8" cy="211.7" r="3" fill="#1f77b4"/>
<circle cx="469.6" cy="259.6" r="3" fill="#1f77b4"/>
<circle cx="471.4" cy="197.6" r="3" fill="#1f77b4"/>
<circle cx="473.1" cy="258.0" r="3" fill="#1f77b4"/>
<circle cx="474.9" cy="250.2" r="3" fill="#1f77b4"/>
<circle cx="476.7" cy="235.4" r="3" fill="#1f77b4"/>
<circle cx="478.4" cy="115.3" r="3" fill="#1f77b4"/>
<circle cx="480.2" cy="184.8" r="3" fill="#1f77b4"/>
<circle cx="482.0" cy="284.0" r="3" fill="#1f77b4"/>
<circle cx="483.7" cy="195.0" r="3" fill="#1f77b4"/>
<circle cx="485.5" cy="163.7" r="3" fill="#1f77b4"/>
<circle cx="487.3" cy="237.0" r="3" fill="#1f77b4"/>
<circle cx="489.0" cy="113.2" r="3" fill="#1f77b4"/>
<circle cx="490.8" cy="275.7" r="3" fill="#1f77b4"/>
<circle cx="492.6" cy="186.0" r="3" fill="#1f77b4"/>
<circle cx="494.3" cy="175.1" r="3" fill="#1f77b4"/>
<circle cx="496.1" cy="150.6" r="3" fill="#1f77b4"/>
<circle cx="497.9" cy="231.8" r="3" fill="#1f77b4"/>
<circle cx="499.6" cy="217.8" r="3" fill="#1f77b4"/>
<circle cx="501.4" cy="162.0" r="3" fill="#1f77b4"/>
<circle cx="503.2" cy="188.2" r="3" fill="#1f77b4"/>
<circle cx="504.9" cy="187.2" r="3" fill="#1f77b4"/>
<circle cx="506.7" cy="210.9" r="3" fill="#1f77b4"/>
<circle cx="508.5" cy="164.5" r="3" fill="#1f77b4"/>
<circle cx="510.2" cy="174.5" r="3" fill="#1f77b4"/>
<circle cx="512.0" cy="114.1" r="3" fill="#1f77b4"/>
<circle cx="513.8" cy="140.9" r="3" fill="#1f77b4"/>
<circle cx="515.5" cy="156.0" r="3" fill="#1f77b4"/>
<circle cx="517.3" cy="158.1" r="3" fill="#1f77b4"/>
<circle cx="519.1" cy="171.6" r="3" fill="#1f77b4"/>
<circle cx="520.8" cy="132.9" r="3" fill="#1f77b4"/>
<circle cx="522.6" cy="84.5" r="3" fill="#1f77b4"/>
<circle cx="524.4" cy="224.3" r="3" fill="#1f77b4"/>
<circle cx="526.1" cy="226.0" r="3" fill="#1f77b4"/>
<circle cx="527.9" cy="191.7" r="3" fill="#1f77b4"/>
<circle cx="529.7" cy="196.7" r="3" fill="#1f77b4"/>
<circle cx="531.4" cy="156.0" r="3" fill="#1f77b4"/>
<circle cx="533.2" cy="173.8" r="3" fill="#1f77b4"/>
<circle cx="535.0" cy="172.7" r="3" fill="#1f77b4"/>
<circle cx="536.7" cy="142.1" r="3" fill="#1f77b4"/>
<circle cx="538.5" cy="228.7" r="3" fill="#1f77b4"/>
<circle cx="540.3" cy="90.3" r="3" fill="#1f77b4"/>
<circle cx="542.0" cy="125.4" r="3" fill="#1f77b4"/>
<circle cx="543.8" cy="178.2" r="3" fill="#1f77b4"/>
<circle cx="545.6" cy="118.1" r="3" fill="#1f77b4"/>
<circle cx="547.3" cy="143.8" r="3" fill="#1f77b4"/>
<circle cx="549.1" cy="110.0" r="3" fill="#1f77b4"/>
<circle cx="550.9" cy="106.4" r="3" fill="#1f77b4"/>
<circle cx="552.6" cy="153.4" r="3" fill="#1f77b4"/>
<circle cx="554.4" cy="129.5" r="3" fill="#1f77b4"/>
<circle cx="556.2" cy="121.3" r="3" fill="#1f77b4"/>
<circle cx="557.9" cy="152.3" r="3" fill="#1f77b4"/>
<circle cx="559.7" cy="110.4" r="3" fill="#1f77b4"/>
<circle cx="561.5" cy="113.0" r="3" fill="#1f77b4"/>
<circle cx="563.2" cy="119.0" r="3" fill="#1f77b4"/>
<circle cx="565.0" cy="139.6" r="3" fill="#1f77b4"/>
<circle cx="566.8" cy="175.7" r="3" fill="#1f77b4"/>
<circle cx="568.5" cy="121.6" r="3" fill="#1f77b4"/>
<circle cx="570.3" cy="103.4" r="3" fill="#1f77b4"/>
<circle cx="572.1" cy="92.6" r="3" fill="#1f77b4"/>
<circle cx="573.8" cy="150.4" r="3" fill="#1f77b4"/>
<circle cx="575.6" cy="162.2" r="3" fill="#1f77b4"/>
<circle cx="577.4" cy="123.3" r="3" fill="#1f77b4"/>
<circle cx="579.1" cy="214.4" r="3" fill="#1f77b4"/>
<circle cx="580.9" cy="128.2" r="3" fill="#1f77b4"/>
<circle cx="582.7" cy="222.8" r="3" fill="#1f77b4"/>
<circle cx="584.4" cy="139.0" r="3" fill="#1f77b4"/>
<circle cx="586.2" cy="94.2" r="3" fill="#1f77b4"/>
<circle cx="588.0" cy="90.2" r="3" fill="#1f77b4"/>
<circle cx="589.7" cy="128.0" r="3" fill="#1f77b4"/>
<circle cx="591.5" cy="167.8" r="3" fill="#1f77b4"/>
<circle cx="593.3" cy="97.1" r="3" fill="#1f77b4"/>
<circle cx="595.0" cy="137.1" r="3" fill="#1f77b4"/>
<circle cx="596.8" cy="144.7" r="3" fill="#1f77b4"/>
<circle cx="598.6" cy="225.3" r="3" fill="#1f77b4"/>
<circle cx="600.3" cy="171.9" r="3" fill="#1f77b4"/>
<circle cx="602.1" cy="221.4" r="3" fill="#1f77b4"/>
<circle cx="603.9" cy="126.0" r="3" fill="#1f77b4"/>
<circle cx="605.6" cy="125.2" r="3" fill="#1f77b4"/>
<circle cx="607.4" cy="166.5" r="3" fill="#1f77b4"/>
<circle cx="609.2" cy="109.4" r="3" fill="#1f77b4"/>
<circle cx="610.9" cy="136.3" r="3" fill="#1f77b4"/>
<circle cx="612.7" cy="143.7" r="3" fill="#1f77b4"/>
<circle cx="614.5" cy="167.2" r="3" fill="#1f77b4"/>
<circle cx="616.2" cy="189.0" r="3" fill="#1f77b4"/>
<circle cx="618.0" cy="242.9" r="3" fill="#1f77b4"/>
<circle cx="619.8" cy="227.0" r="3" fill="#1f77b4"/>
<circle cx="621.5" cy="193.1" r="3" fill="#1f77b4"/>
<circle cx="623.3" cy="228.8" r="3" fill="#1f77b4"/>
<circle cx="625.1" cy="175.6" r="3" fill="#1f77b4"/>
<circle cx="626.8" cy="198.7" r="3" fill="#1f77b4"/>
<circle cx="628.6" cy="188.8" r="3" fill="#1f77b4"/>
<circle cx="630.4" cy="159.2" r="3" fill="#1f77b4"/>
<circle cx="632.1" cy="176.1" r="3" fill="#1f77b4"/>
<circle cx="633.9" cy="195.6" r="3" fill="#1f77b4"/>
<circle cx="635.7" cy="146.1" r="3" fill="#1f77b4"/>
<circle cx="637.4" cy="123.5" r="3" fill="#1f77b4"/>
<circle cx="639.2" cy="222.6" r="3" fill="#1f77b4"/>
<circle cx="641.0" cy="106.2" r="3" fill="#1f77b4"/>
<circle cx="642.7" cy="202.4" r="3" fill="#1f77b4"/>
<circle cx="644.5" cy="168.2" r="3" fill="#1f77b4"/>
<circle cx="646.3" cy="168.6" r="3" fill="#1f77b4"/>
<circle cx="648.0" cy="129.5" r="3" fill="#1f77b4"/>
<circle cx="649.8" cy="174.7" r="3" fill="#1f77b4"/>
<circle cx="651.6" cy="198.5" r="3" fill="#1f77b4"/>
<circle cx="653.3" cy="192.8" r="3" fill="#1f77b4"/>
<circle cx="655.1" cy="174.8" r="3" fill="#1f77b4"/>
<circle cx="656.9" cy="126.7" r="3" fill="#1f77b4"/>
<circle cx="658.6" cy="200.8" r="3" fill="#1f77b4"/>
<circle cx="660.4" cy="164.6" r="3" fill="#1f77b4"/>
<circle cx="662.2" cy="186.4" r="3" fill="#1f77b4"/>
<circle cx="663.9" cy="95.0" r="3" fill="#1f77b4"/>
<circle cx="665.7" cy="198.5" r="3" fill="#1f77b4"/>
<circle cx="667.5" cy="136.6" r="3" fill="#1f77b4"/>
<circle cx="669.2" cy="221.9" r="3" fill="#1f77b4"/>
<circle cx="671.0" cy="74.2" r="3" fill="#1f77b4"/>
<circle cx="672.8" cy="137.2" r="3" fill="#1f77b4"/>
<circle cx="674.5" cy="218.2" r="3" fill="#1f77b4"/>
<circle cx="676.3" cy="226.3" r="3" fill="#1f77b4"/>
<circle cx="678.1" cy="90.7" r="3" fill="#1f77b4"/>
<circle cx="679.8" cy="230.9" r="3" fill="#1f77b4"/>
<circle cx="681.6" cy="135.8" r="3" fill="#1f77b4"/>
<circle cx="683.4" cy="225.6" r="3" fill="#1f77b4"/>
<circle cx="685.2" cy="121.1" r="3" fill="#1f77b4"/>
<circle cx="686.9" cy="203.6" r="3" fill="#1f77b4"/>
<circle cx="688.7" cy="139.5" r="3" fill="#1f77b4"/>
<circle cx="690.5" cy="159.1" r="3" fill="#1f77b4"/>
<circle cx="692.2" cy="210.5" r="3" fill="#1f77b4"/>
<circle cx="694.0" cy="177.9" r="3" fill="#1f77b4"/>
<circle cx="695.8" cy="161.5" r="3" fill="#1f77b4"/>
<circle cx="697.5" cy="162.5" r="3" fill="#1f77b4"/>
<circle cx="699.3" cy="172.6" r="3" fill="#1f77b4"/>
<circle cx="701.1" cy="148.4" r="3" fill="#1f77b4"/>
<circle cx="702.8" cy="81.5" r="3" fill="#1f77b4"/>
<circle cx="704.6" cy="184.1" r="3" fill="#1f77b4"/>
<circle cx="706.4" cy="129.1" r="3" fill="#1f77b4"/>
<circle cx="708.1" cy="170.1" r="3" fill="#1f77b4"/>
<circle cx="709.9" cy="172.1" r="3" fill="#1f77b4"/>
<circle cx="711.7" cy="163.8" r="3" fill="#1f77b4"/>
<circle cx="713.4" cy="211.4" r="3" fill="#1f77b4"/>
<circle cx="715.2" cy="101.5" r="3" fill="#1f77b4"/>
<circle cx="717.0" cy="135.7" r="3" fill="#1f77b4"/>
<circle cx="718.7" cy="139.9" r="3" fill="#1f77b4"/>
<circle cx="720.5" cy="81.4" r="3" fill="#1f77b4"/>
<circle cx="722.3" cy="161.7" r="3" fill="#1f77b4"/>
<circle cx="724.0" cy="154.3" r="3" fill="#1f77b4"/>
<circle cx="725.8" cy="255.4" r="3" fill="#1f77b4"/>
<circle cx="727.6" cy="145.6" r="3" fill="#1f77b4"/>
<circle cx="729.3" cy="157.5" r="3" fill="#1f77b4"/>
<circle cx="731.1" cy="171.6" r="3" fill="#1f77b4"/>
<circle cx="732.9" cy="166.1" r="3" fill="#1f77b4"/>
<circle cx="734.6" cy="122.6" r="3" fill="#1f77b4"/>
<circle cx="736.4" cy="112.2" r="3" fill="#1f77b4"/>
<circle cx="738.2" cy="165.9" r="3" fill="#1f77b4"/>
<circle cx="739.9" cy="137.4" r="3" fill="#1f77b4"/>
<circle cx="741.7" cy="135.3" r="3" fill="#1f77b4"/>
<circle cx="743.5" cy="139.6" r="3" fill="#1f77b4"/>
<circle cx="745.2" cy="174.1" r="3" fill="#1f77b4"/>
<circle cx="747.0" cy="185.8" r="3" fill="#1f77b4"/>
<circle cx="748.8" cy="201.9" r="3" fill="#1f77b4"/>
<circle cx="750.5" cy="170.0" r="3" fill="#1f77b4"/>
<circle cx="752.3" cy="136.4" r="3" fill="#1f77b4"/>
<circle cx="754.1" cy="217.2" r="3" fill="#1f77b4"/>
<circle cx="755.8" cy="128.9" r="3" fill="#1f77b4"/>
<circle cx="757.6" cy="170.6" r="3" fill="#1f77b4"/>
<circle cx="759.4" cy="208.4" r="3" fill="#1f77b4"/>
<circle cx="761.1" cy="228.8" r="3" fill="#1f77b4"/>
<circle cx="762.9" cy="183.1" r="3" fill="#1f77b4"/>
<circle cx="764.7" cy="208.9" r="3" fill="#1f77b4"/>
<circle cx="766.4" cy="202.4" r="3" fill="#1f77b4"/>
<circle cx="768.2" cy="198.7" r="3" fill="#1f77b4"/>
<circle cx="770.0" cy="131.5" r="3" fill="#1f77b4"/>
<circle cx="771.7" cy="217.0" r="3" fill="#1f77b4"/>
<circle cx="773.5" cy="225.4" r="3" fill="#1f77b4"/>
<circle cx="775.3" cy="191.4" r="3" fill="#1f77b4"/>
<circle cx="777.0" cy="225.1" r="3" fill="#1f77b4"/>
<circle cx="778.8" cy="185.7" r="3" fill="#1f77b4"/>
<circle cx="780.6" cy="134.2" r="3" fill="#1f77b4"/>
<circle cx="782.3" cy="170.5" r="3" fill="#1f77b4"/>
<circle cx="784.1" cy="156.5" r="3" fill="#1f77b4"/>
<circle cx="785.9" cy="102.1" r="3" fill="#1f77b4"/>
<circle cx="787.6" cy="206.5" r="3" fill="#1f77b4"/>
<circle cx="789.4" cy="172.3" r="3" fill="#1f77b4"/>
<circle cx="791.2" cy="180.5" r="3" fill="#1f77b4"/>
<circle cx="792.9" cy="74.0" r="3" fill="#1f77b4"/>
<circle cx="794.7" cy="159.0" r="3" fill="#1f77b4"/>
<circle cx="796.5" cy="124.0" r="3" fill="#1f77b4"/>
<circle cx="798.2" cy="167.1" r="3" fill="#1f77b4"/>
<circle cx="800.0" cy="196.6" r="3" fill="#1f77b4"/>
<line x1="828" y1="96" x2="850" y2="96" stroke="#1f77b4" stroke-width="2.5"/>
<text x="858" y="100" font-family="Arial" font-size="13">final_on_policy_lr4e-5_400_full_eval</text>
<text x="447.5" y="638" text-anchor="middle" font-family="Arial" font-size="15">GRPO step</text>
<text x="24" y="326.0" text-anchor="middle" font-family="Arial" font-size="15" transform="rotate(-90 24 326.0)">Average response tokens</text>
</svg>
