<svg xmlns="http://www.w3.org/2000/svg" width="1100" height="660" viewBox="0 0 1100 660">
<rect width="100%" height="100%" fill="white"/>
<text x="550.0" y="36" text-anchor="middle" font-family="Arial" font-size="22" font-weight="700">Leaderboard validation format accuracy</text>
<line x1="95" y1="578" x2="800" y2="578" stroke="#222" stroke-width="1.5"/>
<line x1="95" y1="74" x2="95" y2="578" stroke="#222" stroke-width="1.5"/>
<line x1="90" y1="578.0" x2="800" y2="578.0" stroke="#ddd" stroke-width="1"/>
<text x="83" y="582.0" text-anchor="end" font-family="Arial" font-size="12">0.00%</text>
<line x1="90" y1="477.2" x2="800" y2="477.2" stroke="#ddd" stroke-width="1"/>
<text x="83" y="481.2" text-anchor="end" font-family="Arial" font-size="12">20.00%</text>
<line x1="90" y1="376.4" x2="800" y2="376.4" stroke="#ddd" stroke-width="1"/>
<text x="83" y="380.4" text-anchor="end" font-family="Arial" font-size="12">40.00%</text>
<line x1="90" y1="275.6" x2="800" y2="275.6" stroke="#ddd" stroke-width="1"/>
<text x="83" y="279.6" text-anchor="end" font-family="Arial" font-size="12">60.00%</text>
<line x1="90" y1="174.8" x2="800" y2="174.8" stroke="#ddd" stroke-width="1"/>
<text x="83" y="178.8" text-anchor="end" font-family="Arial" font-size="12">80.00%</text>
<line x1="90" y1="74.0" x2="800" y2="74.0" stroke="#ddd" stroke-width="1"/>
<text x="83" y="78.0" text-anchor="end" font-family="Arial" font-size="12">100.00%</text>
<line x1="95.0" y1="578" x2="95.0" y2="583" stroke="#222" stroke-width="1"/>
<text x="95.0" y="602" text-anchor="middle" font-family="Arial" font-size="12">0</text>
<line x1="236.0" y1="578" x2="236.0" y2="583" stroke="#222" stroke-width="1"/>
<text x="236.0" y="602" text-anchor="middle" font-family="Arial" font-size="12">80</text>
<line x1="377.0" y1="578" x2="377.0" y2="583" stroke="#222" stroke-width="1"/>
<text x="377.0" y="602" text-anchor="middle" font-family="Arial" font-size="12">160</text>
<line x1="518.0" y1="578" x2="518.0" y2="583" stroke="#222" stroke-width="1"/>
<text x="518.0" y="602" text-anchor="middle" font-family="Arial" font-size="12">240</text>
<line x1="659.0" y1="578" x2="659.0" y2="583" stroke="#222" stroke-width="1"/>
<text x="659.0" y="602" text-anchor="middle" font-family="Arial" font-size="12">320</text>
<line x1="800.0" y1="578" x2="800.0" y2="583" stroke="#222" stroke-width="1"/>
<text x="800.0" y="602" text-anchor="middle" font-family="Arial" font-size="12">400</text>
<polyline fill="none" stroke="#1f77b4" stroke-width="2.3" points="95.0,491.5 130.2,91.8 165.5,94.3 200.8,140.6 236.0,103.5 271.2,99.2 306.5,100.6 341.8,95.7 377.0,104.6 412.2,97.3 447.5,105.0 482.8,105.7 518.0,104.1 553.2,114.5 588.5,96.1 623.8,92.3 659.0,100.0 694.2,101.4 729.5,95.3 764.8,95.0 800.0,101.3"/>
<circle cx="95.0" cy="491.5" r="3" fill="#1f77b4"/>
<circle cx="130.2" cy="91.8" r="3" fill="#1f77b4"/>
<circle cx="165.5" cy="94.3" r="3" fill="#1f77b4"/>
<circle cx="200.8" cy="140.6" r="3" fill="#1f77b4"/>
<circle cx="236.0" cy="103.5" r="3" fill="#1f77b4"/>
<circle cx="271.2" cy="99.2" r="3" fill="#1f77b4"/>
<circle cx="306.5" cy="100.6" r="3" fill="#1f77b4"/>
<circle cx="341.8" cy="95.7" r="3" fill="#1f77b4"/>
<circle cx="377.0" cy="104.6" r="3" fill="#1f77b4"/>
<circle cx="412.2" cy="97.3" r="3" fill="#1f77b4"/>
<circle cx="447.5" cy="105.0" r="3" fill="#1f77b4"/>
<circle cx="482.8" cy="105.7" r="3" fill="#1f77b4"/>
<circle cx="518.0" cy="104.1" r="3" fill="#1f77b4"/>
<circle cx="553.2" cy="114.5" r="3" fill="#1f77b4"/>
<circle cx="588.5" cy="96.1" r="3" fill="#1f77b4"/>
<circle cx="623.8" cy="92.3" r="3" fill="#1f77b4"/>
<circle cx="659.0" cy="100.0" r="3" fill="#1f77b4"/>
<circle cx="694.2" cy="101.4" r="3" fill="#1f77b4"/>
<circle cx="729.5" cy="95.3" r="3" fill="#1f77b4"/>
<circle cx="764.8" cy="95.0" r="3" fill="#1f77b4"/>
<circle cx="800.0" cy="101.3" r="3" fill="#1f77b4"/>
<line x1="828" y1="96" x2="850" y2="96" stroke="#1f77b4" stroke-width="2.5"/>
<text x="858" y="100" font-family="Arial" font-size="13">final_on_policy_lr4e-5_400_full_eval</text>
<text x="447.5" y="638" text-anchor="middle" font-family="Arial" font-size="15">GRPO step</text>
<text x="24" y="326.0" text-anchor="middle" font-family="Arial" font-size="15" transform="rotate(-90 24 326.0)">Format accuracy</text>
</svg>
