<svg xmlns="http://www.w3.org/2000/svg" width="1100" height="660" viewBox="0 0 1100 660">
<rect width="100%" height="100%" fill="white"/>
<text x="550.0" y="36" text-anchor="middle" font-family="Arial" font-size="22" font-weight="700">Leaderboard validation answer reward vs elapsed step time</text>
<line x1="95" y1="578" x2="800" y2="578" stroke="#222" stroke-width="1.5"/>
<line x1="95" y1="74" x2="95" y2="578" stroke="#222" stroke-width="1.5"/>
<line x1="90" y1="578.0" x2="800" y2="578.0" stroke="#ddd" stroke-width="1"/>
<text x="83" y="582.0" text-anchor="end" font-family="Arial" font-size="12">0.00%</text>
<line x1="90" y1="477.2" x2="800" y2="477.2" stroke="#ddd" stroke-width="1"/>
<text x="83" y="481.2" text-anchor="end" font-family="Arial" font-size="12">16.00%</text>
<line x1="90" y1="376.4" x2="800" y2="376.4" stroke="#ddd" stroke-width="1"/>
<text x="83" y="380.4" text-anchor="end" font-family="Arial" font-size="12">32.00%</text>
<line x1="90" y1="275.6" x2="800" y2="275.6" stroke="#ddd" stroke-width="1"/>
<text x="83" y="279.6" text-anchor="end" font-family="Arial" font-size="12">48.00%</text>
<line x1="90" y1="174.8" x2="800" y2="174.8" stroke="#ddd" stroke-width="1"/>
<text x="83" y="178.8" text-anchor="end" font-family="Arial" font-size="12">64.00%</text>
<line x1="90" y1="74.0" x2="800" y2="74.0" stroke="#ddd" stroke-width="1"/>
<text x="83" y="78.0" text-anchor="end" font-family="Arial" font-size="12">80.00%</text>
<line x1="95.0" y1="578" x2="95.0" y2="583" stroke="#222" stroke-width="1"/>
<text x="95.0" y="602" text-anchor="middle" font-family="Arial" font-size="12">0.0</text>
<line x1="236.0" y1="578" x2="236.0" y2="583" stroke="#222" stroke-width="1"/>
<text x="236.0" y="602" text-anchor="middle" font-family="Arial" font-size="12">0.8</text>
<line x1="377.0" y1="578" x2="377.0" y2="583" stroke="#222" stroke-width="1"/>
<text x="377.0" y="602" text-anchor="middle" font-family="Arial" font-size="12">1.5</text>
<line x1="518.0" y1="578" x2="518.0" y2="583" stroke="#222" stroke-width="1"/>
<text x="518.0" y="602" text-anchor="middle" font-family="Arial" font-size="12">2.3</text>
<line x1="659.0" y1="578" x2="659.0" y2="583" stroke="#222" stroke-width="1"/>
<text x="659.0" y="602" text-anchor="middle" font-family="Arial" font-size="12">3.1</text>
<line x1="800.0" y1="578" x2="800.0" y2="583" stroke="#222" stroke-width="1"/>
<text x="800.0" y="602" text-anchor="middle" font-family="Arial" font-size="12">3.9</text>
<polyline fill="none" stroke="#1f77b4" stroke-width="2.3" points="95.0,559.5 127.0,198.5 162.7,157.7 202.0,149.7 241.3,134.7 279.7,132.5 316.6,134.1 351.9,133.3 392.4,121.5 434.8,116.4 475.5,119.5 516.4,122.1 556.5,113.0 599.6,116.2 640.7,140.2 679.2,124.5 717.1,121.9 758.1,118.5 800.0,114.6"/>
<circle cx="95.0" cy="559.5" r="3" fill="#1f77b4"/>
<circle cx="127.0" cy="198.5" r="3" fill="#1f77b4"/>
<circle cx="162.7" cy="157.7" r="3" fill="#1f77b4"/>
<circle cx="202.0" cy="149.7" r="3" fill="#1f77b4"/>
<circle cx="241.3" cy="134.7" r="3" fill="#1f77b4"/>
<circle cx="279.7" cy="132.5" r="3" fill="#1f77b4"/>
<circle cx="316.6" cy="134.1" r="3" fill="#1f77b4"/>
<circle cx="351.9" cy="133.3" r="3" fill="#1f77b4"/>
<circle cx="392.4" cy="121.5" r="3" fill="#1f77b4"/>
<circle cx="434.8" cy="116.4" r="3" fill="#1f77b4"/>
<circle cx="475.5" cy="119.5" r="3" fill="#1f77b4"/>
<circle cx="516.4" cy="122.1" r="3" fill="#1f77b4"/>
<circle cx="556.5" cy="113.0" r="3" fill="#1f77b4"/>
<circle cx="599.6" cy="116.2" r="3" fill="#1f77b4"/>
<circle cx="640.7" cy="140.2" r="3" fill="#1f77b4"/>
<circle cx="679.2" cy="124.5" r="3" fill="#1f77b4"/>
<circle cx="717.1" cy="121.9" r="3" fill="#1f77b4"/>
<circle cx="758.1" cy="118.5" r="3" fill="#1f77b4"/>
<circle cx="800.0" cy="114.6" r="3" fill="#1f77b4"/>
<line x1="828" y1="96" x2="850" y2="96" stroke="#1f77b4" stroke-width="2.5"/>
<text x="858" y="100" font-family="Arial" font-size="13">final_on_policy_lr4e-5_400_full_eval</text>
<text x="447.5" y="638" text-anchor="middle" font-family="Arial" font-size="15">Elapsed step hours</text>
<text x="24" y="326.0" text-anchor="middle" font-family="Arial" font-size="15" transform="rotate(-90 24 326.0)">Answer reward</text>
</svg>
