<svg xmlns="http://www.w3.org/2000/svg" width="1040" height="640" viewBox="0 0 1040 640">
<rect width="100%" height="100%" fill="white"/>
<text x="520.0" y="36" text-anchor="middle" font-family="Arial" font-size="22" font-weight="700">GRPO prompt ablation: validation format accuracy</text>
<line x1="95" y1="558" x2="780" y2="558" stroke="#222" stroke-width="1.5"/>
<line x1="95" y1="74" x2="95" y2="558" stroke="#222" stroke-width="1.5"/>
<line x1="90" y1="558.0" x2="780" y2="558.0" stroke="#ddd" stroke-width="1"/>
<text x="83" y="562.0" text-anchor="end" font-family="Arial" font-size="12">0.00</text>
<line x1="90" y1="461.2" x2="780" y2="461.2" stroke="#ddd" stroke-width="1"/>
<text x="83" y="465.2" text-anchor="end" font-family="Arial" font-size="12">0.20</text>
<line x1="90" y1="364.4" x2="780" y2="364.4" stroke="#ddd" stroke-width="1"/>
<text x="83" y="368.4" text-anchor="end" font-family="Arial" font-size="12">0.40</text>
<line x1="90" y1="267.6" x2="780" y2="267.6" stroke="#ddd" stroke-width="1"/>
<text x="83" y="271.6" text-anchor="end" font-family="Arial" font-size="12">0.60</text>
<line x1="90" y1="170.8" x2="780" y2="170.8" stroke="#ddd" stroke-width="1"/>
<text x="83" y="174.8" text-anchor="end" font-family="Arial" font-size="12">0.80</text>
<line x1="90" y1="74.0" x2="780" y2="74.0" stroke="#ddd" stroke-width="1"/>
<text x="83" y="78.0" text-anchor="end" font-family="Arial" font-size="12">1.00</text>
<line x1="95.0" y1="558" x2="95.0" y2="563" stroke="#222" stroke-width="1"/>
<text x="95.0" y="582" text-anchor="middle" font-family="Arial" font-size="12">0</text>
<line x1="232.0" y1="558" x2="232.0" y2="563" stroke="#222" stroke-width="1"/>
<text x="232.0" y="582" text-anchor="middle" font-family="Arial" font-size="12">40</text>
<line x1="369.0" y1="558" x2="369.0" y2="563" stroke="#222" stroke-width="1"/>
<text x="369.0" y="582" text-anchor="middle" font-family="Arial" font-size="12">80</text>
<line x1="506.0" y1="558" x2="506.0" y2="563" stroke="#222" stroke-width="1"/>
<text x="506.0" y="582" text-anchor="middle" font-family="Arial" font-size="12">120</text>
<line x1="643.0" y1="558" x2="643.0" y2="563" stroke="#222" stroke-width="1"/>
<text x="643.0" y="582" text-anchor="middle" font-family="Arial" font-size="12">160</text>
<line x1="780.0" y1="558" x2="780.0" y2="563" stroke="#222" stroke-width="1"/>
<text x="780.0" y="582" text-anchor="middle" font-family="Arial" font-size="12">200</text>
<polyline fill="none" stroke="#1f77b4" stroke-width="2.3" points="95.0,470.6 112.1,221.9 129.2,200.2 146.4,179.9 163.5,147.3 180.6,126.9 197.8,115.1 214.9,114.6 232.0,101.9 249.1,91.0 266.2,92.0 283.4,88.2 300.5,84.9 317.6,87.7 334.8,87.7 351.9,83.0 369.0,85.8 386.1,83.5 403.2,82.0 420.4,83.0 437.5,80.6 454.6,84.4 471.8,85.8 488.9,84.9 506.0,80.6 523.1,87.2 540.2,83.9 557.4,79.2 574.5,82.5 591.6,82.5 608.8,84.9 625.9,85.3 643.0,88.2 660.1,82.0 677.2,80.1 694.4,83.9 711.5,83.5 728.6,84.9 745.8,83.5 762.9,84.4 780.0,88.7"/>
<circle cx="95.0" cy="470.6" r="3" fill="#1f77b4"/>
<circle cx="112.1" cy="221.9" r="3" fill="#1f77b4"/>
<circle cx="129.2" cy="200.2" r="3" fill="#1f77b4"/>
<circle cx="146.4" cy="179.9" r="3" fill="#1f77b4"/>
<circle cx="163.5" cy="147.3" r="3" fill="#1f77b4"/>
<circle cx="180.6" cy="126.9" r="3" fill="#1f77b4"/>
<circle cx="197.8" cy="115.1" r="3" fill="#1f77b4"/>
<circle cx="214.9" cy="114.6" r="3" fill="#1f77b4"/>
<circle cx="232.0" cy="101.9" r="3" fill="#1f77b4"/>
<circle cx="249.1" cy="91.0" r="3" fill="#1f77b4"/>
<circle cx="266.2" cy="92.0" r="3" fill="#1f77b4"/>
<circle cx="283.4" cy="88.2" r="3" fill="#1f77b4"/>
<circle cx="300.5" cy="84.9" r="3" fill="#1f77b4"/>
<circle cx="317.6" cy="87.7" r="3" fill="#1f77b4"/>
<circle cx="334.8" cy="87.7" r="3" fill="#1f77b4"/>
<circle cx="351.9" cy="83.0" r="3" fill="#1f77b4"/>
<circle cx="369.0" cy="85.8" r="3" fill="#1f77b4"/>
<circle cx="386.1" cy="83.5" r="3" fill="#1f77b4"/>
<circle cx="403.2" cy="82.0" r="3" fill="#1f77b4"/>
<circle cx="420.4" cy="83.0" r="3" fill="#1f77b4"/>
<circle cx="437.5" cy="80.6" r="3" fill="#1f77b4"/>
<circle cx="454.6" cy="84.4" r="3" fill="#1f77b4"/>
<circle cx="471.8" cy="85.8" r="3" fill="#1f77b4"/>
<circle cx="488.9" cy="84.9" r="3" fill="#1f77b4"/>
<circle cx="506.0" cy="80.6" r="3" fill="#1f77b4"/>
<circle cx="523.1" cy="87.2" r="3" fill="#1f77b4"/>
<circle cx="540.2" cy="83.9" r="3" fill="#1f77b4"/>
<circle cx="557.4" cy="79.2" r="3" fill="#1f77b4"/>
<circle cx="574.5" cy="82.5" r="3" fill="#1f77b4"/>
<circle cx="591.6" cy="82.5" r="3" fill="#1f77b4"/>
<circle cx="608.8" cy="84.9" r="3" fill="#1f77b4"/>
<circle cx="625.9" cy="85.3" r="3" fill="#1f77b4"/>
<circle cx="643.0" cy="88.2" r="3" fill="#1f77b4"/>
<circle cx="660.1" cy="82.0" r="3" fill="#1f77b4"/>
<circle cx="677.2" cy="80.1" r="3" fill="#1f77b4"/>
<circle cx="694.4" cy="83.9" r="3" fill="#1f77b4"/>
<circle cx="711.5" cy="83.5" r="3" fill="#1f77b4"/>
<circle cx="728.6" cy="84.9" r="3" fill="#1f77b4"/>
<circle cx="745.8" cy="83.5" r="3" fill="#1f77b4"/>
<circle cx="762.9" cy="84.4" r="3" fill="#1f77b4"/>
<circle cx="780.0" cy="88.7" r="3" fill="#1f77b4"/>
<line x1="808" y1="96" x2="830" y2="96" stroke="#1f77b4" stroke-width="2.5"/>
<text x="838" y="100" font-family="Arial" font-size="13">r1_zero_reference</text>
<polyline fill="none" stroke="#d62728" stroke-width="2.3" points="95.0,174.2 112.1,130.2 129.2,108.0 146.4,106.1 163.5,107.6 180.6,104.2 197.8,107.6 214.9,109.4 232.0,97.6 249.1,101.9 266.2,100.0 283.4,95.7 300.5,97.2 317.6,99.5 334.8,91.0 351.9,98.6 369.0,97.6 386.1,94.3 403.2,94.3 420.4,93.9 437.5,96.2 454.6,88.7 471.8,92.9 488.9,92.4 506.0,91.5 523.1,91.0 540.2,92.9 557.4,87.2 574.5,87.2 591.6,91.0 608.8,95.3 625.9,90.5 643.0,93.9 660.1,90.1 677.2,89.6 694.4,90.5 711.5,87.7 728.6,86.8 745.8,90.5 762.9,88.2 780.0,90.5"/>
<circle cx="95.0" cy="174.2" r="3" fill="#d62728"/>
<circle cx="112.1" cy="130.2" r="3" fill="#d62728"/>
<circle cx="129.2" cy="108.0" r="3" fill="#d62728"/>
<circle cx="146.4" cy="106.1" r="3" fill="#d62728"/>
<circle cx="163.5" cy="107.6" r="3" fill="#d62728"/>
<circle cx="180.6" cy="104.2" r="3" fill="#d62728"/>
<circle cx="197.8" cy="107.6" r="3" fill="#d62728"/>
<circle cx="214.9" cy="109.4" r="3" fill="#d62728"/>
<circle cx="232.0" cy="97.6" r="3" fill="#d62728"/>
<circle cx="249.1" cy="101.9" r="3" fill="#d62728"/>
<circle cx="266.2" cy="100.0" r="3" fill="#d62728"/>
<circle cx="283.4" cy="95.7" r="3" fill="#d62728"/>
<circle cx="300.5" cy="97.2" r="3" fill="#d62728"/>
<circle cx="317.6" cy="99.5" r="3" fill="#d62728"/>
<circle cx="334.8" cy="91.0" r="3" fill="#d62728"/>
<circle cx="351.9" cy="98.6" r="3" fill="#d62728"/>
<circle cx="369.0" cy="97.6" r="3" fill="#d62728"/>
<circle cx="386.1" cy="94.3" r="3" fill="#d62728"/>
<circle cx="403.2" cy="94.3" r="3" fill="#d62728"/>
<circle cx="420.4" cy="93.9" r="3" fill="#d62728"/>
<circle cx="437.5" cy="96.2" r="3" fill="#d62728"/>
<circle cx="454.6" cy="88.7" r="3" fill="#d62728"/>
<circle cx="471.8" cy="92.9" r="3" fill="#d62728"/>
<circle cx="488.9" cy="92.4" r="3" fill="#d62728"/>
<circle cx="506.0" cy="91.5" r="3" fill="#d62728"/>
<circle cx="523.1" cy="91.0" r="3" fill="#d62728"/>
<circle cx="540.2" cy="92.9" r="3" fill="#d62728"/>
<circle cx="557.4" cy="87.2" r="3" fill="#d62728"/>
<circle cx="574.5" cy="87.2" r="3" fill="#d62728"/>
<circle cx="591.6" cy="91.0" r="3" fill="#d62728"/>
<circle cx="608.8" cy="95.3" r="3" fill="#d62728"/>
<circle cx="625.9" cy="90.5" r="3" fill="#d62728"/>
<circle cx="643.0" cy="93.9" r="3" fill="#d62728"/>
<circle cx="660.1" cy="90.1" r="3" fill="#d62728"/>
<circle cx="677.2" cy="89.6" r="3" fill="#d62728"/>
<circle cx="694.4" cy="90.5" r="3" fill="#d62728"/>
<circle cx="711.5" cy="87.7" r="3" fill="#d62728"/>
<circle cx="728.6" cy="86.8" r="3" fill="#d62728"/>
<circle cx="745.8" cy="90.5" r="3" fill="#d62728"/>
<circle cx="762.9" cy="88.2" r="3" fill="#d62728"/>
<circle cx="780.0" cy="90.5" r="3" fill="#d62728"/>
<line x1="808" y1="121" x2="830" y2="121" stroke="#d62728" stroke-width="2.5"/>
<text x="838" y="125" font-family="Arial" font-size="13">question_only</text>
<text x="437.5" y="618" text-anchor="middle" font-family="Arial" font-size="15">GRPO step</text>
<text x="24" y="316.0" text-anchor="middle" font-family="Arial" font-size="15" transform="rotate(-90 24 316.0)">Validation format accuracy</text>
</svg>
