<svg xmlns="http://www.w3.org/2000/svg" width="1040" height="640" viewBox="0 0 1040 640">
<rect width="100%" height="100%" fill="white"/>
<text x="520.0" y="36" text-anchor="middle" font-family="Arial" font-size="22" font-weight="700">GRPO prompt ablation: gradient norm</text>
<line x1="95" y1="558" x2="780" y2="558" stroke="#222" stroke-width="1.5"/>
<line x1="95" y1="74" x2="95" y2="558" stroke="#222" stroke-width="1.5"/>
<line x1="90" y1="558.0" x2="780" y2="558.0" stroke="#ddd" stroke-width="1"/>
<text x="83" y="562.0" text-anchor="end" font-family="Arial" font-size="12">0.00</text>
<line x1="90" y1="461.2" x2="780" y2="461.2" stroke="#ddd" stroke-width="1"/>
<text x="83" y="465.2" text-anchor="end" font-family="Arial" font-size="12">6.70</text>
<line x1="90" y1="364.4" x2="780" y2="364.4" stroke="#ddd" stroke-width="1"/>
<text x="83" y="368.4" text-anchor="end" font-family="Arial" font-size="12">13.40</text>
<line x1="90" y1="267.6" x2="780" y2="267.6" stroke="#ddd" stroke-width="1"/>
<text x="83" y="271.6" text-anchor="end" font-family="Arial" font-size="12">20.10</text>
<line x1="90" y1="170.8" x2="780" y2="170.8" stroke="#ddd" stroke-width="1"/>
<text x="83" y="174.8" text-anchor="end" font-family="Arial" font-size="12">26.80</text>
<line x1="90" y1="74.0" x2="780" y2="74.0" stroke="#ddd" stroke-width="1"/>
<text x="83" y="78.0" text-anchor="end" font-family="Arial" font-size="12">33.50</text>
<line x1="95.0" y1="558" x2="95.0" y2="563" stroke="#222" stroke-width="1"/>
<text x="95.0" y="582" text-anchor="middle" font-family="Arial" font-size="12">1</text>
<line x1="232.0" y1="558" x2="232.0" y2="563" stroke="#222" stroke-width="1"/>
<text x="232.0" y="582" text-anchor="middle" font-family="Arial" font-size="12">41</text>
<line x1="369.0" y1="558" x2="369.0" y2="563" stroke="#222" stroke-width="1"/>
<text x="369.0" y="582" text-anchor="middle" font-family="Arial" font-size="12">81</text>
<line x1="506.0" y1="558" x2="506.0" y2="563" stroke="#222" stroke-width="1"/>
<text x="506.0" y="582" text-anchor="middle" font-family="Arial" font-size="12">120</text>
<line x1="643.0" y1="558" x2="643.0" y2="563" stroke="#222" stroke-width="1"/>
<text x="643.0" y="582" text-anchor="middle" font-family="Arial" font-size="12">160</text>
<line x1="780.0" y1="558" x2="780.0" y2="563" stroke="#222" stroke-width="1"/>
<text x="780.0" y="582" text-anchor="middle" font-family="Arial" font-size="12">200</text>
<polyline fill="none" stroke="#1f77b4" stroke-width="2.3" points="95.0,556.6 98.4,536.2 101.9,551.1 105.3,550.9 108.8,552.8 112.2,554.6 115.7,554.2 119.1,555.4 122.5,554.4 126.0,555.0 129.4,555.2 132.9,552.9 136.3,555.1 139.7,555.5 143.2,556.3 146.6,556.4 150.1,556.2 153.5,555.6 157.0,556.3 160.4,556.4 163.8,556.1 167.3,556.4 170.7,556.5 174.2,556.0 177.6,556.4 181.1,556.5 184.5,556.1 187.9,556.2 191.4,556.3 194.8,556.7 198.3,556.5 201.7,556.4 205.2,556.6 208.6,556.3 212.0,556.1 215.5,556.3 218.9,556.1 222.4,556.5 225.8,556.0 229.2,556.8 232.7,556.6 236.1,556.5 239.6,556.8 243.0,556.8 246.5,556.5 249.9,556.9 253.3,556.5 256.8,556.9 260.2,556.2 263.7,556.6 267.1,555.9 270.6,556.1 274.0,554.9 277.4,551.6 280.9,552.7 284.3,552.6 287.8,549.5 291.2,548.5 294.6,545.0 298.1,540.7 301.5,536.0 305.0,524.8 308.4,529.1 311.9,442.4 315.3,537.0 318.7,541.9 322.2,525.9 325.6,547.7 329.1,548.1 332.5,514.9 336.0,535.0 339.4,528.9 342.8,508.1 346.3,520.5 349.7,495.2 353.2,452.4 356.6,460.9 360.1,493.9 363.5,448.7 366.9,459.1 370.4,366.6 373.8,483.1 377.3,434.3 380.7,435.2 384.1,502.5 387.6,471.8 391.0,495.7 394.5,517.4 397.9,502.0 401.4,512.2 404.8,497.0 408.2,487.6 411.7,507.9 415.1,437.9 418.6,468.2 422.0,470.4 425.5,440.6 428.9,422.6 432.3,456.9 435.8,321.4 439.2,316.0 442.7,464.1 446.1,329.5 449.5,358.4 453.0,182.4 456.4,418.0 459.9,173.3 463.3,449.6 466.8,368.4 470.2,176.9 473.6,431.6 477.1,476.7 480.5,365.7 484.0,463.2 487.4,502.5 490.9,417.1 494.3,423.5 497.7,394.6 501.2,401.8 504.6,479.4 508.1,288.9 511.5,372.9 514.9,409.9 518.4,334.1 521.8,458.2 525.3,469.1 528.7,491.2 532.2,251.0 535.6,335.0 539.0,471.3 542.5,419.8 545.9,455.1 549.4,355.7 552.8,366.6 556.3,421.6 559.7,358.4 563.1,312.4 566.6,400.0 570.0,368.4 573.5,240.1 576.9,270.9 580.4,425.3 583.8,427.1 587.2,294.3 590.7,316.0 594.1,444.7 597.6,344.9 601.0,437.9 604.4,368.4 607.9,418.0 611.3,359.3 614.8,325.0 618.2,434.3 621.7,401.8 625.1,251.0 628.5,74.0 632.0,349.4 635.4,178.7 638.9,240.1 642.3,424.4 645.8,317.8 649.2,413.5 652.6,415.3 656.1,316.0 659.5,450.1 663.0,327.7 666.4,462.7 669.8,355.7 673.3,390.0 676.7,395.5 680.2,434.3 683.6,368.4 687.1,510.4 690.5,363.0 693.9,488.9 697.4,432.5 700.8,476.7 704.3,466.3 707.7,486.7 711.2,403.6 714.6,421.6 718.0,368.4 721.5,469.1 724.9,390.0 728.4,448.3 731.8,443.8 735.3,481.2 738.7,446.0 742.1,326.8 745.6,398.2 749.0,372.0 752.5,343.1 755.9,327.7 759.3,258.2 762.8,290.7 766.2,426.2 769.7,375.6 773.1,376.5 776.6,319.6 780.0,95.7"/>
<circle cx="95.0" cy="556.6" r="3" fill="#1f77b4"/>
<circle cx="98.4" cy="536.2" r="3" fill="#1f77b4"/>
<circle cx="101.9" cy="551.1" r="3" fill="#1f77b4"/>
<circle cx="105.3" cy="550.9" r="3" fill="#1f77b4"/>
<circle cx="108.8" cy="552.8" r="3" fill="#1f77b4"/>
<circle cx="112.2" cy="554.6" r="3" fill="#1f77b4"/>
<circle cx="115.7" cy="554.2" r="3" fill="#1f77b4"/>
<circle cx="119.1" cy="555.4" r="3" fill="#1f77b4"/>
<circle cx="122.5" cy="554.4" r="3" fill="#1f77b4"/>
<circle cx="126.0" cy="555.0" r="3" fill="#1f77b4"/>
<circle cx="129.4" cy="555.2" r="3" fill="#1f77b4"/>
<circle cx="132.9" cy="552.9" r="3" fill="#1f77b4"/>
<circle cx="136.3" cy="555.1" r="3" fill="#1f77b4"/>
<circle cx="139.7" cy="555.5" r="3" fill="#1f77b4"/>
<circle cx="143.2" cy="556.3" r="3" fill="#1f77b4"/>
<circle cx="146.6" cy="556.4" r="3" fill="#1f77b4"/>
<circle cx="150.1" cy="556.2" r="3" fill="#1f77b4"/>
<circle cx="153.5" cy="555.6" r="3" fill="#1f77b4"/>
<circle cx="157.0" cy="556.3" r="3" fill="#1f77b4"/>
<circle cx="160.4" cy="556.4" r="3" fill="#1f77b4"/>
<circle cx="163.8" cy="556.1" r="3" fill="#1f77b4"/>
<circle cx="167.3" cy="556.4" r="3" fill="#1f77b4"/>
<circle cx="170.7" cy="556.5" r="3" fill="#1f77b4"/>
<circle cx="174.2" cy="556.0" r="3" fill="#1f77b4"/>
<circle cx="177.6" cy="556.4" r="3" fill="#1f77b4"/>
<circle cx="181.1" cy="556.5" r="3" fill="#1f77b4"/>
<circle cx="184.5" cy="556.1" r="3" fill="#1f77b4"/>
<circle cx="187.9" cy="556.2" r="3" fill="#1f77b4"/>
<circle cx="191.4" cy="556.3" r="3" fill="#1f77b4"/>
<circle cx="194.8" cy="556.7" r="3" fill="#1f77b4"/>
<circle cx="198.3" cy="556.5" r="3" fill="#1f77b4"/>
<circle cx="201.7" cy="556.4" r="3" fill="#1f77b4"/>
<circle cx="205.2" cy="556.6" r="3" fill="#1f77b4"/>
<circle cx="208.6" cy="556.3" r="3" fill="#1f77b4"/>
<circle cx="212.0" cy="556.1" r="3" fill="#1f77b4"/>
<circle cx="215.5" cy="556.3" r="3" fill="#1f77b4"/>
<circle cx="218.9" cy="556.1" r="3" fill="#1f77b4"/>
<circle cx="222.4" cy="556.5" r="3" fill="#1f77b4"/>
<circle cx="225.8" cy="556.0" r="3" fill="#1f77b4"/>
<circle cx="229.2" cy="556.8" r="3" fill="#1f77b4"/>
<circle cx="232.7" cy="556.6" r="3" fill="#1f77b4"/>
<circle cx="236.1" cy="556.5" r="3" fill="#1f77b4"/>
<circle cx="239.6" cy="556.8" r="3" fill="#1f77b4"/>
<circle cx="243.0" cy="556.8" r="3" fill="#1f77b4"/>
<circle cx="246.5" cy="556.5" r="3" fill="#1f77b4"/>
<circle cx="249.9" cy="556.9" r="3" fill="#1f77b4"/>
<circle cx="253.3" cy="556.5" r="3" fill="#1f77b4"/>
<circle cx="256.8" cy="556.9" r="3" fill="#1f77b4"/>
<circle cx="260.2" cy="556.2" r="3" fill="#1f77b4"/>
<circle cx="263.7" cy="556.6" r="3" fill="#1f77b4"/>
<circle cx="267.1" cy="555.9" r="3" fill="#1f77b4"/>
<circle cx="270.6" cy="556.1" r="3" fill="#1f77b4"/>
<circle cx="274.0" cy="554.9" r="3" fill="#1f77b4"/>
<circle cx="277.4" cy="551.6" r="3" fill="#1f77b4"/>
<circle cx="280.9" cy="552.7" r="3" fill="#1f77b4"/>
<circle cx="284.3" cy="552.6" r="3" fill="#1f77b4"/>
<circle cx="287.8" cy="549.5" r="3" fill="#1f77b4"/>
<circle cx="291.2" cy="548.5" r="3" fill="#1f77b4"/>
<circle cx="294.6" cy="545.0" r="3" fill="#1f77b4"/>
<circle cx="298.1" cy="540.7" r="3" fill="#1f77b4"/>
<circle cx="301.5" cy="536.0" r="3" fill="#1f77b4"/>
<circle cx="305.0" cy="524.8" r="3" fill="#1f77b4"/>
<circle cx="308.4" cy="529.1" r="3" fill="#1f77b4"/>
<circle cx="311.9" cy="442.4" r="3" fill="#1f77b4"/>
<circle cx="315.3" cy="537.0" r="3" fill="#1f77b4"/>
<circle cx="318.7" cy="541.9" r="3" fill="#1f77b4"/>
<circle cx="322.2" cy="525.9" r="3" fill="#1f77b4"/>
<circle cx="325.6" cy="547.7" r="3" fill="#1f77b4"/>
<circle cx="329.1" cy="548.1" r="3" fill="#1f77b4"/>
<circle cx="332.5" cy="514.9" r="3" fill="#1f77b4"/>
<circle cx="336.0" cy="535.0" r="3" fill="#1f77b4"/>
<circle cx="339.4" cy="528.9" r="3" fill="#1f77b4"/>
<circle cx="342.8" cy="508.1" r="3" fill="#1f77b4"/>
<circle cx="346.3" cy="520.5" r="3" fill="#1f77b4"/>
<circle cx="349.7" cy="495.2" r="3" fill="#1f77b4"/>
<circle cx="353.2" cy="452.4" r="3" fill="#1f77b4"/>
<circle cx="356.6" cy="460.9" r="3" fill="#1f77b4"/>
<circle cx="360.1" cy="493.9" r="3" fill="#1f77b4"/>
<circle cx="363.5" cy="448.7" r="3" fill="#1f77b4"/>
<circle cx="366.9" cy="459.1" r="3" fill="#1f77b4"/>
<circle cx="370.4" cy="366.6" r="3" fill="#1f77b4"/>
<circle cx="373.8" cy="483.1" r="3" fill="#1f77b4"/>
<circle cx="377.3" cy="434.3" r="3" fill="#1f77b4"/>
<circle cx="380.7" cy="435.2" r="3" fill="#1f77b4"/>
<circle cx="384.1" cy="502.5" r="3" fill="#1f77b4"/>
<circle cx="387.6" cy="471.8" r="3" fill="#1f77b4"/>
<circle cx="391.0" cy="495.7" r="3" fill="#1f77b4"/>
<circle cx="394.5" cy="517.4" r="3" fill="#1f77b4"/>
<circle cx="397.9" cy="502.0" r="3" fill="#1f77b4"/>
<circle cx="401.4" cy="512.2" r="3" fill="#1f77b4"/>
<circle cx="404.8" cy="497.0" r="3" fill="#1f77b4"/>
<circle cx="408.2" cy="487.6" r="3" fill="#1f77b4"/>
<circle cx="411.7" cy="507.9" r="3" fill="#1f77b4"/>
<circle cx="415.1" cy="437.9" r="3" fill="#1f77b4"/>
<circle cx="418.6" cy="468.2" r="3" fill="#1f77b4"/>
<circle cx="422.0" cy="470.4" r="3" fill="#1f77b4"/>
<circle cx="425.5" cy="440.6" r="3" fill="#1f77b4"/>
<circle cx="428.9" cy="422.6" r="3" fill="#1f77b4"/>
<circle cx="432.3" cy="456.9" r="3" fill="#1f77b4"/>
<circle cx="435.8" cy="321.4" r="3" fill="#1f77b4"/>
<circle cx="439.2" cy="316.0" r="3" fill="#1f77b4"/>
<circle cx="442.7" cy="464.1" r="3" fill="#1f77b4"/>
<circle cx="446.1" cy="329.5" r="3" fill="#1f77b4"/>
<circle cx="449.5" cy="358.4" r="3" fill="#1f77b4"/>
<circle cx="453.0" cy="182.4" r="3" fill="#1f77b4"/>
<circle cx="456.4" cy="418.0" r="3" fill="#1f77b4"/>
<circle cx="459.9" cy="173.3" r="3" fill="#1f77b4"/>
<circle cx="463.3" cy="449.6" r="3" fill="#1f77b4"/>
<circle cx="466.8" cy="368.4" r="3" fill="#1f77b4"/>
<circle cx="470.2" cy="176.9" r="3" fill="#1f77b4"/>
<circle cx="473.6" cy="431.6" r="3" fill="#1f77b4"/>
<circle cx="477.1" cy="476.7" r="3" fill="#1f77b4"/>
<circle cx="480.5" cy="365.7" r="3" fill="#1f77b4"/>
<circle cx="484.0" cy="463.2" r="3" fill="#1f77b4"/>
<circle cx="487.4" cy="502.5" r="3" fill="#1f77b4"/>
<circle cx="490.9" cy="417.1" r="3" fill="#1f77b4"/>
<circle cx="494.3" cy="423.5" r="3" fill="#1f77b4"/>
<circle cx="497.7" cy="394.6" r="3" fill="#1f77b4"/>
<circle cx="501.2" cy="401.8" r="3" fill="#1f77b4"/>
<circle cx="504.6" cy="479.4" r="3" fill="#1f77b4"/>
<circle cx="508.1" cy="288.9" r="3" fill="#1f77b4"/>
<circle cx="511.5" cy="372.9" r="3" fill="#1f77b4"/>
<circle cx="514.9" cy="409.9" r="3" fill="#1f77b4"/>
<circle cx="518.4" cy="334.1" r="3" fill="#1f77b4"/>
<circle cx="521.8" cy="458.2" r="3" fill="#1f77b4"/>
<circle cx="525.3" cy="469.1" r="3" fill="#1f77b4"/>
<circle cx="528.7" cy="491.2" r="3" fill="#1f77b4"/>
<circle cx="532.2" cy="251.0" r="3" fill="#1f77b4"/>
<circle cx="535.6" cy="335.0" r="3" fill="#1f77b4"/>
<circle cx="539.0" cy="471.3" r="3" fill="#1f77b4"/>
<circle cx="542.5" cy="419.8" r="3" fill="#1f77b4"/>
<circle cx="545.9" cy="455.1" r="3" fill="#1f77b4"/>
<circle cx="549.4" cy="355.7" r="3" fill="#1f77b4"/>
<circle cx="552.8" cy="366.6" r="3" fill="#1f77b4"/>
<circle cx="556.3" cy="421.6" r="3" fill="#1f77b4"/>
<circle cx="559.7" cy="358.4" r="3" fill="#1f77b4"/>
<circle cx="563.1" cy="312.4" r="3" fill="#1f77b4"/>
<circle cx="566.6" cy="400.0" r="3" fill="#1f77b4"/>
<circle cx="570.0" cy="368.4" r="3" fill="#1f77b4"/>
<circle cx="573.5" cy="240.1" r="3" fill="#1f77b4"/>
<circle cx="576.9" cy="270.9" r="3" fill="#1f77b4"/>
<circle cx="580.4" cy="425.3" r="3" fill="#1f77b4"/>
<circle cx="583.8" cy="427.1" r="3" fill="#1f77b4"/>
<circle cx="587.2" cy="294.3" r="3" fill="#1f77b4"/>
<circle cx="590.7" cy="316.0" r="3" fill="#1f77b4"/>
<circle cx="594.1" cy="444.7" r="3" fill="#1f77b4"/>
<circle cx="597.6" cy="344.9" r="3" fill="#1f77b4"/>
<circle cx="601.0" cy="437.9" r="3" fill="#1f77b4"/>
<circle cx="604.4" cy="368.4" r="3" fill="#1f77b4"/>
<circle cx="607.9" cy="418.0" r="3" fill="#1f77b4"/>
<circle cx="611.3" cy="359.3" r="3" fill="#1f77b4"/>
<circle cx="614.8" cy="325.0" r="3" fill="#1f77b4"/>
<circle cx="618.2" cy="434.3" r="3" fill="#1f77b4"/>
<circle cx="621.7" cy="401.8" r="3" fill="#1f77b4"/>
<circle cx="625.1" cy="251.0" r="3" fill="#1f77b4"/>
<circle cx="628.5" cy="74.0" r="3" fill="#1f77b4"/>
<circle cx="632.0" cy="349.4" r="3" fill="#1f77b4"/>
<circle cx="635.4" cy="178.7" r="3" fill="#1f77b4"/>
<circle cx="638.9" cy="240.1" r="3" fill="#1f77b4"/>
<circle cx="642.3" cy="424.4" r="3" fill="#1f77b4"/>
<circle cx="645.8" cy="317.8" r="3" fill="#1f77b4"/>
<circle cx="649.2" cy="413.5" r="3" fill="#1f77b4"/>
<circle cx="652.6" cy="415.3" r="3" fill="#1f77b4"/>
<circle cx="656.1" cy="316.0" r="3" fill="#1f77b4"/>
<circle cx="659.5" cy="450.1" r="3" fill="#1f77b4"/>
<circle cx="663.0" cy="327.7" r="3" fill="#1f77b4"/>
<circle cx="666.4" cy="462.7" r="3" fill="#1f77b4"/>
<circle cx="669.8" cy="355.7" r="3" fill="#1f77b4"/>
<circle cx="673.3" cy="390.0" r="3" fill="#1f77b4"/>
<circle cx="676.7" cy="395.5" r="3" fill="#1f77b4"/>
<circle cx="680.2" cy="434.3" r="3" fill="#1f77b4"/>
<circle cx="683.6" cy="368.4" r="3" fill="#1f77b4"/>
<circle cx="687.1" cy="510.4" r="3" fill="#1f77b4"/>
<circle cx="690.5" cy="363.0" r="3" fill="#1f77b4"/>
<circle cx="693.9" cy="488.9" r="3" fill="#1f77b4"/>
<circle cx="697.4" cy="432.5" r="3" fill="#1f77b4"/>
<circle cx="700.8" cy="476.7" r="3" fill="#1f77b4"/>
<circle cx="704.3" cy="466.3" r="3" fill="#1f77b4"/>
<circle cx="707.7" cy="486.7" r="3" fill="#1f77b4"/>
<circle cx="711.2" cy="403.6" r="3" fill="#1f77b4"/>
<circle cx="714.6" cy="421.6" r="3" fill="#1f77b4"/>
<circle cx="718.0" cy="368.4" r="3" fill="#1f77b4"/>
<circle cx="721.5" cy="469.1" r="3" fill="#1f77b4"/>
<circle cx="724.9" cy="390.0" r="3" fill="#1f77b4"/>
<circle cx="728.4" cy="448.3" r="3" fill="#1f77b4"/>
<circle cx="731.8" cy="443.8" r="3" fill="#1f77b4"/>
<circle cx="735.3" cy="481.2" r="3" fill="#1f77b4"/>
<circle cx="738.7" cy="446.0" r="3" fill="#1f77b4"/>
<circle cx="742.1" cy="326.8" r="3" fill="#1f77b4"/>
<circle cx="745.6" cy="398.2" r="3" fill="#1f77b4"/>
<circle cx="749.0" cy="372.0" r="3" fill="#1f77b4"/>
<circle cx="752.5" cy="343.1" r="3" fill="#1f77b4"/>
<circle cx="755.9" cy="327.7" r="3" fill="#1f77b4"/>
<circle cx="759.3" cy="258.2" r="3" fill="#1f77b4"/>
<circle cx="762.8" cy="290.7" r="3" fill="#1f77b4"/>
<circle cx="766.2" cy="426.2" r="3" fill="#1f77b4"/>
<circle cx="769.7" cy="375.6" r="3" fill="#1f77b4"/>
<circle cx="773.1" cy="376.5" r="3" fill="#1f77b4"/>
<circle cx="776.6" cy="319.6" r="3" fill="#1f77b4"/>
<circle cx="780.0" cy="95.7" r="3" fill="#1f77b4"/>
<line x1="808" y1="96" x2="830" y2="96" stroke="#1f77b4" stroke-width="2.5"/>
<text x="838" y="100" font-family="Arial" font-size="13">r1_zero_reference</text>
<polyline fill="none" stroke="#d62728" stroke-width="2.3" points="95.0,557.1 98.4,557.3 101.9,557.3 105.3,557.4 108.8,557.5 112.2,557.5 115.7,557.4 119.1,557.4 122.5,557.3 126.0,557.4 129.4,557.4 132.9,557.4 136.3,557.4 139.7,557.4 143.2,557.4 146.6,557.5 150.1,557.4 153.5,557.5 157.0,557.3 160.4,557.5 163.8,557.3 167.3,557.4 170.7,557.5 174.2,557.4 177.6,557.4 181.1,557.5 184.5,557.4 187.9,557.4 191.4,557.4 194.8,557.4 198.3,557.4 201.7,557.5 205.2,557.3 208.6,557.5 212.0,557.4 215.5,557.0 218.9,557.4 222.4,557.4 225.8,557.2 229.2,557.3 232.7,557.4 236.1,557.5 239.6,557.3 243.0,557.2 246.5,557.5 249.9,557.4 253.3,557.5 256.8,557.3 260.2,557.3 263.7,557.0 267.1,557.4 270.6,557.4 274.0,557.4 277.4,557.4 280.9,557.5 284.3,557.5 287.8,557.3 291.2,557.3 294.6,557.3 298.1,557.3 301.5,557.5 305.0,557.3 308.4,557.3 311.9,557.3 315.3,557.4 318.7,557.5 322.2,557.4 325.6,557.5 329.1,557.4 332.5,557.4 336.0,557.5 339.4,557.6 342.8,557.4 346.3,557.5 349.7,557.5 353.2,557.3 356.6,557.5 360.1,557.5 363.5,557.4 366.9,557.5 370.4,557.5 373.8,557.5 377.3,557.5 380.7,557.3 384.1,557.5 387.6,557.4 391.0,557.5 394.5,557.4 397.9,557.2 401.4,557.4 404.8,557.3 408.2,557.3 411.7,557.4 415.1,557.3 418.6,557.4 422.0,557.4 425.5,557.4 428.9,557.4 432.3,557.5 435.8,557.4 439.2,557.4 442.7,557.4 446.1,557.5 449.5,557.6 453.0,557.6 456.4,557.4 459.9,557.6 463.3,557.4 466.8,557.5 470.2,557.4 473.6,557.3 477.1,557.4 480.5,557.5 484.0,557.5 487.4,557.4 490.9,557.5 494.3,557.6 497.7,557.7 501.2,557.5 504.6,557.5 508.1,557.4 511.5,557.3 514.9,557.4 518.4,557.6 521.8,557.6 525.3,557.5 528.7,557.6 532.2,557.4 535.6,557.2 539.0,557.4 542.5,557.5 545.9,557.4 549.4,557.2 552.8,557.4 556.3,557.4 559.7,557.5 563.1,557.4 566.6,557.4 570.0,557.0 573.5,557.4 576.9,557.6 580.4,557.5 583.8,557.6 587.2,557.4 590.7,557.4 594.1,557.5 597.6,557.4 601.0,557.6 604.4,557.4 607.9,557.3 611.3,557.3 614.8,557.4 618.2,557.5 621.7,557.4 625.1,557.4 628.5,557.4 632.0,557.5 635.4,557.6 638.9,557.3 642.3,557.6 645.8,557.4 649.2,557.3 652.6,557.5 656.1,557.5 659.5,557.5 663.0,557.3 666.4,557.6 669.8,557.4 673.3,557.5 676.7,557.5 680.2,557.4 683.6,557.4 687.1,557.5 690.5,557.4 693.9,557.4 697.4,557.3 700.8,557.4 704.3,557.7 707.7,557.5 711.2,557.7 714.6,557.5 718.0,557.4 721.5,557.6 724.9,557.5 728.4,557.5 731.8,557.5 735.3,557.6 738.7,557.6 742.1,557.3 745.6,557.4 749.0,557.4 752.5,557.5 755.9,557.3 759.3,557.4 762.8,557.3 766.2,557.2 769.7,557.3 773.1,557.3 776.6,557.3 780.0,557.4"/>
<circle cx="95.0" cy="557.1" r="3" fill="#d62728"/>
<circle cx="98.4" cy="557.3" r="3" fill="#d62728"/>
<circle cx="101.9" cy="557.3" r="3" fill="#d62728"/>
<circle cx="105.3" cy="557.4" r="3" fill="#d62728"/>
<circle cx="108.8" cy="557.5" r="3" fill="#d62728"/>
<circle cx="112.2" cy="557.5" r="3" fill="#d62728"/>
<circle cx="115.7" cy="557.4" r="3" fill="#d62728"/>
<circle cx="119.1" cy="557.4" r="3" fill="#d62728"/>
<circle cx="122.5" cy="557.3" r="3" fill="#d62728"/>
<circle cx="126.0" cy="557.4" r="3" fill="#d62728"/>
<circle cx="129.4" cy="557.4" r="3" fill="#d62728"/>
<circle cx="132.9" cy="557.4" r="3" fill="#d62728"/>
<circle cx="136.3" cy="557.4" r="3" fill="#d62728"/>
<circle cx="139.7" cy="557.4" r="3" fill="#d62728"/>
<circle cx="143.2" cy="557.4" r="3" fill="#d62728"/>
<circle cx="146.6" cy="557.5" r="3" fill="#d62728"/>
<circle cx="150.1" cy="557.4" r="3" fill="#d62728"/>
<circle cx="153.5" cy="557.5" r="3" fill="#d62728"/>
<circle cx="157.0" cy="557.3" r="3" fill="#d62728"/>
<circle cx="160.4" cy="557.5" r="3" fill="#d62728"/>
<circle cx="163.8" cy="557.3" r="3" fill="#d62728"/>
<circle cx="167.3" cy="557.4" r="3" fill="#d62728"/>
<circle cx="170.7" cy="557.5" r="3" fill="#d62728"/>
<circle cx="174.2" cy="557.4" r="3" fill="#d62728"/>
<circle cx="177.6" cy="557.4" r="3" fill="#d62728"/>
<circle cx="181.1" cy="557.5" r="3" fill="#d62728"/>
<circle cx="184.5" cy="557.4" r="3" fill="#d62728"/>
<circle cx="187.9" cy="557.4" r="3" fill="#d62728"/>
<circle cx="191.4" cy="557.4" r="3" fill="#d62728"/>
<circle cx="194.8" cy="557.4" r="3" fill="#d62728"/>
<circle cx="198.3" cy="557.4" r="3" fill="#d62728"/>
<circle cx="201.7" cy="557.5" r="3" fill="#d62728"/>
<circle cx="205.2" cy="557.3" r="3" fill="#d62728"/>
<circle cx="208.6" cy="557.5" r="3" fill="#d62728"/>
<circle cx="212.0" cy="557.4" r="3" fill="#d62728"/>
<circle cx="215.5" cy="557.0" r="3" fill="#d62728"/>
<circle cx="218.9" cy="557.4" r="3" fill="#d62728"/>
<circle cx="222.4" cy="557.4" r="3" fill="#d62728"/>
<circle cx="225.8" cy="557.2" r="3" fill="#d62728"/>
<circle cx="229.2" cy="557.3" r="3" fill="#d62728"/>
<circle cx="232.7" cy="557.4" r="3" fill="#d62728"/>
<circle cx="236.1" cy="557.5" r="3" fill="#d62728"/>
<circle cx="239.6" cy="557.3" r="3" fill="#d62728"/>
<circle cx="243.0" cy="557.2" r="3" fill="#d62728"/>
<circle cx="246.5" cy="557.5" r="3" fill="#d62728"/>
<circle cx="249.9" cy="557.4" r="3" fill="#d62728"/>
<circle cx="253.3" cy="557.5" r="3" fill="#d62728"/>
<circle cx="256.8" cy="557.3" r="3" fill="#d62728"/>
<circle cx="260.2" cy="557.3" r="3" fill="#d62728"/>
<circle cx="263.7" cy="557.0" r="3" fill="#d62728"/>
<circle cx="267.1" cy="557.4" r="3" fill="#d62728"/>
<circle cx="270.6" cy="557.4" r="3" fill="#d62728"/>
<circle cx="274.0" cy="557.4" r="3" fill="#d62728"/>
<circle cx="277.4" cy="557.4" r="3" fill="#d62728"/>
<circle cx="280.9" cy="557.5" r="3" fill="#d62728"/>
<circle cx="284.3" cy="557.5" r="3" fill="#d62728"/>
<circle cx="287.8" cy="557.3" r="3" fill="#d62728"/>
<circle cx="291.2" cy="557.3" r="3" fill="#d62728"/>
<circle cx="294.6" cy="557.3" r="3" fill="#d62728"/>
<circle cx="298.1" cy="557.3" r="3" fill="#d62728"/>
<circle cx="301.5" cy="557.5" r="3" fill="#d62728"/>
<circle cx="305.0" cy="557.3" r="3" fill="#d62728"/>
<circle cx="308.4" cy="557.3" r="3" fill="#d62728"/>
<circle cx="311.9" cy="557.3" r="3" fill="#d62728"/>
<circle cx="315.3" cy="557.4" r="3" fill="#d62728"/>
<circle cx="318.7" cy="557.5" r="3" fill="#d62728"/>
<circle cx="322.2" cy="557.4" r="3" fill="#d62728"/>
<circle cx="325.6" cy="557.5" r="3" fill="#d62728"/>
<circle cx="329.1" cy="557.4" r="3" fill="#d62728"/>
<circle cx="332.5" cy="557.4" r="3" fill="#d62728"/>
<circle cx="336.0" cy="557.5" r="3" fill="#d62728"/>
<circle cx="339.4" cy="557.6" r="3" fill="#d62728"/>
<circle cx="342.8" cy="557.4" r="3" fill="#d62728"/>
<circle cx="346.3" cy="557.5" r="3" fill="#d62728"/>
<circle cx="349.7" cy="557.5" r="3" fill="#d62728"/>
<circle cx="353.2" cy="557.3" r="3" fill="#d62728"/>
<circle cx="356.6" cy="557.5" r="3" fill="#d62728"/>
<circle cx="360.1" cy="557.5" r="3" fill="#d62728"/>
<circle cx="363.5" cy="557.4" r="3" fill="#d62728"/>
<circle cx="366.9" cy="557.5" r="3" fill="#d62728"/>
<circle cx="370.4" cy="557.5" r="3" fill="#d62728"/>
<circle cx="373.8" cy="557.5" r="3" fill="#d62728"/>
<circle cx="377.3" cy="557.5" r="3" fill="#d62728"/>
<circle cx="380.7" cy="557.3" r="3" fill="#d62728"/>
<circle cx="384.1" cy="557.5" r="3" fill="#d62728"/>
<circle cx="387.6" cy="557.4" r="3" fill="#d62728"/>
<circle cx="391.0" cy="557.5" r="3" fill="#d62728"/>
<circle cx="394.5" cy="557.4" r="3" fill="#d62728"/>
<circle cx="397.9" cy="557.2" r="3" fill="#d62728"/>
<circle cx="401.4" cy="557.4" r="3" fill="#d62728"/>
<circle cx="404.8" cy="557.3" r="3" fill="#d62728"/>
<circle cx="408.2" cy="557.3" r="3" fill="#d62728"/>
<circle cx="411.7" cy="557.4" r="3" fill="#d62728"/>
<circle cx="415.1" cy="557.3" r="3" fill="#d62728"/>
<circle cx="418.6" cy="557.4" r="3" fill="#d62728"/>
<circle cx="422.0" cy="557.4" r="3" fill="#d62728"/>
<circle cx="425.5" cy="557.4" r="3" fill="#d62728"/>
<circle cx="428.9" cy="557.4" r="3" fill="#d62728"/>
<circle cx="432.3" cy="557.5" r="3" fill="#d62728"/>
<circle cx="435.8" cy="557.4" r="3" fill="#d62728"/>
<circle cx="439.2" cy="557.4" r="3" fill="#d62728"/>
<circle cx="442.7" cy="557.4" r="3" fill="#d62728"/>
<circle cx="446.1" cy="557.5" r="3" fill="#d62728"/>
<circle cx="449.5" cy="557.6" r="3" fill="#d62728"/>
<circle cx="453.0" cy="557.6" r="3" fill="#d62728"/>
<circle cx="456.4" cy="557.4" r="3" fill="#d62728"/>
<circle cx="459.9" cy="557.6" r="3" fill="#d62728"/>
<circle cx="463.3" cy="557.4" r="3" fill="#d62728"/>
<circle cx="466.8" cy="557.5" r="3" fill="#d62728"/>
<circle cx="470.2" cy="557.4" r="3" fill="#d62728"/>
<circle cx="473.6" cy="557.3" r="3" fill="#d62728"/>
<circle cx="477.1" cy="557.4" r="3" fill="#d62728"/>
<circle cx="480.5" cy="557.5" r="3" fill="#d62728"/>
<circle cx="484.0" cy="557.5" r="3" fill="#d62728"/>
<circle cx="487.4" cy="557.4" r="3" fill="#d62728"/>
<circle cx="490.9" cy="557.5" r="3" fill="#d62728"/>
<circle cx="494.3" cy="557.6" r="3" fill="#d62728"/>
<circle cx="497.7" cy="557.7" r="3" fill="#d62728"/>
<circle cx="501.2" cy="557.5" r="3" fill="#d62728"/>
<circle cx="504.6" cy="557.5" r="3" fill="#d62728"/>
<circle cx="508.1" cy="557.4" r="3" fill="#d62728"/>
<circle cx="511.5" cy="557.3" r="3" fill="#d62728"/>
<circle cx="514.9" cy="557.4" r="3" fill="#d62728"/>
<circle cx="518.4" cy="557.6" r="3" fill="#d62728"/>
<circle cx="521.8" cy="557.6" r="3" fill="#d62728"/>
<circle cx="525.3" cy="557.5" r="3" fill="#d62728"/>
<circle cx="528.7" cy="557.6" r="3" fill="#d62728"/>
<circle cx="532.2" cy="557.4" r="3" fill="#d62728"/>
<circle cx="535.6" cy="557.2" r="3" fill="#d62728"/>
<circle cx="539.0" cy="557.4" r="3" fill="#d62728"/>
<circle cx="542.5" cy="557.5" r="3" fill="#d62728"/>
<circle cx="545.9" cy="557.4" r="3" fill="#d62728"/>
<circle cx="549.4" cy="557.2" r="3" fill="#d62728"/>
<circle cx="552.8" cy="557.4" r="3" fill="#d62728"/>
<circle cx="556.3" cy="557.4" r="3" fill="#d62728"/>
<circle cx="559.7" cy="557.5" r="3" fill="#d62728"/>
<circle cx="563.1" cy="557.4" r="3" fill="#d62728"/>
<circle cx="566.6" cy="557.4" r="3" fill="#d62728"/>
<circle cx="570.0" cy="557.0" r="3" fill="#d62728"/>
<circle cx="573.5" cy="557.4" r="3" fill="#d62728"/>
<circle cx="576.9" cy="557.6" r="3" fill="#d62728"/>
<circle cx="580.4" cy="557.5" r="3" fill="#d62728"/>
<circle cx="583.8" cy="557.6" r="3" fill="#d62728"/>
<circle cx="587.2" cy="557.4" r="3" fill="#d62728"/>
<circle cx="590.7" cy="557.4" r="3" fill="#d62728"/>
<circle cx="594.1" cy="557.5" r="3" fill="#d62728"/>
<circle cx="597.6" cy="557.4" r="3" fill="#d62728"/>
<circle cx="601.0" cy="557.6" r="3" fill="#d62728"/>
<circle cx="604.4" cy="557.4" r="3" fill="#d62728"/>
<circle cx="607.9" cy="557.3" r="3" fill="#d62728"/>
<circle cx="611.3" cy="557.3" r="3" fill="#d62728"/>
<circle cx="614.8" cy="557.4" r="3" fill="#d62728"/>
<circle cx="618.2" cy="557.5" r="3" fill="#d62728"/>
<circle cx="621.7" cy="557.4" r="3" fill="#d62728"/>
<circle cx="625.1" cy="557.4" r="3" fill="#d62728"/>
<circle cx="628.5" cy="557.4" r="3" fill="#d62728"/>
<circle cx="632.0" cy="557.5" r="3" fill="#d62728"/>
<circle cx="635.4" cy="557.6" r="3" fill="#d62728"/>
<circle cx="638.9" cy="557.3" r="3" fill="#d62728"/>
<circle cx="642.3" cy="557.6" r="3" fill="#d62728"/>
<circle cx="645.8" cy="557.4" r="3" fill="#d62728"/>
<circle cx="649.2" cy="557.3" r="3" fill="#d62728"/>
<circle cx="652.6" cy="557.5" r="3" fill="#d62728"/>
<circle cx="656.1" cy="557.5" r="3" fill="#d62728"/>
<circle cx="659.5" cy="557.5" r="3" fill="#d62728"/>
<circle cx="663.0" cy="557.3" r="3" fill="#d62728"/>
<circle cx="666.4" cy="557.6" r="3" fill="#d62728"/>
<circle cx="669.8" cy="557.4" r="3" fill="#d62728"/>
<circle cx="673.3" cy="557.5" r="3" fill="#d62728"/>
<circle cx="676.7" cy="557.5" r="3" fill="#d62728"/>
<circle cx="680.2" cy="557.4" r="3" fill="#d62728"/>
<circle cx="683.6" cy="557.4" r="3" fill="#d62728"/>
<circle cx="687.1" cy="557.5" r="3" fill="#d62728"/>
<circle cx="690.5" cy="557.4" r="3" fill="#d62728"/>
<circle cx="693.9" cy="557.4" r="3" fill="#d62728"/>
<circle cx="697.4" cy="557.3" r="3" fill="#d62728"/>
<circle cx="700.8" cy="557.4" r="3" fill="#d62728"/>
<circle cx="704.3" cy="557.7" r="3" fill="#d62728"/>
<circle cx="707.7" cy="557.5" r="3" fill="#d62728"/>
<circle cx="711.2" cy="557.7" r="3" fill="#d62728"/>
<circle cx="714.6" cy="557.5" r="3" fill="#d62728"/>
<circle cx="718.0" cy="557.4" r="3" fill="#d62728"/>
<circle cx="721.5" cy="557.6" r="3" fill="#d62728"/>
<circle cx="724.9" cy="557.5" r="3" fill="#d62728"/>
<circle cx="728.4" cy="557.5" r="3" fill="#d62728"/>
<circle cx="731.8" cy="557.5" r="3" fill="#d62728"/>
<circle cx="735.3" cy="557.6" r="3" fill="#d62728"/>
<circle cx="738.7" cy="557.6" r="3" fill="#d62728"/>
<circle cx="742.1" cy="557.3" r="3" fill="#d62728"/>
<circle cx="745.6" cy="557.4" r="3" fill="#d62728"/>
<circle cx="749.0" cy="557.4" r="3" fill="#d62728"/>
<circle cx="752.5" cy="557.5" r="3" fill="#d62728"/>
<circle cx="755.9" cy="557.3" r="3" fill="#d62728"/>
<circle cx="759.3" cy="557.4" r="3" fill="#d62728"/>
<circle cx="762.8" cy="557.3" r="3" fill="#d62728"/>
<circle cx="766.2" cy="557.2" r="3" fill="#d62728"/>
<circle cx="769.7" cy="557.3" r="3" fill="#d62728"/>
<circle cx="773.1" cy="557.3" r="3" fill="#d62728"/>
<circle cx="776.6" cy="557.3" r="3" fill="#d62728"/>
<circle cx="780.0" cy="557.4" r="3" fill="#d62728"/>
<line x1="808" y1="121" x2="830" y2="121" stroke="#d62728" stroke-width="2.5"/>
<text x="838" y="125" font-family="Arial" font-size="13">question_only</text>
<text x="437.5" y="618" text-anchor="middle" font-family="Arial" font-size="15">GRPO step</text>
<text x="24" y="316.0" text-anchor="middle" font-family="Arial" font-size="15" transform="rotate(-90 24 316.0)">Gradient norm</text>
</svg>
