<svg xmlns="http://www.w3.org/2000/svg" width="1040" height="640" viewBox="0 0 1040 640">
<rect width="100%" height="100%" fill="white"/>
<text x="520.0" y="36" text-anchor="middle" font-family="Arial" font-size="22" font-weight="700">GRPO prompt ablation: token entropy</text>
<line x1="95" y1="558" x2="780" y2="558" stroke="#222" stroke-width="1.5"/>
<line x1="95" y1="74" x2="95" y2="558" stroke="#222" stroke-width="1.5"/>
<line x1="90" y1="558.0" x2="780" y2="558.0" stroke="#ddd" stroke-width="1"/>
<text x="83" y="562.0" text-anchor="end" font-family="Arial" font-size="12">0.00</text>
<line x1="90" y1="461.2" x2="780" y2="461.2" stroke="#ddd" stroke-width="1"/>
<text x="83" y="465.2" text-anchor="end" font-family="Arial" font-size="12">0.86</text>
<line x1="90" y1="364.4" x2="780" y2="364.4" stroke="#ddd" stroke-width="1"/>
<text x="83" y="368.4" text-anchor="end" font-family="Arial" font-size="12">1.72</text>
<line x1="90" y1="267.6" x2="780" y2="267.6" stroke="#ddd" stroke-width="1"/>
<text x="83" y="271.6" text-anchor="end" font-family="Arial" font-size="12">2.58</text>
<line x1="90" y1="170.8" x2="780" y2="170.8" stroke="#ddd" stroke-width="1"/>
<text x="83" y="174.8" text-anchor="end" font-family="Arial" font-size="12">3.44</text>
<line x1="90" y1="74.0" x2="780" y2="74.0" stroke="#ddd" stroke-width="1"/>
<text x="83" y="78.0" text-anchor="end" font-family="Arial" font-size="12">4.30</text>
<line x1="95.0" y1="558" x2="95.0" y2="563" stroke="#222" stroke-width="1"/>
<text x="95.0" y="582" text-anchor="middle" font-family="Arial" font-size="12">1</text>
<line x1="232.0" y1="558" x2="232.0" y2="563" stroke="#222" stroke-width="1"/>
<text x="232.0" y="582" text-anchor="middle" font-family="Arial" font-size="12">41</text>
<line x1="369.0" y1="558" x2="369.0" y2="563" stroke="#222" stroke-width="1"/>
<text x="369.0" y="582" text-anchor="middle" font-family="Arial" font-size="12">81</text>
<line x1="506.0" y1="558" x2="506.0" y2="563" stroke="#222" stroke-width="1"/>
<text x="506.0" y="582" text-anchor="middle" font-family="Arial" font-size="12">120</text>
<line x1="643.0" y1="558" x2="643.0" y2="563" stroke="#222" stroke-width="1"/>
<text x="643.0" y="582" text-anchor="middle" font-family="Arial" font-size="12">160</text>
<line x1="780.0" y1="558" x2="780.0" y2="563" stroke="#222" stroke-width="1"/>
<text x="780.0" y="582" text-anchor="middle" font-family="Arial" font-size="12">200</text>
<polyline fill="none" stroke="#1f77b4" stroke-width="2.3" points="95.0,453.7 98.4,508.8 101.9,500.1 105.3,506.3 108.8,506.0 112.2,509.5 115.7,518.5 119.1,512.5 122.5,517.1 126.0,517.9 129.4,519.8 132.9,520.5 136.3,521.8 139.7,522.1 143.2,524.4 146.6,527.9 150.1,524.6 153.5,524.0 157.0,531.6 160.4,525.4 163.8,526.5 167.3,528.4 170.7,529.9 174.2,531.9 177.6,530.5 181.1,530.2 184.5,533.0 187.9,531.8 191.4,532.1 194.8,534.5 198.3,535.7 201.7,535.6 205.2,536.5 208.6,534.9 212.0,533.9 215.5,533.5 218.9,536.2 222.4,536.8 225.8,539.0 229.2,536.6 232.7,538.7 236.1,538.5 239.6,542.3 243.0,538.4 246.5,540.0 249.9,540.2 253.3,540.7 256.8,543.6 260.2,544.6 263.7,543.4 267.1,546.2 270.6,545.3 274.0,548.3 277.4,546.3 280.9,543.3 284.3,546.4 287.8,544.3 291.2,547.1 294.6,547.2 298.1,520.3 301.5,542.2 305.0,437.3 308.4,496.7 311.9,338.4 315.3,126.6 318.7,75.1 322.2,244.4 325.6,552.3 329.1,553.3 332.5,544.8 336.0,95.4 339.4,250.6 342.8,206.3 346.3,295.9 349.7,491.6 353.2,502.9 356.6,448.5 360.1,400.1 363.5,457.5 366.9,528.3 370.4,521.4 373.8,494.0 377.3,479.8 380.7,433.9 384.1,458.8 387.6,503.2 391.0,484.6 394.5,375.7 397.9,326.9 401.4,357.9 404.8,433.1 408.2,421.4 411.7,410.9 415.1,486.7 418.6,508.0 422.0,519.8 425.5,528.8 428.9,534.3 432.3,543.5 435.8,546.1 439.2,551.7 442.7,551.1 446.1,551.6 449.5,549.6 453.0,548.5 456.4,548.8 459.9,547.5 463.3,547.3 466.8,547.3 470.2,548.6 473.6,549.5 477.1,550.1 480.5,550.9 484.0,550.6 487.4,549.3 490.9,549.1 494.3,549.0 497.7,549.3 501.2,550.4 504.6,546.2 508.1,549.2 511.5,548.1 514.9,548.6 518.4,548.3 521.8,550.4 525.3,550.4 528.7,551.6 532.2,551.2 535.6,552.4 539.0,552.2 542.5,549.9 545.9,551.5 549.4,548.7 552.8,548.6 556.3,549.7 559.7,548.8 563.1,547.7 566.6,546.9 570.0,548.5 573.5,552.0 576.9,550.5 580.4,551.4 583.8,552.2 587.2,552.0 590.7,552.0 594.1,552.4 597.6,551.6 601.0,552.0 604.4,552.0 607.9,552.0 611.3,551.0 614.8,552.1 618.2,549.4 621.7,551.7 625.1,551.5 628.5,552.0 632.0,553.5 635.4,553.2 638.9,553.3 642.3,553.6 645.8,552.8 649.2,552.5 652.6,553.3 656.1,552.4 659.5,551.9 663.0,552.6 666.4,552.2 669.8,551.3 673.3,551.0 676.7,549.9 680.2,550.3 683.6,549.5 687.1,550.4 690.5,550.8 693.9,549.5 697.4,549.5 700.8,550.0 704.3,550.9 707.7,550.0 711.2,552.3 714.6,551.5 718.0,551.5 721.5,551.9 724.9,552.5 728.4,552.2 731.8,552.5 735.3,551.9 738.7,552.5 742.1,552.3 745.6,552.7 749.0,553.0 752.5,552.5 755.9,552.2 759.3,552.6 762.8,551.9 766.2,552.5 769.7,551.9 773.1,552.7 776.6,552.7 780.0,553.1"/>
<circle cx="95.0" cy="453.7" r="3" fill="#1f77b4"/>
<circle cx="98.4" cy="508.8" r="3" fill="#1f77b4"/>
<circle cx="101.9" cy="500.1" r="3" fill="#1f77b4"/>
<circle cx="105.3" cy="506.3" r="3" fill="#1f77b4"/>
<circle cx="108.8" cy="506.0" r="3" fill="#1f77b4"/>
<circle cx="112.2" cy="509.5" r="3" fill="#1f77b4"/>
<circle cx="115.7" cy="518.5" r="3" fill="#1f77b4"/>
<circle cx="119.1" cy="512.5" r="3" fill="#1f77b4"/>
<circle cx="122.5" cy="517.1" r="3" fill="#1f77b4"/>
<circle cx="126.0" cy="517.9" r="3" fill="#1f77b4"/>
<circle cx="129.4" cy="519.8" r="3" fill="#1f77b4"/>
<circle cx="132.9" cy="520.5" r="3" fill="#1f77b4"/>
<circle cx="136.3" cy="521.8" r="3" fill="#1f77b4"/>
<circle cx="139.7" cy="522.1" r="3" fill="#1f77b4"/>
<circle cx="143.2" cy="524.4" r="3" fill="#1f77b4"/>
<circle cx="146.6" cy="527.9" r="3" fill="#1f77b4"/>
<circle cx="150.1" cy="524.6" r="3" fill="#1f77b4"/>
<circle cx="153.5" cy="524.0" r="3" fill="#1f77b4"/>
<circle cx="157.0" cy="531.6" r="3" fill="#1f77b4"/>
<circle cx="160.4" cy="525.4" r="3" fill="#1f77b4"/>
<circle cx="163.8" cy="526.5" r="3" fill="#1f77b4"/>
<circle cx="167.3" cy="528.4" r="3" fill="#1f77b4"/>
<circle cx="170.7" cy="529.9" r="3" fill="#1f77b4"/>
<circle cx="174.2" cy="531.9" r="3" fill="#1f77b4"/>
<circle cx="177.6" cy="530.5" r="3" fill="#1f77b4"/>
<circle cx="181.1" cy="530.2" r="3" fill="#1f77b4"/>
<circle cx="184.5" cy="533.0" r="3" fill="#1f77b4"/>
<circle cx="187.9" cy="531.8" r="3" fill="#1f77b4"/>
<circle cx="191.4" cy="532.1" r="3" fill="#1f77b4"/>
<circle cx="194.8" cy="534.5" r="3" fill="#1f77b4"/>
<circle cx="198.3" cy="535.7" r="3" fill="#1f77b4"/>
<circle cx="201.7" cy="535.6" r="3" fill="#1f77b4"/>
<circle cx="205.2" cy="536.5" r="3" fill="#1f77b4"/>
<circle cx="208.6" cy="534.9" r="3" fill="#1f77b4"/>
<circle cx="212.0" cy="533.9" r="3" fill="#1f77b4"/>
<circle cx="215.5" cy="533.5" r="3" fill="#1f77b4"/>
<circle cx="218.9" cy="536.2" r="3" fill="#1f77b4"/>
<circle cx="222.4" cy="536.8" r="3" fill="#1f77b4"/>
<circle cx="225.8" cy="539.0" r="3" fill="#1f77b4"/>
<circle cx="229.2" cy="536.6" r="3" fill="#1f77b4"/>
<circle cx="232.7" cy="538.7" r="3" fill="#1f77b4"/>
<circle cx="236.1" cy="538.5" r="3" fill="#1f77b4"/>
<circle cx="239.6" cy="542.3" r="3" fill="#1f77b4"/>
<circle cx="243.0" cy="538.4" r="3" fill="#1f77b4"/>
<circle cx="246.5" cy="540.0" r="3" fill="#1f77b4"/>
<circle cx="249.9" cy="540.2" r="3" fill="#1f77b4"/>
<circle cx="253.3" cy="540.7" r="3" fill="#1f77b4"/>
<circle cx="256.8" cy="543.6" r="3" fill="#1f77b4"/>
<circle cx="260.2" cy="544.6" r="3" fill="#1f77b4"/>
<circle cx="263.7" cy="543.4" r="3" fill="#1f77b4"/>
<circle cx="267.1" cy="546.2" r="3" fill="#1f77b4"/>
<circle cx="270.6" cy="545.3" r="3" fill="#1f77b4"/>
<circle cx="274.0" cy="548.3" r="3" fill="#1f77b4"/>
<circle cx="277.4" cy="546.3" r="3" fill="#1f77b4"/>
<circle cx="280.9" cy="543.3" r="3" fill="#1f77b4"/>
<circle cx="284.3" cy="546.4" r="3" fill="#1f77b4"/>
<circle cx="287.8" cy="544.3" r="3" fill="#1f77b4"/>
<circle cx="291.2" cy="547.1" r="3" fill="#1f77b4"/>
<circle cx="294.6" cy="547.2" r="3" fill="#1f77b4"/>
<circle cx="298.1" cy="520.3" r="3" fill="#1f77b4"/>
<circle cx="301.5" cy="542.2" r="3" fill="#1f77b4"/>
<circle cx="305.0" cy="437.3" r="3" fill="#1f77b4"/>
<circle cx="308.4" cy="496.7" r="3" fill="#1f77b4"/>
<circle cx="311.9" cy="338.4" r="3" fill="#1f77b4"/>
<circle cx="315.3" cy="126.6" r="3" fill="#1f77b4"/>
<circle cx="318.7" cy="75.1" r="3" fill="#1f77b4"/>
<circle cx="322.2" cy="244.4" r="3" fill="#1f77b4"/>
<circle cx="325.6" cy="552.3" r="3" fill="#1f77b4"/>
<circle cx="329.1" cy="553.3" r="3" fill="#1f77b4"/>
<circle cx="332.5" cy="544.8" r="3" fill="#1f77b4"/>
<circle cx="336.0" cy="95.4" r="3" fill="#1f77b4"/>
<circle cx="339.4" cy="250.6" r="3" fill="#1f77b4"/>
<circle cx="342.8" cy="206.3" r="3" fill="#1f77b4"/>
<circle cx="346.3" cy="295.9" r="3" fill="#1f77b4"/>
<circle cx="349.7" cy="491.6" r="3" fill="#1f77b4"/>
<circle cx="353.2" cy="502.9" r="3" fill="#1f77b4"/>
<circle cx="356.6" cy="448.5" r="3" fill="#1f77b4"/>
<circle cx="360.1" cy="400.1" r="3" fill="#1f77b4"/>
<circle cx="363.5" cy="457.5" r="3" fill="#1f77b4"/>
<circle cx="366.9" cy="528.3" r="3" fill="#1f77b4"/>
<circle cx="370.4" cy="521.4" r="3" fill="#1f77b4"/>
<circle cx="373.8" cy="494.0" r="3" fill="#1f77b4"/>
<circle cx="377.3" cy="479.8" r="3" fill="#1f77b4"/>
<circle cx="380.7" cy="433.9" r="3" fill="#1f77b4"/>
<circle cx="384.1" cy="458.8" r="3" fill="#1f77b4"/>
<circle cx="387.6" cy="503.2" r="3" fill="#1f77b4"/>
<circle cx="391.0" cy="484.6" r="3" fill="#1f77b4"/>
<circle cx="394.5" cy="375.7" r="3" fill="#1f77b4"/>
<circle cx="397.9" cy="326.9" r="3" fill="#1f77b4"/>
<circle cx="401.4" cy="357.9" r="3" fill="#1f77b4"/>
<circle cx="404.8" cy="433.1" r="3" fill="#1f77b4"/>
<circle cx="408.2" cy="421.4" r="3" fill="#1f77b4"/>
<circle cx="411.7" cy="410.9" r="3" fill="#1f77b4"/>
<circle cx="415.1" cy="486.7" r="3" fill="#1f77b4"/>
<circle cx="418.6" cy="508.0" r="3" fill="#1f77b4"/>
<circle cx="422.0" cy="519.8" r="3" fill="#1f77b4"/>
<circle cx="425.5" cy="528.8" r="3" fill="#1f77b4"/>
<circle cx="428.9" cy="534.3" r="3" fill="#1f77b4"/>
<circle cx="432.3" cy="543.5" r="3" fill="#1f77b4"/>
<circle cx="435.8" cy="546.1" r="3" fill="#1f77b4"/>
<circle cx="439.2" cy="551.7" r="3" fill="#1f77b4"/>
<circle cx="442.7" cy="551.1" r="3" fill="#1f77b4"/>
<circle cx="446.1" cy="551.6" r="3" fill="#1f77b4"/>
<circle cx="449.5" cy="549.6" r="3" fill="#1f77b4"/>
<circle cx="453.0" cy="548.5" r="3" fill="#1f77b4"/>
<circle cx="456.4" cy="548.8" r="3" fill="#1f77b4"/>
<circle cx="459.9" cy="547.5" r="3" fill="#1f77b4"/>
<circle cx="463.3" cy="547.3" r="3" fill="#1f77b4"/>
<circle cx="466.8" cy="547.3" r="3" fill="#1f77b4"/>
<circle cx="470.2" cy="548.6" r="3" fill="#1f77b4"/>
<circle cx="473.6" cy="549.5" r="3" fill="#1f77b4"/>
<circle cx="477.1" cy="550.1" r="3" fill="#1f77b4"/>
<circle cx="480.5" cy="550.9" r="3" fill="#1f77b4"/>
<circle cx="484.0" cy="550.6" r="3" fill="#1f77b4"/>
<circle cx="487.4" cy="549.3" r="3" fill="#1f77b4"/>
<circle cx="490.9" cy="549.1" r="3" fill="#1f77b4"/>
<circle cx="494.3" cy="549.0" r="3" fill="#1f77b4"/>
<circle cx="497.7" cy="549.3" r="3" fill="#1f77b4"/>
<circle cx="501.2" cy="550.4" r="3" fill="#1f77b4"/>
<circle cx="504.6" cy="546.2" r="3" fill="#1f77b4"/>
<circle cx="508.1" cy="549.2" r="3" fill="#1f77b4"/>
<circle cx="511.5" cy="548.1" r="3" fill="#1f77b4"/>
<circle cx="514.9" cy="548.6" r="3" fill="#1f77b4"/>
<circle cx="518.4" cy="548.3" r="3" fill="#1f77b4"/>
<circle cx="521.8" cy="550.4" r="3" fill="#1f77b4"/>
<circle cx="525.3" cy="550.4" r="3" fill="#1f77b4"/>
<circle cx="528.7" cy="551.6" r="3" fill="#1f77b4"/>
<circle cx="532.2" cy="551.2" r="3" fill="#1f77b4"/>
<circle cx="535.6" cy="552.4" r="3" fill="#1f77b4"/>
<circle cx="539.0" cy="552.2" r="3" fill="#1f77b4"/>
<circle cx="542.5" cy="549.9" r="3" fill="#1f77b4"/>
<circle cx="545.9" cy="551.5" r="3" fill="#1f77b4"/>
<circle cx="549.4" cy="548.7" r="3" fill="#1f77b4"/>
<circle cx="552.8" cy="548.6" r="3" fill="#1f77b4"/>
<circle cx="556.3" cy="549.7" r="3" fill="#1f77b4"/>
<circle cx="559.7" cy="548.8" r="3" fill="#1f77b4"/>
<circle cx="563.1" cy="547.7" r="3" fill="#1f77b4"/>
<circle cx="566.6" cy="546.9" r="3" fill="#1f77b4"/>
<circle cx="570.0" cy="548.5" r="3" fill="#1f77b4"/>
<circle cx="573.5" cy="552.0" r="3" fill="#1f77b4"/>
<circle cx="576.9" cy="550.5" r="3" fill="#1f77b4"/>
<circle cx="580.4" cy="551.4" r="3" fill="#1f77b4"/>
<circle cx="583.8" cy="552.2" r="3" fill="#1f77b4"/>
<circle cx="587.2" cy="552.0" r="3" fill="#1f77b4"/>
<circle cx="590.7" cy="552.0" r="3" fill="#1f77b4"/>
<circle cx="594.1" cy="552.4" r="3" fill="#1f77b4"/>
<circle cx="597.6" cy="551.6" r="3" fill="#1f77b4"/>
<circle cx="601.0" cy="552.0" r="3" fill="#1f77b4"/>
<circle cx="604.4" cy="552.0" r="3" fill="#1f77b4"/>
<circle cx="607.9" cy="552.0" r="3" fill="#1f77b4"/>
<circle cx="611.3" cy="551.0" r="3" fill="#1f77b4"/>
<circle cx="614.8" cy="552.1" r="3" fill="#1f77b4"/>
<circle cx="618.2" cy="549.4" r="3" fill="#1f77b4"/>
<circle cx="621.7" cy="551.7" r="3" fill="#1f77b4"/>
<circle cx="625.1" cy="551.5" r="3" fill="#1f77b4"/>
<circle cx="628.5" cy="552.0" r="3" fill="#1f77b4"/>
<circle cx="632.0" cy="553.5" r="3" fill="#1f77b4"/>
<circle cx="635.4" cy="553.2" r="3" fill="#1f77b4"/>
<circle cx="638.9" cy="553.3" r="3" fill="#1f77b4"/>
<circle cx="642.3" cy="553.6" r="3" fill="#1f77b4"/>
<circle cx="645.8" cy="552.8" r="3" fill="#1f77b4"/>
<circle cx="649.2" cy="552.5" r="3" fill="#1f77b4"/>
<circle cx="652.6" cy="553.3" r="3" fill="#1f77b4"/>
<circle cx="656.1" cy="552.4" r="3" fill="#1f77b4"/>
<circle cx="659.5" cy="551.9" r="3" fill="#1f77b4"/>
<circle cx="663.0" cy="552.6" r="3" fill="#1f77b4"/>
<circle cx="666.4" cy="552.2" r="3" fill="#1f77b4"/>
<circle cx="669.8" cy="551.3" r="3" fill="#1f77b4"/>
<circle cx="673.3" cy="551.0" r="3" fill="#1f77b4"/>
<circle cx="676.7" cy="549.9" r="3" fill="#1f77b4"/>
<circle cx="680.2" cy="550.3" r="3" fill="#1f77b4"/>
<circle cx="683.6" cy="549.5" r="3" fill="#1f77b4"/>
<circle cx="687.1" cy="550.4" r="3" fill="#1f77b4"/>
<circle cx="690.5" cy="550.8" r="3" fill="#1f77b4"/>
<circle cx="693.9" cy="549.5" r="3" fill="#1f77b4"/>
<circle cx="697.4" cy="549.5" r="3" fill="#1f77b4"/>
<circle cx="700.8" cy="550.0" r="3" fill="#1f77b4"/>
<circle cx="704.3" cy="550.9" r="3" fill="#1f77b4"/>
<circle cx="707.7" cy="550.0" r="3" fill="#1f77b4"/>
<circle cx="711.2" cy="552.3" r="3" fill="#1f77b4"/>
<circle cx="714.6" cy="551.5" r="3" fill="#1f77b4"/>
<circle cx="718.0" cy="551.5" r="3" fill="#1f77b4"/>
<circle cx="721.5" cy="551.9" r="3" fill="#1f77b4"/>
<circle cx="724.9" cy="552.5" r="3" fill="#1f77b4"/>
<circle cx="728.4" cy="552.2" r="3" fill="#1f77b4"/>
<circle cx="731.8" cy="552.5" r="3" fill="#1f77b4"/>
<circle cx="735.3" cy="551.9" r="3" fill="#1f77b4"/>
<circle cx="738.7" cy="552.5" r="3" fill="#1f77b4"/>
<circle cx="742.1" cy="552.3" r="3" fill="#1f77b4"/>
<circle cx="745.6" cy="552.7" r="3" fill="#1f77b4"/>
<circle cx="749.0" cy="553.0" r="3" fill="#1f77b4"/>
<circle cx="752.5" cy="552.5" r="3" fill="#1f77b4"/>
<circle cx="755.9" cy="552.2" r="3" fill="#1f77b4"/>
<circle cx="759.3" cy="552.6" r="3" fill="#1f77b4"/>
<circle cx="762.8" cy="551.9" r="3" fill="#1f77b4"/>
<circle cx="766.2" cy="552.5" r="3" fill="#1f77b4"/>
<circle cx="769.7" cy="551.9" r="3" fill="#1f77b4"/>
<circle cx="773.1" cy="552.7" r="3" fill="#1f77b4"/>
<circle cx="776.6" cy="552.7" r="3" fill="#1f77b4"/>
<circle cx="780.0" cy="553.1" r="3" fill="#1f77b4"/>
<line x1="808" y1="96" x2="830" y2="96" stroke="#1f77b4" stroke-width="2.5"/>
<text x="838" y="100" font-family="Arial" font-size="13">r1_zero_reference</text>
<polyline fill="none" stroke="#d62728" stroke-width="2.3" points="95.0,526.4 98.4,532.9 101.9,537.4 105.3,534.7 108.8,536.7 112.2,534.7 115.7,537.9 119.1,536.3 122.5,536.2 126.0,536.4 129.4,539.7 132.9,538.6 136.3,539.2 139.7,538.3 143.2,538.0 146.6,539.5 150.1,537.4 153.5,539.2 157.0,540.6 160.4,538.2 163.8,537.1 167.3,539.0 170.7,538.7 174.2,541.8 177.6,540.3 181.1,539.4 184.5,540.6 187.9,539.3 191.4,538.6 194.8,541.1 198.3,540.7 201.7,540.5 205.2,540.4 208.6,539.7 212.0,538.3 215.5,538.4 218.9,538.6 222.4,539.3 225.8,541.4 229.2,539.3 232.7,540.2 236.1,539.8 239.6,542.3 243.0,539.2 246.5,540.9 249.9,539.2 253.3,538.6 256.8,541.9 260.2,540.4 263.7,541.0 267.1,541.5 270.6,542.3 274.0,543.3 277.4,539.8 280.9,540.7 284.3,539.8 287.8,541.2 291.2,540.9 294.6,540.7 298.1,538.3 301.5,540.8 305.0,540.8 308.4,540.4 311.9,540.0 315.3,539.8 318.7,539.1 322.2,541.0 325.6,537.9 329.1,541.4 332.5,541.3 336.0,538.5 339.4,542.2 342.8,542.2 346.3,540.4 349.7,543.9 353.2,542.0 356.6,543.3 360.1,541.5 363.5,541.1 366.9,541.0 370.4,539.2 373.8,540.8 377.3,541.1 380.7,540.7 384.1,543.0 387.6,541.7 391.0,542.9 394.5,540.0 397.9,541.6 401.4,543.3 404.8,540.9 408.2,541.6 411.7,540.3 415.1,540.7 418.6,542.4 422.0,541.3 425.5,541.3 428.9,542.6 432.3,543.2 435.8,541.8 439.2,542.6 442.7,541.9 446.1,543.0 449.5,544.0 453.0,543.5 456.4,543.0 459.9,543.7 463.3,543.1 466.8,543.9 470.2,543.0 473.6,543.7 477.1,543.8 480.5,544.1 484.0,544.2 487.4,542.9 490.9,543.2 494.3,542.9 497.7,544.1 501.2,543.5 504.6,541.6 508.1,543.2 511.5,544.3 514.9,544.2 518.4,545.5 521.8,542.1 525.3,542.3 528.7,542.4 532.2,542.4 535.6,544.0 539.0,542.2 542.5,540.9 545.9,543.5 549.4,541.6 552.8,542.9 556.3,544.0 559.7,544.5 563.1,541.3 566.6,543.7 570.0,543.6 573.5,542.6 576.9,544.8 580.4,545.4 583.8,545.4 587.2,544.4 590.7,543.3 594.1,544.3 597.6,542.4 601.0,545.2 604.4,543.5 607.9,543.0 611.3,544.0 614.8,542.8 618.2,544.0 621.7,545.0 625.1,543.6 628.5,543.6 632.0,545.6 635.4,545.2 638.9,545.9 642.3,544.3 645.8,545.2 649.2,545.4 652.6,546.2 656.1,543.8 659.5,542.9 663.0,543.7 666.4,545.3 669.8,543.8 673.3,543.6 676.7,545.0 680.2,544.1 683.6,542.9 687.1,544.8 690.5,545.9 693.9,543.7 697.4,544.1 700.8,546.0 704.3,545.1 707.7,544.4 711.2,546.1 714.6,544.4 718.0,544.9 721.5,545.8 724.9,546.0 728.4,545.9 731.8,546.3 735.3,546.0 738.7,545.2 742.1,546.0 745.6,546.1 749.0,545.7 752.5,547.5 755.9,544.8 759.3,545.3 762.8,544.4 766.2,544.8 769.7,544.3 773.1,545.2 776.6,545.3 780.0,546.0"/>
<circle cx="95.0" cy="526.4" r="3" fill="#d62728"/>
<circle cx="98.4" cy="532.9" r="3" fill="#d62728"/>
<circle cx="101.9" cy="537.4" r="3" fill="#d62728"/>
<circle cx="105.3" cy="534.7" r="3" fill="#d62728"/>
<circle cx="108.8" cy="536.7" r="3" fill="#d62728"/>
<circle cx="112.2" cy="534.7" r="3" fill="#d62728"/>
<circle cx="115.7" cy="537.9" r="3" fill="#d62728"/>
<circle cx="119.1" cy="536.3" r="3" fill="#d62728"/>
<circle cx="122.5" cy="536.2" r="3" fill="#d62728"/>
<circle cx="126.0" cy="536.4" r="3" fill="#d62728"/>
<circle cx="129.4" cy="539.7" r="3" fill="#d62728"/>
<circle cx="132.9" cy="538.6" r="3" fill="#d62728"/>
<circle cx="136.3" cy="539.2" r="3" fill="#d62728"/>
<circle cx="139.7" cy="538.3" r="3" fill="#d62728"/>
<circle cx="143.2" cy="538.0" r="3" fill="#d62728"/>
<circle cx="146.6" cy="539.5" r="3" fill="#d62728"/>
<circle cx="150.1" cy="537.4" r="3" fill="#d62728"/>
<circle cx="153.5" cy="539.2" r="3" fill="#d62728"/>
<circle cx="157.0" cy="540.6" r="3" fill="#d62728"/>
<circle cx="160.4" cy="538.2" r="3" fill="#d62728"/>
<circle cx="163.8" cy="537.1" r="3" fill="#d62728"/>
<circle cx="167.3" cy="539.0" r="3" fill="#d62728"/>
<circle cx="170.7" cy="538.7" r="3" fill="#d62728"/>
<circle cx="174.2" cy="541.8" r="3" fill="#d62728"/>
<circle cx="177.6" cy="540.3" r="3" fill="#d62728"/>
<circle cx="181.1" cy="539.4" r="3" fill="#d62728"/>
<circle cx="184.5" cy="540.6" r="3" fill="#d62728"/>
<circle cx="187.9" cy="539.3" r="3" fill="#d62728"/>
<circle cx="191.4" cy="538.6" r="3" fill="#d62728"/>
<circle cx="194.8" cy="541.1" r="3" fill="#d62728"/>
<circle cx="198.3" cy="540.7" r="3" fill="#d62728"/>
<circle cx="201.7" cy="540.5" r="3" fill="#d62728"/>
<circle cx="205.2" cy="540.4" r="3" fill="#d62728"/>
<circle cx="208.6" cy="539.7" r="3" fill="#d62728"/>
<circle cx="212.0" cy="538.3" r="3" fill="#d62728"/>
<circle cx="215.5" cy="538.4" r="3" fill="#d62728"/>
<circle cx="218.9" cy="538.6" r="3" fill="#d62728"/>
<circle cx="222.4" cy="539.3" r="3" fill="#d62728"/>
<circle cx="225.8" cy="541.4" r="3" fill="#d62728"/>
<circle cx="229.2" cy="539.3" r="3" fill="#d62728"/>
<circle cx="232.7" cy="540.2" r="3" fill="#d62728"/>
<circle cx="236.1" cy="539.8" r="3" fill="#d62728"/>
<circle cx="239.6" cy="542.3" r="3" fill="#d62728"/>
<circle cx="243.0" cy="539.2" r="3" fill="#d62728"/>
<circle cx="246.5" cy="540.9" r="3" fill="#d62728"/>
<circle cx="249.9" cy="539.2" r="3" fill="#d62728"/>
<circle cx="253.3" cy="538.6" r="3" fill="#d62728"/>
<circle cx="256.8" cy="541.9" r="3" fill="#d62728"/>
<circle cx="260.2" cy="540.4" r="3" fill="#d62728"/>
<circle cx="263.7" cy="541.0" r="3" fill="#d62728"/>
<circle cx="267.1" cy="541.5" r="3" fill="#d62728"/>
<circle cx="270.6" cy="542.3" r="3" fill="#d62728"/>
<circle cx="274.0" cy="543.3" r="3" fill="#d62728"/>
<circle cx="277.4" cy="539.8" r="3" fill="#d62728"/>
<circle cx="280.9" cy="540.7" r="3" fill="#d62728"/>
<circle cx="284.3" cy="539.8" r="3" fill="#d62728"/>
<circle cx="287.8" cy="541.2" r="3" fill="#d62728"/>
<circle cx="291.2" cy="540.9" r="3" fill="#d62728"/>
<circle cx="294.6" cy="540.7" r="3" fill="#d62728"/>
<circle cx="298.1" cy="538.3" r="3" fill="#d62728"/>
<circle cx="301.5" cy="540.8" r="3" fill="#d62728"/>
<circle cx="305.0" cy="540.8" r="3" fill="#d62728"/>
<circle cx="308.4" cy="540.4" r="3" fill="#d62728"/>
<circle cx="311.9" cy="540.0" r="3" fill="#d62728"/>
<circle cx="315.3" cy="539.8" r="3" fill="#d62728"/>
<circle cx="318.7" cy="539.1" r="3" fill="#d62728"/>
<circle cx="322.2" cy="541.0" r="3" fill="#d62728"/>
<circle cx="325.6" cy="537.9" r="3" fill="#d62728"/>
<circle cx="329.1" cy="541.4" r="3" fill="#d62728"/>
<circle cx="332.5" cy="541.3" r="3" fill="#d62728"/>
<circle cx="336.0" cy="538.5" r="3" fill="#d62728"/>
<circle cx="339.4" cy="542.2" r="3" fill="#d62728"/>
<circle cx="342.8" cy="542.2" r="3" fill="#d62728"/>
<circle cx="346.3" cy="540.4" r="3" fill="#d62728"/>
<circle cx="349.7" cy="543.9" r="3" fill="#d62728"/>
<circle cx="353.2" cy="542.0" r="3" fill="#d62728"/>
<circle cx="356.6" cy="543.3" r="3" fill="#d62728"/>
<circle cx="360.1" cy="541.5" r="3" fill="#d62728"/>
<circle cx="363.5" cy="541.1" r="3" fill="#d62728"/>
<circle cx="366.9" cy="541.0" r="3" fill="#d62728"/>
<circle cx="370.4" cy="539.2" r="3" fill="#d62728"/>
<circle cx="373.8" cy="540.8" r="3" fill="#d62728"/>
<circle cx="377.3" cy="541.1" r="3" fill="#d62728"/>
<circle cx="380.7" cy="540.7" r="3" fill="#d62728"/>
<circle cx="384.1" cy="543.0" r="3" fill="#d62728"/>
<circle cx="387.6" cy="541.7" r="3" fill="#d62728"/>
<circle cx="391.0" cy="542.9" r="3" fill="#d62728"/>
<circle cx="394.5" cy="540.0" r="3" fill="#d62728"/>
<circle cx="397.9" cy="541.6" r="3" fill="#d62728"/>
<circle cx="401.4" cy="543.3" r="3" fill="#d62728"/>
<circle cx="404.8" cy="540.9" r="3" fill="#d62728"/>
<circle cx="408.2" cy="541.6" r="3" fill="#d62728"/>
<circle cx="411.7" cy="540.3" r="3" fill="#d62728"/>
<circle cx="415.1" cy="540.7" r="3" fill="#d62728"/>
<circle cx="418.6" cy="542.4" r="3" fill="#d62728"/>
<circle cx="422.0" cy="541.3" r="3" fill="#d62728"/>
<circle cx="425.5" cy="541.3" r="3" fill="#d62728"/>
<circle cx="428.9" cy="542.6" r="3" fill="#d62728"/>
<circle cx="432.3" cy="543.2" r="3" fill="#d62728"/>
<circle cx="435.8" cy="541.8" r="3" fill="#d62728"/>
<circle cx="439.2" cy="542.6" r="3" fill="#d62728"/>
<circle cx="442.7" cy="541.9" r="3" fill="#d62728"/>
<circle cx="446.1" cy="543.0" r="3" fill="#d62728"/>
<circle cx="449.5" cy="544.0" r="3" fill="#d62728"/>
<circle cx="453.0" cy="543.5" r="3" fill="#d62728"/>
<circle cx="456.4" cy="543.0" r="3" fill="#d62728"/>
<circle cx="459.9" cy="543.7" r="3" fill="#d62728"/>
<circle cx="463.3" cy="543.1" r="3" fill="#d62728"/>
<circle cx="466.8" cy="543.9" r="3" fill="#d62728"/>
<circle cx="470.2" cy="543.0" r="3" fill="#d62728"/>
<circle cx="473.6" cy="543.7" r="3" fill="#d62728"/>
<circle cx="477.1" cy="543.8" r="3" fill="#d62728"/>
<circle cx="480.5" cy="544.1" r="3" fill="#d62728"/>
<circle cx="484.0" cy="544.2" r="3" fill="#d62728"/>
<circle cx="487.4" cy="542.9" r="3" fill="#d62728"/>
<circle cx="490.9" cy="543.2" r="3" fill="#d62728"/>
<circle cx="494.3" cy="542.9" r="3" fill="#d62728"/>
<circle cx="497.7" cy="544.1" r="3" fill="#d62728"/>
<circle cx="501.2" cy="543.5" r="3" fill="#d62728"/>
<circle cx="504.6" cy="541.6" r="3" fill="#d62728"/>
<circle cx="508.1" cy="543.2" r="3" fill="#d62728"/>
<circle cx="511.5" cy="544.3" r="3" fill="#d62728"/>
<circle cx="514.9" cy="544.2" r="3" fill="#d62728"/>
<circle cx="518.4" cy="545.5" r="3" fill="#d62728"/>
<circle cx="521.8" cy="542.1" r="3" fill="#d62728"/>
<circle cx="525.3" cy="542.3" r="3" fill="#d62728"/>
<circle cx="528.7" cy="542.4" r="3" fill="#d62728"/>
<circle cx="532.2" cy="542.4" r="3" fill="#d62728"/>
<circle cx="535.6" cy="544.0" r="3" fill="#d62728"/>
<circle cx="539.0" cy="542.2" r="3" fill="#d62728"/>
<circle cx="542.5" cy="540.9" r="3" fill="#d62728"/>
<circle cx="545.9" cy="543.5" r="3" fill="#d62728"/>
<circle cx="549.4" cy="541.6" r="3" fill="#d62728"/>
<circle cx="552.8" cy="542.9" r="3" fill="#d62728"/>
<circle cx="556.3" cy="544.0" r="3" fill="#d62728"/>
<circle cx="559.7" cy="544.5" r="3" fill="#d62728"/>
<circle cx="563.1" cy="541.3" r="3" fill="#d62728"/>
<circle cx="566.6" cy="543.7" r="3" fill="#d62728"/>
<circle cx="570.0" cy="543.6" r="3" fill="#d62728"/>
<circle cx="573.5" cy="542.6" r="3" fill="#d62728"/>
<circle cx="576.9" cy="544.8" r="3" fill="#d62728"/>
<circle cx="580.4" cy="545.4" r="3" fill="#d62728"/>
<circle cx="583.8" cy="545.4" r="3" fill="#d62728"/>
<circle cx="587.2" cy="544.4" r="3" fill="#d62728"/>
<circle cx="590.7" cy="543.3" r="3" fill="#d62728"/>
<circle cx="594.1" cy="544.3" r="3" fill="#d62728"/>
<circle cx="597.6" cy="542.4" r="3" fill="#d62728"/>
<circle cx="601.0" cy="545.2" r="3" fill="#d62728"/>
<circle cx="604.4" cy="543.5" r="3" fill="#d62728"/>
<circle cx="607.9" cy="543.0" r="3" fill="#d62728"/>
<circle cx="611.3" cy="544.0" r="3" fill="#d62728"/>
<circle cx="614.8" cy="542.8" r="3" fill="#d62728"/>
<circle cx="618.2" cy="544.0" r="3" fill="#d62728"/>
<circle cx="621.7" cy="545.0" r="3" fill="#d62728"/>
<circle cx="625.1" cy="543.6" r="3" fill="#d62728"/>
<circle cx="628.5" cy="543.6" r="3" fill="#d62728"/>
<circle cx="632.0" cy="545.6" r="3" fill="#d62728"/>
<circle cx="635.4" cy="545.2" r="3" fill="#d62728"/>
<circle cx="638.9" cy="545.9" r="3" fill="#d62728"/>
<circle cx="642.3" cy="544.3" r="3" fill="#d62728"/>
<circle cx="645.8" cy="545.2" r="3" fill="#d62728"/>
<circle cx="649.2" cy="545.4" r="3" fill="#d62728"/>
<circle cx="652.6" cy="546.2" r="3" fill="#d62728"/>
<circle cx="656.1" cy="543.8" r="3" fill="#d62728"/>
<circle cx="659.5" cy="542.9" r="3" fill="#d62728"/>
<circle cx="663.0" cy="543.7" r="3" fill="#d62728"/>
<circle cx="666.4" cy="545.3" r="3" fill="#d62728"/>
<circle cx="669.8" cy="543.8" r="3" fill="#d62728"/>
<circle cx="673.3" cy="543.6" r="3" fill="#d62728"/>
<circle cx="676.7" cy="545.0" r="3" fill="#d62728"/>
<circle cx="680.2" cy="544.1" r="3" fill="#d62728"/>
<circle cx="683.6" cy="542.9" r="3" fill="#d62728"/>
<circle cx="687.1" cy="544.8" r="3" fill="#d62728"/>
<circle cx="690.5" cy="545.9" r="3" fill="#d62728"/>
<circle cx="693.9" cy="543.7" r="3" fill="#d62728"/>
<circle cx="697.4" cy="544.1" r="3" fill="#d62728"/>
<circle cx="700.8" cy="546.0" r="3" fill="#d62728"/>
<circle cx="704.3" cy="545.1" r="3" fill="#d62728"/>
<circle cx="707.7" cy="544.4" r="3" fill="#d62728"/>
<circle cx="711.2" cy="546.1" r="3" fill="#d62728"/>
<circle cx="714.6" cy="544.4" r="3" fill="#d62728"/>
<circle cx="718.0" cy="544.9" r="3" fill="#d62728"/>
<circle cx="721.5" cy="545.8" r="3" fill="#d62728"/>
<circle cx="724.9" cy="546.0" r="3" fill="#d62728"/>
<circle cx="728.4" cy="545.9" r="3" fill="#d62728"/>
<circle cx="731.8" cy="546.3" r="3" fill="#d62728"/>
<circle cx="735.3" cy="546.0" r="3" fill="#d62728"/>
<circle cx="738.7" cy="545.2" r="3" fill="#d62728"/>
<circle cx="742.1" cy="546.0" r="3" fill="#d62728"/>
<circle cx="745.6" cy="546.1" r="3" fill="#d62728"/>
<circle cx="749.0" cy="545.7" r="3" fill="#d62728"/>
<circle cx="752.5" cy="547.5" r="3" fill="#d62728"/>
<circle cx="755.9" cy="544.8" r="3" fill="#d62728"/>
<circle cx="759.3" cy="545.3" r="3" fill="#d62728"/>
<circle cx="762.8" cy="544.4" r="3" fill="#d62728"/>
<circle cx="766.2" cy="544.8" r="3" fill="#d62728"/>
<circle cx="769.7" cy="544.3" r="3" fill="#d62728"/>
<circle cx="773.1" cy="545.2" r="3" fill="#d62728"/>
<circle cx="776.6" cy="545.3" r="3" fill="#d62728"/>
<circle cx="780.0" cy="546.0" r="3" fill="#d62728"/>
<line x1="808" y1="121" x2="830" y2="121" stroke="#d62728" stroke-width="2.5"/>
<text x="838" y="125" font-family="Arial" font-size="13">question_only</text>
<text x="437.5" y="618" text-anchor="middle" font-family="Arial" font-size="15">GRPO step</text>
<text x="24" y="316.0" text-anchor="middle" font-family="Arial" font-size="15" transform="rotate(-90 24 316.0)">Token entropy (nats)</text>
</svg>
