<svg xmlns="http://www.w3.org/2000/svg" width="1040" height="640" viewBox="0 0 1040 640">
<rect width="100%" height="100%" fill="white"/>
<text x="520.0" y="36" text-anchor="middle" font-family="Arial" font-size="22" font-weight="700">GRPO prompt ablation: rollout response length</text>
<line x1="95" y1="558" x2="780" y2="558" stroke="#222" stroke-width="1.5"/>
<line x1="95" y1="74" x2="95" y2="558" stroke="#222" stroke-width="1.5"/>
<line x1="90" y1="558.0" x2="780" y2="558.0" stroke="#ddd" stroke-width="1"/>
<text x="83" y="562.0" text-anchor="end" font-family="Arial" font-size="12">0.00</text>
<line x1="90" y1="461.2" x2="780" y2="461.2" stroke="#ddd" stroke-width="1"/>
<text x="83" y="465.2" text-anchor="end" font-family="Arial" font-size="12">133.12</text>
<line x1="90" y1="364.4" x2="780" y2="364.4" stroke="#ddd" stroke-width="1"/>
<text x="83" y="368.4" text-anchor="end" font-family="Arial" font-size="12">266.24</text>
<line x1="90" y1="267.6" x2="780" y2="267.6" stroke="#ddd" stroke-width="1"/>
<text x="83" y="271.6" text-anchor="end" font-family="Arial" font-size="12">399.36</text>
<line x1="90" y1="170.8" x2="780" y2="170.8" stroke="#ddd" stroke-width="1"/>
<text x="83" y="174.8" text-anchor="end" font-family="Arial" font-size="12">532.48</text>
<line x1="90" y1="74.0" x2="780" y2="74.0" stroke="#ddd" stroke-width="1"/>
<text x="83" y="78.0" text-anchor="end" font-family="Arial" font-size="12">665.60</text>
<line x1="95.0" y1="558" x2="95.0" y2="563" stroke="#222" stroke-width="1"/>
<text x="95.0" y="582" text-anchor="middle" font-family="Arial" font-size="12">1</text>
<line x1="232.0" y1="558" x2="232.0" y2="563" stroke="#222" stroke-width="1"/>
<text x="232.0" y="582" text-anchor="middle" font-family="Arial" font-size="12">41</text>
<line x1="369.0" y1="558" x2="369.0" y2="563" stroke="#222" stroke-width="1"/>
<text x="369.0" y="582" text-anchor="middle" font-family="Arial" font-size="12">81</text>
<line x1="506.0" y1="558" x2="506.0" y2="563" stroke="#222" stroke-width="1"/>
<text x="506.0" y="582" text-anchor="middle" font-family="Arial" font-size="12">120</text>
<line x1="643.0" y1="558" x2="643.0" y2="563" stroke="#222" stroke-width="1"/>
<text x="643.0" y="582" text-anchor="middle" font-family="Arial" font-size="12">160</text>
<line x1="780.0" y1="558" x2="780.0" y2="563" stroke="#222" stroke-width="1"/>
<text x="780.0" y="582" text-anchor="middle" font-family="Arial" font-size="12">200</text>
<polyline fill="none" stroke="#1f77b4" stroke-width="2.3" points="95.0,336.1 98.4,445.7 101.9,458.8 105.3,417.7 108.8,400.2 112.2,350.7 115.7,383.6 119.1,372.0 122.5,385.0 126.0,373.5 129.4,370.7 132.9,419.0 136.3,390.9 139.7,366.9 143.2,344.3 146.6,356.1 150.1,351.8 153.5,333.8 157.0,354.2 160.4,360.0 163.8,358.5 167.3,350.0 170.7,355.5 174.2,352.6 177.6,387.2 181.1,367.1 184.5,384.0 187.9,371.8 191.4,352.0 194.8,352.9 198.3,368.0 201.7,366.5 205.2,371.5 208.6,340.6 212.0,323.7 215.5,335.8 218.9,336.3 222.4,336.3 225.8,374.4 229.2,322.4 232.7,353.1 236.1,326.6 239.6,351.8 243.0,352.6 246.5,308.4 249.9,333.7 253.3,380.9 256.8,289.7 260.2,330.1 263.7,354.4 267.1,323.7 270.6,340.4 274.0,326.5 277.4,362.6 280.9,333.3 284.3,319.8 287.8,366.9 291.2,328.5 294.6,346.9 298.1,325.2 301.5,361.3 305.0,350.6 308.4,387.0 311.9,326.0 315.3,353.0 318.7,353.2 322.2,307.6 325.6,335.7 329.1,348.6 332.5,334.8 336.0,279.6 339.4,342.6 342.8,326.4 346.3,318.5 349.7,318.7 353.2,326.5 356.6,281.3 360.1,342.5 363.5,342.5 366.9,360.1 370.4,351.7 373.8,370.3 377.3,338.3 380.7,294.8 384.1,327.0 387.6,361.6 391.0,365.7 394.5,338.8 397.9,368.5 401.4,376.5 404.8,310.4 408.2,295.8 411.7,347.7 415.1,321.1 418.6,336.8 422.0,326.3 425.5,304.6 428.9,296.8 432.3,309.3 435.8,293.7 439.2,262.5 442.7,357.8 446.1,326.4 449.5,329.8 453.0,338.1 456.4,298.5 459.9,288.9 463.3,282.0 466.8,305.0 470.2,316.3 473.6,263.9 477.1,293.0 480.5,332.8 484.0,298.8 487.4,329.7 490.9,280.4 494.3,344.0 497.7,337.7 501.2,320.2 504.6,324.6 508.1,301.8 511.5,232.0 514.9,272.6 518.4,355.0 521.8,330.5 525.3,334.9 528.7,303.6 532.2,302.8 535.6,323.9 539.0,331.7 542.5,321.4 545.9,315.0 549.4,339.7 552.8,334.7 556.3,340.2 559.7,345.2 563.1,344.6 566.6,335.7 570.0,348.4 573.5,277.4 576.9,305.7 580.4,322.1 583.8,349.3 587.2,303.5 590.7,319.5 594.1,329.7 597.6,333.8 601.0,308.4 604.4,281.0 607.9,301.4 611.3,307.5 614.8,291.6 618.2,350.2 621.7,303.8 625.1,334.0 628.5,323.5 632.0,225.1 635.4,295.8 638.9,245.7 642.3,222.0 645.8,276.9 649.2,349.3 652.6,290.2 656.1,270.9 659.5,295.9 663.0,301.0 666.4,303.6 669.8,334.3 673.3,310.3 676.7,327.9 680.2,330.1 683.6,321.4 687.1,306.8 690.5,297.2 693.9,319.1 697.4,317.2 700.8,298.1 704.3,309.2 707.7,343.7 711.2,313.6 714.6,294.2 718.0,324.5 721.5,357.8 724.9,336.5 728.4,357.2 731.8,308.9 735.3,344.3 738.7,321.3 742.1,307.5 745.6,291.9 749.0,290.4 752.5,355.7 755.9,338.7 759.3,324.3 762.8,282.9 766.2,262.7 769.7,323.9 773.1,276.2 776.6,298.1 780.0,316.1"/>
<circle cx="95.0" cy="336.1" r="3" fill="#1f77b4"/>
<circle cx="98.4" cy="445.7" r="3" fill="#1f77b4"/>
<circle cx="101.9" cy="458.8" r="3" fill="#1f77b4"/>
<circle cx="105.3" cy="417.7" r="3" fill="#1f77b4"/>
<circle cx="108.8" cy="400.2" r="3" fill="#1f77b4"/>
<circle cx="112.2" cy="350.7" r="3" fill="#1f77b4"/>
<circle cx="115.7" cy="383.6" r="3" fill="#1f77b4"/>
<circle cx="119.1" cy="372.0" r="3" fill="#1f77b4"/>
<circle cx="122.5" cy="385.0" r="3" fill="#1f77b4"/>
<circle cx="126.0" cy="373.5" r="3" fill="#1f77b4"/>
<circle cx="129.4" cy="370.7" r="3" fill="#1f77b4"/>
<circle cx="132.9" cy="419.0" r="3" fill="#1f77b4"/>
<circle cx="136.3" cy="390.9" r="3" fill="#1f77b4"/>
<circle cx="139.7" cy="366.9" r="3" fill="#1f77b4"/>
<circle cx="143.2" cy="344.3" r="3" fill="#1f77b4"/>
<circle cx="146.6" cy="356.1" r="3" fill="#1f77b4"/>
<circle cx="150.1" cy="351.8" r="3" fill="#1f77b4"/>
<circle cx="153.5" cy="333.8" r="3" fill="#1f77b4"/>
<circle cx="157.0" cy="354.2" r="3" fill="#1f77b4"/>
<circle cx="160.4" cy="360.0" r="3" fill="#1f77b4"/>
<circle cx="163.8" cy="358.5" r="3" fill="#1f77b4"/>
<circle cx="167.3" cy="350.0" r="3" fill="#1f77b4"/>
<circle cx="170.7" cy="355.5" r="3" fill="#1f77b4"/>
<circle cx="174.2" cy="352.6" r="3" fill="#1f77b4"/>
<circle cx="177.6" cy="387.2" r="3" fill="#1f77b4"/>
<circle cx="181.1" cy="367.1" r="3" fill="#1f77b4"/>
<circle cx="184.5" cy="384.0" r="3" fill="#1f77b4"/>
<circle cx="187.9" cy="371.8" r="3" fill="#1f77b4"/>
<circle cx="191.4" cy="352.0" r="3" fill="#1f77b4"/>
<circle cx="194.8" cy="352.9" r="3" fill="#1f77b4"/>
<circle cx="198.3" cy="368.0" r="3" fill="#1f77b4"/>
<circle cx="201.7" cy="366.5" r="3" fill="#1f77b4"/>
<circle cx="205.2" cy="371.5" r="3" fill="#1f77b4"/>
<circle cx="208.6" cy="340.6" r="3" fill="#1f77b4"/>
<circle cx="212.0" cy="323.7" r="3" fill="#1f77b4"/>
<circle cx="215.5" cy="335.8" r="3" fill="#1f77b4"/>
<circle cx="218.9" cy="336.3" r="3" fill="#1f77b4"/>
<circle cx="222.4" cy="336.3" r="3" fill="#1f77b4"/>
<circle cx="225.8" cy="374.4" r="3" fill="#1f77b4"/>
<circle cx="229.2" cy="322.4" r="3" fill="#1f77b4"/>
<circle cx="232.7" cy="353.1" r="3" fill="#1f77b4"/>
<circle cx="236.1" cy="326.6" r="3" fill="#1f77b4"/>
<circle cx="239.6" cy="351.8" r="3" fill="#1f77b4"/>
<circle cx="243.0" cy="352.6" r="3" fill="#1f77b4"/>
<circle cx="246.5" cy="308.4" r="3" fill="#1f77b4"/>
<circle cx="249.9" cy="333.7" r="3" fill="#1f77b4"/>
<circle cx="253.3" cy="380.9" r="3" fill="#1f77b4"/>
<circle cx="256.8" cy="289.7" r="3" fill="#1f77b4"/>
<circle cx="260.2" cy="330.1" r="3" fill="#1f77b4"/>
<circle cx="263.7" cy="354.4" r="3" fill="#1f77b4"/>
<circle cx="267.1" cy="323.7" r="3" fill="#1f77b4"/>
<circle cx="270.6" cy="340.4" r="3" fill="#1f77b4"/>
<circle cx="274.0" cy="326.5" r="3" fill="#1f77b4"/>
<circle cx="277.4" cy="362.6" r="3" fill="#1f77b4"/>
<circle cx="280.9" cy="333.3" r="3" fill="#1f77b4"/>
<circle cx="284.3" cy="319.8" r="3" fill="#1f77b4"/>
<circle cx="287.8" cy="366.9" r="3" fill="#1f77b4"/>
<circle cx="291.2" cy="328.5" r="3" fill="#1f77b4"/>
<circle cx="294.6" cy="346.9" r="3" fill="#1f77b4"/>
<circle cx="298.1" cy="325.2" r="3" fill="#1f77b4"/>
<circle cx="301.5" cy="361.3" r="3" fill="#1f77b4"/>
<circle cx="305.0" cy="350.6" r="3" fill="#1f77b4"/>
<circle cx="308.4" cy="387.0" r="3" fill="#1f77b4"/>
<circle cx="311.9" cy="326.0" r="3" fill="#1f77b4"/>
<circle cx="315.3" cy="353.0" r="3" fill="#1f77b4"/>
<circle cx="318.7" cy="353.2" r="3" fill="#1f77b4"/>
<circle cx="322.2" cy="307.6" r="3" fill="#1f77b4"/>
<circle cx="325.6" cy="335.7" r="3" fill="#1f77b4"/>
<circle cx="329.1" cy="348.6" r="3" fill="#1f77b4"/>
<circle cx="332.5" cy="334.8" r="3" fill="#1f77b4"/>
<circle cx="336.0" cy="279.6" r="3" fill="#1f77b4"/>
<circle cx="339.4" cy="342.6" r="3" fill="#1f77b4"/>
<circle cx="342.8" cy="326.4" r="3" fill="#1f77b4"/>
<circle cx="346.3" cy="318.5" r="3" fill="#1f77b4"/>
<circle cx="349.7" cy="318.7" r="3" fill="#1f77b4"/>
<circle cx="353.2" cy="326.5" r="3" fill="#1f77b4"/>
<circle cx="356.6" cy="281.3" r="3" fill="#1f77b4"/>
<circle cx="360.1" cy="342.5" r="3" fill="#1f77b4"/>
<circle cx="363.5" cy="342.5" r="3" fill="#1f77b4"/>
<circle cx="366.9" cy="360.1" r="3" fill="#1f77b4"/>
<circle cx="370.4" cy="351.7" r="3" fill="#1f77b4"/>
<circle cx="373.8" cy="370.3" r="3" fill="#1f77b4"/>
<circle cx="377.3" cy="338.3" r="3" fill="#1f77b4"/>
<circle cx="380.7" cy="294.8" r="3" fill="#1f77b4"/>
<circle cx="384.1" cy="327.0" r="3" fill="#1f77b4"/>
<circle cx="387.6" cy="361.6" r="3" fill="#1f77b4"/>
<circle cx="391.0" cy="365.7" r="3" fill="#1f77b4"/>
<circle cx="394.5" cy="338.8" r="3" fill="#1f77b4"/>
<circle cx="397.9" cy="368.5" r="3" fill="#1f77b4"/>
<circle cx="401.4" cy="376.5" r="3" fill="#1f77b4"/>
<circle cx="404.8" cy="310.4" r="3" fill="#1f77b4"/>
<circle cx="408.2" cy="295.8" r="3" fill="#1f77b4"/>
<circle cx="411.7" cy="347.7" r="3" fill="#1f77b4"/>
<circle cx="415.1" cy="321.1" r="3" fill="#1f77b4"/>
<circle cx="418.6" cy="336.8" r="3" fill="#1f77b4"/>
<circle cx="422.0" cy="326.3" r="3" fill="#1f77b4"/>
<circle cx="425.5" cy="304.6" r="3" fill="#1f77b4"/>
<circle cx="428.9" cy="296.8" r="3" fill="#1f77b4"/>
<circle cx="432.3" cy="309.3" r="3" fill="#1f77b4"/>
<circle cx="435.8" cy="293.7" r="3" fill="#1f77b4"/>
<circle cx="439.2" cy="262.5" r="3" fill="#1f77b4"/>
<circle cx="442.7" cy="357.8" r="3" fill="#1f77b4"/>
<circle cx="446.1" cy="326.4" r="3" fill="#1f77b4"/>
<circle cx="449.5" cy="329.8" r="3" fill="#1f77b4"/>
<circle cx="453.0" cy="338.1" r="3" fill="#1f77b4"/>
<circle cx="456.4" cy="298.5" r="3" fill="#1f77b4"/>
<circle cx="459.9" cy="288.9" r="3" fill="#1f77b4"/>
<circle cx="463.3" cy="282.0" r="3" fill="#1f77b4"/>
<circle cx="466.8" cy="305.0" r="3" fill="#1f77b4"/>
<circle cx="470.2" cy="316.3" r="3" fill="#1f77b4"/>
<circle cx="473.6" cy="263.9" r="3" fill="#1f77b4"/>
<circle cx="477.1" cy="293.0" r="3" fill="#1f77b4"/>
<circle cx="480.5" cy="332.8" r="3" fill="#1f77b4"/>
<circle cx="484.0" cy="298.8" r="3" fill="#1f77b4"/>
<circle cx="487.4" cy="329.7" r="3" fill="#1f77b4"/>
<circle cx="490.9" cy="280.4" r="3" fill="#1f77b4"/>
<circle cx="494.3" cy="344.0" r="3" fill="#1f77b4"/>
<circle cx="497.7" cy="337.7" r="3" fill="#1f77b4"/>
<circle cx="501.2" cy="320.2" r="3" fill="#1f77b4"/>
<circle cx="504.6" cy="324.6" r="3" fill="#1f77b4"/>
<circle cx="508.1" cy="301.8" r="3" fill="#1f77b4"/>
<circle cx="511.5" cy="232.0" r="3" fill="#1f77b4"/>
<circle cx="514.9" cy="272.6" r="3" fill="#1f77b4"/>
<circle cx="518.4" cy="355.0" r="3" fill="#1f77b4"/>
<circle cx="521.8" cy="330.5" r="3" fill="#1f77b4"/>
<circle cx="525.3" cy="334.9" r="3" fill="#1f77b4"/>
<circle cx="528.7" cy="303.6" r="3" fill="#1f77b4"/>
<circle cx="532.2" cy="302.8" r="3" fill="#1f77b4"/>
<circle cx="535.6" cy="323.9" r="3" fill="#1f77b4"/>
<circle cx="539.0" cy="331.7" r="3" fill="#1f77b4"/>
<circle cx="542.5" cy="321.4" r="3" fill="#1f77b4"/>
<circle cx="545.9" cy="315.0" r="3" fill="#1f77b4"/>
<circle cx="549.4" cy="339.7" r="3" fill="#1f77b4"/>
<circle cx="552.8" cy="334.7" r="3" fill="#1f77b4"/>
<circle cx="556.3" cy="340.2" r="3" fill="#1f77b4"/>
<circle cx="559.7" cy="345.2" r="3" fill="#1f77b4"/>
<circle cx="563.1" cy="344.6" r="3" fill="#1f77b4"/>
<circle cx="566.6" cy="335.7" r="3" fill="#1f77b4"/>
<circle cx="570.0" cy="348.4" r="3" fill="#1f77b4"/>
<circle cx="573.5" cy="277.4" r="3" fill="#1f77b4"/>
<circle cx="576.9" cy="305.7" r="3" fill="#1f77b4"/>
<circle cx="580.4" cy="322.1" r="3" fill="#1f77b4"/>
<circle cx="583.8" cy="349.3" r="3" fill="#1f77b4"/>
<circle cx="587.2" cy="303.5" r="3" fill="#1f77b4"/>
<circle cx="590.7" cy="319.5" r="3" fill="#1f77b4"/>
<circle cx="594.1" cy="329.7" r="3" fill="#1f77b4"/>
<circle cx="597.6" cy="333.8" r="3" fill="#1f77b4"/>
<circle cx="601.0" cy="308.4" r="3" fill="#1f77b4"/>
<circle cx="604.4" cy="281.0" r="3" fill="#1f77b4"/>
<circle cx="607.9" cy="301.4" r="3" fill="#1f77b4"/>
<circle cx="611.3" cy="307.5" r="3" fill="#1f77b4"/>
<circle cx="614.8" cy="291.6" r="3" fill="#1f77b4"/>
<circle cx="618.2" cy="350.2" r="3" fill="#1f77b4"/>
<circle cx="621.7" cy="303.8" r="3" fill="#1f77b4"/>
<circle cx="625.1" cy="334.0" r="3" fill="#1f77b4"/>
<circle cx="628.5" cy="323.5" r="3" fill="#1f77b4"/>
<circle cx="632.0" cy="225.1" r="3" fill="#1f77b4"/>
<circle cx="635.4" cy="295.8" r="3" fill="#1f77b4"/>
<circle cx="638.9" cy="245.7" r="3" fill="#1f77b4"/>
<circle cx="642.3" cy="222.0" r="3" fill="#1f77b4"/>
<circle cx="645.8" cy="276.9" r="3" fill="#1f77b4"/>
<circle cx="649.2" cy="349.3" r="3" fill="#1f77b4"/>
<circle cx="652.6" cy="290.2" r="3" fill="#1f77b4"/>
<circle cx="656.1" cy="270.9" r="3" fill="#1f77b4"/>
<circle cx="659.5" cy="295.9" r="3" fill="#1f77b4"/>
<circle cx="663.0" cy="301.0" r="3" fill="#1f77b4"/>
<circle cx="666.4" cy="303.6" r="3" fill="#1f77b4"/>
<circle cx="669.8" cy="334.3" r="3" fill="#1f77b4"/>
<circle cx="673.3" cy="310.3" r="3" fill="#1f77b4"/>
<circle cx="676.7" cy="327.9" r="3" fill="#1f77b4"/>
<circle cx="680.2" cy="330.1" r="3" fill="#1f77b4"/>
<circle cx="683.6" cy="321.4" r="3" fill="#1f77b4"/>
<circle cx="687.1" cy="306.8" r="3" fill="#1f77b4"/>
<circle cx="690.5" cy="297.2" r="3" fill="#1f77b4"/>
<circle cx="693.9" cy="319.1" r="3" fill="#1f77b4"/>
<circle cx="697.4" cy="317.2" r="3" fill="#1f77b4"/>
<circle cx="700.8" cy="298.1" r="3" fill="#1f77b4"/>
<circle cx="704.3" cy="309.2" r="3" fill="#1f77b4"/>
<circle cx="707.7" cy="343.7" r="3" fill="#1f77b4"/>
<circle cx="711.2" cy="313.6" r="3" fill="#1f77b4"/>
<circle cx="714.6" cy="294.2" r="3" fill="#1f77b4"/>
<circle cx="718.0" cy="324.5" r="3" fill="#1f77b4"/>
<circle cx="721.5" cy="357.8" r="3" fill="#1f77b4"/>
<circle cx="724.9" cy="336.5" r="3" fill="#1f77b4"/>
<circle cx="728.4" cy="357.2" r="3" fill="#1f77b4"/>
<circle cx="731.8" cy="308.9" r="3" fill="#1f77b4"/>
<circle cx="735.3" cy="344.3" r="3" fill="#1f77b4"/>
<circle cx="738.7" cy="321.3" r="3" fill="#1f77b4"/>
<circle cx="742.1" cy="307.5" r="3" fill="#1f77b4"/>
<circle cx="745.6" cy="291.9" r="3" fill="#1f77b4"/>
<circle cx="749.0" cy="290.4" r="3" fill="#1f77b4"/>
<circle cx="752.5" cy="355.7" r="3" fill="#1f77b4"/>
<circle cx="755.9" cy="338.7" r="3" fill="#1f77b4"/>
<circle cx="759.3" cy="324.3" r="3" fill="#1f77b4"/>
<circle cx="762.8" cy="282.9" r="3" fill="#1f77b4"/>
<circle cx="766.2" cy="262.7" r="3" fill="#1f77b4"/>
<circle cx="769.7" cy="323.9" r="3" fill="#1f77b4"/>
<circle cx="773.1" cy="276.2" r="3" fill="#1f77b4"/>
<circle cx="776.6" cy="298.1" r="3" fill="#1f77b4"/>
<circle cx="780.0" cy="316.1" r="3" fill="#1f77b4"/>
<line x1="808" y1="96" x2="830" y2="96" stroke="#1f77b4" stroke-width="2.5"/>
<text x="838" y="100" font-family="Arial" font-size="13">r1_zero_reference</text>
<polyline fill="none" stroke="#d62728" stroke-width="2.3" points="95.0,106.5 98.4,191.8 101.9,193.1 105.3,143.6 108.8,143.6 112.2,74.1 115.7,168.2 119.1,147.4 122.5,148.9 126.0,172.3 129.4,117.8 132.9,162.4 136.3,148.3 139.7,202.4 143.2,150.7 146.6,118.2 150.1,136.5 153.5,140.8 157.0,146.6 160.4,152.2 163.8,154.5 167.3,118.7 170.7,144.3 174.2,152.3 177.6,181.8 181.1,163.0 184.5,164.8 187.9,184.5 191.4,134.9 194.8,137.9 198.3,186.6 201.7,185.7 205.2,205.4 208.6,138.6 212.0,141.3 215.5,155.1 218.9,168.3 222.4,137.3 225.8,220.0 229.2,169.3 232.7,179.6 236.1,174.0 239.6,169.8 243.0,186.9 246.5,138.9 249.9,144.0 253.3,217.2 256.8,121.3 260.2,164.0 263.7,197.2 267.1,183.9 270.6,192.2 274.0,183.5 277.4,228.8 280.9,196.1 284.3,161.6 287.8,226.0 291.2,192.0 294.6,180.9 298.1,162.5 301.5,195.1 305.0,190.5 308.4,222.7 311.9,156.3 315.3,194.4 318.7,173.7 322.2,147.3 325.6,167.6 329.1,231.3 332.5,192.7 336.0,144.8 339.4,205.4 342.8,185.9 346.3,183.3 349.7,179.7 353.2,197.1 356.6,150.6 360.1,193.0 363.5,222.3 366.9,209.2 370.4,207.1 373.8,228.9 377.3,200.3 380.7,154.8 384.1,209.6 387.6,230.5 391.0,230.6 394.5,202.1 397.9,217.7 401.4,245.6 404.8,182.0 408.2,165.6 411.7,192.5 415.1,186.0 418.6,211.4 422.0,196.1 425.5,191.7 428.9,193.1 432.3,195.1 435.8,187.9 439.2,152.1 442.7,227.6 446.1,229.3 449.5,189.7 453.0,202.5 456.4,199.6 459.9,208.7 463.3,161.5 466.8,199.5 470.2,188.1 473.6,105.2 477.1,170.4 480.5,194.7 484.0,169.3 487.4,190.9 490.9,161.4 494.3,206.0 497.7,221.3 501.2,162.8 504.6,187.4 508.1,205.5 511.5,133.0 514.9,151.5 518.4,209.5 521.8,191.8 525.3,185.4 528.7,161.6 532.2,172.1 535.6,211.5 539.0,216.1 542.5,199.4 545.9,184.8 549.4,187.7 552.8,186.9 556.3,207.9 559.7,195.2 563.1,206.0 566.6,200.8 570.0,219.3 573.5,151.3 576.9,189.3 580.4,175.4 583.8,191.1 587.2,131.6 590.7,179.3 594.1,205.8 597.6,179.8 601.0,161.6 604.4,133.0 607.9,184.5 611.3,156.0 614.8,182.9 618.2,206.9 621.7,184.0 625.1,211.7 628.5,217.1 632.0,161.3 635.4,192.2 638.9,158.1 642.3,147.6 645.8,180.2 649.2,196.4 652.6,190.9 656.1,173.2 659.5,192.5 663.0,191.1 666.4,206.2 669.8,192.4 673.3,191.2 676.7,169.8 680.2,196.1 683.6,210.4 687.1,186.8 690.5,201.5 693.9,191.6 697.4,206.4 700.8,183.1 704.3,191.3 707.7,233.9 711.2,197.4 714.6,163.0 718.0,187.1 721.5,232.3 724.9,208.1 728.4,231.7 731.8,184.6 735.3,203.0 738.7,185.6 742.1,175.3 745.6,180.4 749.0,197.7 752.5,221.2 755.9,209.0 759.3,222.5 762.8,166.8 766.2,148.5 769.7,225.8 773.1,174.3 776.6,187.0 780.0,212.0"/>
<circle cx="95.0" cy="106.5" r="3" fill="#d62728"/>
<circle cx="98.4" cy="191.8" r="3" fill="#d62728"/>
<circle cx="101.9" cy="193.1" r="3" fill="#d62728"/>
<circle cx="105.3" cy="143.6" r="3" fill="#d62728"/>
<circle cx="108.8" cy="143.6" r="3" fill="#d62728"/>
<circle cx="112.2" cy="74.1" r="3" fill="#d62728"/>
<circle cx="115.7" cy="168.2" r="3" fill="#d62728"/>
<circle cx="119.1" cy="147.4" r="3" fill="#d62728"/>
<circle cx="122.5" cy="148.9" r="3" fill="#d62728"/>
<circle cx="126.0" cy="172.3" r="3" fill="#d62728"/>
<circle cx="129.4" cy="117.8" r="3" fill="#d62728"/>
<circle cx="132.9" cy="162.4" r="3" fill="#d62728"/>
<circle cx="136.3" cy="148.3" r="3" fill="#d62728"/>
<circle cx="139.7" cy="202.4" r="3" fill="#d62728"/>
<circle cx="143.2" cy="150.7" r="3" fill="#d62728"/>
<circle cx="146.6" cy="118.2" r="3" fill="#d62728"/>
<circle cx="150.1" cy="136.5" r="3" fill="#d62728"/>
<circle cx="153.5" cy="140.8" r="3" fill="#d62728"/>
<circle cx="157.0" cy="146.6" r="3" fill="#d62728"/>
<circle cx="160.4" cy="152.2" r="3" fill="#d62728"/>
<circle cx="163.8" cy="154.5" r="3" fill="#d62728"/>
<circle cx="167.3" cy="118.7" r="3" fill="#d62728"/>
<circle cx="170.7" cy="144.3" r="3" fill="#d62728"/>
<circle cx="174.2" cy="152.3" r="3" fill="#d62728"/>
<circle cx="177.6" cy="181.8" r="3" fill="#d62728"/>
<circle cx="181.1" cy="163.0" r="3" fill="#d62728"/>
<circle cx="184.5" cy="164.8" r="3" fill="#d62728"/>
<circle cx="187.9" cy="184.5" r="3" fill="#d62728"/>
<circle cx="191.4" cy="134.9" r="3" fill="#d62728"/>
<circle cx="194.8" cy="137.9" r="3" fill="#d62728"/>
<circle cx="198.3" cy="186.6" r="3" fill="#d62728"/>
<circle cx="201.7" cy="185.7" r="3" fill="#d62728"/>
<circle cx="205.2" cy="205.4" r="3" fill="#d62728"/>
<circle cx="208.6" cy="138.6" r="3" fill="#d62728"/>
<circle cx="212.0" cy="141.3" r="3" fill="#d62728"/>
<circle cx="215.5" cy="155.1" r="3" fill="#d62728"/>
<circle cx="218.9" cy="168.3" r="3" fill="#d62728"/>
<circle cx="222.4" cy="137.3" r="3" fill="#d62728"/>
<circle cx="225.8" cy="220.0" r="3" fill="#d62728"/>
<circle cx="229.2" cy="169.3" r="3" fill="#d62728"/>
<circle cx="232.7" cy="179.6" r="3" fill="#d62728"/>
<circle cx="236.1" cy="174.0" r="3" fill="#d62728"/>
<circle cx="239.6" cy="169.8" r="3" fill="#d62728"/>
<circle cx="243.0" cy="186.9" r="3" fill="#d62728"/>
<circle cx="246.5" cy="138.9" r="3" fill="#d62728"/>
<circle cx="249.9" cy="144.0" r="3" fill="#d62728"/>
<circle cx="253.3" cy="217.2" r="3" fill="#d62728"/>
<circle cx="256.8" cy="121.3" r="3" fill="#d62728"/>
<circle cx="260.2" cy="164.0" r="3" fill="#d62728"/>
<circle cx="263.7" cy="197.2" r="3" fill="#d62728"/>
<circle cx="267.1" cy="183.9" r="3" fill="#d62728"/>
<circle cx="270.6" cy="192.2" r="3" fill="#d62728"/>
<circle cx="274.0" cy="183.5" r="3" fill="#d62728"/>
<circle cx="277.4" cy="228.8" r="3" fill="#d62728"/>
<circle cx="280.9" cy="196.1" r="3" fill="#d62728"/>
<circle cx="284.3" cy="161.6" r="3" fill="#d62728"/>
<circle cx="287.8" cy="226.0" r="3" fill="#d62728"/>
<circle cx="291.2" cy="192.0" r="3" fill="#d62728"/>
<circle cx="294.6" cy="180.9" r="3" fill="#d62728"/>
<circle cx="298.1" cy="162.5" r="3" fill="#d62728"/>
<circle cx="301.5" cy="195.1" r="3" fill="#d62728"/>
<circle cx="305.0" cy="190.5" r="3" fill="#d62728"/>
<circle cx="308.4" cy="222.7" r="3" fill="#d62728"/>
<circle cx="311.9" cy="156.3" r="3" fill="#d62728"/>
<circle cx="315.3" cy="194.4" r="3" fill="#d62728"/>
<circle cx="318.7" cy="173.7" r="3" fill="#d62728"/>
<circle cx="322.2" cy="147.3" r="3" fill="#d62728"/>
<circle cx="325.6" cy="167.6" r="3" fill="#d62728"/>
<circle cx="329.1" cy="231.3" r="3" fill="#d62728"/>
<circle cx="332.5" cy="192.7" r="3" fill="#d62728"/>
<circle cx="336.0" cy="144.8" r="3" fill="#d62728"/>
<circle cx="339.4" cy="205.4" r="3" fill="#d62728"/>
<circle cx="342.8" cy="185.9" r="3" fill="#d62728"/>
<circle cx="346.3" cy="183.3" r="3" fill="#d62728"/>
<circle cx="349.7" cy="179.7" r="3" fill="#d62728"/>
<circle cx="353.2" cy="197.1" r="3" fill="#d62728"/>
<circle cx="356.6" cy="150.6" r="3" fill="#d62728"/>
<circle cx="360.1" cy="193.0" r="3" fill="#d62728"/>
<circle cx="363.5" cy="222.3" r="3" fill="#d62728"/>
<circle cx="366.9" cy="209.2" r="3" fill="#d62728"/>
<circle cx="370.4" cy="207.1" r="3" fill="#d62728"/>
<circle cx="373.8" cy="228.9" r="3" fill="#d62728"/>
<circle cx="377.3" cy="200.3" r="3" fill="#d62728"/>
<circle cx="380.7" cy="154.8" r="3" fill="#d62728"/>
<circle cx="384.1" cy="209.6" r="3" fill="#d62728"/>
<circle cx="387.6" cy="230.5" r="3" fill="#d62728"/>
<circle cx="391.0" cy="230.6" r="3" fill="#d62728"/>
<circle cx="394.5" cy="202.1" r="3" fill="#d62728"/>
<circle cx="397.9" cy="217.7" r="3" fill="#d62728"/>
<circle cx="401.4" cy="245.6" r="3" fill="#d62728"/>
<circle cx="404.8" cy="182.0" r="3" fill="#d62728"/>
<circle cx="408.2" cy="165.6" r="3" fill="#d62728"/>
<circle cx="411.7" cy="192.5" r="3" fill="#d62728"/>
<circle cx="415.1" cy="186.0" r="3" fill="#d62728"/>
<circle cx="418.6" cy="211.4" r="3" fill="#d62728"/>
<circle cx="422.0" cy="196.1" r="3" fill="#d62728"/>
<circle cx="425.5" cy="191.7" r="3" fill="#d62728"/>
<circle cx="428.9" cy="193.1" r="3" fill="#d62728"/>
<circle cx="432.3" cy="195.1" r="3" fill="#d62728"/>
<circle cx="435.8" cy="187.9" r="3" fill="#d62728"/>
<circle cx="439.2" cy="152.1" r="3" fill="#d62728"/>
<circle cx="442.7" cy="227.6" r="3" fill="#d62728"/>
<circle cx="446.1" cy="229.3" r="3" fill="#d62728"/>
<circle cx="449.5" cy="189.7" r="3" fill="#d62728"/>
<circle cx="453.0" cy="202.5" r="3" fill="#d62728"/>
<circle cx="456.4" cy="199.6" r="3" fill="#d62728"/>
<circle cx="459.9" cy="208.7" r="3" fill="#d62728"/>
<circle cx="463.3" cy="161.5" r="3" fill="#d62728"/>
<circle cx="466.8" cy="199.5" r="3" fill="#d62728"/>
<circle cx="470.2" cy="188.1" r="3" fill="#d62728"/>
<circle cx="473.6" cy="105.2" r="3" fill="#d62728"/>
<circle cx="477.1" cy="170.4" r="3" fill="#d62728"/>
<circle cx="480.5" cy="194.7" r="3" fill="#d62728"/>
<circle cx="484.0" cy="169.3" r="3" fill="#d62728"/>
<circle cx="487.4" cy="190.9" r="3" fill="#d62728"/>
<circle cx="490.9" cy="161.4" r="3" fill="#d62728"/>
<circle cx="494.3" cy="206.0" r="3" fill="#d62728"/>
<circle cx="497.7" cy="221.3" r="3" fill="#d62728"/>
<circle cx="501.2" cy="162.8" r="3" fill="#d62728"/>
<circle cx="504.6" cy="187.4" r="3" fill="#d62728"/>
<circle cx="508.1" cy="205.5" r="3" fill="#d62728"/>
<circle cx="511.5" cy="133.0" r="3" fill="#d62728"/>
<circle cx="514.9" cy="151.5" r="3" fill="#d62728"/>
<circle cx="518.4" cy="209.5" r="3" fill="#d62728"/>
<circle cx="521.8" cy="191.8" r="3" fill="#d62728"/>
<circle cx="525.3" cy="185.4" r="3" fill="#d62728"/>
<circle cx="528.7" cy="161.6" r="3" fill="#d62728"/>
<circle cx="532.2" cy="172.1" r="3" fill="#d62728"/>
<circle cx="535.6" cy="211.5" r="3" fill="#d62728"/>
<circle cx="539.0" cy="216.1" r="3" fill="#d62728"/>
<circle cx="542.5" cy="199.4" r="3" fill="#d62728"/>
<circle cx="545.9" cy="184.8" r="3" fill="#d62728"/>
<circle cx="549.4" cy="187.7" r="3" fill="#d62728"/>
<circle cx="552.8" cy="186.9" r="3" fill="#d62728"/>
<circle cx="556.3" cy="207.9" r="3" fill="#d62728"/>
<circle cx="559.7" cy="195.2" r="3" fill="#d62728"/>
<circle cx="563.1" cy="206.0" r="3" fill="#d62728"/>
<circle cx="566.6" cy="200.8" r="3" fill="#d62728"/>
<circle cx="570.0" cy="219.3" r="3" fill="#d62728"/>
<circle cx="573.5" cy="151.3" r="3" fill="#d62728"/>
<circle cx="576.9" cy="189.3" r="3" fill="#d62728"/>
<circle cx="580.4" cy="175.4" r="3" fill="#d62728"/>
<circle cx="583.8" cy="191.1" r="3" fill="#d62728"/>
<circle cx="587.2" cy="131.6" r="3" fill="#d62728"/>
<circle cx="590.7" cy="179.3" r="3" fill="#d62728"/>
<circle cx="594.1" cy="205.8" r="3" fill="#d62728"/>
<circle cx="597.6" cy="179.8" r="3" fill="#d62728"/>
<circle cx="601.0" cy="161.6" r="3" fill="#d62728"/>
<circle cx="604.4" cy="133.0" r="3" fill="#d62728"/>
<circle cx="607.9" cy="184.5" r="3" fill="#d62728"/>
<circle cx="611.3" cy="156.0" r="3" fill="#d62728"/>
<circle cx="614.8" cy="182.9" r="3" fill="#d62728"/>
<circle cx="618.2" cy="206.9" r="3" fill="#d62728"/>
<circle cx="621.7" cy="184.0" r="3" fill="#d62728"/>
<circle cx="625.1" cy="211.7" r="3" fill="#d62728"/>
<circle cx="628.5" cy="217.1" r="3" fill="#d62728"/>
<circle cx="632.0" cy="161.3" r="3" fill="#d62728"/>
<circle cx="635.4" cy="192.2" r="3" fill="#d62728"/>
<circle cx="638.9" cy="158.1" r="3" fill="#d62728"/>
<circle cx="642.3" cy="147.6" r="3" fill="#d62728"/>
<circle cx="645.8" cy="180.2" r="3" fill="#d62728"/>
<circle cx="649.2" cy="196.4" r="3" fill="#d62728"/>
<circle cx="652.6" cy="190.9" r="3" fill="#d62728"/>
<circle cx="656.1" cy="173.2" r="3" fill="#d62728"/>
<circle cx="659.5" cy="192.5" r="3" fill="#d62728"/>
<circle cx="663.0" cy="191.1" r="3" fill="#d62728"/>
<circle cx="666.4" cy="206.2" r="3" fill="#d62728"/>
<circle cx="669.8" cy="192.4" r="3" fill="#d62728"/>
<circle cx="673.3" cy="191.2" r="3" fill="#d62728"/>
<circle cx="676.7" cy="169.8" r="3" fill="#d62728"/>
<circle cx="680.2" cy="196.1" r="3" fill="#d62728"/>
<circle cx="683.6" cy="210.4" r="3" fill="#d62728"/>
<circle cx="687.1" cy="186.8" r="3" fill="#d62728"/>
<circle cx="690.5" cy="201.5" r="3" fill="#d62728"/>
<circle cx="693.9" cy="191.6" r="3" fill="#d62728"/>
<circle cx="697.4" cy="206.4" r="3" fill="#d62728"/>
<circle cx="700.8" cy="183.1" r="3" fill="#d62728"/>
<circle cx="704.3" cy="191.3" r="3" fill="#d62728"/>
<circle cx="707.7" cy="233.9" r="3" fill="#d62728"/>
<circle cx="711.2" cy="197.4" r="3" fill="#d62728"/>
<circle cx="714.6" cy="163.0" r="3" fill="#d62728"/>
<circle cx="718.0" cy="187.1" r="3" fill="#d62728"/>
<circle cx="721.5" cy="232.3" r="3" fill="#d62728"/>
<circle cx="724.9" cy="208.1" r="3" fill="#d62728"/>
<circle cx="728.4" cy="231.7" r="3" fill="#d62728"/>
<circle cx="731.8" cy="184.6" r="3" fill="#d62728"/>
<circle cx="735.3" cy="203.0" r="3" fill="#d62728"/>
<circle cx="738.7" cy="185.6" r="3" fill="#d62728"/>
<circle cx="742.1" cy="175.3" r="3" fill="#d62728"/>
<circle cx="745.6" cy="180.4" r="3" fill="#d62728"/>
<circle cx="749.0" cy="197.7" r="3" fill="#d62728"/>
<circle cx="752.5" cy="221.2" r="3" fill="#d62728"/>
<circle cx="755.9" cy="209.0" r="3" fill="#d62728"/>
<circle cx="759.3" cy="222.5" r="3" fill="#d62728"/>
<circle cx="762.8" cy="166.8" r="3" fill="#d62728"/>
<circle cx="766.2" cy="148.5" r="3" fill="#d62728"/>
<circle cx="769.7" cy="225.8" r="3" fill="#d62728"/>
<circle cx="773.1" cy="174.3" r="3" fill="#d62728"/>
<circle cx="776.6" cy="187.0" r="3" fill="#d62728"/>
<circle cx="780.0" cy="212.0" r="3" fill="#d62728"/>
<line x1="808" y1="121" x2="830" y2="121" stroke="#d62728" stroke-width="2.5"/>
<text x="838" y="125" font-family="Arial" font-size="13">question_only</text>
<text x="437.5" y="618" text-anchor="middle" font-family="Arial" font-size="15">GRPO step</text>
<text x="24" y="316.0" text-anchor="middle" font-family="Arial" font-size="15" transform="rotate(-90 24 316.0)">Average rollout response tokens</text>
</svg>
