<svg xmlns="http://www.w3.org/2000/svg" width="1100" height="660" viewBox="0 0 1100 660">
<rect width="100%" height="100%" fill="white"/>
<text x="550.0" y="36" text-anchor="middle" font-family="Arial" font-size="22" font-weight="700">SFT + KL GRPO token entropy</text>
<line x1="95" y1="578" x2="800" y2="578" stroke="#222" stroke-width="1.5"/>
<line x1="95" y1="74" x2="95" y2="578" stroke="#222" stroke-width="1.5"/>
<line x1="90" y1="578.0" x2="800" y2="578.0" stroke="#ddd" stroke-width="1"/>
<text x="83" y="582.0" text-anchor="end" font-family="Arial" font-size="12">0.00</text>
<line x1="90" y1="477.2" x2="800" y2="477.2" stroke="#ddd" stroke-width="1"/>
<text x="83" y="481.2" text-anchor="end" font-family="Arial" font-size="12">0.20</text>
<line x1="90" y1="376.4" x2="800" y2="376.4" stroke="#ddd" stroke-width="1"/>
<text x="83" y="380.4" text-anchor="end" font-family="Arial" font-size="12">0.40</text>
<line x1="90" y1="275.6" x2="800" y2="275.6" stroke="#ddd" stroke-width="1"/>
<text x="83" y="279.6" text-anchor="end" font-family="Arial" font-size="12">0.60</text>
<line x1="90" y1="174.8" x2="800" y2="174.8" stroke="#ddd" stroke-width="1"/>
<text x="83" y="178.8" text-anchor="end" font-family="Arial" font-size="12">0.80</text>
<line x1="90" y1="74.0" x2="800" y2="74.0" stroke="#ddd" stroke-width="1"/>
<text x="83" y="78.0" text-anchor="end" font-family="Arial" font-size="12">1.00</text>
<line x1="95.0" y1="578" x2="95.0" y2="583" stroke="#222" stroke-width="1"/>
<text x="95.0" y="602" text-anchor="middle" font-family="Arial" font-size="12">1</text>
<line x1="236.0" y1="578" x2="236.0" y2="583" stroke="#222" stroke-width="1"/>
<text x="236.0" y="602" text-anchor="middle" font-family="Arial" font-size="12">41</text>
<line x1="377.0" y1="578" x2="377.0" y2="583" stroke="#222" stroke-width="1"/>
<text x="377.0" y="602" text-anchor="middle" font-family="Arial" font-size="12">81</text>
<line x1="518.0" y1="578" x2="518.0" y2="583" stroke="#222" stroke-width="1"/>
<text x="518.0" y="602" text-anchor="middle" font-family="Arial" font-size="12">120</text>
<line x1="659.0" y1="578" x2="659.0" y2="583" stroke="#222" stroke-width="1"/>
<text x="659.0" y="602" text-anchor="middle" font-family="Arial" font-size="12">160</text>
<line x1="800.0" y1="578" x2="800.0" y2="583" stroke="#222" stroke-width="1"/>
<text x="800.0" y="602" text-anchor="middle" font-family="Arial" font-size="12">200</text>
<polyline fill="none" stroke="#1f77b4" stroke-width="2.3" points="95.0,356.2 98.5,484.9 102.1,488.5 105.6,499.7 109.2,498.1 112.7,481.7 116.3,501.7 119.8,501.8 123.3,505.3 126.9,494.5 130.4,505.4 134.0,515.3 137.5,505.0 141.1,506.5 144.6,491.1 148.1,508.6 151.7,503.8 155.2,495.6 158.8,514.2 162.3,503.4 165.9,505.2 169.4,504.4 172.9,508.0 176.5,508.1 180.0,512.6 183.6,507.0 187.1,515.1 190.7,520.3 194.2,509.4 197.7,518.6 201.3,519.6 204.8,514.7 208.4,501.3 211.9,509.4 215.5,501.9 219.0,500.0 222.5,515.5 226.1,507.2 229.6,515.9 233.2,514.3 236.7,515.1 240.3,509.6 243.8,517.7 247.3,510.7 250.9,509.5 254.4,502.7 258.0,510.8 261.5,515.2 265.1,516.3 268.6,500.5 272.1,514.9 275.7,482.2 279.2,477.4 282.8,449.9 286.3,488.6 289.8,506.8 293.4,516.2 296.9,519.6 300.5,521.8 304.0,517.2 307.6,516.4 311.1,513.0 314.6,516.7 318.2,513.9 321.7,514.8 325.3,515.5 328.8,515.6 332.4,507.7 335.9,521.0 339.4,513.8 343.0,515.7 346.5,521.6 350.1,516.6 353.6,515.3 357.2,521.7 360.7,516.3 364.2,520.6 367.8,520.0 371.3,524.2 374.9,523.1 378.4,518.1 382.0,518.0 385.5,523.8 389.0,518.7 392.6,525.2 396.1,520.0 399.7,524.4 403.2,519.3 406.8,517.0 410.3,525.9 413.8,528.3 417.4,518.1 420.9,522.3 424.5,527.3 428.0,521.1 431.6,524.8 435.1,516.6 438.6,522.5 442.2,532.5 445.7,526.5 449.3,529.2 452.8,513.1 456.4,523.8 459.9,527.9 463.4,531.3 467.0,527.8 470.5,528.3 474.1,523.5 477.6,529.8 481.2,526.2 484.7,529.6 488.2,532.5 491.8,529.9 495.3,528.8 498.9,529.8 502.4,527.6 506.0,529.9 509.5,532.5 513.0,528.6 516.6,520.2 520.1,534.8 523.7,531.9 527.2,538.9 530.8,534.2 534.3,528.4 537.8,533.4 541.4,528.0 544.9,536.7 548.5,537.7 552.0,534.9 555.6,525.3 559.1,535.2 562.6,531.1 566.2,535.9 569.7,538.3 573.3,538.6 576.8,530.5 580.4,540.7 583.9,535.0 587.4,535.9 591.0,540.0 594.5,534.1 598.1,539.0 601.6,539.7 605.2,533.9 608.7,536.7 612.2,535.5 615.8,540.0 619.3,532.8 622.9,536.6 626.4,534.9 629.9,533.5 633.5,537.0 637.0,540.6 640.6,537.3 644.1,535.8 647.7,541.4 651.2,546.8 654.7,539.3 658.3,540.5 661.8,541.8 665.4,540.3 668.9,543.2 672.5,534.4 676.0,532.2 679.5,540.7 683.1,541.7 686.6,537.7 690.2,540.2 693.7,539.0 697.3,538.0 700.8,538.1 704.3,542.4 707.9,541.7 711.4,544.3 715.0,537.7 718.5,542.9 722.1,541.2 725.6,538.0 729.1,544.6 732.7,541.9 736.2,536.4 739.8,543.8 743.3,540.3 746.9,541.0 750.4,546.6 753.9,544.1 757.5,540.5 761.0,542.2 764.6,539.3"/>
<circle cx="95.0" cy="356.2" r="3" fill="#1f77b4"/>
<circle cx="98.5" cy="484.9" r="3" fill="#1f77b4"/>
<circle cx="102.1" cy="488.5" r="3" fill="#1f77b4"/>
<circle cx="105.6" cy="499.7" r="3" fill="#1f77b4"/>
<circle cx="109.2" cy="498.1" r="3" fill="#1f77b4"/>
<circle cx="112.7" cy="481.7" r="3" fill="#1f77b4"/>
<circle cx="116.3" cy="501.7" r="3" fill="#1f77b4"/>
<circle cx="119.8" cy="501.8" r="3" fill="#1f77b4"/>
<circle cx="123.3" cy="505.3" r="3" fill="#1f77b4"/>
<circle cx="126.9" cy="494.5" r="3" fill="#1f77b4"/>
<circle cx="130.4" cy="505.4" r="3" fill="#1f77b4"/>
<circle cx="134.0" cy="515.3" r="3" fill="#1f77b4"/>
<circle cx="137.5" cy="505.0" r="3" fill="#1f77b4"/>
<circle cx="141.1" cy="506.5" r="3" fill="#1f77b4"/>
<circle cx="144.6" cy="491.1" r="3" fill="#1f77b4"/>
<circle cx="148.1" cy="508.6" r="3" fill="#1f77b4"/>
<circle cx="151.7" cy="503.8" r="3" fill="#1f77b4"/>
<circle cx="155.2" cy="495.6" r="3" fill="#1f77b4"/>
<circle cx="158.8" cy="514.2" r="3" fill="#1f77b4"/>
<circle cx="162.3" cy="503.4" r="3" fill="#1f77b4"/>
<circle cx="165.9" cy="505.2" r="3" fill="#1f77b4"/>
<circle cx="169.4" cy="504.4" r="3" fill="#1f77b4"/>
<circle cx="172.9" cy="508.0" r="3" fill="#1f77b4"/>
<circle cx="176.5" cy="508.1" r="3" fill="#1f77b4"/>
<circle cx="180.0" cy="512.6" r="3" fill="#1f77b4"/>
<circle cx="183.6" cy="507.0" r="3" fill="#1f77b4"/>
<circle cx="187.1" cy="515.1" r="3" fill="#1f77b4"/>
<circle cx="190.7" cy="520.3" r="3" fill="#1f77b4"/>
<circle cx="194.2" cy="509.4" r="3" fill="#1f77b4"/>
<circle cx="197.7" cy="518.6" r="3" fill="#1f77b4"/>
<circle cx="201.3" cy="519.6" r="3" fill="#1f77b4"/>
<circle cx="204.8" cy="514.7" r="3" fill="#1f77b4"/>
<circle cx="208.4" cy="501.3" r="3" fill="#1f77b4"/>
<circle cx="211.9" cy="509.4" r="3" fill="#1f77b4"/>
<circle cx="215.5" cy="501.9" r="3" fill="#1f77b4"/>
<circle cx="219.0" cy="500.0" r="3" fill="#1f77b4"/>
<circle cx="222.5" cy="515.5" r="3" fill="#1f77b4"/>
<circle cx="226.1" cy="507.2" r="3" fill="#1f77b4"/>
<circle cx="229.6" cy="515.9" r="3" fill="#1f77b4"/>
<circle cx="233.2" cy="514.3" r="3" fill="#1f77b4"/>
<circle cx="236.7" cy="515.1" r="3" fill="#1f77b4"/>
<circle cx="240.3" cy="509.6" r="3" fill="#1f77b4"/>
<circle cx="243.8" cy="517.7" r="3" fill="#1f77b4"/>
<circle cx="247.3" cy="510.7" r="3" fill="#1f77b4"/>
<circle cx="250.9" cy="509.5" r="3" fill="#1f77b4"/>
<circle cx="254.4" cy="502.7" r="3" fill="#1f77b4"/>
<circle cx="258.0" cy="510.8" r="3" fill="#1f77b4"/>
<circle cx="261.5" cy="515.2" r="3" fill="#1f77b4"/>
<circle cx="265.1" cy="516.3" r="3" fill="#1f77b4"/>
<circle cx="268.6" cy="500.5" r="3" fill="#1f77b4"/>
<circle cx="272.1" cy="514.9" r="3" fill="#1f77b4"/>
<circle cx="275.7" cy="482.2" r="3" fill="#1f77b4"/>
<circle cx="279.2" cy="477.4" r="3" fill="#1f77b4"/>
<circle cx="282.8" cy="449.9" r="3" fill="#1f77b4"/>
<circle cx="286.3" cy="488.6" r="3" fill="#1f77b4"/>
<circle cx="289.8" cy="506.8" r="3" fill="#1f77b4"/>
<circle cx="293.4" cy="516.2" r="3" fill="#1f77b4"/>
<circle cx="296.9" cy="519.6" r="3" fill="#1f77b4"/>
<circle cx="300.5" cy="521.8" r="3" fill="#1f77b4"/>
<circle cx="304.0" cy="517.2" r="3" fill="#1f77b4"/>
<circle cx="307.6" cy="516.4" r="3" fill="#1f77b4"/>
<circle cx="311.1" cy="513.0" r="3" fill="#1f77b4"/>
<circle cx="314.6" cy="516.7" r="3" fill="#1f77b4"/>
<circle cx="318.2" cy="513.9" r="3" fill="#1f77b4"/>
<circle cx="321.7" cy="514.8" r="3" fill="#1f77b4"/>
<circle cx="325.3" cy="515.5" r="3" fill="#1f77b4"/>
<circle cx="328.8" cy="515.6" r="3" fill="#1f77b4"/>
<circle cx="332.4" cy="507.7" r="3" fill="#1f77b4"/>
<circle cx="335.9" cy="521.0" r="3" fill="#1f77b4"/>
<circle cx="339.4" cy="513.8" r="3" fill="#1f77b4"/>
<circle cx="343.0" cy="515.7" r="3" fill="#1f77b4"/>
<circle cx="346.5" cy="521.6" r="3" fill="#1f77b4"/>
<circle cx="350.1" cy="516.6" r="3" fill="#1f77b4"/>
<circle cx="353.6" cy="515.3" r="3" fill="#1f77b4"/>
<circle cx="357.2" cy="521.7" r="3" fill="#1f77b4"/>
<circle cx="360.7" cy="516.3" r="3" fill="#1f77b4"/>
<circle cx="364.2" cy="520.6" r="3" fill="#1f77b4"/>
<circle cx="367.8" cy="520.0" r="3" fill="#1f77b4"/>
<circle cx="371.3" cy="524.2" r="3" fill="#1f77b4"/>
<circle cx="374.9" cy="523.1" r="3" fill="#1f77b4"/>
<circle cx="378.4" cy="518.1" r="3" fill="#1f77b4"/>
<circle cx="382.0" cy="518.0" r="3" fill="#1f77b4"/>
<circle cx="385.5" cy="523.8" r="3" fill="#1f77b4"/>
<circle cx="389.0" cy="518.7" r="3" fill="#1f77b4"/>
<circle cx="392.6" cy="525.2" r="3" fill="#1f77b4"/>
<circle cx="396.1" cy="520.0" r="3" fill="#1f77b4"/>
<circle cx="399.7" cy="524.4" r="3" fill="#1f77b4"/>
<circle cx="403.2" cy="519.3" r="3" fill="#1f77b4"/>
<circle cx="406.8" cy="517.0" r="3" fill="#1f77b4"/>
<circle cx="410.3" cy="525.9" r="3" fill="#1f77b4"/>
<circle cx="413.8" cy="528.3" r="3" fill="#1f77b4"/>
<circle cx="417.4" cy="518.1" r="3" fill="#1f77b4"/>
<circle cx="420.9" cy="522.3" r="3" fill="#1f77b4"/>
<circle cx="424.5" cy="527.3" r="3" fill="#1f77b4"/>
<circle cx="428.0" cy="521.1" r="3" fill="#1f77b4"/>
<circle cx="431.6" cy="524.8" r="3" fill="#1f77b4"/>
<circle cx="435.1" cy="516.6" r="3" fill="#1f77b4"/>
<circle cx="438.6" cy="522.5" r="3" fill="#1f77b4"/>
<circle cx="442.2" cy="532.5" r="3" fill="#1f77b4"/>
<circle cx="445.7" cy="526.5" r="3" fill="#1f77b4"/>
<circle cx="449.3" cy="529.2" r="3" fill="#1f77b4"/>
<circle cx="452.8" cy="513.1" r="3" fill="#1f77b4"/>
<circle cx="456.4" cy="523.8" r="3" fill="#1f77b4"/>
<circle cx="459.9" cy="527.9" r="3" fill="#1f77b4"/>
<circle cx="463.4" cy="531.3" r="3" fill="#1f77b4"/>
<circle cx="467.0" cy="527.8" r="3" fill="#1f77b4"/>
<circle cx="470.5" cy="528.3" r="3" fill="#1f77b4"/>
<circle cx="474.1" cy="523.5" r="3" fill="#1f77b4"/>
<circle cx="477.6" cy="529.8" r="3" fill="#1f77b4"/>
<circle cx="481.2" cy="526.2" r="3" fill="#1f77b4"/>
<circle cx="484.7" cy="529.6" r="3" fill="#1f77b4"/>
<circle cx="488.2" cy="532.5" r="3" fill="#1f77b4"/>
<circle cx="491.8" cy="529.9" r="3" fill="#1f77b4"/>
<circle cx="495.3" cy="528.8" r="3" fill="#1f77b4"/>
<circle cx="498.9" cy="529.8" r="3" fill="#1f77b4"/>
<circle cx="502.4" cy="527.6" r="3" fill="#1f77b4"/>
<circle cx="506.0" cy="529.9" r="3" fill="#1f77b4"/>
<circle cx="509.5" cy="532.5" r="3" fill="#1f77b4"/>
<circle cx="513.0" cy="528.6" r="3" fill="#1f77b4"/>
<circle cx="516.6" cy="520.2" r="3" fill="#1f77b4"/>
<circle cx="520.1" cy="534.8" r="3" fill="#1f77b4"/>
<circle cx="523.7" cy="531.9" r="3" fill="#1f77b4"/>
<circle cx="527.2" cy="538.9" r="3" fill="#1f77b4"/>
<circle cx="530.8" cy="534.2" r="3" fill="#1f77b4"/>
<circle cx="534.3" cy="528.4" r="3" fill="#1f77b4"/>
<circle cx="537.8" cy="533.4" r="3" fill="#1f77b4"/>
<circle cx="541.4" cy="528.0" r="3" fill="#1f77b4"/>
<circle cx="544.9" cy="536.7" r="3" fill="#1f77b4"/>
<circle cx="548.5" cy="537.7" r="3" fill="#1f77b4"/>
<circle cx="552.0" cy="534.9" r="3" fill="#1f77b4"/>
<circle cx="555.6" cy="525.3" r="3" fill="#1f77b4"/>
<circle cx="559.1" cy="535.2" r="3" fill="#1f77b4"/>
<circle cx="562.6" cy="531.1" r="3" fill="#1f77b4"/>
<circle cx="566.2" cy="535.9" r="3" fill="#1f77b4"/>
<circle cx="569.7" cy="538.3" r="3" fill="#1f77b4"/>
<circle cx="573.3" cy="538.6" r="3" fill="#1f77b4"/>
<circle cx="576.8" cy="530.5" r="3" fill="#1f77b4"/>
<circle cx="580.4" cy="540.7" r="3" fill="#1f77b4"/>
<circle cx="583.9" cy="535.0" r="3" fill="#1f77b4"/>
<circle cx="587.4" cy="535.9" r="3" fill="#1f77b4"/>
<circle cx="591.0" cy="540.0" r="3" fill="#1f77b4"/>
<circle cx="594.5" cy="534.1" r="3" fill="#1f77b4"/>
<circle cx="598.1" cy="539.0" r="3" fill="#1f77b4"/>
<circle cx="601.6" cy="539.7" r="3" fill="#1f77b4"/>
<circle cx="605.2" cy="533.9" r="3" fill="#1f77b4"/>
<circle cx="608.7" cy="536.7" r="3" fill="#1f77b4"/>
<circle cx="612.2" cy="535.5" r="3" fill="#1f77b4"/>
<circle cx="615.8" cy="540.0" r="3" fill="#1f77b4"/>
<circle cx="619.3" cy="532.8" r="3" fill="#1f77b4"/>
<circle cx="622.9" cy="536.6" r="3" fill="#1f77b4"/>
<circle cx="626.4" cy="534.9" r="3" fill="#1f77b4"/>
<circle cx="629.9" cy="533.5" r="3" fill="#1f77b4"/>
<circle cx="633.5" cy="537.0" r="3" fill="#1f77b4"/>
<circle cx="637.0" cy="540.6" r="3" fill="#1f77b4"/>
<circle cx="640.6" cy="537.3" r="3" fill="#1f77b4"/>
<circle cx="644.1" cy="535.8" r="3" fill="#1f77b4"/>
<circle cx="647.7" cy="541.4" r="3" fill="#1f77b4"/>
<circle cx="651.2" cy="546.8" r="3" fill="#1f77b4"/>
<circle cx="654.7" cy="539.3" r="3" fill="#1f77b4"/>
<circle cx="658.3" cy="540.5" r="3" fill="#1f77b4"/>
<circle cx="661.8" cy="541.8" r="3" fill="#1f77b4"/>
<circle cx="665.4" cy="540.3" r="3" fill="#1f77b4"/>
<circle cx="668.9" cy="543.2" r="3" fill="#1f77b4"/>
<circle cx="672.5" cy="534.4" r="3" fill="#1f77b4"/>
<circle cx="676.0" cy="532.2" r="3" fill="#1f77b4"/>
<circle cx="679.5" cy="540.7" r="3" fill="#1f77b4"/>
<circle cx="683.1" cy="541.7" r="3" fill="#1f77b4"/>
<circle cx="686.6" cy="537.7" r="3" fill="#1f77b4"/>
<circle cx="690.2" cy="540.2" r="3" fill="#1f77b4"/>
<circle cx="693.7" cy="539.0" r="3" fill="#1f77b4"/>
<circle cx="697.3" cy="538.0" r="3" fill="#1f77b4"/>
<circle cx="700.8" cy="538.1" r="3" fill="#1f77b4"/>
<circle cx="704.3" cy="542.4" r="3" fill="#1f77b4"/>
<circle cx="707.9" cy="541.7" r="3" fill="#1f77b4"/>
<circle cx="711.4" cy="544.3" r="3" fill="#1f77b4"/>
<circle cx="715.0" cy="537.7" r="3" fill="#1f77b4"/>
<circle cx="718.5" cy="542.9" r="3" fill="#1f77b4"/>
<circle cx="722.1" cy="541.2" r="3" fill="#1f77b4"/>
<circle cx="725.6" cy="538.0" r="3" fill="#1f77b4"/>
<circle cx="729.1" cy="544.6" r="3" fill="#1f77b4"/>
<circle cx="732.7" cy="541.9" r="3" fill="#1f77b4"/>
<circle cx="736.2" cy="536.4" r="3" fill="#1f77b4"/>
<circle cx="739.8" cy="543.8" r="3" fill="#1f77b4"/>
<circle cx="743.3" cy="540.3" r="3" fill="#1f77b4"/>
<circle cx="746.9" cy="541.0" r="3" fill="#1f77b4"/>
<circle cx="750.4" cy="546.6" r="3" fill="#1f77b4"/>
<circle cx="753.9" cy="544.1" r="3" fill="#1f77b4"/>
<circle cx="757.5" cy="540.5" r="3" fill="#1f77b4"/>
<circle cx="761.0" cy="542.2" r="3" fill="#1f77b4"/>
<circle cx="764.6" cy="539.3" r="3" fill="#1f77b4"/>
<line x1="828" y1="96" x2="850" y2="96" stroke="#1f77b4" stroke-width="2.5"/>
<text x="858" y="100" font-family="Arial" font-size="13">SFT + KL GRPO</text>
<polyline fill="none" stroke="#d62728" stroke-width="2.3" points="95.0,112.5 98.5,378.5 102.1,456.1 105.6,445.4 109.2,451.5 112.7,427.5 116.3,423.5 119.8,425.7 123.3,440.6 126.9,432.2 130.4,472.2 134.0,487.4 137.5,508.2 141.1,496.6 144.6,495.3 148.1,509.0 151.7,508.9 155.2,494.5 158.8,508.0 162.3,513.6 165.9,506.2 169.4,507.1 172.9,513.6 176.5,517.4 180.0,515.0 183.6,507.8 187.1,520.5 190.7,515.8 194.2,519.6 197.7,522.4 201.3,517.5 204.8,516.1 208.4,514.8 211.9,504.4 215.5,506.9 219.0,504.4 222.5,509.4 226.1,501.0 229.6,521.0 233.2,503.2 236.7,520.6 240.3,519.0 243.8,533.7 247.3,527.2 250.9,532.7 254.4,535.0 258.0,542.5 261.5,548.7 265.1,552.8 268.6,549.9 272.1,554.2 275.7,555.1 279.2,556.4 282.8,556.9 286.3,559.0 289.8,554.7 293.4,560.5 296.9,555.0 300.5,562.1 304.0,557.8 307.6,561.8 311.1,559.7 314.6,560.1 318.2,561.8 321.7,559.6 325.3,560.5 328.8,559.0 332.4,557.8 335.9,562.1 339.4,559.8 343.0,550.8 346.5,557.3 350.1,559.8 353.6,560.1 357.2,566.0 360.7,564.8 364.2,562.4 367.8,561.0 371.3,564.2 374.9,561.0 378.4,561.2 382.0,562.6 385.5,562.5 389.0,561.8 392.6,566.4 396.1,567.0 399.7,567.9 403.2,562.3 406.8,562.1 410.3,567.6 413.8,563.8 417.4,562.2 420.9,566.7 424.5,564.7 428.0,565.7 431.6,565.1 435.1,564.1 438.6,565.9 442.2,565.1 445.7,562.9 449.3,562.7 452.8,560.8 456.4,561.7 459.9,562.1 463.4,560.7 467.0,561.2 470.5,562.2 474.1,560.0 477.6,560.8 481.2,562.4 484.7,561.8 488.2,564.4 491.8,565.0 495.3,565.5 498.9,562.9 502.4,564.0 506.0,564.3 509.5,564.8 513.0,564.8 516.6,560.2 520.1,563.6 523.7,564.3 527.2,564.9 530.8,567.0 534.3,564.7 537.8,565.1 541.4,562.4 544.9,563.4 548.5,564.1 552.0,563.7 555.6,561.8 559.1,563.6 562.6,563.7 566.2,562.5 569.7,565.0 573.3,566.2 576.8,562.1 580.4,565.5 583.9,563.2 587.4,557.2 591.0,562.6 594.5,559.5 598.1,562.2 601.6,557.6 605.2,555.7 608.7,560.0 612.2,554.1 615.8,562.7 619.3,555.8 622.9,558.2 626.4,564.5 629.9,559.4 633.5,563.1 637.0,563.1 640.6,563.4 644.1,561.3 647.7,564.1 651.2,565.5 654.7,564.1 658.3,561.7 661.8,564.5 665.4,560.8 668.9,563.3 672.5,559.1 676.0,557.0 679.5,560.8 683.1,565.7 686.6,562.4 690.2,564.0 693.7,562.2 697.3,560.6 700.8,562.0 704.3,563.4 707.9,563.5 711.4,561.1 715.0,558.2 718.5,556.7 722.1,559.1 725.6,558.6 729.1,559.8 732.7,559.8 736.2,560.3 739.8,564.6 743.3,562.5 746.9,562.9 750.4,564.1 753.9,565.1 757.5,563.7 761.0,565.6 764.6,563.2 768.1,566.1 771.7,568.4 775.2,563.4 778.7,565.7 782.3,565.0 785.8,564.0 789.4,564.9 792.9,564.8 796.5,566.3 800.0,566.3"/>
<circle cx="95.0" cy="112.5" r="3" fill="#d62728"/>
<circle cx="98.5" cy="378.5" r="3" fill="#d62728"/>
<circle cx="102.1" cy="456.1" r="3" fill="#d62728"/>
<circle cx="105.6" cy="445.4" r="3" fill="#d62728"/>
<circle cx="109.2" cy="451.5" r="3" fill="#d62728"/>
<circle cx="112.7" cy="427.5" r="3" fill="#d62728"/>
<circle cx="116.3" cy="423.5" r="3" fill="#d62728"/>
<circle cx="119.8" cy="425.7" r="3" fill="#d62728"/>
<circle cx="123.3" cy="440.6" r="3" fill="#d62728"/>
<circle cx="126.9" cy="432.2" r="3" fill="#d62728"/>
<circle cx="130.4" cy="472.2" r="3" fill="#d62728"/>
<circle cx="134.0" cy="487.4" r="3" fill="#d62728"/>
<circle cx="137.5" cy="508.2" r="3" fill="#d62728"/>
<circle cx="141.1" cy="496.6" r="3" fill="#d62728"/>
<circle cx="144.6" cy="495.3" r="3" fill="#d62728"/>
<circle cx="148.1" cy="509.0" r="3" fill="#d62728"/>
<circle cx="151.7" cy="508.9" r="3" fill="#d62728"/>
<circle cx="155.2" cy="494.5" r="3" fill="#d62728"/>
<circle cx="158.8" cy="508.0" r="3" fill="#d62728"/>
<circle cx="162.3" cy="513.6" r="3" fill="#d62728"/>
<circle cx="165.9" cy="506.2" r="3" fill="#d62728"/>
<circle cx="169.4" cy="507.1" r="3" fill="#d62728"/>
<circle cx="172.9" cy="513.6" r="3" fill="#d62728"/>
<circle cx="176.5" cy="517.4" r="3" fill="#d62728"/>
<circle cx="180.0" cy="515.0" r="3" fill="#d62728"/>
<circle cx="183.6" cy="507.8" r="3" fill="#d62728"/>
<circle cx="187.1" cy="520.5" r="3" fill="#d62728"/>
<circle cx="190.7" cy="515.8" r="3" fill="#d62728"/>
<circle cx="194.2" cy="519.6" r="3" fill="#d62728"/>
<circle cx="197.7" cy="522.4" r="3" fill="#d62728"/>
<circle cx="201.3" cy="517.5" r="3" fill="#d62728"/>
<circle cx="204.8" cy="516.1" r="3" fill="#d62728"/>
<circle cx="208.4" cy="514.8" r="3" fill="#d62728"/>
<circle cx="211.9" cy="504.4" r="3" fill="#d62728"/>
<circle cx="215.5" cy="506.9" r="3" fill="#d62728"/>
<circle cx="219.0" cy="504.4" r="3" fill="#d62728"/>
<circle cx="222.5" cy="509.4" r="3" fill="#d62728"/>
<circle cx="226.1" cy="501.0" r="3" fill="#d62728"/>
<circle cx="229.6" cy="521.0" r="3" fill="#d62728"/>
<circle cx="233.2" cy="503.2" r="3" fill="#d62728"/>
<circle cx="236.7" cy="520.6" r="3" fill="#d62728"/>
<circle cx="240.3" cy="519.0" r="3" fill="#d62728"/>
<circle cx="243.8" cy="533.7" r="3" fill="#d62728"/>
<circle cx="247.3" cy="527.2" r="3" fill="#d62728"/>
<circle cx="250.9" cy="532.7" r="3" fill="#d62728"/>
<circle cx="254.4" cy="535.0" r="3" fill="#d62728"/>
<circle cx="258.0" cy="542.5" r="3" fill="#d62728"/>
<circle cx="261.5" cy="548.7" r="3" fill="#d62728"/>
<circle cx="265.1" cy="552.8" r="3" fill="#d62728"/>
<circle cx="268.6" cy="549.9" r="3" fill="#d62728"/>
<circle cx="272.1" cy="554.2" r="3" fill="#d62728"/>
<circle cx="275.7" cy="555.1" r="3" fill="#d62728"/>
<circle cx="279.2" cy="556.4" r="3" fill="#d62728"/>
<circle cx="282.8" cy="556.9" r="3" fill="#d62728"/>
<circle cx="286.3" cy="559.0" r="3" fill="#d62728"/>
<circle cx="289.8" cy="554.7" r="3" fill="#d62728"/>
<circle cx="293.4" cy="560.5" r="3" fill="#d62728"/>
<circle cx="296.9" cy="555.0" r="3" fill="#d62728"/>
<circle cx="300.5" cy="562.1" r="3" fill="#d62728"/>
<circle cx="304.0" cy="557.8" r="3" fill="#d62728"/>
<circle cx="307.6" cy="561.8" r="3" fill="#d62728"/>
<circle cx="311.1" cy="559.7" r="3" fill="#d62728"/>
<circle cx="314.6" cy="560.1" r="3" fill="#d62728"/>
<circle cx="318.2" cy="561.8" r="3" fill="#d62728"/>
<circle cx="321.7" cy="559.6" r="3" fill="#d62728"/>
<circle cx="325.3" cy="560.5" r="3" fill="#d62728"/>
<circle cx="328.8" cy="559.0" r="3" fill="#d62728"/>
<circle cx="332.4" cy="557.8" r="3" fill="#d62728"/>
<circle cx="335.9" cy="562.1" r="3" fill="#d62728"/>
<circle cx="339.4" cy="559.8" r="3" fill="#d62728"/>
<circle cx="343.0" cy="550.8" r="3" fill="#d62728"/>
<circle cx="346.5" cy="557.3" r="3" fill="#d62728"/>
<circle cx="350.1" cy="559.8" r="3" fill="#d62728"/>
<circle cx="353.6" cy="560.1" r="3" fill="#d62728"/>
<circle cx="357.2" cy="566.0" r="3" fill="#d62728"/>
<circle cx="360.7" cy="564.8" r="3" fill="#d62728"/>
<circle cx="364.2" cy="562.4" r="3" fill="#d62728"/>
<circle cx="367.8" cy="561.0" r="3" fill="#d62728"/>
<circle cx="371.3" cy="564.2" r="3" fill="#d62728"/>
<circle cx="374.9" cy="561.0" r="3" fill="#d62728"/>
<circle cx="378.4" cy="561.2" r="3" fill="#d62728"/>
<circle cx="382.0" cy="562.6" r="3" fill="#d62728"/>
<circle cx="385.5" cy="562.5" r="3" fill="#d62728"/>
<circle cx="389.0" cy="561.8" r="3" fill="#d62728"/>
<circle cx="392.6" cy="566.4" r="3" fill="#d62728"/>
<circle cx="396.1" cy="567.0" r="3" fill="#d62728"/>
<circle cx="399.7" cy="567.9" r="3" fill="#d62728"/>
<circle cx="403.2" cy="562.3" r="3" fill="#d62728"/>
<circle cx="406.8" cy="562.1" r="3" fill="#d62728"/>
<circle cx="410.3" cy="567.6" r="3" fill="#d62728"/>
<circle cx="413.8" cy="563.8" r="3" fill="#d62728"/>
<circle cx="417.4" cy="562.2" r="3" fill="#d62728"/>
<circle cx="420.9" cy="566.7" r="3" fill="#d62728"/>
<circle cx="424.5" cy="564.7" r="3" fill="#d62728"/>
<circle cx="428.0" cy="565.7" r="3" fill="#d62728"/>
<circle cx="431.6" cy="565.1" r="3" fill="#d62728"/>
<circle cx="435.1" cy="564.1" r="3" fill="#d62728"/>
<circle cx="438.6" cy="565.9" r="3" fill="#d62728"/>
<circle cx="442.2" cy="565.1" r="3" fill="#d62728"/>
<circle cx="445.7" cy="562.9" r="3" fill="#d62728"/>
<circle cx="449.3" cy="562.7" r="3" fill="#d62728"/>
<circle cx="452.8" cy="560.8" r="3" fill="#d62728"/>
<circle cx="456.4" cy="561.7" r="3" fill="#d62728"/>
<circle cx="459.9" cy="562.1" r="3" fill="#d62728"/>
<circle cx="463.4" cy="560.7" r="3" fill="#d62728"/>
<circle cx="467.0" cy="561.2" r="3" fill="#d62728"/>
<circle cx="470.5" cy="562.2" r="3" fill="#d62728"/>
<circle cx="474.1" cy="560.0" r="3" fill="#d62728"/>
<circle cx="477.6" cy="560.8" r="3" fill="#d62728"/>
<circle cx="481.2" cy="562.4" r="3" fill="#d62728"/>
<circle cx="484.7" cy="561.8" r="3" fill="#d62728"/>
<circle cx="488.2" cy="564.4" r="3" fill="#d62728"/>
<circle cx="491.8" cy="565.0" r="3" fill="#d62728"/>
<circle cx="495.3" cy="565.5" r="3" fill="#d62728"/>
<circle cx="498.9" cy="562.9" r="3" fill="#d62728"/>
<circle cx="502.4" cy="564.0" r="3" fill="#d62728"/>
<circle cx="506.0" cy="564.3" r="3" fill="#d62728"/>
<circle cx="509.5" cy="564.8" r="3" fill="#d62728"/>
<circle cx="513.0" cy="564.8" r="3" fill="#d62728"/>
<circle cx="516.6" cy="560.2" r="3" fill="#d62728"/>
<circle cx="520.1" cy="563.6" r="3" fill="#d62728"/>
<circle cx="523.7" cy="564.3" r="3" fill="#d62728"/>
<circle cx="527.2" cy="564.9" r="3" fill="#d62728"/>
<circle cx="530.8" cy="567.0" r="3" fill="#d62728"/>
<circle cx="534.3" cy="564.7" r="3" fill="#d62728"/>
<circle cx="537.8" cy="565.1" r="3" fill="#d62728"/>
<circle cx="541.4" cy="562.4" r="3" fill="#d62728"/>
<circle cx="544.9" cy="563.4" r="3" fill="#d62728"/>
<circle cx="548.5" cy="564.1" r="3" fill="#d62728"/>
<circle cx="552.0" cy="563.7" r="3" fill="#d62728"/>
<circle cx="555.6" cy="561.8" r="3" fill="#d62728"/>
<circle cx="559.1" cy="563.6" r="3" fill="#d62728"/>
<circle cx="562.6" cy="563.7" r="3" fill="#d62728"/>
<circle cx="566.2" cy="562.5" r="3" fill="#d62728"/>
<circle cx="569.7" cy="565.0" r="3" fill="#d62728"/>
<circle cx="573.3" cy="566.2" r="3" fill="#d62728"/>
<circle cx="576.8" cy="562.1" r="3" fill="#d62728"/>
<circle cx="580.4" cy="565.5" r="3" fill="#d62728"/>
<circle cx="583.9" cy="563.2" r="3" fill="#d62728"/>
<circle cx="587.4" cy="557.2" r="3" fill="#d62728"/>
<circle cx="591.0" cy="562.6" r="3" fill="#d62728"/>
<circle cx="594.5" cy="559.5" r="3" fill="#d62728"/>
<circle cx="598.1" cy="562.2" r="3" fill="#d62728"/>
<circle cx="601.6" cy="557.6" r="3" fill="#d62728"/>
<circle cx="605.2" cy="555.7" r="3" fill="#d62728"/>
<circle cx="608.7" cy="560.0" r="3" fill="#d62728"/>
<circle cx="612.2" cy="554.1" r="3" fill="#d62728"/>
<circle cx="615.8" cy="562.7" r="3" fill="#d62728"/>
<circle cx="619.3" cy="555.8" r="3" fill="#d62728"/>
<circle cx="622.9" cy="558.2" r="3" fill="#d62728"/>
<circle cx="626.4" cy="564.5" r="3" fill="#d62728"/>
<circle cx="629.9" cy="559.4" r="3" fill="#d62728"/>
<circle cx="633.5" cy="563.1" r="3" fill="#d62728"/>
<circle cx="637.0" cy="563.1" r="3" fill="#d62728"/>
<circle cx="640.6" cy="563.4" r="3" fill="#d62728"/>
<circle cx="644.1" cy="561.3" r="3" fill="#d62728"/>
<circle cx="647.7" cy="564.1" r="3" fill="#d62728"/>
<circle cx="651.2" cy="565.5" r="3" fill="#d62728"/>
<circle cx="654.7" cy="564.1" r="3" fill="#d62728"/>
<circle cx="658.3" cy="561.7" r="3" fill="#d62728"/>
<circle cx="661.8" cy="564.5" r="3" fill="#d62728"/>
<circle cx="665.4" cy="560.8" r="3" fill="#d62728"/>
<circle cx="668.9" cy="563.3" r="3" fill="#d62728"/>
<circle cx="672.5" cy="559.1" r="3" fill="#d62728"/>
<circle cx="676.0" cy="557.0" r="3" fill="#d62728"/>
<circle cx="679.5" cy="560.8" r="3" fill="#d62728"/>
<circle cx="683.1" cy="565.7" r="3" fill="#d62728"/>
<circle cx="686.6" cy="562.4" r="3" fill="#d62728"/>
<circle cx="690.2" cy="564.0" r="3" fill="#d62728"/>
<circle cx="693.7" cy="562.2" r="3" fill="#d62728"/>
<circle cx="697.3" cy="560.6" r="3" fill="#d62728"/>
<circle cx="700.8" cy="562.0" r="3" fill="#d62728"/>
<circle cx="704.3" cy="563.4" r="3" fill="#d62728"/>
<circle cx="707.9" cy="563.5" r="3" fill="#d62728"/>
<circle cx="711.4" cy="561.1" r="3" fill="#d62728"/>
<circle cx="715.0" cy="558.2" r="3" fill="#d62728"/>
<circle cx="718.5" cy="556.7" r="3" fill="#d62728"/>
<circle cx="722.1" cy="559.1" r="3" fill="#d62728"/>
<circle cx="725.6" cy="558.6" r="3" fill="#d62728"/>
<circle cx="729.1" cy="559.8" r="3" fill="#d62728"/>
<circle cx="732.7" cy="559.8" r="3" fill="#d62728"/>
<circle cx="736.2" cy="560.3" r="3" fill="#d62728"/>
<circle cx="739.8" cy="564.6" r="3" fill="#d62728"/>
<circle cx="743.3" cy="562.5" r="3" fill="#d62728"/>
<circle cx="746.9" cy="562.9" r="3" fill="#d62728"/>
<circle cx="750.4" cy="564.1" r="3" fill="#d62728"/>
<circle cx="753.9" cy="565.1" r="3" fill="#d62728"/>
<circle cx="757.5" cy="563.7" r="3" fill="#d62728"/>
<circle cx="761.0" cy="565.6" r="3" fill="#d62728"/>
<circle cx="764.6" cy="563.2" r="3" fill="#d62728"/>
<circle cx="768.1" cy="566.1" r="3" fill="#d62728"/>
<circle cx="771.7" cy="568.4" r="3" fill="#d62728"/>
<circle cx="775.2" cy="563.4" r="3" fill="#d62728"/>
<circle cx="778.7" cy="565.7" r="3" fill="#d62728"/>
<circle cx="782.3" cy="565.0" r="3" fill="#d62728"/>
<circle cx="785.8" cy="564.0" r="3" fill="#d62728"/>
<circle cx="789.4" cy="564.9" r="3" fill="#d62728"/>
<circle cx="792.9" cy="564.8" r="3" fill="#d62728"/>
<circle cx="796.5" cy="566.3" r="3" fill="#d62728"/>
<circle cx="800.0" cy="566.3" r="3" fill="#d62728"/>
<line x1="828" y1="120" x2="850" y2="120" stroke="#d62728" stroke-width="2.5"/>
<text x="858" y="124" font-family="Arial" font-size="13">Direct GRPO reference</text>
<text x="447.5" y="638" text-anchor="middle" font-family="Arial" font-size="15">GRPO step</text>
<text x="24" y="326.0" text-anchor="middle" font-family="Arial" font-size="15" transform="rotate(-90 24 326.0)">Mean token entropy</text>
</svg>
