<svg xmlns="http://www.w3.org/2000/svg" width="1100" height="660" viewBox="0 0 1100 660">
<rect width="100%" height="100%" fill="white"/>
<text x="550.0" y="36" text-anchor="middle" font-family="Arial" font-size="22" font-weight="700">SFT + KL GRPO validation format accuracy</text>
<line x1="95" y1="578" x2="800" y2="578" stroke="#222" stroke-width="1.5"/>
<line x1="95" y1="74" x2="95" y2="578" stroke="#222" stroke-width="1.5"/>
<line x1="90" y1="578.0" x2="800" y2="578.0" stroke="#ddd" stroke-width="1"/>
<text x="83" y="582.0" text-anchor="end" font-family="Arial" font-size="12">0.00%</text>
<line x1="90" y1="477.2" x2="800" y2="477.2" stroke="#ddd" stroke-width="1"/>
<text x="83" y="481.2" text-anchor="end" font-family="Arial" font-size="12">20.00%</text>
<line x1="90" y1="376.4" x2="800" y2="376.4" stroke="#ddd" stroke-width="1"/>
<text x="83" y="380.4" text-anchor="end" font-family="Arial" font-size="12">40.00%</text>
<line x1="90" y1="275.6" x2="800" y2="275.6" stroke="#ddd" stroke-width="1"/>
<text x="83" y="279.6" text-anchor="end" font-family="Arial" font-size="12">60.00%</text>
<line x1="90" y1="174.8" x2="800" y2="174.8" stroke="#ddd" stroke-width="1"/>
<text x="83" y="178.8" text-anchor="end" font-family="Arial" font-size="12">80.00%</text>
<line x1="90" y1="74.0" x2="800" y2="74.0" stroke="#ddd" stroke-width="1"/>
<text x="83" y="78.0" text-anchor="end" font-family="Arial" font-size="12">100.00%</text>
<line x1="95.0" y1="578" x2="95.0" y2="583" stroke="#222" stroke-width="1"/>
<text x="95.0" y="602" text-anchor="middle" font-family="Arial" font-size="12">0</text>
<line x1="236.0" y1="578" x2="236.0" y2="583" stroke="#222" stroke-width="1"/>
<text x="236.0" y="602" text-anchor="middle" font-family="Arial" font-size="12">40</text>
<line x1="377.0" y1="578" x2="377.0" y2="583" stroke="#222" stroke-width="1"/>
<text x="377.0" y="602" text-anchor="middle" font-family="Arial" font-size="12">80</text>
<line x1="518.0" y1="578" x2="518.0" y2="583" stroke="#222" stroke-width="1"/>
<text x="518.0" y="602" text-anchor="middle" font-family="Arial" font-size="12">120</text>
<line x1="659.0" y1="578" x2="659.0" y2="583" stroke="#222" stroke-width="1"/>
<text x="659.0" y="602" text-anchor="middle" font-family="Arial" font-size="12">160</text>
<line x1="800.0" y1="578" x2="800.0" y2="583" stroke="#222" stroke-width="1"/>
<text x="800.0" y="602" text-anchor="middle" font-family="Arial" font-size="12">200</text>
<polyline fill="none" stroke="#1f77b4" stroke-width="2.3" points="95.0,133.6 112.6,77.9 130.2,80.4 147.9,82.9 165.5,77.9 183.1,79.4 200.8,76.5 218.4,77.0 236.0,79.4 253.6,82.9 271.2,83.8 288.9,84.8 306.5,78.4 324.1,79.9 341.8,80.9 359.4,78.9 377.0,79.9 394.6,77.4 412.2,78.9 429.9,80.4 447.5,79.4 465.1,81.9 482.8,79.4 500.4,83.8 518.0,79.9 535.6,80.4 553.2,81.4 570.9,78.4 588.5,75.0 606.1,77.4 623.8,79.4 641.4,80.9 659.0,79.4 676.6,79.9 694.2,82.9 711.9,83.8 729.5,83.4 747.1,85.8 764.8,83.8"/>
<circle cx="95.0" cy="133.6" r="3" fill="#1f77b4"/>
<circle cx="112.6" cy="77.9" r="3" fill="#1f77b4"/>
<circle cx="130.2" cy="80.4" r="3" fill="#1f77b4"/>
<circle cx="147.9" cy="82.9" r="3" fill="#1f77b4"/>
<circle cx="165.5" cy="77.9" r="3" fill="#1f77b4"/>
<circle cx="183.1" cy="79.4" r="3" fill="#1f77b4"/>
<circle cx="200.8" cy="76.5" r="3" fill="#1f77b4"/>
<circle cx="218.4" cy="77.0" r="3" fill="#1f77b4"/>
<circle cx="236.0" cy="79.4" r="3" fill="#1f77b4"/>
<circle cx="253.6" cy="82.9" r="3" fill="#1f77b4"/>
<circle cx="271.2" cy="83.8" r="3" fill="#1f77b4"/>
<circle cx="288.9" cy="84.8" r="3" fill="#1f77b4"/>
<circle cx="306.5" cy="78.4" r="3" fill="#1f77b4"/>
<circle cx="324.1" cy="79.9" r="3" fill="#1f77b4"/>
<circle cx="341.8" cy="80.9" r="3" fill="#1f77b4"/>
<circle cx="359.4" cy="78.9" r="3" fill="#1f77b4"/>
<circle cx="377.0" cy="79.9" r="3" fill="#1f77b4"/>
<circle cx="394.6" cy="77.4" r="3" fill="#1f77b4"/>
<circle cx="412.2" cy="78.9" r="3" fill="#1f77b4"/>
<circle cx="429.9" cy="80.4" r="3" fill="#1f77b4"/>
<circle cx="447.5" cy="79.4" r="3" fill="#1f77b4"/>
<circle cx="465.1" cy="81.9" r="3" fill="#1f77b4"/>
<circle cx="482.8" cy="79.4" r="3" fill="#1f77b4"/>
<circle cx="500.4" cy="83.8" r="3" fill="#1f77b4"/>
<circle cx="518.0" cy="79.9" r="3" fill="#1f77b4"/>
<circle cx="535.6" cy="80.4" r="3" fill="#1f77b4"/>
<circle cx="553.2" cy="81.4" r="3" fill="#1f77b4"/>
<circle cx="570.9" cy="78.4" r="3" fill="#1f77b4"/>
<circle cx="588.5" cy="75.0" r="3" fill="#1f77b4"/>
<circle cx="606.1" cy="77.4" r="3" fill="#1f77b4"/>
<circle cx="623.8" cy="79.4" r="3" fill="#1f77b4"/>
<circle cx="641.4" cy="80.9" r="3" fill="#1f77b4"/>
<circle cx="659.0" cy="79.4" r="3" fill="#1f77b4"/>
<circle cx="676.6" cy="79.9" r="3" fill="#1f77b4"/>
<circle cx="694.2" cy="82.9" r="3" fill="#1f77b4"/>
<circle cx="711.9" cy="83.8" r="3" fill="#1f77b4"/>
<circle cx="729.5" cy="83.4" r="3" fill="#1f77b4"/>
<circle cx="747.1" cy="85.8" r="3" fill="#1f77b4"/>
<circle cx="764.8" cy="83.8" r="3" fill="#1f77b4"/>
<line x1="828" y1="96" x2="850" y2="96" stroke="#1f77b4" stroke-width="2.5"/>
<text x="858" y="100" font-family="Arial" font-size="13">SFT + KL GRPO</text>
<polyline fill="none" stroke="#d62728" stroke-width="2.3" points="95.0,486.9 112.6,155.2 130.2,107.0 147.9,94.7 165.5,99.6 183.1,108.5 200.8,110.4 218.4,97.1 236.0,96.1 253.6,90.2 271.2,88.3 288.9,88.3 306.5,89.8 324.1,98.6 341.8,110.4 359.4,102.1 377.0,96.6 394.6,98.1 412.2,97.6 429.9,86.3 447.5,84.3 465.1,84.3 482.8,81.9 500.4,91.2 518.0,92.2 535.6,92.2 553.2,89.8 570.9,88.8 588.5,88.8 606.1,99.1 623.8,88.3 641.4,87.3 659.0,86.3 676.6,86.8 694.2,84.8 711.9,87.3 729.5,82.9 747.1,83.4 764.8,85.8 782.4,85.3 800.0,83.8"/>
<circle cx="95.0" cy="486.9" r="3" fill="#d62728"/>
<circle cx="112.6" cy="155.2" r="3" fill="#d62728"/>
<circle cx="130.2" cy="107.0" r="3" fill="#d62728"/>
<circle cx="147.9" cy="94.7" r="3" fill="#d62728"/>
<circle cx="165.5" cy="99.6" r="3" fill="#d62728"/>
<circle cx="183.1" cy="108.5" r="3" fill="#d62728"/>
<circle cx="200.8" cy="110.4" r="3" fill="#d62728"/>
<circle cx="218.4" cy="97.1" r="3" fill="#d62728"/>
<circle cx="236.0" cy="96.1" r="3" fill="#d62728"/>
<circle cx="253.6" cy="90.2" r="3" fill="#d62728"/>
<circle cx="271.2" cy="88.3" r="3" fill="#d62728"/>
<circle cx="288.9" cy="88.3" r="3" fill="#d62728"/>
<circle cx="306.5" cy="89.8" r="3" fill="#d62728"/>
<circle cx="324.1" cy="98.6" r="3" fill="#d62728"/>
<circle cx="341.8" cy="110.4" r="3" fill="#d62728"/>
<circle cx="359.4" cy="102.1" r="3" fill="#d62728"/>
<circle cx="377.0" cy="96.6" r="3" fill="#d62728"/>
<circle cx="394.6" cy="98.1" r="3" fill="#d62728"/>
<circle cx="412.2" cy="97.6" r="3" fill="#d62728"/>
<circle cx="429.9" cy="86.3" r="3" fill="#d62728"/>
<circle cx="447.5" cy="84.3" r="3" fill="#d62728"/>
<circle cx="465.1" cy="84.3" r="3" fill="#d62728"/>
<circle cx="482.8" cy="81.9" r="3" fill="#d62728"/>
<circle cx="500.4" cy="91.2" r="3" fill="#d62728"/>
<circle cx="518.0" cy="92.2" r="3" fill="#d62728"/>
<circle cx="535.6" cy="92.2" r="3" fill="#d62728"/>
<circle cx="553.2" cy="89.8" r="3" fill="#d62728"/>
<circle cx="570.9" cy="88.8" r="3" fill="#d62728"/>
<circle cx="588.5" cy="88.8" r="3" fill="#d62728"/>
<circle cx="606.1" cy="99.1" r="3" fill="#d62728"/>
<circle cx="623.8" cy="88.3" r="3" fill="#d62728"/>
<circle cx="641.4" cy="87.3" r="3" fill="#d62728"/>
<circle cx="659.0" cy="86.3" r="3" fill="#d62728"/>
<circle cx="676.6" cy="86.8" r="3" fill="#d62728"/>
<circle cx="694.2" cy="84.8" r="3" fill="#d62728"/>
<circle cx="711.9" cy="87.3" r="3" fill="#d62728"/>
<circle cx="729.5" cy="82.9" r="3" fill="#d62728"/>
<circle cx="747.1" cy="83.4" r="3" fill="#d62728"/>
<circle cx="764.8" cy="85.8" r="3" fill="#d62728"/>
<circle cx="782.4" cy="85.3" r="3" fill="#d62728"/>
<circle cx="800.0" cy="83.8" r="3" fill="#d62728"/>
<line x1="828" y1="120" x2="850" y2="120" stroke="#d62728" stroke-width="2.5"/>
<text x="858" y="124" font-family="Arial" font-size="13">Direct GRPO reference</text>
<text x="447.5" y="638" text-anchor="middle" font-family="Arial" font-size="15">GRPO step</text>
<text x="24" y="326.0" text-anchor="middle" font-family="Arial" font-size="15" transform="rotate(-90 24 326.0)">Format accuracy</text>
</svg>
