<svg xmlns="http://www.w3.org/2000/svg" width="1100" height="660" viewBox="0 0 1100 660">
<rect width="100%" height="100%" fill="white"/>
<text x="550.0" y="36" text-anchor="middle" font-family="Arial" font-size="22" font-weight="700">SFT + KL GRPO answer reward vs wall-clock time</text>
<line x1="95" y1="578" x2="800" y2="578" stroke="#222" stroke-width="1.5"/>
<line x1="95" y1="74" x2="95" y2="578" stroke="#222" stroke-width="1.5"/>
<line x1="90" y1="578.0" x2="800" y2="578.0" stroke="#ddd" stroke-width="1"/>
<text x="83" y="582.0" text-anchor="end" font-family="Arial" font-size="12">0.00%</text>
<line x1="90" y1="477.2" x2="800" y2="477.2" stroke="#ddd" stroke-width="1"/>
<text x="83" y="481.2" text-anchor="end" font-family="Arial" font-size="12">18.00%</text>
<line x1="90" y1="376.4" x2="800" y2="376.4" stroke="#ddd" stroke-width="1"/>
<text x="83" y="380.4" text-anchor="end" font-family="Arial" font-size="12">36.00%</text>
<line x1="90" y1="275.6" x2="800" y2="275.6" stroke="#ddd" stroke-width="1"/>
<text x="83" y="279.6" text-anchor="end" font-family="Arial" font-size="12">54.00%</text>
<line x1="90" y1="174.8" x2="800" y2="174.8" stroke="#ddd" stroke-width="1"/>
<text x="83" y="178.8" text-anchor="end" font-family="Arial" font-size="12">72.00%</text>
<line x1="90" y1="74.0" x2="800" y2="74.0" stroke="#ddd" stroke-width="1"/>
<text x="83" y="78.0" text-anchor="end" font-family="Arial" font-size="12">90.00%</text>
<line x1="95.0" y1="578" x2="95.0" y2="583" stroke="#222" stroke-width="1"/>
<text x="95.0" y="602" text-anchor="middle" font-family="Arial" font-size="12">0.0</text>
<line x1="236.0" y1="578" x2="236.0" y2="583" stroke="#222" stroke-width="1"/>
<text x="236.0" y="602" text-anchor="middle" font-family="Arial" font-size="12">0.5</text>
<line x1="377.0" y1="578" x2="377.0" y2="583" stroke="#222" stroke-width="1"/>
<text x="377.0" y="602" text-anchor="middle" font-family="Arial" font-size="12">1.0</text>
<line x1="518.0" y1="578" x2="518.0" y2="583" stroke="#222" stroke-width="1"/>
<text x="518.0" y="602" text-anchor="middle" font-family="Arial" font-size="12">1.5</text>
<line x1="659.0" y1="578" x2="659.0" y2="583" stroke="#222" stroke-width="1"/>
<text x="659.0" y="602" text-anchor="middle" font-family="Arial" font-size="12">2.0</text>
<line x1="800.0" y1="578" x2="800.0" y2="583" stroke="#222" stroke-width="1"/>
<text x="800.0" y="602" text-anchor="middle" font-family="Arial" font-size="12">2.5</text>
<polyline fill="none" stroke="#1f77b4" stroke-width="2.3" points="95.0,339.0 110.5,280.0 125.7,278.9 141.6,255.9 157.7,245.5 174.3,242.2 190.6,225.3 206.1,228.0 225.0,217.6 241.5,219.8 258.5,208.9 276.0,224.7 291.7,211.0 307.8,214.3 325.2,206.1 343.0,208.9 360.1,207.2 377.0,186.4 393.9,190.8 410.7,183.2 428.3,181.5 445.6,183.7 463.4,177.7 482.0,167.8 498.7,176.0 515.7,171.1 532.2,177.7 548.7,182.6 565.8,177.7 582.7,170.6 598.5,168.4 615.7,175.0 633.4,167.8 651.3,154.2 668.9,159.6 686.5,156.4 706.2,149.8 723.7,152.5 741.2,147.6"/>
<circle cx="95.0" cy="339.0" r="3" fill="#1f77b4"/>
<circle cx="110.5" cy="280.0" r="3" fill="#1f77b4"/>
<circle cx="125.7" cy="278.9" r="3" fill="#1f77b4"/>
<circle cx="141.6" cy="255.9" r="3" fill="#1f77b4"/>
<circle cx="157.7" cy="245.5" r="3" fill="#1f77b4"/>
<circle cx="174.3" cy="242.2" r="3" fill="#1f77b4"/>
<circle cx="190.6" cy="225.3" r="3" fill="#1f77b4"/>
<circle cx="206.1" cy="228.0" r="3" fill="#1f77b4"/>
<circle cx="225.0" cy="217.6" r="3" fill="#1f77b4"/>
<circle cx="241.5" cy="219.8" r="3" fill="#1f77b4"/>
<circle cx="258.5" cy="208.9" r="3" fill="#1f77b4"/>
<circle cx="276.0" cy="224.7" r="3" fill="#1f77b4"/>
<circle cx="291.7" cy="211.0" r="3" fill="#1f77b4"/>
<circle cx="307.8" cy="214.3" r="3" fill="#1f77b4"/>
<circle cx="325.2" cy="206.1" r="3" fill="#1f77b4"/>
<circle cx="343.0" cy="208.9" r="3" fill="#1f77b4"/>
<circle cx="360.1" cy="207.2" r="3" fill="#1f77b4"/>
<circle cx="377.0" cy="186.4" r="3" fill="#1f77b4"/>
<circle cx="393.9" cy="190.8" r="3" fill="#1f77b4"/>
<circle cx="410.7" cy="183.2" r="3" fill="#1f77b4"/>
<circle cx="428.3" cy="181.5" r="3" fill="#1f77b4"/>
<circle cx="445.6" cy="183.7" r="3" fill="#1f77b4"/>
<circle cx="463.4" cy="177.7" r="3" fill="#1f77b4"/>
<circle cx="482.0" cy="167.8" r="3" fill="#1f77b4"/>
<circle cx="498.7" cy="176.0" r="3" fill="#1f77b4"/>
<circle cx="515.7" cy="171.1" r="3" fill="#1f77b4"/>
<circle cx="532.2" cy="177.7" r="3" fill="#1f77b4"/>
<circle cx="548.7" cy="182.6" r="3" fill="#1f77b4"/>
<circle cx="565.8" cy="177.7" r="3" fill="#1f77b4"/>
<circle cx="582.7" cy="170.6" r="3" fill="#1f77b4"/>
<circle cx="598.5" cy="168.4" r="3" fill="#1f77b4"/>
<circle cx="615.7" cy="175.0" r="3" fill="#1f77b4"/>
<circle cx="633.4" cy="167.8" r="3" fill="#1f77b4"/>
<circle cx="651.3" cy="154.2" r="3" fill="#1f77b4"/>
<circle cx="668.9" cy="159.6" r="3" fill="#1f77b4"/>
<circle cx="686.5" cy="156.4" r="3" fill="#1f77b4"/>
<circle cx="706.2" cy="149.8" r="3" fill="#1f77b4"/>
<circle cx="723.7" cy="152.5" r="3" fill="#1f77b4"/>
<circle cx="741.2" cy="147.6" r="3" fill="#1f77b4"/>
<line x1="828" y1="96" x2="850" y2="96" stroke="#1f77b4" stroke-width="2.5"/>
<text x="858" y="100" font-family="Arial" font-size="13">SFT + KL GRPO</text>
<polyline fill="none" stroke="#d62728" stroke-width="2.3" points="95.0,556.7 109.5,410.7 123.3,335.2 136.9,262.5 151.1,190.8 167.0,171.1 182.2,159.6 197.4,147.6 214.8,137.8 230.5,118.1 246.1,114.8 262.4,120.8 278.8,106.0 295.6,102.8 313.3,109.3 332.6,103.9 351.5,90.7 370.0,94.6 389.1,96.8 408.2,88.0 426.3,96.2 443.3,101.7 460.0,105.5 477.7,107.1 495.7,107.1 514.2,95.1 533.7,96.8 552.7,101.7 572.1,90.2 592.0,102.2 611.3,84.7 630.1,89.6 650.2,90.7 669.6,88.0 687.3,90.7 705.9,90.7 724.3,93.5 743.1,89.6 762.0,84.2 780.1,90.7 800.0,84.2"/>
<circle cx="95.0" cy="556.7" r="3" fill="#d62728"/>
<circle cx="109.5" cy="410.7" r="3" fill="#d62728"/>
<circle cx="123.3" cy="335.2" r="3" fill="#d62728"/>
<circle cx="136.9" cy="262.5" r="3" fill="#d62728"/>
<circle cx="151.1" cy="190.8" r="3" fill="#d62728"/>
<circle cx="167.0" cy="171.1" r="3" fill="#d62728"/>
<circle cx="182.2" cy="159.6" r="3" fill="#d62728"/>
<circle cx="197.4" cy="147.6" r="3" fill="#d62728"/>
<circle cx="214.8" cy="137.8" r="3" fill="#d62728"/>
<circle cx="230.5" cy="118.1" r="3" fill="#d62728"/>
<circle cx="246.1" cy="114.8" r="3" fill="#d62728"/>
<circle cx="262.4" cy="120.8" r="3" fill="#d62728"/>
<circle cx="278.8" cy="106.0" r="3" fill="#d62728"/>
<circle cx="295.6" cy="102.8" r="3" fill="#d62728"/>
<circle cx="313.3" cy="109.3" r="3" fill="#d62728"/>
<circle cx="332.6" cy="103.9" r="3" fill="#d62728"/>
<circle cx="351.5" cy="90.7" r="3" fill="#d62728"/>
<circle cx="370.0" cy="94.6" r="3" fill="#d62728"/>
<circle cx="389.1" cy="96.8" r="3" fill="#d62728"/>
<circle cx="408.2" cy="88.0" r="3" fill="#d62728"/>
<circle cx="426.3" cy="96.2" r="3" fill="#d62728"/>
<circle cx="443.3" cy="101.7" r="3" fill="#d62728"/>
<circle cx="460.0" cy="105.5" r="3" fill="#d62728"/>
<circle cx="477.7" cy="107.1" r="3" fill="#d62728"/>
<circle cx="495.7" cy="107.1" r="3" fill="#d62728"/>
<circle cx="514.2" cy="95.1" r="3" fill="#d62728"/>
<circle cx="533.7" cy="96.8" r="3" fill="#d62728"/>
<circle cx="552.7" cy="101.7" r="3" fill="#d62728"/>
<circle cx="572.1" cy="90.2" r="3" fill="#d62728"/>
<circle cx="592.0" cy="102.2" r="3" fill="#d62728"/>
<circle cx="611.3" cy="84.7" r="3" fill="#d62728"/>
<circle cx="630.1" cy="89.6" r="3" fill="#d62728"/>
<circle cx="650.2" cy="90.7" r="3" fill="#d62728"/>
<circle cx="669.6" cy="88.0" r="3" fill="#d62728"/>
<circle cx="687.3" cy="90.7" r="3" fill="#d62728"/>
<circle cx="705.9" cy="90.7" r="3" fill="#d62728"/>
<circle cx="724.3" cy="93.5" r="3" fill="#d62728"/>
<circle cx="743.1" cy="89.6" r="3" fill="#d62728"/>
<circle cx="762.0" cy="84.2" r="3" fill="#d62728"/>
<circle cx="780.1" cy="90.7" r="3" fill="#d62728"/>
<circle cx="800.0" cy="84.2" r="3" fill="#d62728"/>
<line x1="828" y1="120" x2="850" y2="120" stroke="#d62728" stroke-width="2.5"/>
<text x="858" y="124" font-family="Arial" font-size="13">Direct GRPO reference</text>
<text x="447.5" y="638" text-anchor="middle" font-family="Arial" font-size="15">Wall-clock hours</text>
<text x="24" y="326.0" text-anchor="middle" font-family="Arial" font-size="15" transform="rotate(-90 24 326.0)">Answer reward</text>
</svg>
