<svg xmlns="http://www.w3.org/2000/svg" width="1100" height="660" viewBox="0 0 1100 660">
<rect width="100%" height="100%" fill="white"/>
<text x="550.0" y="36" text-anchor="middle" font-family="Arial" font-size="22" font-weight="700">SFT + KL GRPO reference KL</text>
<line x1="95" y1="578" x2="800" y2="578" stroke="#222" stroke-width="1.5"/>
<line x1="95" y1="74" x2="95" y2="578" stroke="#222" stroke-width="1.5"/>
<line x1="90" y1="578.0" x2="800" y2="578.0" stroke="#ddd" stroke-width="1"/>
<text x="83" y="582.0" text-anchor="end" font-family="Arial" font-size="12">0.00</text>
<line x1="90" y1="477.2" x2="800" y2="477.2" stroke="#ddd" stroke-width="1"/>
<text x="83" y="481.2" text-anchor="end" font-family="Arial" font-size="12">0.06</text>
<line x1="90" y1="376.4" x2="800" y2="376.4" stroke="#ddd" stroke-width="1"/>
<text x="83" y="380.4" text-anchor="end" font-family="Arial" font-size="12">0.12</text>
<line x1="90" y1="275.6" x2="800" y2="275.6" stroke="#ddd" stroke-width="1"/>
<text x="83" y="279.6" text-anchor="end" font-family="Arial" font-size="12">0.18</text>
<line x1="90" y1="174.8" x2="800" y2="174.8" stroke="#ddd" stroke-width="1"/>
<text x="83" y="178.8" text-anchor="end" font-family="Arial" font-size="12">0.24</text>
<line x1="90" y1="74.0" x2="800" y2="74.0" stroke="#ddd" stroke-width="1"/>
<text x="83" y="78.0" text-anchor="end" font-family="Arial" font-size="12">0.30</text>
<line x1="95.0" y1="578" x2="95.0" y2="583" stroke="#222" stroke-width="1"/>
<text x="95.0" y="602" text-anchor="middle" font-family="Arial" font-size="12">1</text>
<line x1="236.0" y1="578" x2="236.0" y2="583" stroke="#222" stroke-width="1"/>
<text x="236.0" y="602" text-anchor="middle" font-family="Arial" font-size="12">39</text>
<line x1="377.0" y1="578" x2="377.0" y2="583" stroke="#222" stroke-width="1"/>
<text x="377.0" y="602" text-anchor="middle" font-family="Arial" font-size="12">77</text>
<line x1="518.0" y1="578" x2="518.0" y2="583" stroke="#222" stroke-width="1"/>
<text x="518.0" y="602" text-anchor="middle" font-family="Arial" font-size="12">114</text>
<line x1="659.0" y1="578" x2="659.0" y2="583" stroke="#222" stroke-width="1"/>
<text x="659.0" y="602" text-anchor="middle" font-family="Arial" font-size="12">152</text>
<line x1="800.0" y1="578" x2="800.0" y2="583" stroke="#222" stroke-width="1"/>
<text x="800.0" y="602" text-anchor="middle" font-family="Arial" font-size="12">190</text>
<polyline fill="none" stroke="#1f77b4" stroke-width="2.3" points="95.0,578.0 98.7,561.2 102.5,525.1 106.2,504.5 109.9,488.7 113.7,471.3 117.4,453.6 121.1,446.1 124.8,443.5 128.6,446.7 132.3,444.1 136.0,463.8 139.8,447.5 143.5,437.3 147.2,429.8 151.0,453.0 154.7,423.3 158.4,418.7 162.1,438.9 165.9,418.4 169.6,409.0 173.3,407.9 177.1,413.7 180.8,411.4 184.5,409.4 188.3,406.2 192.0,412.8 195.7,427.1 199.4,401.3 203.2,432.7 206.9,419.2 210.6,391.7 214.4,367.5 218.1,392.8 221.8,370.8 225.6,392.4 229.3,358.6 233.0,381.2 236.7,374.4 240.5,396.9 244.2,391.0 247.9,378.7 251.7,390.9 255.4,361.2 259.1,375.9 262.9,344.5 266.6,336.3 270.3,368.9 274.0,353.1 277.8,284.0 281.5,327.7 285.2,163.4 289.0,177.3 292.7,103.8 296.4,214.1 300.2,210.5 303.9,251.3 307.6,330.5 311.3,323.6 315.1,315.5 318.8,293.5 322.5,288.8 326.3,285.3 330.0,297.2 333.7,308.9 337.5,277.6 341.2,302.9 344.9,243.8 348.7,312.6 352.4,282.8 356.1,346.6 359.8,300.8 363.6,278.4 367.3,302.1 371.0,276.5 374.8,285.8 378.5,297.5 382.2,311.3 386.0,322.4 389.7,317.5 393.4,277.1 397.1,300.3 400.9,297.3 404.6,302.4 408.3,300.3 412.1,267.8 415.8,292.3 419.5,275.5 423.3,266.1 427.0,317.7 430.7,327.4 434.4,310.9 438.2,304.3 441.9,340.3 445.6,283.6 449.4,292.3 453.1,278.0 456.8,291.2 460.6,323.7 464.3,292.6 468.0,319.0 471.7,239.1 475.5,272.2 479.2,316.4 482.9,306.6 486.7,275.0 490.4,284.2 494.1,296.3 497.9,296.2 501.6,281.1 505.3,329.5 509.0,339.9 512.8,297.3 516.5,288.1 520.2,291.0 524.0,273.8 527.7,277.1 531.4,279.0 535.2,277.1 538.9,239.8 542.6,291.5 546.3,292.2 550.1,325.7 553.8,277.4 557.5,254.8 561.3,289.3 565.0,266.6 568.7,291.1 572.5,276.7 576.2,297.9 579.9,237.3 583.7,254.5 587.4,199.1 591.1,277.8 594.8,238.1 598.6,271.3 602.3,245.2 606.0,288.9 609.8,239.8 613.5,268.1 617.2,256.3 621.0,246.0 624.7,230.6 628.4,313.1 632.1,227.1 635.9,223.4 639.6,242.0 643.3,260.3 647.1,256.4 650.8,216.8 654.5,232.7 658.3,203.0 662.0,210.9 665.7,250.8 669.4,216.8 673.2,223.4 676.9,256.9 680.6,235.7 684.4,240.1 688.1,272.7 691.8,234.9 695.6,212.0 699.3,229.5 703.0,225.1 706.7,153.1 710.5,233.7 714.2,229.4 717.9,211.6 721.7,244.9 725.4,187.2 729.1,192.6 732.9,202.9 736.6,220.0 740.3,267.0 744.0,240.6 747.8,229.7 751.5,273.7 755.2,227.7 759.0,211.8 762.7,270.5 766.4,240.5 770.2,221.5 773.9,209.0 777.6,261.0 781.3,224.0 785.1,221.7 788.8,242.0 792.5,215.4 796.3,245.0 800.0,236.0"/>
<circle cx="95.0" cy="578.0" r="3" fill="#1f77b4"/>
<circle cx="98.7" cy="561.2" r="3" fill="#1f77b4"/>
<circle cx="102.5" cy="525.1" r="3" fill="#1f77b4"/>
<circle cx="106.2" cy="504.5" r="3" fill="#1f77b4"/>
<circle cx="109.9" cy="488.7" r="3" fill="#1f77b4"/>
<circle cx="113.7" cy="471.3" r="3" fill="#1f77b4"/>
<circle cx="117.4" cy="453.6" r="3" fill="#1f77b4"/>
<circle cx="121.1" cy="446.1" r="3" fill="#1f77b4"/>
<circle cx="124.8" cy="443.5" r="3" fill="#1f77b4"/>
<circle cx="128.6" cy="446.7" r="3" fill="#1f77b4"/>
<circle cx="132.3" cy="444.1" r="3" fill="#1f77b4"/>
<circle cx="136.0" cy="463.8" r="3" fill="#1f77b4"/>
<circle cx="139.8" cy="447.5" r="3" fill="#1f77b4"/>
<circle cx="143.5" cy="437.3" r="3" fill="#1f77b4"/>
<circle cx="147.2" cy="429.8" r="3" fill="#1f77b4"/>
<circle cx="151.0" cy="453.0" r="3" fill="#1f77b4"/>
<circle cx="154.7" cy="423.3" r="3" fill="#1f77b4"/>
<circle cx="158.4" cy="418.7" r="3" fill="#1f77b4"/>
<circle cx="162.1" cy="438.9" r="3" fill="#1f77b4"/>
<circle cx="165.9" cy="418.4" r="3" fill="#1f77b4"/>
<circle cx="169.6" cy="409.0" r="3" fill="#1f77b4"/>
<circle cx="173.3" cy="407.9" r="3" fill="#1f77b4"/>
<circle cx="177.1" cy="413.7" r="3" fill="#1f77b4"/>
<circle cx="180.8" cy="411.4" r="3" fill="#1f77b4"/>
<circle cx="184.5" cy="409.4" r="3" fill="#1f77b4"/>
<circle cx="188.3" cy="406.2" r="3" fill="#1f77b4"/>
<circle cx="192.0" cy="412.8" r="3" fill="#1f77b4"/>
<circle cx="195.7" cy="427.1" r="3" fill="#1f77b4"/>
<circle cx="199.4" cy="401.3" r="3" fill="#1f77b4"/>
<circle cx="203.2" cy="432.7" r="3" fill="#1f77b4"/>
<circle cx="206.9" cy="419.2" r="3" fill="#1f77b4"/>
<circle cx="210.6" cy="391.7" r="3" fill="#1f77b4"/>
<circle cx="214.4" cy="367.5" r="3" fill="#1f77b4"/>
<circle cx="218.1" cy="392.8" r="3" fill="#1f77b4"/>
<circle cx="221.8" cy="370.8" r="3" fill="#1f77b4"/>
<circle cx="225.6" cy="392.4" r="3" fill="#1f77b4"/>
<circle cx="229.3" cy="358.6" r="3" fill="#1f77b4"/>
<circle cx="233.0" cy="381.2" r="3" fill="#1f77b4"/>
<circle cx="236.7" cy="374.4" r="3" fill="#1f77b4"/>
<circle cx="240.5" cy="396.9" r="3" fill="#1f77b4"/>
<circle cx="244.2" cy="391.0" r="3" fill="#1f77b4"/>
<circle cx="247.9" cy="378.7" r="3" fill="#1f77b4"/>
<circle cx="251.7" cy="390.9" r="3" fill="#1f77b4"/>
<circle cx="255.4" cy="361.2" r="3" fill="#1f77b4"/>
<circle cx="259.1" cy="375.9" r="3" fill="#1f77b4"/>
<circle cx="262.9" cy="344.5" r="3" fill="#1f77b4"/>
<circle cx="266.6" cy="336.3" r="3" fill="#1f77b4"/>
<circle cx="270.3" cy="368.9" r="3" fill="#1f77b4"/>
<circle cx="274.0" cy="353.1" r="3" fill="#1f77b4"/>
<circle cx="277.8" cy="284.0" r="3" fill="#1f77b4"/>
<circle cx="281.5" cy="327.7" r="3" fill="#1f77b4"/>
<circle cx="285.2" cy="163.4" r="3" fill="#1f77b4"/>
<circle cx="289.0" cy="177.3" r="3" fill="#1f77b4"/>
<circle cx="292.7" cy="103.8" r="3" fill="#1f77b4"/>
<circle cx="296.4" cy="214.1" r="3" fill="#1f77b4"/>
<circle cx="300.2" cy="210.5" r="3" fill="#1f77b4"/>
<circle cx="303.9" cy="251.3" r="3" fill="#1f77b4"/>
<circle cx="307.6" cy="330.5" r="3" fill="#1f77b4"/>
<circle cx="311.3" cy="323.6" r="3" fill="#1f77b4"/>
<circle cx="315.1" cy="315.5" r="3" fill="#1f77b4"/>
<circle cx="318.8" cy="293.5" r="3" fill="#1f77b4"/>
<circle cx="322.5" cy="288.8" r="3" fill="#1f77b4"/>
<circle cx="326.3" cy="285.3" r="3" fill="#1f77b4"/>
<circle cx="330.0" cy="297.2" r="3" fill="#1f77b4"/>
<circle cx="333.7" cy="308.9" r="3" fill="#1f77b4"/>
<circle cx="337.5" cy="277.6" r="3" fill="#1f77b4"/>
<circle cx="341.2" cy="302.9" r="3" fill="#1f77b4"/>
<circle cx="344.9" cy="243.8" r="3" fill="#1f77b4"/>
<circle cx="348.7" cy="312.6" r="3" fill="#1f77b4"/>
<circle cx="352.4" cy="282.8" r="3" fill="#1f77b4"/>
<circle cx="356.1" cy="346.6" r="3" fill="#1f77b4"/>
<circle cx="359.8" cy="300.8" r="3" fill="#1f77b4"/>
<circle cx="363.6" cy="278.4" r="3" fill="#1f77b4"/>
<circle cx="367.3" cy="302.1" r="3" fill="#1f77b4"/>
<circle cx="371.0" cy="276.5" r="3" fill="#1f77b4"/>
<circle cx="374.8" cy="285.8" r="3" fill="#1f77b4"/>
<circle cx="378.5" cy="297.5" r="3" fill="#1f77b4"/>
<circle cx="382.2" cy="311.3" r="3" fill="#1f77b4"/>
<circle cx="386.0" cy="322.4" r="3" fill="#1f77b4"/>
<circle cx="389.7" cy="317.5" r="3" fill="#1f77b4"/>
<circle cx="393.4" cy="277.1" r="3" fill="#1f77b4"/>
<circle cx="397.1" cy="300.3" r="3" fill="#1f77b4"/>
<circle cx="400.9" cy="297.3" r="3" fill="#1f77b4"/>
<circle cx="404.6" cy="302.4" r="3" fill="#1f77b4"/>
<circle cx="408.3" cy="300.3" r="3" fill="#1f77b4"/>
<circle cx="412.1" cy="267.8" r="3" fill="#1f77b4"/>
<circle cx="415.8" cy="292.3" r="3" fill="#1f77b4"/>
<circle cx="419.5" cy="275.5" r="3" fill="#1f77b4"/>
<circle cx="423.3" cy="266.1" r="3" fill="#1f77b4"/>
<circle cx="427.0" cy="317.7" r="3" fill="#1f77b4"/>
<circle cx="430.7" cy="327.4" r="3" fill="#1f77b4"/>
<circle cx="434.4" cy="310.9" r="3" fill="#1f77b4"/>
<circle cx="438.2" cy="304.3" r="3" fill="#1f77b4"/>
<circle cx="441.9" cy="340.3" r="3" fill="#1f77b4"/>
<circle cx="445.6" cy="283.6" r="3" fill="#1f77b4"/>
<circle cx="449.4" cy="292.3" r="3" fill="#1f77b4"/>
<circle cx="453.1" cy="278.0" r="3" fill="#1f77b4"/>
<circle cx="456.8" cy="291.2" r="3" fill="#1f77b4"/>
<circle cx="460.6" cy="323.7" r="3" fill="#1f77b4"/>
<circle cx="464.3" cy="292.6" r="3" fill="#1f77b4"/>
<circle cx="468.0" cy="319.0" r="3" fill="#1f77b4"/>
<circle cx="471.7" cy="239.1" r="3" fill="#1f77b4"/>
<circle cx="475.5" cy="272.2" r="3" fill="#1f77b4"/>
<circle cx="479.2" cy="316.4" r="3" fill="#1f77b4"/>
<circle cx="482.9" cy="306.6" r="3" fill="#1f77b4"/>
<circle cx="486.7" cy="275.0" r="3" fill="#1f77b4"/>
<circle cx="490.4" cy="284.2" r="3" fill="#1f77b4"/>
<circle cx="494.1" cy="296.3" r="3" fill="#1f77b4"/>
<circle cx="497.9" cy="296.2" r="3" fill="#1f77b4"/>
<circle cx="501.6" cy="281.1" r="3" fill="#1f77b4"/>
<circle cx="505.3" cy="329.5" r="3" fill="#1f77b4"/>
<circle cx="509.0" cy="339.9" r="3" fill="#1f77b4"/>
<circle cx="512.8" cy="297.3" r="3" fill="#1f77b4"/>
<circle cx="516.5" cy="288.1" r="3" fill="#1f77b4"/>
<circle cx="520.2" cy="291.0" r="3" fill="#1f77b4"/>
<circle cx="524.0" cy="273.8" r="3" fill="#1f77b4"/>
<circle cx="527.7" cy="277.1" r="3" fill="#1f77b4"/>
<circle cx="531.4" cy="279.0" r="3" fill="#1f77b4"/>
<circle cx="535.2" cy="277.1" r="3" fill="#1f77b4"/>
<circle cx="538.9" cy="239.8" r="3" fill="#1f77b4"/>
<circle cx="542.6" cy="291.5" r="3" fill="#1f77b4"/>
<circle cx="546.3" cy="292.2" r="3" fill="#1f77b4"/>
<circle cx="550.1" cy="325.7" r="3" fill="#1f77b4"/>
<circle cx="553.8" cy="277.4" r="3" fill="#1f77b4"/>
<circle cx="557.5" cy="254.8" r="3" fill="#1f77b4"/>
<circle cx="561.3" cy="289.3" r="3" fill="#1f77b4"/>
<circle cx="565.0" cy="266.6" r="3" fill="#1f77b4"/>
<circle cx="568.7" cy="291.1" r="3" fill="#1f77b4"/>
<circle cx="572.5" cy="276.7" r="3" fill="#1f77b4"/>
<circle cx="576.2" cy="297.9" r="3" fill="#1f77b4"/>
<circle cx="579.9" cy="237.3" r="3" fill="#1f77b4"/>
<circle cx="583.7" cy="254.5" r="3" fill="#1f77b4"/>
<circle cx="587.4" cy="199.1" r="3" fill="#1f77b4"/>
<circle cx="591.1" cy="277.8" r="3" fill="#1f77b4"/>
<circle cx="594.8" cy="238.1" r="3" fill="#1f77b4"/>
<circle cx="598.6" cy="271.3" r="3" fill="#1f77b4"/>
<circle cx="602.3" cy="245.2" r="3" fill="#1f77b4"/>
<circle cx="606.0" cy="288.9" r="3" fill="#1f77b4"/>
<circle cx="609.8" cy="239.8" r="3" fill="#1f77b4"/>
<circle cx="613.5" cy="268.1" r="3" fill="#1f77b4"/>
<circle cx="617.2" cy="256.3" r="3" fill="#1f77b4"/>
<circle cx="621.0" cy="246.0" r="3" fill="#1f77b4"/>
<circle cx="624.7" cy="230.6" r="3" fill="#1f77b4"/>
<circle cx="628.4" cy="313.1" r="3" fill="#1f77b4"/>
<circle cx="632.1" cy="227.1" r="3" fill="#1f77b4"/>
<circle cx="635.9" cy="223.4" r="3" fill="#1f77b4"/>
<circle cx="639.6" cy="242.0" r="3" fill="#1f77b4"/>
<circle cx="643.3" cy="260.3" r="3" fill="#1f77b4"/>
<circle cx="647.1" cy="256.4" r="3" fill="#1f77b4"/>
<circle cx="650.8" cy="216.8" r="3" fill="#1f77b4"/>
<circle cx="654.5" cy="232.7" r="3" fill="#1f77b4"/>
<circle cx="658.3" cy="203.0" r="3" fill="#1f77b4"/>
<circle cx="662.0" cy="210.9" r="3" fill="#1f77b4"/>
<circle cx="665.7" cy="250.8" r="3" fill="#1f77b4"/>
<circle cx="669.4" cy="216.8" r="3" fill="#1f77b4"/>
<circle cx="673.2" cy="223.4" r="3" fill="#1f77b4"/>
<circle cx="676.9" cy="256.9" r="3" fill="#1f77b4"/>
<circle cx="680.6" cy="235.7" r="3" fill="#1f77b4"/>
<circle cx="684.4" cy="240.1" r="3" fill="#1f77b4"/>
<circle cx="688.1" cy="272.7" r="3" fill="#1f77b4"/>
<circle cx="691.8" cy="234.9" r="3" fill="#1f77b4"/>
<circle cx="695.6" cy="212.0" r="3" fill="#1f77b4"/>
<circle cx="699.3" cy="229.5" r="3" fill="#1f77b4"/>
<circle cx="703.0" cy="225.1" r="3" fill="#1f77b4"/>
<circle cx="706.7" cy="153.1" r="3" fill="#1f77b4"/>
<circle cx="710.5" cy="233.7" r="3" fill="#1f77b4"/>
<circle cx="714.2" cy="229.4" r="3" fill="#1f77b4"/>
<circle cx="717.9" cy="211.6" r="3" fill="#1f77b4"/>
<circle cx="721.7" cy="244.9" r="3" fill="#1f77b4"/>
<circle cx="725.4" cy="187.2" r="3" fill="#1f77b4"/>
<circle cx="729.1" cy="192.6" r="3" fill="#1f77b4"/>
<circle cx="732.9" cy="202.9" r="3" fill="#1f77b4"/>
<circle cx="736.6" cy="220.0" r="3" fill="#1f77b4"/>
<circle cx="740.3" cy="267.0" r="3" fill="#1f77b4"/>
<circle cx="744.0" cy="240.6" r="3" fill="#1f77b4"/>
<circle cx="747.8" cy="229.7" r="3" fill="#1f77b4"/>
<circle cx="751.5" cy="273.7" r="3" fill="#1f77b4"/>
<circle cx="755.2" cy="227.7" r="3" fill="#1f77b4"/>
<circle cx="759.0" cy="211.8" r="3" fill="#1f77b4"/>
<circle cx="762.7" cy="270.5" r="3" fill="#1f77b4"/>
<circle cx="766.4" cy="240.5" r="3" fill="#1f77b4"/>
<circle cx="770.2" cy="221.5" r="3" fill="#1f77b4"/>
<circle cx="773.9" cy="209.0" r="3" fill="#1f77b4"/>
<circle cx="777.6" cy="261.0" r="3" fill="#1f77b4"/>
<circle cx="781.3" cy="224.0" r="3" fill="#1f77b4"/>
<circle cx="785.1" cy="221.7" r="3" fill="#1f77b4"/>
<circle cx="788.8" cy="242.0" r="3" fill="#1f77b4"/>
<circle cx="792.5" cy="215.4" r="3" fill="#1f77b4"/>
<circle cx="796.3" cy="245.0" r="3" fill="#1f77b4"/>
<circle cx="800.0" cy="236.0" r="3" fill="#1f77b4"/>
<line x1="828" y1="96" x2="850" y2="96" stroke="#1f77b4" stroke-width="2.5"/>
<text x="858" y="100" font-family="Arial" font-size="13">SFT + KL GRPO</text>
<text x="447.5" y="638" text-anchor="middle" font-family="Arial" font-size="15">GRPO step</text>
<text x="24" y="326.0" text-anchor="middle" font-family="Arial" font-size="15" transform="rotate(-90 24 326.0)">Mean sampled-token KL</text>
</svg>
