<svg xmlns="http://www.w3.org/2000/svg" width="1040" height="640" viewBox="0 0 1040 640">
<rect width="100%" height="100%" fill="white"/>
<text x="520.0" y="36" text-anchor="middle" font-family="Arial" font-size="22" font-weight="700">GRPO gradient norm by length normalization</text>
<line x1="95" y1="558" x2="780" y2="558" stroke="#222" stroke-width="1.5"/>
<line x1="95" y1="74" x2="95" y2="558" stroke="#222" stroke-width="1.5"/>
<line x1="90" y1="558.0" x2="780" y2="558.0" stroke="#ddd" stroke-width="1"/>
<text x="83" y="562.0" text-anchor="end" font-family="Arial" font-size="12">0.00</text>
<line x1="90" y1="461.2" x2="780" y2="461.2" stroke="#ddd" stroke-width="1"/>
<text x="83" y="465.2" text-anchor="end" font-family="Arial" font-size="12">17.10</text>
<line x1="90" y1="364.4" x2="780" y2="364.4" stroke="#ddd" stroke-width="1"/>
<text x="83" y="368.4" text-anchor="end" font-family="Arial" font-size="12">34.20</text>
<line x1="90" y1="267.6" x2="780" y2="267.6" stroke="#ddd" stroke-width="1"/>
<text x="83" y="271.6" text-anchor="end" font-family="Arial" font-size="12">51.30</text>
<line x1="90" y1="170.8" x2="780" y2="170.8" stroke="#ddd" stroke-width="1"/>
<text x="83" y="174.8" text-anchor="end" font-family="Arial" font-size="12">68.40</text>
<line x1="90" y1="74.0" x2="780" y2="74.0" stroke="#ddd" stroke-width="1"/>
<text x="83" y="78.0" text-anchor="end" font-family="Arial" font-size="12">85.50</text>
<line x1="95.0" y1="558" x2="95.0" y2="563" stroke="#222" stroke-width="1"/>
<text x="95.0" y="582" text-anchor="middle" font-family="Arial" font-size="12">1</text>
<line x1="232.0" y1="558" x2="232.0" y2="563" stroke="#222" stroke-width="1"/>
<text x="232.0" y="582" text-anchor="middle" font-family="Arial" font-size="12">41</text>
<line x1="369.0" y1="558" x2="369.0" y2="563" stroke="#222" stroke-width="1"/>
<text x="369.0" y="582" text-anchor="middle" font-family="Arial" font-size="12">81</text>
<line x1="506.0" y1="558" x2="506.0" y2="563" stroke="#222" stroke-width="1"/>
<text x="506.0" y="582" text-anchor="middle" font-family="Arial" font-size="12">120</text>
<line x1="643.0" y1="558" x2="643.0" y2="563" stroke="#222" stroke-width="1"/>
<text x="643.0" y="582" text-anchor="middle" font-family="Arial" font-size="12">160</text>
<line x1="780.0" y1="558" x2="780.0" y2="563" stroke="#222" stroke-width="1"/>
<text x="780.0" y="582" text-anchor="middle" font-family="Arial" font-size="12">200</text>
<polyline fill="none" stroke="#1f77b4" stroke-width="2.3" points="95.0,556.5 98.4,539.1 101.9,552.2 105.3,554.6 108.8,553.4 112.2,554.2 115.7,554.9 119.1,553.7 122.5,552.6 126.0,553.8 129.4,553.0 132.9,552.2 136.3,554.6 139.7,554.4 143.2,555.3 146.6,554.6 150.1,555.4 153.5,554.8 157.0,554.8 160.4,555.4 163.8,555.8 167.3,555.8 170.7,555.4 174.2,556.1 177.6,556.1 181.1,556.4 184.5,556.5 187.9,553.6 191.4,556.5 194.8,556.7 198.3,556.5 201.7,556.8 205.2,556.1 208.6,556.4 212.0,556.1 215.5,556.6 218.9,556.6 222.4,556.4 225.8,556.4 229.2,556.6 232.7,556.6 236.1,556.3 239.6,556.0 243.0,556.1 246.5,556.1 249.9,556.4 253.3,556.3 256.8,556.7 260.2,556.3 263.7,556.8 267.1,556.2 270.6,556.7 274.0,556.6 277.4,556.8 280.9,556.3 284.3,556.6 287.8,556.1 291.2,556.7 294.6,556.7 298.1,556.6 301.5,556.7 305.0,556.6 308.4,556.6 311.9,556.6 315.3,556.9 318.7,557.1 322.2,556.8 325.6,556.7 329.1,556.7 332.5,556.3 336.0,556.8 339.4,557.0 342.8,556.8 346.3,556.7 349.7,556.7 353.2,556.9 356.6,556.8 360.1,556.7 363.5,556.8 366.9,556.9 370.4,556.7 373.8,557.1 377.3,557.0 380.7,556.7 384.1,556.8 387.6,556.8 391.0,556.7 394.5,556.8 397.9,556.8 401.4,556.7 404.8,556.8 408.2,556.7 411.7,556.5 415.1,556.6 418.6,556.5 422.0,556.9 425.5,556.7 428.9,556.7 432.3,556.4 435.8,556.6 439.2,556.8 442.7,556.6 446.1,557.0 449.5,556.6 453.0,556.8 456.4,556.4 459.9,556.8 463.3,556.8 466.8,557.1 470.2,556.6 473.6,556.9 477.1,556.7 480.5,556.7 484.0,556.7 487.4,556.8 490.9,556.0 494.3,556.3 497.7,556.6 501.2,556.3 504.6,555.9 508.1,556.5 511.5,556.3 514.9,556.3 518.4,555.1 521.8,555.1 525.3,556.1 528.7,556.1 532.2,555.1 535.6,556.0 539.0,556.4 542.5,555.2 545.9,555.6 549.4,555.4 552.8,556.0 556.3,555.9 559.7,555.9 563.1,554.8 566.6,555.1 570.0,554.9 573.5,554.6 576.9,553.9 580.4,553.0 583.8,549.2 587.2,535.4 590.7,540.7 594.1,516.6 597.6,533.4 601.0,530.6 604.4,530.6 607.9,542.7 611.3,532.5 614.8,537.9 618.2,542.0 621.7,535.9 625.1,507.1 628.5,500.7 632.0,542.3 635.4,549.7 638.9,547.8 642.3,554.3 645.8,554.0 649.2,555.0 652.6,553.2 656.1,554.6 659.5,554.9 663.0,554.7 666.4,553.4 669.8,551.4 673.3,553.6 676.7,552.9 680.2,551.8 683.6,554.6 687.1,553.0 690.5,552.1 693.9,551.4 697.4,551.1 700.8,549.2 704.3,550.1 707.7,548.5 711.2,542.2 714.6,549.4 718.0,545.5 721.5,543.2 724.9,547.4 728.4,547.9 731.8,550.3 735.3,553.5 738.7,553.7 742.1,551.1 745.6,553.7 749.0,552.7 752.5,553.8 755.9,549.4 759.3,555.7 762.8,552.6 766.2,553.9 769.7,553.1 773.1,548.7 776.6,550.0 780.0,552.2"/>
<circle cx="95.0" cy="556.5" r="3" fill="#1f77b4"/>
<circle cx="98.4" cy="539.1" r="3" fill="#1f77b4"/>
<circle cx="101.9" cy="552.2" r="3" fill="#1f77b4"/>
<circle cx="105.3" cy="554.6" r="3" fill="#1f77b4"/>
<circle cx="108.8" cy="553.4" r="3" fill="#1f77b4"/>
<circle cx="112.2" cy="554.2" r="3" fill="#1f77b4"/>
<circle cx="115.7" cy="554.9" r="3" fill="#1f77b4"/>
<circle cx="119.1" cy="553.7" r="3" fill="#1f77b4"/>
<circle cx="122.5" cy="552.6" r="3" fill="#1f77b4"/>
<circle cx="126.0" cy="553.8" r="3" fill="#1f77b4"/>
<circle cx="129.4" cy="553.0" r="3" fill="#1f77b4"/>
<circle cx="132.9" cy="552.2" r="3" fill="#1f77b4"/>
<circle cx="136.3" cy="554.6" r="3" fill="#1f77b4"/>
<circle cx="139.7" cy="554.4" r="3" fill="#1f77b4"/>
<circle cx="143.2" cy="555.3" r="3" fill="#1f77b4"/>
<circle cx="146.6" cy="554.6" r="3" fill="#1f77b4"/>
<circle cx="150.1" cy="555.4" r="3" fill="#1f77b4"/>
<circle cx="153.5" cy="554.8" r="3" fill="#1f77b4"/>
<circle cx="157.0" cy="554.8" r="3" fill="#1f77b4"/>
<circle cx="160.4" cy="555.4" r="3" fill="#1f77b4"/>
<circle cx="163.8" cy="555.8" r="3" fill="#1f77b4"/>
<circle cx="167.3" cy="555.8" r="3" fill="#1f77b4"/>
<circle cx="170.7" cy="555.4" r="3" fill="#1f77b4"/>
<circle cx="174.2" cy="556.1" r="3" fill="#1f77b4"/>
<circle cx="177.6" cy="556.1" r="3" fill="#1f77b4"/>
<circle cx="181.1" cy="556.4" r="3" fill="#1f77b4"/>
<circle cx="184.5" cy="556.5" r="3" fill="#1f77b4"/>
<circle cx="187.9" cy="553.6" r="3" fill="#1f77b4"/>
<circle cx="191.4" cy="556.5" r="3" fill="#1f77b4"/>
<circle cx="194.8" cy="556.7" r="3" fill="#1f77b4"/>
<circle cx="198.3" cy="556.5" r="3" fill="#1f77b4"/>
<circle cx="201.7" cy="556.8" r="3" fill="#1f77b4"/>
<circle cx="205.2" cy="556.1" r="3" fill="#1f77b4"/>
<circle cx="208.6" cy="556.4" r="3" fill="#1f77b4"/>
<circle cx="212.0" cy="556.1" r="3" fill="#1f77b4"/>
<circle cx="215.5" cy="556.6" r="3" fill="#1f77b4"/>
<circle cx="218.9" cy="556.6" r="3" fill="#1f77b4"/>
<circle cx="222.4" cy="556.4" r="3" fill="#1f77b4"/>
<circle cx="225.8" cy="556.4" r="3" fill="#1f77b4"/>
<circle cx="229.2" cy="556.6" r="3" fill="#1f77b4"/>
<circle cx="232.7" cy="556.6" r="3" fill="#1f77b4"/>
<circle cx="236.1" cy="556.3" r="3" fill="#1f77b4"/>
<circle cx="239.6" cy="556.0" r="3" fill="#1f77b4"/>
<circle cx="243.0" cy="556.1" r="3" fill="#1f77b4"/>
<circle cx="246.5" cy="556.1" r="3" fill="#1f77b4"/>
<circle cx="249.9" cy="556.4" r="3" fill="#1f77b4"/>
<circle cx="253.3" cy="556.3" r="3" fill="#1f77b4"/>
<circle cx="256.8" cy="556.7" r="3" fill="#1f77b4"/>
<circle cx="260.2" cy="556.3" r="3" fill="#1f77b4"/>
<circle cx="263.7" cy="556.8" r="3" fill="#1f77b4"/>
<circle cx="267.1" cy="556.2" r="3" fill="#1f77b4"/>
<circle cx="270.6" cy="556.7" r="3" fill="#1f77b4"/>
<circle cx="274.0" cy="556.6" r="3" fill="#1f77b4"/>
<circle cx="277.4" cy="556.8" r="3" fill="#1f77b4"/>
<circle cx="280.9" cy="556.3" r="3" fill="#1f77b4"/>
<circle cx="284.3" cy="556.6" r="3" fill="#1f77b4"/>
<circle cx="287.8" cy="556.1" r="3" fill="#1f77b4"/>
<circle cx="291.2" cy="556.7" r="3" fill="#1f77b4"/>
<circle cx="294.6" cy="556.7" r="3" fill="#1f77b4"/>
<circle cx="298.1" cy="556.6" r="3" fill="#1f77b4"/>
<circle cx="301.5" cy="556.7" r="3" fill="#1f77b4"/>
<circle cx="305.0" cy="556.6" r="3" fill="#1f77b4"/>
<circle cx="308.4" cy="556.6" r="3" fill="#1f77b4"/>
<circle cx="311.9" cy="556.6" r="3" fill="#1f77b4"/>
<circle cx="315.3" cy="556.9" r="3" fill="#1f77b4"/>
<circle cx="318.7" cy="557.1" r="3" fill="#1f77b4"/>
<circle cx="322.2" cy="556.8" r="3" fill="#1f77b4"/>
<circle cx="325.6" cy="556.7" r="3" fill="#1f77b4"/>
<circle cx="329.1" cy="556.7" r="3" fill="#1f77b4"/>
<circle cx="332.5" cy="556.3" r="3" fill="#1f77b4"/>
<circle cx="336.0" cy="556.8" r="3" fill="#1f77b4"/>
<circle cx="339.4" cy="557.0" r="3" fill="#1f77b4"/>
<circle cx="342.8" cy="556.8" r="3" fill="#1f77b4"/>
<circle cx="346.3" cy="556.7" r="3" fill="#1f77b4"/>
<circle cx="349.7" cy="556.7" r="3" fill="#1f77b4"/>
<circle cx="353.2" cy="556.9" r="3" fill="#1f77b4"/>
<circle cx="356.6" cy="556.8" r="3" fill="#1f77b4"/>
<circle cx="360.1" cy="556.7" r="3" fill="#1f77b4"/>
<circle cx="363.5" cy="556.8" r="3" fill="#1f77b4"/>
<circle cx="366.9" cy="556.9" r="3" fill="#1f77b4"/>
<circle cx="370.4" cy="556.7" r="3" fill="#1f77b4"/>
<circle cx="373.8" cy="557.1" r="3" fill="#1f77b4"/>
<circle cx="377.3" cy="557.0" r="3" fill="#1f77b4"/>
<circle cx="380.7" cy="556.7" r="3" fill="#1f77b4"/>
<circle cx="384.1" cy="556.8" r="3" fill="#1f77b4"/>
<circle cx="387.6" cy="556.8" r="3" fill="#1f77b4"/>
<circle cx="391.0" cy="556.7" r="3" fill="#1f77b4"/>
<circle cx="394.5" cy="556.8" r="3" fill="#1f77b4"/>
<circle cx="397.9" cy="556.8" r="3" fill="#1f77b4"/>
<circle cx="401.4" cy="556.7" r="3" fill="#1f77b4"/>
<circle cx="404.8" cy="556.8" r="3" fill="#1f77b4"/>
<circle cx="408.2" cy="556.7" r="3" fill="#1f77b4"/>
<circle cx="411.7" cy="556.5" r="3" fill="#1f77b4"/>
<circle cx="415.1" cy="556.6" r="3" fill="#1f77b4"/>
<circle cx="418.6" cy="556.5" r="3" fill="#1f77b4"/>
<circle cx="422.0" cy="556.9" r="3" fill="#1f77b4"/>
<circle cx="425.5" cy="556.7" r="3" fill="#1f77b4"/>
<circle cx="428.9" cy="556.7" r="3" fill="#1f77b4"/>
<circle cx="432.3" cy="556.4" r="3" fill="#1f77b4"/>
<circle cx="435.8" cy="556.6" r="3" fill="#1f77b4"/>
<circle cx="439.2" cy="556.8" r="3" fill="#1f77b4"/>
<circle cx="442.7" cy="556.6" r="3" fill="#1f77b4"/>
<circle cx="446.1" cy="557.0" r="3" fill="#1f77b4"/>
<circle cx="449.5" cy="556.6" r="3" fill="#1f77b4"/>
<circle cx="453.0" cy="556.8" r="3" fill="#1f77b4"/>
<circle cx="456.4" cy="556.4" r="3" fill="#1f77b4"/>
<circle cx="459.9" cy="556.8" r="3" fill="#1f77b4"/>
<circle cx="463.3" cy="556.8" r="3" fill="#1f77b4"/>
<circle cx="466.8" cy="557.1" r="3" fill="#1f77b4"/>
<circle cx="470.2" cy="556.6" r="3" fill="#1f77b4"/>
<circle cx="473.6" cy="556.9" r="3" fill="#1f77b4"/>
<circle cx="477.1" cy="556.7" r="3" fill="#1f77b4"/>
<circle cx="480.5" cy="556.7" r="3" fill="#1f77b4"/>
<circle cx="484.0" cy="556.7" r="3" fill="#1f77b4"/>
<circle cx="487.4" cy="556.8" r="3" fill="#1f77b4"/>
<circle cx="490.9" cy="556.0" r="3" fill="#1f77b4"/>
<circle cx="494.3" cy="556.3" r="3" fill="#1f77b4"/>
<circle cx="497.7" cy="556.6" r="3" fill="#1f77b4"/>
<circle cx="501.2" cy="556.3" r="3" fill="#1f77b4"/>
<circle cx="504.6" cy="555.9" r="3" fill="#1f77b4"/>
<circle cx="508.1" cy="556.5" r="3" fill="#1f77b4"/>
<circle cx="511.5" cy="556.3" r="3" fill="#1f77b4"/>
<circle cx="514.9" cy="556.3" r="3" fill="#1f77b4"/>
<circle cx="518.4" cy="555.1" r="3" fill="#1f77b4"/>
<circle cx="521.8" cy="555.1" r="3" fill="#1f77b4"/>
<circle cx="525.3" cy="556.1" r="3" fill="#1f77b4"/>
<circle cx="528.7" cy="556.1" r="3" fill="#1f77b4"/>
<circle cx="532.2" cy="555.1" r="3" fill="#1f77b4"/>
<circle cx="535.6" cy="556.0" r="3" fill="#1f77b4"/>
<circle cx="539.0" cy="556.4" r="3" fill="#1f77b4"/>
<circle cx="542.5" cy="555.2" r="3" fill="#1f77b4"/>
<circle cx="545.9" cy="555.6" r="3" fill="#1f77b4"/>
<circle cx="549.4" cy="555.4" r="3" fill="#1f77b4"/>
<circle cx="552.8" cy="556.0" r="3" fill="#1f77b4"/>
<circle cx="556.3" cy="555.9" r="3" fill="#1f77b4"/>
<circle cx="559.7" cy="555.9" r="3" fill="#1f77b4"/>
<circle cx="563.1" cy="554.8" r="3" fill="#1f77b4"/>
<circle cx="566.6" cy="555.1" r="3" fill="#1f77b4"/>
<circle cx="570.0" cy="554.9" r="3" fill="#1f77b4"/>
<circle cx="573.5" cy="554.6" r="3" fill="#1f77b4"/>
<circle cx="576.9" cy="553.9" r="3" fill="#1f77b4"/>
<circle cx="580.4" cy="553.0" r="3" fill="#1f77b4"/>
<circle cx="583.8" cy="549.2" r="3" fill="#1f77b4"/>
<circle cx="587.2" cy="535.4" r="3" fill="#1f77b4"/>
<circle cx="590.7" cy="540.7" r="3" fill="#1f77b4"/>
<circle cx="594.1" cy="516.6" r="3" fill="#1f77b4"/>
<circle cx="597.6" cy="533.4" r="3" fill="#1f77b4"/>
<circle cx="601.0" cy="530.6" r="3" fill="#1f77b4"/>
<circle cx="604.4" cy="530.6" r="3" fill="#1f77b4"/>
<circle cx="607.9" cy="542.7" r="3" fill="#1f77b4"/>
<circle cx="611.3" cy="532.5" r="3" fill="#1f77b4"/>
<circle cx="614.8" cy="537.9" r="3" fill="#1f77b4"/>
<circle cx="618.2" cy="542.0" r="3" fill="#1f77b4"/>
<circle cx="621.7" cy="535.9" r="3" fill="#1f77b4"/>
<circle cx="625.1" cy="507.1" r="3" fill="#1f77b4"/>
<circle cx="628.5" cy="500.7" r="3" fill="#1f77b4"/>
<circle cx="632.0" cy="542.3" r="3" fill="#1f77b4"/>
<circle cx="635.4" cy="549.7" r="3" fill="#1f77b4"/>
<circle cx="638.9" cy="547.8" r="3" fill="#1f77b4"/>
<circle cx="642.3" cy="554.3" r="3" fill="#1f77b4"/>
<circle cx="645.8" cy="554.0" r="3" fill="#1f77b4"/>
<circle cx="649.2" cy="555.0" r="3" fill="#1f77b4"/>
<circle cx="652.6" cy="553.2" r="3" fill="#1f77b4"/>
<circle cx="656.1" cy="554.6" r="3" fill="#1f77b4"/>
<circle cx="659.5" cy="554.9" r="3" fill="#1f77b4"/>
<circle cx="663.0" cy="554.7" r="3" fill="#1f77b4"/>
<circle cx="666.4" cy="553.4" r="3" fill="#1f77b4"/>
<circle cx="669.8" cy="551.4" r="3" fill="#1f77b4"/>
<circle cx="673.3" cy="553.6" r="3" fill="#1f77b4"/>
<circle cx="676.7" cy="552.9" r="3" fill="#1f77b4"/>
<circle cx="680.2" cy="551.8" r="3" fill="#1f77b4"/>
<circle cx="683.6" cy="554.6" r="3" fill="#1f77b4"/>
<circle cx="687.1" cy="553.0" r="3" fill="#1f77b4"/>
<circle cx="690.5" cy="552.1" r="3" fill="#1f77b4"/>
<circle cx="693.9" cy="551.4" r="3" fill="#1f77b4"/>
<circle cx="697.4" cy="551.1" r="3" fill="#1f77b4"/>
<circle cx="700.8" cy="549.2" r="3" fill="#1f77b4"/>
<circle cx="704.3" cy="550.1" r="3" fill="#1f77b4"/>
<circle cx="707.7" cy="548.5" r="3" fill="#1f77b4"/>
<circle cx="711.2" cy="542.2" r="3" fill="#1f77b4"/>
<circle cx="714.6" cy="549.4" r="3" fill="#1f77b4"/>
<circle cx="718.0" cy="545.5" r="3" fill="#1f77b4"/>
<circle cx="721.5" cy="543.2" r="3" fill="#1f77b4"/>
<circle cx="724.9" cy="547.4" r="3" fill="#1f77b4"/>
<circle cx="728.4" cy="547.9" r="3" fill="#1f77b4"/>
<circle cx="731.8" cy="550.3" r="3" fill="#1f77b4"/>
<circle cx="735.3" cy="553.5" r="3" fill="#1f77b4"/>
<circle cx="738.7" cy="553.7" r="3" fill="#1f77b4"/>
<circle cx="742.1" cy="551.1" r="3" fill="#1f77b4"/>
<circle cx="745.6" cy="553.7" r="3" fill="#1f77b4"/>
<circle cx="749.0" cy="552.7" r="3" fill="#1f77b4"/>
<circle cx="752.5" cy="553.8" r="3" fill="#1f77b4"/>
<circle cx="755.9" cy="549.4" r="3" fill="#1f77b4"/>
<circle cx="759.3" cy="555.7" r="3" fill="#1f77b4"/>
<circle cx="762.8" cy="552.6" r="3" fill="#1f77b4"/>
<circle cx="766.2" cy="553.9" r="3" fill="#1f77b4"/>
<circle cx="769.7" cy="553.1" r="3" fill="#1f77b4"/>
<circle cx="773.1" cy="548.7" r="3" fill="#1f77b4"/>
<circle cx="776.6" cy="550.0" r="3" fill="#1f77b4"/>
<circle cx="780.0" cy="552.2" r="3" fill="#1f77b4"/>
<line x1="808" y1="96" x2="830" y2="96" stroke="#1f77b4" stroke-width="2.5"/>
<text x="838" y="100" font-family="Arial" font-size="13">masked_mean</text>
<polyline fill="none" stroke="#d62728" stroke-width="2.3" points="95.0,557.9 98.4,557.1 101.9,556.9 105.3,556.7 108.8,556.8 112.2,557.1 115.7,557.0 119.1,557.1 122.5,557.0 126.0,556.6 129.4,556.9 132.9,556.6 136.3,556.3 139.7,555.6 143.2,555.8 146.6,555.5 150.1,556.2 153.5,555.5 157.0,555.3 160.4,554.6 163.8,554.7 167.3,555.4 170.7,555.2 174.2,554.2 177.6,554.5 181.1,554.5 184.5,552.8 187.9,552.1 191.4,545.4 194.8,539.4 198.3,444.1 201.7,365.5 205.2,487.6 208.6,530.2 212.0,526.7 215.5,552.3 218.9,501.7 222.4,535.5 225.8,549.2 229.2,547.4 232.7,550.4 236.1,552.7 239.6,535.2 243.0,556.2 246.5,547.8 249.9,532.0 253.3,554.0 256.8,558.0 260.2,558.0 263.7,553.2 267.1,535.5 270.6,556.6 274.0,555.9 277.4,556.7 280.9,556.1 284.3,556.5 287.8,555.8 291.2,556.5 294.6,557.0 298.1,557.8 301.5,556.2 305.0,556.7 308.4,555.7 311.9,556.6 315.3,553.8 318.7,527.8 322.2,221.2 325.6,74.0 329.1,280.6 332.5,358.5 336.0,434.2 339.4,491.1 342.8,538.9 346.3,530.4 349.7,538.0 353.2,546.2 356.6,549.9 360.1,545.7 363.5,553.2 366.9,551.9 370.4,550.7 373.8,548.5 377.3,544.4 380.7,533.2 384.1,552.8 387.6,549.4 391.0,544.3 394.5,547.8 397.9,544.0 401.4,544.0 404.8,538.7 408.2,536.8 411.7,541.5 415.1,538.5 418.6,517.8 422.0,517.5 425.5,497.5 428.9,521.2 432.3,520.7 435.8,534.6 439.2,550.4 442.7,550.9 446.1,552.3 449.5,548.8 453.0,531.3 456.4,537.3 459.9,547.3 463.3,520.5 466.8,544.6 470.2,541.5 473.6,532.3 477.1,538.7 480.5,540.8 484.0,541.5 487.4,536.8 490.9,515.2 494.3,540.9 497.7,546.7 501.2,540.3 504.6,538.7 508.1,545.6 511.5,502.5 514.9,535.9 518.4,532.9 521.8,515.2 525.3,497.1 528.7,515.0 532.2,512.9 535.6,519.1 539.0,538.5 542.5,545.0 545.9,537.3 549.4,528.3 552.8,542.0 556.3,531.6 559.7,514.1 563.1,525.8 566.6,507.1 570.0,500.7 573.5,452.6 576.9,425.0 580.4,510.9 583.8,511.7 587.2,534.3 590.7,533.2 594.1,541.4 597.6,532.9 601.0,539.0 604.4,530.2 607.9,537.4 611.3,512.0 614.8,532.7 618.2,529.7 621.7,500.0 625.1,514.1 628.5,494.7 632.0,529.0 635.4,526.2 638.9,546.7 642.3,543.1 645.8,537.0 649.2,546.7 652.6,542.7 656.1,538.9 659.5,550.5 663.0,544.3 666.4,534.1 669.8,512.0 673.3,506.7 676.7,472.7 680.2,449.0 683.6,519.1 687.1,500.3 690.5,507.1 693.9,530.4 697.4,533.6 700.8,546.5 704.3,551.4 707.7,548.1 711.2,553.5 714.6,550.2 718.0,550.0 721.5,546.0 724.9,550.9 728.4,544.0 731.8,549.6 735.3,538.4 738.7,535.5 742.1,530.4 745.6,529.5 749.0,513.6 752.5,530.6 755.9,521.4 759.3,530.0 762.8,519.3 766.2,481.9 769.7,530.4 773.1,514.3 776.6,532.9 780.0,534.1"/>
<circle cx="95.0" cy="557.9" r="3" fill="#d62728"/>
<circle cx="98.4" cy="557.1" r="3" fill="#d62728"/>
<circle cx="101.9" cy="556.9" r="3" fill="#d62728"/>
<circle cx="105.3" cy="556.7" r="3" fill="#d62728"/>
<circle cx="108.8" cy="556.8" r="3" fill="#d62728"/>
<circle cx="112.2" cy="557.1" r="3" fill="#d62728"/>
<circle cx="115.7" cy="557.0" r="3" fill="#d62728"/>
<circle cx="119.1" cy="557.1" r="3" fill="#d62728"/>
<circle cx="122.5" cy="557.0" r="3" fill="#d62728"/>
<circle cx="126.0" cy="556.6" r="3" fill="#d62728"/>
<circle cx="129.4" cy="556.9" r="3" fill="#d62728"/>
<circle cx="132.9" cy="556.6" r="3" fill="#d62728"/>
<circle cx="136.3" cy="556.3" r="3" fill="#d62728"/>
<circle cx="139.7" cy="555.6" r="3" fill="#d62728"/>
<circle cx="143.2" cy="555.8" r="3" fill="#d62728"/>
<circle cx="146.6" cy="555.5" r="3" fill="#d62728"/>
<circle cx="150.1" cy="556.2" r="3" fill="#d62728"/>
<circle cx="153.5" cy="555.5" r="3" fill="#d62728"/>
<circle cx="157.0" cy="555.3" r="3" fill="#d62728"/>
<circle cx="160.4" cy="554.6" r="3" fill="#d62728"/>
<circle cx="163.8" cy="554.7" r="3" fill="#d62728"/>
<circle cx="167.3" cy="555.4" r="3" fill="#d62728"/>
<circle cx="170.7" cy="555.2" r="3" fill="#d62728"/>
<circle cx="174.2" cy="554.2" r="3" fill="#d62728"/>
<circle cx="177.6" cy="554.5" r="3" fill="#d62728"/>
<circle cx="181.1" cy="554.5" r="3" fill="#d62728"/>
<circle cx="184.5" cy="552.8" r="3" fill="#d62728"/>
<circle cx="187.9" cy="552.1" r="3" fill="#d62728"/>
<circle cx="191.4" cy="545.4" r="3" fill="#d62728"/>
<circle cx="194.8" cy="539.4" r="3" fill="#d62728"/>
<circle cx="198.3" cy="444.1" r="3" fill="#d62728"/>
<circle cx="201.7" cy="365.5" r="3" fill="#d62728"/>
<circle cx="205.2" cy="487.6" r="3" fill="#d62728"/>
<circle cx="208.6" cy="530.2" r="3" fill="#d62728"/>
<circle cx="212.0" cy="526.7" r="3" fill="#d62728"/>
<circle cx="215.5" cy="552.3" r="3" fill="#d62728"/>
<circle cx="218.9" cy="501.7" r="3" fill="#d62728"/>
<circle cx="222.4" cy="535.5" r="3" fill="#d62728"/>
<circle cx="225.8" cy="549.2" r="3" fill="#d62728"/>
<circle cx="229.2" cy="547.4" r="3" fill="#d62728"/>
<circle cx="232.7" cy="550.4" r="3" fill="#d62728"/>
<circle cx="236.1" cy="552.7" r="3" fill="#d62728"/>
<circle cx="239.6" cy="535.2" r="3" fill="#d62728"/>
<circle cx="243.0" cy="556.2" r="3" fill="#d62728"/>
<circle cx="246.5" cy="547.8" r="3" fill="#d62728"/>
<circle cx="249.9" cy="532.0" r="3" fill="#d62728"/>
<circle cx="253.3" cy="554.0" r="3" fill="#d62728"/>
<circle cx="256.8" cy="558.0" r="3" fill="#d62728"/>
<circle cx="260.2" cy="558.0" r="3" fill="#d62728"/>
<circle cx="263.7" cy="553.2" r="3" fill="#d62728"/>
<circle cx="267.1" cy="535.5" r="3" fill="#d62728"/>
<circle cx="270.6" cy="556.6" r="3" fill="#d62728"/>
<circle cx="274.0" cy="555.9" r="3" fill="#d62728"/>
<circle cx="277.4" cy="556.7" r="3" fill="#d62728"/>
<circle cx="280.9" cy="556.1" r="3" fill="#d62728"/>
<circle cx="284.3" cy="556.5" r="3" fill="#d62728"/>
<circle cx="287.8" cy="555.8" r="3" fill="#d62728"/>
<circle cx="291.2" cy="556.5" r="3" fill="#d62728"/>
<circle cx="294.6" cy="557.0" r="3" fill="#d62728"/>
<circle cx="298.1" cy="557.8" r="3" fill="#d62728"/>
<circle cx="301.5" cy="556.2" r="3" fill="#d62728"/>
<circle cx="305.0" cy="556.7" r="3" fill="#d62728"/>
<circle cx="308.4" cy="555.7" r="3" fill="#d62728"/>
<circle cx="311.9" cy="556.6" r="3" fill="#d62728"/>
<circle cx="315.3" cy="553.8" r="3" fill="#d62728"/>
<circle cx="318.7" cy="527.8" r="3" fill="#d62728"/>
<circle cx="322.2" cy="221.2" r="3" fill="#d62728"/>
<circle cx="325.6" cy="74.0" r="3" fill="#d62728"/>
<circle cx="329.1" cy="280.6" r="3" fill="#d62728"/>
<circle cx="332.5" cy="358.5" r="3" fill="#d62728"/>
<circle cx="336.0" cy="434.2" r="3" fill="#d62728"/>
<circle cx="339.4" cy="491.1" r="3" fill="#d62728"/>
<circle cx="342.8" cy="538.9" r="3" fill="#d62728"/>
<circle cx="346.3" cy="530.4" r="3" fill="#d62728"/>
<circle cx="349.7" cy="538.0" r="3" fill="#d62728"/>
<circle cx="353.2" cy="546.2" r="3" fill="#d62728"/>
<circle cx="356.6" cy="549.9" r="3" fill="#d62728"/>
<circle cx="360.1" cy="545.7" r="3" fill="#d62728"/>
<circle cx="363.5" cy="553.2" r="3" fill="#d62728"/>
<circle cx="366.9" cy="551.9" r="3" fill="#d62728"/>
<circle cx="370.4" cy="550.7" r="3" fill="#d62728"/>
<circle cx="373.8" cy="548.5" r="3" fill="#d62728"/>
<circle cx="377.3" cy="544.4" r="3" fill="#d62728"/>
<circle cx="380.7" cy="533.2" r="3" fill="#d62728"/>
<circle cx="384.1" cy="552.8" r="3" fill="#d62728"/>
<circle cx="387.6" cy="549.4" r="3" fill="#d62728"/>
<circle cx="391.0" cy="544.3" r="3" fill="#d62728"/>
<circle cx="394.5" cy="547.8" r="3" fill="#d62728"/>
<circle cx="397.9" cy="544.0" r="3" fill="#d62728"/>
<circle cx="401.4" cy="544.0" r="3" fill="#d62728"/>
<circle cx="404.8" cy="538.7" r="3" fill="#d62728"/>
<circle cx="408.2" cy="536.8" r="3" fill="#d62728"/>
<circle cx="411.7" cy="541.5" r="3" fill="#d62728"/>
<circle cx="415.1" cy="538.5" r="3" fill="#d62728"/>
<circle cx="418.6" cy="517.8" r="3" fill="#d62728"/>
<circle cx="422.0" cy="517.5" r="3" fill="#d62728"/>
<circle cx="425.5" cy="497.5" r="3" fill="#d62728"/>
<circle cx="428.9" cy="521.2" r="3" fill="#d62728"/>
<circle cx="432.3" cy="520.7" r="3" fill="#d62728"/>
<circle cx="435.8" cy="534.6" r="3" fill="#d62728"/>
<circle cx="439.2" cy="550.4" r="3" fill="#d62728"/>
<circle cx="442.7" cy="550.9" r="3" fill="#d62728"/>
<circle cx="446.1" cy="552.3" r="3" fill="#d62728"/>
<circle cx="449.5" cy="548.8" r="3" fill="#d62728"/>
<circle cx="453.0" cy="531.3" r="3" fill="#d62728"/>
<circle cx="456.4" cy="537.3" r="3" fill="#d62728"/>
<circle cx="459.9" cy="547.3" r="3" fill="#d62728"/>
<circle cx="463.3" cy="520.5" r="3" fill="#d62728"/>
<circle cx="466.8" cy="544.6" r="3" fill="#d62728"/>
<circle cx="470.2" cy="541.5" r="3" fill="#d62728"/>
<circle cx="473.6" cy="532.3" r="3" fill="#d62728"/>
<circle cx="477.1" cy="538.7" r="3" fill="#d62728"/>
<circle cx="480.5" cy="540.8" r="3" fill="#d62728"/>
<circle cx="484.0" cy="541.5" r="3" fill="#d62728"/>
<circle cx="487.4" cy="536.8" r="3" fill="#d62728"/>
<circle cx="490.9" cy="515.2" r="3" fill="#d62728"/>
<circle cx="494.3" cy="540.9" r="3" fill="#d62728"/>
<circle cx="497.7" cy="546.7" r="3" fill="#d62728"/>
<circle cx="501.2" cy="540.3" r="3" fill="#d62728"/>
<circle cx="504.6" cy="538.7" r="3" fill="#d62728"/>
<circle cx="508.1" cy="545.6" r="3" fill="#d62728"/>
<circle cx="511.5" cy="502.5" r="3" fill="#d62728"/>
<circle cx="514.9" cy="535.9" r="3" fill="#d62728"/>
<circle cx="518.4" cy="532.9" r="3" fill="#d62728"/>
<circle cx="521.8" cy="515.2" r="3" fill="#d62728"/>
<circle cx="525.3" cy="497.1" r="3" fill="#d62728"/>
<circle cx="528.7" cy="515.0" r="3" fill="#d62728"/>
<circle cx="532.2" cy="512.9" r="3" fill="#d62728"/>
<circle cx="535.6" cy="519.1" r="3" fill="#d62728"/>
<circle cx="539.0" cy="538.5" r="3" fill="#d62728"/>
<circle cx="542.5" cy="545.0" r="3" fill="#d62728"/>
<circle cx="545.9" cy="537.3" r="3" fill="#d62728"/>
<circle cx="549.4" cy="528.3" r="3" fill="#d62728"/>
<circle cx="552.8" cy="542.0" r="3" fill="#d62728"/>
<circle cx="556.3" cy="531.6" r="3" fill="#d62728"/>
<circle cx="559.7" cy="514.1" r="3" fill="#d62728"/>
<circle cx="563.1" cy="525.8" r="3" fill="#d62728"/>
<circle cx="566.6" cy="507.1" r="3" fill="#d62728"/>
<circle cx="570.0" cy="500.7" r="3" fill="#d62728"/>
<circle cx="573.5" cy="452.6" r="3" fill="#d62728"/>
<circle cx="576.9" cy="425.0" r="3" fill="#d62728"/>
<circle cx="580.4" cy="510.9" r="3" fill="#d62728"/>
<circle cx="583.8" cy="511.7" r="3" fill="#d62728"/>
<circle cx="587.2" cy="534.3" r="3" fill="#d62728"/>
<circle cx="590.7" cy="533.2" r="3" fill="#d62728"/>
<circle cx="594.1" cy="541.4" r="3" fill="#d62728"/>
<circle cx="597.6" cy="532.9" r="3" fill="#d62728"/>
<circle cx="601.0" cy="539.0" r="3" fill="#d62728"/>
<circle cx="604.4" cy="530.2" r="3" fill="#d62728"/>
<circle cx="607.9" cy="537.4" r="3" fill="#d62728"/>
<circle cx="611.3" cy="512.0" r="3" fill="#d62728"/>
<circle cx="614.8" cy="532.7" r="3" fill="#d62728"/>
<circle cx="618.2" cy="529.7" r="3" fill="#d62728"/>
<circle cx="621.7" cy="500.0" r="3" fill="#d62728"/>
<circle cx="625.1" cy="514.1" r="3" fill="#d62728"/>
<circle cx="628.5" cy="494.7" r="3" fill="#d62728"/>
<circle cx="632.0" cy="529.0" r="3" fill="#d62728"/>
<circle cx="635.4" cy="526.2" r="3" fill="#d62728"/>
<circle cx="638.9" cy="546.7" r="3" fill="#d62728"/>
<circle cx="642.3" cy="543.1" r="3" fill="#d62728"/>
<circle cx="645.8" cy="537.0" r="3" fill="#d62728"/>
<circle cx="649.2" cy="546.7" r="3" fill="#d62728"/>
<circle cx="652.6" cy="542.7" r="3" fill="#d62728"/>
<circle cx="656.1" cy="538.9" r="3" fill="#d62728"/>
<circle cx="659.5" cy="550.5" r="3" fill="#d62728"/>
<circle cx="663.0" cy="544.3" r="3" fill="#d62728"/>
<circle cx="666.4" cy="534.1" r="3" fill="#d62728"/>
<circle cx="669.8" cy="512.0" r="3" fill="#d62728"/>
<circle cx="673.3" cy="506.7" r="3" fill="#d62728"/>
<circle cx="676.7" cy="472.7" r="3" fill="#d62728"/>
<circle cx="680.2" cy="449.0" r="3" fill="#d62728"/>
<circle cx="683.6" cy="519.1" r="3" fill="#d62728"/>
<circle cx="687.1" cy="500.3" r="3" fill="#d62728"/>
<circle cx="690.5" cy="507.1" r="3" fill="#d62728"/>
<circle cx="693.9" cy="530.4" r="3" fill="#d62728"/>
<circle cx="697.4" cy="533.6" r="3" fill="#d62728"/>
<circle cx="700.8" cy="546.5" r="3" fill="#d62728"/>
<circle cx="704.3" cy="551.4" r="3" fill="#d62728"/>
<circle cx="707.7" cy="548.1" r="3" fill="#d62728"/>
<circle cx="711.2" cy="553.5" r="3" fill="#d62728"/>
<circle cx="714.6" cy="550.2" r="3" fill="#d62728"/>
<circle cx="718.0" cy="550.0" r="3" fill="#d62728"/>
<circle cx="721.5" cy="546.0" r="3" fill="#d62728"/>
<circle cx="724.9" cy="550.9" r="3" fill="#d62728"/>
<circle cx="728.4" cy="544.0" r="3" fill="#d62728"/>
<circle cx="731.8" cy="549.6" r="3" fill="#d62728"/>
<circle cx="735.3" cy="538.4" r="3" fill="#d62728"/>
<circle cx="738.7" cy="535.5" r="3" fill="#d62728"/>
<circle cx="742.1" cy="530.4" r="3" fill="#d62728"/>
<circle cx="745.6" cy="529.5" r="3" fill="#d62728"/>
<circle cx="749.0" cy="513.6" r="3" fill="#d62728"/>
<circle cx="752.5" cy="530.6" r="3" fill="#d62728"/>
<circle cx="755.9" cy="521.4" r="3" fill="#d62728"/>
<circle cx="759.3" cy="530.0" r="3" fill="#d62728"/>
<circle cx="762.8" cy="519.3" r="3" fill="#d62728"/>
<circle cx="766.2" cy="481.9" r="3" fill="#d62728"/>
<circle cx="769.7" cy="530.4" r="3" fill="#d62728"/>
<circle cx="773.1" cy="514.3" r="3" fill="#d62728"/>
<circle cx="776.6" cy="532.9" r="3" fill="#d62728"/>
<circle cx="780.0" cy="534.1" r="3" fill="#d62728"/>
<line x1="808" y1="121" x2="830" y2="121" stroke="#d62728" stroke-width="2.5"/>
<text x="838" y="125" font-family="Arial" font-size="13">masked_normalize</text>
<text x="437.5" y="618" text-anchor="middle" font-family="Arial" font-size="15">GRPO step</text>
<text x="24" y="316.0" text-anchor="middle" font-family="Arial" font-size="15" transform="rotate(-90 24 316.0)">pre-clip gradient norm</text>
</svg>
