<svg xmlns="http://www.w3.org/2000/svg" width="1040" height="640" viewBox="0 0 1040 640">
<rect width="100%" height="100%" fill="white"/>
<text x="520.0" y="36" text-anchor="middle" font-family="Arial" font-size="22" font-weight="700">GRPO rollout response length by length normalization</text>
<line x1="95" y1="558" x2="780" y2="558" stroke="#222" stroke-width="1.5"/>
<line x1="95" y1="74" x2="95" y2="558" stroke="#222" stroke-width="1.5"/>
<line x1="90" y1="558.0" x2="780" y2="558.0" stroke="#ddd" stroke-width="1"/>
<text x="83" y="562.0" text-anchor="end" font-family="Arial" font-size="12">0.00</text>
<line x1="90" y1="461.2" x2="780" y2="461.2" stroke="#ddd" stroke-width="1"/>
<text x="83" y="465.2" text-anchor="end" font-family="Arial" font-size="12">123.62</text>
<line x1="90" y1="364.4" x2="780" y2="364.4" stroke="#ddd" stroke-width="1"/>
<text x="83" y="368.4" text-anchor="end" font-family="Arial" font-size="12">247.24</text>
<line x1="90" y1="267.6" x2="780" y2="267.6" stroke="#ddd" stroke-width="1"/>
<text x="83" y="271.6" text-anchor="end" font-family="Arial" font-size="12">370.86</text>
<line x1="90" y1="170.8" x2="780" y2="170.8" stroke="#ddd" stroke-width="1"/>
<text x="83" y="174.8" text-anchor="end" font-family="Arial" font-size="12">494.48</text>
<line x1="90" y1="74.0" x2="780" y2="74.0" stroke="#ddd" stroke-width="1"/>
<text x="83" y="78.0" text-anchor="end" font-family="Arial" font-size="12">618.10</text>
<line x1="95.0" y1="558" x2="95.0" y2="563" stroke="#222" stroke-width="1"/>
<text x="95.0" y="582" text-anchor="middle" font-family="Arial" font-size="12">1</text>
<line x1="232.0" y1="558" x2="232.0" y2="563" stroke="#222" stroke-width="1"/>
<text x="232.0" y="582" text-anchor="middle" font-family="Arial" font-size="12">41</text>
<line x1="369.0" y1="558" x2="369.0" y2="563" stroke="#222" stroke-width="1"/>
<text x="369.0" y="582" text-anchor="middle" font-family="Arial" font-size="12">81</text>
<line x1="506.0" y1="558" x2="506.0" y2="563" stroke="#222" stroke-width="1"/>
<text x="506.0" y="582" text-anchor="middle" font-family="Arial" font-size="12">120</text>
<line x1="643.0" y1="558" x2="643.0" y2="563" stroke="#222" stroke-width="1"/>
<text x="643.0" y="582" text-anchor="middle" font-family="Arial" font-size="12">160</text>
<line x1="780.0" y1="558" x2="780.0" y2="563" stroke="#222" stroke-width="1"/>
<text x="780.0" y="582" text-anchor="middle" font-family="Arial" font-size="12">200</text>
<polyline fill="none" stroke="#1f77b4" stroke-width="2.3" points="95.0,319.5 98.4,465.4 101.9,427.4 105.3,389.3 108.8,356.1 112.2,350.2 115.7,358.3 119.1,392.8 122.5,372.9 126.0,400.2 129.4,377.5 132.9,391.2 136.3,368.7 139.7,380.2 143.2,364.8 146.6,358.0 150.1,358.8 153.5,354.3 157.0,353.6 160.4,345.6 163.8,332.6 167.3,308.9 170.7,320.0 174.2,340.7 177.6,343.6 181.1,320.4 184.5,341.0 187.9,309.1 191.4,304.8 194.8,282.1 198.3,325.7 201.7,342.6 205.2,363.8 208.6,316.2 212.0,302.6 215.5,312.0 218.9,327.5 222.4,319.2 225.8,332.5 229.2,289.2 232.7,330.5 236.1,289.1 239.6,300.4 243.0,303.0 246.5,290.5 249.9,252.5 253.3,343.6 256.8,251.6 260.2,294.5 263.7,324.1 267.1,301.4 270.6,313.0 274.0,293.8 277.4,334.5 280.9,311.1 284.3,262.8 287.8,332.9 291.2,283.2 294.6,269.6 298.1,233.8 301.5,293.8 305.0,282.4 308.4,301.7 311.9,195.6 315.3,256.3 318.7,266.3 322.2,202.4 325.6,255.9 329.1,249.1 332.5,225.4 336.0,170.8 339.4,221.5 342.8,215.6 346.3,200.7 349.7,176.0 353.2,219.6 356.6,137.4 360.1,186.3 363.5,188.6 366.9,245.8 370.4,198.7 373.8,206.5 377.3,190.7 380.7,130.2 384.1,187.4 387.6,178.6 391.0,240.8 394.5,205.6 397.9,241.8 401.4,232.8 404.8,164.5 408.2,114.0 411.7,189.2 415.1,168.4 418.6,183.5 422.0,157.1 425.5,166.2 428.9,159.8 432.3,199.3 435.8,207.2 439.2,179.2 442.7,268.9 446.1,284.5 449.5,274.4 453.0,267.8 456.4,274.6 459.9,273.0 463.3,248.1 466.8,274.3 470.2,262.6 473.6,200.6 477.1,251.3 480.5,275.2 484.0,227.6 487.4,248.6 490.9,178.8 494.3,260.1 497.7,243.3 501.2,218.8 504.6,203.5 508.1,190.2 511.5,93.4 514.9,141.9 518.4,237.5 521.8,167.2 525.3,179.7 528.7,170.6 532.2,136.1 535.6,160.9 539.0,205.2 542.5,180.5 545.9,189.6 549.4,176.1 552.8,157.4 556.3,185.5 559.7,177.4 563.1,200.8 566.6,195.5 570.0,208.8 573.5,111.8 576.9,170.0 580.4,161.4 583.8,190.1 587.2,136.1 590.7,174.8 594.1,182.1 597.6,182.1 601.0,150.7 604.4,142.1 607.9,159.2 611.3,152.5 614.8,149.0 618.2,203.1 621.7,170.8 625.1,193.6 628.5,210.0 632.0,94.5 635.4,194.6 638.9,113.9 642.3,101.1 645.8,130.3 649.2,221.6 652.6,200.9 656.1,152.0 659.5,209.9 663.0,203.1 666.4,184.6 669.8,236.3 673.3,217.0 676.7,214.4 680.2,227.9 683.6,246.8 687.1,203.8 690.5,187.9 693.9,199.5 697.4,219.2 700.8,187.6 704.3,188.8 707.7,242.0 711.2,196.0 714.6,182.2 718.0,226.2 721.5,226.2 724.9,218.3 728.4,248.2 731.8,189.7 735.3,241.1 738.7,197.2 742.1,172.4 745.6,161.7 749.0,188.7 752.5,247.6 755.9,233.5 759.3,197.8 762.8,142.3 766.2,107.6 769.7,207.3 773.1,175.3 776.6,143.7 780.0,192.4"/>
<circle cx="95.0" cy="319.5" r="3" fill="#1f77b4"/>
<circle cx="98.4" cy="465.4" r="3" fill="#1f77b4"/>
<circle cx="101.9" cy="427.4" r="3" fill="#1f77b4"/>
<circle cx="105.3" cy="389.3" r="3" fill="#1f77b4"/>
<circle cx="108.8" cy="356.1" r="3" fill="#1f77b4"/>
<circle cx="112.2" cy="350.2" r="3" fill="#1f77b4"/>
<circle cx="115.7" cy="358.3" r="3" fill="#1f77b4"/>
<circle cx="119.1" cy="392.8" r="3" fill="#1f77b4"/>
<circle cx="122.5" cy="372.9" r="3" fill="#1f77b4"/>
<circle cx="126.0" cy="400.2" r="3" fill="#1f77b4"/>
<circle cx="129.4" cy="377.5" r="3" fill="#1f77b4"/>
<circle cx="132.9" cy="391.2" r="3" fill="#1f77b4"/>
<circle cx="136.3" cy="368.7" r="3" fill="#1f77b4"/>
<circle cx="139.7" cy="380.2" r="3" fill="#1f77b4"/>
<circle cx="143.2" cy="364.8" r="3" fill="#1f77b4"/>
<circle cx="146.6" cy="358.0" r="3" fill="#1f77b4"/>
<circle cx="150.1" cy="358.8" r="3" fill="#1f77b4"/>
<circle cx="153.5" cy="354.3" r="3" fill="#1f77b4"/>
<circle cx="157.0" cy="353.6" r="3" fill="#1f77b4"/>
<circle cx="160.4" cy="345.6" r="3" fill="#1f77b4"/>
<circle cx="163.8" cy="332.6" r="3" fill="#1f77b4"/>
<circle cx="167.3" cy="308.9" r="3" fill="#1f77b4"/>
<circle cx="170.7" cy="320.0" r="3" fill="#1f77b4"/>
<circle cx="174.2" cy="340.7" r="3" fill="#1f77b4"/>
<circle cx="177.6" cy="343.6" r="3" fill="#1f77b4"/>
<circle cx="181.1" cy="320.4" r="3" fill="#1f77b4"/>
<circle cx="184.5" cy="341.0" r="3" fill="#1f77b4"/>
<circle cx="187.9" cy="309.1" r="3" fill="#1f77b4"/>
<circle cx="191.4" cy="304.8" r="3" fill="#1f77b4"/>
<circle cx="194.8" cy="282.1" r="3" fill="#1f77b4"/>
<circle cx="198.3" cy="325.7" r="3" fill="#1f77b4"/>
<circle cx="201.7" cy="342.6" r="3" fill="#1f77b4"/>
<circle cx="205.2" cy="363.8" r="3" fill="#1f77b4"/>
<circle cx="208.6" cy="316.2" r="3" fill="#1f77b4"/>
<circle cx="212.0" cy="302.6" r="3" fill="#1f77b4"/>
<circle cx="215.5" cy="312.0" r="3" fill="#1f77b4"/>
<circle cx="218.9" cy="327.5" r="3" fill="#1f77b4"/>
<circle cx="222.4" cy="319.2" r="3" fill="#1f77b4"/>
<circle cx="225.8" cy="332.5" r="3" fill="#1f77b4"/>
<circle cx="229.2" cy="289.2" r="3" fill="#1f77b4"/>
<circle cx="232.7" cy="330.5" r="3" fill="#1f77b4"/>
<circle cx="236.1" cy="289.1" r="3" fill="#1f77b4"/>
<circle cx="239.6" cy="300.4" r="3" fill="#1f77b4"/>
<circle cx="243.0" cy="303.0" r="3" fill="#1f77b4"/>
<circle cx="246.5" cy="290.5" r="3" fill="#1f77b4"/>
<circle cx="249.9" cy="252.5" r="3" fill="#1f77b4"/>
<circle cx="253.3" cy="343.6" r="3" fill="#1f77b4"/>
<circle cx="256.8" cy="251.6" r="3" fill="#1f77b4"/>
<circle cx="260.2" cy="294.5" r="3" fill="#1f77b4"/>
<circle cx="263.7" cy="324.1" r="3" fill="#1f77b4"/>
<circle cx="267.1" cy="301.4" r="3" fill="#1f77b4"/>
<circle cx="270.6" cy="313.0" r="3" fill="#1f77b4"/>
<circle cx="274.0" cy="293.8" r="3" fill="#1f77b4"/>
<circle cx="277.4" cy="334.5" r="3" fill="#1f77b4"/>
<circle cx="280.9" cy="311.1" r="3" fill="#1f77b4"/>
<circle cx="284.3" cy="262.8" r="3" fill="#1f77b4"/>
<circle cx="287.8" cy="332.9" r="3" fill="#1f77b4"/>
<circle cx="291.2" cy="283.2" r="3" fill="#1f77b4"/>
<circle cx="294.6" cy="269.6" r="3" fill="#1f77b4"/>
<circle cx="298.1" cy="233.8" r="3" fill="#1f77b4"/>
<circle cx="301.5" cy="293.8" r="3" fill="#1f77b4"/>
<circle cx="305.0" cy="282.4" r="3" fill="#1f77b4"/>
<circle cx="308.4" cy="301.7" r="3" fill="#1f77b4"/>
<circle cx="311.9" cy="195.6" r="3" fill="#1f77b4"/>
<circle cx="315.3" cy="256.3" r="3" fill="#1f77b4"/>
<circle cx="318.7" cy="266.3" r="3" fill="#1f77b4"/>
<circle cx="322.2" cy="202.4" r="3" fill="#1f77b4"/>
<circle cx="325.6" cy="255.9" r="3" fill="#1f77b4"/>
<circle cx="329.1" cy="249.1" r="3" fill="#1f77b4"/>
<circle cx="332.5" cy="225.4" r="3" fill="#1f77b4"/>
<circle cx="336.0" cy="170.8" r="3" fill="#1f77b4"/>
<circle cx="339.4" cy="221.5" r="3" fill="#1f77b4"/>
<circle cx="342.8" cy="215.6" r="3" fill="#1f77b4"/>
<circle cx="346.3" cy="200.7" r="3" fill="#1f77b4"/>
<circle cx="349.7" cy="176.0" r="3" fill="#1f77b4"/>
<circle cx="353.2" cy="219.6" r="3" fill="#1f77b4"/>
<circle cx="356.6" cy="137.4" r="3" fill="#1f77b4"/>
<circle cx="360.1" cy="186.3" r="3" fill="#1f77b4"/>
<circle cx="363.5" cy="188.6" r="3" fill="#1f77b4"/>
<circle cx="366.9" cy="245.8" r="3" fill="#1f77b4"/>
<circle cx="370.4" cy="198.7" r="3" fill="#1f77b4"/>
<circle cx="373.8" cy="206.5" r="3" fill="#1f77b4"/>
<circle cx="377.3" cy="190.7" r="3" fill="#1f77b4"/>
<circle cx="380.7" cy="130.2" r="3" fill="#1f77b4"/>
<circle cx="384.1" cy="187.4" r="3" fill="#1f77b4"/>
<circle cx="387.6" cy="178.6" r="3" fill="#1f77b4"/>
<circle cx="391.0" cy="240.8" r="3" fill="#1f77b4"/>
<circle cx="394.5" cy="205.6" r="3" fill="#1f77b4"/>
<circle cx="397.9" cy="241.8" r="3" fill="#1f77b4"/>
<circle cx="401.4" cy="232.8" r="3" fill="#1f77b4"/>
<circle cx="404.8" cy="164.5" r="3" fill="#1f77b4"/>
<circle cx="408.2" cy="114.0" r="3" fill="#1f77b4"/>
<circle cx="411.7" cy="189.2" r="3" fill="#1f77b4"/>
<circle cx="415.1" cy="168.4" r="3" fill="#1f77b4"/>
<circle cx="418.6" cy="183.5" r="3" fill="#1f77b4"/>
<circle cx="422.0" cy="157.1" r="3" fill="#1f77b4"/>
<circle cx="425.5" cy="166.2" r="3" fill="#1f77b4"/>
<circle cx="428.9" cy="159.8" r="3" fill="#1f77b4"/>
<circle cx="432.3" cy="199.3" r="3" fill="#1f77b4"/>
<circle cx="435.8" cy="207.2" r="3" fill="#1f77b4"/>
<circle cx="439.2" cy="179.2" r="3" fill="#1f77b4"/>
<circle cx="442.7" cy="268.9" r="3" fill="#1f77b4"/>
<circle cx="446.1" cy="284.5" r="3" fill="#1f77b4"/>
<circle cx="449.5" cy="274.4" r="3" fill="#1f77b4"/>
<circle cx="453.0" cy="267.8" r="3" fill="#1f77b4"/>
<circle cx="456.4" cy="274.6" r="3" fill="#1f77b4"/>
<circle cx="459.9" cy="273.0" r="3" fill="#1f77b4"/>
<circle cx="463.3" cy="248.1" r="3" fill="#1f77b4"/>
<circle cx="466.8" cy="274.3" r="3" fill="#1f77b4"/>
<circle cx="470.2" cy="262.6" r="3" fill="#1f77b4"/>
<circle cx="473.6" cy="200.6" r="3" fill="#1f77b4"/>
<circle cx="477.1" cy="251.3" r="3" fill="#1f77b4"/>
<circle cx="480.5" cy="275.2" r="3" fill="#1f77b4"/>
<circle cx="484.0" cy="227.6" r="3" fill="#1f77b4"/>
<circle cx="487.4" cy="248.6" r="3" fill="#1f77b4"/>
<circle cx="490.9" cy="178.8" r="3" fill="#1f77b4"/>
<circle cx="494.3" cy="260.1" r="3" fill="#1f77b4"/>
<circle cx="497.7" cy="243.3" r="3" fill="#1f77b4"/>
<circle cx="501.2" cy="218.8" r="3" fill="#1f77b4"/>
<circle cx="504.6" cy="203.5" r="3" fill="#1f77b4"/>
<circle cx="508.1" cy="190.2" r="3" fill="#1f77b4"/>
<circle cx="511.5" cy="93.4" r="3" fill="#1f77b4"/>
<circle cx="514.9" cy="141.9" r="3" fill="#1f77b4"/>
<circle cx="518.4" cy="237.5" r="3" fill="#1f77b4"/>
<circle cx="521.8" cy="167.2" r="3" fill="#1f77b4"/>
<circle cx="525.3" cy="179.7" r="3" fill="#1f77b4"/>
<circle cx="528.7" cy="170.6" r="3" fill="#1f77b4"/>
<circle cx="532.2" cy="136.1" r="3" fill="#1f77b4"/>
<circle cx="535.6" cy="160.9" r="3" fill="#1f77b4"/>
<circle cx="539.0" cy="205.2" r="3" fill="#1f77b4"/>
<circle cx="542.5" cy="180.5" r="3" fill="#1f77b4"/>
<circle cx="545.9" cy="189.6" r="3" fill="#1f77b4"/>
<circle cx="549.4" cy="176.1" r="3" fill="#1f77b4"/>
<circle cx="552.8" cy="157.4" r="3" fill="#1f77b4"/>
<circle cx="556.3" cy="185.5" r="3" fill="#1f77b4"/>
<circle cx="559.7" cy="177.4" r="3" fill="#1f77b4"/>
<circle cx="563.1" cy="200.8" r="3" fill="#1f77b4"/>
<circle cx="566.6" cy="195.5" r="3" fill="#1f77b4"/>
<circle cx="570.0" cy="208.8" r="3" fill="#1f77b4"/>
<circle cx="573.5" cy="111.8" r="3" fill="#1f77b4"/>
<circle cx="576.9" cy="170.0" r="3" fill="#1f77b4"/>
<circle cx="580.4" cy="161.4" r="3" fill="#1f77b4"/>
<circle cx="583.8" cy="190.1" r="3" fill="#1f77b4"/>
<circle cx="587.2" cy="136.1" r="3" fill="#1f77b4"/>
<circle cx="590.7" cy="174.8" r="3" fill="#1f77b4"/>
<circle cx="594.1" cy="182.1" r="3" fill="#1f77b4"/>
<circle cx="597.6" cy="182.1" r="3" fill="#1f77b4"/>
<circle cx="601.0" cy="150.7" r="3" fill="#1f77b4"/>
<circle cx="604.4" cy="142.1" r="3" fill="#1f77b4"/>
<circle cx="607.9" cy="159.2" r="3" fill="#1f77b4"/>
<circle cx="611.3" cy="152.5" r="3" fill="#1f77b4"/>
<circle cx="614.8" cy="149.0" r="3" fill="#1f77b4"/>
<circle cx="618.2" cy="203.1" r="3" fill="#1f77b4"/>
<circle cx="621.7" cy="170.8" r="3" fill="#1f77b4"/>
<circle cx="625.1" cy="193.6" r="3" fill="#1f77b4"/>
<circle cx="628.5" cy="210.0" r="3" fill="#1f77b4"/>
<circle cx="632.0" cy="94.5" r="3" fill="#1f77b4"/>
<circle cx="635.4" cy="194.6" r="3" fill="#1f77b4"/>
<circle cx="638.9" cy="113.9" r="3" fill="#1f77b4"/>
<circle cx="642.3" cy="101.1" r="3" fill="#1f77b4"/>
<circle cx="645.8" cy="130.3" r="3" fill="#1f77b4"/>
<circle cx="649.2" cy="221.6" r="3" fill="#1f77b4"/>
<circle cx="652.6" cy="200.9" r="3" fill="#1f77b4"/>
<circle cx="656.1" cy="152.0" r="3" fill="#1f77b4"/>
<circle cx="659.5" cy="209.9" r="3" fill="#1f77b4"/>
<circle cx="663.0" cy="203.1" r="3" fill="#1f77b4"/>
<circle cx="666.4" cy="184.6" r="3" fill="#1f77b4"/>
<circle cx="669.8" cy="236.3" r="3" fill="#1f77b4"/>
<circle cx="673.3" cy="217.0" r="3" fill="#1f77b4"/>
<circle cx="676.7" cy="214.4" r="3" fill="#1f77b4"/>
<circle cx="680.2" cy="227.9" r="3" fill="#1f77b4"/>
<circle cx="683.6" cy="246.8" r="3" fill="#1f77b4"/>
<circle cx="687.1" cy="203.8" r="3" fill="#1f77b4"/>
<circle cx="690.5" cy="187.9" r="3" fill="#1f77b4"/>
<circle cx="693.9" cy="199.5" r="3" fill="#1f77b4"/>
<circle cx="697.4" cy="219.2" r="3" fill="#1f77b4"/>
<circle cx="700.8" cy="187.6" r="3" fill="#1f77b4"/>
<circle cx="704.3" cy="188.8" r="3" fill="#1f77b4"/>
<circle cx="707.7" cy="242.0" r="3" fill="#1f77b4"/>
<circle cx="711.2" cy="196.0" r="3" fill="#1f77b4"/>
<circle cx="714.6" cy="182.2" r="3" fill="#1f77b4"/>
<circle cx="718.0" cy="226.2" r="3" fill="#1f77b4"/>
<circle cx="721.5" cy="226.2" r="3" fill="#1f77b4"/>
<circle cx="724.9" cy="218.3" r="3" fill="#1f77b4"/>
<circle cx="728.4" cy="248.2" r="3" fill="#1f77b4"/>
<circle cx="731.8" cy="189.7" r="3" fill="#1f77b4"/>
<circle cx="735.3" cy="241.1" r="3" fill="#1f77b4"/>
<circle cx="738.7" cy="197.2" r="3" fill="#1f77b4"/>
<circle cx="742.1" cy="172.4" r="3" fill="#1f77b4"/>
<circle cx="745.6" cy="161.7" r="3" fill="#1f77b4"/>
<circle cx="749.0" cy="188.7" r="3" fill="#1f77b4"/>
<circle cx="752.5" cy="247.6" r="3" fill="#1f77b4"/>
<circle cx="755.9" cy="233.5" r="3" fill="#1f77b4"/>
<circle cx="759.3" cy="197.8" r="3" fill="#1f77b4"/>
<circle cx="762.8" cy="142.3" r="3" fill="#1f77b4"/>
<circle cx="766.2" cy="107.6" r="3" fill="#1f77b4"/>
<circle cx="769.7" cy="207.3" r="3" fill="#1f77b4"/>
<circle cx="773.1" cy="175.3" r="3" fill="#1f77b4"/>
<circle cx="776.6" cy="143.7" r="3" fill="#1f77b4"/>
<circle cx="780.0" cy="192.4" r="3" fill="#1f77b4"/>
<line x1="808" y1="96" x2="830" y2="96" stroke="#1f77b4" stroke-width="2.5"/>
<text x="838" y="100" font-family="Arial" font-size="13">masked_mean</text>
<polyline fill="none" stroke="#d62728" stroke-width="2.3" points="95.0,319.5 98.4,400.6 101.9,472.4 105.3,523.0 108.8,530.7 112.2,525.2 115.7,520.0 119.1,523.1 122.5,522.8 126.0,511.5 129.4,520.7 132.9,519.3 136.3,507.2 139.7,487.9 143.2,467.8 146.6,469.0 150.1,464.2 153.5,458.0 157.0,474.4 160.4,467.3 163.8,454.3 167.3,484.8 170.7,496.2 174.2,500.1 177.6,507.9 181.1,493.8 184.5,509.9 187.9,508.9 191.4,519.4 194.8,502.8 198.3,508.0 201.7,504.7 205.2,495.5 208.6,482.1 212.0,485.9 215.5,477.4 218.9,492.4 222.4,474.5 225.8,474.2 229.2,467.9 232.7,469.3 236.1,459.9 239.6,447.7 243.0,480.5 246.5,444.1 249.9,457.9 253.3,477.9 256.8,424.7 260.2,419.8 263.7,439.4 267.1,409.4 270.6,431.6 274.0,408.6 277.4,426.7 280.9,416.3 284.3,378.6 287.8,421.0 291.2,359.5 294.6,344.6 298.1,317.2 301.5,319.0 305.0,304.3 308.4,326.9 311.9,254.4 315.3,303.9 318.7,290.3 322.2,251.0 325.6,292.3 329.1,317.0 332.5,302.5 336.0,247.7 339.4,317.5 342.8,329.0 346.3,318.1 349.7,305.1 353.2,308.1 356.6,276.3 360.1,306.2 363.5,331.5 366.9,341.9 370.4,347.3 373.8,349.2 377.3,320.3 380.7,274.9 384.1,311.8 387.6,339.4 391.0,356.9 394.5,305.7 397.9,361.2 401.4,359.1 404.8,301.7 408.2,293.4 411.7,324.6 415.1,320.2 418.6,332.1 422.0,304.5 425.5,305.2 428.9,285.6 432.3,279.2 435.8,308.6 439.2,239.7 442.7,349.0 446.1,335.2 449.5,276.8 453.0,302.2 456.4,284.6 459.9,269.4 463.3,262.6 466.8,266.0 470.2,286.0 473.6,200.8 477.1,242.0 480.5,300.1 484.0,284.7 487.4,262.0 490.9,247.2 494.3,290.7 497.7,306.8 501.2,229.7 504.6,282.2 508.1,250.0 511.5,181.1 514.9,235.4 518.4,300.3 521.8,261.1 525.3,262.8 528.7,242.6 532.2,224.9 535.6,273.3 539.0,288.5 542.5,261.2 545.9,263.9 549.4,278.8 552.8,261.9 556.3,272.2 559.7,256.6 563.1,275.0 566.6,247.6 570.0,283.6 573.5,210.2 576.9,257.0 580.4,250.1 583.8,283.6 587.2,218.1 590.7,242.5 594.1,265.1 597.6,265.5 601.0,237.2 604.4,213.0 607.9,236.6 611.3,229.2 614.8,240.2 618.2,258.3 621.7,269.4 625.1,297.2 628.5,277.9 632.0,159.4 635.4,239.2 638.9,161.4 642.3,147.0 645.8,207.3 649.2,274.8 652.6,251.8 656.1,195.6 659.5,237.1 663.0,259.5 666.4,240.3 669.8,241.5 673.3,227.8 676.7,225.4 680.2,246.2 683.6,257.8 687.1,208.0 690.5,215.5 693.9,211.3 697.4,197.7 700.8,168.8 704.3,186.7 707.7,234.3 711.2,217.7 714.6,166.8 718.0,202.8 721.5,224.4 724.9,228.1 728.4,227.1 731.8,200.5 735.3,231.2 738.7,198.5 742.1,141.0 745.6,142.6 749.0,147.3 752.5,213.1 755.9,208.5 759.3,168.2 762.8,116.2 766.2,74.0 769.7,183.7 773.1,123.0 776.6,118.7 780.0,157.0"/>
<circle cx="95.0" cy="319.5" r="3" fill="#d62728"/>
<circle cx="98.4" cy="400.6" r="3" fill="#d62728"/>
<circle cx="101.9" cy="472.4" r="3" fill="#d62728"/>
<circle cx="105.3" cy="523.0" r="3" fill="#d62728"/>
<circle cx="108.8" cy="530.7" r="3" fill="#d62728"/>
<circle cx="112.2" cy="525.2" r="3" fill="#d62728"/>
<circle cx="115.7" cy="520.0" r="3" fill="#d62728"/>
<circle cx="119.1" cy="523.1" r="3" fill="#d62728"/>
<circle cx="122.5" cy="522.8" r="3" fill="#d62728"/>
<circle cx="126.0" cy="511.5" r="3" fill="#d62728"/>
<circle cx="129.4" cy="520.7" r="3" fill="#d62728"/>
<circle cx="132.9" cy="519.3" r="3" fill="#d62728"/>
<circle cx="136.3" cy="507.2" r="3" fill="#d62728"/>
<circle cx="139.7" cy="487.9" r="3" fill="#d62728"/>
<circle cx="143.2" cy="467.8" r="3" fill="#d62728"/>
<circle cx="146.6" cy="469.0" r="3" fill="#d62728"/>
<circle cx="150.1" cy="464.2" r="3" fill="#d62728"/>
<circle cx="153.5" cy="458.0" r="3" fill="#d62728"/>
<circle cx="157.0" cy="474.4" r="3" fill="#d62728"/>
<circle cx="160.4" cy="467.3" r="3" fill="#d62728"/>
<circle cx="163.8" cy="454.3" r="3" fill="#d62728"/>
<circle cx="167.3" cy="484.8" r="3" fill="#d62728"/>
<circle cx="170.7" cy="496.2" r="3" fill="#d62728"/>
<circle cx="174.2" cy="500.1" r="3" fill="#d62728"/>
<circle cx="177.6" cy="507.9" r="3" fill="#d62728"/>
<circle cx="181.1" cy="493.8" r="3" fill="#d62728"/>
<circle cx="184.5" cy="509.9" r="3" fill="#d62728"/>
<circle cx="187.9" cy="508.9" r="3" fill="#d62728"/>
<circle cx="191.4" cy="519.4" r="3" fill="#d62728"/>
<circle cx="194.8" cy="502.8" r="3" fill="#d62728"/>
<circle cx="198.3" cy="508.0" r="3" fill="#d62728"/>
<circle cx="201.7" cy="504.7" r="3" fill="#d62728"/>
<circle cx="205.2" cy="495.5" r="3" fill="#d62728"/>
<circle cx="208.6" cy="482.1" r="3" fill="#d62728"/>
<circle cx="212.0" cy="485.9" r="3" fill="#d62728"/>
<circle cx="215.5" cy="477.4" r="3" fill="#d62728"/>
<circle cx="218.9" cy="492.4" r="3" fill="#d62728"/>
<circle cx="222.4" cy="474.5" r="3" fill="#d62728"/>
<circle cx="225.8" cy="474.2" r="3" fill="#d62728"/>
<circle cx="229.2" cy="467.9" r="3" fill="#d62728"/>
<circle cx="232.7" cy="469.3" r="3" fill="#d62728"/>
<circle cx="236.1" cy="459.9" r="3" fill="#d62728"/>
<circle cx="239.6" cy="447.7" r="3" fill="#d62728"/>
<circle cx="243.0" cy="480.5" r="3" fill="#d62728"/>
<circle cx="246.5" cy="444.1" r="3" fill="#d62728"/>
<circle cx="249.9" cy="457.9" r="3" fill="#d62728"/>
<circle cx="253.3" cy="477.9" r="3" fill="#d62728"/>
<circle cx="256.8" cy="424.7" r="3" fill="#d62728"/>
<circle cx="260.2" cy="419.8" r="3" fill="#d62728"/>
<circle cx="263.7" cy="439.4" r="3" fill="#d62728"/>
<circle cx="267.1" cy="409.4" r="3" fill="#d62728"/>
<circle cx="270.6" cy="431.6" r="3" fill="#d62728"/>
<circle cx="274.0" cy="408.6" r="3" fill="#d62728"/>
<circle cx="277.4" cy="426.7" r="3" fill="#d62728"/>
<circle cx="280.9" cy="416.3" r="3" fill="#d62728"/>
<circle cx="284.3" cy="378.6" r="3" fill="#d62728"/>
<circle cx="287.8" cy="421.0" r="3" fill="#d62728"/>
<circle cx="291.2" cy="359.5" r="3" fill="#d62728"/>
<circle cx="294.6" cy="344.6" r="3" fill="#d62728"/>
<circle cx="298.1" cy="317.2" r="3" fill="#d62728"/>
<circle cx="301.5" cy="319.0" r="3" fill="#d62728"/>
<circle cx="305.0" cy="304.3" r="3" fill="#d62728"/>
<circle cx="308.4" cy="326.9" r="3" fill="#d62728"/>
<circle cx="311.9" cy="254.4" r="3" fill="#d62728"/>
<circle cx="315.3" cy="303.9" r="3" fill="#d62728"/>
<circle cx="318.7" cy="290.3" r="3" fill="#d62728"/>
<circle cx="322.2" cy="251.0" r="3" fill="#d62728"/>
<circle cx="325.6" cy="292.3" r="3" fill="#d62728"/>
<circle cx="329.1" cy="317.0" r="3" fill="#d62728"/>
<circle cx="332.5" cy="302.5" r="3" fill="#d62728"/>
<circle cx="336.0" cy="247.7" r="3" fill="#d62728"/>
<circle cx="339.4" cy="317.5" r="3" fill="#d62728"/>
<circle cx="342.8" cy="329.0" r="3" fill="#d62728"/>
<circle cx="346.3" cy="318.1" r="3" fill="#d62728"/>
<circle cx="349.7" cy="305.1" r="3" fill="#d62728"/>
<circle cx="353.2" cy="308.1" r="3" fill="#d62728"/>
<circle cx="356.6" cy="276.3" r="3" fill="#d62728"/>
<circle cx="360.1" cy="306.2" r="3" fill="#d62728"/>
<circle cx="363.5" cy="331.5" r="3" fill="#d62728"/>
<circle cx="366.9" cy="341.9" r="3" fill="#d62728"/>
<circle cx="370.4" cy="347.3" r="3" fill="#d62728"/>
<circle cx="373.8" cy="349.2" r="3" fill="#d62728"/>
<circle cx="377.3" cy="320.3" r="3" fill="#d62728"/>
<circle cx="380.7" cy="274.9" r="3" fill="#d62728"/>
<circle cx="384.1" cy="311.8" r="3" fill="#d62728"/>
<circle cx="387.6" cy="339.4" r="3" fill="#d62728"/>
<circle cx="391.0" cy="356.9" r="3" fill="#d62728"/>
<circle cx="394.5" cy="305.7" r="3" fill="#d62728"/>
<circle cx="397.9" cy="361.2" r="3" fill="#d62728"/>
<circle cx="401.4" cy="359.1" r="3" fill="#d62728"/>
<circle cx="404.8" cy="301.7" r="3" fill="#d62728"/>
<circle cx="408.2" cy="293.4" r="3" fill="#d62728"/>
<circle cx="411.7" cy="324.6" r="3" fill="#d62728"/>
<circle cx="415.1" cy="320.2" r="3" fill="#d62728"/>
<circle cx="418.6" cy="332.1" r="3" fill="#d62728"/>
<circle cx="422.0" cy="304.5" r="3" fill="#d62728"/>
<circle cx="425.5" cy="305.2" r="3" fill="#d62728"/>
<circle cx="428.9" cy="285.6" r="3" fill="#d62728"/>
<circle cx="432.3" cy="279.2" r="3" fill="#d62728"/>
<circle cx="435.8" cy="308.6" r="3" fill="#d62728"/>
<circle cx="439.2" cy="239.7" r="3" fill="#d62728"/>
<circle cx="442.7" cy="349.0" r="3" fill="#d62728"/>
<circle cx="446.1" cy="335.2" r="3" fill="#d62728"/>
<circle cx="449.5" cy="276.8" r="3" fill="#d62728"/>
<circle cx="453.0" cy="302.2" r="3" fill="#d62728"/>
<circle cx="456.4" cy="284.6" r="3" fill="#d62728"/>
<circle cx="459.9" cy="269.4" r="3" fill="#d62728"/>
<circle cx="463.3" cy="262.6" r="3" fill="#d62728"/>
<circle cx="466.8" cy="266.0" r="3" fill="#d62728"/>
<circle cx="470.2" cy="286.0" r="3" fill="#d62728"/>
<circle cx="473.6" cy="200.8" r="3" fill="#d62728"/>
<circle cx="477.1" cy="242.0" r="3" fill="#d62728"/>
<circle cx="480.5" cy="300.1" r="3" fill="#d62728"/>
<circle cx="484.0" cy="284.7" r="3" fill="#d62728"/>
<circle cx="487.4" cy="262.0" r="3" fill="#d62728"/>
<circle cx="490.9" cy="247.2" r="3" fill="#d62728"/>
<circle cx="494.3" cy="290.7" r="3" fill="#d62728"/>
<circle cx="497.7" cy="306.8" r="3" fill="#d62728"/>
<circle cx="501.2" cy="229.7" r="3" fill="#d62728"/>
<circle cx="504.6" cy="282.2" r="3" fill="#d62728"/>
<circle cx="508.1" cy="250.0" r="3" fill="#d62728"/>
<circle cx="511.5" cy="181.1" r="3" fill="#d62728"/>
<circle cx="514.9" cy="235.4" r="3" fill="#d62728"/>
<circle cx="518.4" cy="300.3" r="3" fill="#d62728"/>
<circle cx="521.8" cy="261.1" r="3" fill="#d62728"/>
<circle cx="525.3" cy="262.8" r="3" fill="#d62728"/>
<circle cx="528.7" cy="242.6" r="3" fill="#d62728"/>
<circle cx="532.2" cy="224.9" r="3" fill="#d62728"/>
<circle cx="535.6" cy="273.3" r="3" fill="#d62728"/>
<circle cx="539.0" cy="288.5" r="3" fill="#d62728"/>
<circle cx="542.5" cy="261.2" r="3" fill="#d62728"/>
<circle cx="545.9" cy="263.9" r="3" fill="#d62728"/>
<circle cx="549.4" cy="278.8" r="3" fill="#d62728"/>
<circle cx="552.8" cy="261.9" r="3" fill="#d62728"/>
<circle cx="556.3" cy="272.2" r="3" fill="#d62728"/>
<circle cx="559.7" cy="256.6" r="3" fill="#d62728"/>
<circle cx="563.1" cy="275.0" r="3" fill="#d62728"/>
<circle cx="566.6" cy="247.6" r="3" fill="#d62728"/>
<circle cx="570.0" cy="283.6" r="3" fill="#d62728"/>
<circle cx="573.5" cy="210.2" r="3" fill="#d62728"/>
<circle cx="576.9" cy="257.0" r="3" fill="#d62728"/>
<circle cx="580.4" cy="250.1" r="3" fill="#d62728"/>
<circle cx="583.8" cy="283.6" r="3" fill="#d62728"/>
<circle cx="587.2" cy="218.1" r="3" fill="#d62728"/>
<circle cx="590.7" cy="242.5" r="3" fill="#d62728"/>
<circle cx="594.1" cy="265.1" r="3" fill="#d62728"/>
<circle cx="597.6" cy="265.5" r="3" fill="#d62728"/>
<circle cx="601.0" cy="237.2" r="3" fill="#d62728"/>
<circle cx="604.4" cy="213.0" r="3" fill="#d62728"/>
<circle cx="607.9" cy="236.6" r="3" fill="#d62728"/>
<circle cx="611.3" cy="229.2" r="3" fill="#d62728"/>
<circle cx="614.8" cy="240.2" r="3" fill="#d62728"/>
<circle cx="618.2" cy="258.3" r="3" fill="#d62728"/>
<circle cx="621.7" cy="269.4" r="3" fill="#d62728"/>
<circle cx="625.1" cy="297.2" r="3" fill="#d62728"/>
<circle cx="628.5" cy="277.9" r="3" fill="#d62728"/>
<circle cx="632.0" cy="159.4" r="3" fill="#d62728"/>
<circle cx="635.4" cy="239.2" r="3" fill="#d62728"/>
<circle cx="638.9" cy="161.4" r="3" fill="#d62728"/>
<circle cx="642.3" cy="147.0" r="3" fill="#d62728"/>
<circle cx="645.8" cy="207.3" r="3" fill="#d62728"/>
<circle cx="649.2" cy="274.8" r="3" fill="#d62728"/>
<circle cx="652.6" cy="251.8" r="3" fill="#d62728"/>
<circle cx="656.1" cy="195.6" r="3" fill="#d62728"/>
<circle cx="659.5" cy="237.1" r="3" fill="#d62728"/>
<circle cx="663.0" cy="259.5" r="3" fill="#d62728"/>
<circle cx="666.4" cy="240.3" r="3" fill="#d62728"/>
<circle cx="669.8" cy="241.5" r="3" fill="#d62728"/>
<circle cx="673.3" cy="227.8" r="3" fill="#d62728"/>
<circle cx="676.7" cy="225.4" r="3" fill="#d62728"/>
<circle cx="680.2" cy="246.2" r="3" fill="#d62728"/>
<circle cx="683.6" cy="257.8" r="3" fill="#d62728"/>
<circle cx="687.1" cy="208.0" r="3" fill="#d62728"/>
<circle cx="690.5" cy="215.5" r="3" fill="#d62728"/>
<circle cx="693.9" cy="211.3" r="3" fill="#d62728"/>
<circle cx="697.4" cy="197.7" r="3" fill="#d62728"/>
<circle cx="700.8" cy="168.8" r="3" fill="#d62728"/>
<circle cx="704.3" cy="186.7" r="3" fill="#d62728"/>
<circle cx="707.7" cy="234.3" r="3" fill="#d62728"/>
<circle cx="711.2" cy="217.7" r="3" fill="#d62728"/>
<circle cx="714.6" cy="166.8" r="3" fill="#d62728"/>
<circle cx="718.0" cy="202.8" r="3" fill="#d62728"/>
<circle cx="721.5" cy="224.4" r="3" fill="#d62728"/>
<circle cx="724.9" cy="228.1" r="3" fill="#d62728"/>
<circle cx="728.4" cy="227.1" r="3" fill="#d62728"/>
<circle cx="731.8" cy="200.5" r="3" fill="#d62728"/>
<circle cx="735.3" cy="231.2" r="3" fill="#d62728"/>
<circle cx="738.7" cy="198.5" r="3" fill="#d62728"/>
<circle cx="742.1" cy="141.0" r="3" fill="#d62728"/>
<circle cx="745.6" cy="142.6" r="3" fill="#d62728"/>
<circle cx="749.0" cy="147.3" r="3" fill="#d62728"/>
<circle cx="752.5" cy="213.1" r="3" fill="#d62728"/>
<circle cx="755.9" cy="208.5" r="3" fill="#d62728"/>
<circle cx="759.3" cy="168.2" r="3" fill="#d62728"/>
<circle cx="762.8" cy="116.2" r="3" fill="#d62728"/>
<circle cx="766.2" cy="74.0" r="3" fill="#d62728"/>
<circle cx="769.7" cy="183.7" r="3" fill="#d62728"/>
<circle cx="773.1" cy="123.0" r="3" fill="#d62728"/>
<circle cx="776.6" cy="118.7" r="3" fill="#d62728"/>
<circle cx="780.0" cy="157.0" r="3" fill="#d62728"/>
<line x1="808" y1="121" x2="830" y2="121" stroke="#d62728" stroke-width="2.5"/>
<text x="838" y="125" font-family="Arial" font-size="13">masked_normalize</text>
<polyline fill="none" stroke="#2ca02c" stroke-width="2.3" points="95.0,319.5 98.4,408.3 101.9,410.1 105.3,457.5 108.8,460.3 112.2,425.7 115.7,439.2 119.1,428.4 122.5,414.1 126.0,412.8 129.4,391.0 132.9,396.3 136.3,357.2 139.7,363.2 143.2,384.2 146.6,368.9 150.1,337.2 153.5,335.7 157.0,366.1 160.4,378.3 163.8,371.1 167.3,339.6 170.7,356.3 174.2,378.7 177.6,387.7 181.1,357.1 184.5,341.1 187.9,354.2 191.4,310.4 194.8,318.7 198.3,360.2 201.7,354.5 205.2,359.9 208.6,340.2 212.0,333.6 215.5,322.8 218.9,328.3 222.4,327.7 225.8,375.0 229.2,321.1 232.7,347.3 236.1,328.6 239.6,336.2 243.0,336.7 246.5,310.2 249.9,343.1 253.3,384.5 256.8,264.9 260.2,317.9 263.7,342.0 267.1,334.5 270.6,335.4 274.0,315.7 277.4,362.6 280.9,330.4 284.3,293.8 287.8,357.1 291.2,306.5 294.6,308.7 298.1,279.4 301.5,293.6 305.0,301.2 308.4,323.5 311.9,275.0 315.3,291.5 318.7,287.8 322.2,249.7 325.6,287.8 329.1,274.9 332.5,281.3 336.0,219.0 339.4,290.5 342.8,278.9 346.3,267.6 349.7,262.5 353.2,282.8 356.6,235.9 360.1,291.0 363.5,302.3 366.9,322.9 370.4,323.1 373.8,326.5 377.3,297.3 380.7,240.0 384.1,292.0 387.6,311.5 391.0,294.4 394.5,255.2 397.9,283.3 401.4,301.1 404.8,196.3 408.2,196.8 411.7,241.9 415.1,228.0 418.6,224.1 422.0,212.9 425.5,208.8 428.9,209.5 432.3,207.0 435.8,221.9 439.2,170.5 442.7,267.7 446.1,248.4 449.5,214.8 453.0,221.5 456.4,198.9 459.9,205.6 463.3,183.1 466.8,194.5 470.2,206.8 473.6,126.1 477.1,187.5 480.5,253.9 484.0,224.4 487.4,246.7 490.9,207.7 494.3,276.9 497.7,284.1 501.2,275.4 504.6,295.9 508.1,255.5 511.5,234.8 514.9,241.7 518.4,320.1 521.8,299.0 525.3,276.1 528.7,280.6 532.2,252.6 535.6,272.2 539.0,263.4 542.5,275.8 545.9,247.2 549.4,252.3 552.8,238.4 556.3,246.4 559.7,237.1 563.1,271.9 566.6,244.2 570.0,284.6 573.5,197.5 576.9,260.5 580.4,254.8 583.8,295.8 587.2,217.2 590.7,244.6 594.1,246.3 597.6,229.9 601.0,219.1 604.4,214.8 607.9,228.1 611.3,215.8 614.8,222.7 618.2,259.5 621.7,222.8 625.1,272.0 628.5,270.0 632.0,176.3 635.4,269.6 638.9,164.4 642.3,145.3 645.8,205.0 649.2,277.5 652.6,210.9 656.1,211.1 659.5,270.3 663.0,255.5 666.4,255.7 669.8,281.8 673.3,263.8 676.7,272.9 680.2,273.1 683.6,294.8 687.1,248.9 690.5,256.1 693.9,274.1 697.4,279.4 700.8,226.5 704.3,237.7 707.7,297.7 711.2,253.1 714.6,214.6 718.0,268.9 721.5,278.6 724.9,262.2 728.4,282.7 731.8,251.1 735.3,274.1 738.7,253.3 742.1,225.1 745.6,240.5 749.0,240.2 752.5,289.8 755.9,287.5 759.3,267.4 762.8,230.6 766.2,190.7 769.7,274.5 773.1,222.8 776.6,212.6 780.0,264.1"/>
<circle cx="95.0" cy="319.5" r="3" fill="#2ca02c"/>
<circle cx="98.4" cy="408.3" r="3" fill="#2ca02c"/>
<circle cx="101.9" cy="410.1" r="3" fill="#2ca02c"/>
<circle cx="105.3" cy="457.5" r="3" fill="#2ca02c"/>
<circle cx="108.8" cy="460.3" r="3" fill="#2ca02c"/>
<circle cx="112.2" cy="425.7" r="3" fill="#2ca02c"/>
<circle cx="115.7" cy="439.2" r="3" fill="#2ca02c"/>
<circle cx="119.1" cy="428.4" r="3" fill="#2ca02c"/>
<circle cx="122.5" cy="414.1" r="3" fill="#2ca02c"/>
<circle cx="126.0" cy="412.8" r="3" fill="#2ca02c"/>
<circle cx="129.4" cy="391.0" r="3" fill="#2ca02c"/>
<circle cx="132.9" cy="396.3" r="3" fill="#2ca02c"/>
<circle cx="136.3" cy="357.2" r="3" fill="#2ca02c"/>
<circle cx="139.7" cy="363.2" r="3" fill="#2ca02c"/>
<circle cx="143.2" cy="384.2" r="3" fill="#2ca02c"/>
<circle cx="146.6" cy="368.9" r="3" fill="#2ca02c"/>
<circle cx="150.1" cy="337.2" r="3" fill="#2ca02c"/>
<circle cx="153.5" cy="335.7" r="3" fill="#2ca02c"/>
<circle cx="157.0" cy="366.1" r="3" fill="#2ca02c"/>
<circle cx="160.4" cy="378.3" r="3" fill="#2ca02c"/>
<circle cx="163.8" cy="371.1" r="3" fill="#2ca02c"/>
<circle cx="167.3" cy="339.6" r="3" fill="#2ca02c"/>
<circle cx="170.7" cy="356.3" r="3" fill="#2ca02c"/>
<circle cx="174.2" cy="378.7" r="3" fill="#2ca02c"/>
<circle cx="177.6" cy="387.7" r="3" fill="#2ca02c"/>
<circle cx="181.1" cy="357.1" r="3" fill="#2ca02c"/>
<circle cx="184.5" cy="341.1" r="3" fill="#2ca02c"/>
<circle cx="187.9" cy="354.2" r="3" fill="#2ca02c"/>
<circle cx="191.4" cy="310.4" r="3" fill="#2ca02c"/>
<circle cx="194.8" cy="318.7" r="3" fill="#2ca02c"/>
<circle cx="198.3" cy="360.2" r="3" fill="#2ca02c"/>
<circle cx="201.7" cy="354.5" r="3" fill="#2ca02c"/>
<circle cx="205.2" cy="359.9" r="3" fill="#2ca02c"/>
<circle cx="208.6" cy="340.2" r="3" fill="#2ca02c"/>
<circle cx="212.0" cy="333.6" r="3" fill="#2ca02c"/>
<circle cx="215.5" cy="322.8" r="3" fill="#2ca02c"/>
<circle cx="218.9" cy="328.3" r="3" fill="#2ca02c"/>
<circle cx="222.4" cy="327.7" r="3" fill="#2ca02c"/>
<circle cx="225.8" cy="375.0" r="3" fill="#2ca02c"/>
<circle cx="229.2" cy="321.1" r="3" fill="#2ca02c"/>
<circle cx="232.7" cy="347.3" r="3" fill="#2ca02c"/>
<circle cx="236.1" cy="328.6" r="3" fill="#2ca02c"/>
<circle cx="239.6" cy="336.2" r="3" fill="#2ca02c"/>
<circle cx="243.0" cy="336.7" r="3" fill="#2ca02c"/>
<circle cx="246.5" cy="310.2" r="3" fill="#2ca02c"/>
<circle cx="249.9" cy="343.1" r="3" fill="#2ca02c"/>
<circle cx="253.3" cy="384.5" r="3" fill="#2ca02c"/>
<circle cx="256.8" cy="264.9" r="3" fill="#2ca02c"/>
<circle cx="260.2" cy="317.9" r="3" fill="#2ca02c"/>
<circle cx="263.7" cy="342.0" r="3" fill="#2ca02c"/>
<circle cx="267.1" cy="334.5" r="3" fill="#2ca02c"/>
<circle cx="270.6" cy="335.4" r="3" fill="#2ca02c"/>
<circle cx="274.0" cy="315.7" r="3" fill="#2ca02c"/>
<circle cx="277.4" cy="362.6" r="3" fill="#2ca02c"/>
<circle cx="280.9" cy="330.4" r="3" fill="#2ca02c"/>
<circle cx="284.3" cy="293.8" r="3" fill="#2ca02c"/>
<circle cx="287.8" cy="357.1" r="3" fill="#2ca02c"/>
<circle cx="291.2" cy="306.5" r="3" fill="#2ca02c"/>
<circle cx="294.6" cy="308.7" r="3" fill="#2ca02c"/>
<circle cx="298.1" cy="279.4" r="3" fill="#2ca02c"/>
<circle cx="301.5" cy="293.6" r="3" fill="#2ca02c"/>
<circle cx="305.0" cy="301.2" r="3" fill="#2ca02c"/>
<circle cx="308.4" cy="323.5" r="3" fill="#2ca02c"/>
<circle cx="311.9" cy="275.0" r="3" fill="#2ca02c"/>
<circle cx="315.3" cy="291.5" r="3" fill="#2ca02c"/>
<circle cx="318.7" cy="287.8" r="3" fill="#2ca02c"/>
<circle cx="322.2" cy="249.7" r="3" fill="#2ca02c"/>
<circle cx="325.6" cy="287.8" r="3" fill="#2ca02c"/>
<circle cx="329.1" cy="274.9" r="3" fill="#2ca02c"/>
<circle cx="332.5" cy="281.3" r="3" fill="#2ca02c"/>
<circle cx="336.0" cy="219.0" r="3" fill="#2ca02c"/>
<circle cx="339.4" cy="290.5" r="3" fill="#2ca02c"/>
<circle cx="342.8" cy="278.9" r="3" fill="#2ca02c"/>
<circle cx="346.3" cy="267.6" r="3" fill="#2ca02c"/>
<circle cx="349.7" cy="262.5" r="3" fill="#2ca02c"/>
<circle cx="353.2" cy="282.8" r="3" fill="#2ca02c"/>
<circle cx="356.6" cy="235.9" r="3" fill="#2ca02c"/>
<circle cx="360.1" cy="291.0" r="3" fill="#2ca02c"/>
<circle cx="363.5" cy="302.3" r="3" fill="#2ca02c"/>
<circle cx="366.9" cy="322.9" r="3" fill="#2ca02c"/>
<circle cx="370.4" cy="323.1" r="3" fill="#2ca02c"/>
<circle cx="373.8" cy="326.5" r="3" fill="#2ca02c"/>
<circle cx="377.3" cy="297.3" r="3" fill="#2ca02c"/>
<circle cx="380.7" cy="240.0" r="3" fill="#2ca02c"/>
<circle cx="384.1" cy="292.0" r="3" fill="#2ca02c"/>
<circle cx="387.6" cy="311.5" r="3" fill="#2ca02c"/>
<circle cx="391.0" cy="294.4" r="3" fill="#2ca02c"/>
<circle cx="394.5" cy="255.2" r="3" fill="#2ca02c"/>
<circle cx="397.9" cy="283.3" r="3" fill="#2ca02c"/>
<circle cx="401.4" cy="301.1" r="3" fill="#2ca02c"/>
<circle cx="404.8" cy="196.3" r="3" fill="#2ca02c"/>
<circle cx="408.2" cy="196.8" r="3" fill="#2ca02c"/>
<circle cx="411.7" cy="241.9" r="3" fill="#2ca02c"/>
<circle cx="415.1" cy="228.0" r="3" fill="#2ca02c"/>
<circle cx="418.6" cy="224.1" r="3" fill="#2ca02c"/>
<circle cx="422.0" cy="212.9" r="3" fill="#2ca02c"/>
<circle cx="425.5" cy="208.8" r="3" fill="#2ca02c"/>
<circle cx="428.9" cy="209.5" r="3" fill="#2ca02c"/>
<circle cx="432.3" cy="207.0" r="3" fill="#2ca02c"/>
<circle cx="435.8" cy="221.9" r="3" fill="#2ca02c"/>
<circle cx="439.2" cy="170.5" r="3" fill="#2ca02c"/>
<circle cx="442.7" cy="267.7" r="3" fill="#2ca02c"/>
<circle cx="446.1" cy="248.4" r="3" fill="#2ca02c"/>
<circle cx="449.5" cy="214.8" r="3" fill="#2ca02c"/>
<circle cx="453.0" cy="221.5" r="3" fill="#2ca02c"/>
<circle cx="456.4" cy="198.9" r="3" fill="#2ca02c"/>
<circle cx="459.9" cy="205.6" r="3" fill="#2ca02c"/>
<circle cx="463.3" cy="183.1" r="3" fill="#2ca02c"/>
<circle cx="466.8" cy="194.5" r="3" fill="#2ca02c"/>
<circle cx="470.2" cy="206.8" r="3" fill="#2ca02c"/>
<circle cx="473.6" cy="126.1" r="3" fill="#2ca02c"/>
<circle cx="477.1" cy="187.5" r="3" fill="#2ca02c"/>
<circle cx="480.5" cy="253.9" r="3" fill="#2ca02c"/>
<circle cx="484.0" cy="224.4" r="3" fill="#2ca02c"/>
<circle cx="487.4" cy="246.7" r="3" fill="#2ca02c"/>
<circle cx="490.9" cy="207.7" r="3" fill="#2ca02c"/>
<circle cx="494.3" cy="276.9" r="3" fill="#2ca02c"/>
<circle cx="497.7" cy="284.1" r="3" fill="#2ca02c"/>
<circle cx="501.2" cy="275.4" r="3" fill="#2ca02c"/>
<circle cx="504.6" cy="295.9" r="3" fill="#2ca02c"/>
<circle cx="508.1" cy="255.5" r="3" fill="#2ca02c"/>
<circle cx="511.5" cy="234.8" r="3" fill="#2ca02c"/>
<circle cx="514.9" cy="241.7" r="3" fill="#2ca02c"/>
<circle cx="518.4" cy="320.1" r="3" fill="#2ca02c"/>
<circle cx="521.8" cy="299.0" r="3" fill="#2ca02c"/>
<circle cx="525.3" cy="276.1" r="3" fill="#2ca02c"/>
<circle cx="528.7" cy="280.6" r="3" fill="#2ca02c"/>
<circle cx="532.2" cy="252.6" r="3" fill="#2ca02c"/>
<circle cx="535.6" cy="272.2" r="3" fill="#2ca02c"/>
<circle cx="539.0" cy="263.4" r="3" fill="#2ca02c"/>
<circle cx="542.5" cy="275.8" r="3" fill="#2ca02c"/>
<circle cx="545.9" cy="247.2" r="3" fill="#2ca02c"/>
<circle cx="549.4" cy="252.3" r="3" fill="#2ca02c"/>
<circle cx="552.8" cy="238.4" r="3" fill="#2ca02c"/>
<circle cx="556.3" cy="246.4" r="3" fill="#2ca02c"/>
<circle cx="559.7" cy="237.1" r="3" fill="#2ca02c"/>
<circle cx="563.1" cy="271.9" r="3" fill="#2ca02c"/>
<circle cx="566.6" cy="244.2" r="3" fill="#2ca02c"/>
<circle cx="570.0" cy="284.6" r="3" fill="#2ca02c"/>
<circle cx="573.5" cy="197.5" r="3" fill="#2ca02c"/>
<circle cx="576.9" cy="260.5" r="3" fill="#2ca02c"/>
<circle cx="580.4" cy="254.8" r="3" fill="#2ca02c"/>
<circle cx="583.8" cy="295.8" r="3" fill="#2ca02c"/>
<circle cx="587.2" cy="217.2" r="3" fill="#2ca02c"/>
<circle cx="590.7" cy="244.6" r="3" fill="#2ca02c"/>
<circle cx="594.1" cy="246.3" r="3" fill="#2ca02c"/>
<circle cx="597.6" cy="229.9" r="3" fill="#2ca02c"/>
<circle cx="601.0" cy="219.1" r="3" fill="#2ca02c"/>
<circle cx="604.4" cy="214.8" r="3" fill="#2ca02c"/>
<circle cx="607.9" cy="228.1" r="3" fill="#2ca02c"/>
<circle cx="611.3" cy="215.8" r="3" fill="#2ca02c"/>
<circle cx="614.8" cy="222.7" r="3" fill="#2ca02c"/>
<circle cx="618.2" cy="259.5" r="3" fill="#2ca02c"/>
<circle cx="621.7" cy="222.8" r="3" fill="#2ca02c"/>
<circle cx="625.1" cy="272.0" r="3" fill="#2ca02c"/>
<circle cx="628.5" cy="270.0" r="3" fill="#2ca02c"/>
<circle cx="632.0" cy="176.3" r="3" fill="#2ca02c"/>
<circle cx="635.4" cy="269.6" r="3" fill="#2ca02c"/>
<circle cx="638.9" cy="164.4" r="3" fill="#2ca02c"/>
<circle cx="642.3" cy="145.3" r="3" fill="#2ca02c"/>
<circle cx="645.8" cy="205.0" r="3" fill="#2ca02c"/>
<circle cx="649.2" cy="277.5" r="3" fill="#2ca02c"/>
<circle cx="652.6" cy="210.9" r="3" fill="#2ca02c"/>
<circle cx="656.1" cy="211.1" r="3" fill="#2ca02c"/>
<circle cx="659.5" cy="270.3" r="3" fill="#2ca02c"/>
<circle cx="663.0" cy="255.5" r="3" fill="#2ca02c"/>
<circle cx="666.4" cy="255.7" r="3" fill="#2ca02c"/>
<circle cx="669.8" cy="281.8" r="3" fill="#2ca02c"/>
<circle cx="673.3" cy="263.8" r="3" fill="#2ca02c"/>
<circle cx="676.7" cy="272.9" r="3" fill="#2ca02c"/>
<circle cx="680.2" cy="273.1" r="3" fill="#2ca02c"/>
<circle cx="683.6" cy="294.8" r="3" fill="#2ca02c"/>
<circle cx="687.1" cy="248.9" r="3" fill="#2ca02c"/>
<circle cx="690.5" cy="256.1" r="3" fill="#2ca02c"/>
<circle cx="693.9" cy="274.1" r="3" fill="#2ca02c"/>
<circle cx="697.4" cy="279.4" r="3" fill="#2ca02c"/>
<circle cx="700.8" cy="226.5" r="3" fill="#2ca02c"/>
<circle cx="704.3" cy="237.7" r="3" fill="#2ca02c"/>
<circle cx="707.7" cy="297.7" r="3" fill="#2ca02c"/>
<circle cx="711.2" cy="253.1" r="3" fill="#2ca02c"/>
<circle cx="714.6" cy="214.6" r="3" fill="#2ca02c"/>
<circle cx="718.0" cy="268.9" r="3" fill="#2ca02c"/>
<circle cx="721.5" cy="278.6" r="3" fill="#2ca02c"/>
<circle cx="724.9" cy="262.2" r="3" fill="#2ca02c"/>
<circle cx="728.4" cy="282.7" r="3" fill="#2ca02c"/>
<circle cx="731.8" cy="251.1" r="3" fill="#2ca02c"/>
<circle cx="735.3" cy="274.1" r="3" fill="#2ca02c"/>
<circle cx="738.7" cy="253.3" r="3" fill="#2ca02c"/>
<circle cx="742.1" cy="225.1" r="3" fill="#2ca02c"/>
<circle cx="745.6" cy="240.5" r="3" fill="#2ca02c"/>
<circle cx="749.0" cy="240.2" r="3" fill="#2ca02c"/>
<circle cx="752.5" cy="289.8" r="3" fill="#2ca02c"/>
<circle cx="755.9" cy="287.5" r="3" fill="#2ca02c"/>
<circle cx="759.3" cy="267.4" r="3" fill="#2ca02c"/>
<circle cx="762.8" cy="230.6" r="3" fill="#2ca02c"/>
<circle cx="766.2" cy="190.7" r="3" fill="#2ca02c"/>
<circle cx="769.7" cy="274.5" r="3" fill="#2ca02c"/>
<circle cx="773.1" cy="222.8" r="3" fill="#2ca02c"/>
<circle cx="776.6" cy="212.6" r="3" fill="#2ca02c"/>
<circle cx="780.0" cy="264.1" r="3" fill="#2ca02c"/>
<line x1="808" y1="146" x2="830" y2="146" stroke="#2ca02c" stroke-width="2.5"/>
<text x="838" y="150" font-family="Arial" font-size="13">batch_token_mean</text>
<text x="437.5" y="618" text-anchor="middle" font-family="Arial" font-size="15">GRPO step</text>
<text x="24" y="316.0" text-anchor="middle" font-family="Arial" font-size="15" transform="rotate(-90 24 316.0)">average response tokens</text>
</svg>
