<svg xmlns="http://www.w3.org/2000/svg" width="1040" height="640" viewBox="0 0 1040 640">
<rect width="100%" height="100%" fill="white"/>
<text x="520.0" y="36" text-anchor="middle" font-family="Arial" font-size="22" font-weight="700">GRPO rollout response length by length normalization</text>
<line x1="95" y1="558" x2="780" y2="558" stroke="#222" stroke-width="1.5"/>
<line x1="95" y1="74" x2="95" y2="558" stroke="#222" stroke-width="1.5"/>
<line x1="90" y1="558.0" x2="780" y2="558.0" stroke="#ddd" stroke-width="1"/>
<text x="83" y="562.0" text-anchor="end" font-family="Arial" font-size="12">0.00</text>
<line x1="90" y1="461.2" x2="780" y2="461.2" stroke="#ddd" stroke-width="1"/>
<text x="83" y="465.2" text-anchor="end" font-family="Arial" font-size="12">204.80</text>
<line x1="90" y1="364.4" x2="780" y2="364.4" stroke="#ddd" stroke-width="1"/>
<text x="83" y="368.4" text-anchor="end" font-family="Arial" font-size="12">409.60</text>
<line x1="90" y1="267.6" x2="780" y2="267.6" stroke="#ddd" stroke-width="1"/>
<text x="83" y="271.6" text-anchor="end" font-family="Arial" font-size="12">614.40</text>
<line x1="90" y1="170.8" x2="780" y2="170.8" stroke="#ddd" stroke-width="1"/>
<text x="83" y="174.8" text-anchor="end" font-family="Arial" font-size="12">819.20</text>
<line x1="90" y1="74.0" x2="780" y2="74.0" stroke="#ddd" stroke-width="1"/>
<text x="83" y="78.0" text-anchor="end" font-family="Arial" font-size="12">1024.00</text>
<line x1="95.0" y1="558" x2="95.0" y2="563" stroke="#222" stroke-width="1"/>
<text x="95.0" y="582" text-anchor="middle" font-family="Arial" font-size="12">1</text>
<line x1="232.0" y1="558" x2="232.0" y2="563" stroke="#222" stroke-width="1"/>
<text x="232.0" y="582" text-anchor="middle" font-family="Arial" font-size="12">41</text>
<line x1="369.0" y1="558" x2="369.0" y2="563" stroke="#222" stroke-width="1"/>
<text x="369.0" y="582" text-anchor="middle" font-family="Arial" font-size="12">81</text>
<line x1="506.0" y1="558" x2="506.0" y2="563" stroke="#222" stroke-width="1"/>
<text x="506.0" y="582" text-anchor="middle" font-family="Arial" font-size="12">120</text>
<line x1="643.0" y1="558" x2="643.0" y2="563" stroke="#222" stroke-width="1"/>
<text x="643.0" y="582" text-anchor="middle" font-family="Arial" font-size="12">160</text>
<line x1="780.0" y1="558" x2="780.0" y2="563" stroke="#222" stroke-width="1"/>
<text x="780.0" y="582" text-anchor="middle" font-family="Arial" font-size="12">200</text>
<polyline fill="none" stroke="#1f77b4" stroke-width="2.3" points="95.0,413.8 98.4,482.1 101.9,491.4 105.3,460.3 108.8,469.9 112.2,468.2 115.7,481.6 119.1,492.9 122.5,492.3 126.0,498.1 129.4,496.0 132.9,478.5 136.3,465.5 139.7,457.2 143.2,447.9 146.6,436.4 150.1,448.5 153.5,416.6 157.0,452.4 160.4,448.4 163.8,443.6 167.3,444.6 170.7,448.2 174.2,443.6 177.6,458.4 181.1,451.9 184.5,455.8 187.9,446.9 191.4,446.0 194.8,442.1 198.3,453.7 201.7,456.8 205.2,452.2 208.6,449.0 212.0,429.8 215.5,441.2 218.9,441.9 222.4,442.6 225.8,465.4 229.2,436.8 232.7,454.3 236.1,450.5 239.6,453.3 243.0,463.7 246.5,439.3 249.9,440.6 253.3,462.4 256.8,433.8 260.2,434.9 263.7,449.2 267.1,436.0 270.6,437.4 274.0,436.9 277.4,452.0 280.9,437.3 284.3,418.7 287.8,454.1 291.2,422.8 294.6,426.3 298.1,395.7 301.5,431.1 305.0,423.3 308.4,448.2 311.9,404.0 315.3,425.1 318.7,422.1 322.2,397.1 325.6,422.0 329.1,429.5 332.5,404.4 336.0,384.7 339.4,418.6 342.8,411.3 346.3,403.0 349.7,415.2 353.2,420.2 356.6,395.2 360.1,412.7 363.5,416.4 366.9,438.7 370.4,423.4 373.8,430.2 377.3,421.5 380.7,411.4 384.1,428.0 387.6,438.6 391.0,447.0 394.5,423.3 397.9,441.5 401.4,457.0 404.8,429.3 408.2,419.1 411.7,447.9 415.1,441.8 418.6,432.0 422.0,436.0 425.5,410.7 428.9,410.4 432.3,420.5 435.8,397.5 439.2,384.6 442.7,428.8 446.1,449.7 449.5,421.8 453.0,418.2 456.4,418.0 459.9,418.2 463.3,401.9 466.8,396.6 470.2,415.4 473.6,382.8 477.1,403.2 480.5,438.3 484.0,419.6 487.4,423.8 490.9,400.0 494.3,434.3 497.7,430.8 501.2,428.0 504.6,419.8 508.1,415.3 511.5,373.9 514.9,425.3 518.4,447.6 521.8,432.4 525.3,419.9 528.7,420.2 532.2,411.2 535.6,442.7 539.0,427.5 542.5,420.4 545.9,406.2 549.4,404.9 552.8,412.0 556.3,428.6 559.7,419.1 563.1,419.8 566.6,436.4 570.0,425.7 573.5,389.1 576.9,421.3 580.4,412.0 583.8,428.1 587.2,391.0 590.7,409.7 594.1,424.8 597.6,421.7 601.0,398.5 604.4,377.2 607.9,415.4 611.3,393.7 614.8,370.1 618.2,419.2 621.7,388.9 625.1,398.3 628.5,384.5 632.0,345.5 635.4,376.8 638.9,355.0 642.3,335.2 645.8,379.4 649.2,403.5 652.6,410.4 656.1,374.3 659.5,376.3 663.0,401.7 666.4,381.8 669.8,385.7 673.3,384.5 676.7,376.6 680.2,361.8 683.6,373.1 687.1,375.4 690.5,364.8 693.9,380.5 697.4,374.1 700.8,341.0 704.3,377.6 707.7,374.0 711.2,395.9 714.6,341.6 718.0,363.8 721.5,411.3 724.9,394.2 728.4,414.2 731.8,390.0 735.3,415.3 738.7,374.4 742.1,376.5 745.6,350.5 749.0,344.4 752.5,424.3 755.9,394.2 759.3,389.3 762.8,356.6 766.2,309.2 769.7,375.2 773.1,331.4 776.6,334.8 780.0,372.0"/>
<circle cx="95.0" cy="413.8" r="3" fill="#1f77b4"/>
<circle cx="98.4" cy="482.1" r="3" fill="#1f77b4"/>
<circle cx="101.9" cy="491.4" r="3" fill="#1f77b4"/>
<circle cx="105.3" cy="460.3" r="3" fill="#1f77b4"/>
<circle cx="108.8" cy="469.9" r="3" fill="#1f77b4"/>
<circle cx="112.2" cy="468.2" r="3" fill="#1f77b4"/>
<circle cx="115.7" cy="481.6" r="3" fill="#1f77b4"/>
<circle cx="119.1" cy="492.9" r="3" fill="#1f77b4"/>
<circle cx="122.5" cy="492.3" r="3" fill="#1f77b4"/>
<circle cx="126.0" cy="498.1" r="3" fill="#1f77b4"/>
<circle cx="129.4" cy="496.0" r="3" fill="#1f77b4"/>
<circle cx="132.9" cy="478.5" r="3" fill="#1f77b4"/>
<circle cx="136.3" cy="465.5" r="3" fill="#1f77b4"/>
<circle cx="139.7" cy="457.2" r="3" fill="#1f77b4"/>
<circle cx="143.2" cy="447.9" r="3" fill="#1f77b4"/>
<circle cx="146.6" cy="436.4" r="3" fill="#1f77b4"/>
<circle cx="150.1" cy="448.5" r="3" fill="#1f77b4"/>
<circle cx="153.5" cy="416.6" r="3" fill="#1f77b4"/>
<circle cx="157.0" cy="452.4" r="3" fill="#1f77b4"/>
<circle cx="160.4" cy="448.4" r="3" fill="#1f77b4"/>
<circle cx="163.8" cy="443.6" r="3" fill="#1f77b4"/>
<circle cx="167.3" cy="444.6" r="3" fill="#1f77b4"/>
<circle cx="170.7" cy="448.2" r="3" fill="#1f77b4"/>
<circle cx="174.2" cy="443.6" r="3" fill="#1f77b4"/>
<circle cx="177.6" cy="458.4" r="3" fill="#1f77b4"/>
<circle cx="181.1" cy="451.9" r="3" fill="#1f77b4"/>
<circle cx="184.5" cy="455.8" r="3" fill="#1f77b4"/>
<circle cx="187.9" cy="446.9" r="3" fill="#1f77b4"/>
<circle cx="191.4" cy="446.0" r="3" fill="#1f77b4"/>
<circle cx="194.8" cy="442.1" r="3" fill="#1f77b4"/>
<circle cx="198.3" cy="453.7" r="3" fill="#1f77b4"/>
<circle cx="201.7" cy="456.8" r="3" fill="#1f77b4"/>
<circle cx="205.2" cy="452.2" r="3" fill="#1f77b4"/>
<circle cx="208.6" cy="449.0" r="3" fill="#1f77b4"/>
<circle cx="212.0" cy="429.8" r="3" fill="#1f77b4"/>
<circle cx="215.5" cy="441.2" r="3" fill="#1f77b4"/>
<circle cx="218.9" cy="441.9" r="3" fill="#1f77b4"/>
<circle cx="222.4" cy="442.6" r="3" fill="#1f77b4"/>
<circle cx="225.8" cy="465.4" r="3" fill="#1f77b4"/>
<circle cx="229.2" cy="436.8" r="3" fill="#1f77b4"/>
<circle cx="232.7" cy="454.3" r="3" fill="#1f77b4"/>
<circle cx="236.1" cy="450.5" r="3" fill="#1f77b4"/>
<circle cx="239.6" cy="453.3" r="3" fill="#1f77b4"/>
<circle cx="243.0" cy="463.7" r="3" fill="#1f77b4"/>
<circle cx="246.5" cy="439.3" r="3" fill="#1f77b4"/>
<circle cx="249.9" cy="440.6" r="3" fill="#1f77b4"/>
<circle cx="253.3" cy="462.4" r="3" fill="#1f77b4"/>
<circle cx="256.8" cy="433.8" r="3" fill="#1f77b4"/>
<circle cx="260.2" cy="434.9" r="3" fill="#1f77b4"/>
<circle cx="263.7" cy="449.2" r="3" fill="#1f77b4"/>
<circle cx="267.1" cy="436.0" r="3" fill="#1f77b4"/>
<circle cx="270.6" cy="437.4" r="3" fill="#1f77b4"/>
<circle cx="274.0" cy="436.9" r="3" fill="#1f77b4"/>
<circle cx="277.4" cy="452.0" r="3" fill="#1f77b4"/>
<circle cx="280.9" cy="437.3" r="3" fill="#1f77b4"/>
<circle cx="284.3" cy="418.7" r="3" fill="#1f77b4"/>
<circle cx="287.8" cy="454.1" r="3" fill="#1f77b4"/>
<circle cx="291.2" cy="422.8" r="3" fill="#1f77b4"/>
<circle cx="294.6" cy="426.3" r="3" fill="#1f77b4"/>
<circle cx="298.1" cy="395.7" r="3" fill="#1f77b4"/>
<circle cx="301.5" cy="431.1" r="3" fill="#1f77b4"/>
<circle cx="305.0" cy="423.3" r="3" fill="#1f77b4"/>
<circle cx="308.4" cy="448.2" r="3" fill="#1f77b4"/>
<circle cx="311.9" cy="404.0" r="3" fill="#1f77b4"/>
<circle cx="315.3" cy="425.1" r="3" fill="#1f77b4"/>
<circle cx="318.7" cy="422.1" r="3" fill="#1f77b4"/>
<circle cx="322.2" cy="397.1" r="3" fill="#1f77b4"/>
<circle cx="325.6" cy="422.0" r="3" fill="#1f77b4"/>
<circle cx="329.1" cy="429.5" r="3" fill="#1f77b4"/>
<circle cx="332.5" cy="404.4" r="3" fill="#1f77b4"/>
<circle cx="336.0" cy="384.7" r="3" fill="#1f77b4"/>
<circle cx="339.4" cy="418.6" r="3" fill="#1f77b4"/>
<circle cx="342.8" cy="411.3" r="3" fill="#1f77b4"/>
<circle cx="346.3" cy="403.0" r="3" fill="#1f77b4"/>
<circle cx="349.7" cy="415.2" r="3" fill="#1f77b4"/>
<circle cx="353.2" cy="420.2" r="3" fill="#1f77b4"/>
<circle cx="356.6" cy="395.2" r="3" fill="#1f77b4"/>
<circle cx="360.1" cy="412.7" r="3" fill="#1f77b4"/>
<circle cx="363.5" cy="416.4" r="3" fill="#1f77b4"/>
<circle cx="366.9" cy="438.7" r="3" fill="#1f77b4"/>
<circle cx="370.4" cy="423.4" r="3" fill="#1f77b4"/>
<circle cx="373.8" cy="430.2" r="3" fill="#1f77b4"/>
<circle cx="377.3" cy="421.5" r="3" fill="#1f77b4"/>
<circle cx="380.7" cy="411.4" r="3" fill="#1f77b4"/>
<circle cx="384.1" cy="428.0" r="3" fill="#1f77b4"/>
<circle cx="387.6" cy="438.6" r="3" fill="#1f77b4"/>
<circle cx="391.0" cy="447.0" r="3" fill="#1f77b4"/>
<circle cx="394.5" cy="423.3" r="3" fill="#1f77b4"/>
<circle cx="397.9" cy="441.5" r="3" fill="#1f77b4"/>
<circle cx="401.4" cy="457.0" r="3" fill="#1f77b4"/>
<circle cx="404.8" cy="429.3" r="3" fill="#1f77b4"/>
<circle cx="408.2" cy="419.1" r="3" fill="#1f77b4"/>
<circle cx="411.7" cy="447.9" r="3" fill="#1f77b4"/>
<circle cx="415.1" cy="441.8" r="3" fill="#1f77b4"/>
<circle cx="418.6" cy="432.0" r="3" fill="#1f77b4"/>
<circle cx="422.0" cy="436.0" r="3" fill="#1f77b4"/>
<circle cx="425.5" cy="410.7" r="3" fill="#1f77b4"/>
<circle cx="428.9" cy="410.4" r="3" fill="#1f77b4"/>
<circle cx="432.3" cy="420.5" r="3" fill="#1f77b4"/>
<circle cx="435.8" cy="397.5" r="3" fill="#1f77b4"/>
<circle cx="439.2" cy="384.6" r="3" fill="#1f77b4"/>
<circle cx="442.7" cy="428.8" r="3" fill="#1f77b4"/>
<circle cx="446.1" cy="449.7" r="3" fill="#1f77b4"/>
<circle cx="449.5" cy="421.8" r="3" fill="#1f77b4"/>
<circle cx="453.0" cy="418.2" r="3" fill="#1f77b4"/>
<circle cx="456.4" cy="418.0" r="3" fill="#1f77b4"/>
<circle cx="459.9" cy="418.2" r="3" fill="#1f77b4"/>
<circle cx="463.3" cy="401.9" r="3" fill="#1f77b4"/>
<circle cx="466.8" cy="396.6" r="3" fill="#1f77b4"/>
<circle cx="470.2" cy="415.4" r="3" fill="#1f77b4"/>
<circle cx="473.6" cy="382.8" r="3" fill="#1f77b4"/>
<circle cx="477.1" cy="403.2" r="3" fill="#1f77b4"/>
<circle cx="480.5" cy="438.3" r="3" fill="#1f77b4"/>
<circle cx="484.0" cy="419.6" r="3" fill="#1f77b4"/>
<circle cx="487.4" cy="423.8" r="3" fill="#1f77b4"/>
<circle cx="490.9" cy="400.0" r="3" fill="#1f77b4"/>
<circle cx="494.3" cy="434.3" r="3" fill="#1f77b4"/>
<circle cx="497.7" cy="430.8" r="3" fill="#1f77b4"/>
<circle cx="501.2" cy="428.0" r="3" fill="#1f77b4"/>
<circle cx="504.6" cy="419.8" r="3" fill="#1f77b4"/>
<circle cx="508.1" cy="415.3" r="3" fill="#1f77b4"/>
<circle cx="511.5" cy="373.9" r="3" fill="#1f77b4"/>
<circle cx="514.9" cy="425.3" r="3" fill="#1f77b4"/>
<circle cx="518.4" cy="447.6" r="3" fill="#1f77b4"/>
<circle cx="521.8" cy="432.4" r="3" fill="#1f77b4"/>
<circle cx="525.3" cy="419.9" r="3" fill="#1f77b4"/>
<circle cx="528.7" cy="420.2" r="3" fill="#1f77b4"/>
<circle cx="532.2" cy="411.2" r="3" fill="#1f77b4"/>
<circle cx="535.6" cy="442.7" r="3" fill="#1f77b4"/>
<circle cx="539.0" cy="427.5" r="3" fill="#1f77b4"/>
<circle cx="542.5" cy="420.4" r="3" fill="#1f77b4"/>
<circle cx="545.9" cy="406.2" r="3" fill="#1f77b4"/>
<circle cx="549.4" cy="404.9" r="3" fill="#1f77b4"/>
<circle cx="552.8" cy="412.0" r="3" fill="#1f77b4"/>
<circle cx="556.3" cy="428.6" r="3" fill="#1f77b4"/>
<circle cx="559.7" cy="419.1" r="3" fill="#1f77b4"/>
<circle cx="563.1" cy="419.8" r="3" fill="#1f77b4"/>
<circle cx="566.6" cy="436.4" r="3" fill="#1f77b4"/>
<circle cx="570.0" cy="425.7" r="3" fill="#1f77b4"/>
<circle cx="573.5" cy="389.1" r="3" fill="#1f77b4"/>
<circle cx="576.9" cy="421.3" r="3" fill="#1f77b4"/>
<circle cx="580.4" cy="412.0" r="3" fill="#1f77b4"/>
<circle cx="583.8" cy="428.1" r="3" fill="#1f77b4"/>
<circle cx="587.2" cy="391.0" r="3" fill="#1f77b4"/>
<circle cx="590.7" cy="409.7" r="3" fill="#1f77b4"/>
<circle cx="594.1" cy="424.8" r="3" fill="#1f77b4"/>
<circle cx="597.6" cy="421.7" r="3" fill="#1f77b4"/>
<circle cx="601.0" cy="398.5" r="3" fill="#1f77b4"/>
<circle cx="604.4" cy="377.2" r="3" fill="#1f77b4"/>
<circle cx="607.9" cy="415.4" r="3" fill="#1f77b4"/>
<circle cx="611.3" cy="393.7" r="3" fill="#1f77b4"/>
<circle cx="614.8" cy="370.1" r="3" fill="#1f77b4"/>
<circle cx="618.2" cy="419.2" r="3" fill="#1f77b4"/>
<circle cx="621.7" cy="388.9" r="3" fill="#1f77b4"/>
<circle cx="625.1" cy="398.3" r="3" fill="#1f77b4"/>
<circle cx="628.5" cy="384.5" r="3" fill="#1f77b4"/>
<circle cx="632.0" cy="345.5" r="3" fill="#1f77b4"/>
<circle cx="635.4" cy="376.8" r="3" fill="#1f77b4"/>
<circle cx="638.9" cy="355.0" r="3" fill="#1f77b4"/>
<circle cx="642.3" cy="335.2" r="3" fill="#1f77b4"/>
<circle cx="645.8" cy="379.4" r="3" fill="#1f77b4"/>
<circle cx="649.2" cy="403.5" r="3" fill="#1f77b4"/>
<circle cx="652.6" cy="410.4" r="3" fill="#1f77b4"/>
<circle cx="656.1" cy="374.3" r="3" fill="#1f77b4"/>
<circle cx="659.5" cy="376.3" r="3" fill="#1f77b4"/>
<circle cx="663.0" cy="401.7" r="3" fill="#1f77b4"/>
<circle cx="666.4" cy="381.8" r="3" fill="#1f77b4"/>
<circle cx="669.8" cy="385.7" r="3" fill="#1f77b4"/>
<circle cx="673.3" cy="384.5" r="3" fill="#1f77b4"/>
<circle cx="676.7" cy="376.6" r="3" fill="#1f77b4"/>
<circle cx="680.2" cy="361.8" r="3" fill="#1f77b4"/>
<circle cx="683.6" cy="373.1" r="3" fill="#1f77b4"/>
<circle cx="687.1" cy="375.4" r="3" fill="#1f77b4"/>
<circle cx="690.5" cy="364.8" r="3" fill="#1f77b4"/>
<circle cx="693.9" cy="380.5" r="3" fill="#1f77b4"/>
<circle cx="697.4" cy="374.1" r="3" fill="#1f77b4"/>
<circle cx="700.8" cy="341.0" r="3" fill="#1f77b4"/>
<circle cx="704.3" cy="377.6" r="3" fill="#1f77b4"/>
<circle cx="707.7" cy="374.0" r="3" fill="#1f77b4"/>
<circle cx="711.2" cy="395.9" r="3" fill="#1f77b4"/>
<circle cx="714.6" cy="341.6" r="3" fill="#1f77b4"/>
<circle cx="718.0" cy="363.8" r="3" fill="#1f77b4"/>
<circle cx="721.5" cy="411.3" r="3" fill="#1f77b4"/>
<circle cx="724.9" cy="394.2" r="3" fill="#1f77b4"/>
<circle cx="728.4" cy="414.2" r="3" fill="#1f77b4"/>
<circle cx="731.8" cy="390.0" r="3" fill="#1f77b4"/>
<circle cx="735.3" cy="415.3" r="3" fill="#1f77b4"/>
<circle cx="738.7" cy="374.4" r="3" fill="#1f77b4"/>
<circle cx="742.1" cy="376.5" r="3" fill="#1f77b4"/>
<circle cx="745.6" cy="350.5" r="3" fill="#1f77b4"/>
<circle cx="749.0" cy="344.4" r="3" fill="#1f77b4"/>
<circle cx="752.5" cy="424.3" r="3" fill="#1f77b4"/>
<circle cx="755.9" cy="394.2" r="3" fill="#1f77b4"/>
<circle cx="759.3" cy="389.3" r="3" fill="#1f77b4"/>
<circle cx="762.8" cy="356.6" r="3" fill="#1f77b4"/>
<circle cx="766.2" cy="309.2" r="3" fill="#1f77b4"/>
<circle cx="769.7" cy="375.2" r="3" fill="#1f77b4"/>
<circle cx="773.1" cy="331.4" r="3" fill="#1f77b4"/>
<circle cx="776.6" cy="334.8" r="3" fill="#1f77b4"/>
<circle cx="780.0" cy="372.0" r="3" fill="#1f77b4"/>
<line x1="808" y1="96" x2="830" y2="96" stroke="#1f77b4" stroke-width="2.5"/>
<text x="838" y="100" font-family="Arial" font-size="13">masked_mean</text>
<polyline fill="none" stroke="#d62728" stroke-width="2.3" points="95.0,413.8 98.4,471.3 101.9,486.7 105.3,461.8 108.8,466.2 112.2,449.4 115.7,468.5 119.1,469.9 122.5,479.0 126.0,469.6 129.4,465.6 132.9,472.7 136.3,469.6 139.7,461.2 143.2,460.1 146.6,466.2 150.1,458.5 153.5,455.2 157.0,455.9 160.4,442.1 163.8,451.6 167.3,441.2 170.7,448.1 174.2,446.2 177.6,464.0 181.1,426.9 184.5,440.2 187.9,434.8 191.4,410.2 194.8,405.4 198.3,407.7 201.7,375.6 205.2,336.1 208.6,268.2 212.0,182.5 215.5,110.1 218.9,135.0 222.4,125.1 225.8,105.7 229.2,117.1 232.7,101.2 236.1,85.8 239.6,107.0 243.0,79.2 246.5,110.2 249.9,80.4 253.3,104.3 256.8,75.7 260.2,74.0 263.7,84.4 267.1,124.2 270.6,103.7 274.0,107.2 277.4,107.8 280.9,105.4 284.3,100.4 287.8,135.3 291.2,142.3 294.6,97.0 298.1,107.0 301.5,118.0 305.0,118.8 308.4,142.4 311.9,174.8 315.3,126.7 318.7,131.8 322.2,156.1 325.6,176.9 329.1,226.0 332.5,254.7 336.0,284.2 339.4,394.8 342.8,412.6 346.3,358.8 349.7,355.9 353.2,381.2 356.6,364.9 360.1,391.7 363.5,410.1 366.9,395.0 370.4,394.5 373.8,387.2 377.3,340.6 380.7,346.2 384.1,380.3 387.6,368.8 391.0,371.3 394.5,335.4 397.9,360.5 401.4,374.7 404.8,310.4 408.2,328.8 411.7,352.2 415.1,300.7 418.6,314.7 422.0,300.9 425.5,276.8 428.9,280.1 432.3,309.1 435.8,333.0 439.2,279.3 442.7,384.7 446.1,336.5 449.5,345.6 453.0,369.1 456.4,357.6 459.9,350.3 463.3,314.3 466.8,336.7 470.2,298.2 473.6,297.1 477.1,341.6 480.5,384.2 484.0,340.3 487.4,339.2 490.9,295.5 494.3,375.0 497.7,369.8 501.2,373.2 504.6,299.8 508.1,322.8 511.5,286.8 514.9,300.0 518.4,349.9 521.8,303.2 525.3,335.2 528.7,321.1 532.2,310.1 535.6,333.6 539.0,336.8 542.5,345.3 545.9,333.3 549.4,344.0 552.8,359.8 556.3,346.1 559.7,380.5 563.1,328.1 566.6,321.7 570.0,344.7 573.5,259.1 576.9,318.4 580.4,360.5 583.8,390.2 587.2,300.8 590.7,360.8 594.1,374.5 597.6,333.4 601.0,329.0 604.4,321.9 607.9,319.2 611.3,325.8 614.8,226.4 618.2,333.6 621.7,288.8 625.1,317.9 628.5,314.4 632.0,287.4 635.4,342.5 638.9,308.2 642.3,307.1 645.8,326.5 649.2,375.9 652.6,349.2 656.1,331.6 659.5,367.2 663.0,322.6 666.4,339.7 669.8,309.0 673.3,290.6 676.7,294.9 680.2,282.4 683.6,286.5 687.1,285.1 690.5,266.7 693.9,299.9 697.4,296.7 700.8,298.4 704.3,343.4 707.7,347.7 711.2,357.7 714.6,331.9 718.0,335.6 721.5,329.9 724.9,328.0 728.4,331.3 731.8,335.9 735.3,316.3 738.7,286.3 742.1,263.4 745.6,259.7 749.0,210.6 752.5,274.1 755.9,242.7 759.3,233.0 762.8,219.0 766.2,207.9 769.7,234.9 773.1,213.4 776.6,225.4 780.0,232.5"/>
<circle cx="95.0" cy="413.8" r="3" fill="#d62728"/>
<circle cx="98.4" cy="471.3" r="3" fill="#d62728"/>
<circle cx="101.9" cy="486.7" r="3" fill="#d62728"/>
<circle cx="105.3" cy="461.8" r="3" fill="#d62728"/>
<circle cx="108.8" cy="466.2" r="3" fill="#d62728"/>
<circle cx="112.2" cy="449.4" r="3" fill="#d62728"/>
<circle cx="115.7" cy="468.5" r="3" fill="#d62728"/>
<circle cx="119.1" cy="469.9" r="3" fill="#d62728"/>
<circle cx="122.5" cy="479.0" r="3" fill="#d62728"/>
<circle cx="126.0" cy="469.6" r="3" fill="#d62728"/>
<circle cx="129.4" cy="465.6" r="3" fill="#d62728"/>
<circle cx="132.9" cy="472.7" r="3" fill="#d62728"/>
<circle cx="136.3" cy="469.6" r="3" fill="#d62728"/>
<circle cx="139.7" cy="461.2" r="3" fill="#d62728"/>
<circle cx="143.2" cy="460.1" r="3" fill="#d62728"/>
<circle cx="146.6" cy="466.2" r="3" fill="#d62728"/>
<circle cx="150.1" cy="458.5" r="3" fill="#d62728"/>
<circle cx="153.5" cy="455.2" r="3" fill="#d62728"/>
<circle cx="157.0" cy="455.9" r="3" fill="#d62728"/>
<circle cx="160.4" cy="442.1" r="3" fill="#d62728"/>
<circle cx="163.8" cy="451.6" r="3" fill="#d62728"/>
<circle cx="167.3" cy="441.2" r="3" fill="#d62728"/>
<circle cx="170.7" cy="448.1" r="3" fill="#d62728"/>
<circle cx="174.2" cy="446.2" r="3" fill="#d62728"/>
<circle cx="177.6" cy="464.0" r="3" fill="#d62728"/>
<circle cx="181.1" cy="426.9" r="3" fill="#d62728"/>
<circle cx="184.5" cy="440.2" r="3" fill="#d62728"/>
<circle cx="187.9" cy="434.8" r="3" fill="#d62728"/>
<circle cx="191.4" cy="410.2" r="3" fill="#d62728"/>
<circle cx="194.8" cy="405.4" r="3" fill="#d62728"/>
<circle cx="198.3" cy="407.7" r="3" fill="#d62728"/>
<circle cx="201.7" cy="375.6" r="3" fill="#d62728"/>
<circle cx="205.2" cy="336.1" r="3" fill="#d62728"/>
<circle cx="208.6" cy="268.2" r="3" fill="#d62728"/>
<circle cx="212.0" cy="182.5" r="3" fill="#d62728"/>
<circle cx="215.5" cy="110.1" r="3" fill="#d62728"/>
<circle cx="218.9" cy="135.0" r="3" fill="#d62728"/>
<circle cx="222.4" cy="125.1" r="3" fill="#d62728"/>
<circle cx="225.8" cy="105.7" r="3" fill="#d62728"/>
<circle cx="229.2" cy="117.1" r="3" fill="#d62728"/>
<circle cx="232.7" cy="101.2" r="3" fill="#d62728"/>
<circle cx="236.1" cy="85.8" r="3" fill="#d62728"/>
<circle cx="239.6" cy="107.0" r="3" fill="#d62728"/>
<circle cx="243.0" cy="79.2" r="3" fill="#d62728"/>
<circle cx="246.5" cy="110.2" r="3" fill="#d62728"/>
<circle cx="249.9" cy="80.4" r="3" fill="#d62728"/>
<circle cx="253.3" cy="104.3" r="3" fill="#d62728"/>
<circle cx="256.8" cy="75.7" r="3" fill="#d62728"/>
<circle cx="260.2" cy="74.0" r="3" fill="#d62728"/>
<circle cx="263.7" cy="84.4" r="3" fill="#d62728"/>
<circle cx="267.1" cy="124.2" r="3" fill="#d62728"/>
<circle cx="270.6" cy="103.7" r="3" fill="#d62728"/>
<circle cx="274.0" cy="107.2" r="3" fill="#d62728"/>
<circle cx="277.4" cy="107.8" r="3" fill="#d62728"/>
<circle cx="280.9" cy="105.4" r="3" fill="#d62728"/>
<circle cx="284.3" cy="100.4" r="3" fill="#d62728"/>
<circle cx="287.8" cy="135.3" r="3" fill="#d62728"/>
<circle cx="291.2" cy="142.3" r="3" fill="#d62728"/>
<circle cx="294.6" cy="97.0" r="3" fill="#d62728"/>
<circle cx="298.1" cy="107.0" r="3" fill="#d62728"/>
<circle cx="301.5" cy="118.0" r="3" fill="#d62728"/>
<circle cx="305.0" cy="118.8" r="3" fill="#d62728"/>
<circle cx="308.4" cy="142.4" r="3" fill="#d62728"/>
<circle cx="311.9" cy="174.8" r="3" fill="#d62728"/>
<circle cx="315.3" cy="126.7" r="3" fill="#d62728"/>
<circle cx="318.7" cy="131.8" r="3" fill="#d62728"/>
<circle cx="322.2" cy="156.1" r="3" fill="#d62728"/>
<circle cx="325.6" cy="176.9" r="3" fill="#d62728"/>
<circle cx="329.1" cy="226.0" r="3" fill="#d62728"/>
<circle cx="332.5" cy="254.7" r="3" fill="#d62728"/>
<circle cx="336.0" cy="284.2" r="3" fill="#d62728"/>
<circle cx="339.4" cy="394.8" r="3" fill="#d62728"/>
<circle cx="342.8" cy="412.6" r="3" fill="#d62728"/>
<circle cx="346.3" cy="358.8" r="3" fill="#d62728"/>
<circle cx="349.7" cy="355.9" r="3" fill="#d62728"/>
<circle cx="353.2" cy="381.2" r="3" fill="#d62728"/>
<circle cx="356.6" cy="364.9" r="3" fill="#d62728"/>
<circle cx="360.1" cy="391.7" r="3" fill="#d62728"/>
<circle cx="363.5" cy="410.1" r="3" fill="#d62728"/>
<circle cx="366.9" cy="395.0" r="3" fill="#d62728"/>
<circle cx="370.4" cy="394.5" r="3" fill="#d62728"/>
<circle cx="373.8" cy="387.2" r="3" fill="#d62728"/>
<circle cx="377.3" cy="340.6" r="3" fill="#d62728"/>
<circle cx="380.7" cy="346.2" r="3" fill="#d62728"/>
<circle cx="384.1" cy="380.3" r="3" fill="#d62728"/>
<circle cx="387.6" cy="368.8" r="3" fill="#d62728"/>
<circle cx="391.0" cy="371.3" r="3" fill="#d62728"/>
<circle cx="394.5" cy="335.4" r="3" fill="#d62728"/>
<circle cx="397.9" cy="360.5" r="3" fill="#d62728"/>
<circle cx="401.4" cy="374.7" r="3" fill="#d62728"/>
<circle cx="404.8" cy="310.4" r="3" fill="#d62728"/>
<circle cx="408.2" cy="328.8" r="3" fill="#d62728"/>
<circle cx="411.7" cy="352.2" r="3" fill="#d62728"/>
<circle cx="415.1" cy="300.7" r="3" fill="#d62728"/>
<circle cx="418.6" cy="314.7" r="3" fill="#d62728"/>
<circle cx="422.0" cy="300.9" r="3" fill="#d62728"/>
<circle cx="425.5" cy="276.8" r="3" fill="#d62728"/>
<circle cx="428.9" cy="280.1" r="3" fill="#d62728"/>
<circle cx="432.3" cy="309.1" r="3" fill="#d62728"/>
<circle cx="435.8" cy="333.0" r="3" fill="#d62728"/>
<circle cx="439.2" cy="279.3" r="3" fill="#d62728"/>
<circle cx="442.7" cy="384.7" r="3" fill="#d62728"/>
<circle cx="446.1" cy="336.5" r="3" fill="#d62728"/>
<circle cx="449.5" cy="345.6" r="3" fill="#d62728"/>
<circle cx="453.0" cy="369.1" r="3" fill="#d62728"/>
<circle cx="456.4" cy="357.6" r="3" fill="#d62728"/>
<circle cx="459.9" cy="350.3" r="3" fill="#d62728"/>
<circle cx="463.3" cy="314.3" r="3" fill="#d62728"/>
<circle cx="466.8" cy="336.7" r="3" fill="#d62728"/>
<circle cx="470.2" cy="298.2" r="3" fill="#d62728"/>
<circle cx="473.6" cy="297.1" r="3" fill="#d62728"/>
<circle cx="477.1" cy="341.6" r="3" fill="#d62728"/>
<circle cx="480.5" cy="384.2" r="3" fill="#d62728"/>
<circle cx="484.0" cy="340.3" r="3" fill="#d62728"/>
<circle cx="487.4" cy="339.2" r="3" fill="#d62728"/>
<circle cx="490.9" cy="295.5" r="3" fill="#d62728"/>
<circle cx="494.3" cy="375.0" r="3" fill="#d62728"/>
<circle cx="497.7" cy="369.8" r="3" fill="#d62728"/>
<circle cx="501.2" cy="373.2" r="3" fill="#d62728"/>
<circle cx="504.6" cy="299.8" r="3" fill="#d62728"/>
<circle cx="508.1" cy="322.8" r="3" fill="#d62728"/>
<circle cx="511.5" cy="286.8" r="3" fill="#d62728"/>
<circle cx="514.9" cy="300.0" r="3" fill="#d62728"/>
<circle cx="518.4" cy="349.9" r="3" fill="#d62728"/>
<circle cx="521.8" cy="303.2" r="3" fill="#d62728"/>
<circle cx="525.3" cy="335.2" r="3" fill="#d62728"/>
<circle cx="528.7" cy="321.1" r="3" fill="#d62728"/>
<circle cx="532.2" cy="310.1" r="3" fill="#d62728"/>
<circle cx="535.6" cy="333.6" r="3" fill="#d62728"/>
<circle cx="539.0" cy="336.8" r="3" fill="#d62728"/>
<circle cx="542.5" cy="345.3" r="3" fill="#d62728"/>
<circle cx="545.9" cy="333.3" r="3" fill="#d62728"/>
<circle cx="549.4" cy="344.0" r="3" fill="#d62728"/>
<circle cx="552.8" cy="359.8" r="3" fill="#d62728"/>
<circle cx="556.3" cy="346.1" r="3" fill="#d62728"/>
<circle cx="559.7" cy="380.5" r="3" fill="#d62728"/>
<circle cx="563.1" cy="328.1" r="3" fill="#d62728"/>
<circle cx="566.6" cy="321.7" r="3" fill="#d62728"/>
<circle cx="570.0" cy="344.7" r="3" fill="#d62728"/>
<circle cx="573.5" cy="259.1" r="3" fill="#d62728"/>
<circle cx="576.9" cy="318.4" r="3" fill="#d62728"/>
<circle cx="580.4" cy="360.5" r="3" fill="#d62728"/>
<circle cx="583.8" cy="390.2" r="3" fill="#d62728"/>
<circle cx="587.2" cy="300.8" r="3" fill="#d62728"/>
<circle cx="590.7" cy="360.8" r="3" fill="#d62728"/>
<circle cx="594.1" cy="374.5" r="3" fill="#d62728"/>
<circle cx="597.6" cy="333.4" r="3" fill="#d62728"/>
<circle cx="601.0" cy="329.0" r="3" fill="#d62728"/>
<circle cx="604.4" cy="321.9" r="3" fill="#d62728"/>
<circle cx="607.9" cy="319.2" r="3" fill="#d62728"/>
<circle cx="611.3" cy="325.8" r="3" fill="#d62728"/>
<circle cx="614.8" cy="226.4" r="3" fill="#d62728"/>
<circle cx="618.2" cy="333.6" r="3" fill="#d62728"/>
<circle cx="621.7" cy="288.8" r="3" fill="#d62728"/>
<circle cx="625.1" cy="317.9" r="3" fill="#d62728"/>
<circle cx="628.5" cy="314.4" r="3" fill="#d62728"/>
<circle cx="632.0" cy="287.4" r="3" fill="#d62728"/>
<circle cx="635.4" cy="342.5" r="3" fill="#d62728"/>
<circle cx="638.9" cy="308.2" r="3" fill="#d62728"/>
<circle cx="642.3" cy="307.1" r="3" fill="#d62728"/>
<circle cx="645.8" cy="326.5" r="3" fill="#d62728"/>
<circle cx="649.2" cy="375.9" r="3" fill="#d62728"/>
<circle cx="652.6" cy="349.2" r="3" fill="#d62728"/>
<circle cx="656.1" cy="331.6" r="3" fill="#d62728"/>
<circle cx="659.5" cy="367.2" r="3" fill="#d62728"/>
<circle cx="663.0" cy="322.6" r="3" fill="#d62728"/>
<circle cx="666.4" cy="339.7" r="3" fill="#d62728"/>
<circle cx="669.8" cy="309.0" r="3" fill="#d62728"/>
<circle cx="673.3" cy="290.6" r="3" fill="#d62728"/>
<circle cx="676.7" cy="294.9" r="3" fill="#d62728"/>
<circle cx="680.2" cy="282.4" r="3" fill="#d62728"/>
<circle cx="683.6" cy="286.5" r="3" fill="#d62728"/>
<circle cx="687.1" cy="285.1" r="3" fill="#d62728"/>
<circle cx="690.5" cy="266.7" r="3" fill="#d62728"/>
<circle cx="693.9" cy="299.9" r="3" fill="#d62728"/>
<circle cx="697.4" cy="296.7" r="3" fill="#d62728"/>
<circle cx="700.8" cy="298.4" r="3" fill="#d62728"/>
<circle cx="704.3" cy="343.4" r="3" fill="#d62728"/>
<circle cx="707.7" cy="347.7" r="3" fill="#d62728"/>
<circle cx="711.2" cy="357.7" r="3" fill="#d62728"/>
<circle cx="714.6" cy="331.9" r="3" fill="#d62728"/>
<circle cx="718.0" cy="335.6" r="3" fill="#d62728"/>
<circle cx="721.5" cy="329.9" r="3" fill="#d62728"/>
<circle cx="724.9" cy="328.0" r="3" fill="#d62728"/>
<circle cx="728.4" cy="331.3" r="3" fill="#d62728"/>
<circle cx="731.8" cy="335.9" r="3" fill="#d62728"/>
<circle cx="735.3" cy="316.3" r="3" fill="#d62728"/>
<circle cx="738.7" cy="286.3" r="3" fill="#d62728"/>
<circle cx="742.1" cy="263.4" r="3" fill="#d62728"/>
<circle cx="745.6" cy="259.7" r="3" fill="#d62728"/>
<circle cx="749.0" cy="210.6" r="3" fill="#d62728"/>
<circle cx="752.5" cy="274.1" r="3" fill="#d62728"/>
<circle cx="755.9" cy="242.7" r="3" fill="#d62728"/>
<circle cx="759.3" cy="233.0" r="3" fill="#d62728"/>
<circle cx="762.8" cy="219.0" r="3" fill="#d62728"/>
<circle cx="766.2" cy="207.9" r="3" fill="#d62728"/>
<circle cx="769.7" cy="234.9" r="3" fill="#d62728"/>
<circle cx="773.1" cy="213.4" r="3" fill="#d62728"/>
<circle cx="776.6" cy="225.4" r="3" fill="#d62728"/>
<circle cx="780.0" cy="232.5" r="3" fill="#d62728"/>
<line x1="808" y1="121" x2="830" y2="121" stroke="#d62728" stroke-width="2.5"/>
<text x="838" y="125" font-family="Arial" font-size="13">masked_normalize</text>
<text x="437.5" y="618" text-anchor="middle" font-family="Arial" font-size="15">GRPO step</text>
<text x="24" y="316.0" text-anchor="middle" font-family="Arial" font-size="15" transform="rotate(-90 24 316.0)">average response tokens</text>
</svg>
