<svg xmlns="http://www.w3.org/2000/svg" width="1040" height="640" viewBox="0 0 1040 640">
<rect width="100%" height="100%" fill="white"/>
<text x="520.0" y="36" text-anchor="middle" font-family="Arial" font-size="22" font-weight="700">GRPO validation format accuracy by length normalization</text>
<line x1="95" y1="558" x2="780" y2="558" stroke="#222" stroke-width="1.5"/>
<line x1="95" y1="74" x2="95" y2="558" stroke="#222" stroke-width="1.5"/>
<line x1="90" y1="558.0" x2="780" y2="558.0" stroke="#ddd" stroke-width="1"/>
<text x="83" y="562.0" text-anchor="end" font-family="Arial" font-size="12">0.00</text>
<line x1="90" y1="461.2" x2="780" y2="461.2" stroke="#ddd" stroke-width="1"/>
<text x="83" y="465.2" text-anchor="end" font-family="Arial" font-size="12">0.20</text>
<line x1="90" y1="364.4" x2="780" y2="364.4" stroke="#ddd" stroke-width="1"/>
<text x="83" y="368.4" text-anchor="end" font-family="Arial" font-size="12">0.40</text>
<line x1="90" y1="267.6" x2="780" y2="267.6" stroke="#ddd" stroke-width="1"/>
<text x="83" y="271.6" text-anchor="end" font-family="Arial" font-size="12">0.60</text>
<line x1="90" y1="170.8" x2="780" y2="170.8" stroke="#ddd" stroke-width="1"/>
<text x="83" y="174.8" text-anchor="end" font-family="Arial" font-size="12">0.80</text>
<line x1="90" y1="74.0" x2="780" y2="74.0" stroke="#ddd" stroke-width="1"/>
<text x="83" y="78.0" text-anchor="end" font-family="Arial" font-size="12">1.00</text>
<line x1="95.0" y1="558" x2="95.0" y2="563" stroke="#222" stroke-width="1"/>
<text x="95.0" y="582" text-anchor="middle" font-family="Arial" font-size="12">0</text>
<line x1="232.0" y1="558" x2="232.0" y2="563" stroke="#222" stroke-width="1"/>
<text x="232.0" y="582" text-anchor="middle" font-family="Arial" font-size="12">40</text>
<line x1="369.0" y1="558" x2="369.0" y2="563" stroke="#222" stroke-width="1"/>
<text x="369.0" y="582" text-anchor="middle" font-family="Arial" font-size="12">80</text>
<line x1="506.0" y1="558" x2="506.0" y2="563" stroke="#222" stroke-width="1"/>
<text x="506.0" y="582" text-anchor="middle" font-family="Arial" font-size="12">120</text>
<line x1="643.0" y1="558" x2="643.0" y2="563" stroke="#222" stroke-width="1"/>
<text x="643.0" y="582" text-anchor="middle" font-family="Arial" font-size="12">160</text>
<line x1="780.0" y1="558" x2="780.0" y2="563" stroke="#222" stroke-width="1"/>
<text x="780.0" y="582" text-anchor="middle" font-family="Arial" font-size="12">200</text>
<polyline fill="none" stroke="#1f77b4" stroke-width="2.3" points="95.0,470.6 112.1,175.6 129.2,126.9 146.4,128.4 163.5,101.4 180.6,96.2 197.8,93.4 214.9,90.1 232.0,89.1 249.1,86.3 266.2,82.5 283.4,85.8 300.5,90.1 317.6,94.3 334.8,93.9 351.9,98.1 369.0,93.9 386.1,89.6 403.2,90.5 420.4,97.2 437.5,101.4 454.6,101.9 471.8,93.4 488.9,98.6 506.0,98.1 523.1,92.0 540.2,105.2 557.4,106.1 574.5,118.0 591.6,111.8 608.8,104.7 625.9,112.3 643.0,107.6 660.1,124.1 677.2,125.0 694.4,127.9 711.5,139.7 728.6,135.0 745.8,127.4 762.9,135.0 780.0,133.6"/>
<circle cx="95.0" cy="470.6" r="3" fill="#1f77b4"/>
<circle cx="112.1" cy="175.6" r="3" fill="#1f77b4"/>
<circle cx="129.2" cy="126.9" r="3" fill="#1f77b4"/>
<circle cx="146.4" cy="128.4" r="3" fill="#1f77b4"/>
<circle cx="163.5" cy="101.4" r="3" fill="#1f77b4"/>
<circle cx="180.6" cy="96.2" r="3" fill="#1f77b4"/>
<circle cx="197.8" cy="93.4" r="3" fill="#1f77b4"/>
<circle cx="214.9" cy="90.1" r="3" fill="#1f77b4"/>
<circle cx="232.0" cy="89.1" r="3" fill="#1f77b4"/>
<circle cx="249.1" cy="86.3" r="3" fill="#1f77b4"/>
<circle cx="266.2" cy="82.5" r="3" fill="#1f77b4"/>
<circle cx="283.4" cy="85.8" r="3" fill="#1f77b4"/>
<circle cx="300.5" cy="90.1" r="3" fill="#1f77b4"/>
<circle cx="317.6" cy="94.3" r="3" fill="#1f77b4"/>
<circle cx="334.8" cy="93.9" r="3" fill="#1f77b4"/>
<circle cx="351.9" cy="98.1" r="3" fill="#1f77b4"/>
<circle cx="369.0" cy="93.9" r="3" fill="#1f77b4"/>
<circle cx="386.1" cy="89.6" r="3" fill="#1f77b4"/>
<circle cx="403.2" cy="90.5" r="3" fill="#1f77b4"/>
<circle cx="420.4" cy="97.2" r="3" fill="#1f77b4"/>
<circle cx="437.5" cy="101.4" r="3" fill="#1f77b4"/>
<circle cx="454.6" cy="101.9" r="3" fill="#1f77b4"/>
<circle cx="471.8" cy="93.4" r="3" fill="#1f77b4"/>
<circle cx="488.9" cy="98.6" r="3" fill="#1f77b4"/>
<circle cx="506.0" cy="98.1" r="3" fill="#1f77b4"/>
<circle cx="523.1" cy="92.0" r="3" fill="#1f77b4"/>
<circle cx="540.2" cy="105.2" r="3" fill="#1f77b4"/>
<circle cx="557.4" cy="106.1" r="3" fill="#1f77b4"/>
<circle cx="574.5" cy="118.0" r="3" fill="#1f77b4"/>
<circle cx="591.6" cy="111.8" r="3" fill="#1f77b4"/>
<circle cx="608.8" cy="104.7" r="3" fill="#1f77b4"/>
<circle cx="625.9" cy="112.3" r="3" fill="#1f77b4"/>
<circle cx="643.0" cy="107.6" r="3" fill="#1f77b4"/>
<circle cx="660.1" cy="124.1" r="3" fill="#1f77b4"/>
<circle cx="677.2" cy="125.0" r="3" fill="#1f77b4"/>
<circle cx="694.4" cy="127.9" r="3" fill="#1f77b4"/>
<circle cx="711.5" cy="139.7" r="3" fill="#1f77b4"/>
<circle cx="728.6" cy="135.0" r="3" fill="#1f77b4"/>
<circle cx="745.8" cy="127.4" r="3" fill="#1f77b4"/>
<circle cx="762.9" cy="135.0" r="3" fill="#1f77b4"/>
<circle cx="780.0" cy="133.6" r="3" fill="#1f77b4"/>
<line x1="808" y1="96" x2="830" y2="96" stroke="#1f77b4" stroke-width="2.5"/>
<text x="838" y="100" font-family="Arial" font-size="13">masked_mean</text>
<polyline fill="none" stroke="#d62728" stroke-width="2.3" points="95.0,470.6 112.1,174.7 129.2,133.6 146.4,107.6 163.5,110.4 180.6,104.2 197.8,107.6 214.9,173.7 232.0,221.5 249.1,238.0 266.2,186.0 283.4,197.8 300.5,176.1 317.6,162.9 334.8,116.1 351.9,104.7 369.0,111.3 386.1,110.4 403.2,117.5 420.4,117.5 437.5,108.0 454.6,106.1 471.8,107.6 488.9,109.4 506.0,116.5 523.1,125.5 540.2,118.0 557.4,123.2 574.5,126.0 591.6,119.8 608.8,124.6 625.9,139.2 643.0,147.3 660.1,136.4 677.2,196.4 694.4,172.8 711.5,157.2 728.6,175.6 745.8,250.8 762.9,287.2 780.0,282.9"/>
<circle cx="95.0" cy="470.6" r="3" fill="#d62728"/>
<circle cx="112.1" cy="174.7" r="3" fill="#d62728"/>
<circle cx="129.2" cy="133.6" r="3" fill="#d62728"/>
<circle cx="146.4" cy="107.6" r="3" fill="#d62728"/>
<circle cx="163.5" cy="110.4" r="3" fill="#d62728"/>
<circle cx="180.6" cy="104.2" r="3" fill="#d62728"/>
<circle cx="197.8" cy="107.6" r="3" fill="#d62728"/>
<circle cx="214.9" cy="173.7" r="3" fill="#d62728"/>
<circle cx="232.0" cy="221.5" r="3" fill="#d62728"/>
<circle cx="249.1" cy="238.0" r="3" fill="#d62728"/>
<circle cx="266.2" cy="186.0" r="3" fill="#d62728"/>
<circle cx="283.4" cy="197.8" r="3" fill="#d62728"/>
<circle cx="300.5" cy="176.1" r="3" fill="#d62728"/>
<circle cx="317.6" cy="162.9" r="3" fill="#d62728"/>
<circle cx="334.8" cy="116.1" r="3" fill="#d62728"/>
<circle cx="351.9" cy="104.7" r="3" fill="#d62728"/>
<circle cx="369.0" cy="111.3" r="3" fill="#d62728"/>
<circle cx="386.1" cy="110.4" r="3" fill="#d62728"/>
<circle cx="403.2" cy="117.5" r="3" fill="#d62728"/>
<circle cx="420.4" cy="117.5" r="3" fill="#d62728"/>
<circle cx="437.5" cy="108.0" r="3" fill="#d62728"/>
<circle cx="454.6" cy="106.1" r="3" fill="#d62728"/>
<circle cx="471.8" cy="107.6" r="3" fill="#d62728"/>
<circle cx="488.9" cy="109.4" r="3" fill="#d62728"/>
<circle cx="506.0" cy="116.5" r="3" fill="#d62728"/>
<circle cx="523.1" cy="125.5" r="3" fill="#d62728"/>
<circle cx="540.2" cy="118.0" r="3" fill="#d62728"/>
<circle cx="557.4" cy="123.2" r="3" fill="#d62728"/>
<circle cx="574.5" cy="126.0" r="3" fill="#d62728"/>
<circle cx="591.6" cy="119.8" r="3" fill="#d62728"/>
<circle cx="608.8" cy="124.6" r="3" fill="#d62728"/>
<circle cx="625.9" cy="139.2" r="3" fill="#d62728"/>
<circle cx="643.0" cy="147.3" r="3" fill="#d62728"/>
<circle cx="660.1" cy="136.4" r="3" fill="#d62728"/>
<circle cx="677.2" cy="196.4" r="3" fill="#d62728"/>
<circle cx="694.4" cy="172.8" r="3" fill="#d62728"/>
<circle cx="711.5" cy="157.2" r="3" fill="#d62728"/>
<circle cx="728.6" cy="175.6" r="3" fill="#d62728"/>
<circle cx="745.8" cy="250.8" r="3" fill="#d62728"/>
<circle cx="762.9" cy="287.2" r="3" fill="#d62728"/>
<circle cx="780.0" cy="282.9" r="3" fill="#d62728"/>
<line x1="808" y1="121" x2="830" y2="121" stroke="#d62728" stroke-width="2.5"/>
<text x="838" y="125" font-family="Arial" font-size="13">masked_normalize</text>
<text x="437.5" y="618" text-anchor="middle" font-family="Arial" font-size="15">GRPO step</text>
<text x="24" y="316.0" text-anchor="middle" font-family="Arial" font-size="15" transform="rotate(-90 24 316.0)">validation format accuracy</text>
</svg>
